<svg width="20" height="20" viewBox="0 0 20 20" fill="none" xmlns="http://www.w3.org/2000/svg">
<mask id="mask0_474_17373" style="mask-type:luminance" maskUnits="userSpaceOnUse" x="0" y="0" width="20" height="20">
<path d="M20 0H0V20H20V0Z" fill="white"/>
</mask>
<g mask="url(#mask0_474_17373)">
<path d="M15.5 2H4.5C3.83696 2 3.20107 2.26339 2.73223 2.73223C2.26339 3.20107 2 3.83696 2 4.5V15.5C2 16.163 2.26339 16.7989 2.73223 17.2678C3.20107 17.7366 3.83696 18 4.5 18H15.5C16.163 18 16.7989 17.7366 17.2678 17.2678C17.7366 16.7989 18 16.163 18 15.5V4.5C18 3.83696 17.7366 3.20107 17.2678 2.73223C16.7989 2.26339 16.163 2 15.5 2ZM17 4.5V9.876L11.768 10.876L11.159 8.136C11.4743 7.93546 11.7169 7.63896 11.8509 7.29017C11.985 6.94138 12.0035 6.55875 11.9037 6.19865C11.8039 5.83855 11.5911 5.52003 11.2966 5.29C11.0021 5.05998 10.6415 4.93063 10.268 4.921L9.841 3H15.5C15.8978 3 16.2794 3.15804 16.5607 3.43934C16.842 3.72064 17 4.10218 17 4.5ZM10.217 5.917C10.3653 5.917 10.5103 5.96099 10.6337 6.0434C10.757 6.12581 10.8531 6.24294 10.9099 6.37999C10.9667 6.51703 10.9815 6.66783 10.9526 6.81332C10.9236 6.9588 10.8522 7.09244 10.7473 7.19733C10.6424 7.30222 10.5088 7.37365 10.3633 7.40259C10.2178 7.43153 10.067 7.41668 9.92999 7.35991C9.79294 7.30314 9.67581 7.20701 9.5934 7.08368C9.51099 6.96034 9.467 6.81534 9.467 6.667C9.46753 6.46825 9.54671 6.27779 9.68725 6.13725C9.82779 5.99672 10.0182 5.91753 10.217 5.917ZM4.5 3H8.816L9.3 5.182C8.97585 5.37965 8.72505 5.67768 8.58569 6.03084C8.44633 6.38399 8.42601 6.77298 8.52783 7.13873C8.62965 7.50448 8.84803 7.82701 9.14983 8.05736C9.45163 8.2877 9.82035 8.41327 10.2 8.415L10.79 11.065L7.9 11.617C7.71265 11.294 7.42632 11.0399 7.08335 10.8922C6.74039 10.7446 6.35901 10.7113 5.99563 10.7972C5.63225 10.8831 5.30618 11.0837 5.06564 11.3693C4.8251 11.6549 4.68287 12.0103 4.66 12.383L3 12.7V4.5C3 4.10218 3.15804 3.72064 3.43934 3.43934C3.72064 3.15804 4.10218 3 4.5 3ZM5.652 12.5C5.652 12.3517 5.69599 12.2067 5.7784 12.0833C5.86081 11.96 5.97794 11.8639 6.11499 11.8071C6.25203 11.7503 6.40283 11.7355 6.54832 11.7644C6.6938 11.7934 6.82744 11.8648 6.93233 11.9697C7.03722 12.0746 7.10865 12.2082 7.13759 12.3537C7.16653 12.4992 7.15168 12.65 7.09491 12.787C7.03814 12.9241 6.94201 13.0412 6.81868 13.1236C6.69534 13.206 6.55034 13.25 6.402 13.25C6.20325 13.2495 6.01279 13.1703 5.87225 13.0297C5.73171 12.8892 5.65253 12.6988 5.652 12.5ZM3 15.5V13.72L4.887 13.359C5.03377 13.6191 5.24496 13.8372 5.50028 13.9921C5.75561 14.1471 6.04649 14.2339 6.345 14.244L7.016 17H4.5C4.10218 17 3.72064 16.842 3.43934 16.5607C3.15804 16.2794 3 15.8978 3 15.5ZM15.5 17H8.046L7.313 13.987C7.55493 13.8389 7.75701 13.634 7.90167 13.39C8.04632 13.146 8.12917 12.8703 8.143 12.587L17 10.894V15.5C17 15.8978 16.842 16.2794 16.5607 16.5607C16.2794 16.842 15.8978 17 15.5 17Z" fill="white" fill-opacity="0.87"/>
</g>
</svg>
