<svg width="32" height="32" viewBox="0 0 32 32" fill="none" xmlns="http://www.w3.org/2000/svg">
<mask id="mask0_641_884" style="mask-type:luminance" maskUnits="userSpaceOnUse" x="6" y="6" width="20" height="20">
<path d="M11.037 21.986C10.872 21.8755 10.7575 21.7041 10.7187 21.5093C10.6799 21.3145 10.7199 21.1123 10.83 20.947C10.913 20.822 12.906 17.887 16 17.887C19.094 17.887 21.087 20.822 21.17 20.947C21.2248 21.0289 21.2629 21.1207 21.2821 21.2173C21.3014 21.3139 21.3014 21.4134 21.2822 21.51C21.2631 21.6066 21.2251 21.6985 21.1704 21.7805C21.1157 21.8624 21.0454 21.9327 20.9635 21.9875C20.8816 22.0423 20.7898 22.0804 20.6932 22.0996C20.5966 22.1189 20.4971 22.1189 20.4005 22.0997C20.3039 22.0806 20.212 22.0425 20.13 21.9879C20.0481 21.9332 19.9778 21.8629 19.923 21.781C19.907 21.757 18.283 19.387 16 19.387C13.717 19.387 12.092 21.757 12.077 21.781C12.0083 21.8833 11.9154 21.967 11.8065 22.0248C11.6977 22.0825 11.5762 22.1125 11.453 22.112C11.3062 22.1121 11.1627 22.0682 11.041 21.986M10.545 13.727C10.545 12.974 10.952 12.364 11.454 12.364C11.956 12.364 12.363 12.974 12.363 13.727C12.363 14.48 11.956 15.091 11.454 15.091C10.952 15.091 10.545 14.481 10.545 13.727ZM19.636 13.727C19.636 12.974 20.043 12.364 20.545 12.364C21.047 12.364 21.454 12.974 21.454 13.727C21.454 14.48 21.047 15.091 20.545 15.091C20.043 15.091 19.636 14.481 19.636 13.727ZM16 6C14.0222 6 12.0888 6.58649 10.4443 7.6853C8.79981 8.78412 7.51809 10.3459 6.76121 12.1732C6.00433 14.0004 5.8063 16.0111 6.19215 17.9509C6.578 19.8907 7.53041 21.6725 8.92894 23.0711C10.3275 24.4696 12.1093 25.422 14.0491 25.8078C15.9889 26.1937 17.9996 25.9957 19.8268 25.2388C21.6541 24.4819 23.2159 23.2002 24.3147 21.5557C25.4135 19.9112 26 17.9778 26 16C26 13.3478 24.9464 10.8043 23.0711 8.92893C21.1957 7.05357 18.6522 6 16 6Z" fill="white"/>
</mask>
<g mask="url(#mask0_641_884)">
<path d="M26 6H6V26H26V6Z" fill="url(#paint0_radial_641_884)"/>
</g>
<defs>
<radialGradient id="paint0_radial_641_884" cx="0" cy="0" r="1" gradientUnits="userSpaceOnUse" gradientTransform="translate(11 12) rotate(47.3859) scale(16.9853 16.8838)">
<stop stop-color="#FF8585"/>
<stop offset="0.445" stop-color="#E62222"/>
<stop offset="1" stop-color="#730000"/>
</radialGradient>
</defs>
</svg>
