<svg width="20" height="20" viewBox="0 0 20 20" fill="none" xmlns="http://www.w3.org/2000/svg">
<mask id="mask0_370_12904" style="mask-type:luminance" maskUnits="userSpaceOnUse" x="0" y="0" width="20" height="20">
<path d="M20 0H0V20H20V0Z" fill="white"/>
</mask>
<g mask="url(#mask0_370_12904)">
<path d="M14.3283 14.3771H11.0025V13.2828L12.5041 11.769C12.581 11.6481 12.6214 11.5075 12.6204 11.3643V9.13281H7.37607V11.3608C7.37508 11.504 7.41544 11.6446 7.49231 11.7655L8.99831 13.2793V14.3771H5.66904C5.43186 14.372 5.20232 14.4611 5.03076 14.6249C4.8592 14.7888 4.75964 15.014 4.75391 15.2512V16.9993H15.2425V15.2512C15.237 15.0141 15.1377 14.7889 14.9662 14.625C14.7948 14.4611 14.5654 14.372 14.3283 14.3771Z" fill="white"/>
<path d="M14.0958 3.46529C13.7007 2.88754 12.2008 2.57812 10.0253 2.57812C7.94507 2.57812 6.45918 2.90152 5.98282 3.39973C5.94383 3.43503 5.90894 3.47461 5.87881 3.51773L4.75391 5.20028H15.2425C15.2425 5.20028 14.1063 3.47141 14.0967 3.46354" fill="white"/>
<path d="M4.75391 8.25935H15.2425C15.2425 8.25935 14.2103 6.52698 13.9367 6.07422H6.07722L4.75391 8.25935Z" fill="white"/>
</g>
</svg>
