<svg width="24" height="24" viewBox="0 0 24 24" fill="none" xmlns="http://www.w3.org/2000/svg">
<mask id="mask0_203_2530" style="mask-type:luminance" maskUnits="userSpaceOnUse" x="0" y="0" width="24" height="24">
<path d="M24 0H0V24H24V0Z" fill="white"/>
</mask>
<g mask="url(#mask0_203_2530)">
<path d="M12.5508 15H10.5508C10.4182 15 10.291 15.0527 10.1972 15.1464C10.1035 15.2402 10.0508 15.3674 10.0508 15.5V19.5C10.0508 19.6326 10.1035 19.7598 10.1972 19.8536C10.291 19.9473 10.4182 20 10.5508 20H12.5508C12.6834 20 12.8106 19.9473 12.9043 19.8536C12.9981 19.7598 13.0508 19.6326 13.0508 19.5V15.5C13.0508 15.3674 12.9981 15.2402 12.9043 15.1464C12.8106 15.0527 12.6834 15 12.5508 15Z" fill="white"/>
<path d="M7.5 13H5.5C5.36739 13 5.24021 13.0527 5.14645 13.1464C5.05268 13.2402 5 13.3674 5 13.5V19.5C5 19.6326 5.05268 19.7598 5.14645 19.8536C5.24021 19.9473 5.36739 20 5.5 20H7.5C7.63261 20 7.75979 19.9473 7.85355 19.8536C7.94732 19.7598 8 19.6326 8 19.5V13.5C8 13.3674 7.94732 13.2402 7.85355 13.1464C7.75979 13.0527 7.63261 13 7.5 13Z" fill="white"/>
<path d="M17.5 10H15.5C15.3674 10 15.2402 10.0527 15.1464 10.1464C15.0527 10.2402 15 10.3674 15 10.5V19.5C15 19.6326 15.0527 19.7598 15.1464 19.8536C15.2402 19.9473 15.3674 20 15.5 20H17.5C17.6326 20 17.7598 19.9473 17.8536 19.8536C17.9473 19.7598 18 19.6326 18 19.5V10.5C18 10.3674 17.9473 10.2402 17.8536 10.1464C17.7598 10.0527 17.6326 10 17.5 10Z" fill="white"/>
<path d="M11.5006 11.9984C11.7495 11.9981 11.9945 11.9359 12.2133 11.8174C12.4322 11.6988 12.6181 11.5276 12.7543 11.3193C12.8905 11.1109 12.9727 10.872 12.9936 10.6239C13.0144 10.3759 12.9732 10.1266 12.8736 9.89844L15.8676 6.85544C16.1928 7.01007 16.5622 7.04449 16.9104 6.95259C17.2585 6.86069 17.5628 6.64841 17.7693 6.35343C17.9758 6.05846 18.0711 5.69986 18.0383 5.34129C18.0055 4.98272 17.8467 4.64736 17.5901 4.39475C17.3336 4.14213 16.9958 3.9886 16.6367 3.96139C16.2777 3.93418 15.9206 4.03506 15.6289 4.24612C15.3372 4.45719 15.1297 4.76479 15.0432 5.11432C14.9568 5.46385 14.9969 5.83272 15.1566 6.15544L12.1856 9.17044C11.8842 9.01035 11.5366 8.96002 11.2022 9.02806C10.8678 9.09611 10.5674 9.27831 10.3526 9.54344L7.99361 8.57244C7.99361 8.54744 8.00061 8.52344 8.00061 8.49844C8.00345 8.14421 7.88198 7.80019 7.65735 7.52626C7.43272 7.25234 7.11914 7.06586 6.7712 6.99928C6.42327 6.9327 6.063 6.99024 5.75311 7.16188C5.44321 7.33352 5.20332 7.60839 5.07518 7.93865C4.94704 8.26891 4.93876 8.63365 5.05179 8.96938C5.16483 9.30512 5.39201 9.59058 5.6938 9.7761C5.99559 9.96161 6.35288 10.0354 6.70348 9.9847C7.05408 9.93396 7.37578 9.7619 7.61261 9.49844L10.0006 10.4804V10.4984C10.0006 10.8963 10.1586 11.2778 10.4399 11.5591C10.7213 11.8404 11.1028 11.9984 11.5006 11.9984Z" fill="white"/>
</g>
</svg>
