<svg width="20" height="20" viewBox="0 0 20 20" fill="none" xmlns="http://www.w3.org/2000/svg">
<mask id="mask0_331_9227" style="mask-type:luminance" maskUnits="userSpaceOnUse" x="0" y="0" width="20" height="20">
<path d="M20 0H0V20H20V0Z" fill="white"/>
</mask>
<g mask="url(#mask0_331_9227)">
<path d="M3.5 17H2.5C2.36739 17 2.24021 16.9473 2.14645 16.8536C2.05268 16.7598 2 16.6326 2 16.5V13.5C2 13.3674 2.05268 13.2402 2.14645 13.1464C2.24021 13.0527 2.36739 13 2.5 13H3.5C3.63261 13 3.75979 13.0527 3.85355 13.1464C3.94732 13.2402 4 13.3674 4 13.5V16.5C4 16.6326 3.94732 16.7598 3.85355 16.8536C3.75979 16.9473 3.63261 17 3.5 17Z" fill="white"/>
<path d="M16.6521 12.0264L15.4141 11.8144L15.9351 8.85938L17.1761 9.07838C17.2409 9.08939 17.3029 9.11309 17.3586 9.14812C17.4143 9.18314 17.4625 9.22881 17.5005 9.28251C17.5385 9.3362 17.5655 9.39686 17.58 9.46101C17.5945 9.52517 17.5963 9.59156 17.5851 9.65637L17.2361 11.6184C17.2124 11.7498 17.1377 11.8664 17.0283 11.9429C16.9188 12.0194 16.7836 12.0494 16.6521 12.0264Z" fill="white"/>
<path d="M16.2828 6.88841L4.46484 4.80441L4.63884 3.81941C4.7059 3.56897 4.85926 3.35026 5.07186 3.20188C5.28446 3.0535 5.54264 2.98498 5.80084 3.00841L17.6148 5.09241C17.6999 5.1007 17.7803 5.1346 17.8457 5.18961C17.911 5.24462 17.9581 5.31817 17.9808 5.40052C18.0034 5.48287 18.0005 5.57016 17.9725 5.65085C17.9445 5.73153 17.8927 5.80182 17.8238 5.85241L16.2828 6.88841Z" fill="white"/>
<path d="M4.29279 5.78906L3.60179 9.72806C3.57939 9.98575 3.64851 10.2431 3.79701 10.4549C3.94552 10.6666 4.1639 10.8193 4.41379 10.8861L13.2768 12.4491C13.5343 12.4715 13.7916 12.4025 14.0033 12.2542C14.2151 12.1059 14.3678 11.8878 14.4348 11.6381L15.1258 7.69706L4.29279 5.78906ZM8.22479 7.98906C8.20044 8.11756 8.1267 8.2314 8.0194 8.30618C7.9121 8.38095 7.77977 8.41071 7.65079 8.38906L5.91679 8.08906C5.85322 8.07806 5.79243 8.05464 5.73792 8.02013C5.6834 7.98562 5.63622 7.94071 5.59907 7.88796C5.56193 7.83521 5.53554 7.77566 5.52142 7.7127C5.5073 7.64975 5.50573 7.58463 5.51679 7.52106C5.54114 7.39256 5.61488 7.27872 5.72218 7.20395C5.82948 7.12917 5.96181 7.09942 6.09079 7.12106L7.82479 7.42106C7.88848 7.43182 7.94941 7.45508 8.00406 7.48952C8.05871 7.52395 8.106 7.56887 8.14319 7.62168C8.18038 7.67449 8.20674 7.73415 8.22075 7.79721C8.23475 7.86027 8.23613 7.92547 8.22479 7.98906Z" fill="white"/>
<path d="M5.717 14H3V16H6.465C6.62959 16 6.79165 15.9594 6.93678 15.8818C7.08192 15.8042 7.20565 15.6919 7.297 15.555L11 10L9 9L6.146 13.757C6.10159 13.8311 6.03872 13.8925 5.96353 13.9351C5.88835 13.9776 5.80341 14 5.717 14Z" fill="white"/>
</g>
<mask id="mask1_331_9227" style="mask-type:luminance" maskUnits="userSpaceOnUse" x="0" y="0" width="20" height="20">
<path d="M20 0H0V20H20V0Z" fill="white"/>
</mask>
<g mask="url(#mask1_331_9227)">
<path d="M3.5 17H2.5C2.36739 17 2.24021 16.9473 2.14645 16.8536C2.05268 16.7598 2 16.6326 2 16.5V13.5C2 13.3674 2.05268 13.2402 2.14645 13.1464C2.24021 13.0527 2.36739 13 2.5 13H3.5C3.63261 13 3.75979 13.0527 3.85355 13.1464C3.94732 13.2402 4 13.3674 4 13.5V16.5C4 16.6326 3.94732 16.7598 3.85355 16.8536C3.75979 16.9473 3.63261 17 3.5 17Z" fill="white"/>
<path d="M16.6521 12.0264L15.4141 11.8144L15.9351 8.85938L17.1761 9.07838C17.2409 9.08939 17.3029 9.11309 17.3586 9.14812C17.4143 9.18314 17.4625 9.22881 17.5005 9.28251C17.5385 9.3362 17.5655 9.39686 17.58 9.46101C17.5945 9.52517 17.5963 9.59156 17.5851 9.65637L17.2361 11.6184C17.2124 11.7498 17.1377 11.8664 17.0283 11.9429C16.9188 12.0194 16.7836 12.0494 16.6521 12.0264Z" fill="white"/>
<path d="M16.2828 6.88841L4.46484 4.80441L4.63884 3.81941C4.7059 3.56897 4.85926 3.35026 5.07186 3.20188C5.28446 3.0535 5.54264 2.98498 5.80084 3.00841L17.6148 5.09241C17.6999 5.1007 17.7803 5.1346 17.8457 5.18961C17.911 5.24462 17.9581 5.31817 17.9808 5.40052C18.0034 5.48287 18.0005 5.57016 17.9725 5.65085C17.9445 5.73153 17.8927 5.80182 17.8238 5.85241L16.2828 6.88841Z" fill="white"/>
<path d="M4.29279 5.78906L3.60179 9.72806C3.57939 9.98575 3.64851 10.2431 3.79701 10.4549C3.94552 10.6666 4.1639 10.8193 4.41379 10.8861L13.2768 12.4491C13.5343 12.4715 13.7916 12.4025 14.0033 12.2542C14.2151 12.1059 14.3678 11.8878 14.4348 11.6381L15.1258 7.69706L4.29279 5.78906ZM8.22479 7.98906C8.20044 8.11756 8.1267 8.2314 8.0194 8.30618C7.9121 8.38095 7.77977 8.41071 7.65079 8.38906L5.91679 8.08906C5.85322 8.07806 5.79243 8.05464 5.73792 8.02013C5.6834 7.98562 5.63622 7.94071 5.59907 7.88796C5.56193 7.83521 5.53554 7.77566 5.52142 7.7127C5.5073 7.64975 5.50573 7.58463 5.51679 7.52106C5.54114 7.39256 5.61488 7.27872 5.72218 7.20395C5.82948 7.12917 5.96181 7.09942 6.09079 7.12106L7.82479 7.42106C7.88848 7.43182 7.94941 7.45508 8.00406 7.48952C8.05871 7.52395 8.106 7.56887 8.14319 7.62168C8.18038 7.67449 8.20674 7.73415 8.22075 7.79721C8.23475 7.86027 8.23613 7.92547 8.22479 7.98906Z" fill="white"/>
<path d="M5.717 14H3V16H6.465C6.62959 16 6.79165 15.9594 6.93678 15.8818C7.08192 15.8042 7.20565 15.6919 7.297 15.555L11 10L9 9L6.146 13.757C6.10159 13.8311 6.03872 13.8925 5.96353 13.9351C5.88835 13.9776 5.80341 14 5.717 14Z" fill="white"/>
</g>
</svg>
