<svg width="15" height="14" viewBox="0 0 15 14" fill="none" xmlns="http://www.w3.org/2000/svg">
<g id="arrow_down_right_14">
<path id="Union" d="M8.34724 7.134C8.33507 7.1616 8.32847 7.19133 8.32782 7.22149V8.24609H4.83337V2.99609H3.33337V8.49609C3.33364 8.82753 3.46542 9.14532 3.69978 9.37968C3.93415 9.61405 4.25193 9.74583 4.58337 9.74609H8.32782V10.7715C8.32783 10.8224 8.3459 10.8717 8.37882 10.9105C8.41838 10.9574 8.47434 10.9874 8.53529 10.9945C8.59624 11.0016 8.65758 10.9851 8.70682 10.9485L11.0878 9.17449C11.1026 9.16341 11.116 9.15066 11.1278 9.13649L11.1378 9.12449C11.1705 9.07791 11.1835 9.02038 11.1742 8.96427C11.1648 8.90816 11.1338 8.85797 11.0878 8.82449L8.70482 7.04549C8.66373 7.01493 8.61403 6.99813 8.56282 6.99749C8.53266 6.9967 8.50265 7.00187 8.47449 7.0127C8.44634 7.02354 8.4206 7.03984 8.39877 7.06065C8.37693 7.08147 8.35942 7.10639 8.34724 7.134Z" fill="white"/>
</g>
</svg>
