<svg width="14" height="14" viewBox="0 0 14 14" fill="none" xmlns="http://www.w3.org/2000/svg">
<g id="arrow_down_left_14">
<path id="Union" d="M5.98662 7.1359C5.99879 7.1635 6.00539 7.19324 6.00604 7.2234V8.25H9.50214V3H11.0021V8.5C11.0019 8.83144 10.8701 9.14923 10.6357 9.38359C10.4014 9.61795 10.0836 9.74973 9.75214 9.75H6.00604V10.7754C6.00604 10.8263 5.98796 10.8756 5.95504 10.9144C5.91548 10.9613 5.85952 10.9913 5.79857 10.9984C5.73763 11.0055 5.67628 10.989 5.62704 10.9524L3.24604 9.1764C3.23129 9.16531 3.21787 9.15256 3.20604 9.1384L3.19604 9.1264C3.16339 9.07982 3.15034 9.02228 3.15969 8.96618C3.16904 8.91007 3.20005 8.85987 3.24604 8.8264L5.62904 7.0474C5.67014 7.01684 5.71983 7.00004 5.77104 6.9994C5.8012 6.9986 5.83122 7.00377 5.85937 7.01461C5.88753 7.02545 5.91326 7.04175 5.9351 7.06256C5.95693 7.08337 5.97444 7.1083 5.98662 7.1359Z" fill="white"/>
</g>
</svg>
