<svg width="20" height="20" viewBox="0 0 20 20" fill="none" xmlns="http://www.w3.org/2000/svg">
<mask id="mask0_250_4118" style="mask-type:luminance" maskUnits="userSpaceOnUse" x="0" y="0" width="20" height="20">
<path d="M20 20V0L0 0V20H20Z" fill="white"/>
</mask>
<g mask="url(#mask0_250_4118)">
<path d="M3.33633 13.4688C3.24303 13.4732 3.15529 13.5144 3.09231 13.5833C3.02933 13.6523 2.99626 13.7434 3.00033 13.8368C2.9997 13.9197 3.02486 14.0008 3.07233 14.0688L4.32433 15.8328L5.74433 17.8267C5.76786 17.8626 5.79849 17.8933 5.83433 17.9169C5.87018 17.9405 5.91047 17.9565 5.95273 17.9639C5.995 17.9713 6.03833 17.9699 6.08005 17.9599C6.12178 17.9499 6.16101 17.9315 6.19533 17.9057L6.21433 17.8907C6.23598 17.8716 6.25543 17.8502 6.27233 17.8267L7.67733 15.8338L8.92933 14.0688C8.98384 13.9897 9.00808 13.8936 8.99762 13.7981C8.98715 13.7027 8.94268 13.6141 8.87233 13.5487C8.81501 13.4977 8.74108 13.4693 8.66433 13.4688" fill="white"/>
<path d="M17 5.91797V3.91797L6.512 3.91797C6.11116 3.9185 5.72688 4.07797 5.44344 4.36141C5.16 4.64485 5.00053 5.02912 5 5.42997V15.918H7V5.91797H17Z" fill="white"/>
</g>
</svg>
