<svg id="arrow_17_20px" xmlns="http://www.w3.org/2000/svg" xmlns:xlink="http://www.w3.org/1999/xlink" width="20" height="20" viewBox="0 0 20 20">
  <defs>
    <clipPath id="clip-path">
      <rect id="사각형_39679" data-name="사각형 39679" width="20" height="20" fill="#fff"/>
    </clipPath>
  </defs>
  <g id="uturn_20px" data-name="uturn 20px" clip-path="url(#clip-path)">
    <g id="그룹_173970" data-name="그룹 173970">
      <g id="그룹_173969" data-name="그룹 173969" clip-path="url(#clip-path)">
        <g id="그룹_173994" data-name="그룹 173994">
          <g id="그룹_173999" data-name="그룹 173999" clip-path="url(#clip-path)">
            <g id="그룹_173998" data-name="그룹 173998">
              <g id="그룹_173997" data-name="그룹 173997" clip-path="url(#clip-path)">
                <g id="그룹_174024" data-name="그룹 174024">
                  <g id="그룹_174019" data-name="그룹 174019" clip-path="url(#clip-path)">
                    <g id="그룹_174018" data-name="그룹 174018">
                      <g id="그룹_174017" data-name="그룹 174017" clip-path="url(#clip-path)">
                        <path id="패스_91139" data-name="패스 91139" d="M14.95,16h-1.9V8a3.05,3.05,0,1,0-6.1,0v4.371H5.05V8a4.95,4.95,0,1,1,9.9,0Z" fill="#fff"/>
                        <path id="패스_91140" data-name="패스 91140" d="M8.665,12A.378.378,0,0,1,9,12.409v0a.477.477,0,0,1-.071.253L7.677,14.627l-1.42,2.215a.294.294,0,0,1-.451.087l-.019-.016a.4.4,0,0,1-.058-.071L4.324,14.628,3.072,12.666a.477.477,0,0,1,.057-.577A.3.3,0,0,1,3.337,12" fill="#fff"/>
                      </g>
                    </g>
                  </g>
                </g>
              </g>
            </g>
          </g>
        </g>
      </g>
    </g>
  </g>
</svg>
