<svg width="20" height="20" viewBox="0 0 20 20" fill="none" xmlns="http://www.w3.org/2000/svg">
<mask id="mask0_250_4098" style="mask-type:luminance" maskUnits="userSpaceOnUse" x="0" y="0" width="20" height="20">
<path d="M0 0L0 20H20V0H0Z" fill="white"/>
</mask>
<g mask="url(#mask0_250_4098)">
<path d="M16.6637 6.53125C16.757 6.52684 16.8447 6.48564 16.9077 6.41666C16.9707 6.34769 17.0037 6.25656 16.9997 6.16325C17.0003 6.08032 16.9751 5.99925 16.9277 5.93125L15.6757 4.16725L14.2557 2.17325C14.2321 2.13737 14.2015 2.10669 14.1657 2.08311C14.1298 2.05953 14.0895 2.04355 14.0473 2.03614C14.005 2.02874 13.9617 2.03008 13.9199 2.04007C13.8782 2.05007 13.839 2.0685 13.8047 2.09425L13.7857 2.10925C13.764 2.12837 13.7446 2.14984 13.7277 2.17325L12.3227 4.16625L11.0707 5.93125C11.0162 6.01033 10.9919 6.10638 11.0024 6.20186C11.0128 6.29734 11.0573 6.38586 11.1277 6.45125C11.185 6.50229 11.2589 6.53073 11.3357 6.53125" fill="white"/>
<path d="M3 14.082V16.082H13.488C13.8888 16.0815 14.2731 15.922 14.5566 15.6386C14.84 15.3552 14.9995 14.9709 15 14.57V4.08203H13V14.082H3Z" fill="white"/>
</g>
</svg>
