<svg width="15" height="14" viewBox="0 0 15 14" fill="none" xmlns="http://www.w3.org/2000/svg">
<g id="arrow_up_left_14">
<path id="Union" d="M6.65324 6.866C6.66542 6.8384 6.67202 6.80867 6.67267 6.77851V5.75391H10.1671V11.0039H11.6671V5.50391C11.6669 5.17247 11.5351 4.85468 11.3007 4.62032C11.0663 4.38595 10.7486 4.25417 10.4171 4.25391H6.67267V3.22851C6.67266 3.1776 6.65459 3.12834 6.62167 3.08951C6.58211 3.04261 6.52615 3.01257 6.4652 3.00551C6.40425 2.99845 6.34291 3.0149 6.29367 3.05151L3.91267 4.82551C3.89792 4.83659 3.8845 4.84934 3.87267 4.86351L3.86267 4.87551C3.83002 4.92209 3.81697 4.97962 3.82632 5.03573C3.83567 5.09184 3.86668 5.14203 3.91267 5.17551L6.29567 6.95451C6.33676 6.98507 6.38646 7.00187 6.43767 7.00251C6.46783 7.0033 6.49784 6.99813 6.526 6.9873C6.55415 6.97646 6.57989 6.96016 6.60172 6.93935C6.62356 6.91853 6.64107 6.89361 6.65324 6.866Z" fill="white"/>
</g>
</svg>
