<svg width="14" height="14" viewBox="0 0 14 14" fill="none" xmlns="http://www.w3.org/2000/svg">
<g id="arrow_up_right_14">
<path id="Union" d="M8.01558 6.8641C8.0034 6.8365 7.9968 6.80676 7.99615 6.7766V5.75H4.50006V11H3.00006V5.5C3.00033 5.16856 3.13211 4.85077 3.36647 4.61641C3.60083 4.38205 3.91862 4.25026 4.25006 4.25H7.99615V3.2246C7.99616 3.17369 8.01423 3.12443 8.04715 3.0856C8.08672 3.0387 8.14268 3.00866 8.20362 3.0016C8.26457 2.99454 8.32592 3.01099 8.37515 3.0476L10.7562 4.8236C10.7709 4.83469 10.7843 4.84744 10.7962 4.8616L10.8062 4.8736C10.8388 4.92018 10.8519 4.97772 10.8425 5.03382C10.8332 5.08993 10.8021 5.14013 10.7562 5.1736L8.37315 6.9526C8.33206 6.98316 8.28236 6.99996 8.23115 7.0006C8.201 7.0014 8.17098 6.99623 8.14283 6.98539C8.11467 6.97455 8.08894 6.95826 8.0671 6.93744C8.04526 6.91663 8.02775 6.8917 8.01558 6.8641Z" fill="white"/>
</g>
</svg>
