<svg width="16" height="16" viewBox="0 0 16 16" fill="none" xmlns="http://www.w3.org/2000/svg">
<path d="M8 16C12.4183 16 16 12.4183 16 8C16 3.58172 12.4183 0 8 0C3.58172 0 0 3.58172 0 8C0 12.4183 3.58172 16 8 16Z" fill="#646F7C"/>
<path d="M8 11L4.21399 7.24007C4.14617 7.17285 4.0924 7.09285 4.05566 7.00471C4.01893 6.91658 4 6.82205 4 6.72656C4 6.63108 4.01893 6.53653 4.05566 6.44839C4.0924 6.36026 4.14617 6.28028 4.21399 6.21306C4.35164 6.07657 4.5376 6 4.73145 6C4.92529 6 5.11137 6.07657 5.24902 6.21306L8 8.94505L10.751 6.21306C10.8886 6.07657 11.0746 6 11.2684 6C11.4623 6 11.6484 6.07657 11.786 6.21306C11.8538 6.28028 11.9076 6.36026 11.9443 6.44839C11.9811 6.53653 12 6.63108 12 6.72656C12 6.82205 11.9811 6.91658 11.9443 7.00471C11.9076 7.09285 11.8538 7.17285 11.786 7.24007L8 11Z" fill="white"/>
</svg>
