<svg width="12" height="12" viewBox="0 0 12 12" fill="none" xmlns="http://www.w3.org/2000/svg">
<path d="M6.54843 2.61278C6.47824 2.68511 6.43892 2.78245 6.43894 2.88385L6.43911 3.9795L1 3.9795L1 8.00781H6.43972L6.43989 9.10081C6.43982 9.18808 6.46799 9.27297 6.5201 9.34249C6.5497 9.38268 6.58702 9.4164 6.62981 9.44163C6.6726 9.46686 6.71999 9.48307 6.76912 9.4893C6.81826 9.49553 6.86813 9.49165 6.91574 9.47788C6.96336 9.46411 7.00774 9.44075 7.04621 9.40919L8.83558 7.94558L10.8541 6.30216C10.8781 6.28353 10.8999 6.26212 10.919 6.23836C10.9803 6.15604 11.0078 6.05293 10.9957 5.95058C10.9836 5.84824 10.9328 5.7546 10.8541 5.68926L8.83462 4.03617L7.04526 2.5803C6.97979 2.52683 6.8983 2.49751 6.81419 2.49716C6.71406 2.49893 6.61862 2.54046 6.54843 2.61278Z" fill="white"/>
</svg>
