<svg width="12" height="12" viewBox="0 0 12 12" fill="none" xmlns="http://www.w3.org/2000/svg">
<path d="M6.21583 8.40655C6.18894 8.4359 6.15576 8.45942 6.11853 8.47554C6.08131 8.49166 6.04089 8.5 6 8.5C5.95911 8.5 5.91869 8.49166 5.88146 8.47554C5.84424 8.45942 5.81106 8.4359 5.78417 8.40655L3.07296 5.45494C3.03596 5.41553 3.01177 5.36672 3.00333 5.31446C2.99489 5.26219 3.00257 5.20872 3.02543 5.16053C3.04829 5.11235 3.08535 5.07152 3.1321 5.04303C3.17886 5.01453 3.23329 4.99959 3.28879 5.00001H8.71121C8.76671 4.99959 8.82114 5.01453 8.8679 5.04303C8.91465 5.07152 8.95171 5.11235 8.97457 5.16053C8.99743 5.20872 9.00511 5.26219 8.99667 5.31446C8.98823 5.36672 8.96404 5.41553 8.92704 5.45494L6.21583 8.40655Z" fill="#27D4FF"/>
</svg>
