<svg width="12" height="12" viewBox="0 0 12 12" fill="none" xmlns="http://www.w3.org/2000/svg">
<path d="M5.78417 3.59345C5.81106 3.5641 5.84424 3.54058 5.88147 3.52446C5.91869 3.50834 5.95911 3.5 6 3.5C6.04089 3.5 6.08131 3.50834 6.11854 3.52446C6.15576 3.54058 6.18894 3.5641 6.21583 3.59345L8.92704 6.54506C8.96404 6.58447 8.98823 6.63328 8.99667 6.68554C9.00511 6.73781 8.99743 6.79128 8.97457 6.83947C8.95171 6.88765 8.91465 6.92848 8.8679 6.95697C8.82114 6.98547 8.76671 7.00041 8.71121 6.99999L3.28879 6.99999C3.23329 7.00041 3.17886 6.98547 3.1321 6.95697C3.08535 6.92848 3.04829 6.88765 3.02543 6.83947C3.00257 6.79128 2.99489 6.73781 3.00333 6.68554C3.01177 6.63328 3.03596 6.58447 3.07296 6.54506L5.78417 3.59345Z" fill="white"/>
</svg>
