<svg width="16" height="16" viewBox="0 0 16 16" fill="none" xmlns="http://www.w3.org/2000/svg">
<path d="M8.38578 11.539C8.33886 11.5952 8.28014 11.6405 8.21378 11.6716C8.14742 11.7026 8.07505 11.7188 8.00178 11.7188C7.92851 11.7188 7.85614 11.7026 7.78978 11.6716C7.72342 11.6405 7.66471 11.5952 7.61778 11.539L3.68478 6.81997C3.62392 6.74691 3.58516 6.658 3.57304 6.56368C3.56093 6.46937 3.57596 6.37355 3.61637 6.28747C3.65678 6.2014 3.72091 6.12863 3.80122 6.07771C3.88152 6.02679 3.97469 5.99982 4.06978 5.99997L11.9338 5.99997C12.0288 6.00001 12.1218 6.02711 12.202 6.07811C12.2821 6.12911 12.3461 6.20189 12.3864 6.28793C12.4267 6.37397 12.4416 6.46971 12.4295 6.56393C12.4173 6.65816 12.3786 6.74697 12.3178 6.81997L8.38578 11.539Z" fill="white"/>
</svg>
