<svg width="20" height="20" viewBox="0 0 20 20" fill="none" xmlns="http://www.w3.org/2000/svg">
<path d="M11.1681 4.68182C11.0603 4.79556 11 4.94864 11 5.10808L11.0003 7H2L2 13H11.0012L11.0015 14.8845C11.0014 15.0218 11.0446 15.1553 11.1246 15.2646C11.17 15.3278 11.2273 15.3808 11.293 15.4205C11.3587 15.4602 11.4315 15.4857 11.5069 15.4955C11.5823 15.5053 11.6589 15.4992 11.732 15.4775C11.8051 15.4559 11.8732 15.4191 11.9323 15.3695L14.6794 13.0679L17.7784 10.4835C17.8153 10.4542 17.8487 10.4206 17.878 10.3832C17.9721 10.2538 18.0143 10.0916 17.9957 9.93067C17.9771 9.76973 17.8992 9.62248 17.7784 9.51972L14.678 6.92017L11.9309 4.63074C11.8303 4.54666 11.7052 4.50055 11.5761 4.5C11.4224 4.50279 11.2759 4.56809 11.1681 4.68182Z" fill="white"/>
</svg>
