<svg width="16" height="16" viewBox="0 0 16 16" fill="none" xmlns="http://www.w3.org/2000/svg">
<g id="&#234;&#183;&#184;&#235;&#163;&#185; 178249">
<path id="arrow" d="M4.46103 8.38578C4.40475 8.33886 4.35948 8.28014 4.32842 8.21378C4.29735 8.14742 4.28125 8.07505 4.28125 8.00178C4.28125 7.92851 4.29735 7.85614 4.32842 7.78978C4.35948 7.72342 4.40475 7.66471 4.46103 7.61778L9.18003 3.68478C9.25309 3.62392 9.342 3.58516 9.43632 3.57304C9.53063 3.56093 9.62645 3.57596 9.71253 3.61637C9.7986 3.65678 9.87137 3.72091 9.92229 3.80122C9.97321 3.88152 10.0002 3.97469 10 4.06978L10 11.9338C9.99999 12.0288 9.97289 12.1218 9.92189 12.202C9.87089 12.2821 9.79811 12.3461 9.71207 12.3864C9.62603 12.4267 9.53029 12.4416 9.43607 12.4295C9.34184 12.4173 9.25303 12.3786 9.18003 12.3178L4.46103 8.38578Z" fill="black"/>
</g>
</svg>
