<svg width="36" height="18" viewBox="0 0 36 18" fill="none" xmlns="http://www.w3.org/2000/svg">
<path d="M5 8.01333H22.3067V3.6735C22.3067 3.54724 22.3416 3.4235 22.4075 3.31642C22.4735 3.20934 22.5678 3.12324 22.6797 3.06796C22.7916 3.01267 22.9165 2.99043 23.0403 3.00377C23.164 3.01711 23.2816 3.0655 23.3795 3.14341L26.5455 5.65715L30.1157 8.49228C30.1948 8.55536 30.2588 8.63584 30.3028 8.72767C30.3468 8.8195 30.3696 8.92027 30.3696 9.02237C30.3696 9.12447 30.3468 9.22524 30.3028 9.31707C30.2588 9.40889 30.1948 9.48938 30.1157 9.55246L26.5455 12.3907L23.3795 14.9045C23.2816 14.9824 23.164 15.0308 23.0403 15.0441C22.9165 15.0574 22.7916 15.0352 22.6797 14.9799C22.5678 14.9246 22.4735 14.8385 22.4075 14.7314C22.3416 14.6244 22.3067 14.5006 22.3067 14.3744V10.0335H5V8.01333Z" fill="#FFD427"/>
</svg>
