<svg width="12" height="12" viewBox="0 0 12 12" fill="none" xmlns="http://www.w3.org/2000/svg">
<path d="M8.40655 5.78417C8.4359 5.81106 8.45942 5.84424 8.47554 5.88147C8.49166 5.91869 8.5 5.95911 8.5 6C8.5 6.04089 8.49166 6.08131 8.47554 6.11854C8.45942 6.15576 8.4359 6.18894 8.40655 6.21583L5.45494 8.92704C5.41553 8.96404 5.36672 8.98823 5.31446 8.99667C5.26219 9.00511 5.20872 8.99743 5.16053 8.97457C5.11235 8.95171 5.07152 8.91465 5.04303 8.8679C5.01453 8.82114 4.99959 8.76671 5.00001 8.71121V3.28879C4.99959 3.23329 5.01453 3.17886 5.04303 3.1321C5.07152 3.08535 5.11235 3.04829 5.16053 3.02543C5.20872 3.00257 5.26219 2.99489 5.31446 3.00333C5.36672 3.01177 5.41553 3.03596 5.45494 3.07296L8.40655 5.78417Z" fill="white"/>
</svg>
