<svg width="16" height="16" viewBox="0 0 16 16" fill="none" xmlns="http://www.w3.org/2000/svg">
<g id="&#234;&#183;&#184;&#235;&#163;&#185; 178248">
<path id="arrow" d="M11.539 7.61422C11.5952 7.66114 11.6405 7.71986 11.6716 7.78622C11.7026 7.85258 11.7188 7.92495 11.7188 7.99822C11.7188 8.07149 11.7026 8.14386 11.6716 8.21022C11.6405 8.27658 11.5952 8.33529 11.539 8.38222L6.81997 12.3152C6.74691 12.3761 6.658 12.4148 6.56368 12.427C6.46937 12.4391 6.37355 12.424 6.28747 12.3836C6.2014 12.3432 6.12863 12.2791 6.07771 12.1988C6.02679 12.1185 5.99982 12.0253 5.99997 11.9302L5.99997 4.06622C6.00001 3.97121 6.02711 3.87818 6.07811 3.79802C6.12911 3.71786 6.20189 3.65389 6.28793 3.6136C6.37397 3.57331 6.46971 3.55836 6.56393 3.57051C6.65816 3.58267 6.74697 3.62141 6.81997 3.68222L11.539 7.61422Z" fill="black"/>
</g>
</svg>
