<svg width="16" height="16" viewBox="0 0 16 16" fill="none" xmlns="http://www.w3.org/2000/svg">
<path d="M7.61813 6.17978C7.66505 6.1235 7.72377 6.07823 7.79013 6.04717C7.85648 6.0161 7.92886 6 8.00213 6C8.07539 6 8.14777 6.0161 8.21412 6.04717C8.28048 6.07823 8.3392 6.1235 8.38613 6.17978L12.3191 10.8988C12.38 10.9718 12.4187 11.0607 12.4309 11.1551C12.443 11.2494 12.4279 11.3452 12.3875 11.4313C12.3471 11.5174 12.283 11.5901 12.2027 11.641C12.1224 11.692 12.0292 11.7189 11.9341 11.7188H4.07013C3.97512 11.7187 3.88209 11.6916 3.80193 11.6406C3.72177 11.5896 3.6578 11.5169 3.6175 11.4308C3.57721 11.3448 3.56227 11.249 3.57442 11.1548C3.58657 11.0606 3.62532 10.9718 3.68613 10.8988L7.61813 6.17978Z" fill="white"/>
</svg>
