<svg width="14" height="14" viewBox="0 0 14 14" fill="none" xmlns="http://www.w3.org/2000/svg">
<mask id="mask0_599_20398" style="mask-type:luminance" maskUnits="userSpaceOnUse" x="0" y="0" width="14" height="14">
<path d="M14 0H0V14H14V0Z" fill="white"/>
</mask>
<g mask="url(#mask0_599_20398)">
<mask id="mask1_599_20398" style="mask-type:luminance" maskUnits="userSpaceOnUse" x="0" y="0" width="14" height="14">
<path d="M14 0H0V14H14V0Z" fill="white"/>
</mask>
<g mask="url(#mask1_599_20398)">
<path d="M8.61499 5.00025C8.67882 4.99842 8.73935 4.97143 8.78337 4.92516C8.82739 4.87889 8.85134 4.8171 8.84999 4.75325C8.84993 4.69825 8.83242 4.64468 8.79999 4.60025L6.93199 2.10025C6.91468 2.07593 6.89274 2.05526 6.86743 2.03943C6.84211 2.0236 6.81393 2.01291 6.78448 2.00799C6.75504 2.00307 6.72491 2.004 6.69583 2.01074C6.66674 2.01748 6.63927 2.02988 6.61499 2.04725L6.60199 2.05725C6.58714 2.0701 6.57373 2.08452 6.56199 2.10025L4.69999 4.60025C4.66154 4.65225 4.64429 4.71691 4.65171 4.78114C4.65914 4.84538 4.69069 4.9044 4.73999 4.94625C4.78042 4.98083 4.83179 4.99996 4.88499 5.00025" fill="white"/>
<path d="M7.5 12H6V4H7.5V12Z" fill="white"/>
</g>
</g>
</svg>
