<svg width="26" height="13" viewBox="0 0 26 13" fill="none" xmlns="http://www.w3.org/2000/svg">
<path d="M0 5.51333H17.3067V1.1735C17.3067 1.04724 17.3416 0.923501 17.4075 0.816422C17.4735 0.709343 17.5678 0.623242 17.6797 0.567955C17.7916 0.512669 17.9165 0.490426 18.0403 0.503769C18.164 0.517112 18.2816 0.565503 18.3795 0.643412L21.5455 3.15715L25.1157 5.99228C25.1948 6.05536 25.2588 6.13584 25.3028 6.22767C25.3468 6.3195 25.3696 6.42027 25.3696 6.52237C25.3696 6.62447 25.3468 6.72524 25.3028 6.81707C25.2588 6.90889 25.1948 6.98938 25.1157 7.05246L21.5455 9.89072L18.3795 12.4045C18.2816 12.4824 18.164 12.5308 18.0403 12.5441C17.9165 12.5574 17.7916 12.5352 17.6797 12.4799C17.5678 12.4246 17.4735 12.3385 17.4075 12.2314C17.3416 12.1244 17.3067 12.0006 17.3067 11.8744V7.5335H0V5.51333Z" fill="#FFD427"/>
</svg>
