<svg width="20" height="20" viewBox="0 0 20 20" fill="none" xmlns="http://www.w3.org/2000/svg">
<mask id="mask0_392_8582" style="mask-type:luminance" maskUnits="userSpaceOnUse" x="0" y="0" width="20" height="20">
<path d="M20 0H0V20H20V0Z" fill="white"/>
</mask>
<g mask="url(#mask0_392_8582)">
<path d="M17 6H13V4H14.5C14.6326 4 14.7598 3.94732 14.8536 3.85355C14.9473 3.75979 15 3.63261 15 3.5C15 3.36739 14.9473 3.24021 14.8536 3.14645C14.7598 3.05268 14.6326 3 14.5 3H5.5C5.36739 3 5.24021 3.05268 5.14645 3.14645C5.05268 3.24021 5 3.36739 5 3.5C5 3.63261 5.05268 3.75979 5.14645 3.85355C5.24021 3.94732 5.36739 4 5.5 4H7V6H3C2.73478 6 2.48043 6.10536 2.29289 6.29289C2.10536 6.48043 2 6.73478 2 7V16C2 16.2652 2.10536 16.5196 2.29289 16.7071C2.48043 16.8946 2.73478 17 3 17H17C17.2652 17 17.5196 16.8946 17.7071 16.7071C17.8946 16.5196 18 16.2652 18 16V7C18 6.73478 17.8946 6.48043 17.7071 6.29289C17.5196 6.10536 17.2652 6 17 6ZM8 4H12V6H8V4ZM17 15.5C17 15.6326 16.9473 15.7598 16.8536 15.8536C16.7598 15.9473 16.6326 16 16.5 16H3.5C3.36739 16 3.24021 15.9473 3.14645 15.8536C3.05268 15.7598 3 15.6326 3 15.5V7.5C3 7.36739 3.05268 7.24021 3.14645 7.14645C3.24021 7.05268 3.36739 7 3.5 7H16.5C16.6326 7 16.7598 7.05268 16.8536 7.14645C16.9473 7.24021 17 7.36739 17 7.5V15.5Z" fill="#27D4FF"/>
<path d="M7.63938 11.0998C7.67971 11.0967 7.71925 11.0869 7.75638 11.0708C7.79617 11.0539 7.8307 11.0266 7.85638 10.9918C7.88271 10.9462 7.89657 10.8945 7.89657 10.8418C7.89657 10.7892 7.88271 10.7374 7.85638 10.6918C7.83346 10.6588 7.80152 10.6332 7.76438 10.6178C7.72692 10.6019 7.68701 10.5924 7.64638 10.5898C7.60438 10.5898 7.56738 10.5898 7.53438 10.5898H7.23438V11.0998H7.53438C7.56438 11.0998 7.59838 11.0998 7.63938 11.0998Z" fill="#27D4FF"/>
<path d="M7.89147 11.8484C7.84715 11.8304 7.80022 11.8195 7.75247 11.8164C7.70447 11.8164 7.66347 11.8164 7.63047 11.8164H7.23047V12.4234H7.63047C7.65747 12.4234 7.69547 12.4234 7.74347 12.4234C7.79164 12.4202 7.83879 12.408 7.88247 12.3874C7.92896 12.3631 7.96905 12.3281 7.99947 12.2854C8.03785 12.2317 8.05624 12.1663 8.05147 12.1004C8.05498 12.041 8.03843 11.9822 8.00447 11.9334C7.97408 11.8957 7.93447 11.8664 7.88947 11.8484" fill="#27D4FF"/>
<path d="M15.5 8H4.5C4.36739 8 4.24021 8.05268 4.14645 8.14645C4.05268 8.24021 4 8.36739 4 8.5V14.5C4 14.6326 4.05268 14.7598 4.14645 14.8536C4.24021 14.9473 4.36739 15 4.5 15H15.5C15.6326 15 15.7598 14.9473 15.8536 14.8536C15.9473 14.7598 16 14.6326 16 14.5V8.5C16 8.36739 15.9473 8.24021 15.8536 8.14645C15.7598 8.05268 15.6326 8 15.5 8ZM8.793 12.553C8.74559 12.679 8.66635 12.7907 8.563 12.877C8.49346 12.9337 8.41956 12.9849 8.342 13.03C8.27067 13.0695 8.1943 13.0991 8.115 13.118C8.02387 13.1383 7.93122 13.151 7.838 13.156C7.738 13.162 7.615 13.165 7.474 13.165H6.416V9.835H7.442C7.583 9.835 7.706 9.835 7.811 9.849C7.90875 9.85669 8.00553 9.87377 8.1 9.9C8.17975 9.92053 8.25547 9.95434 8.324 10C8.39386 10.0466 8.45767 10.1017 8.514 10.164C8.58558 10.2373 8.63841 10.3269 8.668 10.425C8.69628 10.5184 8.71109 10.6154 8.712 10.713C8.71123 10.8434 8.67899 10.9717 8.618 11.087C8.55255 11.2144 8.45005 11.319 8.324 11.387C8.44061 11.424 8.54753 11.4865 8.637 11.57C8.70441 11.6341 8.75904 11.7105 8.798 11.795C8.82768 11.86 8.84724 11.9291 8.856 12C8.86334 12.0507 8.86735 12.1018 8.868 12.153C8.86711 12.2897 8.84171 12.4252 8.793 12.553ZM10.627 13.165H9.776V9.835H10.627V13.165ZM13.585 10.582H12.932V13.165H12.082V10.582H11.424V9.835H13.585V10.582Z" fill="#27D4FF"/>
</g>
</svg>
