<svg width="280" height="180" viewBox="0 0 280 180" fill="none" xmlns="http://www.w3.org/2000/svg">
<path d="M8.657 17.836V7.947H7.755V17.836H8.657ZM4.081 10.576V8.805H3.19V10.576C3.19 12.468 1.98 14.327 0.539 15.031L1.089 15.768C2.244 15.152 3.19 13.964 3.641 12.457C4.114 13.876 5.038 15.02 6.182 15.581L6.721 14.855C5.269 14.206 4.081 12.38 4.081 10.576ZM16.1251 13.513L16.5431 12.82C15.0911 12.38 14.0681 11.28 14.0681 10.048V9.861H16.2461V9.135H14.0681V7.903H13.1661V9.135H10.9771V9.861H13.1661V10.048C13.1661 11.379 12.1651 12.578 10.7241 13.073L11.1641 13.766C12.3521 13.381 13.2101 12.567 13.6391 11.467C14.0901 12.435 14.9811 13.161 16.1251 13.513ZM17.9181 7.947V10.752H15.9491V11.5H17.9181V13.931H18.8311V7.947H17.9181ZM15.5641 14.184C13.5401 14.184 12.2861 14.844 12.2861 15.988C12.2861 17.143 13.5401 17.803 15.5641 17.803C17.6211 17.803 18.8641 17.143 18.8641 15.988C18.8641 14.844 17.6211 14.184 15.5641 14.184ZM15.5641 17.099C14.0571 17.099 13.1881 16.692 13.1881 15.988C13.1881 15.284 14.0571 14.888 15.5641 14.888C17.0711 14.888 17.9621 15.284 17.9621 15.988C17.9621 16.692 17.0711 17.099 15.5641 17.099ZM31.6192 12.446H23.1382V13.194H31.6192C31.0582 13.634 30.3432 14.316 29.8372 14.998L30.4972 15.383C31.2232 14.426 32.3342 13.436 33.3132 12.82C32.3342 12.204 31.2232 11.214 30.4972 10.257L29.8372 10.642C30.3432 11.324 31.0582 12.006 31.6192 12.446ZM41.6472 13.568H45.6732V12.831H44.2102C44.4852 11.412 44.4852 10.367 44.4852 9.443V8.585H37.8632V9.311H43.6052V9.443C43.6052 10.367 43.6052 11.412 43.2972 12.831H36.7522V13.568H40.7342V17.825H41.6472V13.568ZM52.2833 13.513L52.7013 12.82C51.2493 12.38 50.2263 11.28 50.2263 10.048V9.861H52.4043V9.135H50.2263V7.903H49.3243V9.135H47.1353V9.861H49.3243V10.048C49.3243 11.379 48.3233 12.578 46.8823 13.073L47.3223 13.766C48.5103 13.381 49.3683 12.567 49.7973 11.467C50.2483 12.435 51.1393 13.161 52.2833 13.513ZM54.0763 7.947V10.752H52.1073V11.5H54.0763V13.931H54.9893V7.947H54.0763ZM51.7223 14.184C49.6983 14.184 48.4443 14.844 48.4443 15.988C48.4443 17.143 49.6983 17.803 51.7223 17.803C53.7793 17.803 55.0223 17.143 55.0223 15.988C55.0223 14.844 53.7793 14.184 51.7223 14.184ZM51.7223 17.099C50.2153 17.099 49.3463 16.692 49.3463 15.988C49.3463 15.284 50.2153 14.888 51.7223 14.888C53.2293 14.888 54.1203 15.284 54.1203 15.988C54.1203 16.692 53.2293 17.099 51.7223 17.099Z" fill="white" fill-opacity="0.6"/>
<rect x="96" y="4" width="89" height="6" fill="#27D4FF"/>
<path d="M198.995 11V10.109H195.816C195.541 10.109 195.211 10.153 194.903 10.241L197.158 8.008C198.071 7.095 198.841 6.259 198.841 5.06C198.841 3.63 197.774 2.794 196.399 2.794C195.024 2.794 193.957 3.597 193.748 5.082L194.738 5.247C194.738 4.323 195.42 3.663 196.344 3.663C197.18 3.663 197.796 4.114 197.829 5.082C197.829 6.028 197.213 6.721 196.366 7.623L193.583 10.296V11H198.995ZM200.334 5.104L201.335 5.269C201.335 4.367 202.006 3.685 202.93 3.685C203.777 3.685 204.371 4.136 204.371 5.06C204.371 5.896 203.865 6.479 202.446 6.512V7.238C204.173 7.238 204.536 7.876 204.536 8.745C204.536 9.46 203.975 10.274 202.82 10.274C201.984 10.274 201.489 9.845 201.148 9.141C201.06 8.932 201.005 8.767 200.983 8.646L200.081 9.02C200.466 10.208 201.093 11.143 202.831 11.143C204.338 11.143 205.559 10.197 205.559 8.723C205.559 7.711 205.009 7.04 203.953 6.776C204.833 6.479 205.372 5.951 205.372 4.895C205.372 3.663 204.382 2.805 202.985 2.805C201.61 2.805 200.543 3.641 200.334 5.104ZM207.568 10.12H206.567V11.154H207.568V10.12ZM210.742 5.94L211.105 3.828H214.262V2.904H210.401L209.741 6.721L210.39 6.908C210.863 6.743 211.281 6.644 211.71 6.644C212.865 6.644 213.547 7.26 213.547 8.316C213.547 9.504 212.744 10.197 211.633 10.197C210.973 10.197 210.335 9.9 209.851 9.493L209.312 10.23C209.807 10.703 210.621 11.099 211.589 11.099C213.228 11.099 214.515 9.977 214.515 8.261C214.515 6.853 213.602 5.797 211.897 5.797C211.501 5.797 211.116 5.841 210.742 5.94Z" fill="white" fill-opacity="0.6"/>
<rect x="96" y="16" width="35" height="6" fill="#0068E6"/>
<path d="M144.786 23V22.186H143.202V14.893H142.399L140.232 16.763L140.771 17.412L142.234 16.103C142.223 16.18 142.223 16.279 142.223 16.378V22.186H140.43V23H144.786ZM150.008 18.798C150.888 18.479 151.328 17.841 151.328 16.906C151.328 15.718 150.305 14.739 148.831 14.739C147.302 14.739 146.334 15.718 146.334 16.906C146.334 17.83 146.796 18.479 147.632 18.798C146.62 19.073 146.037 19.777 146.037 20.833C146.037 22.274 147.181 23.187 148.831 23.187C150.459 23.187 151.603 22.274 151.603 20.833C151.603 19.777 151.031 19.073 150.008 18.798ZM148.831 15.542C149.821 15.542 150.305 16.169 150.305 16.939C150.305 17.676 149.92 18.413 148.831 18.413C147.72 18.413 147.335 17.676 147.335 16.939C147.335 16.169 147.819 15.542 148.831 15.542ZM148.831 22.362C147.731 22.362 147.104 21.746 147.104 20.822C147.104 19.689 147.907 19.216 148.831 19.216C149.744 19.216 150.536 19.689 150.536 20.822C150.536 21.746 149.931 22.362 148.831 22.362ZM153.568 22.12H152.567V23.154H153.568V22.12ZM160.427 23V22.186H158.843V14.893H158.04L155.873 16.763L156.412 17.412L157.875 16.103C157.864 16.18 157.864 16.279 157.864 16.378V22.186H156.071V23H160.427Z" fill="white" fill-opacity="0.6"/>
<path d="M8.657 49.336V39.447H7.755V49.336H8.657ZM4.081 42.076V40.305H3.19V42.076C3.19 43.968 1.98 45.827 0.539 46.531L1.089 47.268C2.244 46.652 3.19 45.464 3.641 43.957C4.114 45.376 5.038 46.52 6.182 47.081L6.721 46.355C5.269 45.706 4.081 43.88 4.081 42.076ZM16.1251 45.013L16.5431 44.32C15.0911 43.88 14.0681 42.78 14.0681 41.548V41.361H16.2461V40.635H14.0681V39.403H13.1661V40.635H10.9771V41.361H13.1661V41.548C13.1661 42.879 12.1651 44.078 10.7241 44.573L11.1641 45.266C12.3521 44.881 13.2101 44.067 13.6391 42.967C14.0901 43.935 14.9811 44.661 16.1251 45.013ZM17.9181 39.447V42.252H15.9491V43H17.9181V45.431H18.8311V39.447H17.9181ZM15.5641 45.684C13.5401 45.684 12.2861 46.344 12.2861 47.488C12.2861 48.643 13.5401 49.303 15.5641 49.303C17.6211 49.303 18.8641 48.643 18.8641 47.488C18.8641 46.344 17.6211 45.684 15.5641 45.684ZM15.5641 48.599C14.0571 48.599 13.1881 48.192 13.1881 47.488C13.1881 46.784 14.0571 46.388 15.5641 46.388C17.0711 46.388 17.9621 46.784 17.9621 47.488C17.9621 48.192 17.0711 48.599 15.5641 48.599ZM31.6192 43.946H23.1382V44.694H31.6192C31.0582 45.134 30.3432 45.816 29.8372 46.498L30.4972 46.883C31.2232 45.926 32.3342 44.936 33.3132 44.32C32.3342 43.704 31.2232 42.714 30.4972 41.757L29.8372 42.142C30.3432 42.824 31.0582 43.506 31.6192 43.946ZM44.8702 45.013L45.2552 44.265C43.5282 43.968 41.6472 42.505 41.6472 40.866V40.107H40.7012V40.866C40.7012 42.505 38.8312 43.968 37.1042 44.265L37.4782 45.013C38.9962 44.694 40.5252 43.671 41.1742 42.263C41.8232 43.671 43.3632 44.683 44.8702 45.013ZM45.6952 48.027V47.29H41.6252V44.892H40.7232V47.29H36.7412V48.027H45.6952ZM54.4503 44.199H56.0783V43.451H54.4503V39.458H53.5483V49.314H54.4503V44.199ZM50.1713 42.076V40.305H49.2803V42.076C49.2803 43.869 48.1583 45.75 46.7393 46.487L47.2783 47.213C48.3893 46.597 49.3023 45.409 49.7313 43.946C50.1713 45.31 51.0623 46.454 52.1183 47.015L52.6793 46.3C51.3043 45.596 50.1713 43.803 50.1713 42.076ZM65.1085 45.266V39.447L64.1955 39.458V40.899H61.7095C61.2365 40.338 60.5435 39.997 59.6635 39.997C58.2115 39.997 57.1335 40.987 57.1335 42.362C57.1335 43.759 58.2115 44.749 59.6635 44.749C60.5435 44.749 61.2255 44.408 61.6985 43.847H64.1955V45.266H65.1085ZM59.6635 43.979C58.7065 43.979 57.9915 43.297 57.9915 42.362C57.9915 41.438 58.7065 40.767 59.6635 40.767C60.6315 40.767 61.3465 41.438 61.3465 42.362C61.3465 43.297 60.6315 43.979 59.6635 43.979ZM64.1955 41.625V43.11H62.0945C62.1715 42.901 62.2045 42.648 62.2045 42.362C62.2045 42.087 62.1715 41.834 62.0945 41.625H64.1955ZM65.1085 45.805H58.5085V46.542H64.1955V49.325H65.1085V45.805Z" fill="white" fill-opacity="0.6"/>
<rect x="96" y="35.5" width="116" height="6" fill="#27D4FF"/>
<path d="M225.995 42.5V41.609H222.816C222.541 41.609 222.211 41.653 221.903 41.741L224.158 39.508C225.071 38.595 225.841 37.759 225.841 36.56C225.841 35.13 224.774 34.294 223.399 34.294C222.024 34.294 220.957 35.097 220.748 36.582L221.738 36.747C221.738 35.823 222.42 35.163 223.344 35.163C224.18 35.163 224.796 35.614 224.829 36.582C224.829 37.528 224.213 38.221 223.366 39.123L220.583 41.796V42.5H225.995ZM229.204 37.44L231.635 34.393H230.37L228.126 37.418C227.422 38.342 227.125 39.156 227.125 39.871C227.125 41.543 228.192 42.643 229.831 42.643C231.481 42.643 232.625 41.477 232.625 39.981C232.625 38.43 231.525 37.55 230.205 37.55C229.666 37.55 229.215 37.704 228.819 37.968C228.896 37.88 229.017 37.704 229.204 37.44ZM229.809 41.796C228.709 41.796 228.104 41.092 228.104 40.036C228.104 39.123 228.797 38.331 229.875 38.331C230.876 38.331 231.613 38.991 231.613 40.058C231.613 41.059 230.876 41.796 229.809 41.796ZM234.568 41.62H233.567V42.654H234.568V41.62ZM241.636 42.5V41.609H238.457C238.182 41.609 237.852 41.653 237.544 41.741L239.799 39.508C240.712 38.595 241.482 37.759 241.482 36.56C241.482 35.13 240.415 34.294 239.04 34.294C237.665 34.294 236.598 35.097 236.389 36.582L237.379 36.747C237.379 35.823 238.061 35.163 238.985 35.163C239.821 35.163 240.437 35.614 240.47 36.582C240.47 37.528 239.854 38.221 239.007 39.123L236.224 41.796V42.5H241.636Z" fill="white" fill-opacity="0.6"/>
<rect x="96" y="47.5" width="82" height="6" fill="#0068E6"/>
<path d="M191.995 54.5V53.609H188.816C188.541 53.609 188.211 53.653 187.903 53.741L190.158 51.508C191.071 50.595 191.841 49.759 191.841 48.56C191.841 47.13 190.774 46.294 189.399 46.294C188.024 46.294 186.957 47.097 186.748 48.582L187.738 48.747C187.738 47.823 188.42 47.163 189.344 47.163C190.18 47.163 190.796 47.614 190.829 48.582C190.829 49.528 190.213 50.221 189.366 51.123L186.583 53.796V54.5H191.995ZM198.548 54.5V53.609H195.369C195.094 53.609 194.764 53.653 194.456 53.741L196.711 51.508C197.624 50.595 198.394 49.759 198.394 48.56C198.394 47.13 197.327 46.294 195.952 46.294C194.577 46.294 193.51 47.097 193.301 48.582L194.291 48.747C194.291 47.823 194.973 47.163 195.897 47.163C196.733 47.163 197.349 47.614 197.382 48.582C197.382 49.528 196.766 50.221 195.919 51.123L193.136 53.796V54.5H198.548ZM200.568 53.62H199.567V54.654H200.568V53.62ZM206.096 50.298C206.976 49.979 207.416 49.341 207.416 48.406C207.416 47.218 206.393 46.239 204.919 46.239C203.39 46.239 202.422 47.218 202.422 48.406C202.422 49.33 202.884 49.979 203.72 50.298C202.708 50.573 202.125 51.277 202.125 52.333C202.125 53.774 203.269 54.687 204.919 54.687C206.547 54.687 207.691 53.774 207.691 52.333C207.691 51.277 207.119 50.573 206.096 50.298ZM204.919 47.042C205.909 47.042 206.393 47.669 206.393 48.439C206.393 49.176 206.008 49.913 204.919 49.913C203.808 49.913 203.423 49.176 203.423 48.439C203.423 47.669 203.907 47.042 204.919 47.042ZM204.919 53.862C203.819 53.862 203.192 53.246 203.192 52.322C203.192 51.189 203.995 50.716 204.919 50.716C205.832 50.716 206.624 51.189 206.624 52.322C206.624 53.246 206.019 53.862 204.919 53.862Z" fill="white" fill-opacity="0.6"/>
<path d="M5.489 76.568H9.515V75.831H8.052C8.327 74.412 8.327 73.367 8.327 72.443V71.585H1.705V72.311H7.447V72.443C7.447 73.367 7.447 74.412 7.139 75.831H0.594V76.568H4.576V80.825H5.489V76.568ZM16.1251 76.513L16.5431 75.82C15.0911 75.38 14.0681 74.28 14.0681 73.048V72.861H16.2461V72.135H14.0681V70.903H13.1661V72.135H10.9771V72.861H13.1661V73.048C13.1661 74.379 12.1651 75.578 10.7241 76.073L11.1641 76.766C12.3521 76.381 13.2101 75.567 13.6391 74.467C14.0901 75.435 14.9811 76.161 16.1251 76.513ZM17.9181 70.947V73.752H15.9491V74.5H17.9181V76.931H18.8311V70.947H17.9181ZM15.5641 77.184C13.5401 77.184 12.2861 77.844 12.2861 78.988C12.2861 80.143 13.5401 80.803 15.5641 80.803C17.6211 80.803 18.8641 80.143 18.8641 78.988C18.8641 77.844 17.6211 77.184 15.5641 77.184ZM15.5641 80.099C14.0571 80.099 13.1881 79.692 13.1881 78.988C13.1881 78.284 14.0571 77.888 15.5641 77.888C17.0711 77.888 17.9621 78.284 17.9621 78.988C17.9621 79.692 17.0711 80.099 15.5641 80.099ZM31.6192 75.446H23.1382V76.194H31.6192C31.0582 76.634 30.3432 77.316 29.8372 77.998L30.4972 78.383C31.2232 77.426 32.3342 76.436 33.3132 75.82C32.3342 75.204 31.2232 74.214 30.4972 73.257L29.8372 73.642C30.3432 74.324 31.0582 75.006 31.6192 75.446ZM44.8152 80.836V70.947H43.9132V80.836H44.8152ZM40.2392 73.576V71.805H39.3482V73.576C39.3482 75.468 38.1382 77.327 36.6972 78.031L37.2472 78.768C38.4022 78.152 39.3482 76.964 39.7992 75.457C40.2722 76.876 41.1962 78.02 42.3402 78.581L42.8792 77.855C41.4272 77.206 40.2392 75.38 40.2392 73.576ZM52.2833 76.513L52.7013 75.82C51.2493 75.38 50.2263 74.28 50.2263 73.048V72.861H52.4043V72.135H50.2263V70.903H49.3243V72.135H47.1353V72.861H49.3243V73.048C49.3243 74.379 48.3233 75.578 46.8823 76.073L47.3223 76.766C48.5103 76.381 49.3683 75.567 49.7973 74.467C50.2483 75.435 51.1393 76.161 52.2833 76.513ZM54.0763 70.947V73.752H52.1073V74.5H54.0763V76.931H54.9893V70.947H54.0763ZM51.7223 77.184C49.6983 77.184 48.4443 77.844 48.4443 78.988C48.4443 80.143 49.6983 80.803 51.7223 80.803C53.7793 80.803 55.0223 80.143 55.0223 78.988C55.0223 77.844 53.7793 77.184 51.7223 77.184ZM51.7223 80.099C50.2153 80.099 49.3463 79.692 49.3463 78.988C49.3463 78.284 50.2153 77.888 51.7223 77.888C53.2293 77.888 54.1203 78.284 54.1203 78.988C54.1203 79.692 53.2293 80.099 51.7223 80.099Z" fill="white" fill-opacity="0.6"/>
<rect x="96" y="67" width="55" height="6" fill="#27D4FF"/>
<path d="M164.995 74V73.109H161.816C161.541 73.109 161.211 73.153 160.903 73.241L163.158 71.008C164.071 70.095 164.841 69.259 164.841 68.06C164.841 66.63 163.774 65.794 162.399 65.794C161.024 65.794 159.957 66.597 159.748 68.082L160.738 68.247C160.738 67.323 161.42 66.663 162.344 66.663C163.18 66.663 163.796 67.114 163.829 68.082C163.829 69.028 163.213 69.721 162.366 70.623L159.583 73.296V74H164.995ZM171.812 69.985C171.812 67.114 170.514 65.805 168.853 65.805C167.181 65.805 165.894 67.114 165.894 69.985C165.894 72.845 167.181 74.154 168.853 74.154C170.514 74.154 171.812 72.845 171.812 69.985ZM170.8 69.985C170.8 72.493 169.876 73.34 168.853 73.34C167.83 73.34 166.917 72.493 166.917 69.985C166.917 67.466 167.83 66.63 168.853 66.63C169.876 66.63 170.8 67.466 170.8 69.985ZM173.568 73.12H172.567V74.154H173.568V73.12ZM180.427 74V73.186H178.843V65.893H178.04L175.873 67.763L176.412 68.412L177.875 67.103C177.864 67.18 177.864 67.279 177.864 67.378V73.186H176.071V74H180.427Z" fill="white" fill-opacity="0.6"/>
<rect x="96" y="79" width="83" height="6" fill="#0068E6"/>
<path d="M192.995 86V85.109H189.816C189.541 85.109 189.211 85.153 188.903 85.241L191.158 83.008C192.071 82.095 192.841 81.259 192.841 80.06C192.841 78.63 191.774 77.794 190.399 77.794C189.024 77.794 187.957 78.597 187.748 80.082L188.738 80.247C188.738 79.323 189.42 78.663 190.344 78.663C191.18 78.663 191.796 79.114 191.829 80.082C191.829 81.028 191.213 81.721 190.366 82.623L187.583 85.296V86H192.995ZM194.334 80.104L195.335 80.269C195.335 79.367 196.006 78.685 196.93 78.685C197.777 78.685 198.371 79.136 198.371 80.06C198.371 80.896 197.865 81.479 196.446 81.512V82.238C198.173 82.238 198.536 82.876 198.536 83.745C198.536 84.46 197.975 85.274 196.82 85.274C195.984 85.274 195.489 84.845 195.148 84.141C195.06 83.932 195.005 83.767 194.983 83.646L194.081 84.02C194.466 85.208 195.093 86.143 196.831 86.143C198.338 86.143 199.559 85.197 199.559 83.723C199.559 82.711 199.009 82.04 197.953 81.776C198.833 81.479 199.372 80.951 199.372 79.895C199.372 78.663 198.382 77.805 196.985 77.805C195.61 77.805 194.543 78.641 194.334 80.104ZM201.568 85.12H200.567V86.154H201.568V85.12ZM206.656 82.799L204.148 86H205.413L207.624 82.953C208.24 82.106 208.592 81.369 208.592 80.412C208.592 78.839 207.547 77.739 205.963 77.739C204.357 77.739 203.224 78.894 203.224 80.335C203.224 81.864 204.28 82.7 205.545 82.7C206.15 82.7 206.667 82.524 207.096 82.183C207.019 82.282 206.887 82.491 206.656 82.799ZM204.247 80.258C204.247 79.279 204.929 78.608 205.952 78.608C206.898 78.608 207.613 79.235 207.613 80.291C207.613 81.138 206.975 81.908 205.875 81.908C204.863 81.908 204.247 81.325 204.247 80.258Z" fill="white" fill-opacity="0.6"/>
<path d="M8.712 108.013L9.097 107.265C7.37 106.968 5.489 105.505 5.489 103.866V103.107H4.543V103.866C4.543 105.505 2.673 106.968 0.946 107.265L1.32 108.013C2.838 107.694 4.367 106.671 5.016 105.263C5.665 106.671 7.205 107.683 8.712 108.013ZM9.537 111.027V110.29H5.467V107.892H4.565V110.29H0.583V111.027H9.537ZM18.2921 107.199H19.9201V106.451H18.2921V102.458H17.3901V112.314H18.2921V107.199ZM14.0131 105.076V103.305H13.1221V105.076C13.1221 106.869 12.0001 108.75 10.5811 109.487L11.1201 110.213C12.2311 109.597 13.1441 108.409 13.5731 106.946C14.0131 108.31 14.9041 109.454 15.9601 110.015L16.5211 109.3C15.1461 108.596 14.0131 106.803 14.0131 105.076ZM28.9503 108.266V102.447L28.0373 102.458V103.899H25.5513C25.0783 103.338 24.3853 102.997 23.5053 102.997C22.0533 102.997 20.9753 103.987 20.9753 105.362C20.9753 106.759 22.0533 107.749 23.5053 107.749C24.3853 107.749 25.0673 107.408 25.5403 106.847H28.0373V108.266H28.9503ZM23.5053 106.979C22.5483 106.979 21.8333 106.297 21.8333 105.362C21.8333 104.438 22.5483 103.767 23.5053 103.767C24.4733 103.767 25.1883 104.438 25.1883 105.362C25.1883 106.297 24.4733 106.979 23.5053 106.979ZM28.0373 104.625V106.11H25.9363C26.0133 105.901 26.0463 105.648 26.0463 105.362C26.0463 105.087 26.0133 104.834 25.9363 104.625H28.0373ZM28.9503 108.805H22.3503V109.542H28.0373V112.325H28.9503V108.805ZM41.7384 106.946H33.2574V107.694H41.7384C41.1774 108.134 40.4624 108.816 39.9564 109.498L40.6164 109.883C41.3424 108.926 42.4534 107.936 43.4324 107.32C42.4534 106.704 41.3424 105.714 40.6164 104.757L39.9564 105.142C40.4624 105.824 41.1774 106.506 41.7384 106.946ZM54.9343 112.336V102.447H54.0323V112.336H54.9343ZM50.3583 105.076V103.305H49.4673V105.076C49.4673 106.968 48.2573 108.827 46.8163 109.531L47.3663 110.268C48.5213 109.652 49.4673 108.464 49.9183 106.957C50.3913 108.376 51.3153 109.52 52.4593 110.081L52.9983 109.355C51.5463 108.706 50.3583 106.88 50.3583 105.076ZM62.4025 108.013L62.8205 107.32C61.3685 106.88 60.3455 105.78 60.3455 104.548V104.361H62.5235V103.635H60.3455V102.403H59.4435V103.635H57.2545V104.361H59.4435V104.548C59.4435 105.879 58.4425 107.078 57.0015 107.573L57.4415 108.266C58.6295 107.881 59.4875 107.067 59.9165 105.967C60.3675 106.935 61.2585 107.661 62.4025 108.013ZM64.1955 102.447V105.252H62.2265V106H64.1955V108.431H65.1085V102.447H64.1955ZM61.8415 108.684C59.8175 108.684 58.5635 109.344 58.5635 110.488C58.5635 111.643 59.8175 112.303 61.8415 112.303C63.8985 112.303 65.1415 111.643 65.1415 110.488C65.1415 109.344 63.8985 108.684 61.8415 108.684ZM61.8415 111.599C60.3345 111.599 59.4655 111.192 59.4655 110.488C59.4655 109.784 60.3345 109.388 61.8415 109.388C63.3485 109.388 64.2395 109.784 64.2395 110.488C64.2395 111.192 63.3485 111.599 61.8415 111.599Z" fill="white" fill-opacity="0.6"/>
<rect x="96" y="98.5" width="149" height="6" fill="#27D4FF"/>
<path d="M258.995 105.5V104.609H255.816C255.541 104.609 255.211 104.653 254.903 104.741L257.158 102.508C258.071 101.595 258.841 100.759 258.841 99.56C258.841 98.13 257.774 97.294 256.399 97.294C255.024 97.294 253.957 98.097 253.748 99.582L254.738 99.747C254.738 98.823 255.42 98.163 256.344 98.163C257.18 98.163 257.796 98.614 257.829 99.582C257.829 100.528 257.213 101.221 256.366 102.123L253.583 104.796V105.5H258.995ZM263.568 102.299L261.06 105.5H262.325L264.536 102.453C265.152 101.606 265.504 100.869 265.504 99.912C265.504 98.339 264.459 97.239 262.875 97.239C261.269 97.239 260.136 98.394 260.136 99.835C260.136 101.364 261.192 102.2 262.457 102.2C263.062 102.2 263.579 102.024 264.008 101.683C263.931 101.782 263.799 101.991 263.568 102.299ZM261.159 99.758C261.159 98.779 261.841 98.108 262.864 98.108C263.81 98.108 264.525 98.735 264.525 99.791C264.525 100.638 263.887 101.408 262.787 101.408C261.775 101.408 261.159 100.825 261.159 99.758ZM267.568 104.62H266.567V105.654H267.568V104.62ZM270.742 100.44L271.105 98.328H274.262V97.404H270.401L269.741 101.221L270.39 101.408C270.863 101.243 271.281 101.144 271.71 101.144C272.865 101.144 273.547 101.76 273.547 102.816C273.547 104.004 272.744 104.697 271.633 104.697C270.973 104.697 270.335 104.4 269.851 103.993L269.312 104.73C269.807 105.203 270.621 105.599 271.589 105.599C273.228 105.599 274.515 104.477 274.515 102.761C274.515 101.353 273.602 100.297 271.897 100.297C271.501 100.297 271.116 100.341 270.742 100.44Z" fill="white" fill-opacity="0.6"/>
<rect x="96" y="110.5" width="105" height="6" fill="#0068E6"/>
<path d="M214.995 117.5V116.609H211.816C211.541 116.609 211.211 116.653 210.903 116.741L213.158 114.508C214.071 113.595 214.841 112.759 214.841 111.56C214.841 110.13 213.774 109.294 212.399 109.294C211.024 109.294 209.957 110.097 209.748 111.582L210.738 111.747C210.738 110.823 211.42 110.163 212.344 110.163C213.18 110.163 213.796 110.614 213.829 111.582C213.829 112.528 213.213 113.221 212.366 114.123L209.583 116.796V117.5H214.995ZM217.654 112.44L218.017 110.328H221.174V109.404H217.313L216.653 113.221L217.302 113.408C217.775 113.243 218.193 113.144 218.622 113.144C219.777 113.144 220.459 113.76 220.459 114.816C220.459 116.004 219.656 116.697 218.545 116.697C217.885 116.697 217.247 116.4 216.763 115.993L216.224 116.73C216.719 117.203 217.533 117.599 218.501 117.599C220.14 117.599 221.427 116.477 221.427 114.761C221.427 113.353 220.514 112.297 218.809 112.297C218.413 112.297 218.028 112.341 217.654 112.44ZM223.568 116.62H222.567V117.654H223.568V116.62ZM230.427 117.5V116.686H228.843V109.393H228.04L225.873 111.263L226.412 111.912L227.875 110.603C227.864 110.68 227.864 110.779 227.864 110.878V116.686H226.071V117.5H230.427Z" fill="white" fill-opacity="0.6"/>
<path d="M8.712 139.513L9.097 138.765C7.37 138.468 5.489 137.005 5.489 135.366V134.607H4.543V135.366C4.543 137.005 2.673 138.468 0.946 138.765L1.32 139.513C2.838 139.194 4.367 138.171 5.016 136.763C5.665 138.171 7.205 139.183 8.712 139.513ZM9.537 142.527V141.79H5.467V139.392H4.565V141.79H0.583V142.527H9.537ZM18.2921 138.699H19.9201V137.951H18.2921V133.958H17.3901V143.814H18.2921V138.699ZM14.0131 136.576V134.805H13.1221V136.576C13.1221 138.369 12.0001 140.25 10.5811 140.987L11.1201 141.713C12.2311 141.097 13.1441 139.909 13.5731 138.446C14.0131 139.81 14.9041 140.954 15.9601 141.515L16.5211 140.8C15.1461 140.096 14.0131 138.303 14.0131 136.576ZM28.9503 139.766V133.947L28.0373 133.958V135.399H25.5513C25.0783 134.838 24.3853 134.497 23.5053 134.497C22.0533 134.497 20.9753 135.487 20.9753 136.862C20.9753 138.259 22.0533 139.249 23.5053 139.249C24.3853 139.249 25.0673 138.908 25.5403 138.347H28.0373V139.766H28.9503ZM23.5053 138.479C22.5483 138.479 21.8333 137.797 21.8333 136.862C21.8333 135.938 22.5483 135.267 23.5053 135.267C24.4733 135.267 25.1883 135.938 25.1883 136.862C25.1883 137.797 24.4733 138.479 23.5053 138.479ZM28.0373 136.125V137.61H25.9363C26.0133 137.401 26.0463 137.148 26.0463 136.862C26.0463 136.587 26.0133 136.334 25.9363 136.125H28.0373ZM28.9503 140.305H22.3503V141.042H28.0373V143.825H28.9503V140.305ZM41.7384 138.446H33.2574V139.194H41.7384C41.1774 139.634 40.4624 140.316 39.9564 140.998L40.6164 141.383C41.3424 140.426 42.4534 139.436 43.4324 138.82C42.4534 138.204 41.3424 137.214 40.6164 136.257L39.9564 136.642C40.4624 137.324 41.1774 138.006 41.7384 138.446ZM51.7663 139.568H55.7923V138.831H54.3293C54.6043 137.412 54.6043 136.367 54.6043 135.443V134.585H47.9823V135.311H53.7243V135.443C53.7243 136.367 53.7243 137.412 53.4163 138.831H46.8713V139.568H50.8533V143.825H51.7663V139.568ZM62.4025 139.513L62.8205 138.82C61.3685 138.38 60.3455 137.28 60.3455 136.048V135.861H62.5235V135.135H60.3455V133.903H59.4435V135.135H57.2545V135.861H59.4435V136.048C59.4435 137.379 58.4425 138.578 57.0015 139.073L57.4415 139.766C58.6295 139.381 59.4875 138.567 59.9165 137.467C60.3675 138.435 61.2585 139.161 62.4025 139.513ZM64.1955 133.947V136.752H62.2265V137.5H64.1955V139.931H65.1085V133.947H64.1955ZM61.8415 140.184C59.8175 140.184 58.5635 140.844 58.5635 141.988C58.5635 143.143 59.8175 143.803 61.8415 143.803C63.8985 143.803 65.1415 143.143 65.1415 141.988C65.1415 140.844 63.8985 140.184 61.8415 140.184ZM61.8415 143.099C60.3345 143.099 59.4655 142.692 59.4655 141.988C59.4655 141.284 60.3345 140.888 61.8415 140.888C63.3485 140.888 64.2395 141.284 64.2395 141.988C64.2395 142.692 63.3485 143.099 61.8415 143.099Z" fill="white" fill-opacity="0.6"/>
<rect x="96" y="130" width="113" height="6" fill="#27D4FF"/>
<path d="M222.995 137V136.109H219.816C219.541 136.109 219.211 136.153 218.903 136.241L221.158 134.008C222.071 133.095 222.841 132.259 222.841 131.06C222.841 129.63 221.774 128.794 220.399 128.794C219.024 128.794 217.957 129.597 217.748 131.082L218.738 131.247C218.738 130.323 219.42 129.663 220.344 129.663C221.18 129.663 221.796 130.114 221.829 131.082C221.829 132.028 221.213 132.721 220.366 133.623L217.583 136.296V137H222.995ZM225.654 131.94L226.017 129.828H229.174V128.904H225.313L224.653 132.721L225.302 132.908C225.775 132.743 226.193 132.644 226.622 132.644C227.777 132.644 228.459 133.26 228.459 134.316C228.459 135.504 227.656 136.197 226.545 136.197C225.885 136.197 225.247 135.9 224.763 135.493L224.224 136.23C224.719 136.703 225.533 137.099 226.501 137.099C228.14 137.099 229.427 135.977 229.427 134.261C229.427 132.853 228.514 131.797 226.809 131.797C226.413 131.797 226.028 131.841 225.654 131.94ZM231.568 136.12H230.567V137.154H231.568V136.12ZM236.656 133.799L234.148 137H235.413L237.624 133.953C238.24 133.106 238.592 132.369 238.592 131.412C238.592 129.839 237.547 128.739 235.963 128.739C234.357 128.739 233.224 129.894 233.224 131.335C233.224 132.864 234.28 133.7 235.545 133.7C236.15 133.7 236.667 133.524 237.096 133.183C237.019 133.282 236.887 133.491 236.656 133.799ZM234.247 131.258C234.247 130.279 234.929 129.608 235.952 129.608C236.898 129.608 237.613 130.235 237.613 131.291C237.613 132.138 236.975 132.908 235.875 132.908C234.863 132.908 234.247 132.325 234.247 131.258Z" fill="white" fill-opacity="0.6"/>
<rect x="96" y="142" width="69" height="6" fill="#0068E6"/>
<path d="M178.995 149V148.109H175.816C175.541 148.109 175.211 148.153 174.903 148.241L177.158 146.008C178.071 145.095 178.841 144.259 178.841 143.06C178.841 141.63 177.774 140.794 176.399 140.794C175.024 140.794 173.957 141.597 173.748 143.082L174.738 143.247C174.738 142.323 175.42 141.663 176.344 141.663C177.18 141.663 177.796 142.114 177.829 143.082C177.829 144.028 177.213 144.721 176.366 145.623L173.583 148.296V149H178.995ZM185.339 149V148.186H183.755V140.893H182.952L180.785 142.763L181.324 143.412L182.787 142.103C182.776 142.18 182.776 142.279 182.776 142.378V148.186H180.983V149H185.339ZM187.568 148.12H186.567V149.154H187.568V148.12ZM190.742 143.94L191.105 141.828H194.262V140.904H190.401L189.741 144.721L190.39 144.908C190.863 144.743 191.281 144.644 191.71 144.644C192.865 144.644 193.547 145.26 193.547 146.316C193.547 147.504 192.744 148.197 191.633 148.197C190.973 148.197 190.335 147.9 189.851 147.493L189.312 148.23C189.807 148.703 190.621 149.099 191.589 149.099C193.228 149.099 194.515 147.977 194.515 146.261C194.515 144.853 193.602 143.797 191.897 143.797C191.501 143.797 191.116 143.841 190.742 143.94Z" fill="white" fill-opacity="0.6"/>
<path d="M2.629 178.573L3.256 178.276C2.288 176.681 1.848 174.91 1.848 172.985C1.848 171.06 2.288 169.289 3.256 167.694L2.629 167.408C1.617 169.047 1.012 170.829 1.012 172.985C1.012 175.152 1.617 176.934 2.629 178.573ZM9.2058 173.568H13.2318V172.831H11.7688C12.0438 171.412 12.0438 170.367 12.0438 169.443V168.585H5.4218V169.311H11.1638V169.443C11.1638 170.367 11.1638 171.412 10.8558 172.831H4.3108V173.568H8.2928V177.825H9.2058V173.568ZM23.5379 171.698V170.95H22.0749V167.958H21.1729V175.163H22.0749V171.698H23.5379ZM19.4349 168.717H14.8369V169.454H18.4669C18.2909 171.192 16.7509 172.589 14.4409 173.315L14.8039 174.03C17.6529 173.15 19.4349 171.269 19.4349 168.717ZM22.5039 176.857H16.8279V174.426H15.9259V177.594H22.5039V176.857ZM32.5791 171.918L32.9201 171.192C31.1601 170.961 29.4551 169.85 29.4551 168.541V168.101H28.5311V168.541C28.5311 169.85 26.8371 170.961 25.0771 171.192L25.4181 171.918C26.9251 171.654 28.3771 170.895 28.9931 169.751C29.6091 170.895 31.0831 171.654 32.5791 171.918ZM33.4921 173.634V172.897H29.4441V171.401H28.5421V172.897H24.5381V173.634H33.4921ZM32.3591 174.591H25.5281V175.328H31.4571V177.825H32.3591V174.591ZM43.6112 176.571V175.823H39.5742V173.293H42.5772V172.567H36.6922V169.476H42.4782V168.739H35.7902V173.293H38.6612V175.823H34.6462V176.571H43.6112ZM48.6553 168.244H47.6653V177H48.6553V175.427L49.7773 174.118L51.5263 177H52.6153L50.3493 173.425L52.3513 171.027H51.2403L48.6773 174.184H48.6553V168.244ZM54.5597 171.027H53.7347V177H54.7357V172.666C55.2747 172.061 55.7807 171.753 56.2427 171.753C57.0017 171.753 57.3537 172.204 57.3537 173.348V177H58.3547V172.666C58.9157 172.061 59.4217 171.753 59.8617 171.753C60.6207 171.753 60.9727 172.204 60.9727 173.348V177H61.9737V173.216C61.9737 171.665 61.4017 170.873 60.1587 170.873C59.4107 170.873 58.8057 171.346 58.1897 172.017C57.9367 171.313 57.4637 170.873 56.5397 170.873C55.8247 170.873 55.1977 171.324 54.6807 171.896H54.6477L54.5597 171.027ZM67.0533 167.727H66.3273L63.0273 178.419H63.7643L67.0533 167.727ZM69.2269 168.244H68.2259V177H69.2269V172.666C69.8319 172.061 70.2499 171.753 70.8659 171.753C71.6579 171.753 71.9989 172.204 71.9989 173.348V177H72.9999V173.216C72.9999 171.665 72.4609 170.873 71.1739 170.873C70.3489 170.873 69.7549 171.313 69.1939 171.874L69.2269 170.642V168.244ZM74.3685 178.21L74.9845 178.507C76.0075 176.868 76.6125 175.086 76.6125 172.919C76.6125 170.763 76.0075 168.981 74.9845 167.342L74.3685 167.628C75.3365 169.223 75.7765 170.994 75.7765 172.919C75.7765 174.844 75.3365 176.615 74.3685 178.21Z" fill="white" fill-opacity="0.87"/>
<rect x="96" y="168" width="10" height="10" fill="#27D4FF"/>
<path d="M113.727 171.995H120.503V171.258H114.64V168.453H113.727V171.995ZM117.478 174.217H121.537V173.48H112.572V174.217H116.576V177.814H117.478V174.217ZM130.82 173.854V167.947H129.918V170.521H127.993V171.258H129.918V173.854H130.82ZM128.07 173.469L128.521 172.765C127.091 172.27 126.123 171.016 126.123 169.751V169.355H128.29V168.618H123.021V169.355H125.221V169.751C125.221 171.159 124.198 172.457 122.735 172.985L123.208 173.7C124.363 173.271 125.254 172.38 125.683 171.236C126.123 172.259 126.97 173.073 128.07 173.469ZM130.82 174.393H124.231V175.119H129.918V177.825H130.82V174.393Z" fill="white" fill-opacity="0.87"/>
<rect x="149" y="168" width="10" height="10" fill="#0068E6"/>
<path d="M165.605 169.883H171.127V169.157H168.861V167.947H167.959V169.157H165.605V169.883ZM172.799 167.958V170.576H171.127V171.313H172.799V172.644H171.127V173.381H172.799V175.471H173.712V167.958H172.799ZM170.632 172.303C170.632 171.181 169.708 170.433 168.399 170.433C167.09 170.433 166.166 171.181 166.166 172.303C166.166 173.436 167.09 174.195 168.399 174.195C169.708 174.195 170.632 173.436 170.632 172.303ZM167.024 172.303C167.024 171.599 167.563 171.137 168.399 171.137C169.235 171.137 169.774 171.599 169.774 172.303C169.774 173.007 169.235 173.491 168.399 173.491C167.563 173.491 167.024 173.007 167.024 172.303ZM173.943 177.594V176.857H168.267V174.833H167.365V177.594H173.943ZM184.117 177.814V167.936H183.248V171.929H181.95V168.167H181.103V177.33H181.95V172.677H183.248V177.814H184.117ZM178.617 170.62V169.85H180.41V169.113H175.834V169.85H177.748V170.62C177.748 172.611 177.011 174.305 175.603 175.097L176.153 175.779C177.176 175.163 177.858 174.151 178.199 172.776C178.551 173.964 179.233 174.899 180.201 175.438L180.729 174.745C179.321 174.008 178.617 172.435 178.617 170.62Z" fill="white" fill-opacity="0.87"/>
</svg>
