<svg width="280" height="180" viewBox="0 0 280 180" fill="none" xmlns="http://www.w3.org/2000/svg">
<path d="M8.657 17.836H7.755V7.947H8.657V17.836ZM4.081 10.576C4.081 11.0233 4.15067 11.4707 4.29 11.918C4.42933 12.358 4.61633 12.7687 4.851 13.15C5.093 13.5313 5.37533 13.8723 5.698 14.173C6.02067 14.4663 6.36167 14.6937 6.721 14.855L6.182 15.581C5.61 15.3023 5.10033 14.8917 4.653 14.349C4.213 13.799 3.87567 13.1683 3.641 12.457C3.41367 13.2123 3.07633 13.876 2.629 14.448C2.18167 15.02 1.66833 15.46 1.089 15.768L0.539 15.031C0.898333 14.855 1.23933 14.613 1.562 14.305C1.88467 13.997 2.167 13.645 2.409 13.249C2.651 12.853 2.84167 12.4277 2.981 11.973C3.12033 11.511 3.19 11.0453 3.19 10.576V8.805H4.081V10.576ZM16.1251 13.513C15.5531 13.337 15.0508 13.073 14.6181 12.721C14.1928 12.369 13.8665 11.951 13.6391 11.467C13.4265 12.017 13.1075 12.49 12.6821 12.886C12.2641 13.282 11.7581 13.5753 11.1641 13.766L10.7241 13.073C11.0835 12.9483 11.4135 12.7833 11.7141 12.578C12.0148 12.3727 12.2715 12.138 12.4841 11.874C12.6968 11.61 12.8618 11.324 12.9791 11.016C13.1038 10.7007 13.1661 10.378 13.1661 10.048V9.861H10.9771V9.135H13.1661V7.903H14.0681V9.135H16.2461V9.861H14.0681V10.048C14.0681 10.356 14.1268 10.653 14.2441 10.939C14.3688 11.225 14.5411 11.489 14.7611 11.731C14.9811 11.973 15.2415 12.1893 15.5421 12.38C15.8501 12.5633 16.1838 12.71 16.5431 12.82L16.1251 13.513ZM17.9181 7.947H18.8311V13.931H17.9181V11.5H15.9491V10.752H17.9181V7.947ZM15.5641 14.184C16.0775 14.184 16.5358 14.2243 16.9391 14.305C17.3498 14.3857 17.6981 14.503 17.9841 14.657C18.2701 14.811 18.4865 15.0017 18.6331 15.229C18.7871 15.449 18.8641 15.702 18.8641 15.988C18.8641 16.274 18.7871 16.5307 18.6331 16.758C18.4865 16.9853 18.2701 17.176 17.9841 17.33C17.6981 17.484 17.3498 17.6013 16.9391 17.682C16.5358 17.7627 16.0775 17.803 15.5641 17.803C15.0581 17.803 14.6035 17.7627 14.2001 17.682C13.7968 17.6013 13.4521 17.484 13.1661 17.33C12.8801 17.176 12.6601 16.9853 12.5061 16.758C12.3595 16.5307 12.2861 16.274 12.2861 15.988C12.2861 15.702 12.3595 15.449 12.5061 15.229C12.6601 15.0017 12.8801 14.811 13.1661 14.657C13.4521 14.503 13.7968 14.3857 14.2001 14.305C14.6035 14.2243 15.0581 14.184 15.5641 14.184ZM15.5641 17.099C16.3195 17.099 16.9061 17.0037 17.3241 16.813C17.7495 16.615 17.9621 16.34 17.9621 15.988C17.9621 15.636 17.7495 15.3647 17.3241 15.174C16.9061 14.9833 16.3195 14.888 15.5641 14.888C14.8088 14.888 14.2221 14.9833 13.8041 15.174C13.3935 15.3647 13.1881 15.636 13.1881 15.988C13.1881 16.34 13.3935 16.615 13.8041 16.813C14.2221 17.0037 14.8088 17.099 15.5641 17.099ZM31.6192 12.446C31.4799 12.336 31.3296 12.2113 31.1682 12.072C31.0142 11.9327 30.8602 11.786 30.7062 11.632C30.5522 11.478 30.3982 11.3167 30.2442 11.148C30.0976 10.9793 29.9619 10.8107 29.8372 10.642L30.4972 10.257C30.6806 10.499 30.8822 10.741 31.1022 10.983C31.3296 11.2177 31.5642 11.445 31.8062 11.665C32.0556 11.885 32.3086 12.094 32.5652 12.292C32.8219 12.49 33.0712 12.666 33.3132 12.82C33.0712 12.974 32.8219 13.15 32.5652 13.348C32.3086 13.546 32.0556 13.755 31.8062 13.975C31.5642 14.195 31.3296 14.426 31.1022 14.668C30.8822 14.9027 30.6806 15.141 30.4972 15.383L29.8372 14.998C29.9619 14.8293 30.0976 14.6607 30.2442 14.492C30.3982 14.3233 30.5522 14.162 30.7062 14.008C30.8602 13.854 31.0142 13.7073 31.1682 13.568C31.3296 13.4287 31.4799 13.304 31.6192 13.194H23.1382V12.446H31.6192ZM41.6472 13.568V17.825H40.7342V13.568H36.7522V12.831H43.2972C43.4512 12.1197 43.5392 11.4927 43.5612 10.95C43.5905 10.4073 43.6052 9.905 43.6052 9.443V9.311H37.8632V8.585H44.4852V9.443C44.4852 9.905 44.4742 10.4073 44.4522 10.95C44.4302 11.4927 44.3495 12.1197 44.2102 12.831H45.6732V13.568H41.6472ZM52.2833 13.513C51.7113 13.337 51.209 13.073 50.7763 12.721C50.351 12.369 50.0247 11.951 49.7973 11.467C49.5847 12.017 49.2657 12.49 48.8403 12.886C48.4223 13.282 47.9163 13.5753 47.3223 13.766L46.8823 13.073C47.2417 12.9483 47.5717 12.7833 47.8723 12.578C48.173 12.3727 48.4297 12.138 48.6423 11.874C48.855 11.61 49.02 11.324 49.1373 11.016C49.262 10.7007 49.3243 10.378 49.3243 10.048V9.861H47.1353V9.135H49.3243V7.903H50.2263V9.135H52.4043V9.861H50.2263V10.048C50.2263 10.356 50.285 10.653 50.4023 10.939C50.527 11.225 50.6993 11.489 50.9193 11.731C51.1393 11.973 51.3997 12.1893 51.7003 12.38C52.0083 12.5633 52.342 12.71 52.7013 12.82L52.2833 13.513ZM54.0763 7.947H54.9893V13.931H54.0763V11.5H52.1073V10.752H54.0763V7.947ZM51.7223 14.184C52.2357 14.184 52.694 14.2243 53.0973 14.305C53.508 14.3857 53.8563 14.503 54.1423 14.657C54.4283 14.811 54.6447 15.0017 54.7913 15.229C54.9453 15.449 55.0223 15.702 55.0223 15.988C55.0223 16.274 54.9453 16.5307 54.7913 16.758C54.6447 16.9853 54.4283 17.176 54.1423 17.33C53.8563 17.484 53.508 17.6013 53.0973 17.682C52.694 17.7627 52.2357 17.803 51.7223 17.803C51.2163 17.803 50.7617 17.7627 50.3583 17.682C49.955 17.6013 49.6103 17.484 49.3243 17.33C49.0383 17.176 48.8183 16.9853 48.6643 16.758C48.5177 16.5307 48.4443 16.274 48.4443 15.988C48.4443 15.702 48.5177 15.449 48.6643 15.229C48.8183 15.0017 49.0383 14.811 49.3243 14.657C49.6103 14.503 49.955 14.3857 50.3583 14.305C50.7617 14.2243 51.2163 14.184 51.7223 14.184ZM51.7223 17.099C52.4777 17.099 53.0643 17.0037 53.4823 16.813C53.9077 16.615 54.1203 16.34 54.1203 15.988C54.1203 15.636 53.9077 15.3647 53.4823 15.174C53.0643 14.9833 52.4777 14.888 51.7223 14.888C50.967 14.888 50.3803 14.9833 49.9623 15.174C49.5517 15.3647 49.3463 15.636 49.3463 15.988C49.3463 16.34 49.5517 16.615 49.9623 16.813C50.3803 17.0037 50.967 17.099 51.7223 17.099Z" fill="black" fill-opacity="0.6"/>
<rect x="96" y="4" width="89" height="6" fill="#0068E6"/>
<path d="M198.995 11H193.583V10.296L196.366 7.623C196.579 7.39567 196.773 7.183 196.949 6.985C197.132 6.77967 197.286 6.57433 197.411 6.369C197.543 6.16367 197.646 5.95833 197.719 5.753C197.792 5.54033 197.829 5.31667 197.829 5.082C197.814 4.598 197.668 4.24233 197.389 4.015C197.11 3.78033 196.762 3.663 196.344 3.663C196.117 3.663 195.904 3.70333 195.706 3.784C195.508 3.85733 195.336 3.96733 195.189 4.114C195.05 4.25333 194.94 4.41833 194.859 4.609C194.778 4.79967 194.738 5.01233 194.738 5.247L193.748 5.082C193.799 4.708 193.902 4.38167 194.056 4.103C194.21 3.817 194.401 3.57867 194.628 3.388C194.863 3.19 195.13 3.04333 195.431 2.948C195.732 2.84533 196.054 2.794 196.399 2.794C196.744 2.794 197.063 2.84533 197.356 2.948C197.657 3.05067 197.917 3.201 198.137 3.399C198.357 3.58967 198.529 3.82433 198.654 4.103C198.779 4.38167 198.841 4.70067 198.841 5.06C198.841 5.36067 198.797 5.63933 198.709 5.896C198.621 6.15267 198.5 6.402 198.346 6.644C198.192 6.87867 198.012 7.10967 197.807 7.337C197.602 7.557 197.385 7.78067 197.158 8.008L194.903 10.241C195.057 10.197 195.211 10.164 195.365 10.142C195.526 10.12 195.677 10.109 195.816 10.109H198.995V11ZM200.334 5.104C200.385 4.73733 200.488 4.411 200.642 4.125C200.796 3.839 200.986 3.60067 201.214 3.41C201.448 3.212 201.716 3.06167 202.017 2.959C202.317 2.85633 202.64 2.805 202.985 2.805C203.337 2.805 203.656 2.85633 203.942 2.959C204.235 3.06167 204.488 3.20467 204.701 3.388C204.913 3.57133 205.078 3.79133 205.196 4.048C205.313 4.30467 205.372 4.587 205.372 4.895C205.372 5.423 205.243 5.83367 204.987 6.127C204.737 6.413 204.393 6.62933 203.953 6.776C204.481 6.908 204.88 7.139 205.152 7.469C205.423 7.799 205.559 8.217 205.559 8.723C205.559 9.08967 205.485 9.42333 205.339 9.724C205.199 10.0247 205.005 10.2813 204.756 10.494C204.514 10.6993 204.224 10.8607 203.887 10.978C203.557 11.088 203.205 11.143 202.831 11.143C202.398 11.143 202.028 11.088 201.72 10.978C201.419 10.868 201.162 10.7177 200.95 10.527C200.737 10.3363 200.561 10.1127 200.422 9.856C200.29 9.592 200.176 9.31333 200.081 9.02L200.983 8.646C201.005 8.76333 201.06 8.92833 201.148 9.141C201.316 9.493 201.533 9.77167 201.797 9.977C202.061 10.175 202.402 10.274 202.82 10.274C203.106 10.274 203.355 10.23 203.568 10.142C203.788 10.0467 203.967 9.92567 204.107 9.779C204.253 9.63233 204.36 9.46733 204.426 9.284C204.499 9.10067 204.536 8.921 204.536 8.745C204.536 8.525 204.506 8.32333 204.448 8.14C204.396 7.95667 204.294 7.799 204.14 7.667C203.986 7.535 203.773 7.43233 203.502 7.359C203.23 7.27833 202.878 7.238 202.446 7.238V6.512C202.798 6.50467 203.095 6.46433 203.337 6.391C203.586 6.31767 203.788 6.21867 203.942 6.094C204.096 5.962 204.206 5.808 204.272 5.632C204.338 5.456 204.371 5.26533 204.371 5.06C204.371 4.598 204.235 4.25333 203.964 4.026C203.7 3.79867 203.355 3.685 202.93 3.685C202.702 3.685 202.49 3.72533 202.292 3.806C202.094 3.88667 201.925 4.00033 201.786 4.147C201.646 4.28633 201.536 4.45133 201.456 4.642C201.375 4.83267 201.335 5.04167 201.335 5.269L200.334 5.104ZM207.568 10.12V11.154H206.567V10.12H207.568ZM210.742 5.94C211.101 5.84467 211.486 5.797 211.897 5.797C212.322 5.797 212.696 5.85933 213.019 5.984C213.349 6.10867 213.624 6.281 213.844 6.501C214.064 6.721 214.229 6.98133 214.339 7.282C214.456 7.58267 214.515 7.909 214.515 8.261C214.515 8.68633 214.438 9.075 214.284 9.427C214.137 9.779 213.932 10.0797 213.668 10.329C213.404 10.571 213.092 10.7617 212.733 10.901C212.381 11.033 211.999 11.099 211.589 11.099C211.105 11.099 210.665 11.0147 210.269 10.846C209.88 10.67 209.561 10.4647 209.312 10.23L209.851 9.493C210.093 9.69833 210.368 9.867 210.676 9.999C210.984 10.131 211.303 10.197 211.633 10.197C211.911 10.197 212.168 10.1567 212.403 10.076C212.637 9.988 212.839 9.86333 213.008 9.702C213.176 9.54067 213.308 9.34267 213.404 9.108C213.499 8.87333 213.547 8.60933 213.547 8.316C213.547 7.788 213.385 7.37733 213.063 7.084C212.74 6.79067 212.289 6.644 211.71 6.644C211.497 6.644 211.281 6.66967 211.061 6.721C210.848 6.765 210.624 6.82733 210.39 6.908L209.741 6.721L210.401 2.904H214.262V3.828H211.105L210.742 5.94Z" fill="black" fill-opacity="0.6"/>
<rect x="96" y="16" width="35" height="6" fill="#16A3E9"/>
<path d="M144.786 23H140.43V22.186H142.223V16.224C142.223 16.18 142.227 16.1397 142.234 16.103L140.771 17.412L140.232 16.763L142.399 14.893H143.202V22.186H144.786V23ZM150.008 18.798C150.521 18.9373 150.913 19.1793 151.185 19.524C151.463 19.8687 151.603 20.305 151.603 20.833C151.603 21.1923 151.533 21.5187 151.394 21.812C151.262 22.098 151.071 22.3437 150.822 22.549C150.58 22.7543 150.29 22.912 149.953 23.022C149.615 23.132 149.241 23.187 148.831 23.187C148.42 23.187 148.042 23.132 147.698 23.022C147.353 22.912 147.056 22.7543 146.807 22.549C146.565 22.3437 146.374 22.098 146.235 21.812C146.103 21.5187 146.037 21.1923 146.037 20.833C146.037 20.305 146.176 19.8687 146.455 19.524C146.733 19.1793 147.126 18.9373 147.632 18.798C147.214 18.6367 146.891 18.3983 146.664 18.083C146.444 17.7603 146.334 17.368 146.334 16.906C146.334 16.6053 146.392 16.3267 146.51 16.07C146.627 15.806 146.792 15.575 147.005 15.377C147.225 15.179 147.489 15.025 147.797 14.915C148.105 14.7977 148.449 14.739 148.831 14.739C149.197 14.739 149.535 14.7977 149.843 14.915C150.151 15.025 150.415 15.179 150.635 15.377C150.855 15.575 151.023 15.806 151.141 16.07C151.265 16.3267 151.328 16.6053 151.328 16.906C151.328 17.8447 150.888 18.4753 150.008 18.798ZM148.831 15.542C148.581 15.542 148.361 15.5787 148.171 15.652C147.98 15.7253 147.822 15.8243 147.698 15.949C147.58 16.0737 147.489 16.224 147.423 16.4C147.364 16.5687 147.335 16.7483 147.335 16.939C147.335 17.1223 147.36 17.302 147.412 17.478C147.463 17.654 147.547 17.8117 147.665 17.951C147.782 18.0903 147.936 18.204 148.127 18.292C148.317 18.3727 148.552 18.413 148.831 18.413C149.102 18.413 149.329 18.3727 149.513 18.292C149.703 18.204 149.857 18.0903 149.975 17.951C150.092 17.8117 150.176 17.654 150.228 17.478C150.279 17.302 150.305 17.1223 150.305 16.939C150.305 16.7483 150.272 16.5687 150.206 16.4C150.147 16.224 150.055 16.0737 149.931 15.949C149.813 15.8243 149.663 15.7253 149.48 15.652C149.296 15.5787 149.08 15.542 148.831 15.542ZM148.831 22.362C149.381 22.362 149.802 22.2227 150.096 21.944C150.389 21.658 150.536 21.284 150.536 20.822C150.536 20.536 150.488 20.294 150.393 20.096C150.305 19.8907 150.18 19.7257 150.019 19.601C149.865 19.469 149.685 19.3737 149.48 19.315C149.274 19.249 149.058 19.216 148.831 19.216C148.603 19.216 148.383 19.249 148.171 19.315C147.965 19.3737 147.782 19.469 147.621 19.601C147.459 19.7257 147.331 19.8907 147.236 20.096C147.148 20.294 147.104 20.536 147.104 20.822C147.104 21.284 147.254 21.658 147.555 21.944C147.855 22.2227 148.281 22.362 148.831 22.362ZM153.568 22.12V23.154H152.567V22.12H153.568ZM160.427 23H156.071V22.186H157.864V16.224C157.864 16.18 157.867 16.1397 157.875 16.103L156.412 17.412L155.873 16.763L158.04 14.893H158.843V22.186H160.427V23Z" fill="black" fill-opacity="0.6"/>
<path d="M8.657 49.336H7.755V39.447H8.657V49.336ZM4.081 42.076C4.081 42.5233 4.15067 42.9707 4.29 43.418C4.42933 43.858 4.61633 44.2687 4.851 44.65C5.093 45.0313 5.37533 45.3723 5.698 45.673C6.02067 45.9663 6.36167 46.1937 6.721 46.355L6.182 47.081C5.61 46.8023 5.10033 46.3917 4.653 45.849C4.213 45.299 3.87567 44.6683 3.641 43.957C3.41367 44.7123 3.07633 45.376 2.629 45.948C2.18167 46.52 1.66833 46.96 1.089 47.268L0.539 46.531C0.898333 46.355 1.23933 46.113 1.562 45.805C1.88467 45.497 2.167 45.145 2.409 44.749C2.651 44.353 2.84167 43.9277 2.981 43.473C3.12033 43.011 3.19 42.5453 3.19 42.076V40.305H4.081V42.076ZM16.1251 45.013C15.5531 44.837 15.0508 44.573 14.6181 44.221C14.1928 43.869 13.8665 43.451 13.6391 42.967C13.4265 43.517 13.1075 43.99 12.6821 44.386C12.2641 44.782 11.7581 45.0753 11.1641 45.266L10.7241 44.573C11.0835 44.4483 11.4135 44.2833 11.7141 44.078C12.0148 43.8727 12.2715 43.638 12.4841 43.374C12.6968 43.11 12.8618 42.824 12.9791 42.516C13.1038 42.2007 13.1661 41.878 13.1661 41.548V41.361H10.9771V40.635H13.1661V39.403H14.0681V40.635H16.2461V41.361H14.0681V41.548C14.0681 41.856 14.1268 42.153 14.2441 42.439C14.3688 42.725 14.5411 42.989 14.7611 43.231C14.9811 43.473 15.2415 43.6893 15.5421 43.88C15.8501 44.0633 16.1838 44.21 16.5431 44.32L16.1251 45.013ZM17.9181 39.447H18.8311V45.431H17.9181V43H15.9491V42.252H17.9181V39.447ZM15.5641 45.684C16.0775 45.684 16.5358 45.7243 16.9391 45.805C17.3498 45.8857 17.6981 46.003 17.9841 46.157C18.2701 46.311 18.4865 46.5017 18.6331 46.729C18.7871 46.949 18.8641 47.202 18.8641 47.488C18.8641 47.774 18.7871 48.0307 18.6331 48.258C18.4865 48.4853 18.2701 48.676 17.9841 48.83C17.6981 48.984 17.3498 49.1013 16.9391 49.182C16.5358 49.2627 16.0775 49.303 15.5641 49.303C15.0581 49.303 14.6035 49.2627 14.2001 49.182C13.7968 49.1013 13.4521 48.984 13.1661 48.83C12.8801 48.676 12.6601 48.4853 12.5061 48.258C12.3595 48.0307 12.2861 47.774 12.2861 47.488C12.2861 47.202 12.3595 46.949 12.5061 46.729C12.6601 46.5017 12.8801 46.311 13.1661 46.157C13.4521 46.003 13.7968 45.8857 14.2001 45.805C14.6035 45.7243 15.0581 45.684 15.5641 45.684ZM15.5641 48.599C16.3195 48.599 16.9061 48.5037 17.3241 48.313C17.7495 48.115 17.9621 47.84 17.9621 47.488C17.9621 47.136 17.7495 46.8647 17.3241 46.674C16.9061 46.4833 16.3195 46.388 15.5641 46.388C14.8088 46.388 14.2221 46.4833 13.8041 46.674C13.3935 46.8647 13.1881 47.136 13.1881 47.488C13.1881 47.84 13.3935 48.115 13.8041 48.313C14.2221 48.5037 14.8088 48.599 15.5641 48.599ZM31.6192 43.946C31.4799 43.836 31.3296 43.7113 31.1682 43.572C31.0142 43.4327 30.8602 43.286 30.7062 43.132C30.5522 42.978 30.3982 42.8167 30.2442 42.648C30.0976 42.4793 29.9619 42.3107 29.8372 42.142L30.4972 41.757C30.6806 41.999 30.8822 42.241 31.1022 42.483C31.3296 42.7177 31.5642 42.945 31.8062 43.165C32.0556 43.385 32.3086 43.594 32.5652 43.792C32.8219 43.99 33.0712 44.166 33.3132 44.32C33.0712 44.474 32.8219 44.65 32.5652 44.848C32.3086 45.046 32.0556 45.255 31.8062 45.475C31.5642 45.695 31.3296 45.926 31.1022 46.168C30.8822 46.4027 30.6806 46.641 30.4972 46.883L29.8372 46.498C29.9619 46.3293 30.0976 46.1607 30.2442 45.992C30.3982 45.8233 30.5522 45.662 30.7062 45.508C30.8602 45.354 31.0142 45.2073 31.1682 45.068C31.3296 44.9287 31.4799 44.804 31.6192 44.694H23.1382V43.946H31.6192ZM44.8702 45.013C44.4962 44.9323 44.1222 44.8113 43.7482 44.65C43.3742 44.4813 43.0222 44.2797 42.6922 44.045C42.3695 43.8103 42.0762 43.5427 41.8122 43.242C41.5482 42.9413 41.3355 42.615 41.1742 42.263C41.0129 42.615 40.8002 42.9413 40.5362 43.242C40.2722 43.5427 39.9752 43.8103 39.6452 44.045C39.3225 44.2797 38.9742 44.4813 38.6002 44.65C38.2335 44.8113 37.8595 44.9323 37.4782 45.013L37.1042 44.265C37.5369 44.1917 37.9659 44.0523 38.3912 43.847C38.8239 43.6343 39.2089 43.3777 39.5462 43.077C39.8909 42.769 40.1695 42.428 40.3822 42.054C40.5949 41.6727 40.7012 41.2767 40.7012 40.866V40.107H41.6472V40.866C41.6472 41.2767 41.7535 41.6727 41.9662 42.054C42.1789 42.428 42.4575 42.769 42.8022 43.077C43.1469 43.3777 43.5319 43.6343 43.9572 43.847C44.3899 44.0523 44.8225 44.1917 45.2552 44.265L44.8702 45.013ZM45.6952 48.027H36.7412V47.29H40.7232V44.892H41.6252V47.29H45.6952V48.027ZM54.4503 44.199V49.314H53.5483V39.458H54.4503V43.451H56.0783V44.199H54.4503ZM50.1713 42.076C50.1713 42.5087 50.2373 42.9413 50.3693 43.374C50.5013 43.7993 50.681 44.199 50.9083 44.573C51.1357 44.947 51.3997 45.2843 51.7003 45.585C52.0083 45.8857 52.3347 46.124 52.6793 46.3L52.1183 47.015C51.8543 46.8757 51.6013 46.7033 51.3593 46.498C51.1173 46.2853 50.8937 46.047 50.6883 45.783C50.4903 45.519 50.307 45.233 50.1383 44.925C49.977 44.6097 49.8413 44.2833 49.7313 43.946C49.5187 44.6793 49.196 45.332 48.7633 45.904C48.3307 46.4687 47.8357 46.905 47.2783 47.213L46.7393 46.487C47.0913 46.3037 47.4213 46.0543 47.7293 45.739C48.0447 45.4237 48.316 45.0717 48.5433 44.683C48.7707 44.287 48.9503 43.8653 49.0823 43.418C49.2143 42.9707 49.2803 42.5233 49.2803 42.076V40.305H50.1713V42.076ZM65.1085 45.266H64.1955V43.847H61.6985C61.4638 44.1257 61.1742 44.3457 60.8295 44.507C60.4922 44.6683 60.1035 44.749 59.6635 44.749C59.3042 44.749 58.9668 44.6903 58.6515 44.573C58.3435 44.4557 58.0758 44.2907 57.8485 44.078C57.6285 43.8653 57.4525 43.616 57.3205 43.33C57.1958 43.0367 57.1335 42.714 57.1335 42.362C57.1335 42.0173 57.1958 41.702 57.3205 41.416C57.4525 41.1227 57.6285 40.8733 57.8485 40.668C58.0758 40.4553 58.3435 40.2903 58.6515 40.173C58.9668 40.0557 59.3042 39.997 59.6635 39.997C60.1035 39.997 60.4958 40.0777 60.8405 40.239C61.1852 40.4003 61.4748 40.6203 61.7095 40.899H64.1955V39.458L65.1085 39.447V45.266ZM59.6635 43.979C59.9055 43.979 60.1292 43.9387 60.3345 43.858C60.5398 43.7773 60.7158 43.6673 60.8625 43.528C61.0165 43.3813 61.1338 43.209 61.2145 43.011C61.3025 42.813 61.3465 42.5967 61.3465 42.362C61.3465 42.1273 61.3025 41.9147 61.2145 41.724C61.1338 41.526 61.0165 41.3573 60.8625 41.218C60.7158 41.0787 60.5398 40.9687 60.3345 40.888C60.1292 40.8073 59.9055 40.767 59.6635 40.767C59.4215 40.767 59.1978 40.8073 58.9925 40.888C58.7945 40.9687 58.6185 41.0787 58.4645 41.218C58.3178 41.3573 58.2005 41.526 58.1125 41.724C58.0318 41.9147 57.9915 42.1273 57.9915 42.362C57.9915 42.5967 58.0318 42.813 58.1125 43.011C58.2005 43.209 58.3178 43.3813 58.4645 43.528C58.6185 43.6673 58.7945 43.7773 58.9925 43.858C59.1978 43.9387 59.4215 43.979 59.6635 43.979ZM64.1955 41.625H62.0945C62.1678 41.823 62.2045 42.0687 62.2045 42.362C62.2045 42.6627 62.1678 42.912 62.0945 43.11H64.1955V41.625ZM65.1085 45.805V49.325H64.1955V46.542H58.5085V45.805H65.1085Z" fill="black" fill-opacity="0.6"/>
<rect x="96" y="35.5" width="116" height="6" fill="#0068E6"/>
<path d="M225.995 42.5H220.583V41.796L223.366 39.123C223.579 38.8957 223.773 38.683 223.949 38.485C224.132 38.2797 224.286 38.0743 224.411 37.869C224.543 37.6637 224.646 37.4583 224.719 37.253C224.792 37.0403 224.829 36.8167 224.829 36.582C224.814 36.098 224.668 35.7423 224.389 35.515C224.11 35.2803 223.762 35.163 223.344 35.163C223.117 35.163 222.904 35.2033 222.706 35.284C222.508 35.3573 222.336 35.4673 222.189 35.614C222.05 35.7533 221.94 35.9183 221.859 36.109C221.778 36.2997 221.738 36.5123 221.738 36.747L220.748 36.582C220.799 36.208 220.902 35.8817 221.056 35.603C221.21 35.317 221.401 35.0787 221.628 34.888C221.863 34.69 222.13 34.5433 222.431 34.448C222.732 34.3453 223.054 34.294 223.399 34.294C223.744 34.294 224.063 34.3453 224.356 34.448C224.657 34.5507 224.917 34.701 225.137 34.899C225.357 35.0897 225.529 35.3243 225.654 35.603C225.779 35.8817 225.841 36.2007 225.841 36.56C225.841 36.8607 225.797 37.1393 225.709 37.396C225.621 37.6527 225.5 37.902 225.346 38.144C225.192 38.3787 225.012 38.6097 224.807 38.837C224.602 39.057 224.385 39.2807 224.158 39.508L221.903 41.741C222.057 41.697 222.211 41.664 222.365 41.642C222.526 41.62 222.677 41.609 222.816 41.609H225.995V42.5ZM229.204 37.44C229.108 37.572 229.028 37.682 228.962 37.77C228.903 37.858 228.855 37.924 228.819 37.968C229.017 37.836 229.229 37.7333 229.457 37.66C229.684 37.5867 229.933 37.55 230.205 37.55C230.535 37.55 230.846 37.605 231.14 37.715C231.433 37.8177 231.69 37.9753 231.91 38.188C232.13 38.3933 232.302 38.6463 232.427 38.947C232.559 39.2477 232.625 39.5923 232.625 39.981C232.625 40.355 232.555 40.7033 232.416 41.026C232.284 41.3487 232.093 41.631 231.844 41.873C231.602 42.115 231.308 42.3057 230.964 42.445C230.619 42.577 230.241 42.643 229.831 42.643C229.42 42.643 229.046 42.577 228.709 42.445C228.379 42.313 228.096 42.126 227.862 41.884C227.627 41.642 227.444 41.3523 227.312 41.015C227.187 40.6703 227.125 40.289 227.125 39.871C227.125 39.5117 227.202 39.1303 227.356 38.727C227.517 38.3163 227.774 37.88 228.126 37.418L230.37 34.393H231.635L229.204 37.44ZM229.809 41.796C230.073 41.796 230.315 41.752 230.535 41.664C230.762 41.576 230.953 41.455 231.107 41.301C231.268 41.147 231.393 40.9637 231.481 40.751C231.569 40.5383 231.613 40.3073 231.613 40.058C231.613 39.794 231.569 39.5557 231.481 39.343C231.393 39.123 231.272 38.9397 231.118 38.793C230.964 38.6463 230.78 38.5327 230.568 38.452C230.355 38.3713 230.124 38.331 229.875 38.331C229.603 38.331 229.358 38.3787 229.138 38.474C228.925 38.562 228.742 38.6867 228.588 38.848C228.434 39.002 228.313 39.1817 228.225 39.387C228.144 39.5923 228.104 39.8087 228.104 40.036C228.104 40.564 228.25 40.9893 228.544 41.312C228.837 41.6347 229.259 41.796 229.809 41.796ZM234.568 41.62V42.654H233.567V41.62H234.568ZM241.636 42.5H236.224V41.796L239.007 39.123C239.219 38.8957 239.414 38.683 239.59 38.485C239.773 38.2797 239.927 38.0743 240.052 37.869C240.184 37.6637 240.286 37.4583 240.36 37.253C240.433 37.0403 240.47 36.8167 240.47 36.582C240.455 36.098 240.308 35.7423 240.03 35.515C239.751 35.2803 239.403 35.163 238.985 35.163C238.757 35.163 238.545 35.2033 238.347 35.284C238.149 35.3573 237.976 35.4673 237.83 35.614C237.69 35.7533 237.58 35.9183 237.5 36.109C237.419 36.2997 237.379 36.5123 237.379 36.747L236.389 36.582C236.44 36.208 236.543 35.8817 236.697 35.603C236.851 35.317 237.041 35.0787 237.269 34.888C237.503 34.69 237.771 34.5433 238.072 34.448C238.372 34.3453 238.695 34.294 239.04 34.294C239.384 34.294 239.703 34.3453 239.997 34.448C240.297 34.5507 240.558 34.701 240.778 34.899C240.998 35.0897 241.17 35.3243 241.295 35.603C241.419 35.8817 241.482 36.2007 241.482 36.56C241.482 36.8607 241.438 37.1393 241.35 37.396C241.262 37.6527 241.141 37.902 240.987 38.144C240.833 38.3787 240.653 38.6097 240.448 38.837C240.242 39.057 240.026 39.2807 239.799 39.508L237.544 41.741C237.698 41.697 237.852 41.664 238.006 41.642C238.167 41.62 238.317 41.609 238.457 41.609H241.636V42.5Z" fill="black" fill-opacity="0.6"/>
<rect x="96" y="47.5" width="82" height="6" fill="#16A3E9"/>
<path d="M191.995 54.5H186.583V53.796L189.366 51.123C189.579 50.8957 189.773 50.683 189.949 50.485C190.132 50.2797 190.286 50.0743 190.411 49.869C190.543 49.6637 190.646 49.4583 190.719 49.253C190.792 49.0403 190.829 48.8167 190.829 48.582C190.814 48.098 190.668 47.7423 190.389 47.515C190.11 47.2803 189.762 47.163 189.344 47.163C189.117 47.163 188.904 47.2033 188.706 47.284C188.508 47.3573 188.336 47.4673 188.189 47.614C188.05 47.7533 187.94 47.9183 187.859 48.109C187.778 48.2997 187.738 48.5123 187.738 48.747L186.748 48.582C186.799 48.208 186.902 47.8817 187.056 47.603C187.21 47.317 187.401 47.0787 187.628 46.888C187.863 46.69 188.13 46.5433 188.431 46.448C188.732 46.3453 189.054 46.294 189.399 46.294C189.744 46.294 190.063 46.3453 190.356 46.448C190.657 46.5507 190.917 46.701 191.137 46.899C191.357 47.0897 191.529 47.3243 191.654 47.603C191.779 47.8817 191.841 48.2007 191.841 48.56C191.841 48.8607 191.797 49.1393 191.709 49.396C191.621 49.6527 191.5 49.902 191.346 50.144C191.192 50.3787 191.012 50.6097 190.807 50.837C190.602 51.057 190.385 51.2807 190.158 51.508L187.903 53.741C188.057 53.697 188.211 53.664 188.365 53.642C188.526 53.62 188.677 53.609 188.816 53.609H191.995V54.5ZM198.548 54.5H193.136V53.796L195.919 51.123C196.131 50.8957 196.326 50.683 196.502 50.485C196.685 50.2797 196.839 50.0743 196.964 49.869C197.096 49.6637 197.198 49.4583 197.272 49.253C197.345 49.0403 197.382 48.8167 197.382 48.582C197.367 48.098 197.22 47.7423 196.942 47.515C196.663 47.2803 196.315 47.163 195.897 47.163C195.669 47.163 195.457 47.2033 195.259 47.284C195.061 47.3573 194.888 47.4673 194.742 47.614C194.602 47.7533 194.492 47.9183 194.412 48.109C194.331 48.2997 194.291 48.5123 194.291 48.747L193.301 48.582C193.352 48.208 193.455 47.8817 193.609 47.603C193.763 47.317 193.953 47.0787 194.181 46.888C194.415 46.69 194.683 46.5433 194.984 46.448C195.284 46.3453 195.607 46.294 195.952 46.294C196.296 46.294 196.615 46.3453 196.909 46.448C197.209 46.5507 197.47 46.701 197.69 46.899C197.91 47.0897 198.082 47.3243 198.207 47.603C198.331 47.8817 198.394 48.2007 198.394 48.56C198.394 48.8607 198.35 49.1393 198.262 49.396C198.174 49.6527 198.053 49.902 197.899 50.144C197.745 50.3787 197.565 50.6097 197.36 50.837C197.154 51.057 196.938 51.2807 196.711 51.508L194.456 53.741C194.61 53.697 194.764 53.664 194.918 53.642C195.079 53.62 195.229 53.609 195.369 53.609H198.548V54.5ZM200.568 53.62V54.654H199.567V53.62H200.568ZM206.096 50.298C206.609 50.4373 207.001 50.6793 207.273 51.024C207.551 51.3687 207.691 51.805 207.691 52.333C207.691 52.6923 207.621 53.0187 207.482 53.312C207.35 53.598 207.159 53.8437 206.91 54.049C206.668 54.2543 206.378 54.412 206.041 54.522C205.703 54.632 205.329 54.687 204.919 54.687C204.508 54.687 204.13 54.632 203.786 54.522C203.441 54.412 203.144 54.2543 202.895 54.049C202.653 53.8437 202.462 53.598 202.323 53.312C202.191 53.0187 202.125 52.6923 202.125 52.333C202.125 51.805 202.264 51.3687 202.543 51.024C202.821 50.6793 203.214 50.4373 203.72 50.298C203.302 50.1367 202.979 49.8983 202.752 49.583C202.532 49.2603 202.422 48.868 202.422 48.406C202.422 48.1053 202.48 47.8267 202.598 47.57C202.715 47.306 202.88 47.075 203.093 46.877C203.313 46.679 203.577 46.525 203.885 46.415C204.193 46.2977 204.537 46.239 204.919 46.239C205.285 46.239 205.623 46.2977 205.931 46.415C206.239 46.525 206.503 46.679 206.723 46.877C206.943 47.075 207.111 47.306 207.229 47.57C207.353 47.8267 207.416 48.1053 207.416 48.406C207.416 49.3447 206.976 49.9753 206.096 50.298ZM204.919 47.042C204.669 47.042 204.449 47.0787 204.259 47.152C204.068 47.2253 203.91 47.3243 203.786 47.449C203.668 47.5737 203.577 47.724 203.511 47.9C203.452 48.0687 203.423 48.2483 203.423 48.439C203.423 48.6223 203.448 48.802 203.5 48.978C203.551 49.154 203.635 49.3117 203.753 49.451C203.87 49.5903 204.024 49.704 204.215 49.792C204.405 49.8727 204.64 49.913 204.919 49.913C205.19 49.913 205.417 49.8727 205.601 49.792C205.791 49.704 205.945 49.5903 206.063 49.451C206.18 49.3117 206.264 49.154 206.316 48.978C206.367 48.802 206.393 48.6223 206.393 48.439C206.393 48.2483 206.36 48.0687 206.294 47.9C206.235 47.724 206.143 47.5737 206.019 47.449C205.901 47.3243 205.751 47.2253 205.568 47.152C205.384 47.0787 205.168 47.042 204.919 47.042ZM204.919 53.862C205.469 53.862 205.89 53.7227 206.184 53.444C206.477 53.158 206.624 52.784 206.624 52.322C206.624 52.036 206.576 51.794 206.481 51.596C206.393 51.3907 206.268 51.2257 206.107 51.101C205.953 50.969 205.773 50.8737 205.568 50.815C205.362 50.749 205.146 50.716 204.919 50.716C204.691 50.716 204.471 50.749 204.259 50.815C204.053 50.8737 203.87 50.969 203.709 51.101C203.547 51.2257 203.419 51.3907 203.324 51.596C203.236 51.794 203.192 52.036 203.192 52.322C203.192 52.784 203.342 53.158 203.643 53.444C203.943 53.7227 204.369 53.862 204.919 53.862Z" fill="black" fill-opacity="0.6"/>
<path d="M5.489 76.568V80.825H4.576V76.568H0.594V75.831H7.139C7.293 75.1197 7.381 74.4927 7.403 73.95C7.43233 73.4073 7.447 72.905 7.447 72.443V72.311H1.705V71.585H8.327V72.443C8.327 72.905 8.316 73.4073 8.294 73.95C8.272 74.4927 8.19133 75.1197 8.052 75.831H9.515V76.568H5.489ZM16.1251 76.513C15.5531 76.337 15.0508 76.073 14.6181 75.721C14.1928 75.369 13.8665 74.951 13.6391 74.467C13.4265 75.017 13.1075 75.49 12.6821 75.886C12.2641 76.282 11.7581 76.5753 11.1641 76.766L10.7241 76.073C11.0835 75.9483 11.4135 75.7833 11.7141 75.578C12.0148 75.3727 12.2715 75.138 12.4841 74.874C12.6968 74.61 12.8618 74.324 12.9791 74.016C13.1038 73.7007 13.1661 73.378 13.1661 73.048V72.861H10.9771V72.135H13.1661V70.903H14.0681V72.135H16.2461V72.861H14.0681V73.048C14.0681 73.356 14.1268 73.653 14.2441 73.939C14.3688 74.225 14.5411 74.489 14.7611 74.731C14.9811 74.973 15.2415 75.1893 15.5421 75.38C15.8501 75.5633 16.1838 75.71 16.5431 75.82L16.1251 76.513ZM17.9181 70.947H18.8311V76.931H17.9181V74.5H15.9491V73.752H17.9181V70.947ZM15.5641 77.184C16.0775 77.184 16.5358 77.2243 16.9391 77.305C17.3498 77.3857 17.6981 77.503 17.9841 77.657C18.2701 77.811 18.4865 78.0017 18.6331 78.229C18.7871 78.449 18.8641 78.702 18.8641 78.988C18.8641 79.274 18.7871 79.5307 18.6331 79.758C18.4865 79.9853 18.2701 80.176 17.9841 80.33C17.6981 80.484 17.3498 80.6013 16.9391 80.682C16.5358 80.7627 16.0775 80.803 15.5641 80.803C15.0581 80.803 14.6035 80.7627 14.2001 80.682C13.7968 80.6013 13.4521 80.484 13.1661 80.33C12.8801 80.176 12.6601 79.9853 12.5061 79.758C12.3595 79.5307 12.2861 79.274 12.2861 78.988C12.2861 78.702 12.3595 78.449 12.5061 78.229C12.6601 78.0017 12.8801 77.811 13.1661 77.657C13.4521 77.503 13.7968 77.3857 14.2001 77.305C14.6035 77.2243 15.0581 77.184 15.5641 77.184ZM15.5641 80.099C16.3195 80.099 16.9061 80.0037 17.3241 79.813C17.7495 79.615 17.9621 79.34 17.9621 78.988C17.9621 78.636 17.7495 78.3647 17.3241 78.174C16.9061 77.9833 16.3195 77.888 15.5641 77.888C14.8088 77.888 14.2221 77.9833 13.8041 78.174C13.3935 78.3647 13.1881 78.636 13.1881 78.988C13.1881 79.34 13.3935 79.615 13.8041 79.813C14.2221 80.0037 14.8088 80.099 15.5641 80.099ZM31.6192 75.446C31.4799 75.336 31.3296 75.2113 31.1682 75.072C31.0142 74.9327 30.8602 74.786 30.7062 74.632C30.5522 74.478 30.3982 74.3167 30.2442 74.148C30.0976 73.9793 29.9619 73.8107 29.8372 73.642L30.4972 73.257C30.6806 73.499 30.8822 73.741 31.1022 73.983C31.3296 74.2177 31.5642 74.445 31.8062 74.665C32.0556 74.885 32.3086 75.094 32.5652 75.292C32.8219 75.49 33.0712 75.666 33.3132 75.82C33.0712 75.974 32.8219 76.15 32.5652 76.348C32.3086 76.546 32.0556 76.755 31.8062 76.975C31.5642 77.195 31.3296 77.426 31.1022 77.668C30.8822 77.9027 30.6806 78.141 30.4972 78.383L29.8372 77.998C29.9619 77.8293 30.0976 77.6607 30.2442 77.492C30.3982 77.3233 30.5522 77.162 30.7062 77.008C30.8602 76.854 31.0142 76.7073 31.1682 76.568C31.3296 76.4287 31.4799 76.304 31.6192 76.194H23.1382V75.446H31.6192ZM44.8152 80.836H43.9132V70.947H44.8152V80.836ZM40.2392 73.576C40.2392 74.0233 40.3089 74.4707 40.4482 74.918C40.5875 75.358 40.7745 75.7687 41.0092 76.15C41.2512 76.5313 41.5335 76.8723 41.8562 77.173C42.1789 77.4663 42.5199 77.6937 42.8792 77.855L42.3402 78.581C41.7682 78.3023 41.2585 77.8917 40.8112 77.349C40.3712 76.799 40.0339 76.1683 39.7992 75.457C39.5719 76.2123 39.2345 76.876 38.7872 77.448C38.3399 78.02 37.8265 78.46 37.2472 78.768L36.6972 78.031C37.0565 77.855 37.3975 77.613 37.7202 77.305C38.0429 76.997 38.3252 76.645 38.5672 76.249C38.8092 75.853 38.9999 75.4277 39.1392 74.973C39.2785 74.511 39.3482 74.0453 39.3482 73.576V71.805H40.2392V73.576ZM52.2833 76.513C51.7113 76.337 51.209 76.073 50.7763 75.721C50.351 75.369 50.0247 74.951 49.7973 74.467C49.5847 75.017 49.2657 75.49 48.8403 75.886C48.4223 76.282 47.9163 76.5753 47.3223 76.766L46.8823 76.073C47.2417 75.9483 47.5717 75.7833 47.8723 75.578C48.173 75.3727 48.4297 75.138 48.6423 74.874C48.855 74.61 49.02 74.324 49.1373 74.016C49.262 73.7007 49.3243 73.378 49.3243 73.048V72.861H47.1353V72.135H49.3243V70.903H50.2263V72.135H52.4043V72.861H50.2263V73.048C50.2263 73.356 50.285 73.653 50.4023 73.939C50.527 74.225 50.6993 74.489 50.9193 74.731C51.1393 74.973 51.3997 75.1893 51.7003 75.38C52.0083 75.5633 52.342 75.71 52.7013 75.82L52.2833 76.513ZM54.0763 70.947H54.9893V76.931H54.0763V74.5H52.1073V73.752H54.0763V70.947ZM51.7223 77.184C52.2357 77.184 52.694 77.2243 53.0973 77.305C53.508 77.3857 53.8563 77.503 54.1423 77.657C54.4283 77.811 54.6447 78.0017 54.7913 78.229C54.9453 78.449 55.0223 78.702 55.0223 78.988C55.0223 79.274 54.9453 79.5307 54.7913 79.758C54.6447 79.9853 54.4283 80.176 54.1423 80.33C53.8563 80.484 53.508 80.6013 53.0973 80.682C52.694 80.7627 52.2357 80.803 51.7223 80.803C51.2163 80.803 50.7617 80.7627 50.3583 80.682C49.955 80.6013 49.6103 80.484 49.3243 80.33C49.0383 80.176 48.8183 79.9853 48.6643 79.758C48.5177 79.5307 48.4443 79.274 48.4443 78.988C48.4443 78.702 48.5177 78.449 48.6643 78.229C48.8183 78.0017 49.0383 77.811 49.3243 77.657C49.6103 77.503 49.955 77.3857 50.3583 77.305C50.7617 77.2243 51.2163 77.184 51.7223 77.184ZM51.7223 80.099C52.4777 80.099 53.0643 80.0037 53.4823 79.813C53.9077 79.615 54.1203 79.34 54.1203 78.988C54.1203 78.636 53.9077 78.3647 53.4823 78.174C53.0643 77.9833 52.4777 77.888 51.7223 77.888C50.967 77.888 50.3803 77.9833 49.9623 78.174C49.5517 78.3647 49.3463 78.636 49.3463 78.988C49.3463 79.34 49.5517 79.615 49.9623 79.813C50.3803 80.0037 50.967 80.099 51.7223 80.099Z" fill="black" fill-opacity="0.6"/>
<rect x="96" y="67" width="55" height="6" fill="#0068E6"/>
<path d="M164.995 74H159.583V73.296L162.366 70.623C162.579 70.3957 162.773 70.183 162.949 69.985C163.132 69.7797 163.286 69.5743 163.411 69.369C163.543 69.1637 163.646 68.9583 163.719 68.753C163.792 68.5403 163.829 68.3167 163.829 68.082C163.814 67.598 163.668 67.2423 163.389 67.015C163.11 66.7803 162.762 66.663 162.344 66.663C162.117 66.663 161.904 66.7033 161.706 66.784C161.508 66.8573 161.336 66.9673 161.189 67.114C161.05 67.2533 160.94 67.4183 160.859 67.609C160.778 67.7997 160.738 68.0123 160.738 68.247L159.748 68.082C159.799 67.708 159.902 67.3817 160.056 67.103C160.21 66.817 160.401 66.5787 160.628 66.388C160.863 66.19 161.13 66.0433 161.431 65.948C161.732 65.8453 162.054 65.794 162.399 65.794C162.744 65.794 163.063 65.8453 163.356 65.948C163.657 66.0507 163.917 66.201 164.137 66.399C164.357 66.5897 164.529 66.8243 164.654 67.103C164.779 67.3817 164.841 67.7007 164.841 68.06C164.841 68.3607 164.797 68.6393 164.709 68.896C164.621 69.1527 164.5 69.402 164.346 69.644C164.192 69.8787 164.012 70.1097 163.807 70.337C163.602 70.557 163.385 70.7807 163.158 71.008L160.903 73.241C161.057 73.197 161.211 73.164 161.365 73.142C161.526 73.12 161.677 73.109 161.816 73.109H164.995V74ZM171.812 69.985C171.812 70.6963 171.735 71.316 171.581 71.844C171.427 72.3647 171.218 72.7973 170.954 73.142C170.69 73.4867 170.378 73.7433 170.019 73.912C169.659 74.0733 169.271 74.154 168.853 74.154C168.435 74.154 168.046 74.0733 167.687 73.912C167.327 73.7433 167.012 73.4867 166.741 73.142C166.477 72.7973 166.268 72.3647 166.114 71.844C165.967 71.316 165.894 70.6963 165.894 69.985C165.894 69.2663 165.967 68.6467 166.114 68.126C166.268 67.598 166.477 67.1617 166.741 66.817C167.012 66.4723 167.327 66.2193 167.687 66.058C168.046 65.8893 168.435 65.805 168.853 65.805C169.271 65.805 169.659 65.8893 170.019 66.058C170.378 66.2193 170.69 66.4723 170.954 66.817C171.218 67.1617 171.427 67.598 171.581 68.126C171.735 68.6467 171.812 69.2663 171.812 69.985ZM170.8 69.985C170.8 69.3543 170.745 68.8263 170.635 68.401C170.532 67.9683 170.389 67.6237 170.206 67.367C170.03 67.103 169.824 66.916 169.59 66.806C169.355 66.6887 169.109 66.63 168.853 66.63C168.596 66.63 168.35 66.6887 168.116 66.806C167.881 66.916 167.676 67.103 167.5 67.367C167.324 67.6237 167.181 67.9683 167.071 68.401C166.968 68.8263 166.917 69.3543 166.917 69.985C166.917 70.6083 166.968 71.1363 167.071 71.569C167.181 71.9943 167.324 72.339 167.5 72.603C167.676 72.867 167.881 73.0577 168.116 73.175C168.35 73.285 168.596 73.34 168.853 73.34C169.109 73.34 169.355 73.285 169.59 73.175C169.824 73.0577 170.03 72.867 170.206 72.603C170.389 72.339 170.532 71.9943 170.635 71.569C170.745 71.1363 170.8 70.6083 170.8 69.985ZM173.568 73.12V74.154H172.567V73.12H173.568ZM180.427 74H176.071V73.186H177.864V67.224C177.864 67.18 177.867 67.1397 177.875 67.103L176.412 68.412L175.873 67.763L178.04 65.893H178.843V73.186H180.427V74Z" fill="black" fill-opacity="0.6"/>
<rect x="96" y="79" width="83" height="6" fill="#16A3E9"/>
<path d="M192.995 86H187.583V85.296L190.366 82.623C190.579 82.3957 190.773 82.183 190.949 81.985C191.132 81.7797 191.286 81.5743 191.411 81.369C191.543 81.1637 191.646 80.9583 191.719 80.753C191.792 80.5403 191.829 80.3167 191.829 80.082C191.814 79.598 191.668 79.2423 191.389 79.015C191.11 78.7803 190.762 78.663 190.344 78.663C190.117 78.663 189.904 78.7033 189.706 78.784C189.508 78.8573 189.336 78.9673 189.189 79.114C189.05 79.2533 188.94 79.4183 188.859 79.609C188.778 79.7997 188.738 80.0123 188.738 80.247L187.748 80.082C187.799 79.708 187.902 79.3817 188.056 79.103C188.21 78.817 188.401 78.5787 188.628 78.388C188.863 78.19 189.13 78.0433 189.431 77.948C189.732 77.8453 190.054 77.794 190.399 77.794C190.744 77.794 191.063 77.8453 191.356 77.948C191.657 78.0507 191.917 78.201 192.137 78.399C192.357 78.5897 192.529 78.8243 192.654 79.103C192.779 79.3817 192.841 79.7007 192.841 80.06C192.841 80.3607 192.797 80.6393 192.709 80.896C192.621 81.1527 192.5 81.402 192.346 81.644C192.192 81.8787 192.012 82.1097 191.807 82.337C191.602 82.557 191.385 82.7807 191.158 83.008L188.903 85.241C189.057 85.197 189.211 85.164 189.365 85.142C189.526 85.12 189.677 85.109 189.816 85.109H192.995V86ZM194.334 80.104C194.385 79.7373 194.488 79.411 194.642 79.125C194.796 78.839 194.986 78.6007 195.214 78.41C195.448 78.212 195.716 78.0617 196.017 77.959C196.317 77.8563 196.64 77.805 196.985 77.805C197.337 77.805 197.656 77.8563 197.942 77.959C198.235 78.0617 198.488 78.2047 198.701 78.388C198.913 78.5713 199.078 78.7913 199.196 79.048C199.313 79.3047 199.372 79.587 199.372 79.895C199.372 80.423 199.243 80.8337 198.987 81.127C198.737 81.413 198.393 81.6293 197.953 81.776C198.481 81.908 198.88 82.139 199.152 82.469C199.423 82.799 199.559 83.217 199.559 83.723C199.559 84.0897 199.485 84.4233 199.339 84.724C199.199 85.0247 199.005 85.2813 198.756 85.494C198.514 85.6993 198.224 85.8607 197.887 85.978C197.557 86.088 197.205 86.143 196.831 86.143C196.398 86.143 196.028 86.088 195.72 85.978C195.419 85.868 195.162 85.7177 194.95 85.527C194.737 85.3363 194.561 85.1127 194.422 84.856C194.29 84.592 194.176 84.3133 194.081 84.02L194.983 83.646C195.005 83.7633 195.06 83.9283 195.148 84.141C195.316 84.493 195.533 84.7717 195.797 84.977C196.061 85.175 196.402 85.274 196.82 85.274C197.106 85.274 197.355 85.23 197.568 85.142C197.788 85.0467 197.967 84.9257 198.107 84.779C198.253 84.6323 198.36 84.4673 198.426 84.284C198.499 84.1007 198.536 83.921 198.536 83.745C198.536 83.525 198.506 83.3233 198.448 83.14C198.396 82.9567 198.294 82.799 198.14 82.667C197.986 82.535 197.773 82.4323 197.502 82.359C197.23 82.2783 196.878 82.238 196.446 82.238V81.512C196.798 81.5047 197.095 81.4643 197.337 81.391C197.586 81.3177 197.788 81.2187 197.942 81.094C198.096 80.962 198.206 80.808 198.272 80.632C198.338 80.456 198.371 80.2653 198.371 80.06C198.371 79.598 198.235 79.2533 197.964 79.026C197.7 78.7987 197.355 78.685 196.93 78.685C196.702 78.685 196.49 78.7253 196.292 78.806C196.094 78.8867 195.925 79.0003 195.786 79.147C195.646 79.2863 195.536 79.4513 195.456 79.642C195.375 79.8327 195.335 80.0417 195.335 80.269L194.334 80.104ZM201.568 85.12V86.154H200.567V85.12H201.568ZM206.656 82.799C206.773 82.645 206.865 82.5167 206.931 82.414C207.004 82.3113 207.059 82.2343 207.096 82.183C206.663 82.5277 206.146 82.7 205.545 82.7C205.229 82.7 204.929 82.6487 204.643 82.546C204.364 82.4433 204.118 82.293 203.906 82.095C203.7 81.8897 203.535 81.6403 203.411 81.347C203.286 81.0537 203.224 80.7163 203.224 80.335C203.224 79.9757 203.29 79.6383 203.422 79.323C203.561 79.0077 203.752 78.7327 203.994 78.498C204.236 78.2633 204.522 78.08 204.852 77.948C205.189 77.8087 205.559 77.739 205.963 77.739C206.359 77.739 206.718 77.805 207.041 77.937C207.363 78.069 207.638 78.2523 207.866 78.487C208.1 78.7217 208.28 79.004 208.405 79.334C208.529 79.6567 208.592 80.016 208.592 80.412C208.592 80.8887 208.507 81.325 208.339 81.721C208.17 82.117 207.932 82.5277 207.624 82.953L205.413 86H204.148L206.656 82.799ZM204.247 80.258C204.247 80.7933 204.39 81.204 204.676 81.49C204.969 81.7687 205.369 81.908 205.875 81.908C206.153 81.908 206.399 81.864 206.612 81.776C206.824 81.688 207.004 81.5707 207.151 81.424C207.305 81.27 207.418 81.0977 207.492 80.907C207.572 80.709 207.613 80.5037 207.613 80.291C207.613 80.027 207.569 79.7923 207.481 79.587C207.4 79.3743 207.286 79.1983 207.14 79.059C206.993 78.9123 206.817 78.8023 206.612 78.729C206.406 78.6483 206.186 78.608 205.952 78.608C205.438 78.608 205.024 78.762 204.709 79.07C204.401 79.3707 204.247 79.7667 204.247 80.258Z" fill="black" fill-opacity="0.6"/>
<path d="M8.712 108.013C8.338 107.932 7.964 107.811 7.59 107.65C7.216 107.481 6.864 107.28 6.534 107.045C6.21133 106.81 5.918 106.543 5.654 106.242C5.39 105.941 5.17733 105.615 5.016 105.263C4.85467 105.615 4.642 105.941 4.378 106.242C4.114 106.543 3.817 106.81 3.487 107.045C3.16433 107.28 2.816 107.481 2.442 107.65C2.07533 107.811 1.70133 107.932 1.32 108.013L0.946 107.265C1.37867 107.192 1.80767 107.052 2.233 106.847C2.66567 106.634 3.05067 106.378 3.388 106.077C3.73267 105.769 4.01133 105.428 4.224 105.054C4.43667 104.673 4.543 104.277 4.543 103.866V103.107H5.489V103.866C5.489 104.277 5.59533 104.673 5.808 105.054C6.02067 105.428 6.29933 105.769 6.644 106.077C6.98867 106.378 7.37367 106.634 7.799 106.847C8.23167 107.052 8.66433 107.192 9.097 107.265L8.712 108.013ZM9.537 111.027H0.583V110.29H4.565V107.892H5.467V110.29H9.537V111.027ZM18.2921 107.199V112.314H17.3901V102.458H18.2921V106.451H19.9201V107.199H18.2921ZM14.0131 105.076C14.0131 105.509 14.0791 105.941 14.2111 106.374C14.3431 106.799 14.5228 107.199 14.7501 107.573C14.9775 107.947 15.2415 108.284 15.5421 108.585C15.8501 108.886 16.1765 109.124 16.5211 109.3L15.9601 110.015C15.6961 109.876 15.4431 109.703 15.2011 109.498C14.9591 109.285 14.7355 109.047 14.5301 108.783C14.3321 108.519 14.1488 108.233 13.9801 107.925C13.8188 107.61 13.6831 107.283 13.5731 106.946C13.3605 107.679 13.0378 108.332 12.6051 108.904C12.1725 109.469 11.6775 109.905 11.1201 110.213L10.5811 109.487C10.9331 109.304 11.2631 109.054 11.5711 108.739C11.8865 108.424 12.1578 108.072 12.3851 107.683C12.6125 107.287 12.7921 106.865 12.9241 106.418C13.0561 105.971 13.1221 105.523 13.1221 105.076V103.305H14.0131V105.076ZM28.9503 108.266H28.0373V106.847H25.5403C25.3056 107.126 25.0159 107.346 24.6713 107.507C24.3339 107.668 23.9453 107.749 23.5053 107.749C23.1459 107.749 22.8086 107.69 22.4933 107.573C22.1853 107.456 21.9176 107.291 21.6903 107.078C21.4703 106.865 21.2943 106.616 21.1623 106.33C21.0376 106.037 20.9753 105.714 20.9753 105.362C20.9753 105.017 21.0376 104.702 21.1623 104.416C21.2943 104.123 21.4703 103.873 21.6903 103.668C21.9176 103.455 22.1853 103.29 22.4933 103.173C22.8086 103.056 23.1459 102.997 23.5053 102.997C23.9453 102.997 24.3376 103.078 24.6823 103.239C25.0269 103.4 25.3166 103.62 25.5513 103.899H28.0373V102.458L28.9503 102.447V108.266ZM23.5053 106.979C23.7473 106.979 23.9709 106.939 24.1763 106.858C24.3816 106.777 24.5576 106.667 24.7043 106.528C24.8583 106.381 24.9756 106.209 25.0563 106.011C25.1443 105.813 25.1883 105.597 25.1883 105.362C25.1883 105.127 25.1443 104.915 25.0563 104.724C24.9756 104.526 24.8583 104.357 24.7043 104.218C24.5576 104.079 24.3816 103.969 24.1763 103.888C23.9709 103.807 23.7473 103.767 23.5053 103.767C23.2633 103.767 23.0396 103.807 22.8343 103.888C22.6363 103.969 22.4603 104.079 22.3063 104.218C22.1596 104.357 22.0423 104.526 21.9543 104.724C21.8736 104.915 21.8333 105.127 21.8333 105.362C21.8333 105.597 21.8736 105.813 21.9543 106.011C22.0423 106.209 22.1596 106.381 22.3063 106.528C22.4603 106.667 22.6363 106.777 22.8343 106.858C23.0396 106.939 23.2633 106.979 23.5053 106.979ZM28.0373 104.625H25.9363C26.0096 104.823 26.0463 105.069 26.0463 105.362C26.0463 105.663 26.0096 105.912 25.9363 106.11H28.0373V104.625ZM28.9503 108.805V112.325H28.0373V109.542H22.3503V108.805H28.9503ZM41.7384 106.946C41.5991 106.836 41.4487 106.711 41.2874 106.572C41.1334 106.433 40.9794 106.286 40.8254 106.132C40.6714 105.978 40.5174 105.817 40.3634 105.648C40.2167 105.479 40.081 105.311 39.9564 105.142L40.6164 104.757C40.7997 104.999 41.0014 105.241 41.2214 105.483C41.4487 105.718 41.6834 105.945 41.9254 106.165C42.1747 106.385 42.4277 106.594 42.6844 106.792C42.941 106.99 43.1904 107.166 43.4324 107.32C43.1904 107.474 42.941 107.65 42.6844 107.848C42.4277 108.046 42.1747 108.255 41.9254 108.475C41.6834 108.695 41.4487 108.926 41.2214 109.168C41.0014 109.403 40.7997 109.641 40.6164 109.883L39.9564 109.498C40.081 109.329 40.2167 109.161 40.3634 108.992C40.5174 108.823 40.6714 108.662 40.8254 108.508C40.9794 108.354 41.1334 108.207 41.2874 108.068C41.4487 107.929 41.5991 107.804 41.7384 107.694H33.2574V106.946H41.7384ZM54.9343 112.336H54.0323V102.447H54.9343V112.336ZM50.3583 105.076C50.3583 105.523 50.428 105.971 50.5673 106.418C50.7067 106.858 50.8937 107.269 51.1283 107.65C51.3703 108.031 51.6527 108.372 51.9753 108.673C52.298 108.966 52.639 109.194 52.9983 109.355L52.4593 110.081C51.8873 109.802 51.3777 109.392 50.9303 108.849C50.4903 108.299 50.153 107.668 49.9183 106.957C49.691 107.712 49.3537 108.376 48.9063 108.948C48.459 109.52 47.9457 109.96 47.3663 110.268L46.8163 109.531C47.1757 109.355 47.5167 109.113 47.8393 108.805C48.162 108.497 48.4443 108.145 48.6863 107.749C48.9283 107.353 49.119 106.928 49.2583 106.473C49.3977 106.011 49.4673 105.545 49.4673 105.076V103.305H50.3583V105.076ZM62.4025 108.013C61.8305 107.837 61.3282 107.573 60.8955 107.221C60.4702 106.869 60.1438 106.451 59.9165 105.967C59.7038 106.517 59.3848 106.99 58.9595 107.386C58.5415 107.782 58.0355 108.075 57.4415 108.266L57.0015 107.573C57.3608 107.448 57.6908 107.283 57.9915 107.078C58.2922 106.873 58.5488 106.638 58.7615 106.374C58.9742 106.11 59.1392 105.824 59.2565 105.516C59.3812 105.201 59.4435 104.878 59.4435 104.548V104.361H57.2545V103.635H59.4435V102.403H60.3455V103.635H62.5235V104.361H60.3455V104.548C60.3455 104.856 60.4042 105.153 60.5215 105.439C60.6462 105.725 60.8185 105.989 61.0385 106.231C61.2585 106.473 61.5188 106.689 61.8195 106.88C62.1275 107.063 62.4612 107.21 62.8205 107.32L62.4025 108.013ZM64.1955 102.447H65.1085V108.431H64.1955V106H62.2265V105.252H64.1955V102.447ZM61.8415 108.684C62.3548 108.684 62.8132 108.724 63.2165 108.805C63.6272 108.886 63.9755 109.003 64.2615 109.157C64.5475 109.311 64.7638 109.502 64.9105 109.729C65.0645 109.949 65.1415 110.202 65.1415 110.488C65.1415 110.774 65.0645 111.031 64.9105 111.258C64.7638 111.485 64.5475 111.676 64.2615 111.83C63.9755 111.984 63.6272 112.101 63.2165 112.182C62.8132 112.263 62.3548 112.303 61.8415 112.303C61.3355 112.303 60.8808 112.263 60.4775 112.182C60.0742 112.101 59.7295 111.984 59.4435 111.83C59.1575 111.676 58.9375 111.485 58.7835 111.258C58.6368 111.031 58.5635 110.774 58.5635 110.488C58.5635 110.202 58.6368 109.949 58.7835 109.729C58.9375 109.502 59.1575 109.311 59.4435 109.157C59.7295 109.003 60.0742 108.886 60.4775 108.805C60.8808 108.724 61.3355 108.684 61.8415 108.684ZM61.8415 111.599C62.5968 111.599 63.1835 111.504 63.6015 111.313C64.0268 111.115 64.2395 110.84 64.2395 110.488C64.2395 110.136 64.0268 109.865 63.6015 109.674C63.1835 109.483 62.5968 109.388 61.8415 109.388C61.0862 109.388 60.4995 109.483 60.0815 109.674C59.6708 109.865 59.4655 110.136 59.4655 110.488C59.4655 110.84 59.6708 111.115 60.0815 111.313C60.4995 111.504 61.0862 111.599 61.8415 111.599Z" fill="black" fill-opacity="0.6"/>
<rect x="96" y="98.5" width="149" height="6" fill="#0068E6"/>
<path d="M258.995 105.5H253.583V104.796L256.366 102.123C256.579 101.896 256.773 101.683 256.949 101.485C257.132 101.28 257.286 101.074 257.411 100.869C257.543 100.664 257.646 100.458 257.719 100.253C257.792 100.04 257.829 99.8167 257.829 99.582C257.814 99.098 257.668 98.7423 257.389 98.515C257.11 98.2803 256.762 98.163 256.344 98.163C256.117 98.163 255.904 98.2033 255.706 98.284C255.508 98.3573 255.336 98.4673 255.189 98.614C255.05 98.7533 254.94 98.9183 254.859 99.109C254.778 99.2997 254.738 99.5123 254.738 99.747L253.748 99.582C253.799 99.208 253.902 98.8817 254.056 98.603C254.21 98.317 254.401 98.0787 254.628 97.888C254.863 97.69 255.13 97.5433 255.431 97.448C255.732 97.3453 256.054 97.294 256.399 97.294C256.744 97.294 257.063 97.3453 257.356 97.448C257.657 97.5507 257.917 97.701 258.137 97.899C258.357 98.0897 258.529 98.3243 258.654 98.603C258.779 98.8817 258.841 99.2007 258.841 99.56C258.841 99.8607 258.797 100.139 258.709 100.396C258.621 100.653 258.5 100.902 258.346 101.144C258.192 101.379 258.012 101.61 257.807 101.837C257.602 102.057 257.385 102.281 257.158 102.508L254.903 104.741C255.057 104.697 255.211 104.664 255.365 104.642C255.526 104.62 255.677 104.609 255.816 104.609H258.995V105.5ZM263.568 102.299C263.685 102.145 263.777 102.017 263.843 101.914C263.916 101.811 263.971 101.734 264.008 101.683C263.575 102.028 263.058 102.2 262.457 102.2C262.141 102.2 261.841 102.149 261.555 102.046C261.276 101.943 261.03 101.793 260.818 101.595C260.612 101.39 260.447 101.14 260.323 100.847C260.198 100.554 260.136 100.216 260.136 99.835C260.136 99.4757 260.202 99.1383 260.334 98.823C260.473 98.5077 260.664 98.2327 260.906 97.998C261.148 97.7633 261.434 97.58 261.764 97.448C262.101 97.3087 262.471 97.239 262.875 97.239C263.271 97.239 263.63 97.305 263.953 97.437C264.275 97.569 264.55 97.7523 264.778 97.987C265.012 98.2217 265.192 98.504 265.317 98.834C265.441 99.1567 265.504 99.516 265.504 99.912C265.504 100.389 265.419 100.825 265.251 101.221C265.082 101.617 264.844 102.028 264.536 102.453L262.325 105.5H261.06L263.568 102.299ZM261.159 99.758C261.159 100.293 261.302 100.704 261.588 100.99C261.881 101.269 262.281 101.408 262.787 101.408C263.065 101.408 263.311 101.364 263.524 101.276C263.736 101.188 263.916 101.071 264.063 100.924C264.217 100.77 264.33 100.598 264.404 100.407C264.484 100.209 264.525 100.004 264.525 99.791C264.525 99.527 264.481 99.2923 264.393 99.087C264.312 98.8743 264.198 98.6983 264.052 98.559C263.905 98.4123 263.729 98.3023 263.524 98.229C263.318 98.1483 263.098 98.108 262.864 98.108C262.35 98.108 261.936 98.262 261.621 98.57C261.313 98.8707 261.159 99.2667 261.159 99.758ZM267.568 104.62V105.654H266.567V104.62H267.568ZM270.742 100.44C271.101 100.345 271.486 100.297 271.897 100.297C272.322 100.297 272.696 100.359 273.019 100.484C273.349 100.609 273.624 100.781 273.844 101.001C274.064 101.221 274.229 101.481 274.339 101.782C274.456 102.083 274.515 102.409 274.515 102.761C274.515 103.186 274.438 103.575 274.284 103.927C274.137 104.279 273.932 104.58 273.668 104.829C273.404 105.071 273.092 105.262 272.733 105.401C272.381 105.533 271.999 105.599 271.589 105.599C271.105 105.599 270.665 105.515 270.269 105.346C269.88 105.17 269.561 104.965 269.312 104.73L269.851 103.993C270.093 104.198 270.368 104.367 270.676 104.499C270.984 104.631 271.303 104.697 271.633 104.697C271.911 104.697 272.168 104.657 272.403 104.576C272.637 104.488 272.839 104.363 273.008 104.202C273.176 104.041 273.308 103.843 273.404 103.608C273.499 103.373 273.547 103.109 273.547 102.816C273.547 102.288 273.385 101.877 273.063 101.584C272.74 101.291 272.289 101.144 271.71 101.144C271.497 101.144 271.281 101.17 271.061 101.221C270.848 101.265 270.624 101.327 270.39 101.408L269.741 101.221L270.401 97.404H274.262V98.328H271.105L270.742 100.44Z" fill="black" fill-opacity="0.6"/>
<rect x="96" y="110.5" width="105" height="6" fill="#16A3E9"/>
<path d="M214.995 117.5H209.583V116.796L212.366 114.123C212.579 113.896 212.773 113.683 212.949 113.485C213.132 113.28 213.286 113.074 213.411 112.869C213.543 112.664 213.646 112.458 213.719 112.253C213.792 112.04 213.829 111.817 213.829 111.582C213.814 111.098 213.668 110.742 213.389 110.515C213.11 110.28 212.762 110.163 212.344 110.163C212.117 110.163 211.904 110.203 211.706 110.284C211.508 110.357 211.336 110.467 211.189 110.614C211.05 110.753 210.94 110.918 210.859 111.109C210.778 111.3 210.738 111.512 210.738 111.747L209.748 111.582C209.799 111.208 209.902 110.882 210.056 110.603C210.21 110.317 210.401 110.079 210.628 109.888C210.863 109.69 211.13 109.543 211.431 109.448C211.732 109.345 212.054 109.294 212.399 109.294C212.744 109.294 213.063 109.345 213.356 109.448C213.657 109.551 213.917 109.701 214.137 109.899C214.357 110.09 214.529 110.324 214.654 110.603C214.779 110.882 214.841 111.201 214.841 111.56C214.841 111.861 214.797 112.139 214.709 112.396C214.621 112.653 214.5 112.902 214.346 113.144C214.192 113.379 214.012 113.61 213.807 113.837C213.602 114.057 213.385 114.281 213.158 114.508L210.903 116.741C211.057 116.697 211.211 116.664 211.365 116.642C211.526 116.62 211.677 116.609 211.816 116.609H214.995V117.5ZM217.654 112.44C218.013 112.345 218.398 112.297 218.809 112.297C219.234 112.297 219.608 112.359 219.931 112.484C220.261 112.609 220.536 112.781 220.756 113.001C220.976 113.221 221.141 113.481 221.251 113.782C221.368 114.083 221.427 114.409 221.427 114.761C221.427 115.186 221.35 115.575 221.196 115.927C221.049 116.279 220.844 116.58 220.58 116.829C220.316 117.071 220.004 117.262 219.645 117.401C219.293 117.533 218.911 117.599 218.501 117.599C218.017 117.599 217.577 117.515 217.181 117.346C216.792 117.17 216.473 116.965 216.224 116.73L216.763 115.993C217.005 116.198 217.28 116.367 217.588 116.499C217.896 116.631 218.215 116.697 218.545 116.697C218.823 116.697 219.08 116.657 219.315 116.576C219.549 116.488 219.751 116.363 219.92 116.202C220.088 116.041 220.22 115.843 220.316 115.608C220.411 115.373 220.459 115.109 220.459 114.816C220.459 114.288 220.297 113.877 219.975 113.584C219.652 113.291 219.201 113.144 218.622 113.144C218.409 113.144 218.193 113.17 217.973 113.221C217.76 113.265 217.536 113.327 217.302 113.408L216.653 113.221L217.313 109.404H221.174V110.328H218.017L217.654 112.44ZM223.568 116.62V117.654H222.567V116.62H223.568ZM230.427 117.5H226.071V116.686H227.864V110.724C227.864 110.68 227.867 110.64 227.875 110.603L226.412 111.912L225.873 111.263L228.04 109.393H228.843V116.686H230.427V117.5Z" fill="black" fill-opacity="0.6"/>
<path d="M8.712 139.513C8.338 139.432 7.964 139.311 7.59 139.15C7.216 138.981 6.864 138.78 6.534 138.545C6.21133 138.31 5.918 138.043 5.654 137.742C5.39 137.441 5.17733 137.115 5.016 136.763C4.85467 137.115 4.642 137.441 4.378 137.742C4.114 138.043 3.817 138.31 3.487 138.545C3.16433 138.78 2.816 138.981 2.442 139.15C2.07533 139.311 1.70133 139.432 1.32 139.513L0.946 138.765C1.37867 138.692 1.80767 138.552 2.233 138.347C2.66567 138.134 3.05067 137.878 3.388 137.577C3.73267 137.269 4.01133 136.928 4.224 136.554C4.43667 136.173 4.543 135.777 4.543 135.366V134.607H5.489V135.366C5.489 135.777 5.59533 136.173 5.808 136.554C6.02067 136.928 6.29933 137.269 6.644 137.577C6.98867 137.878 7.37367 138.134 7.799 138.347C8.23167 138.552 8.66433 138.692 9.097 138.765L8.712 139.513ZM9.537 142.527H0.583V141.79H4.565V139.392H5.467V141.79H9.537V142.527ZM18.2921 138.699V143.814H17.3901V133.958H18.2921V137.951H19.9201V138.699H18.2921ZM14.0131 136.576C14.0131 137.009 14.0791 137.441 14.2111 137.874C14.3431 138.299 14.5228 138.699 14.7501 139.073C14.9775 139.447 15.2415 139.784 15.5421 140.085C15.8501 140.386 16.1765 140.624 16.5211 140.8L15.9601 141.515C15.6961 141.376 15.4431 141.203 15.2011 140.998C14.9591 140.785 14.7355 140.547 14.5301 140.283C14.3321 140.019 14.1488 139.733 13.9801 139.425C13.8188 139.11 13.6831 138.783 13.5731 138.446C13.3605 139.179 13.0378 139.832 12.6051 140.404C12.1725 140.969 11.6775 141.405 11.1201 141.713L10.5811 140.987C10.9331 140.804 11.2631 140.554 11.5711 140.239C11.8865 139.924 12.1578 139.572 12.3851 139.183C12.6125 138.787 12.7921 138.365 12.9241 137.918C13.0561 137.471 13.1221 137.023 13.1221 136.576V134.805H14.0131V136.576ZM28.9503 139.766H28.0373V138.347H25.5403C25.3056 138.626 25.0159 138.846 24.6713 139.007C24.3339 139.168 23.9453 139.249 23.5053 139.249C23.1459 139.249 22.8086 139.19 22.4933 139.073C22.1853 138.956 21.9176 138.791 21.6903 138.578C21.4703 138.365 21.2943 138.116 21.1623 137.83C21.0376 137.537 20.9753 137.214 20.9753 136.862C20.9753 136.517 21.0376 136.202 21.1623 135.916C21.2943 135.623 21.4703 135.373 21.6903 135.168C21.9176 134.955 22.1853 134.79 22.4933 134.673C22.8086 134.556 23.1459 134.497 23.5053 134.497C23.9453 134.497 24.3376 134.578 24.6823 134.739C25.0269 134.9 25.3166 135.12 25.5513 135.399H28.0373V133.958L28.9503 133.947V139.766ZM23.5053 138.479C23.7473 138.479 23.9709 138.439 24.1763 138.358C24.3816 138.277 24.5576 138.167 24.7043 138.028C24.8583 137.881 24.9756 137.709 25.0563 137.511C25.1443 137.313 25.1883 137.097 25.1883 136.862C25.1883 136.627 25.1443 136.415 25.0563 136.224C24.9756 136.026 24.8583 135.857 24.7043 135.718C24.5576 135.579 24.3816 135.469 24.1763 135.388C23.9709 135.307 23.7473 135.267 23.5053 135.267C23.2633 135.267 23.0396 135.307 22.8343 135.388C22.6363 135.469 22.4603 135.579 22.3063 135.718C22.1596 135.857 22.0423 136.026 21.9543 136.224C21.8736 136.415 21.8333 136.627 21.8333 136.862C21.8333 137.097 21.8736 137.313 21.9543 137.511C22.0423 137.709 22.1596 137.881 22.3063 138.028C22.4603 138.167 22.6363 138.277 22.8343 138.358C23.0396 138.439 23.2633 138.479 23.5053 138.479ZM28.0373 136.125H25.9363C26.0096 136.323 26.0463 136.569 26.0463 136.862C26.0463 137.163 26.0096 137.412 25.9363 137.61H28.0373V136.125ZM28.9503 140.305V143.825H28.0373V141.042H22.3503V140.305H28.9503ZM41.7384 138.446C41.5991 138.336 41.4487 138.211 41.2874 138.072C41.1334 137.933 40.9794 137.786 40.8254 137.632C40.6714 137.478 40.5174 137.317 40.3634 137.148C40.2167 136.979 40.081 136.811 39.9564 136.642L40.6164 136.257C40.7997 136.499 41.0014 136.741 41.2214 136.983C41.4487 137.218 41.6834 137.445 41.9254 137.665C42.1747 137.885 42.4277 138.094 42.6844 138.292C42.941 138.49 43.1904 138.666 43.4324 138.82C43.1904 138.974 42.941 139.15 42.6844 139.348C42.4277 139.546 42.1747 139.755 41.9254 139.975C41.6834 140.195 41.4487 140.426 41.2214 140.668C41.0014 140.903 40.7997 141.141 40.6164 141.383L39.9564 140.998C40.081 140.829 40.2167 140.661 40.3634 140.492C40.5174 140.323 40.6714 140.162 40.8254 140.008C40.9794 139.854 41.1334 139.707 41.2874 139.568C41.4487 139.429 41.5991 139.304 41.7384 139.194H33.2574V138.446H41.7384ZM51.7663 139.568V143.825H50.8533V139.568H46.8713V138.831H53.4163C53.5703 138.12 53.6583 137.493 53.6803 136.95C53.7097 136.407 53.7243 135.905 53.7243 135.443V135.311H47.9823V134.585H54.6043V135.443C54.6043 135.905 54.5933 136.407 54.5713 136.95C54.5493 137.493 54.4687 138.12 54.3293 138.831H55.7923V139.568H51.7663ZM62.4025 139.513C61.8305 139.337 61.3282 139.073 60.8955 138.721C60.4702 138.369 60.1438 137.951 59.9165 137.467C59.7038 138.017 59.3848 138.49 58.9595 138.886C58.5415 139.282 58.0355 139.575 57.4415 139.766L57.0015 139.073C57.3608 138.948 57.6908 138.783 57.9915 138.578C58.2922 138.373 58.5488 138.138 58.7615 137.874C58.9742 137.61 59.1392 137.324 59.2565 137.016C59.3812 136.701 59.4435 136.378 59.4435 136.048V135.861H57.2545V135.135H59.4435V133.903H60.3455V135.135H62.5235V135.861H60.3455V136.048C60.3455 136.356 60.4042 136.653 60.5215 136.939C60.6462 137.225 60.8185 137.489 61.0385 137.731C61.2585 137.973 61.5188 138.189 61.8195 138.38C62.1275 138.563 62.4612 138.71 62.8205 138.82L62.4025 139.513ZM64.1955 133.947H65.1085V139.931H64.1955V137.5H62.2265V136.752H64.1955V133.947ZM61.8415 140.184C62.3548 140.184 62.8132 140.224 63.2165 140.305C63.6272 140.386 63.9755 140.503 64.2615 140.657C64.5475 140.811 64.7638 141.002 64.9105 141.229C65.0645 141.449 65.1415 141.702 65.1415 141.988C65.1415 142.274 65.0645 142.531 64.9105 142.758C64.7638 142.985 64.5475 143.176 64.2615 143.33C63.9755 143.484 63.6272 143.601 63.2165 143.682C62.8132 143.763 62.3548 143.803 61.8415 143.803C61.3355 143.803 60.8808 143.763 60.4775 143.682C60.0742 143.601 59.7295 143.484 59.4435 143.33C59.1575 143.176 58.9375 142.985 58.7835 142.758C58.6368 142.531 58.5635 142.274 58.5635 141.988C58.5635 141.702 58.6368 141.449 58.7835 141.229C58.9375 141.002 59.1575 140.811 59.4435 140.657C59.7295 140.503 60.0742 140.386 60.4775 140.305C60.8808 140.224 61.3355 140.184 61.8415 140.184ZM61.8415 143.099C62.5968 143.099 63.1835 143.004 63.6015 142.813C64.0268 142.615 64.2395 142.34 64.2395 141.988C64.2395 141.636 64.0268 141.365 63.6015 141.174C63.1835 140.983 62.5968 140.888 61.8415 140.888C61.0862 140.888 60.4995 140.983 60.0815 141.174C59.6708 141.365 59.4655 141.636 59.4655 141.988C59.4655 142.34 59.6708 142.615 60.0815 142.813C60.4995 143.004 61.0862 143.099 61.8415 143.099Z" fill="black" fill-opacity="0.6"/>
<rect x="96" y="130" width="113" height="6" fill="#0068E6"/>
<path d="M222.995 137H217.583V136.296L220.366 133.623C220.579 133.396 220.773 133.183 220.949 132.985C221.132 132.78 221.286 132.574 221.411 132.369C221.543 132.164 221.646 131.958 221.719 131.753C221.792 131.54 221.829 131.317 221.829 131.082C221.814 130.598 221.668 130.242 221.389 130.015C221.11 129.78 220.762 129.663 220.344 129.663C220.117 129.663 219.904 129.703 219.706 129.784C219.508 129.857 219.336 129.967 219.189 130.114C219.05 130.253 218.94 130.418 218.859 130.609C218.778 130.8 218.738 131.012 218.738 131.247L217.748 131.082C217.799 130.708 217.902 130.382 218.056 130.103C218.21 129.817 218.401 129.579 218.628 129.388C218.863 129.19 219.13 129.043 219.431 128.948C219.732 128.845 220.054 128.794 220.399 128.794C220.744 128.794 221.063 128.845 221.356 128.948C221.657 129.051 221.917 129.201 222.137 129.399C222.357 129.59 222.529 129.824 222.654 130.103C222.779 130.382 222.841 130.701 222.841 131.06C222.841 131.361 222.797 131.639 222.709 131.896C222.621 132.153 222.5 132.402 222.346 132.644C222.192 132.879 222.012 133.11 221.807 133.337C221.602 133.557 221.385 133.781 221.158 134.008L218.903 136.241C219.057 136.197 219.211 136.164 219.365 136.142C219.526 136.12 219.677 136.109 219.816 136.109H222.995V137ZM225.654 131.94C226.013 131.845 226.398 131.797 226.809 131.797C227.234 131.797 227.608 131.859 227.931 131.984C228.261 132.109 228.536 132.281 228.756 132.501C228.976 132.721 229.141 132.981 229.251 133.282C229.368 133.583 229.427 133.909 229.427 134.261C229.427 134.686 229.35 135.075 229.196 135.427C229.049 135.779 228.844 136.08 228.58 136.329C228.316 136.571 228.004 136.762 227.645 136.901C227.293 137.033 226.911 137.099 226.501 137.099C226.017 137.099 225.577 137.015 225.181 136.846C224.792 136.67 224.473 136.465 224.224 136.23L224.763 135.493C225.005 135.698 225.28 135.867 225.588 135.999C225.896 136.131 226.215 136.197 226.545 136.197C226.823 136.197 227.08 136.157 227.315 136.076C227.549 135.988 227.751 135.863 227.92 135.702C228.088 135.541 228.22 135.343 228.316 135.108C228.411 134.873 228.459 134.609 228.459 134.316C228.459 133.788 228.297 133.377 227.975 133.084C227.652 132.791 227.201 132.644 226.622 132.644C226.409 132.644 226.193 132.67 225.973 132.721C225.76 132.765 225.536 132.827 225.302 132.908L224.653 132.721L225.313 128.904H229.174V129.828H226.017L225.654 131.94ZM231.568 136.12V137.154H230.567V136.12H231.568ZM236.656 133.799C236.773 133.645 236.865 133.517 236.931 133.414C237.004 133.311 237.059 133.234 237.096 133.183C236.663 133.528 236.146 133.7 235.545 133.7C235.229 133.7 234.929 133.649 234.643 133.546C234.364 133.443 234.118 133.293 233.906 133.095C233.7 132.89 233.535 132.64 233.411 132.347C233.286 132.054 233.224 131.716 233.224 131.335C233.224 130.976 233.29 130.638 233.422 130.323C233.561 130.008 233.752 129.733 233.994 129.498C234.236 129.263 234.522 129.08 234.852 128.948C235.189 128.809 235.559 128.739 235.963 128.739C236.359 128.739 236.718 128.805 237.041 128.937C237.363 129.069 237.638 129.252 237.866 129.487C238.1 129.722 238.28 130.004 238.405 130.334C238.529 130.657 238.592 131.016 238.592 131.412C238.592 131.889 238.507 132.325 238.339 132.721C238.17 133.117 237.932 133.528 237.624 133.953L235.413 137H234.148L236.656 133.799ZM234.247 131.258C234.247 131.793 234.39 132.204 234.676 132.49C234.969 132.769 235.369 132.908 235.875 132.908C236.153 132.908 236.399 132.864 236.612 132.776C236.824 132.688 237.004 132.571 237.151 132.424C237.305 132.27 237.418 132.098 237.492 131.907C237.572 131.709 237.613 131.504 237.613 131.291C237.613 131.027 237.569 130.792 237.481 130.587C237.4 130.374 237.286 130.198 237.14 130.059C236.993 129.912 236.817 129.802 236.612 129.729C236.406 129.648 236.186 129.608 235.952 129.608C235.438 129.608 235.024 129.762 234.709 130.07C234.401 130.371 234.247 130.767 234.247 131.258Z" fill="black" fill-opacity="0.6"/>
<rect x="96" y="142" width="69" height="6" fill="#16A3E9"/>
<path d="M178.995 149H173.583V148.296L176.366 145.623C176.579 145.396 176.773 145.183 176.949 144.985C177.132 144.78 177.286 144.574 177.411 144.369C177.543 144.164 177.646 143.958 177.719 143.753C177.792 143.54 177.829 143.317 177.829 143.082C177.814 142.598 177.668 142.242 177.389 142.015C177.11 141.78 176.762 141.663 176.344 141.663C176.117 141.663 175.904 141.703 175.706 141.784C175.508 141.857 175.336 141.967 175.189 142.114C175.05 142.253 174.94 142.418 174.859 142.609C174.778 142.8 174.738 143.012 174.738 143.247L173.748 143.082C173.799 142.708 173.902 142.382 174.056 142.103C174.21 141.817 174.401 141.579 174.628 141.388C174.863 141.19 175.13 141.043 175.431 140.948C175.732 140.845 176.054 140.794 176.399 140.794C176.744 140.794 177.063 140.845 177.356 140.948C177.657 141.051 177.917 141.201 178.137 141.399C178.357 141.59 178.529 141.824 178.654 142.103C178.779 142.382 178.841 142.701 178.841 143.06C178.841 143.361 178.797 143.639 178.709 143.896C178.621 144.153 178.5 144.402 178.346 144.644C178.192 144.879 178.012 145.11 177.807 145.337C177.602 145.557 177.385 145.781 177.158 146.008L174.903 148.241C175.057 148.197 175.211 148.164 175.365 148.142C175.526 148.12 175.677 148.109 175.816 148.109H178.995V149ZM185.339 149H180.983V148.186H182.776V142.224C182.776 142.18 182.779 142.14 182.787 142.103L181.324 143.412L180.785 142.763L182.952 140.893H183.755V148.186H185.339V149ZM187.568 148.12V149.154H186.567V148.12H187.568ZM190.742 143.94C191.101 143.845 191.486 143.797 191.897 143.797C192.322 143.797 192.696 143.859 193.019 143.984C193.349 144.109 193.624 144.281 193.844 144.501C194.064 144.721 194.229 144.981 194.339 145.282C194.456 145.583 194.515 145.909 194.515 146.261C194.515 146.686 194.438 147.075 194.284 147.427C194.137 147.779 193.932 148.08 193.668 148.329C193.404 148.571 193.092 148.762 192.733 148.901C192.381 149.033 191.999 149.099 191.589 149.099C191.105 149.099 190.665 149.015 190.269 148.846C189.88 148.67 189.561 148.465 189.312 148.23L189.851 147.493C190.093 147.698 190.368 147.867 190.676 147.999C190.984 148.131 191.303 148.197 191.633 148.197C191.911 148.197 192.168 148.157 192.403 148.076C192.637 147.988 192.839 147.863 193.008 147.702C193.176 147.541 193.308 147.343 193.404 147.108C193.499 146.873 193.547 146.609 193.547 146.316C193.547 145.788 193.385 145.377 193.063 145.084C192.74 144.791 192.289 144.644 191.71 144.644C191.497 144.644 191.281 144.67 191.061 144.721C190.848 144.765 190.624 144.827 190.39 144.908L189.741 144.721L190.401 140.904H194.262V141.828H191.105L190.742 143.94Z" fill="black" fill-opacity="0.6"/>
<path d="M2.629 178.573C2.123 177.752 1.727 176.886 1.441 175.977C1.155 175.068 1.012 174.07 1.012 172.985C1.012 171.907 1.155 170.913 1.441 170.004C1.727 169.095 2.123 168.229 2.629 167.408L3.256 167.694C2.772 168.493 2.41633 169.333 2.189 170.213C1.96167 171.093 1.848 172.017 1.848 172.985C1.848 173.953 1.96167 174.877 2.189 175.757C2.41633 176.637 2.772 177.477 3.256 178.276L2.629 178.573ZM9.2058 173.568V177.825H8.2928V173.568H4.3108V172.831H10.8558C11.0098 172.12 11.0978 171.493 11.1198 170.95C11.1491 170.407 11.1638 169.905 11.1638 169.443V169.311H5.4218V168.585H12.0438V169.443C12.0438 169.905 12.0328 170.407 12.0108 170.95C11.9888 171.493 11.9081 172.12 11.7688 172.831H13.2318V173.568H9.2058ZM23.5379 171.698H22.0749V175.163H21.1729V167.958H22.0749V170.95H23.5379V171.698ZM19.4349 168.717C19.4349 169.355 19.3249 169.949 19.1049 170.499C18.8923 171.049 18.5843 171.551 18.1809 172.006C17.7849 172.453 17.3009 172.849 16.7289 173.194C16.1569 173.531 15.5153 173.81 14.8039 174.03L14.4409 173.315C15.0203 173.132 15.5446 172.912 16.0139 172.655C16.4906 172.391 16.9013 172.094 17.2459 171.764C17.5979 171.434 17.8766 171.075 18.0819 170.686C18.2946 170.297 18.4229 169.887 18.4669 169.454H14.8369V168.717H19.4349ZM22.5039 176.857V177.594H15.9259V174.426H16.8279V176.857H22.5039ZM32.5791 171.918C32.2051 171.852 31.8347 171.757 31.4681 171.632C31.1087 171.5 30.7714 171.346 30.4561 171.17C30.1407 170.987 29.8547 170.778 29.5981 170.543C29.3487 170.301 29.1471 170.037 28.9931 169.751C28.8391 170.037 28.6374 170.301 28.3881 170.543C28.1387 170.778 27.8564 170.987 27.5411 171.17C27.2257 171.346 26.8847 171.5 26.5181 171.632C26.1587 171.757 25.7921 171.852 25.4181 171.918L25.0771 171.192C25.5171 171.133 25.9424 171.023 26.3531 170.862C26.7711 170.701 27.1414 170.503 27.4641 170.268C27.7867 170.033 28.0434 169.769 28.2341 169.476C28.4321 169.183 28.5311 168.871 28.5311 168.541V168.101H29.4551V168.541C29.4551 168.871 29.5504 169.183 29.7411 169.476C29.9391 169.769 30.1994 170.033 30.5221 170.268C30.8521 170.503 31.2224 170.701 31.6331 170.862C32.0511 171.023 32.4801 171.133 32.9201 171.192L32.5791 171.918ZM33.4921 173.634H24.5381V172.897H28.5421V171.401H29.4441V172.897H33.4921V173.634ZM32.3591 174.591V177.825H31.4571V175.328H25.5281V174.591H32.3591ZM43.6112 176.571H34.6462V175.823H38.6612V173.293H35.7902V168.739H42.4782V169.476H36.6922V172.567H42.5772V173.293H39.5742V175.823H43.6112V176.571ZM48.6553 168.244V174.184H48.6773L51.2403 171.027H52.3513L50.3493 173.425L52.6153 177H51.5263L49.7773 174.118L48.6553 175.427V177H47.6653V168.244H48.6553ZM54.5597 171.027L54.6477 171.896H54.6807C54.9373 171.61 55.2197 171.368 55.5277 171.17C55.843 170.972 56.1803 170.873 56.5397 170.873C57.0017 170.873 57.361 170.976 57.6177 171.181C57.8743 171.386 58.065 171.665 58.1897 172.017C58.4977 171.68 58.8093 171.405 59.1247 171.192C59.44 170.979 59.7847 170.873 60.1587 170.873C60.782 170.873 61.2403 171.071 61.5337 171.467C61.827 171.856 61.9737 172.439 61.9737 173.216V177H60.9727V173.348C60.9727 172.776 60.881 172.369 60.6977 172.127C60.5217 171.878 60.243 171.753 59.8617 171.753C59.4217 171.753 58.9193 172.057 58.3547 172.666V177H57.3537V173.348C57.3537 172.776 57.262 172.369 57.0787 172.127C56.9027 171.878 56.624 171.753 56.2427 171.753C55.7807 171.753 55.2783 172.057 54.7357 172.666V177H53.7347V171.027H54.5597ZM67.0533 167.727L63.7643 178.419H63.0273L66.3273 167.727H67.0533ZM69.2269 168.244V170.642L69.1939 171.874C69.4725 171.595 69.7695 171.361 70.0849 171.17C70.4002 170.972 70.7632 170.873 71.1739 170.873C71.8192 170.873 72.2849 171.071 72.5709 171.467C72.8569 171.856 72.9999 172.439 72.9999 173.216V177H71.9989V173.348C71.9989 172.776 71.9072 172.369 71.7239 172.127C71.5479 171.878 71.2619 171.753 70.8659 171.753C70.5579 171.753 70.2829 171.83 70.0409 171.984C69.7989 172.138 69.5275 172.365 69.2269 172.666V177H68.2259V168.244H69.2269ZM74.3685 178.21C74.8525 177.411 75.2082 176.571 75.4355 175.691C75.6628 174.811 75.7765 173.887 75.7765 172.919C75.7765 171.951 75.6628 171.027 75.4355 170.147C75.2082 169.267 74.8525 168.427 74.3685 167.628L74.9845 167.342C75.4978 168.163 75.8975 169.029 76.1835 169.938C76.4695 170.847 76.6125 171.841 76.6125 172.919C76.6125 174.004 76.4695 175.002 76.1835 175.911C75.8975 176.82 75.4978 177.686 74.9845 178.507L74.3685 178.21Z" fill="black" fill-opacity="0.87"/>
<rect x="96" y="168" width="10" height="10" fill="#0068E6"/>
<path d="M113.727 171.995V168.453H114.64V171.258H120.503V171.995H113.727ZM117.478 174.217V177.814H116.576V174.217H112.572V173.48H121.537V174.217H117.478ZM130.82 173.854H129.918V171.258H127.993V170.521H129.918V167.947H130.82V173.854ZM128.07 173.469C127.52 173.271 127.04 172.978 126.629 172.589C126.218 172.2 125.903 171.749 125.683 171.236C125.47 171.808 125.148 172.31 124.715 172.743C124.29 173.168 123.787 173.487 123.208 173.7L122.735 172.985C123.102 172.853 123.435 172.677 123.736 172.457C124.044 172.237 124.308 171.984 124.528 171.698C124.748 171.412 124.917 171.104 125.034 170.774C125.159 170.444 125.221 170.103 125.221 169.751V169.355H123.021V168.618H128.29V169.355H126.123V169.751C126.123 170.066 126.182 170.378 126.299 170.686C126.416 170.994 126.578 171.284 126.783 171.555C126.996 171.819 127.249 172.057 127.542 172.27C127.835 172.475 128.162 172.64 128.521 172.765L128.07 173.469ZM130.82 174.393V177.825H129.918V175.119H124.231V174.393H130.82Z" fill="black" fill-opacity="0.87"/>
<rect x="149" y="168" width="10" height="10" fill="#0068E6"/>
<path d="M165.605 169.883V169.157H167.959V167.947H168.861V169.157H171.127V169.883H165.605ZM172.799 167.958H173.712V175.471H172.799V173.381H171.127V172.644H172.799V171.313H171.127V170.576H172.799V167.958ZM170.632 172.303C170.632 172.589 170.577 172.849 170.467 173.084C170.357 173.311 170.203 173.509 170.005 173.678C169.807 173.839 169.572 173.968 169.301 174.063C169.03 174.151 168.729 174.195 168.399 174.195C168.069 174.195 167.768 174.151 167.497 174.063C167.226 173.968 166.991 173.839 166.793 173.678C166.595 173.509 166.441 173.311 166.331 173.084C166.221 172.849 166.166 172.589 166.166 172.303C166.166 172.024 166.221 171.771 166.331 171.544C166.441 171.309 166.595 171.111 166.793 170.95C166.991 170.781 167.226 170.653 167.497 170.565C167.768 170.477 168.069 170.433 168.399 170.433C168.729 170.433 169.03 170.477 169.301 170.565C169.572 170.653 169.807 170.781 170.005 170.95C170.203 171.111 170.357 171.309 170.467 171.544C170.577 171.771 170.632 172.024 170.632 172.303ZM167.024 172.303C167.024 172.655 167.149 172.941 167.398 173.161C167.647 173.381 167.981 173.491 168.399 173.491C168.817 173.491 169.151 173.381 169.4 173.161C169.649 172.941 169.774 172.655 169.774 172.303C169.774 171.951 169.649 171.669 169.4 171.456C169.151 171.243 168.817 171.137 168.399 171.137C167.981 171.137 167.647 171.243 167.398 171.456C167.149 171.669 167.024 171.951 167.024 172.303ZM173.943 177.594H167.365V174.833H168.267V176.857H173.943V177.594ZM184.117 177.814H183.248V172.677H181.95V177.33H181.103V168.167H181.95V171.929H183.248V167.936H184.117V177.814ZM178.617 170.62C178.617 171.075 178.661 171.511 178.749 171.929C178.837 172.347 178.969 172.736 179.145 173.095C179.321 173.447 179.541 173.766 179.805 174.052C180.069 174.331 180.377 174.562 180.729 174.745L180.201 175.438C179.717 175.167 179.306 174.804 178.969 174.349C178.632 173.894 178.375 173.37 178.199 172.776C177.854 174.162 177.172 175.163 176.153 175.779L175.603 175.097C175.955 174.899 176.263 174.65 176.527 174.349C176.798 174.041 177.022 173.696 177.198 173.315C177.381 172.926 177.517 172.505 177.605 172.05C177.7 171.595 177.748 171.119 177.748 170.62V169.85H175.834V169.113H180.41V169.85H178.617V170.62Z" fill="black" fill-opacity="0.87"/>
</svg>
