<svg width="20" height="20" viewBox="0 0 20 20" fill="none" xmlns="http://www.w3.org/2000/svg">
<mask id="mask0_494_13177" style="mask-type:luminance" maskUnits="userSpaceOnUse" x="0" y="0" width="20" height="20">
<path d="M20 0H0V20H20V0Z" fill="white"/>
</mask>
<g mask="url(#mask0_494_13177)">
<path d="M5.69922 16.001V4.00103H10.0092C11.2425 3.92124 12.471 4.21732 13.5326 4.8502C13.9265 5.12451 14.2441 5.49474 14.4552 5.9259C14.6664 6.35706 14.7641 6.83493 14.7392 7.31437C14.7559 7.87521 14.6069 8.42853 14.3109 8.9052C14.0078 9.35812 13.5651 9.69962 13.0501 9.8777C13.6234 10.0084 14.1334 10.3345 14.4926 10.8002C14.8357 11.2798 15.0114 11.8591 14.9926 12.4485C15.0278 12.9469 14.9451 13.4466 14.7511 13.907C14.557 14.3675 14.2572 14.7757 13.8759 15.0985C12.903 15.7565 11.7397 16.0738 10.5676 16.001H5.69922ZM8.59172 9.00103H10.0992C10.575 9.03991 11.0501 8.91878 11.4492 8.65687C11.5878 8.53157 11.6962 8.37649 11.7662 8.20328C11.8362 8.03008 11.866 7.84326 11.8534 7.65687C11.8726 7.4526 11.843 7.24669 11.7669 7.05615C11.6908 6.86561 11.5705 6.69589 11.4159 6.56103C10.9932 6.30372 10.4999 6.18702 10.0067 6.2277H8.59005L8.59172 9.00103ZM8.59172 10.8969V13.7735H10.4876C10.9183 13.8029 11.3453 13.6766 11.6909 13.4177C11.8318 13.2917 11.9425 13.1355 12.0146 12.9608C12.0868 12.786 12.1185 12.5973 12.1076 12.4085C12.1362 12.2052 12.1175 11.998 12.0529 11.8032C11.9884 11.6083 11.8797 11.4309 11.7353 11.2849C11.5909 11.1389 11.4148 11.0283 11.2206 10.9615C11.0265 10.8948 10.8195 10.8738 10.6159 10.9002L8.59172 10.8969Z" fill="white"/>
</g>
</svg>
