<svg width="48" height="48" viewBox="0 0 48 48" fill="none" xmlns="http://www.w3.org/2000/svg">
<path d="M24 40C32.8366 40 40 32.8366 40 24C40 15.1634 32.8366 8 24 8C15.1634 8 8 15.1634 8 24C8 32.8366 15.1634 40 24 40Z" fill="#009961"/>
<path d="M8.5 24C8.5 15.4396 15.4396 8.5 24 8.5C32.5604 8.5 39.5 15.4396 39.5 24C39.5 32.5604 32.5604 39.5 24 39.5C15.4396 39.5 8.5 32.5604 8.5 24Z" stroke="black" stroke-opacity="0.3"/>
<path d="M22.308 18.6406V24.1486H21.072V18.6406H22.308ZM19.272 21.4486C19.272 21.8086 19.2 22.1366 19.056 22.4326C18.912 22.7286 18.712 22.9846 18.456 23.2006C18.208 23.4166 17.908 23.5846 17.556 23.7046C17.204 23.8246 16.824 23.8846 16.416 23.8846C16.008 23.8846 15.632 23.8246 15.288 23.7046C14.944 23.5846 14.644 23.4166 14.388 23.2006C14.14 22.9846 13.944 22.7286 13.8 22.4326C13.656 22.1366 13.584 21.8086 13.584 21.4486C13.584 21.0886 13.656 20.7606 13.8 20.4646C13.944 20.1606 14.14 19.9006 14.388 19.6846C14.644 19.4686 14.944 19.3006 15.288 19.1806C15.632 19.0606 16.008 19.0006 16.416 19.0006C16.824 19.0006 17.204 19.0606 17.556 19.1806C17.908 19.3006 18.208 19.4686 18.456 19.6846C18.712 19.9006 18.912 20.1606 19.056 20.4646C19.2 20.7606 19.272 21.0886 19.272 21.4486ZM14.784 21.4486C14.784 21.6646 14.824 21.8606 14.904 22.0366C14.992 22.2126 15.108 22.3646 15.252 22.4926C15.396 22.6126 15.568 22.7086 15.768 22.7806C15.968 22.8446 16.184 22.8766 16.416 22.8766C16.896 22.8766 17.292 22.7486 17.604 22.4926C17.916 22.2286 18.072 21.8806 18.072 21.4486C18.072 21.0166 17.916 20.6726 17.604 20.4166C17.292 20.1526 16.896 20.0206 16.416 20.0206C16.184 20.0206 15.968 20.0566 15.768 20.1286C15.568 20.1926 15.396 20.2886 15.252 20.4166C15.108 20.5366 14.992 20.6846 14.904 20.8606C14.824 21.0366 14.784 21.2326 14.784 21.4486ZM16.44 28.3846H22.632V29.3566H15.228V26.5126H21.084V25.6126H15.204V24.6406H22.308V27.4246H16.44V28.3846Z" fill="white"/>
<path d="M32.879 21.8446H34.415V22.8646H32.879V26.6206H31.643V18.6646H32.879V21.8446ZM29.903 19.4326V24.8686H24.791V19.4326H26.027V21.1246H28.679V19.4326H29.903ZM28.679 23.8726V22.0846H26.027V23.8726H28.679ZM27.263 25.8526V28.2766H33.311V29.2846H26.015V25.8526H27.263Z" fill="white"/>
</svg>
