<svg width="48" height="48" viewBox="0 0 48 48" fill="none" xmlns="http://www.w3.org/2000/svg">
<g clip-path="url(#clip0_200_4420)">
<path d="M24 9C15.7157 9 9 15.7157 9 24C9 32.2843 15.7157 39 24 39C32.2843 39 39 32.2843 39 24C39 15.7157 32.2843 9 24 9Z" fill="#0068E6"/>
<path d="M24 4.5C13.2304 4.5 4.5 13.2304 4.5 24C4.5 34.7696 13.2304 43.5 24 43.5C34.7696 43.5 43.5 34.7696 43.5 24C43.5 13.2304 34.7696 4.5 24 4.5Z" stroke="#27D4FF" stroke-opacity="0.4" stroke-width="9"/>
<path d="M24 9C15.7157 9 9 15.7157 9 24C9 32.2843 15.7157 39 24 39C32.2843 39 39 32.2843 39 24C39 15.7157 32.2843 9 24 9Z" fill="#0068E6"/>
<path d="M24 6.5C14.335 6.5 6.5 14.335 6.5 24C6.5 33.665 14.335 41.5 24 41.5C33.665 41.5 41.5 33.665 41.5 24C41.5 14.335 33.665 6.5 24 6.5Z" stroke="#27D4FF" stroke-opacity="0.4" stroke-width="5"/>
<path d="M24 9C15.7157 9 9 15.7157 9 24C9 32.2843 15.7157 39 24 39C32.2843 39 39 32.2843 39 24C39 15.7157 32.2843 9 24 9Z" fill="#008C69"/>
<path d="M24 8.5C15.4396 8.5 8.5 15.4396 8.5 24C8.5 32.5604 15.4396 39.5 24 39.5C32.5604 39.5 39.5 32.5604 39.5 24C39.5 15.4396 32.5604 8.5 24 8.5Z" stroke="#27D4FF"/>
<path d="M22.7242 24.508H21.4842V19H22.7242V24.508ZM19.6842 21.808C19.6886 22.1482 19.6147 22.4849 19.4682 22.792C19.3255 23.0863 19.1232 23.3479 18.8742 23.56C18.6069 23.783 18.2993 23.9527 17.9682 24.06C17.6007 24.1825 17.2155 24.2433 16.8282 24.24C16.4463 24.2449 16.0663 24.1854 15.7042 24.064C15.3775 23.9548 15.0742 23.7852 14.8102 23.564C14.5612 23.3519 14.3589 23.0903 14.2162 22.796C14.0697 22.4889 13.9958 22.1522 14.0002 21.812C13.9963 21.4699 14.0701 21.1314 14.2162 20.822C14.3577 20.5252 14.5601 20.2615 14.8102 20.048C15.0742 19.8268 15.3775 19.6572 15.7042 19.548C16.0673 19.4248 16.4487 19.364 16.8322 19.368C17.2195 19.3647 17.6047 19.4255 17.9722 19.548C18.3033 19.6553 18.6109 19.825 18.8782 20.048C19.1283 20.2615 19.3306 20.5252 19.4722 20.822C19.6163 21.1305 19.6888 21.4676 19.6842 21.808ZM15.1962 21.808C15.1934 22.011 15.2364 22.212 15.3222 22.396C15.4034 22.5683 15.5199 22.7216 15.6642 22.846C15.8172 22.9748 15.9938 23.0727 16.1842 23.134C16.3932 23.2028 16.6122 23.2365 16.8322 23.234C17.2622 23.2508 17.6838 23.1123 18.0202 22.844C18.1718 22.7185 18.2925 22.5598 18.373 22.3801C18.4535 22.2005 18.4915 22.0047 18.4842 21.808C18.4913 21.6106 18.4528 21.4143 18.3716 21.2342C18.2905 21.0542 18.1688 20.8953 18.0162 20.77C17.6798 20.5017 17.2582 20.3632 16.8282 20.38C16.6082 20.3775 16.3892 20.4112 16.1802 20.48C15.9912 20.5418 15.816 20.6396 15.6642 20.768C15.5199 20.8924 15.4034 21.0457 15.3222 21.218C15.2375 21.4029 15.1958 21.6046 15.2002 21.808H15.1962ZM23.0482 28.744V29.716H15.6442V26.872H21.5002V25.972H15.6202V25H22.7202V27.784H16.8562V28.744H23.0482ZM34.8322 22.204V23.224H33.2962V26.98H32.0602V19.024H33.2962V22.204H34.8322ZM30.3202 25.224H25.2082V19.792H26.4442V21.484H29.0962V19.792H30.3202V25.224ZM29.0962 22.444H26.4442V24.232H29.0962V22.444ZM27.6842 28.636H33.7322V29.644H26.4322V26.212H27.6842V28.636Z" fill="white"/>
</g>
<defs>
<clipPath id="clip0_200_4420">
<rect width="48" height="48" fill="white"/>
</clipPath>
</defs>
</svg>
