<svg width="20" height="20" viewBox="0 0 20 20" fill="none" xmlns="http://www.w3.org/2000/svg">
<mask id="mask0_392_8587" style="mask-type:luminance" maskUnits="userSpaceOnUse" x="0" y="0" width="20" height="20">
<path d="M20 0H0V20H20V0Z" fill="white"/>
</mask>
<g mask="url(#mask0_392_8587)">
<path d="M14.8703 13.0518C14.2491 13.7233 13.4959 14.2592 12.658 14.6261C11.8201 14.993 10.9154 15.1829 10.0007 15.184C9.08593 15.185 8.18084 14.9971 7.34208 14.6321C6.50332 14.2671 5.74897 13.7329 5.12627 13.0628C5.08897 13.0229 5.04418 12.9907 4.99445 12.9681C4.94471 12.9455 4.89101 12.9329 4.83641 12.931C4.78181 12.9292 4.72738 12.9381 4.67622 12.9573C4.62507 12.9764 4.57819 13.0055 4.53827 13.0428C4.49835 13.0801 4.46616 13.1249 4.44355 13.1746C4.42094 13.2244 4.40835 13.2781 4.40649 13.3327C4.40463 13.3873 4.41355 13.4417 4.43273 13.4929C4.45191 13.544 4.48097 13.5909 4.51827 13.6308C5.21575 14.3865 6.06272 14.9889 7.00541 15.3998C7.9481 15.8107 8.96592 16.0212 9.99427 16.0178C11.0243 16.0148 12.0428 15.8002 12.9865 15.3874C13.9301 14.9746 14.779 14.3722 15.4803 13.6178C15.5198 13.5782 15.551 13.531 15.5719 13.4791C15.5928 13.4272 15.6031 13.3716 15.602 13.3156C15.601 13.2596 15.5887 13.2044 15.5659 13.1533C15.5431 13.1022 15.5102 13.0562 15.4693 13.0181C15.4283 12.9799 15.3801 12.9504 15.3275 12.9313C15.2749 12.9122 15.2189 12.9039 15.163 12.9068C15.1071 12.9098 15.0524 12.924 15.0021 12.9485C14.9518 12.9731 14.907 13.0075 14.8703 13.0498" fill="#27D4FF"/>
<path d="M5.98758 11.4566C5.90689 11.5321 5.85946 11.6366 5.85571 11.747C5.85196 11.8574 5.8922 11.9648 5.96758 12.0456C6.48151 12.6013 7.10528 13.0442 7.79936 13.3461C8.49344 13.6481 9.24268 13.8025 9.99958 13.7996C10.7571 13.7977 11.5061 13.6401 12.2002 13.3366C12.8943 13.0332 13.5187 12.5904 14.0346 12.0356C14.1055 11.954 14.1419 11.8481 14.1362 11.7401C14.1305 11.6322 14.083 11.5307 14.0039 11.457C13.9248 11.3833 13.8202 11.3433 13.7121 11.3453C13.604 11.3472 13.5009 11.3911 13.4246 11.4676C12.9883 11.9395 12.4592 12.3161 11.8705 12.5739C11.2818 12.8316 10.6463 12.965 10.0036 12.9657C9.36097 12.9664 8.72512 12.8343 8.13591 12.5777C7.54671 12.3211 7.01686 11.9456 6.57958 11.4746C6.50368 11.3947 6.39938 11.3477 6.28918 11.344C6.17898 11.3403 6.07173 11.38 5.99058 11.4546" fill="#27D4FF"/>
<path d="M12.4566 10.4813C12.5275 10.3997 12.5639 10.2937 12.5582 10.1858C12.5525 10.0778 12.5051 9.97631 12.426 9.90264C12.3468 9.82898 12.2422 9.78891 12.1341 9.79089C12.0261 9.79288 11.923 9.83675 11.8466 9.91327C11.6067 10.1603 11.3197 10.3567 11.0025 10.4908C10.6853 10.6249 10.3445 10.694 10.0001 10.694C9.65576 10.694 9.3149 10.6249 8.99773 10.4908C8.68056 10.3567 8.39352 10.1603 8.15361 9.91327C8.11632 9.87335 8.07152 9.84116 8.02179 9.81855C7.97206 9.79594 7.91836 9.78335 7.86375 9.78149C7.80915 9.77963 7.75472 9.78855 7.70357 9.80773C7.65241 9.82691 7.60553 9.85597 7.56561 9.89327C7.52569 9.93057 7.49351 9.97536 7.4709 10.0251C7.44828 10.0748 7.43569 10.1285 7.43383 10.1831C7.43198 10.2377 7.44089 10.2922 7.46007 10.3433C7.47925 10.3945 7.50832 10.4413 7.54561 10.4813C7.85781 10.8209 8.23734 11.0919 8.66002 11.2768C9.0827 11.4617 9.53926 11.5565 10.0006 11.5553C10.462 11.5542 10.9183 11.4583 11.3411 11.2735C11.764 11.0888 12.1443 10.8191 12.4586 10.4813" fill="#27D4FF"/>
<path d="M15 4H5C4.46957 4 3.96086 4.21071 3.58579 4.58579C3.21071 4.96086 3 5.46957 3 6C3 6.53043 3.21071 7.03914 3.58579 7.41421C3.96086 7.78929 4.46957 8 5 8H15C15.5304 8 16.0391 7.78929 16.4142 7.41421C16.7893 7.03914 17 6.53043 17 6C17 5.46957 16.7893 4.96086 16.4142 4.58579C16.0391 4.21071 15.5304 4 15 4ZM5 6.75C4.85166 6.75 4.70666 6.70601 4.58332 6.6236C4.45999 6.54119 4.36386 6.42406 4.30709 6.28701C4.25032 6.14997 4.23547 5.99917 4.26441 5.85368C4.29335 5.7082 4.36478 5.57456 4.46967 5.46967C4.57456 5.36478 4.7082 5.29335 4.85368 5.26441C4.99917 5.23547 5.14997 5.25032 5.28701 5.30709C5.42406 5.36386 5.54119 5.45999 5.6236 5.58332C5.70601 5.70666 5.75 5.85166 5.75 6C5.75 6.19891 5.67098 6.38968 5.53033 6.53033C5.38968 6.67098 5.19891 6.75 5 6.75ZM7 6.75C6.85166 6.75 6.70666 6.70601 6.58332 6.6236C6.45999 6.54119 6.36386 6.42406 6.30709 6.28701C6.25032 6.14997 6.23547 5.99917 6.26441 5.85368C6.29335 5.7082 6.36478 5.57456 6.46967 5.46967C6.57456 5.36478 6.7082 5.29335 6.85368 5.26441C6.99917 5.23547 7.14997 5.25032 7.28701 5.30709C7.42406 5.36386 7.54119 5.45999 7.6236 5.58332C7.70601 5.70666 7.75 5.85166 7.75 6C7.75 6.19891 7.67098 6.38968 7.53033 6.53033C7.38968 6.67098 7.19891 6.75 7 6.75ZM14.75 6.75H10.25C10.0511 6.75 9.86032 6.67098 9.71967 6.53033C9.57902 6.38968 9.5 6.19891 9.5 6C9.5 5.80109 9.57902 5.61032 9.71967 5.46967C9.86032 5.32902 10.0511 5.25 10.25 5.25H14.75C14.9489 5.25 15.1397 5.32902 15.2803 5.46967C15.421 5.61032 15.5 5.80109 15.5 6C15.5 6.19891 15.421 6.38968 15.2803 6.53033C15.1397 6.67098 14.9489 6.75 14.75 6.75Z" fill="#27D4FF"/>
</g>
</svg>
