<svg width="48" height="48" viewBox="0 0 48 48" fill="none" xmlns="http://www.w3.org/2000/svg">
<path d="M24 40C32.8366 40 40 32.8366 40 24C40 15.1634 32.8366 8 24 8C15.1634 8 8 15.1634 8 24C8 32.8366 15.1634 40 24 40Z" fill="#F0A800"/>
<path d="M8.5 24C8.5 15.4396 15.4396 8.5 24 8.5C32.5604 8.5 39.5 15.4396 39.5 24C39.5 32.5604 32.5604 39.5 24 39.5C15.4396 39.5 8.5 32.5604 8.5 24Z" stroke="black" stroke-opacity="0.3"/>
<path d="M23.4717 22.8102V23.8302H21.7797V29.4222H20.5437V18.5742H21.7797V22.8102H23.4717ZM13.7637 26.7102V19.6302H18.8397V26.7102H13.7637ZM14.9877 20.6142V25.7262H17.6157V20.6142H14.9877Z" fill="white"/>
<path d="M29.3267 22.4742C28.0707 22.4742 27.1107 22.3142 26.4467 21.9942C25.7907 21.6742 25.4627 21.2142 25.4627 20.6142C25.4627 20.0062 25.7907 19.5422 26.4467 19.2222C27.1107 18.9022 28.0707 18.7422 29.3267 18.7422C30.5747 18.7422 31.5307 18.9022 32.1947 19.2222C32.8587 19.5422 33.1907 20.0062 33.1907 20.6142C33.1907 21.2142 32.8587 21.6742 32.1947 21.9942C31.5307 22.3142 30.5747 22.4742 29.3267 22.4742ZM29.3267 19.6662C28.4787 19.6662 27.8347 19.7462 27.3947 19.9062C26.9627 20.0662 26.7467 20.3022 26.7467 20.6142C26.7467 20.9182 26.9627 21.1502 27.3947 21.3102C27.8347 21.4702 28.4787 21.5502 29.3267 21.5502C30.1747 21.5502 30.8147 21.4702 31.2467 21.3102C31.6867 21.1502 31.9067 20.9182 31.9067 20.6142C31.9067 20.3022 31.6867 20.0662 31.2467 19.9062C30.8147 19.7462 30.1747 19.6662 29.3267 19.6662ZM24.4187 23.1102H34.2347V24.0942H24.4187V23.1102ZM26.8307 27.4662V28.3662H33.3107V29.3142H25.6067V26.5902H31.7867V25.8102H25.5827V24.8742H32.9987V27.4662H26.8307Z" fill="white"/>
</svg>
