<svg width="56" height="56" viewBox="0 0 56 56" fill="none" xmlns="http://www.w3.org/2000/svg">
<path d="M41.1368 42C41.6905 42.0143 42.238 41.8791 42.7218 41.6094C43.2056 41.3396 43.6079 40.9453 43.8868 40.4668C44.1657 39.9882 44.3109 39.4426 44.3072 38.8887C44.3035 38.3348 44.1511 37.7931 43.8658 37.3184L30.3927 15.5C30.1015 15.0236 29.6872 14.6348 29.193 14.375C28.7203 14.1273 28.1944 13.998 27.6607 13.998C27.3956 13.9983 27.1314 14.0315 26.8746 14.0977C26.617 14.1596 26.3684 14.2536 26.1339 14.377C25.6399 14.6371 25.2251 15.0257 24.9337 15.502L11.4547 37.3203C11.1694 37.7951 11.017 38.3367 11.0133 38.8906C11.0096 39.4445 11.1548 39.9902 11.4337 40.4688C11.7126 40.9473 12.1149 41.3416 12.5987 41.6113C13.0825 41.8811 13.63 42.0162 14.1837 42.002H41.1407M41.1407 47.002H14.1837C12.6838 47.0049 11.2117 46.5985 9.92588 45.8262C8.71109 45.0936 7.70823 44.057 7.0167 42.8184C6.31734 41.5716 5.96578 40.1597 5.99814 38.7305C6.03051 37.3013 6.4457 35.9072 7.20078 34.6934L20.6798 12.875C21.4425 11.6381 22.523 10.6285 23.8087 9.95117C24.9983 9.3292 26.3203 9.00282 27.6627 9C29.0045 9.00139 30.3262 9.3265 31.5157 9.94727H31.5216C32.8061 10.626 33.8855 11.6361 34.6476 12.873L48.1246 34.6895C48.8797 35.9033 49.2954 37.2974 49.3277 38.7266C49.3601 40.1557 49.008 41.5676 48.3087 42.8145C47.6172 44.0531 46.6148 45.0897 45.4 45.8223C44.1129 46.5962 42.6386 47.0033 41.1368 47L41.1407 47.002Z" fill="#27D4FF" fill-opacity="0.4"/>
<path d="M41.1373 42.002C41.6911 42.0163 42.2385 41.8812 42.7223 41.6114C43.2061 41.3417 43.6084 40.9474 43.8873 40.4688C44.1663 39.9903 44.3114 39.4446 44.3077 38.8907C44.304 38.3368 44.1516 37.7952 43.8663 37.3204L30.3932 15.502C30.1021 15.0256 29.6877 14.6369 29.1935 14.377C28.4821 13.9999 27.6556 13.9001 26.8751 14.0977C26.6175 14.1597 26.3689 14.2537 26.1344 14.377C25.6404 14.6371 25.2256 15.0258 24.9342 15.502L11.4552 37.3204C11.1699 37.7952 11.0175 38.3368 11.0138 38.8907C11.0101 39.4446 11.1553 39.9903 11.4342 40.4688C11.7131 40.9474 12.1155 41.3417 12.5992 41.6114C13.083 41.8812 13.6305 42.0163 14.1842 42.002H41.1412M41.1412 51.002H14.1842C12.0132 51.0051 9.88085 50.4283 8.00695 49.3321C6.13305 48.2359 4.58533 46.6596 3.52404 44.7657C2.48241 42.8953 1.95879 40.7811 2.00695 38.6407C2.05512 36.5004 2.67374 34.4116 3.79846 32.5899L17.2775 10.7716C18.4163 8.92706 20.0289 7.42138 21.9474 6.4122L22.9474 5.88876L24.7862 5.34579C25.7279 5.11358 26.6944 4.99634 27.6642 5.00009C29.6524 5.00098 31.611 5.48161 33.3741 6.40048C35.2971 7.41339 36.9135 8.92356 38.0543 10.7735L51.5294 32.588C52.6541 34.4096 53.2723 36.4984 53.3204 38.6388C53.3686 40.7791 52.845 42.8933 51.8033 44.7638C50.7419 46.6591 49.1936 48.2353 47.3185 49.3321C45.4434 50.4289 43.3096 51.0059 41.1373 51.002H41.1412Z" fill="#27D4FF" fill-opacity="0.4"/>
<path d="M41.1384 42.002C43.614 42.002 45.1409 39.3809 43.8679 37.3203L30.3894 15.502C30.0798 15 29.6638 14.625 29.1921 14.377C28.7151 14.127 28.1877 14 27.6599 14C27.3962 14 27.1326 14.0312 26.8738 14.0977C26.6204 14.1582 26.3664 14.2539 26.1331 14.377C25.6614 14.625 25.2405 15 24.9309 15.502L11.4524 37.3203C10.1794 39.3809 11.7063 42.002 14.1819 42.002H41.1384ZM41.1384 43.002H14.1819C12.6267 43.002 11.2532 42.2051 10.5085 40.8691C9.78832 39.5781 9.82348 38.0547 10.6018 36.7949L24.0803 14.9766C24.468 14.3477 25.0168 13.834 25.6677 13.4922C25.9695 13.332 26.3035 13.207 26.6335 13.127C26.9646 13.043 27.3098 13 27.6599 13C28.3528 13 29.0432 13.1699 29.6565 13.4922C30.3035 13.832 30.8508 14.3457 31.2405 14.9766L44.7185 36.7949C45.4968 38.0547 45.532 39.5781 44.8118 40.8691C44.0671 42.2051 42.6936 43.002 41.1384 43.002Z" fill="#27D4FF"/>
<path d="M28.6924 16.554C28.5798 16.3843 28.427 16.245 28.2475 16.1486C28.0681 16.0523 27.8676 16.0019 27.6639 16.0019C27.4602 16.0019 27.2597 16.0523 27.0802 16.1486C26.9007 16.245 26.7479 16.3843 26.6354 16.554L13.1574 38.371C13.0577 38.5245 13.0027 38.7027 12.9985 38.8856C12.9942 39.0686 13.0409 39.2491 13.1334 39.407C13.2373 39.5934 13.3905 39.7475 13.5763 39.8525C13.762 39.9574 13.9731 40.0092 14.1864 40.002H41.1424C41.3556 40.0088 41.5665 39.957 41.7522 39.852C41.9379 39.7471 42.0912 39.5932 42.1954 39.407C42.2877 39.249 42.3342 39.0684 42.3298 38.8855C42.3254 38.7025 42.2702 38.5244 42.1704 38.371L28.6924 16.554Z" fill="black"/>
<path d="M43.8724 37.32L30.3974 15.502C30.1059 15.0254 29.6914 14.636 29.1974 14.375C28.4856 14.004 27.6633 13.9041 26.8834 14.094C26.6246 14.1563 26.3747 14.2507 26.1394 14.375C25.6454 14.636 25.2308 15.0254 24.9394 15.502L11.4564 37.32C11.1714 37.7949 11.0192 38.3377 11.0157 38.8915C11.0122 39.4454 11.1575 39.99 11.4365 40.4685C11.7155 40.947 12.1179 41.3417 12.6016 41.6115C13.0854 41.8812 13.6327 42.0161 14.1864 42.002H41.1424C41.6961 42.0161 42.2434 41.8812 42.7271 41.6115C43.2108 41.3417 43.6132 40.947 43.8922 40.4685C44.1712 39.99 44.3165 39.4454 44.313 38.8915C44.3096 38.3377 44.1574 37.7949 43.8724 37.32ZM42.1974 39.407C42.0932 39.5936 41.9396 39.7479 41.7535 39.8528C41.5674 39.9578 41.3559 40.0094 41.1424 40.002H14.1864C13.9731 40.0092 13.762 39.9574 13.5763 39.8525C13.3905 39.7475 13.2373 39.5934 13.1334 39.407C13.0409 39.2491 12.9942 39.0686 12.9985 38.8856C13.0027 38.7027 13.0577 38.5245 13.1574 38.371L26.6354 16.554C26.7479 16.3843 26.9007 16.245 27.0802 16.1486C27.2597 16.0523 27.4602 16.0019 27.6639 16.0019C27.8676 16.0019 28.0681 16.0523 28.2475 16.1486C28.427 16.245 28.5798 16.3843 28.6924 16.554L42.1704 38.371C42.2702 38.5244 42.3254 38.7025 42.3298 38.8855C42.3342 39.0684 42.2877 39.249 42.1954 39.407" fill="#FFE043"/>
<path d="M30.9545 31.831L29.4375 29.094C29.2894 28.8502 29.0659 28.6613 28.8008 28.5559C28.5357 28.4506 28.2435 28.4344 27.9685 28.51L21.0215 30.418C20.7464 30.4935 20.5034 30.6565 20.3292 30.8824C20.1551 31.1083 20.0594 31.3848 20.0565 31.67L20.1515 34.795C19.9057 34.9412 19.7146 35.1639 19.6073 35.429C19.5 35.6941 19.4825 35.987 19.5575 36.263L20.2525 38.794C20.3133 39.0152 20.4315 39.2165 20.5949 39.3775C20.7584 39.5384 20.9614 39.6535 21.1835 39.711L21.4055 40.52C21.4515 40.6878 21.5623 40.8303 21.7134 40.9164C21.8646 41.0025 22.0437 41.025 22.2115 40.979L22.8445 40.806C23.0123 40.7597 23.155 40.6488 23.2412 40.4976C23.3274 40.3463 23.3502 40.167 23.3045 39.999L23.1305 39.363L30.7245 37.279L30.8975 37.912C30.9437 38.0798 31.0547 38.2224 31.206 38.3085C31.3573 38.3945 31.5366 38.417 31.7045 38.371L32.3365 38.198C32.5045 38.152 32.6473 38.0411 32.7335 37.8898C32.8198 37.7384 32.8424 37.559 32.7965 37.391L32.5745 36.583C32.7363 36.4201 32.8524 36.2174 32.911 35.9953C32.9696 35.7732 32.9688 35.5396 32.9085 35.318L32.2145 32.787C32.138 32.5115 31.9734 32.2686 31.7459 32.0954C31.5184 31.9222 31.2404 31.8283 30.9545 31.828M21.8675 31.546L27.8205 29.913C27.9624 29.8742 28.1133 29.8841 28.2489 29.9412C28.3846 29.9983 28.4971 30.0993 28.5685 30.228L29.6265 32.14L21.4515 34.382L21.3855 32.202C21.3809 32.0549 21.4259 31.9105 21.5134 31.792C21.6008 31.6736 21.7255 31.588 21.8675 31.549M22.2925 37.557C22.1048 37.6084 21.9061 37.603 21.7215 37.5415C21.537 37.4799 21.3747 37.3651 21.2554 37.2114C21.1361 37.0577 21.065 36.8721 21.0512 36.678C21.0373 36.4839 21.0813 36.2901 21.1776 36.121C21.2739 35.952 21.4181 35.8152 21.5921 35.7281C21.7661 35.641 21.9619 35.6074 22.155 35.6316C22.3481 35.6558 22.5296 35.7366 22.6767 35.864C22.8238 35.9913 22.9299 36.1594 22.9815 36.347C23.0504 36.5989 23.0166 36.8678 22.8874 37.0946C22.7582 37.3215 22.5442 37.4878 22.2925 37.557ZM30.5195 35.302C30.3318 35.3536 30.1331 35.3484 29.9484 35.287C29.7638 35.2256 29.6014 35.1109 29.482 34.9573C29.3625 34.8036 29.2913 34.6181 29.2773 34.424C29.2633 34.2299 29.3072 34.036 29.4034 33.8668C29.4995 33.6977 29.6437 33.5608 29.8177 33.4736C29.9916 33.3864 30.1875 33.3527 30.3806 33.3768C30.5737 33.4009 30.7554 33.4817 30.9025 33.609C31.0497 33.7363 31.1558 33.9044 31.2075 34.092C31.2418 34.2167 31.2512 34.3468 31.2352 34.4751C31.2192 34.6033 31.178 34.7272 31.1141 34.8396C31.0503 34.9519 30.9649 35.0506 30.8628 35.13C30.7608 35.2093 30.6441 35.2678 30.5195 35.302Z" fill="#FFE043"/>
<path d="M29.9555 28.433L30.2945 26.207L31.2375 27.659L33.9965 26.208L32.6665 28.797L33.9975 29.497L32.5465 30.272L33.9965 32.208L31.7965 31.333L29.9555 28.433Z" fill="#FFE043"/>
</svg>
