<svg width="20" height="20" viewBox="0 0 20 20" fill="none" xmlns="http://www.w3.org/2000/svg">
<path d="M15.9 9.019L14.964 4.827C14.717 4.144 14.3 3 13 3H7C6.074 3 5.358 3.682 5.032 4.89L4.1 9.008C3.283 9.051 2 9.318 2 11V15.5C2 15.6326 2.05268 15.7598 2.14645 15.8536C2.24021 15.9473 2.36739 16 2.5 16H4.765C4.78296 16.3154 4.9209 16.612 5.15053 16.8289C5.38017 17.0458 5.6841 17.1667 6 17.1667C6.3159 17.1667 6.61983 17.0458 6.84947 16.8289C7.0791 16.612 7.21704 16.3154 7.235 16H12.765C12.783 16.3154 12.9209 16.612 13.1505 16.8289C13.3802 17.0458 13.6841 17.1667 14 17.1667C14.3159 17.1667 14.6198 17.0458 14.8495 16.8289C15.0791 16.612 15.217 16.3154 15.235 16H17.5C17.6326 16 17.7598 15.9473 17.8536 15.8536C17.9473 15.7598 18 15.6326 18 15.5V11C18 9.878 17.208 9.143 15.9 9.019ZM6 5.131C6.116 4.708 6.4 4 7 4H13C13.512 4 13.731 4.362 14.012 5.108L14.1 5.5H5.918L6 5.131ZM5.692 6.5H14.321L14.877 9H5.126L5.692 6.5ZM17 15H3V11C3 10.145 3.463 10 4.5 10H15.5C16.061 10 17 10.13 17 11V15Z" fill="white"/>
<path d="M5.47924 11.6289C5.24798 11.6316 5.02723 11.726 4.86558 11.8914C4.70392 12.0568 4.61459 12.2796 4.61724 12.5109C4.6199 12.7422 4.71431 12.9629 4.87972 13.1246C5.04513 13.2862 5.26798 13.3756 5.49924 13.3729H5.51824C5.69023 13.3686 5.8571 13.3136 5.99787 13.2147C6.13863 13.1158 6.24699 12.9774 6.30931 12.8171C6.37164 12.6567 6.38514 12.4815 6.34811 12.3135C6.31109 12.1455 6.2252 11.9922 6.10124 11.8729C5.92785 11.7235 5.70807 11.6387 5.47924 11.6329" fill="white"/>
<path d="M14.5017 11.6367C14.3308 11.6365 14.1636 11.6871 14.0213 11.7819C13.8791 11.8768 13.7682 12.0117 13.7027 12.1696C13.6372 12.3275 13.62 12.5013 13.6533 12.669C13.6866 12.8367 13.7689 12.9908 13.8898 13.1117C14.0107 13.2326 14.1647 13.3149 14.3324 13.3482C14.5001 13.3815 14.6739 13.3643 14.8318 13.2988C14.9897 13.2332 15.1247 13.1223 15.2195 12.9801C15.3144 12.8379 15.3649 12.6707 15.3647 12.4997C15.3645 12.2709 15.2734 12.0516 15.1117 11.8898C14.9499 11.728 14.7305 11.637 14.5017 11.6367Z" fill="white"/>
</svg>
