<svg xmlns="http://www.w3.org/2000/svg" xmlns:xlink="http://www.w3.org/1999/xlink" width="320" height="182.143" viewBox="0 0 320 182.143">
  <defs>
    <filter id="패스_5368" x="0" y="0" width="320" height="182.143" filterUnits="userSpaceOnUse">
      <feOffset input="SourceAlpha"/>
      <feGaussianBlur stdDeviation="10" result="blur"/>
      <feFlood flood-color="#27d4ff" flood-opacity="0.2" result="color"/>
      <feComposite operator="out" in="SourceGraphic" in2="blur"/>
      <feComposite operator="in" in="color"/>
      <feComposite operator="in" in2="SourceGraphic"/>
    </filter>
  </defs>
  <g data-type="innerShadowGroup">
    <g id="패스_5368-2" data-name="패스 5368" transform="translate(0 -35)" fill="#090A1366">
      <path d="M 272.4617309570312 216.6429138183594 L 0.5 216.6429138183594 L 0.5 35.49999237060547 L 319.5 35.49999237060547 L 319.5 174.4706268310547 L 272.4617309570312 216.6429138183594 Z" stroke="none"/>
      <path d="M 1 35.99998474121094 L 1 216.1429138183594 L 272.2704162597656 216.1429138183594 L 319 174.2473907470703 L 319 35.99998474121094 L 1 35.99998474121094 M 0 34.99998474121094 L 320 34.99998474121094 L 320 174.6939086914062 L 272.653076171875 217.1429138183594 L 0 217.1429138183594 L 0 34.99998474121094 Z" stroke="none"/>
    </g>
    <g transform="matrix(1, 0, 0, 1, 0, 0)" filter="url(#패스_5368)">
      <g id="패스_5368-3" data-name="패스 5368" transform="translate(0 -35)" fill="#fff">
        <path d="M 272.4617309570312 216.6429138183594 L 0.5 216.6429138183594 L 0.5 35.49999237060547 L 319.5 35.49999237060547 L 319.5 174.4706268310547 L 272.4617309570312 216.6429138183594 Z" stroke="none"/>
        <path d="M 1 35.99998474121094 L 1 216.1429138183594 L 272.2704162597656 216.1429138183594 L 319 174.2473907470703 L 319 35.99998474121094 L 1 35.99998474121094 M 0 34.99998474121094 L 320 34.99998474121094 L 320 174.6939086914062 L 272.653076171875 217.1429138183594 L 0 217.1429138183594 L 0 34.99998474121094 Z" stroke="none"/>
      </g>
    </g>
    <g id="패스_5368-4" data-name="패스 5368" transform="translate(0 -35)" fill="none">
      <path d="M 272.4617309570312 216.6429138183594 L 0.5 216.6429138183594 L 0.5 35.49999237060547 L 319.5 35.49999237060547 L 319.5 174.4706268310547 L 272.4617309570312 216.6429138183594 Z" stroke="none"/>
      <path d="M 1 35.99998474121094 L 1 216.1429138183594 L 272.2704162597656 216.1429138183594 L 319 174.2473907470703 L 319 35.99998474121094 L 1 35.99998474121094 M 0 34.99998474121094 L 320 34.99998474121094 L 320 174.6939086914062 L 272.653076171875 217.1429138183594 L 0 217.1429138183594 L 0 34.99998474121094 Z" stroke="none" fill="#27d4ff"/>
    </g>
  </g>
</svg>
