<svg width="20" height="20" viewBox="0 0 20 20" fill="none" xmlns="http://www.w3.org/2000/svg">
<mask id="mask0_385_8377" style="mask-type:luminance" maskUnits="userSpaceOnUse" x="0" y="0" width="20" height="20">
<path d="M20 0H0V20H20V0Z" fill="white"/>
</mask>
<g mask="url(#mask0_385_8377)">
<path d="M6.21 7.98082L3.858 6.74082C3.79603 6.70112 3.72684 6.67402 3.65439 6.66107C3.58194 6.64813 3.50765 6.64959 3.43576 6.66538C3.36388 6.68117 3.29581 6.71097 3.23545 6.75309C3.17509 6.7952 3.12363 6.8488 3.084 6.91082C3.04071 6.97664 3.01207 7.05098 3 7.12882V12.8088C3.02804 12.958 3.11331 13.0902 3.23758 13.1773C3.36185 13.2644 3.51525 13.2994 3.665 13.2748C3.74246 13.2625 3.81641 13.2338 3.882 13.1908L6.22 11.9128C6.2898 11.8761 6.34871 11.8216 6.39084 11.7549C6.43296 11.6882 6.45681 11.6116 6.46 11.5328V8.36582C6.45696 8.2848 6.43214 8.20609 6.38815 8.13799C6.34415 8.06989 6.28261 8.0149 6.21 7.97882" fill="#27D4FF"/>
<path d="M17.991 6.829C17.9899 6.60877 17.9017 6.39792 17.7456 6.24256C17.5895 6.08721 17.3782 6 17.158 6H9.658C9.54852 5.99987 9.4401 6.02132 9.33892 6.06312C9.23774 6.10493 9.14579 6.16626 9.06833 6.24363C8.99088 6.32099 8.92943 6.41286 8.8875 6.51399C8.84558 6.61512 8.824 6.72353 8.824 6.833V7.5H7.831C7.6105 7.50079 7.39929 7.58887 7.24356 7.74498C7.08784 7.90108 7.00026 8.1125 7 8.333V11.666C7 11.8872 7.08787 12.0993 7.24427 12.2557C7.40068 12.4121 7.61281 12.5 7.834 12.5H8.827L8.839 13.171C8.839 13.392 8.92673 13.604 9.08292 13.7604C9.23911 13.9168 9.45098 14.0047 9.672 14.005H17.172C17.3921 14.0034 17.6027 13.9148 17.7579 13.7586C17.913 13.6024 18 13.3912 18 13.171L17.991 6.829Z" fill="#27D4FF"/>
</g>
<mask id="mask1_385_8377" style="mask-type:luminance" maskUnits="userSpaceOnUse" x="0" y="0" width="20" height="20">
<path d="M20 0H0V20H20V0Z" fill="white"/>
</mask>
<g mask="url(#mask1_385_8377)">
<path d="M6.21 7.98082L3.858 6.74082C3.79603 6.70112 3.72684 6.67402 3.65439 6.66107C3.58194 6.64813 3.50765 6.64959 3.43576 6.66538C3.36388 6.68117 3.29581 6.71097 3.23545 6.75309C3.17509 6.7952 3.12363 6.8488 3.084 6.91082C3.04071 6.97664 3.01207 7.05098 3 7.12882V12.8088C3.02804 12.958 3.11331 13.0902 3.23758 13.1773C3.36185 13.2644 3.51525 13.2994 3.665 13.2748C3.74246 13.2625 3.81641 13.2338 3.882 13.1908L6.22 11.9128C6.2898 11.8761 6.34871 11.8216 6.39084 11.7549C6.43296 11.6882 6.45681 11.6116 6.46 11.5328V8.36582C6.45696 8.2848 6.43214 8.20609 6.38815 8.13799C6.34415 8.06989 6.28261 8.0149 6.21 7.97882" fill="#27D4FF"/>
<path d="M17.991 6.829C17.9899 6.60877 17.9017 6.39792 17.7456 6.24256C17.5895 6.08721 17.3782 6 17.158 6H9.658C9.54852 5.99987 9.4401 6.02132 9.33892 6.06312C9.23774 6.10493 9.14579 6.16626 9.06833 6.24363C8.99088 6.32099 8.92943 6.41286 8.8875 6.51399C8.84558 6.61512 8.824 6.72353 8.824 6.833V7.5H7.831C7.6105 7.50079 7.39929 7.58887 7.24356 7.74498C7.08784 7.90108 7.00026 8.1125 7 8.333V11.666C7 11.8872 7.08787 12.0993 7.24427 12.2557C7.40068 12.4121 7.61281 12.5 7.834 12.5H8.827L8.839 13.171C8.839 13.392 8.92673 13.604 9.08292 13.7604C9.23911 13.9168 9.45098 14.0047 9.672 14.005H17.172C17.3921 14.0034 17.6027 13.9148 17.7579 13.7586C17.913 13.6024 18 13.3912 18 13.171L17.991 6.829Z" fill="#27D4FF"/>
</g>
</svg>
