<svg width="28" height="28" viewBox="0 0 28 28" fill="none" xmlns="http://www.w3.org/2000/svg">
<g clip-path="url(#clip0_5195_8143)">
<path d="M14 -1.90735e-06C6.26801 -1.90735e-06 -1.90735e-06 6.26801 -1.90735e-06 14C-1.90735e-06 21.732 6.26801 28 14 28C21.732 28 28 21.732 28 14C28 6.26801 21.732 -1.90735e-06 14 -1.90735e-06Z" fill="#0068E6"/>
<path d="M10.21 16.0203L7.858 17.2603C7.79603 17.3 7.72684 17.3271 7.65439 17.34C7.58194 17.353 7.50765 17.3515 7.43576 17.3357C7.36388 17.3199 7.29581 17.2901 7.23545 17.248C7.17509 17.2059 7.12363 17.1523 7.084 17.0903C7.04071 17.0245 7.01207 16.9501 7 16.8723V11.1923C7.02804 11.0431 7.11331 10.9109 7.23758 10.8238C7.36185 10.7367 7.51525 10.7017 7.665 10.7263C7.74246 10.7386 7.81641 10.7673 7.882 10.8103L10.22 12.0883C10.2898 12.125 10.3487 12.1795 10.3908 12.2462C10.433 12.3129 10.4568 12.3895 10.46 12.4683V15.6353C10.457 15.7163 10.4321 15.795 10.3881 15.8631C10.3442 15.9312 10.2826 15.9862 10.21 16.0223" fill="white"/>
<path d="M21.991 17.1721C21.9899 17.3923 21.9017 17.6032 21.7456 17.7585C21.5895 17.9139 21.3782 18.0011 21.158 18.0011H13.658C13.5485 18.0012 13.4401 17.9798 13.3389 17.938C13.2377 17.8962 13.1458 17.8348 13.0683 17.7575C12.9909 17.6801 12.9294 17.5882 12.8875 17.4871C12.8456 17.386 12.824 17.2776 12.824 17.1681V16.5011H11.831C11.6105 16.5003 11.3993 16.4122 11.2436 16.2561C11.0878 16.1 11.0003 15.8886 11 15.6681V12.3351C11 12.1139 11.0879 11.9018 11.2443 11.7454C11.4007 11.589 11.6128 11.5011 11.834 11.5011H12.827L12.839 10.8301C12.839 10.6091 12.9267 10.3971 13.0829 10.2407C13.2391 10.0843 13.451 9.99636 13.672 9.99609H21.172C21.3921 9.99768 21.6027 10.0862 21.7579 10.2425C21.913 10.3987 22 10.6099 22 10.8301L21.991 17.1721Z" fill="white"/>
</g>
<defs>
<clipPath id="clip0_5195_8143">
<rect width="28" height="28" fill="white"/>
</clipPath>
</defs>
</svg>
