<svg width="20" height="20" viewBox="0 0 20 20" fill="none" xmlns="http://www.w3.org/2000/svg">
<mask id="mask0_331_9223" style="mask-type:luminance" maskUnits="userSpaceOnUse" x="0" y="0" width="20" height="20">
<path d="M20 20H0V0H20V20Z" fill="white"/>
</mask>
<g mask="url(#mask0_331_9223)">
<path d="M6.21 12.0192L3.858 13.2592C3.79603 13.2989 3.72684 13.326 3.65439 13.3389C3.58194 13.3519 3.50765 13.3504 3.43576 13.3346C3.36388 13.3188 3.29581 13.289 3.23545 13.2469C3.17509 13.2048 3.12363 13.1512 3.084 13.0892C3.04071 13.0234 3.01207 12.949 3 12.8712V7.19118C3.02804 7.04205 3.11331 6.9098 3.23758 6.82272C3.36185 6.73563 3.51525 6.70063 3.665 6.72518C3.74246 6.73753 3.81641 6.76616 3.882 6.80918L6.22 8.08718C6.2898 8.12393 6.34871 8.17838 6.39084 8.24507C6.43296 8.31176 6.45681 8.38836 6.46 8.46718V11.6342C6.45696 11.7152 6.43214 11.7939 6.38815 11.862C6.34415 11.9301 6.28261 11.9851 6.21 12.0212" fill="white"/>
<path d="M17.991 13.171C17.9899 13.3912 17.9017 13.6021 17.7456 13.7574C17.5895 13.9128 17.3782 14 17.158 14H9.658C9.54852 14.0001 9.4401 13.9787 9.33892 13.9369C9.23774 13.8951 9.14579 13.8337 9.06833 13.7564C8.99088 13.679 8.92943 13.5871 8.8875 13.486C8.84558 13.3849 8.824 13.2765 8.824 13.167V12.5H7.831C7.6105 12.4992 7.39929 12.4111 7.24356 12.255C7.08784 12.0989 7.00026 11.8875 7 11.667V8.334C7 8.11281 7.08787 7.90068 7.24427 7.74427C7.40068 7.58787 7.61281 7.5 7.834 7.5H8.827L8.839 6.829C8.839 6.60798 8.92673 6.396 9.08292 6.23963C9.23911 6.08325 9.45098 5.99526 9.672 5.995H17.172C17.3921 5.99658 17.6027 6.08515 17.7579 6.24138C17.913 6.39762 18 6.60885 18 6.829L17.991 13.171Z" fill="white"/>
</g>
<mask id="mask1_331_9223" style="mask-type:luminance" maskUnits="userSpaceOnUse" x="0" y="0" width="20" height="20">
<path d="M20 20H0V0H20V20Z" fill="white"/>
</mask>
<g mask="url(#mask1_331_9223)">
<path d="M6.21 12.0192L3.858 13.2592C3.79603 13.2989 3.72684 13.326 3.65439 13.3389C3.58194 13.3519 3.50765 13.3504 3.43576 13.3346C3.36388 13.3188 3.29581 13.289 3.23545 13.2469C3.17509 13.2048 3.12363 13.1512 3.084 13.0892C3.04071 13.0234 3.01207 12.949 3 12.8712V7.19118C3.02804 7.04205 3.11331 6.9098 3.23758 6.82272C3.36185 6.73563 3.51525 6.70063 3.665 6.72518C3.74246 6.73753 3.81641 6.76616 3.882 6.80918L6.22 8.08718C6.2898 8.12393 6.34871 8.17838 6.39084 8.24507C6.43296 8.31176 6.45681 8.38836 6.46 8.46718V11.6342C6.45696 11.7152 6.43214 11.7939 6.38815 11.862C6.34415 11.9301 6.28261 11.9851 6.21 12.0212" fill="white"/>
<path d="M17.991 13.171C17.9899 13.3912 17.9017 13.6021 17.7456 13.7574C17.5895 13.9128 17.3782 14 17.158 14H9.658C9.54852 14.0001 9.4401 13.9787 9.33892 13.9369C9.23774 13.8951 9.14579 13.8337 9.06833 13.7564C8.99088 13.679 8.92943 13.5871 8.8875 13.486C8.84558 13.3849 8.824 13.2765 8.824 13.167V12.5H7.831C7.6105 12.4992 7.39929 12.4111 7.24356 12.255C7.08784 12.0989 7.00026 11.8875 7 11.667V8.334C7 8.11281 7.08787 7.90068 7.24427 7.74427C7.40068 7.58787 7.61281 7.5 7.834 7.5H8.827L8.839 6.829C8.839 6.60798 8.92673 6.396 9.08292 6.23963C9.23911 6.08325 9.45098 5.99526 9.672 5.995H17.172C17.3921 5.99658 17.6027 6.08515 17.7579 6.24138C17.913 6.39762 18 6.60885 18 6.829L17.991 13.171Z" fill="white"/>
</g>
</svg>
