<svg width="48" height="48" viewBox="0 0 48 48" fill="none" xmlns="http://www.w3.org/2000/svg">
<path d="M24 8C15.1634 8 8 15.1634 8 24C8 32.8366 15.1634 40 24 40C32.8366 40 40 32.8366 40 24C40 15.1634 32.8366 8 24 8Z" fill="#0068E6"/>
<path d="M8.5 24C8.5 15.4396 15.4396 8.5 24 8.5C32.5604 8.5 39.5 15.4396 39.5 24C39.5 32.5604 32.5604 39.5 24 39.5C15.4396 39.5 8.5 32.5604 8.5 24Z" stroke="black" stroke-opacity="0.3"/>
<mask id="mask0_474_12848" style="mask-type:luminance" maskUnits="userSpaceOnUse" x="12" y="12" width="24" height="24">
<path d="M36 12H12V36H36V12Z" fill="white"/>
</mask>
<g mask="url(#mask0_474_12848)">
<path d="M18.7 21.582L16.028 20.094C15.9193 20.0328 15.7967 20.0004 15.672 20H15.664C15.5652 20.0017 15.4677 20.0227 15.377 20.062C15.3532 20.0727 15.3301 20.0851 15.308 20.099C15.2445 20.1329 15.1876 20.1779 15.14 20.232C15.1208 20.2507 15.1034 20.2711 15.088 20.293C15.0332 20.3711 15.0026 20.4636 15 20.559L15.021 27.376C15.0244 27.472 15.0561 27.5649 15.112 27.643C15.1279 27.6645 15.1453 27.6849 15.164 27.704C15.2132 27.7579 15.2714 27.8029 15.336 27.837C15.3577 27.8502 15.38 27.8622 15.403 27.873C15.4927 27.9105 15.5888 27.9305 15.686 27.932H15.698C15.8249 27.9301 15.9492 27.8957 16.059 27.832L18.712 26.3C18.7958 26.256 18.8666 26.1907 18.9171 26.1106C18.9677 26.0306 18.9963 25.9386 19 25.844V22.044C18.9963 21.9468 18.9665 21.8525 18.9137 21.7708C18.8609 21.6892 18.7871 21.6232 18.7 21.58" fill="white"/>
<path d="M23 29C22.7348 29 22.4805 28.8946 22.293 28.707C22.1054 28.5195 22 28.2652 22 28V27H21C20.7348 27 20.4805 26.8946 20.293 26.707C20.1054 26.5195 20 26.2652 20 26V22C20 21.7348 20.1054 21.4805 20.293 21.293C20.4805 21.1054 20.7348 21 21 21H22V20C22 19.7348 22.1054 19.4805 22.293 19.293C22.4805 19.1054 22.7348 19 23 19H32C32.2652 19 32.5195 19.1054 32.707 19.293C32.8946 19.4805 33 19.7348 33 20V28C33 28.2652 32.8946 28.5195 32.707 28.707C32.5195 28.8946 32.2652 29 32 29H23Z" fill="white"/>
</g>
</svg>
