<svg width="309" height="41" viewBox="0 0 309 41" fill="none" xmlns="http://www.w3.org/2000/svg">
<rect width="40" height="12" transform="translate(13)" fill="#990000"/>
<path d="M33.1143 1.437H28.4613V9.5H29.4843V5.881H32.5643V5.023H29.4843V2.295H33.1143V1.437ZM39.1837 1.437H34.5307V9.5H35.5537V5.881H38.6337V5.023H35.5537V2.295H39.1837V1.437Z" fill="white"/>
<rect width="40" height="12" transform="translate(53)" fill="#E62222"/>
<path d="M76.1837 1.437H71.5307V9.5H72.5537V5.881H75.6337V5.023H72.5537V2.295H76.1837V1.437Z" fill="white"/>
<rect width="40" height="12" transform="translate(93)" fill="#FC5C34"/>
<path d="M115.786 1.437H111.133V9.5H115.907V8.631H112.156V5.694H115.214V4.825H112.156V2.295H115.786V1.437Z" fill="white"/>
<rect width="40" height="12" transform="translate(133)" fill="#FC8A18"/>
<path d="M152.572 1.437H150.548V9.5H152.616C155.036 9.5 156.378 7.993 156.378 5.441C156.378 2.812 155.113 1.437 152.572 1.437ZM152.484 8.664H151.571V2.262H152.484C154.431 2.262 155.322 3.362 155.322 5.441C155.322 7.476 154.387 8.664 152.484 8.664Z" fill="white"/>
<rect width="40" height="12" transform="translate(173)" fill="#FFBC04"/>
<path d="M194.132 9.643C195.188 9.643 195.947 9.236 196.607 8.488L196.046 7.85C195.529 8.411 194.968 8.752 194.176 8.752C192.636 8.752 191.668 7.476 191.668 5.441C191.668 3.417 192.68 2.174 194.209 2.174C194.913 2.174 195.43 2.493 195.859 2.944L196.409 2.284C195.947 1.767 195.177 1.283 194.198 1.283C192.141 1.283 190.623 2.867 190.623 5.474C190.623 8.081 192.141 9.643 194.132 9.643Z" fill="white"/>
<rect width="40" height="12" transform="translate(213)" fill="#82D971"/>
<path d="M233.269 1.437H230.871V9.5H233.445C235.249 9.5 236.503 8.719 236.503 7.135C236.503 6.035 235.821 5.397 234.853 5.21V5.155C235.612 4.902 236.041 4.209 236.041 3.406C236.041 1.998 234.908 1.437 233.269 1.437ZM233.093 4.869H231.894V2.24H233.137C234.424 2.24 235.04 2.57 235.04 3.538C235.04 4.363 234.49 4.869 233.093 4.869ZM233.302 8.686H231.894V5.65H233.302C234.721 5.65 235.502 6.09 235.502 7.102C235.502 8.202 234.721 8.686 233.302 8.686Z" fill="white"/>
<rect width="40" height="12" transform="translate(253)" fill="#1CBD6D"/>
<path d="M271.666 7.036H274.614L275.384 9.5H276.462L273.723 1.437H272.59L269.851 9.5H270.885L271.666 7.036ZM273.976 4.99L274.361 6.222H271.919L272.315 4.99C272.612 4.066 272.865 3.23 273.118 2.262H273.162C273.426 3.197 273.679 4.066 273.976 4.99Z" fill="white"/>
<rect x="13" y="16" width="1" height="8" fill="white" fill-opacity="0.6"/>
<rect x="52.8571" y="16" width="1" height="8" fill="white" fill-opacity="0.6"/>
<rect x="92.7143" y="16" width="1" height="8" fill="white" fill-opacity="0.6"/>
<rect x="132.571" y="16" width="1" height="8" fill="white" fill-opacity="0.6"/>
<rect x="172.429" y="16" width="1" height="8" fill="white" fill-opacity="0.6"/>
<rect x="212.286" y="16" width="1" height="8" fill="white" fill-opacity="0.6"/>
<rect x="252.143" y="16" width="1" height="8" fill="white" fill-opacity="0.6"/>
<rect x="292" y="16" width="1" height="8" fill="white" fill-opacity="0.6"/>
<path d="M15.9826 33.985C15.9826 31.114 14.6846 29.805 13.0236 29.805C11.3516 29.805 10.0646 31.114 10.0646 33.985C10.0646 36.845 11.3516 38.154 13.0236 38.154C14.6846 38.154 15.9826 36.845 15.9826 33.985ZM14.9706 33.985C14.9706 36.493 14.0466 37.34 13.0236 37.34C12.0006 37.34 11.0876 36.493 11.0876 33.985C11.0876 31.466 12.0006 30.63 13.0236 30.63C14.0466 30.63 14.9706 31.466 14.9706 33.985Z" fill="white"/>
<path d="M48.9569 38V37.186H47.3729V29.893H46.5699L44.4029 31.763L44.9419 32.412L46.4049 31.103C46.3939 31.18 46.3939 31.279 46.3939 31.378V37.186H44.6009V38H48.9569ZM55.9826 33.985C55.9826 31.114 54.6846 29.805 53.0236 29.805C51.3516 29.805 50.0646 31.114 50.0646 33.985C50.0646 36.845 51.3516 38.154 53.0236 38.154C54.6846 38.154 55.9826 36.845 55.9826 33.985ZM54.9706 33.985C54.9706 36.493 54.0466 37.34 53.0236 37.34C52.0006 37.34 51.0876 36.493 51.0876 33.985C51.0876 31.466 52.0006 30.63 53.0236 30.63C54.0466 30.63 54.9706 31.466 54.9706 33.985ZM62.5354 33.985C62.5354 31.114 61.2374 29.805 59.5764 29.805C57.9044 29.805 56.6174 31.114 56.6174 33.985C56.6174 36.845 57.9044 38.154 59.5764 38.154C61.2374 38.154 62.5354 36.845 62.5354 33.985ZM61.5234 33.985C61.5234 36.493 60.5994 37.34 59.5764 37.34C58.5534 37.34 57.6404 36.493 57.6404 33.985C57.6404 31.466 58.5534 30.63 59.5764 30.63C60.5994 30.63 61.5234 31.466 61.5234 33.985Z" fill="white"/>
<path d="M89.1659 38V37.109H85.9869C85.7119 37.109 85.3819 37.153 85.0739 37.241L87.3289 35.008C88.2419 34.095 89.0119 33.259 89.0119 32.06C89.0119 30.63 87.9449 29.794 86.5699 29.794C85.1949 29.794 84.1279 30.597 83.9189 32.082L84.9089 32.247C84.9089 31.323 85.5909 30.663 86.5149 30.663C87.3509 30.663 87.9669 31.114 87.9999 32.082C87.9999 33.028 87.3839 33.721 86.5369 34.623L83.7539 37.296V38H89.1659ZM95.9826 33.985C95.9826 31.114 94.6846 29.805 93.0236 29.805C91.3516 29.805 90.0646 31.114 90.0646 33.985C90.0646 36.845 91.3516 38.154 93.0236 38.154C94.6846 38.154 95.9826 36.845 95.9826 33.985ZM94.9706 33.985C94.9706 36.493 94.0466 37.34 93.0236 37.34C92.0006 37.34 91.0876 36.493 91.0876 33.985C91.0876 31.466 92.0006 30.63 93.0236 30.63C94.0466 30.63 94.9706 31.466 94.9706 33.985ZM102.535 33.985C102.535 31.114 101.237 29.805 99.5764 29.805C97.9044 29.805 96.6174 31.114 96.6174 33.985C96.6174 36.845 97.9044 38.154 99.5764 38.154C101.237 38.154 102.535 36.845 102.535 33.985ZM101.523 33.985C101.523 36.493 100.599 37.34 99.5764 37.34C98.5534 37.34 97.6404 36.493 97.6404 33.985C97.6404 31.466 98.5534 30.63 99.5764 30.63C100.599 30.63 101.523 31.466 101.523 33.985Z" fill="white"/>
<path d="M123.952 32.104L124.953 32.269C124.953 31.367 125.624 30.685 126.548 30.685C127.395 30.685 127.989 31.136 127.989 32.06C127.989 32.896 127.483 33.479 126.064 33.512V34.238C127.791 34.238 128.154 34.876 128.154 35.745C128.154 36.46 127.593 37.274 126.438 37.274C125.602 37.274 125.107 36.845 124.766 36.141C124.678 35.932 124.623 35.767 124.601 35.646L123.699 36.02C124.084 37.208 124.711 38.143 126.449 38.143C127.956 38.143 129.177 37.197 129.177 35.723C129.177 34.711 128.627 34.04 127.571 33.776C128.451 33.479 128.99 32.951 128.99 31.895C128.99 30.663 128 29.805 126.603 29.805C125.228 29.805 124.161 30.641 123.952 32.104ZM135.983 33.985C135.983 31.114 134.685 29.805 133.024 29.805C131.352 29.805 130.065 31.114 130.065 33.985C130.065 36.845 131.352 38.154 133.024 38.154C134.685 38.154 135.983 36.845 135.983 33.985ZM134.971 33.985C134.971 36.493 134.047 37.34 133.024 37.34C132.001 37.34 131.088 36.493 131.088 33.985C131.088 31.466 132.001 30.63 133.024 30.63C134.047 30.63 134.971 31.466 134.971 33.985ZM142.535 33.985C142.535 31.114 141.237 29.805 139.576 29.805C137.904 29.805 136.617 31.114 136.617 33.985C136.617 36.845 137.904 38.154 139.576 38.154C141.237 38.154 142.535 36.845 142.535 33.985ZM141.523 33.985C141.523 36.493 140.599 37.34 139.576 37.34C138.553 37.34 137.64 36.493 137.64 33.985C137.64 31.466 138.553 30.63 139.576 30.63C140.599 30.63 141.523 31.466 141.523 33.985Z" fill="white"/>
<path d="M169.551 35.855V35.063H168.33V29.849H167.384L163.413 35.107V35.855H167.439V38H168.33V35.855H169.551ZM167.439 31.697V35.063H164.513L167.483 31.015C167.45 31.246 167.439 31.51 167.439 31.697ZM175.983 33.985C175.983 31.114 174.685 29.805 173.024 29.805C171.352 29.805 170.065 31.114 170.065 33.985C170.065 36.845 171.352 38.154 173.024 38.154C174.685 38.154 175.983 36.845 175.983 33.985ZM174.971 33.985C174.971 36.493 174.047 37.34 173.024 37.34C172.001 37.34 171.088 36.493 171.088 33.985C171.088 31.466 172.001 30.63 173.024 30.63C174.047 30.63 174.971 31.466 174.971 33.985ZM182.535 33.985C182.535 31.114 181.237 29.805 179.576 29.805C177.904 29.805 176.617 31.114 176.617 33.985C176.617 36.845 177.904 38.154 179.576 38.154C181.237 38.154 182.535 36.845 182.535 33.985ZM181.523 33.985C181.523 36.493 180.599 37.34 179.576 37.34C178.553 37.34 177.64 36.493 177.64 33.985C177.64 31.466 178.553 30.63 179.576 30.63C180.599 30.63 181.523 31.466 181.523 33.985Z" fill="white"/>
<path d="M205.272 32.94L205.635 30.828H208.792V29.904H204.931L204.271 33.721L204.92 33.908C205.393 33.743 205.811 33.644 206.24 33.644C207.395 33.644 208.077 34.26 208.077 35.316C208.077 36.504 207.274 37.197 206.163 37.197C205.503 37.197 204.865 36.9 204.381 36.493L203.842 37.23C204.337 37.703 205.151 38.099 206.119 38.099C207.758 38.099 209.045 36.977 209.045 35.261C209.045 33.853 208.132 32.797 206.427 32.797C206.031 32.797 205.646 32.841 205.272 32.94ZM215.983 33.985C215.983 31.114 214.685 29.805 213.024 29.805C211.352 29.805 210.065 31.114 210.065 33.985C210.065 36.845 211.352 38.154 213.024 38.154C214.685 38.154 215.983 36.845 215.983 33.985ZM214.971 33.985C214.971 36.493 214.047 37.34 213.024 37.34C212.001 37.34 211.088 36.493 211.088 33.985C211.088 31.466 212.001 30.63 213.024 30.63C214.047 30.63 214.971 31.466 214.971 33.985ZM222.535 33.985C222.535 31.114 221.237 29.805 219.576 29.805C217.904 29.805 216.617 31.114 216.617 33.985C216.617 36.845 217.904 38.154 219.576 38.154C221.237 38.154 222.535 36.845 222.535 33.985ZM221.523 33.985C221.523 36.493 220.599 37.34 219.576 37.34C218.553 37.34 217.64 36.493 217.64 33.985C217.64 31.466 218.553 30.63 219.576 30.63C220.599 30.63 221.523 31.466 221.523 33.985Z" fill="white"/>
<path d="M245.822 32.94L248.253 29.893H246.988L244.744 32.918C244.04 33.842 243.743 34.656 243.743 35.371C243.743 37.043 244.81 38.143 246.449 38.143C248.099 38.143 249.243 36.977 249.243 35.481C249.243 33.93 248.143 33.05 246.823 33.05C246.284 33.05 245.833 33.204 245.437 33.468C245.514 33.38 245.635 33.204 245.822 32.94ZM246.427 37.296C245.327 37.296 244.722 36.592 244.722 35.536C244.722 34.623 245.415 33.831 246.493 33.831C247.494 33.831 248.231 34.491 248.231 35.558C248.231 36.559 247.494 37.296 246.427 37.296ZM255.983 33.985C255.983 31.114 254.685 29.805 253.024 29.805C251.352 29.805 250.065 31.114 250.065 33.985C250.065 36.845 251.352 38.154 253.024 38.154C254.685 38.154 255.983 36.845 255.983 33.985ZM254.971 33.985C254.971 36.493 254.047 37.34 253.024 37.34C252.001 37.34 251.088 36.493 251.088 33.985C251.088 31.466 252.001 30.63 253.024 30.63C254.047 30.63 254.971 31.466 254.971 33.985ZM262.535 33.985C262.535 31.114 261.237 29.805 259.576 29.805C257.904 29.805 256.617 31.114 256.617 33.985C256.617 36.845 257.904 38.154 259.576 38.154C261.237 38.154 262.535 36.845 262.535 33.985ZM261.523 33.985C261.523 36.493 260.599 37.34 259.576 37.34C258.553 37.34 257.64 36.493 257.64 33.985C257.64 31.466 258.553 30.63 259.576 30.63C260.599 30.63 261.523 31.466 261.523 33.985Z" fill="white"/>
<path d="M286.139 38V37.186H284.555V29.893H283.752L281.585 31.763L282.124 32.412L283.587 31.103C283.576 31.18 283.576 31.279 283.576 31.378V37.186H281.783V38H286.139ZM288.522 36.603H287.521L287.125 38.825H287.851L288.522 36.603ZM295.248 33.985C295.248 31.114 293.95 29.805 292.289 29.805C290.617 29.805 289.33 31.114 289.33 33.985C289.33 36.845 290.617 38.154 292.289 38.154C293.95 38.154 295.248 36.845 295.248 33.985ZM294.236 33.985C294.236 36.493 293.312 37.34 292.289 37.34C291.266 37.34 290.353 36.493 290.353 33.985C290.353 31.466 291.266 30.63 292.289 30.63C293.312 30.63 294.236 31.466 294.236 33.985ZM301.801 33.985C301.801 31.114 300.503 29.805 298.842 29.805C297.17 29.805 295.883 31.114 295.883 33.985C295.883 36.845 297.17 38.154 298.842 38.154C300.503 38.154 301.801 36.845 301.801 33.985ZM300.789 33.985C300.789 36.493 299.865 37.34 298.842 37.34C297.819 37.34 296.906 36.493 296.906 33.985C296.906 31.466 297.819 30.63 298.842 30.63C299.865 30.63 300.789 31.466 300.789 33.985ZM308.354 33.985C308.354 31.114 307.056 29.805 305.395 29.805C303.723 29.805 302.436 31.114 302.436 33.985C302.436 36.845 303.723 38.154 305.395 38.154C307.056 38.154 308.354 36.845 308.354 33.985ZM307.342 33.985C307.342 36.493 306.418 37.34 305.395 37.34C304.372 37.34 303.459 36.493 303.459 33.985C303.459 31.466 304.372 30.63 305.395 30.63C306.418 30.63 307.342 31.466 307.342 33.985Z" fill="white"/>
</svg>
