<svg width="120" height="121" viewBox="0 0 120 121" fill="none" xmlns="http://www.w3.org/2000/svg">
<path opacity="0.12" d="M59.9884 120.499C45.1409 120.485 30.8279 114.958 19.8263 104.989C8.82475 95.0209 1.91902 81.322 0.448952 66.5505C-1.02111 51.7791 3.04931 36.9883 11.8705 25.0478C20.6917 13.1073 33.6347 4.86849 48.1883 1.92981C62.7419 -1.00887 77.8686 1.56212 90.6334 9.14396C103.398 16.7258 112.891 28.7779 117.27 42.962C121.649 57.146 120.602 72.4507 114.333 85.9067C108.063 99.3626 97.0173 110.01 83.339 115.784C75.9512 118.908 68.0097 120.512 59.9884 120.499ZM59.9884 10.4321C50.0809 10.4306 40.3955 13.3665 32.157 18.8686C23.9185 24.3707 17.497 32.1918 13.7046 41.3428C9.91216 50.4938 8.91916 60.5636 10.8512 70.2789C12.7832 79.9942 17.5534 88.9184 24.5586 95.9231C31.5638 102.928 40.4893 107.698 50.2063 109.631C59.9233 111.564 69.9955 110.572 79.1489 106.782C88.3023 102.992 96.1258 96.5724 101.63 88.3363C107.134 80.1003 110.072 70.4172 110.072 60.5118C110.073 53.9356 108.778 47.4235 106.262 41.3476C103.745 35.2717 100.056 29.7509 95.4052 25.1005C90.7544 20.4501 85.233 16.7612 79.1561 14.2443C73.0793 11.7275 66.566 10.4321 59.9884 10.4321Z" fill="white"/>
<path d="M8.42779e-05 60.4871V60.3922C-0.00753838 59.0848 0.502195 57.8274 1.41812 56.8943C2.33404 55.9611 3.58185 55.4279 4.88942 55.4109C6.19699 55.3939 7.45824 55.8945 8.39812 56.8036C9.33799 57.7126 9.88024 58.9563 9.9066 60.2634V60.4871C9.90795 70.355 12.8256 80.0026 18.293 88.2181C23.7605 96.4337 31.534 102.851 40.6374 106.664C49.7408 110.477 59.7681 111.516 69.4601 109.65C79.152 107.784 88.0765 103.097 95.1127 96.1768C102.149 89.2566 106.983 80.4122 109.008 70.7542C111.033 61.0962 110.159 51.0553 106.495 41.8924C102.831 32.7296 96.5413 24.8533 88.4149 19.2528C80.2885 13.6523 70.6881 10.5773 60.8195 10.4139L59.9902 10.4063C58.6764 10.4063 57.4164 9.88447 56.4873 8.95564C55.5583 8.02682 55.0364 6.76706 55.0364 5.4535C55.0364 4.13995 55.5583 2.88019 56.4873 1.95137C57.4164 1.02254 58.6764 0.500733 59.9902 0.500733C71.8575 0.498791 83.4589 4.01537 93.3272 10.6057C103.195 17.1961 110.887 26.5643 115.43 37.5254C119.973 48.4866 121.162 60.5484 118.848 72.1855C116.534 83.8226 110.82 94.5123 102.429 102.903C94.0386 111.293 83.3476 117.007 71.7084 119.322C60.0692 121.638 48.0047 120.45 37.0406 115.91C26.0765 111.37 16.7052 103.681 10.112 93.8156C3.51887 83.9504 -0.00013138 72.3519 8.42779e-05 60.4871Z" fill="url(#paint0_linear_1273_16265)"/>
<defs>
<linearGradient id="paint0_linear_1273_16265" x1="21.72" y1="17.5372" x2="98.6221" y2="103.335" gradientUnits="userSpaceOnUse">
<stop stop-color="#0068E6"/>
<stop offset="1" stop-color="#27D4FF"/>
</linearGradient>
</defs>
</svg>
