<svg xmlns="http://www.w3.org/2000/svg" width="16" height="16" viewBox="0 0 16 16">
  <g id="그룹_177590" data-name="그룹 177590" transform="translate(-2 -2)">
    <circle id="타원_4" data-name="타원 4" cx="8" cy="8" r="8" transform="translate(2 2)" fill="#0068e6"/>
    <path id="check" d="M-3721.108-1432.545h-.089a.962.962,0,0,0-.6.279l-5.365,5.37-1.636-1.634a.957.957,0,0,0-.656-.258.981.981,0,0,0-.714.306.978.978,0,0,0,0,1.338l2.314,2.314a.975.975,0,0,0,1.379,0l6.052-6.05a.979.979,0,0,0,0-1.381A.98.98,0,0,0-3721.108-1432.545Z" transform="translate(3735.253 1438.523)" fill="#fff"/>
  </g>
</svg>
