<svg width="20" height="20" viewBox="0 0 20 20" fill="none" xmlns="http://www.w3.org/2000/svg">
<g clip-path="url(#clip0_70_4501)">
<path d="M15.6809 2.00094H4.31787C3.70383 2.00331 3.11584 2.24839 2.68164 2.68258C2.24744 3.11678 2.00237 3.70502 2 4.31906V15.682C2.00237 16.296 2.24744 16.8843 2.68164 17.3184C3.11584 17.7526 3.70383 17.9976 4.31787 18H15.6819C16.2959 17.9976 16.8842 17.7526 17.3184 17.3184C17.7526 16.8843 17.9976 16.296 18 15.682V4.31906C17.9976 3.70484 17.7525 3.11644 17.3181 2.68222C16.8837 2.24799 16.2951 2.00305 15.6809 2.00094ZM16.864 15.6829C16.8627 15.996 16.7377 16.2959 16.5164 16.5173C16.295 16.7387 15.995 16.8636 15.6819 16.865H4.31787C4.00463 16.8642 3.70465 16.7394 3.48315 16.5179C3.26166 16.2964 3.13678 15.9962 3.13599 15.6829V4.32003C3.13651 4.00688 3.26108 3.70672 3.48242 3.4852C3.70376 3.26367 4.00374 3.13882 4.31689 3.13803H15.6819C15.995 3.13934 16.295 3.2643 16.5164 3.48568C16.7377 3.70707 16.8627 4.00695 16.864 4.32003V15.6829Z" fill="#27D4FF"/>
<path d="M14.375 6.625L8.35998 12.64L5.62598 9.906" stroke="#27D4FF" stroke-width="1.5"/>
</g>
<defs>
<clipPath id="clip0_70_4501">
<rect width="20" height="20" fill="white"/>
</clipPath>
</defs>
</svg>
