<svg id="checkbox_checked" xmlns="http://www.w3.org/2000/svg" width="20" height="20" viewBox="0 0 20 20">
  <rect id="container" width="20" height="20" fill="none"/>
  <path id="box" d="M-3720.049-1436.56h-11.363a2.327,2.327,0,0,0-2.318,2.318v11.363a2.327,2.327,0,0,0,2.318,2.318h11.364a2.327,2.327,0,0,0,2.318-2.318v-11.363A2.327,2.327,0,0,0-3720.049-1436.56Zm1.183,13.682a1.187,1.187,0,0,1-1.182,1.182h-11.364a1.185,1.185,0,0,1-1.182-1.182v-11.363a1.184,1.184,0,0,1,1.181-1.182h11.365a1.187,1.187,0,0,1,1.182,1.182Z" transform="translate(3735.73 1438.561)" fill="#27d4ff"/>
  <path id="패스_91879" data-name="패스 91879" d="M10.749,3,4.734,9.015,2,6.281" transform="translate(3.626 3.625)" fill="none" stroke="#27d4ff" stroke-width="1.5"/>
</svg>
