<svg width="20" height="20" viewBox="0 0 20 20" fill="none" xmlns="http://www.w3.org/2000/svg">
<g clip-path="url(#clip0_70_6135)">
<path d="M15.6809 2.00094H4.3179C3.70386 2.00331 3.11587 2.24838 2.68167 2.68258C2.24747 3.11678 2.0024 3.70501 2.00003 4.31905V15.682C2.0024 16.296 2.24747 16.8842 2.68167 17.3184C3.11587 17.7526 3.70386 17.9976 4.3179 18H15.6819C16.296 17.9976 16.8842 17.7526 17.3184 17.3184C17.7526 16.8842 17.9977 16.296 18 15.682V4.31905C17.9977 3.70484 17.7526 3.11644 17.3181 2.68221C16.8837 2.24799 16.2952 2.00305 15.6809 2.00094ZM16.864 15.6829C16.8627 15.996 16.7378 16.2959 16.5164 16.5173C16.295 16.7387 15.995 16.8636 15.6819 16.865H4.3179C4.00466 16.8642 3.70468 16.7394 3.48318 16.5179C3.26169 16.2964 3.13681 15.9962 3.13602 15.6829V4.32003C3.13654 4.00688 3.26111 3.70672 3.48245 3.48519C3.70379 3.26367 4.00378 3.13882 4.31693 3.13802H15.6819C15.995 3.13934 16.295 3.2643 16.5164 3.48568C16.7378 3.70706 16.8627 4.00695 16.864 4.32003V15.6829Z" fill="#27D4FF"/>
<path d="M7 10H13" stroke="#27D4FF" stroke-width="1.5" stroke-linecap="square"/>
</g>
<defs>
<clipPath id="clip0_70_6135">
<rect width="20" height="20" fill="white"/>
</clipPath>
</defs>
</svg>
