<svg id="checkbox" xmlns="http://www.w3.org/2000/svg" width="20" height="20" viewBox="0 0 20 20">
  <g id="그룹_839" data-name="그룹 839" transform="translate(2 2)">
    <g id="icon_-_check" data-name="icon - check">
      <path id="패스_1968" data-name="패스 1968" d="M-3720.049-1436.56h-11.363a2.327,2.327,0,0,0-2.318,2.318v11.363a2.327,2.327,0,0,0,2.318,2.318h11.364a2.327,2.327,0,0,0,2.318-2.318v-11.363A2.327,2.327,0,0,0-3720.049-1436.56Zm1.183,13.682a1.187,1.187,0,0,1-1.182,1.182h-11.364a1.185,1.185,0,0,1-1.182-1.182v-11.363a1.184,1.184,0,0,1,1.181-1.182h11.365a1.187,1.187,0,0,1,1.182,1.182Z" transform="translate(3733.73 1436.56)" fill="#fff" opacity="0.8"/>
    </g>
  </g>
  <g id="그룹_2645" data-name="그룹 2645">
    <rect id="사각형_2135" data-name="사각형 2135" width="20" height="20" fill="none"/>
  </g>
</svg>
