<svg width="20" height="20" viewBox="0 0 20 20" fill="none" xmlns="http://www.w3.org/2000/svg">
<g clip-path="url(#clip0_70_4509)">
<path opacity="0.8" d="M15.6809 1.99994H4.31787C3.70383 2.00231 3.11584 2.24739 2.68164 2.68158C2.24744 3.11578 2.00237 3.70402 2 4.31806V15.681C2.00237 16.295 2.24744 16.8833 2.68164 17.3174C3.11584 17.7516 3.70383 17.9966 4.31787 17.999H15.6819C16.2959 17.9966 16.8842 17.7516 17.3184 17.3174C17.7526 16.8833 17.9976 16.295 18 15.681V4.31806C17.9976 3.70384 17.7525 3.11544 17.3181 2.68122C16.8837 2.24699 16.2951 2.00205 15.6809 1.99994ZM16.864 15.6819C16.8627 15.995 16.7377 16.2949 16.5164 16.5163C16.295 16.7377 15.995 16.8626 15.6819 16.864H4.31787C4.00463 16.8632 3.70465 16.7384 3.48315 16.5169C3.26166 16.2954 3.13678 15.9952 3.13599 15.6819V4.31903C3.13651 4.00588 3.26108 3.70572 3.48242 3.4842C3.70376 3.26267 4.00374 3.13782 4.31689 3.13703H15.6819C15.995 3.13834 16.295 3.2633 16.5164 3.48468C16.7377 3.70607 16.8627 4.00595 16.864 4.31903V15.6819Z" fill="white" fill-opacity="0.6"/>
</g>
<defs>
<clipPath id="clip0_70_4509">
<rect width="20" height="20" fill="white"/>
</clipPath>
</defs>
</svg>
