<svg width="16" height="16" viewBox="0 0 16 16" fill="none" xmlns="http://www.w3.org/2000/svg">
<path opacity="0.8" d="M13.6809 -5.72205e-05H2.31787C1.70383 0.00231312 1.11584 0.247387 0.681641 0.681583C0.247444 1.11578 0.00237034 1.70402 0 2.31806V13.681C0.00237034 14.295 0.247444 14.8833 0.681641 15.3174C1.11584 15.7516 1.70383 15.9966 2.31787 15.999H13.6819C14.2959 15.9966 14.8842 15.7516 15.3184 15.3174C15.7526 14.8833 15.9976 14.295 16 13.681V2.31806C15.9976 1.70384 15.7525 1.11544 15.3181 0.681217C14.8837 0.246992 14.2951 0.00204983 13.6809 -5.72205e-05ZM14.864 13.6819C14.8627 13.995 14.7377 14.2949 14.5164 14.5163C14.295 14.7377 13.995 14.8626 13.6819 14.864H2.31787C2.00463 14.8632 1.70465 14.7384 1.48315 14.5169C1.26166 14.2954 1.13678 13.9952 1.13599 13.6819V2.31903C1.13651 2.00588 1.26108 1.70572 1.48242 1.4842C1.70376 1.26267 2.00374 1.13782 2.31689 1.13703H13.6819C13.995 1.13834 14.295 1.2633 14.5164 1.48468C14.7377 1.70607 14.8627 2.00595 14.864 2.31903V13.6819Z" fill="white" fill-opacity="0.6"/>
</svg>
