<svg width="12" height="9" viewBox="0 0 12 9" fill="none" xmlns="http://www.w3.org/2000/svg">
<path d="M10.145 0.979004H10.0559C9.82921 0.998131 9.61653 1.09704 9.45581 1.25806L4.09082 6.62805L2.45483 4.99402C2.27696 4.82768 2.04236 4.73548 1.79883 4.73608C1.66525 4.73579 1.53318 4.76269 1.4104 4.81531C1.28762 4.86793 1.17687 4.94506 1.08496 5.04199C0.914961 5.22327 0.820313 5.46254 0.820312 5.71106C0.820313 5.95958 0.914961 6.19873 1.08496 6.38L3.39893 8.69409C3.48947 8.78465 3.59703 8.85638 3.71533 8.9054C3.83364 8.95441 3.96032 8.97974 4.08838 8.97974C4.21643 8.97974 4.34336 8.95441 4.46167 8.9054C4.57998 8.85638 4.68729 8.78465 4.77783 8.69409L10.8298 2.64404C11.0124 2.46059 11.115 2.21228 11.115 1.95349C11.115 1.6947 11.0124 1.44651 10.8298 1.26306C10.6475 1.08233 10.4017 0.980295 10.145 0.979004Z" fill="white" fill-opacity="0.87"/>
</svg>
