<svg width="32" height="32" viewBox="0 0 32 32" fill="none" xmlns="http://www.w3.org/2000/svg">
<g clip-path="url(#clip0_5678_2532)">
<mask id="mask0_5678_2532" style="mask-type:luminance" maskUnits="userSpaceOnUse" x="6" y="6" width="20" height="20">
<path d="M26 6H6V26H26V6Z" fill="white"/>
</mask>
<g mask="url(#mask0_5678_2532)">
<path d="M19.8 17.25H15.45C15.397 17.25 15.3461 17.2289 15.3086 17.1914C15.2711 17.1539 15.25 17.103 15.25 17.05V12.2C15.25 12.147 15.2711 12.0961 15.3086 12.0586C15.3461 12.0211 15.397 12 15.45 12H16.55C16.603 12 16.6539 12.0211 16.6914 12.0586C16.7289 12.0961 16.75 12.147 16.75 12.2V15.75H19.8C19.853 15.75 19.9039 15.7711 19.9414 15.8086C19.9789 15.8461 20 15.897 20 15.95V17.05C20 17.103 19.9789 17.1539 19.9414 17.1914C19.9039 17.2289 19.853 17.25 19.8 17.25Z" fill="white"/>
<path d="M16 9.5C17.2856 9.5 18.5423 9.88122 19.6112 10.5954C20.6801 11.3097 21.5133 12.3248 22.0052 13.5126C22.4972 14.7003 22.6259 16.0072 22.3751 17.2681C22.1243 18.529 21.5052 19.6872 20.5962 20.5962C19.6872 21.5052 18.529 22.1243 17.2681 22.3751C16.0072 22.6259 14.7003 22.4972 13.5126 22.0052C12.3248 21.5132 11.3097 20.6801 10.5955 19.6112C9.88122 18.5423 9.5 17.2856 9.5 16C9.50212 14.2767 10.1876 12.6247 11.4061 11.4061C12.6247 10.1876 14.2767 9.50212 16 9.5ZM16 8C14.4178 8 12.871 8.46919 11.5554 9.34824C10.2398 10.2273 9.21447 11.4767 8.60897 12.9385C8.00347 14.4003 7.84504 16.0089 8.15372 17.5607C8.4624 19.1126 9.22433 20.538 10.3431 21.6569C11.462 22.7757 12.8874 23.5376 14.4393 23.8463C15.9911 24.155 17.5997 23.9965 19.0615 23.391C20.5233 22.7855 21.7727 21.7602 22.6518 20.4446C23.5308 19.129 24 17.5823 24 16C24 13.8783 23.1571 11.8434 21.6569 10.3431C20.1566 8.84285 18.1217 8 16 8Z" fill="white"/>
</g>
</g>
<defs>
<clipPath id="clip0_5678_2532">
<rect width="20" height="20" fill="white" transform="translate(6 6)"/>
</clipPath>
</defs>
</svg>
