<svg width="12" height="12" viewBox="0 0 12 12" fill="none" xmlns="http://www.w3.org/2000/svg">
<path d="M10.2433 1.75799C9.40424 0.918698 8.33514 0.347075 7.1712 0.115417C6.00727 -0.116242 4.80078 0.00249997 3.70432 0.456573C2.60785 0.910645 1.67069 1.67968 1.01132 2.66641C0.351953 3.65315 0 4.81323 0 6C0 7.18676 0.351953 8.34688 1.01132 9.33362C1.67069 10.3204 2.60785 11.0894 3.70432 11.5435C4.80078 11.9975 6.00727 12.1162 7.1712 11.8846C8.33514 11.6529 9.40424 11.0813 10.2433 10.242C11.3681 9.11684 12 7.59098 12 6C12 4.40901 11.3681 2.88316 10.2433 1.75799ZM8.58029 4.271L6.84927 6.00201L8.58029 7.73202C8.6431 7.78581 8.69409 7.85198 8.7301 7.92642C8.76612 8.00086 8.78636 8.08195 8.78955 8.16458C8.79274 8.24721 8.77882 8.32962 8.74866 8.40662C8.71849 8.48361 8.67273 8.55353 8.61426 8.612C8.55579 8.67047 8.48587 8.71623 8.40887 8.7464C8.33188 8.77656 8.24947 8.79048 8.16684 8.78729C8.08421 8.7841 8.00315 8.76386 7.92871 8.72784C7.85427 8.69183 7.78807 8.64081 7.73428 8.578L6.0033 6.84802L4.27328 8.578C4.1585 8.6763 4.01087 8.72766 3.85986 8.72183C3.70886 8.716 3.5656 8.65339 3.45874 8.54654C3.35188 8.43968 3.28928 8.29645 3.28345 8.14545C3.27761 7.99444 3.32898 7.84681 3.42728 7.73202L5.15729 6.00201L3.42728 4.271C3.32898 4.15621 3.27761 4.00858 3.28345 3.85757C3.28928 3.70657 3.35188 3.56334 3.45874 3.45648C3.5656 3.34962 3.70886 3.28702 3.85986 3.28119C4.01087 3.27536 4.1585 3.32672 4.27328 3.42502L6.0033 5.156L7.73428 3.42502C7.84906 3.32672 7.9967 3.27536 8.14771 3.28119C8.29871 3.28702 8.44197 3.34962 8.54883 3.45648C8.65568 3.56334 8.71829 3.70657 8.72412 3.85757C8.72995 4.00858 8.67859 4.15621 8.58029 4.271Z" fill="white"/>
</svg>
