<svg width="20" height="20" viewBox="0 0 20 20" fill="none" xmlns="http://www.w3.org/2000/svg">
<g clip-path="url(#clip0_413_12247)">
<mask id="mask0_413_12247" style="mask-type:luminance" maskUnits="userSpaceOnUse" x="0" y="0" width="20" height="20">
<path d="M20 0H0V20H20V0Z" fill="white"/>
</mask>
<g mask="url(#mask0_413_12247)">
<path d="M16.223 10C16.223 9.82337 16.2932 9.65397 16.4181 9.52907C16.543 9.40417 16.7124 9.334 16.889 9.334H18V6H15C14.7348 6 14.4804 5.89464 14.2929 5.70711C14.1054 5.51957 14 5.26522 14 5V2H10.667V3.111C10.6705 3.2007 10.6558 3.29017 10.6239 3.37407C10.592 3.45796 10.5434 3.53455 10.4812 3.59924C10.419 3.66393 10.3443 3.7154 10.2617 3.75055C10.1791 3.7857 10.0903 3.80382 10.0005 3.80382C9.91073 3.80382 9.82189 3.7857 9.7393 3.75055C9.6567 3.7154 9.58205 3.66393 9.51982 3.59924C9.45758 3.53455 9.40905 3.45796 9.37712 3.37407C9.34519 3.29017 9.33052 3.2007 9.334 3.111V2H6V5C6 5.26522 5.89464 5.51957 5.70711 5.70711C5.51957 5.89464 5.26522 6 5 6H2V9.334H3.111C3.2007 9.33052 3.29017 9.34519 3.37407 9.37712C3.45796 9.40905 3.53455 9.45758 3.59924 9.51982C3.66393 9.58205 3.7154 9.6567 3.75055 9.7393C3.7857 9.82189 3.80382 9.91073 3.80382 10.0005C3.80382 10.0903 3.7857 10.1791 3.75055 10.2617C3.7154 10.3443 3.66393 10.419 3.59924 10.4812C3.53455 10.5434 3.45796 10.592 3.37407 10.6239C3.29017 10.6558 3.2007 10.6705 3.111 10.667H2V14H5C5.26522 14 5.51957 14.1054 5.70711 14.2929C5.89464 14.4804 6 14.7348 6 15V18H9.334V16.889C9.34067 16.7167 9.41382 16.5537 9.53808 16.4341C9.66234 16.3146 9.82807 16.2478 10.0005 16.2478C10.1729 16.2478 10.3387 16.3146 10.4629 16.4341C10.5872 16.5537 10.6603 16.7167 10.667 16.889V18H14V15C14 14.7348 14.1054 14.4804 14.2929 14.2929C14.4804 14.1054 14.7348 14 15 14H18V10.667H16.889C16.8015 10.667 16.7148 10.6497 16.6339 10.6162C16.553 10.5827 16.4796 10.5335 16.4177 10.4716C16.3559 10.4096 16.3068 10.3361 16.2734 10.2552C16.24 10.1743 16.2229 10.0875 16.223 10ZM9.334 5.334C9.33052 5.2443 9.34519 5.15482 9.37712 5.07093C9.40905 4.98704 9.45758 4.91045 9.51982 4.84576C9.58205 4.78107 9.6567 4.7296 9.7393 4.69445C9.82189 4.6593 9.91073 4.64118 10.0005 4.64118C10.0903 4.64118 10.1791 4.6593 10.2617 4.69445C10.3443 4.7296 10.419 4.78107 10.4812 4.84576C10.5434 4.91045 10.592 4.98704 10.6239 5.07093C10.6558 5.15482 10.6705 5.2443 10.667 5.334V6.667C10.6705 6.7567 10.6558 6.84618 10.6239 6.93007C10.592 7.01396 10.5434 7.09055 10.4812 7.15524C10.419 7.21993 10.3443 7.2714 10.2617 7.30655C10.1791 7.3417 10.0903 7.35982 10.0005 7.35982C9.91073 7.35982 9.82189 7.3417 9.7393 7.30655C9.6567 7.2714 9.58205 7.21993 9.51982 7.15524C9.45758 7.09055 9.40905 7.01396 9.37712 6.93007C9.34519 6.84618 9.33052 6.7567 9.334 6.667V5.334ZM6.667 10.667H5.334C5.2443 10.6705 5.15482 10.6558 5.07093 10.6239C4.98704 10.592 4.91045 10.5434 4.84576 10.4812C4.78107 10.419 4.7296 10.3443 4.69445 10.2617C4.6593 10.1791 4.64118 10.0903 4.64118 10.0005C4.64118 9.91073 4.6593 9.82189 4.69445 9.7393C4.7296 9.6567 4.78107 9.58205 4.84576 9.51982C4.91045 9.45758 4.98704 9.40905 5.07093 9.37712C5.15482 9.34519 5.2443 9.33052 5.334 9.334H6.667C6.7567 9.33052 6.84618 9.34519 6.93007 9.37712C7.01396 9.40905 7.09055 9.45758 7.15524 9.51982C7.21993 9.58205 7.2714 9.6567 7.30655 9.7393C7.3417 9.82189 7.35982 9.91073 7.35982 10.0005C7.35982 10.0903 7.3417 10.1791 7.30655 10.2617C7.2714 10.3443 7.21993 10.419 7.15524 10.4812C7.09055 10.5434 7.01396 10.592 6.93007 10.6239C6.84618 10.6558 6.7567 10.6705 6.667 10.667ZM10.667 14.667C10.6705 14.7567 10.6558 14.8462 10.6239 14.9301C10.592 15.014 10.5434 15.0906 10.4812 15.1552C10.419 15.2199 10.3443 15.2714 10.2617 15.3065C10.1791 15.3417 10.0903 15.3598 10.0005 15.3598C9.91073 15.3598 9.82189 15.3417 9.7393 15.3065C9.6567 15.2714 9.58205 15.2199 9.51982 15.1552C9.45758 15.0906 9.40905 15.014 9.37712 14.9301C9.34519 14.8462 9.33052 14.7567 9.334 14.667V13.334C9.33052 13.2443 9.34519 13.1548 9.37712 13.0709C9.40905 12.987 9.45758 12.9104 9.51982 12.8458C9.58205 12.7811 9.6567 12.7296 9.7393 12.6945C9.82189 12.6593 9.91073 12.6412 10.0005 12.6412C10.0903 12.6412 10.1791 12.6593 10.2617 12.6945C10.3443 12.7296 10.419 12.7811 10.4812 12.8458C10.5434 12.9104 10.592 12.987 10.6239 13.0709C10.6558 13.1548 10.6705 13.2443 10.667 13.334V14.667ZM11.111 10.667H10.667V11.111C10.6705 11.2007 10.6558 11.2902 10.6239 11.3741C10.592 11.458 10.5434 11.5346 10.4812 11.5992C10.419 11.6639 10.3443 11.7154 10.2617 11.7505C10.1791 11.7857 10.0903 11.8038 10.0005 11.8038C9.91073 11.8038 9.82189 11.7857 9.7393 11.7505C9.6567 11.7154 9.58205 11.6639 9.51982 11.5992C9.45758 11.5346 9.40905 11.458 9.37712 11.3741C9.34519 11.2902 9.33052 11.2007 9.334 11.111V10.667H8.889C8.7167 10.6603 8.55368 10.5872 8.43414 10.4629C8.3146 10.3387 8.24782 10.1729 8.24782 10.0005C8.24782 9.82807 8.3146 9.66234 8.43414 9.53808C8.55368 9.41382 8.7167 9.34067 8.889 9.334H9.334V8.889C9.34067 8.7167 9.41382 8.55368 9.53808 8.43414C9.66234 8.3146 9.82807 8.24782 10.0005 8.24782C10.1729 8.24782 10.3387 8.3146 10.4629 8.43414C10.5872 8.55368 10.6603 8.7167 10.667 8.889V9.334H11.111C11.2007 9.33052 11.2902 9.34519 11.3741 9.37712C11.458 9.40905 11.5346 9.45758 11.5992 9.51982C11.6639 9.58205 11.7154 9.6567 11.7505 9.7393C11.7857 9.82189 11.8038 9.91073 11.8038 10.0005C11.8038 10.0903 11.7857 10.1791 11.7505 10.2617C11.7154 10.3443 11.6639 10.419 11.5992 10.4812C11.5346 10.5434 11.458 10.592 11.3741 10.6239C11.2902 10.6558 11.2007 10.6705 11.111 10.667ZM14.667 10.667H13.334C13.2443 10.6705 13.1548 10.6558 13.0709 10.6239C12.987 10.592 12.9104 10.5434 12.8458 10.4812C12.7811 10.419 12.7296 10.3443 12.6945 10.2617C12.6593 10.1791 12.6412 10.0903 12.6412 10.0005C12.6412 9.91073 12.6593 9.82189 12.6945 9.7393C12.7296 9.6567 12.7811 9.58205 12.8458 9.51982C12.9104 9.45758 12.987 9.40905 13.0709 9.37712C13.1548 9.34519 13.2443 9.33052 13.334 9.334H14.667C14.7567 9.33052 14.8462 9.34519 14.9301 9.37712C15.014 9.40905 15.0906 9.45758 15.1552 9.51982C15.2199 9.58205 15.2714 9.6567 15.3065 9.7393C15.3417 9.82189 15.3598 9.91073 15.3598 10.0005C15.3598 10.0903 15.3417 10.1791 15.3065 10.2617C15.2714 10.3443 15.2199 10.419 15.1552 10.4812C15.0906 10.5434 15.014 10.592 14.9301 10.6239C14.8462 10.6558 14.7567 10.6705 14.667 10.667Z" fill="white"/>
</g>
</g>
<defs>
<clipPath id="clip0_413_12247">
<rect width="20" height="20" fill="white"/>
</clipPath>
</defs>
</svg>
