<svg width="20" height="20" viewBox="0 0 20 20" fill="none" xmlns="http://www.w3.org/2000/svg">
<path d="M16.9993 5.07812C17.2645 5.07812 17.5189 5.18348 17.7064 5.37102C17.8939 5.55855 17.9993 5.81291 17.9993 6.07812V13.9981C17.9993 14.2633 17.8939 14.5177 17.7064 14.7052C17.5189 14.8928 17.2645 14.9981 16.9993 14.9981H2.98828C2.72306 14.9981 2.46871 14.8928 2.28117 14.7052C2.09364 14.5177 1.98828 14.2633 1.98828 13.9981V6.07812C1.98828 5.81291 2.09364 5.55855 2.28117 5.37102C2.46871 5.18348 2.72306 5.07812 2.98828 5.07812H16.9993ZM16.9993 4.07812H2.98828C2.45785 4.07813 1.94914 4.28884 1.57407 4.66391C1.19899 5.03898 0.988281 5.54769 0.988281 6.07812V13.9981C0.988281 14.5286 1.19899 15.0373 1.57407 15.4123C1.94914 15.7874 2.45785 15.9981 2.98828 15.9981H16.9993C17.5297 15.9981 18.0384 15.7874 18.4135 15.4123C18.7886 15.0373 18.9993 14.5286 18.9993 13.9981V6.07812C18.9993 5.54769 18.7886 5.03898 18.4135 4.66391C18.0384 4.28884 17.5297 4.07813 16.9993 4.07812Z" fill="#27D4FF"/>
<path d="M5.99975 11.3217V11.8757H2.34375V11.3217H3.04375V10.0847H3.72675V11.3217H4.03575V10.0847H4.71875V11.3217H5.99975ZM4.88675 10.7977C4.97987 10.2513 5.02571 9.6979 5.02375 9.14366H2.68775V8.59766H5.71975V8.96266C5.73002 9.59878 5.68417 10.2346 5.58275 10.8627L4.88675 10.7977Z" fill="#27D4FF"/>
<path d="M7.73791 9.51688C7.72371 9.82241 7.79856 10.1255 7.95336 10.3893C8.10816 10.6531 8.33625 10.8663 8.60991 11.0029L8.24491 11.5309C7.85329 11.3396 7.55008 11.0053 7.39791 10.5969C7.3243 10.8163 7.20644 11.0182 7.05164 11.1902C6.89683 11.3622 6.70836 11.5006 6.49791 11.5969L6.12891 11.0689C6.41589 10.9274 6.65523 10.7051 6.81745 10.4294C6.97968 10.1536 7.0577 9.83643 7.04191 9.51688V9.46488H6.27691V8.92387H7.04191V8.39687H7.74191V8.92587H8.48891V9.46688H7.73791V9.51688ZM9.94591 10.3759H9.40491V12.3219H8.70491V8.29688H9.40491V9.80888H9.94591V10.3759Z" fill="#27D4FF"/>
<path d="M13.7368 11.3453V11.9033H10.0898V11.3453H11.5638V10.8213H10.4888V9.40334H12.6628V9.07334H10.4848V8.52734H13.3508V9.93634H11.1768V10.2753H13.4408V10.8213H12.2588V11.3453H13.7368Z" fill="#27D4FF"/>
<path d="M16.0514 10.4569H14.1094V8.57588H16.0514V8.83288H16.6664V8.29688H17.3664V10.6429H16.6664V10.1909H16.0514V10.4569ZM17.3784 11.5269C17.3784 12.0339 16.8374 12.3269 15.9784 12.3269C15.1194 12.3269 14.5784 12.0349 14.5784 11.5269C14.5784 11.0189 15.1194 10.7269 15.9784 10.7269C16.8374 10.7269 17.3784 11.0189 17.3784 11.5269ZM15.3724 9.11687H14.7924V9.91687H15.3724V9.11687ZM16.6824 11.5269C16.6824 11.3329 16.4554 11.2559 15.9744 11.2559C15.4934 11.2559 15.2744 11.3329 15.2744 11.5269C15.2744 11.7209 15.4974 11.8009 15.9744 11.8009C16.4514 11.8009 16.6824 11.7239 16.6824 11.5269ZM16.0514 9.64087H16.6654V9.37887H16.0514V9.64087Z" fill="#27D4FF"/>
</svg>
