<svg width="48" height="48" viewBox="0 0 48 48" fill="none" xmlns="http://www.w3.org/2000/svg">
<path d="M24 8C15.1634 8 8 15.1634 8 24C8 32.8366 15.1634 40 24 40C32.8366 40 40 32.8366 40 24C40 15.1634 32.8366 8 24 8Z" fill="#27D4FF"/>
<path d="M8.5 24C8.5 15.4396 15.4396 8.5 24 8.5C32.5604 8.5 39.5 15.4396 39.5 24C39.5 32.5604 32.5604 39.5 24 39.5C15.4396 39.5 8.5 32.5604 8.5 24Z" stroke="black" stroke-opacity="0.3"/>
<g clip-path="url(#clip0_595_6276)">
<mask id="mask0_595_6276" style="mask-type:luminance" maskUnits="userSpaceOnUse" x="12" y="12" width="24" height="24">
<path d="M36 12H12V36H36V12Z" fill="white"/>
</mask>
<g mask="url(#mask0_595_6276)">
<mask id="mask1_595_6276" style="mask-type:luminance" maskUnits="userSpaceOnUse" x="12" y="12" width="24" height="24">
<path d="M36 12H12V36H36V12Z" fill="white"/>
</mask>
<g mask="url(#mask1_595_6276)">
<path d="M31 24C31 23.8011 31.079 23.6103 31.2197 23.4697C31.3603 23.329 31.5511 23.25 31.75 23.25H33V20H29C28.7348 20 28.4804 19.8946 28.2929 19.7071C28.1054 19.5196 28 19.2652 28 19V15H24.75V16.25C24.75 16.4489 24.671 16.6397 24.5303 16.7803C24.3897 16.921 24.1989 17 24 17C23.8011 17 23.6103 16.921 23.4697 16.7803C23.329 16.6397 23.25 16.4489 23.25 16.25V15H20V19C20 19.2652 19.8946 19.5196 19.7071 19.7071C19.5196 19.8946 19.2652 20 19 20H15V23.25H16.25C16.4489 23.25 16.6397 23.329 16.7803 23.4697C16.921 23.6103 17 23.8011 17 24C17 24.1989 16.921 24.3897 16.7803 24.5303C16.6397 24.671 16.4489 24.75 16.25 24.75H15V28H19C19.2652 28 19.5196 28.1054 19.7071 28.2929C19.8946 28.4804 20 28.7348 20 29V33H23.25V31.75C23.25 31.5511 23.329 31.3603 23.4697 31.2197C23.6103 31.079 23.8011 31 24 31C24.1989 31 24.3897 31.079 24.5303 31.2197C24.671 31.3603 24.75 31.5511 24.75 31.75V33H28V29C28 28.7348 28.1054 28.4804 28.2929 28.2929C28.4804 28.1054 28.7348 28 29 28H33V24.75H31.75C31.5511 24.75 31.3603 24.671 31.2197 24.5303C31.079 24.3897 31 24.1989 31 24ZM23.25 18.75C23.25 18.5511 23.329 18.3603 23.4697 18.2197C23.6103 18.079 23.8011 18 24 18C24.1989 18 24.3897 18.079 24.5303 18.2197C24.671 18.3603 24.75 18.5511 24.75 18.75V20.25C24.75 20.4489 24.671 20.6397 24.5303 20.7803C24.3897 20.921 24.1989 21 24 21C23.8011 21 23.6103 20.921 23.4697 20.7803C23.329 20.6397 23.25 20.4489 23.25 20.25V18.75ZM20.25 24.75H18.75C18.5511 24.75 18.3603 24.671 18.2197 24.5303C18.079 24.3897 18 24.1989 18 24C18 23.8011 18.079 23.6103 18.2197 23.4697C18.3603 23.329 18.5511 23.25 18.75 23.25H20.25C20.4489 23.25 20.6397 23.329 20.7803 23.4697C20.921 23.6103 21 23.8011 21 24C21 24.1989 20.921 24.3897 20.7803 24.5303C20.6397 24.671 20.4489 24.75 20.25 24.75ZM24.75 29.25C24.75 29.4489 24.671 29.6397 24.5303 29.7803C24.3897 29.921 24.1989 30 24 30C23.8011 30 23.6103 29.921 23.4697 29.7803C23.329 29.6397 23.25 29.4489 23.25 29.25V27.75C23.25 27.5511 23.329 27.3603 23.4697 27.2197C23.6103 27.079 23.8011 27 24 27C24.1989 27 24.3897 27.079 24.5303 27.2197C24.671 27.3603 24.75 27.5511 24.75 27.75V29.25ZM25.25 24.75H24.75V25.25C24.75 25.4489 24.671 25.6397 24.5303 25.7803C24.3897 25.921 24.1989 26 24 26C23.8011 26 23.6103 25.921 23.4697 25.7803C23.329 25.6397 23.25 25.4489 23.25 25.25V24.75H22.75C22.5511 24.75 22.3603 24.671 22.2197 24.5303C22.079 24.3897 22 24.1989 22 24C22 23.8011 22.079 23.6103 22.2197 23.4697C22.3603 23.329 22.5511 23.25 22.75 23.25H23.25V22.75C23.25 22.5511 23.329 22.3603 23.4697 22.2197C23.6103 22.079 23.8011 22 24 22C24.1989 22 24.3897 22.079 24.5303 22.2197C24.671 22.3603 24.75 22.5511 24.75 22.75V23.25H25.25C25.4489 23.25 25.6397 23.329 25.7803 23.4697C25.921 23.6103 26 23.8011 26 24C26 24.1989 25.921 24.3897 25.7803 24.5303C25.6397 24.671 25.4489 24.75 25.25 24.75ZM29.25 24.75H27.75C27.5511 24.75 27.3603 24.671 27.2197 24.5303C27.079 24.3897 27 24.1989 27 24C27 23.8011 27.079 23.6103 27.2197 23.4697C27.3603 23.329 27.5511 23.25 27.75 23.25H29.25C29.4489 23.25 29.6397 23.329 29.7803 23.4697C29.921 23.6103 30 23.8011 30 24C30 24.1989 29.921 24.3897 29.7803 24.5303C29.6397 24.671 29.4489 24.75 29.25 24.75Z" fill="white"/>
</g>
</g>
</g>
<defs>
<clipPath id="clip0_595_6276">
<rect width="24" height="24" fill="white" transform="translate(12 12)"/>
</clipPath>
</defs>
</svg>
