<svg width="48" height="54" viewBox="0 0 48 54" fill="none" xmlns="http://www.w3.org/2000/svg">
<path d="M24 46C23.6526 46 23.3259 45.8653 23.0802 45.6208L12.5323 35.0188C9.5478 31.9673 7.93777 27.9385 8.00184 23.6781C8.13157 15.0332 15.3094 8 24.0024 8C24.0526 8 24.104 8.00025 24.1543 8.00075C28.3956 8.04068 32.3767 9.71443 35.3642 12.7138C38.3536 15.715 40 19.6952 40 23.9211C40 28.089 38.3893 32.0314 35.4647 35.022L24.9178 45.6226C24.674 45.8653 24.3474 45.9999 24 46Z" fill="#00BD78"/>
<path d="M13.444 21.444C14.331 21.425 15.2079 21.2525 16.036 20.934C16.2897 20.8519 16.5217 20.7138 16.7148 20.53C16.908 20.3462 17.0574 20.1213 17.152 19.872H13.96V18.948H17.26V18H18.496V18.948H21.808V19.872H18.608C18.7022 20.1209 18.851 20.3455 19.0434 20.5293C19.2359 20.7131 19.4671 20.8514 19.72 20.934C20.5441 21.2518 21.417 21.4243 22.3 21.444L21.964 22.368C21.1067 22.3261 20.2599 22.1604 19.45 21.876C18.833 21.6737 18.2868 21.2989 17.876 20.796C17.4663 21.2983 16.9216 21.673 16.306 21.876C15.5011 22.1611 14.6589 22.3269 13.806 22.368L13.444 21.444ZM18.496 23.688V24.528H21.556V27.048H15.388V27.86H21.868V28.788H14.168V26.196H20.348V25.44H14.148V24.528H17.268V23.688H13V22.76H22.776V23.684L18.496 23.688ZM34.012 20.268V21.288H32.488V23.604H31.252V18.048H32.488V20.268H34.012ZM29.512 23.244H24.4V18.504H25.636V19.932H28.288V18.504H29.512V23.244ZM28.288 20.88H25.636V22.26H28.288V20.88ZM26.728 27.816H32.848V28.788H25.516V25.944H31.264V25.044H25.492V24.084H32.492V26.86H26.732L26.728 27.816Z" fill="white"/>
</svg>
