<svg width="48" height="54" viewBox="0 0 48 54" fill="none" xmlns="http://www.w3.org/2000/svg">
<path d="M24 46C23.6526 46 23.3259 45.8653 23.0802 45.6208L12.5323 35.0188C9.5478 31.9673 7.93777 27.9385 8.00184 23.6781C8.13157 15.0332 15.3094 8 24.0024 8C24.0526 8 24.104 8.00025 24.1543 8.00075C28.3956 8.04068 32.3767 9.71443 35.3642 12.7138C38.3536 15.715 40 19.6952 40 23.9211C40 28.089 38.3893 32.0314 35.4647 35.022L24.9178 45.6226C24.674 45.8653 24.3474 45.9999 24 46Z" fill="#00BD78"/>
<path d="M24.0024 8C15.3095 7.99939 8.13192 15.0471 8.00187 23.758C7.93548 28.1949 9.67773 32.2229 12.5353 35.1596L22.7554 45.4843C23.4428 46.1719 24.5573 46.1719 25.2445 45.4843L35.4648 35.1596C38.2697 32.2768 40 28.3426 40 24.0022C40 15.2161 32.9198 8.08368 24.1542 8.00073C24.1039 8.00024 24.0525 8 24.0024 8ZM24.0011 0L24.2306 0.00109863C37.3368 0.125122 48 10.892 48 24.0022C48 30.287 45.5845 36.2307 41.1985 40.7385L30.93 51.1124C29.0596 52.9841 26.608 54.0001 24 54.0001C21.3925 54.0001 18.9411 52.9844 17.0975 51.1402L6.84972 40.7876C2.32126 36.1341 -0.0933311 30.0611 0.00276112 23.6383C0.197364 10.6042 10.963 0 24.0011 0Z" fill="#27D4FF" fill-opacity="0.4"/>
<path d="M24.0024 8C15.3096 7.99939 8.13191 15.0471 8.00186 23.758C7.93547 28.1949 9.67772 32.2229 12.5353 35.1596L22.7554 45.4843C23.4428 46.1719 24.5573 46.1719 25.2445 45.4843L35.4648 35.1596C38.2697 32.2768 40 28.3426 40 24.0022C40 15.2161 32.9198 8.08368 24.1542 8.00073C24.1039 8.00024 24.0525 8 24.0024 8ZM24.0012 4H24.0027C24.0654 4 24.1292 4.00031 24.1916 4.00092C26.8701 4.02625 29.4674 4.57343 31.9117 5.62726C34.2721 6.64484 36.3896 8.08984 38.2054 9.92212C40.022 11.7552 41.4482 13.8867 42.4444 16.2574C43.4766 18.7137 44 21.3195 44 24.0022C44 29.2392 41.9869 34.1923 38.3316 37.949L38.3075 37.9736L28.0738 48.3119C26.9858 49.4005 25.539 50 24 50C22.4611 50 21.0145 49.4006 19.9265 48.3123L19.9126 48.2983L9.66853 37.9492C7.85557 36.086 6.44192 33.9258 5.46685 31.5284C4.45455 29.0396 3.9618 26.405 4.00231 23.6981C4.04208 21.0339 4.60354 18.4487 5.67109 16.0145C6.69906 13.6706 8.15055 11.5668 9.98524 9.76141C11.8187 7.95734 13.9445 6.54016 16.3037 5.54938C18.7516 4.5213 21.3414 4 24.0012 4Z" fill="#27D4FF" fill-opacity="0.4"/>
<path d="M39.5001 24.0042V24.0048C39.5044 28.0424 37.9276 31.9213 35.1075 34.8108C35.1071 34.8112 35.1067 34.8116 35.1063 34.812L24.8906 45.1327C24.8903 45.1331 24.8899 45.1334 24.8896 45.1337C24.6534 45.3694 24.3334 45.5017 23.9996 45.5017C23.6658 45.5017 23.3456 45.3693 23.1094 45.1335C23.1092 45.1332 23.1089 45.133 23.1087 45.1327L12.8929 34.812C12.8925 34.8116 12.8921 34.8112 12.8917 34.8108C11.4677 33.3514 10.3466 31.6246 9.5932 29.7298C8.83964 27.8347 8.46879 25.8091 8.50205 23.77C8.57756 19.6785 10.2625 15.7816 13.1917 12.924C16.1209 10.0665 20.0582 8.4785 24.1501 8.50421C28.2348 8.54375 32.1387 10.1941 35.0132 13.0965C37.8878 15.999 39.5003 19.9191 39.5001 24.0042Z" stroke="#27D4FF"/>
<path d="M14.069 21.487C14.956 21.468 15.8329 21.2954 16.661 20.977C16.9147 20.8948 17.1467 20.7568 17.3398 20.573C17.533 20.3891 17.6824 20.1643 17.777 19.915H14.585V18.991H17.885V18.043H19.121V18.991H22.433V19.915H19.233C19.3272 20.1638 19.476 20.3884 19.6684 20.5722C19.8609 20.756 20.0921 20.8943 20.345 20.977C21.1691 21.2947 22.042 21.4673 22.925 21.487L22.589 22.411C21.7317 22.3691 20.8849 22.2033 20.075 21.919C19.458 21.7167 18.9118 21.3419 18.501 20.839C18.0913 21.3413 17.5466 21.716 16.931 21.919C16.1261 22.2041 15.2839 22.3698 14.431 22.411L14.069 21.487ZM19.121 23.731V24.571H22.181V27.091H16.013V27.903H22.493V28.831H14.793V26.239H20.973V25.483H14.773V24.571H17.893V23.731H13.625V22.803H23.401V23.727L19.121 23.731ZM34.637 20.311V21.331H33.113V23.647H31.877V18.091H33.113V20.311H34.637ZM30.137 23.287H25.025V18.547H26.261V19.975H28.913V18.547H30.137V23.287ZM28.913 20.923H26.261V22.303H28.913V20.923ZM27.353 27.859H33.473V28.831H26.141V25.987H31.889V25.087H26.117V24.127H33.117V26.903H27.357L27.353 27.859Z" fill="white"/>
</svg>
