<svg width="20" height="20" viewBox="0 0 20 20" fill="none" xmlns="http://www.w3.org/2000/svg">
<mask id="mask0_259_6605" style="mask-type:luminance" maskUnits="userSpaceOnUse" x="0" y="0" width="20" height="20">
<path d="M20 0H0V20H20V0Z" fill="white"/>
</mask>
<g mask="url(#mask0_259_6605)">
<path d="M17.5 11.875C17.3342 11.875 17.1753 11.9408 17.0581 12.0581C16.9408 12.1753 16.875 12.3342 16.875 12.5V15.833C16.8747 16.1093 16.7649 16.3742 16.5695 16.5695C16.3742 16.7649 16.1093 16.8747 15.833 16.875H4.167C3.89073 16.8747 3.62584 16.7649 3.43049 16.5695C3.23513 16.3742 3.12526 16.1093 3.125 15.833V12.5C3.125 12.3342 3.05915 12.1753 2.94194 12.0581C2.82473 11.9408 2.66576 11.875 2.5 11.875C2.33424 11.875 2.17527 11.9408 2.05806 12.0581C1.94085 12.1753 1.875 12.3342 1.875 12.5V15.833C1.87553 16.4407 2.11718 17.0234 2.5469 17.4531C2.97661 17.8828 3.55929 18.1245 4.167 18.125H15.833C16.4407 18.1245 17.0234 17.8828 17.4531 17.4531C17.8828 17.0234 18.1245 16.4407 18.125 15.833V12.5C18.125 12.3342 18.0592 12.1753 17.9419 12.0581C17.8247 11.9408 17.6658 11.875 17.5 11.875Z" fill="white"/>
<path d="M9.55809 12.942C9.64525 13.0298 9.75663 13.0895 9.87796 13.1136C9.99929 13.1376 10.125 13.1249 10.2391 13.077C10.3138 13.0452 10.3817 12.9994 10.4391 12.942L14.6091 8.775C14.7263 8.65777 14.7922 8.49878 14.7922 8.333C14.7922 8.16722 14.7263 8.00823 14.6091 7.891C14.4919 7.77377 14.3329 7.70792 14.1671 7.70792C14.0013 7.70792 13.8423 7.77377 13.7251 7.891L10.6251 10.991V2.5C10.6251 2.33424 10.5592 2.17527 10.442 2.05806C10.3248 1.94085 10.1659 1.875 10.0001 1.875C9.83433 1.875 9.67536 1.94085 9.55815 2.05806C9.44094 2.17527 9.37509 2.33424 9.37509 2.5V10.991L6.27509 7.891C6.15786 7.77377 5.99887 7.70792 5.83309 7.70792C5.66731 7.70792 5.50832 7.77377 5.39109 7.891C5.27386 8.00823 5.20801 8.16722 5.20801 8.333C5.20801 8.49878 5.27386 8.65777 5.39109 8.775L9.55809 12.942Z" fill="white"/>
</g>
</svg>
