<svg width="20" height="20" viewBox="0 0 20 20" fill="none" xmlns="http://www.w3.org/2000/svg">
<mask id="mask0_392_8590" style="mask-type:luminance" maskUnits="userSpaceOnUse" x="0" y="0" width="20" height="20">
<path d="M20 0H0V20H20V0Z" fill="white"/>
</mask>
<g mask="url(#mask0_392_8590)">
<path d="M10.511 8.93376C10.8894 8.81218 11.2118 8.55946 11.4203 8.22114C11.6287 7.88282 11.7095 7.48116 11.6479 7.08857C11.5864 6.69599 11.3867 6.33829 11.0847 6.07997C10.7827 5.82164 10.3984 5.67969 10.001 5.67969C9.60366 5.67969 9.21935 5.82164 8.91739 6.07997C8.61543 6.33829 8.41568 6.69599 8.35415 7.08857C8.29262 7.48116 8.37336 7.88282 8.58181 8.22114C8.79027 8.55946 9.11272 8.81218 9.49105 8.93376L5.77905 16.3568C5.74104 16.433 5.72316 16.5177 5.7271 16.6029C5.73103 16.688 5.75666 16.7707 5.80154 16.8431C5.84643 16.9156 5.90908 16.9753 5.98355 17.0167C6.05802 17.0581 6.14183 17.0798 6.22705 17.0798H13.775C13.8602 17.0797 13.9439 17.0578 14.0182 17.0164C14.0925 16.9749 14.155 16.9151 14.1998 16.8427C14.2446 16.7703 14.2701 16.6876 14.274 16.6026C14.2779 16.5176 14.26 16.433 14.222 16.3568L10.511 8.93376Z" fill="#27D4FF"/>
<path d="M5.86488 9.99906C4.83688 7.93507 4.82788 6.31906 5.83688 4.76306C5.87838 4.70833 5.90817 4.64564 5.92437 4.57889C5.94058 4.51214 5.94285 4.44276 5.93106 4.37509C5.91927 4.30742 5.89366 4.24291 5.85583 4.18558C5.818 4.12824 5.76876 4.07932 5.71119 4.04185C5.65362 4.00439 5.58894 3.97919 5.5212 3.96783C5.45345 3.95646 5.3841 3.95918 5.31745 3.97581C5.2508 3.99243 5.1883 4.02262 5.13383 4.06447C5.07937 4.10632 5.03411 4.15895 5.00088 4.21906C3.79088 6.08106 3.78188 8.06106 4.96888 10.4471C5.01032 10.5307 5.07433 10.601 5.15368 10.6502C5.23303 10.6993 5.32455 10.7252 5.41788 10.7251C5.49501 10.725 5.57104 10.7069 5.63988 10.6721C5.69901 10.6428 5.75176 10.6022 5.79511 10.5525C5.83846 10.5028 5.87155 10.445 5.89246 10.3824C5.91338 10.3198 5.92171 10.2538 5.91697 10.188C5.91224 10.1222 5.89453 10.058 5.86488 9.99906Z" fill="#27D4FF"/>
<path d="M4.27747 3.64929C4.34378 3.53419 4.36164 3.39746 4.32713 3.26919C4.29263 3.14091 4.20858 3.0316 4.09347 2.96529C3.97837 2.89899 3.84164 2.88113 3.71336 2.91563C3.58509 2.95014 3.47578 3.03419 3.40947 3.14929C1.65247 6.22429 1.65047 8.58529 3.40047 11.8623C3.46408 11.9771 3.5703 12.0624 3.69621 12.0995C3.82211 12.1367 3.95759 12.1229 4.07339 12.0611C4.18919 11.9992 4.27603 11.8943 4.31515 11.769C4.35427 11.6437 4.34253 11.508 4.28247 11.3913C2.68247 8.39129 2.68247 6.44129 4.27547 3.64929" fill="#27D4FF"/>
<path d="M7.10455 9.50306C7.19624 9.50282 7.2861 9.47737 7.3643 9.4295C7.44251 9.38162 7.50604 9.31316 7.54795 9.23161C7.58986 9.15006 7.60854 9.05855 7.60194 8.96709C7.59535 8.87564 7.56373 8.78776 7.51055 8.71306C7.23034 8.31585 7.07992 7.84166 7.07992 7.35556C7.07992 6.86946 7.23034 6.39527 7.51055 5.99806C7.55101 5.94488 7.5804 5.88412 7.59698 5.81939C7.61357 5.75465 7.617 5.68725 7.60709 5.62116C7.59718 5.55507 7.57412 5.49164 7.53928 5.43462C7.50444 5.37759 7.45852 5.32813 7.40423 5.28916C7.34995 5.25018 7.28841 5.22248 7.22323 5.2077C7.15806 5.19292 7.09059 5.19135 7.0248 5.20309C6.95902 5.21482 6.89625 5.23963 6.84021 5.27604C6.78417 5.31245 6.736 5.35972 6.69855 5.41506C6.29498 5.98202 6.07812 6.66064 6.07812 7.35656C6.07812 8.05248 6.29498 8.7311 6.69855 9.29806C6.74485 9.36309 6.80605 9.41609 6.87703 9.45263C6.94802 9.48916 7.02671 9.50817 7.10655 9.50806" fill="#27D4FF"/>
<path d="M15.1087 4.21908C15.0358 4.10955 14.9227 4.03316 14.7938 4.00648C14.665 3.9798 14.5308 4.00499 14.4204 4.07657C14.31 4.14815 14.2323 4.26036 14.2041 4.38887C14.1759 4.51738 14.1995 4.65183 14.2697 4.76308C15.2787 6.32008 15.2697 7.93608 14.2417 10.0021C14.2118 10.0609 14.1939 10.1251 14.1889 10.1909C14.184 10.2567 14.1921 10.3228 14.2128 10.3854C14.2335 10.4481 14.2664 10.506 14.3096 10.5559C14.3528 10.6058 14.4054 10.6466 14.4645 10.676C14.5236 10.7055 14.5878 10.7229 14.6537 10.7274C14.7195 10.7318 14.7856 10.7232 14.8481 10.702C14.9106 10.6808 14.9682 10.6475 15.0178 10.6039C15.0673 10.5603 15.1077 10.5074 15.1367 10.4481C16.3247 8.06108 16.3157 6.08208 15.1087 4.21908Z" fill="#27D4FF"/>
<path d="M16.6993 3.1532C16.633 3.0381 16.5237 2.95405 16.3954 2.91954C16.2672 2.88503 16.1304 2.9029 16.0153 2.9692C15.9002 3.0355 15.8162 3.14482 15.7817 3.27309C15.7472 3.40137 15.765 3.5381 15.8313 3.6532C17.4313 6.4452 17.4313 8.3982 15.8243 11.3952C15.7922 11.4532 15.7719 11.517 15.7647 11.5829C15.7575 11.6488 15.7634 11.7155 15.7822 11.7791C15.801 11.8427 15.8322 11.9019 15.8741 11.9533C15.916 12.0047 15.9677 12.0473 16.0262 12.0785C16.0847 12.1097 16.1488 12.129 16.2148 12.1353C16.2808 12.1415 16.3474 12.1345 16.4107 12.1147C16.474 12.095 16.5327 12.0628 16.5835 12.0202C16.6342 11.9775 16.676 11.9252 16.7063 11.8662C18.4583 8.5892 18.4563 6.2282 16.6993 3.1572" fill="#27D4FF"/>
<path d="M12.7117 9.40987C12.7654 9.44834 12.8261 9.47581 12.8903 9.49071C12.9546 9.5056 13.0212 9.50762 13.0863 9.49665C13.1514 9.48568 13.2136 9.46194 13.2695 9.42679C13.3253 9.39165 13.3737 9.34579 13.4117 9.29187C13.8138 8.72523 14.0297 8.04764 14.0297 7.35287C14.0297 6.65811 13.8138 5.98052 13.4117 5.41387C13.3735 5.36016 13.325 5.31452 13.2691 5.27954C13.2131 5.24457 13.1509 5.22096 13.0858 5.21004C13.0208 5.19913 12.9542 5.20114 12.8899 5.21595C12.8257 5.23077 12.7649 5.25809 12.7112 5.29637C12.6575 5.33465 12.6119 5.38314 12.5769 5.43906C12.5419 5.49498 12.5183 5.55724 12.5074 5.62229C12.4965 5.68734 12.4985 5.7539 12.5133 5.81817C12.5281 5.88244 12.5555 5.94316 12.5937 5.99687C12.8753 6.39446 13.0266 6.86966 13.0266 7.35687C13.0266 7.84409 12.8753 8.31929 12.5937 8.71687C12.5553 8.77049 12.5278 8.8312 12.5129 8.89549C12.498 8.95977 12.496 9.02637 12.507 9.09145C12.5179 9.15652 12.5417 9.21878 12.5768 9.27463C12.612 9.33048 12.6578 9.37883 12.7117 9.41687" fill="#27D4FF"/>
</g>
</svg>
