<svg width="20" height="20" viewBox="0 0 20 20" fill="none" xmlns="http://www.w3.org/2000/svg">
<mask id="mask0_331_9218" style="mask-type:luminance" maskUnits="userSpaceOnUse" x="0" y="0" width="20" height="20">
<path d="M20 0H0V20H20V0Z" fill="white"/>
</mask>
<g mask="url(#mask0_331_9218)">
<path d="M17.5 7H2.5C2.36739 7 2.24021 7.05268 2.14645 7.14645C2.05268 7.24021 2 7.36739 2 7.5V12.5C2 12.6326 2.05268 12.7598 2.14645 12.8536C2.24021 12.9473 2.36739 13 2.5 13H17.5C17.6326 13 17.7598 12.9473 17.8536 12.8536C17.9473 12.7598 18 12.6326 18 12.5V7.5C18 7.36739 17.9473 7.24021 17.8536 7.14645C17.7598 7.05268 17.6326 7 17.5 7ZM4.5 11.5C4.20333 11.5 3.91332 11.412 3.66664 11.2472C3.41997 11.0824 3.22771 10.8481 3.11418 10.574C3.00065 10.2999 2.97094 9.99834 3.02882 9.70736C3.0867 9.41639 3.22956 9.14912 3.43934 8.93934C3.64912 8.72956 3.91639 8.5867 4.20736 8.52882C4.49834 8.47094 4.79994 8.50065 5.07403 8.61418C5.34811 8.72771 5.58238 8.91997 5.7472 9.16665C5.91203 9.41332 6 9.70333 6 10C6 10.3978 5.84196 10.7794 5.56066 11.0607C5.27936 11.342 4.89782 11.5 4.5 11.5ZM8 11.5C7.70333 11.5 7.41332 11.412 7.16664 11.2472C6.91997 11.0824 6.72771 10.8481 6.61418 10.574C6.50065 10.2999 6.47094 9.99834 6.52882 9.70736C6.5867 9.41639 6.72956 9.14912 6.93934 8.93934C7.14912 8.72956 7.41639 8.5867 7.70736 8.52882C7.99834 8.47094 8.29994 8.50065 8.57403 8.61418C8.84811 8.72771 9.08238 8.91997 9.2472 9.16665C9.41203 9.41332 9.5 9.70333 9.5 10C9.5 10.3978 9.34196 10.7794 9.06066 11.0607C8.77936 11.342 8.39782 11.5 8 11.5ZM12.75 11.5H12.25C12.1174 11.5 11.9902 11.4473 11.8964 11.3536C11.8027 11.2598 11.75 11.1326 11.75 11C11.75 10.8674 11.8027 10.7402 11.8964 10.6464C11.9902 10.5527 12.1174 10.5 12.25 10.5H12.75C12.8826 10.5 13.0098 10.5527 13.1036 10.6464C13.1973 10.7402 13.25 10.8674 13.25 11C13.25 11.1326 13.1973 11.2598 13.1036 11.3536C13.0098 11.4473 12.8826 11.5 12.75 11.5ZM12.75 9.5H12.25C12.1174 9.5 11.9902 9.44732 11.8964 9.35355C11.8027 9.25979 11.75 9.13261 11.75 9C11.75 8.86739 11.8027 8.74021 11.8964 8.64645C11.9902 8.55268 12.1174 8.5 12.25 8.5H12.75C12.8826 8.5 13.0098 8.55268 13.1036 8.64645C13.1973 8.74021 13.25 8.86739 13.25 9C13.25 9.13261 13.1973 9.25979 13.1036 9.35355C13.0098 9.44732 12.8826 9.5 12.75 9.5ZM14.625 11.5H14.125C13.9924 11.5 13.8652 11.4473 13.7714 11.3536C13.6777 11.2598 13.625 11.1326 13.625 11C13.625 10.8674 13.6777 10.7402 13.7714 10.6464C13.8652 10.5527 13.9924 10.5 14.125 10.5H14.625C14.7576 10.5 14.8848 10.5527 14.9786 10.6464C15.0723 10.7402 15.125 10.8674 15.125 11C15.125 11.1326 15.0723 11.2598 14.9786 11.3536C14.8848 11.4473 14.7576 11.5 14.625 11.5ZM14.625 9.5H14.125C13.9924 9.5 13.8652 9.44732 13.7714 9.35355C13.6777 9.25979 13.625 9.13261 13.625 9C13.625 8.86739 13.6777 8.74021 13.7714 8.64645C13.8652 8.55268 13.9924 8.5 14.125 8.5H14.625C14.7576 8.5 14.8848 8.55268 14.9786 8.64645C15.0723 8.74021 15.125 8.86739 15.125 9C15.125 9.13261 15.0723 9.25979 14.9786 9.35355C14.8848 9.44732 14.7576 9.5 14.625 9.5ZM16.5 11.5H16C15.8674 11.5 15.7402 11.4473 15.6464 11.3536C15.5527 11.2598 15.5 11.1326 15.5 11C15.5 10.8674 15.5527 10.7402 15.6464 10.6464C15.7402 10.5527 15.8674 10.5 16 10.5H16.5C16.6326 10.5 16.7598 10.5527 16.8536 10.6464C16.9473 10.7402 17 10.8674 17 11C17 11.1326 16.9473 11.2598 16.8536 11.3536C16.7598 11.4473 16.6326 11.5 16.5 11.5ZM16.5 9.5H16C15.8674 9.5 15.7402 9.44732 15.6464 9.35355C15.5527 9.25979 15.5 9.13261 15.5 9C15.5 8.86739 15.5527 8.74021 15.6464 8.64645C15.7402 8.55268 15.8674 8.5 16 8.5H16.5C16.6326 8.5 16.7598 8.55268 16.8536 8.64645C16.9473 8.74021 17 8.86739 17 9C17 9.13261 16.9473 9.25979 16.8536 9.35355C16.7598 9.44732 16.6326 9.5 16.5 9.5Z" fill="white"/>
<path d="M4.5 9.5C4.40111 9.5 4.30444 9.52932 4.22221 9.58426C4.13999 9.63921 4.0759 9.7173 4.03806 9.80866C4.00022 9.90002 3.99031 10.0006 4.00961 10.0975C4.0289 10.1945 4.07652 10.2836 4.14645 10.3536C4.21637 10.4235 4.30546 10.4711 4.40246 10.4904C4.49945 10.5097 4.59998 10.4998 4.69134 10.4619C4.78271 10.4241 4.86079 10.36 4.91574 10.2778C4.97068 10.1956 5 10.0989 5 10C5 9.86739 4.94732 9.74021 4.85355 9.64645C4.75979 9.55268 4.63261 9.5 4.5 9.5Z" fill="white"/>
<path d="M8 9.5C7.90111 9.5 7.80444 9.52932 7.72221 9.58426C7.63999 9.63921 7.5759 9.7173 7.53806 9.80866C7.50022 9.90002 7.49031 10.0006 7.50961 10.0975C7.5289 10.1945 7.57652 10.2836 7.64645 10.3536C7.71637 10.4235 7.80546 10.4711 7.90246 10.4904C7.99945 10.5097 8.09998 10.4998 8.19134 10.4619C8.2827 10.4241 8.36079 10.36 8.41574 10.2778C8.47068 10.1956 8.5 10.0989 8.5 10C8.5 9.86739 8.44732 9.74021 8.35355 9.64645C8.25979 9.55268 8.13261 9.5 8 9.5Z" fill="white"/>
</g>
</svg>
