<svg width="24" height="24" viewBox="0 0 24 24" fill="none" xmlns="http://www.w3.org/2000/svg">
<path d="M23.9887 12.5203C23.8858 14.8915 23.0821 17.1789 21.6792 19.0932C20.2762 21.0076 18.3372 22.463 16.1071 23.2753C13.877 24.0876 11.4562 24.2204 9.15067 23.6568C6.84515 23.0933 4.75853 21.8587 3.15466 20.1092C1.55079 18.3598 0.501719 16.174 0.140108 13.8283C-0.221503 11.4826 0.120589 9.0824 1.12312 6.93114C2.12566 4.77988 3.7436 2.97422 5.77236 1.7425C7.80112 0.510777 10.1496 -0.0916822 12.5207 0.0113063C15.7003 0.149405 18.6947 1.54488 20.8454 3.89076C22.996 6.23664 24.1267 9.34077 23.9887 12.5203Z" fill="#DB0000"/>
<path d="M18.6013 7.22544L16.7733 5.39844L12.0013 10.1714L7.22934 5.39844L5.40234 7.22544L10.1753 11.9974L5.40234 16.7694L7.23034 18.5974L12.0023 13.8254L16.7743 18.5974L18.6023 16.7694L13.8303 11.9974L18.6013 7.22544Z" fill="white"/>
</svg>
