<svg width="280" height="124" viewBox="0 0 280 124" fill="none" xmlns="http://www.w3.org/2000/svg">
<g opacity="0.7">
<path d="M33.5 -0.000976562V123.999" stroke="#27D4FF" stroke-miterlimit="10" stroke-dasharray="2 4"/>
<path d="M75.499 -0.000976562V123.999" stroke="#27D4FF" stroke-miterlimit="10" stroke-dasharray="2 4"/>
<path d="M117.5 -0.000976562V123.999" stroke="#27D4FF" stroke-miterlimit="10" stroke-dasharray="2 4"/>
<path d="M160.5 -0.000976562V123.999" stroke="#27D4FF" stroke-miterlimit="10" stroke-dasharray="2 4"/>
<path d="M202.499 -0.000976562V123.999" stroke="#27D4FF" stroke-miterlimit="10" stroke-dasharray="2 4"/>
<path d="M245.5 -0.000976562V123.999" stroke="#27D4FF" stroke-miterlimit="10" stroke-dasharray="2 4"/>
<path d="M0 107.542H280" stroke="#27D4FF" stroke-miterlimit="10" stroke-dasharray="2 4"/>
<path d="M0 62.542H280" stroke="#27D4FF" stroke-miterlimit="10" stroke-dasharray="2 4"/>
<path d="M0 18.543H280" stroke="#27D4FF" stroke-miterlimit="10" stroke-dasharray="2 4"/>
</g>
<path d="M14.5645 58.8962L27.6855 59.3612L40.8055 48.9152L53.9255 47.2902L67.0455 57.7362L80.1655 66.0932L93.2855 77.0032L106.405 66.7892L119.525 55.6462L132.645 44.7362L145.766 35.9152L158.886 44.9692L172.006 42.4152L185.126 42.6472L198.244 44.7362L211.364 36.1472H224.484L237.605 25.4692L250.725 28.9512L263.845 28.2512" stroke="#27D4FF" stroke-miterlimit="10"/>
<path d="M14.5645 69.8071C18.9385 64.9831 27.6844 58.6641 27.6844 58.6641L40.8045 59.5931L53.9255 61.6821L67.0455 68.6471L80.1655 60.5221L93.2855 55.6471L106.404 47.0581L119.524 45.4331L132.645 39.3971L145.765 49.1461C145.765 49.1461 154.512 52.1791 158.885 52.6281C163.258 53.0771 172.005 52.3961 172.005 52.3961L185.126 42.8781L198.245 33.3601L211.366 29.8781L224.486 28.2541L237.606 21.2891L250.726 18.5041L263.847 18.0391" stroke="#0068E6" stroke-miterlimit="10"/>
<path d="M14.5645 78.1611C18.9385 81.3231 27.6855 88.6071 27.6855 88.6071L40.8055 98.5881L53.9255 96.0352L67.0455 99.0532L80.1655 92.5532L93.2855 102.303L106.405 94.8741L119.525 86.9821L132.645 95.3401L145.765 106.018L158.885 100.446L172.008 97.6611L185.128 94.1782L198.247 83.2681L211.367 94.1782L224.487 86.7501L237.608 78.8571L250.728 86.0571L263.848 82.5751" stroke="#FF1F55" stroke-miterlimit="10"/>
<path d="M67.0462 66.9692C67.3781 66.9692 67.7025 67.0676 67.9784 67.252C68.2544 67.4364 68.4694 67.6985 68.5964 68.0051C68.7234 68.3117 68.7567 68.6491 68.6919 68.9746C68.6272 69.3001 68.4674 69.5991 68.2327 69.8337C67.998 70.0684 67.699 70.2283 67.3735 70.293C67.048 70.3578 66.7106 70.3245 66.404 70.1975C66.0974 70.0705 65.8354 69.8554 65.651 69.5795C65.4666 69.3035 65.3682 68.9791 65.3682 68.6472C65.3682 68.2022 65.545 67.7754 65.8596 67.4607C66.1743 67.146 66.6011 66.9692 67.0462 66.9692Z" fill="white" fill-opacity="0.87"/>
<path d="M80.1653 58.8442C80.4972 58.8442 80.8216 58.9427 81.0975 59.127C81.3735 59.3114 81.5886 59.5735 81.7156 59.8801C81.8426 60.1867 81.8758 60.5241 81.8111 60.8496C81.7463 61.1751 81.5865 61.4741 81.3518 61.7088C81.1172 61.9434 80.8182 62.1033 80.4927 62.168C80.1672 62.2327 79.8298 62.1995 79.5232 62.0725C79.2165 61.9455 78.9545 61.7304 78.7701 61.4545C78.5857 61.1786 78.4873 60.8541 78.4873 60.5222C78.4873 60.0772 78.6641 59.6504 78.9788 59.3357C79.2935 59.021 79.7203 58.8442 80.1653 58.8442Z" fill="white" fill-opacity="0.87"/>
<path d="M93.2864 53.9692C93.6183 53.9692 93.9427 54.0676 94.2186 54.252C94.4946 54.4364 94.7097 54.6985 94.8367 55.0051C94.9637 55.3117 94.9969 55.6491 94.9321 55.9746C94.8674 56.3001 94.7076 56.5991 94.4729 56.8338C94.2382 57.0684 93.9392 57.2283 93.6137 57.293C93.2882 57.3577 92.9509 57.3245 92.6443 57.1975C92.3376 57.0705 92.0756 56.8554 91.8912 56.5795C91.7068 56.3035 91.6084 55.9791 91.6084 55.6472C91.6084 55.2022 91.7852 54.7754 92.0999 54.4607C92.4145 54.146 92.8413 53.9692 93.2864 53.9692Z" fill="white" fill-opacity="0.87"/>
<path d="M106.407 45.3804C106.738 45.3804 107.063 45.4788 107.339 45.6631C107.615 45.8475 107.83 46.1096 107.957 46.4162C108.084 46.7228 108.117 47.0602 108.052 47.3857C107.988 47.7112 107.828 48.0102 107.593 48.2449C107.358 48.4796 107.059 48.6394 106.734 48.7041C106.408 48.7689 106.071 48.7356 105.764 48.6086C105.458 48.4816 105.196 48.2665 105.011 47.9906C104.827 47.7147 104.729 47.3902 104.729 47.0583C104.729 46.6133 104.905 46.1865 105.22 45.8718C105.535 45.5571 105.961 45.3804 106.407 45.3804Z" fill="white" fill-opacity="0.87"/>
<path d="M119.528 43.7554C119.859 43.7554 120.184 43.8538 120.46 44.0382C120.736 44.2226 120.951 44.4846 121.078 44.7912C121.205 45.0978 121.238 45.4352 121.173 45.7607C121.109 46.0862 120.949 46.3852 120.714 46.6199C120.479 46.8546 120.18 47.0144 119.855 47.0791C119.529 47.1439 119.192 47.1106 118.885 46.9836C118.579 46.8566 118.317 46.6416 118.132 46.3656C117.948 46.0897 117.85 45.7653 117.85 45.4334C117.85 44.9883 118.026 44.5615 118.341 44.2469C118.656 43.9322 119.083 43.7554 119.528 43.7554Z" fill="white" fill-opacity="0.87"/>
<path d="M132.647 37.7153C132.979 37.7153 133.303 37.8138 133.579 37.9981C133.855 38.1825 134.07 38.4446 134.197 38.7512C134.324 39.0578 134.357 39.3952 134.293 39.7207C134.228 40.0462 134.068 40.3452 133.833 40.5799C133.599 40.8145 133.3 40.9743 132.974 41.0391C132.649 41.1038 132.311 41.0706 132.005 40.9436C131.698 40.8166 131.436 40.6015 131.252 40.3256C131.067 40.0496 130.969 39.7252 130.969 39.3933C130.969 38.9483 131.146 38.5215 131.46 38.2068C131.775 37.8921 132.202 37.7153 132.647 37.7153Z" fill="white" fill-opacity="0.87"/>
<path d="M145.768 47.4692C146.1 47.4692 146.424 47.5677 146.7 47.752C146.976 47.9364 147.191 48.1985 147.318 48.5051C147.445 48.8117 147.478 49.1491 147.414 49.4746C147.349 49.8001 147.189 50.0991 146.954 50.3338C146.72 50.5684 146.421 50.7283 146.095 50.793C145.77 50.8577 145.432 50.8245 145.126 50.6975C144.819 50.5705 144.557 50.3554 144.373 50.0795C144.188 49.8036 144.09 49.4791 144.09 49.1472C144.09 48.7022 144.267 48.2754 144.581 47.9607C144.896 47.646 145.323 47.4692 145.768 47.4692Z" fill="white" fill-opacity="0.87"/>
<path d="M158.887 50.9512C159.219 50.9512 159.543 51.0496 159.819 51.234C160.095 51.4184 160.31 51.6804 160.437 51.987C160.564 52.2936 160.597 52.631 160.533 52.9565C160.468 53.282 160.308 53.581 160.073 53.8157C159.839 54.0504 159.54 54.2102 159.214 54.2749C158.889 54.3397 158.551 54.3064 158.245 54.1794C157.938 54.0524 157.676 53.8374 157.492 53.5614C157.307 53.2855 157.209 52.9611 157.209 52.6292C157.209 52.1841 157.386 51.7573 157.7 51.4427C158.015 51.128 158.442 50.9512 158.887 50.9512Z" fill="white" fill-opacity="0.87"/>
<path d="M172.007 50.7192C172.339 50.7192 172.663 50.8176 172.939 51.002C173.215 51.1864 173.43 51.4485 173.557 51.7551C173.684 52.0617 173.718 52.3991 173.653 52.7246C173.588 53.0501 173.428 53.3491 173.194 53.5838C172.959 53.8184 172.66 53.9783 172.334 54.043C172.009 54.1077 171.672 54.0745 171.365 53.9475C171.058 53.8205 170.796 53.6054 170.612 53.3295C170.428 53.0535 170.329 52.7291 170.329 52.3972C170.329 51.9522 170.506 51.5254 170.821 51.2107C171.135 50.896 171.562 50.7192 172.007 50.7192Z" fill="white" fill-opacity="0.87"/>
<path d="M185.128 41.2012C185.46 41.2012 185.785 41.2996 186.06 41.4839C186.336 41.6683 186.551 41.9304 186.678 42.237C186.805 42.5436 186.839 42.881 186.774 43.2065C186.709 43.532 186.549 43.831 186.315 44.0657C186.08 44.3004 185.781 44.4602 185.456 44.5249C185.13 44.5897 184.793 44.5564 184.486 44.4294C184.179 44.3024 183.917 44.0873 183.733 43.8114C183.549 43.5355 183.45 43.2111 183.45 42.8792C183.45 42.4341 183.627 42.0073 183.942 41.6927C184.256 41.378 184.683 41.2012 185.128 41.2012Z" fill="white" fill-opacity="0.87"/>
<path d="M198.247 31.6846C198.579 31.6844 198.904 31.7826 199.18 31.9669C199.456 32.1511 199.671 32.4131 199.798 32.7197C199.925 33.0263 199.959 33.3637 199.894 33.6893C199.83 34.0149 199.67 34.314 199.435 34.5487C199.201 34.7835 198.902 34.9434 198.576 35.0082C198.251 35.0731 197.913 35.0399 197.606 34.9129C197.3 34.786 197.038 34.5709 196.853 34.2949C196.669 34.019 196.57 33.6945 196.57 33.3625C196.57 32.9177 196.747 32.491 197.061 32.1764C197.376 31.8617 197.802 31.6848 198.247 31.6846Z" fill="white" fill-opacity="0.87"/>
<path d="M211.367 28.2021C211.699 28.2021 212.024 28.3006 212.3 28.485C212.576 28.6693 212.791 28.9314 212.918 29.238C213.045 29.5446 213.078 29.882 213.013 30.2075C212.948 30.533 212.789 30.832 212.554 31.0667C212.319 31.3014 212.02 31.4612 211.695 31.5259C211.369 31.5907 211.032 31.5574 210.725 31.4304C210.419 31.3034 210.157 31.0884 209.972 30.8124C209.788 30.5365 209.689 30.212 209.689 29.8802C209.689 29.4351 209.866 29.0083 210.181 28.6936C210.496 28.3789 210.922 28.2021 211.367 28.2021Z" fill="white" fill-opacity="0.87"/>
<path d="M263.849 16.3633C264.181 16.3631 264.505 16.4613 264.781 16.6456C265.058 16.8298 265.273 17.0918 265.4 17.3984C265.527 17.705 265.56 18.0424 265.496 18.368C265.431 18.6936 265.271 18.9927 265.037 19.2274C264.802 19.4622 264.503 19.6221 264.178 19.687C263.852 19.7518 263.515 19.7186 263.208 19.5916C262.901 19.4647 262.639 19.2496 262.455 18.9736C262.27 18.6977 262.172 18.3732 262.172 18.0413C262.172 17.5964 262.349 17.1698 262.663 16.8551C262.977 16.5404 263.404 16.3635 263.849 16.3633Z" fill="white" fill-opacity="0.87"/>
<path d="M14.5647 68.1255C14.8966 68.1255 15.221 68.2239 15.497 68.4083C15.7729 68.5926 15.988 68.8547 16.115 69.1613C16.242 69.4679 16.2752 69.8054 16.2105 70.1309C16.1457 70.4564 15.9859 70.7553 15.7513 70.99C15.5166 71.2247 15.2176 71.3845 14.8921 71.4492C14.5666 71.514 14.2292 71.4808 13.9226 71.3538C13.616 71.2268 13.3539 71.0117 13.1695 70.7357C12.9851 70.4598 12.8867 70.1353 12.8867 69.8035C12.8867 69.3584 13.0635 68.9316 13.3782 68.6169C13.6929 68.3023 14.1197 68.1255 14.5647 68.1255Z" fill="white" stroke="#0068E6" stroke-miterlimit="10"/>
<path d="M40.177 57.915C40.5089 57.915 40.8333 58.0135 41.1093 58.1978C41.3852 58.3822 41.6003 58.6443 41.7273 58.9509C41.8543 59.2575 41.8875 59.5949 41.8228 59.9204C41.758 60.2459 41.5982 60.5449 41.3636 60.7796C41.1289 61.0142 40.8299 61.1741 40.5044 61.2388C40.1789 61.3035 39.8415 61.2703 39.5349 61.1433C39.2283 61.0163 38.9662 60.8012 38.7818 60.5253C38.5974 60.2494 38.499 59.9249 38.499 59.593C38.499 59.148 38.6758 58.7212 38.9905 58.4065C39.3052 58.0918 39.732 57.915 40.177 57.915Z" fill="white" stroke="#0068E6" stroke-miterlimit="10"/>
<path d="M53.177 60.3423C53.5089 60.3423 53.8333 60.4407 54.1093 60.6251C54.3852 60.8095 54.6003 61.0715 54.7273 61.3781C54.8543 61.6848 54.8875 62.0222 54.8228 62.3477C54.758 62.6732 54.5982 62.9721 54.3636 63.2068C54.1289 63.4415 53.8299 63.6013 53.5044 63.666C53.1789 63.7308 52.8415 63.6976 52.5349 63.5706C52.2283 63.4436 51.9662 63.2285 51.7818 62.9525C51.5974 62.6766 51.499 62.3522 51.499 62.0203C51.499 61.5753 51.6758 61.1485 51.9905 60.8338C52.3052 60.5191 52.732 60.3423 53.177 60.3423Z" fill="white" stroke="#0068E6" stroke-miterlimit="10"/>
<path d="M67.0462 66.9692C67.3781 66.9692 67.7025 67.0676 67.9784 67.252C68.2544 67.4364 68.4694 67.6985 68.5964 68.0051C68.7234 68.3117 68.7567 68.6491 68.6919 68.9746C68.6272 69.3001 68.4674 69.5991 68.2327 69.8337C67.998 70.0684 67.699 70.2283 67.3735 70.293C67.048 70.3578 66.7106 70.3245 66.404 70.1975C66.0974 70.0705 65.8354 69.8554 65.651 69.5795C65.4666 69.3035 65.3682 68.9791 65.3682 68.6472C65.3682 68.2022 65.545 67.7754 65.8596 67.4607C66.1743 67.146 66.6011 66.9692 67.0462 66.9692Z" stroke="#0068E6" stroke-miterlimit="10"/>
<path d="M80.1653 58.8442C80.4972 58.8442 80.8216 58.9427 81.0975 59.127C81.3735 59.3114 81.5886 59.5735 81.7156 59.8801C81.8426 60.1867 81.8758 60.5241 81.8111 60.8496C81.7463 61.1751 81.5865 61.4741 81.3518 61.7088C81.1172 61.9434 80.8182 62.1033 80.4927 62.168C80.1672 62.2327 79.8298 62.1995 79.5232 62.0725C79.2165 61.9455 78.9545 61.7304 78.7701 61.4545C78.5857 61.1786 78.4873 60.8541 78.4873 60.5222C78.4873 60.0772 78.6641 59.6504 78.9788 59.3357C79.2935 59.021 79.7203 58.8442 80.1653 58.8442Z" stroke="#0068E6" stroke-miterlimit="10"/>
<path d="M93.2864 53.9692C93.6183 53.9692 93.9427 54.0676 94.2186 54.252C94.4946 54.4364 94.7097 54.6985 94.8367 55.0051C94.9637 55.3117 94.9969 55.6491 94.9321 55.9746C94.8674 56.3001 94.7076 56.5991 94.4729 56.8338C94.2382 57.0684 93.9392 57.2283 93.6137 57.293C93.2882 57.3577 92.9509 57.3245 92.6443 57.1975C92.3376 57.0705 92.0756 56.8554 91.8912 56.5795C91.7068 56.3035 91.6084 55.9791 91.6084 55.6472C91.6084 55.2022 91.7852 54.7754 92.0999 54.4607C92.4145 54.146 92.8413 53.9692 93.2864 53.9692Z" stroke="#0068E6" stroke-miterlimit="10"/>
<path d="M106.407 45.3804C106.738 45.3804 107.063 45.4788 107.339 45.6631C107.615 45.8475 107.83 46.1096 107.957 46.4162C108.084 46.7228 108.117 47.0602 108.052 47.3857C107.988 47.7112 107.828 48.0102 107.593 48.2449C107.358 48.4796 107.059 48.6394 106.734 48.7041C106.408 48.7689 106.071 48.7356 105.764 48.6086C105.458 48.4816 105.196 48.2665 105.011 47.9906C104.827 47.7147 104.729 47.3902 104.729 47.0583C104.729 46.6133 104.905 46.1865 105.22 45.8718C105.535 45.5571 105.961 45.3804 106.407 45.3804Z" stroke="#0068E6" stroke-miterlimit="10"/>
<path d="M119.528 43.7554C119.859 43.7554 120.184 43.8538 120.46 44.0382C120.736 44.2226 120.951 44.4846 121.078 44.7912C121.205 45.0978 121.238 45.4352 121.173 45.7607C121.109 46.0862 120.949 46.3852 120.714 46.6199C120.479 46.8546 120.18 47.0144 119.855 47.0791C119.529 47.1439 119.192 47.1106 118.885 46.9836C118.579 46.8566 118.317 46.6416 118.132 46.3656C117.948 46.0897 117.85 45.7653 117.85 45.4334C117.85 44.9883 118.026 44.5615 118.341 44.2469C118.656 43.9322 119.083 43.7554 119.528 43.7554Z" stroke="#0068E6" stroke-miterlimit="10"/>
<path d="M132.647 37.7153C132.979 37.7153 133.303 37.8138 133.579 37.9981C133.855 38.1825 134.07 38.4446 134.197 38.7512C134.324 39.0578 134.357 39.3952 134.293 39.7207C134.228 40.0462 134.068 40.3452 133.833 40.5799C133.599 40.8145 133.3 40.9743 132.974 41.0391C132.649 41.1038 132.311 41.0706 132.005 40.9436C131.698 40.8166 131.436 40.6015 131.252 40.3256C131.067 40.0496 130.969 39.7252 130.969 39.3933C130.969 38.9483 131.146 38.5215 131.46 38.2068C131.775 37.8921 132.202 37.7153 132.647 37.7153Z" stroke="#0068E6" stroke-miterlimit="10"/>
<path d="M145.768 47.4692C146.1 47.4692 146.424 47.5677 146.7 47.752C146.976 47.9364 147.191 48.1985 147.318 48.5051C147.445 48.8117 147.478 49.1491 147.414 49.4746C147.349 49.8001 147.189 50.0991 146.954 50.3338C146.72 50.5684 146.421 50.7283 146.095 50.793C145.77 50.8577 145.432 50.8245 145.126 50.6975C144.819 50.5705 144.557 50.3554 144.373 50.0795C144.188 49.8036 144.09 49.4791 144.09 49.1472C144.09 48.7022 144.267 48.2754 144.581 47.9607C144.896 47.646 145.323 47.4692 145.768 47.4692Z" stroke="#0068E6" stroke-miterlimit="10"/>
<path d="M158.887 50.9512C159.219 50.9512 159.543 51.0496 159.819 51.234C160.095 51.4184 160.31 51.6804 160.437 51.987C160.564 52.2936 160.597 52.631 160.533 52.9565C160.468 53.282 160.308 53.581 160.073 53.8157C159.839 54.0504 159.54 54.2102 159.214 54.2749C158.889 54.3397 158.551 54.3064 158.245 54.1794C157.938 54.0524 157.676 53.8374 157.492 53.5614C157.307 53.2855 157.209 52.9611 157.209 52.6292C157.209 52.1841 157.386 51.7573 157.7 51.4427C158.015 51.128 158.442 50.9512 158.887 50.9512Z" stroke="#0068E6" stroke-miterlimit="10"/>
<path d="M172.007 50.7192C172.339 50.7192 172.663 50.8176 172.939 51.002C173.215 51.1864 173.43 51.4485 173.557 51.7551C173.684 52.0617 173.718 52.3991 173.653 52.7246C173.588 53.0501 173.428 53.3491 173.194 53.5838C172.959 53.8184 172.66 53.9783 172.334 54.043C172.009 54.1077 171.672 54.0745 171.365 53.9475C171.058 53.8205 170.796 53.6054 170.612 53.3295C170.428 53.0535 170.329 52.7291 170.329 52.3972C170.329 51.9522 170.506 51.5254 170.821 51.2107C171.135 50.896 171.562 50.7192 172.007 50.7192Z" stroke="#0068E6" stroke-miterlimit="10"/>
<path d="M185.128 41.2012C185.46 41.2012 185.785 41.2996 186.06 41.4839C186.336 41.6683 186.551 41.9304 186.678 42.237C186.805 42.5436 186.839 42.881 186.774 43.2065C186.709 43.532 186.549 43.831 186.315 44.0657C186.08 44.3004 185.781 44.4602 185.456 44.5249C185.13 44.5897 184.793 44.5564 184.486 44.4294C184.179 44.3024 183.917 44.0873 183.733 43.8114C183.549 43.5355 183.45 43.2111 183.45 42.8792C183.45 42.4341 183.627 42.0073 183.942 41.6927C184.256 41.378 184.683 41.2012 185.128 41.2012Z" stroke="#0068E6" stroke-miterlimit="10"/>
<path d="M198.247 31.6846C198.579 31.6844 198.904 31.7826 199.18 31.9669C199.456 32.1511 199.671 32.4131 199.798 32.7197C199.925 33.0263 199.959 33.3637 199.894 33.6893C199.83 34.0149 199.67 34.314 199.435 34.5487C199.201 34.7835 198.902 34.9434 198.576 35.0082C198.251 35.0731 197.913 35.0399 197.606 34.9129C197.3 34.786 197.038 34.5709 196.853 34.2949C196.669 34.019 196.57 33.6945 196.57 33.3625C196.57 32.9177 196.747 32.491 197.061 32.1764C197.376 31.8617 197.802 31.6848 198.247 31.6846Z" stroke="#0068E6" stroke-miterlimit="10"/>
<path d="M211.367 28.2021C211.699 28.2021 212.024 28.3006 212.3 28.485C212.576 28.6693 212.791 28.9314 212.918 29.238C213.045 29.5446 213.078 29.882 213.013 30.2075C212.948 30.533 212.789 30.832 212.554 31.0667C212.319 31.3014 212.02 31.4612 211.695 31.5259C211.369 31.5907 211.032 31.5574 210.725 31.4304C210.419 31.3034 210.157 31.0884 209.972 30.8124C209.788 30.5365 209.689 30.212 209.689 29.8802C209.689 29.4351 209.866 29.0083 210.181 28.6936C210.496 28.3789 210.922 28.2021 211.367 28.2021Z" stroke="#0068E6" stroke-miterlimit="10"/>
<path d="M224.933 26.5771C225.265 26.5771 225.589 26.6756 225.865 26.86C226.141 27.0443 226.356 27.3064 226.483 27.613C226.61 27.9196 226.643 28.257 226.579 28.5825C226.514 28.908 226.354 29.207 226.119 29.4417C225.885 29.6764 225.586 29.8362 225.26 29.9009C224.935 29.9657 224.597 29.9324 224.291 29.8054C223.984 29.6784 223.722 29.4634 223.538 29.1874C223.353 28.9115 223.255 28.587 223.255 28.2552C223.255 27.8101 223.432 27.3833 223.746 27.0686C224.061 26.7539 224.488 26.5771 224.933 26.5771Z" fill="white" stroke="#0068E6" stroke-miterlimit="10"/>
<path d="M236.933 20.1831C237.265 20.1831 237.589 20.2815 237.865 20.4659C238.141 20.6503 238.356 20.9123 238.483 21.219C238.61 21.5256 238.643 21.863 238.579 22.1885C238.514 22.514 238.354 22.813 238.119 23.0476C237.885 23.2823 237.586 23.4421 237.26 23.5069C236.935 23.5716 236.597 23.5384 236.291 23.4114C235.984 23.2844 235.722 23.0693 235.538 22.7934C235.353 22.5174 235.255 22.193 235.255 21.8611C235.255 21.4161 235.432 20.9893 235.746 20.6746C236.061 20.3599 236.488 20.1831 236.933 20.1831Z" fill="white" stroke="#0068E6" stroke-miterlimit="10"/>
<path d="M250.543 16.8281C250.875 16.8281 251.2 16.9265 251.475 17.1109C251.751 17.2953 251.967 17.5574 252.094 17.864C252.221 18.1706 252.254 18.508 252.189 18.8335C252.124 19.159 251.964 19.458 251.73 19.6926C251.495 19.9273 251.196 20.0871 250.871 20.1519C250.545 20.2166 250.208 20.1834 249.901 20.0564C249.594 19.9294 249.332 19.7143 249.148 19.4384C248.964 19.1624 248.865 18.838 248.865 18.5061C248.865 18.0611 249.042 17.6343 249.357 17.3196C249.671 17.0049 250.098 16.8281 250.543 16.8281Z" fill="white" stroke="#0068E6" stroke-miterlimit="10"/>
<path d="M263.849 16.3633C264.181 16.3631 264.505 16.4613 264.781 16.6456C265.058 16.8298 265.273 17.0918 265.4 17.3984C265.527 17.705 265.56 18.0424 265.496 18.368C265.431 18.6936 265.271 18.9927 265.037 19.2274C264.802 19.4622 264.503 19.6221 264.178 19.687C263.852 19.7518 263.515 19.7186 263.208 19.5916C262.901 19.4647 262.639 19.2496 262.455 18.9736C262.27 18.6977 262.172 18.3732 262.172 18.0413C262.172 17.5964 262.349 17.1698 262.663 16.8551C262.977 16.5404 263.404 16.3635 263.849 16.3633Z" stroke="#0068E6" stroke-miterlimit="10"/>
<path d="M93.2864 75.3271C93.6183 75.3271 93.9428 75.4256 94.2188 75.61C94.4947 75.7944 94.7098 76.0565 94.8368 76.3632C94.9637 76.6699 94.9969 77.0074 94.9321 77.3329C94.8672 77.6584 94.7073 77.9574 94.4726 78.192C94.2378 78.4266 93.9387 78.5864 93.6131 78.651C93.2876 78.7156 92.9502 78.6823 92.6436 78.5551C92.337 78.428 92.0749 78.2127 91.8907 77.9366C91.7064 77.6606 91.6082 77.3361 91.6084 77.0042C91.6087 76.5593 91.7856 76.1328 92.1002 75.8183C92.4149 75.5038 92.8415 75.3271 93.2864 75.3271Z" fill="white" fill-opacity="0.87"/>
<path d="M106.407 65.1113C106.738 65.1113 107.063 65.2098 107.339 65.3942C107.615 65.5785 107.83 65.8406 107.957 66.1472C108.084 66.4538 108.117 66.7912 108.052 67.1167C107.988 67.4422 107.828 67.7412 107.593 67.9759C107.358 68.2106 107.059 68.3704 106.734 68.4351C106.408 68.4999 106.071 68.4666 105.764 68.3396C105.458 68.2126 105.196 67.9976 105.011 67.7216C104.827 67.4457 104.729 67.1212 104.729 66.7894C104.729 66.3443 104.905 65.9175 105.22 65.6028C105.535 65.2882 105.961 65.1113 106.407 65.1113Z" fill="white" fill-opacity="0.87"/>
<path d="M119.528 53.9692C119.859 53.9692 120.184 54.0676 120.46 54.252C120.736 54.4364 120.951 54.6985 121.078 55.0051C121.205 55.3117 121.238 55.6491 121.173 55.9746C121.109 56.3001 120.949 56.5991 120.714 56.8338C120.479 57.0684 120.18 57.2283 119.855 57.293C119.529 57.3577 119.192 57.3245 118.885 57.1975C118.579 57.0705 118.317 56.8554 118.132 56.5795C117.948 56.3035 117.85 55.9791 117.85 55.6472C117.85 55.2022 118.026 54.7754 118.341 54.4607C118.656 54.146 119.083 53.9692 119.528 53.9692Z" fill="white" fill-opacity="0.87"/>
<path d="M132.647 43.0591C132.979 43.0591 133.303 43.1575 133.579 43.3419C133.855 43.5263 134.07 43.7883 134.197 44.0949C134.324 44.4016 134.357 44.739 134.293 45.0645C134.228 45.39 134.068 45.6889 133.833 45.9236C133.599 46.1583 133.3 46.3181 132.974 46.3828C132.649 46.4476 132.311 46.4144 132.005 46.2874C131.698 46.1603 131.436 45.9453 131.252 45.6693C131.067 45.3934 130.969 45.069 130.969 44.7371C130.969 44.2921 131.146 43.8653 131.46 43.5506C131.775 43.2359 132.202 43.0591 132.647 43.0591Z" fill="white" fill-opacity="0.87"/>
<path d="M145.768 34.2383C146.1 34.2383 146.424 34.3367 146.7 34.5211C146.976 34.7054 147.191 34.9675 147.318 35.2741C147.445 35.5808 147.478 35.9182 147.414 36.2437C147.349 36.5692 147.189 36.8681 146.954 37.1028C146.72 37.3375 146.421 37.4973 146.095 37.562C145.77 37.6268 145.432 37.5936 145.126 37.4666C144.819 37.3395 144.557 37.1245 144.373 36.8485C144.188 36.5726 144.09 36.2482 144.09 35.9163C144.09 35.4713 144.267 35.0444 144.581 34.7297C144.896 34.4151 145.323 34.2383 145.768 34.2383Z" fill="white" fill-opacity="0.87"/>
<path d="M158.887 43.291C159.219 43.291 159.543 43.3894 159.819 43.5738C160.095 43.7582 160.31 44.0203 160.437 44.3269C160.564 44.6335 160.597 44.9709 160.533 45.2964C160.468 45.6219 160.308 45.9209 160.073 46.1555C159.839 46.3902 159.54 46.55 159.214 46.6148C158.889 46.6795 158.551 46.6463 158.245 46.5193C157.938 46.3923 157.676 46.1772 157.492 45.9012C157.307 45.6253 157.209 45.3009 157.209 44.969C157.209 44.524 157.386 44.0972 157.7 43.7825C158.015 43.4678 158.442 43.291 158.887 43.291Z" fill="white" fill-opacity="0.87"/>
<path d="M172.007 40.7383C172.339 40.7383 172.663 40.8367 172.939 41.0211C173.215 41.2055 173.43 41.4675 173.557 41.7741C173.684 42.0808 173.718 42.4182 173.653 42.7437C173.588 43.0692 173.428 43.3681 173.194 43.6028C172.959 43.8375 172.66 43.9973 172.334 44.062C172.009 44.1268 171.672 44.0936 171.365 43.9666C171.058 43.8395 170.796 43.6245 170.612 43.3485C170.428 43.0726 170.329 42.7482 170.329 42.4163C170.329 41.9713 170.506 41.5445 170.821 41.2298C171.135 40.9151 171.562 40.7383 172.007 40.7383Z" fill="white" fill-opacity="0.87"/>
<path d="M185.128 40.9702C185.46 40.9702 185.785 41.0686 186.06 41.253C186.336 41.4374 186.551 41.6995 186.678 42.0061C186.805 42.3127 186.839 42.6501 186.774 42.9756C186.709 43.3011 186.549 43.6001 186.315 43.8347C186.08 44.0694 185.781 44.2292 185.456 44.294C185.13 44.3587 184.793 44.3255 184.486 44.1985C184.179 44.0715 183.917 43.8564 183.733 43.5805C183.549 43.3045 183.45 42.9801 183.45 42.6482C183.45 42.2032 183.627 41.7764 183.942 41.4617C184.256 41.147 184.683 40.9702 185.128 40.9702Z" fill="white" fill-opacity="0.87"/>
<path d="M198.247 43.0596C198.579 43.0594 198.904 43.1576 199.18 43.3419C199.456 43.5261 199.671 43.7882 199.798 44.0948C199.925 44.4014 199.959 44.7388 199.894 45.0643C199.83 45.3899 199.67 45.689 199.435 45.9237C199.201 46.1585 198.902 46.3184 198.576 46.3833C198.251 46.4481 197.913 46.4149 197.606 46.2879C197.3 46.161 197.038 45.9459 196.853 45.6699C196.669 45.394 196.57 45.0695 196.57 44.7376C196.57 44.2927 196.747 43.866 197.061 43.5514C197.376 43.2367 197.802 43.0598 198.247 43.0596Z" fill="white" fill-opacity="0.87"/>
<path d="M211.367 34.4702C211.699 34.4702 212.024 34.5686 212.3 34.753C212.576 34.9374 212.791 35.1995 212.918 35.5061C213.045 35.8127 213.078 36.1501 213.013 36.4756C212.948 36.8011 212.789 37.1001 212.554 37.3347C212.319 37.5694 212.02 37.7292 211.695 37.794C211.369 37.8587 211.032 37.8255 210.725 37.6985C210.419 37.5715 210.157 37.3564 209.972 37.0805C209.788 36.8045 209.689 36.4801 209.689 36.1482C209.689 35.7032 209.866 35.2764 210.181 34.9617C210.496 34.647 210.922 34.4702 211.367 34.4702Z" fill="white" fill-opacity="0.87"/>
<path d="M263.849 26.5771C264.181 26.577 264.505 26.6752 264.781 26.8595C265.058 27.0437 265.273 27.3057 265.4 27.6123C265.527 27.9189 265.56 28.2563 265.496 28.5819C265.431 28.9075 265.271 29.2065 265.037 29.4413C264.802 29.6761 264.503 29.836 264.178 29.9008C263.852 29.9657 263.515 29.9325 263.208 29.8055C262.901 29.6785 262.639 29.4635 262.455 29.1875C262.27 28.9115 262.172 28.5871 262.172 28.2552C262.172 27.8103 262.349 27.3837 262.663 27.069C262.977 26.7543 263.404 26.5774 263.849 26.5771Z" fill="white" fill-opacity="0.87"/>
<path d="M14.5647 57.2227C14.8966 57.2227 15.221 57.3211 15.497 57.5055C15.7729 57.6898 15.988 57.9519 16.115 58.2585C16.242 58.5651 16.2752 58.9025 16.2105 59.228C16.1457 59.5535 15.9859 59.8525 15.7513 60.0872C15.5166 60.3219 15.2176 60.4817 14.8921 60.5464C14.5666 60.6112 14.2292 60.5779 13.9226 60.4509C13.616 60.3239 13.3539 60.1089 13.1695 59.8329C12.9851 59.557 12.8867 59.2325 12.8867 58.9007C12.8867 58.4556 13.0635 58.0288 13.3782 57.7141C13.6929 57.3995 14.1197 57.2227 14.5647 57.2227Z" fill="white" stroke="#27D4FF" stroke-miterlimit="10"/>
<path d="M40.805 47.2905C41.1369 47.2905 41.4613 47.389 41.7373 47.5734C42.0133 47.7578 42.2283 48.02 42.3553 48.3266C42.4823 48.6333 42.5155 48.9707 42.4506 49.2963C42.3858 49.6218 42.2259 49.9208 41.9911 50.1554C41.7564 50.3901 41.4573 50.5498 41.1317 50.6144C40.8061 50.679 40.4687 50.6457 40.1621 50.5185C39.8555 50.3914 39.5935 50.1761 39.4093 49.9001C39.225 49.624 39.1268 49.2994 39.127 48.9675C39.1272 48.5227 39.3041 48.0961 39.6188 47.7816C39.9334 47.4672 40.3601 47.2905 40.805 47.2905Z" fill="white" stroke="#27D4FF" stroke-miterlimit="10"/>
<path d="M53.805 45.6123C54.1369 45.6123 54.4613 45.7107 54.7373 45.8952C55.0133 46.0796 55.2283 46.3417 55.3553 46.6484C55.4823 46.9551 55.5155 47.2925 55.4506 47.618C55.3858 47.9436 55.2259 48.2426 54.9911 48.4772C54.7564 48.7118 54.4573 48.8716 54.1317 48.9362C53.8061 49.0008 53.4687 48.9675 53.1621 48.8403C52.8555 48.7131 52.5935 48.4979 52.4093 48.2218C52.225 47.9458 52.1268 47.6212 52.127 47.2893C52.1272 46.8444 52.3041 46.4179 52.6188 46.1034C52.9334 45.789 53.3601 45.6123 53.805 45.6123Z" fill="white" stroke="#27D4FF" stroke-miterlimit="10"/>
<path d="M67.805 56.6123C68.1369 56.6123 68.4613 56.7107 68.7373 56.8952C69.0133 57.0796 69.2283 57.3417 69.3553 57.6484C69.4823 57.9551 69.5155 58.2925 69.4506 58.618C69.3858 58.9436 69.2259 59.2426 68.9911 59.4772C68.7564 59.7118 68.4573 59.8716 68.1317 59.9362C67.8061 60.0008 67.4687 59.9675 67.1621 59.8403C66.8555 59.7131 66.5935 59.4979 66.4093 59.2218C66.225 58.9458 66.1268 58.6212 66.127 58.2893C66.1272 57.8444 66.3041 57.4179 66.6188 57.1034C66.9334 56.789 67.3601 56.6123 67.805 56.6123Z" fill="white" stroke="#27D4FF" stroke-miterlimit="10"/>
<path d="M80.805 65.1123C81.1369 65.1123 81.4613 65.2107 81.7373 65.3952C82.0133 65.5796 82.2283 65.8417 82.3553 66.1484C82.4823 66.4551 82.5155 66.7925 82.4506 67.118C82.3858 67.4436 82.2259 67.7426 81.9911 67.9772C81.7564 68.2118 81.4573 68.3716 81.1317 68.4362C80.8061 68.5008 80.4687 68.4675 80.1621 68.3403C79.8555 68.2131 79.5935 67.9979 79.4093 67.7218C79.225 67.4458 79.1268 67.1212 79.127 66.7893C79.1272 66.3444 79.3041 65.9179 79.6188 65.6034C79.9334 65.289 80.3601 65.1123 80.805 65.1123Z" fill="white" stroke="#27D4FF" stroke-miterlimit="10"/>
<path d="M93.2864 75.3286C93.6183 75.3286 93.9428 75.427 94.2188 75.6115C94.4947 75.7959 94.7098 76.058 94.8368 76.3647C94.9637 76.6714 94.9969 77.0088 94.9321 77.3344C94.8672 77.6599 94.7073 77.9588 94.4726 78.1935C94.2378 78.4281 93.9387 78.5878 93.6131 78.6525C93.2876 78.7171 92.9502 78.6837 92.6436 78.5566C92.337 78.4294 92.0749 78.2142 91.8907 77.9381C91.7064 77.662 91.6082 77.3375 91.6084 77.0056C91.6087 76.5608 91.7856 76.1342 92.1002 75.8198C92.4149 75.5053 92.8415 75.3286 93.2864 75.3286Z" stroke="#27D4FF" stroke-miterlimit="10"/>
<path d="M106.407 65.1123C106.738 65.1123 107.063 65.2108 107.339 65.3951C107.615 65.5795 107.83 65.8416 107.957 66.1482C108.084 66.4548 108.117 66.7922 108.052 67.1177C107.988 67.4432 107.828 67.7422 107.593 67.9769C107.358 68.2115 107.059 68.3714 106.734 68.4361C106.408 68.5008 106.071 68.4676 105.764 68.3406C105.458 68.2136 105.196 67.9985 105.011 67.7226C104.827 67.4466 104.729 67.1222 104.729 66.7903C104.729 66.3453 104.905 65.9185 105.22 65.6038C105.535 65.2891 105.961 65.1123 106.407 65.1123Z" stroke="#27D4FF" stroke-miterlimit="10"/>
<path d="M119.528 53.9692C119.859 53.9692 120.184 54.0676 120.46 54.252C120.736 54.4364 120.951 54.6985 121.078 55.0051C121.205 55.3117 121.238 55.6491 121.173 55.9746C121.109 56.3001 120.949 56.5991 120.714 56.8338C120.479 57.0684 120.18 57.2283 119.855 57.293C119.529 57.3577 119.192 57.3245 118.885 57.1975C118.579 57.0705 118.317 56.8554 118.132 56.5795C117.948 56.3035 117.85 55.9791 117.85 55.6472C117.85 55.2022 118.026 54.7754 118.341 54.4607C118.656 54.146 119.083 53.9692 119.528 53.9692Z" stroke="#27D4FF" stroke-miterlimit="10"/>
<path d="M132.647 43.0596C132.979 43.0596 133.303 43.158 133.579 43.3424C133.855 43.5268 134.07 43.7888 134.197 44.0954C134.324 44.402 134.357 44.7394 134.293 45.0649C134.228 45.3904 134.068 45.6894 133.833 45.9241C133.599 46.1588 133.3 46.3186 132.974 46.3833C132.649 46.4481 132.311 46.4148 132.005 46.2878C131.698 46.1608 131.436 45.9458 131.252 45.6698C131.067 45.3939 130.969 45.0695 130.969 44.7376C130.969 44.2925 131.146 43.8657 131.46 43.5511C131.775 43.2364 132.202 43.0596 132.647 43.0596Z" stroke="#27D4FF" stroke-miterlimit="10"/>
<path d="M145.768 34.2383C146.1 34.2383 146.424 34.3367 146.7 34.5211C146.976 34.7054 147.191 34.9675 147.318 35.2741C147.445 35.5808 147.478 35.9182 147.414 36.2437C147.349 36.5692 147.189 36.8681 146.954 37.1028C146.72 37.3375 146.421 37.4973 146.095 37.562C145.77 37.6268 145.432 37.5936 145.126 37.4666C144.819 37.3395 144.557 37.1245 144.373 36.8485C144.188 36.5726 144.09 36.2482 144.09 35.9163C144.09 35.4713 144.267 35.0444 144.581 34.7297C144.896 34.4151 145.323 34.2383 145.768 34.2383Z" stroke="#27D4FF" stroke-miterlimit="10"/>
<path d="M158.887 43.2915C159.219 43.2915 159.543 43.3899 159.819 43.5743C160.095 43.7587 160.31 44.0207 160.437 44.3274C160.564 44.634 160.597 44.9714 160.533 45.2969C160.468 45.6224 160.308 45.9214 160.073 46.156C159.839 46.3907 159.54 46.5505 159.214 46.6153C158.889 46.68 158.551 46.6468 158.245 46.5198C157.938 46.3928 157.676 46.1777 157.492 45.9017C157.307 45.6258 157.209 45.3014 157.209 44.9695C157.209 44.5245 157.386 44.0976 157.7 43.783C158.015 43.4683 158.442 43.2915 158.887 43.2915Z" stroke="#27D4FF" stroke-miterlimit="10"/>
<path d="M172.007 40.7383C172.339 40.7383 172.663 40.8367 172.939 41.0211C173.215 41.2055 173.43 41.4675 173.557 41.7741C173.684 42.0808 173.718 42.4182 173.653 42.7437C173.588 43.0692 173.428 43.3681 173.194 43.6028C172.959 43.8375 172.66 43.9973 172.334 44.062C172.009 44.1268 171.672 44.0936 171.365 43.9666C171.058 43.8395 170.796 43.6245 170.612 43.3485C170.428 43.0726 170.329 42.7482 170.329 42.4163C170.329 41.9713 170.506 41.5445 170.821 41.2298C171.135 40.9151 171.562 40.7383 172.007 40.7383Z" stroke="#27D4FF" stroke-miterlimit="10"/>
<path d="M185.128 40.9707C185.46 40.9707 185.785 41.0691 186.06 41.2535C186.336 41.4379 186.551 41.6999 186.678 42.0066C186.805 42.3132 186.839 42.6506 186.774 42.9761C186.709 43.3016 186.549 43.6006 186.315 43.8352C186.08 44.0699 185.781 44.2297 185.456 44.2945C185.13 44.3592 184.793 44.326 184.486 44.199C184.179 44.072 183.917 43.8569 183.733 43.581C183.549 43.305 183.45 42.9806 183.45 42.6487C183.45 42.2037 183.627 41.7769 183.942 41.4622C184.256 41.1475 184.683 40.9707 185.128 40.9707Z" stroke="#27D4FF" stroke-miterlimit="10"/>
<path d="M198.247 43.0596C198.579 43.0594 198.904 43.1576 199.18 43.3419C199.456 43.5261 199.671 43.7882 199.798 44.0948C199.925 44.4014 199.959 44.7388 199.894 45.0643C199.83 45.3899 199.67 45.689 199.435 45.9237C199.201 46.1585 198.902 46.3184 198.576 46.3833C198.251 46.4481 197.913 46.4149 197.606 46.2879C197.3 46.161 197.038 45.9459 196.853 45.6699C196.669 45.394 196.57 45.0695 196.57 44.7376C196.57 44.2927 196.747 43.866 197.061 43.5514C197.376 43.2367 197.802 43.0598 198.247 43.0596Z" stroke="#27D4FF" stroke-miterlimit="10"/>
<path d="M211.367 34.4707C211.699 34.4707 212.024 34.5691 212.3 34.7535C212.576 34.9379 212.791 35.1999 212.918 35.5066C213.045 35.8132 213.078 36.1506 213.013 36.4761C212.948 36.8016 212.789 37.1006 212.554 37.3352C212.319 37.5699 212.02 37.7297 211.695 37.7945C211.369 37.8592 211.032 37.826 210.725 37.699C210.419 37.572 210.157 37.3569 209.972 37.081C209.788 36.805 209.689 36.4806 209.689 36.1487C209.689 35.7037 209.866 35.2769 210.181 34.9622C210.496 34.6475 210.922 34.4707 211.367 34.4707Z" stroke="#27D4FF" stroke-miterlimit="10"/>
<path d="M237.613 23.9194C237.944 23.9194 238.269 24.0179 238.545 24.2022C238.821 24.3866 239.036 24.6487 239.163 24.9553C239.29 25.2619 239.323 25.5993 239.258 25.9248C239.194 26.2503 239.034 26.5493 238.799 26.784C238.564 27.0186 238.265 27.1784 237.94 27.2432C237.614 27.3079 237.277 27.2747 236.97 27.1477C236.664 27.0207 236.402 26.8056 236.217 26.5297C236.033 26.2537 235.935 25.9293 235.935 25.5974C235.935 25.1524 236.111 24.7256 236.426 24.4109C236.741 24.0962 237.168 23.9194 237.613 23.9194Z" fill="white" stroke="#27D4FF" stroke-miterlimit="10"/>
<path d="M224.613 34.4702C224.944 34.4702 225.269 34.5686 225.545 34.753C225.821 34.9374 226.036 35.1995 226.163 35.5061C226.29 35.8127 226.323 36.1501 226.258 36.4756C226.194 36.8011 226.034 37.1001 225.799 37.3347C225.564 37.5694 225.265 37.7292 224.94 37.794C224.614 37.8587 224.277 37.8255 223.97 37.6985C223.664 37.5715 223.402 37.3564 223.217 37.0805C223.033 36.8045 222.935 36.4801 222.935 36.1482C222.935 35.7032 223.111 35.2764 223.426 34.9617C223.741 34.647 224.168 34.4702 224.613 34.4702Z" fill="white" stroke="#27D4FF" stroke-miterlimit="10"/>
<path d="M249.543 27.2744C249.875 27.2744 250.2 27.3728 250.475 27.5572C250.751 27.7416 250.967 28.0037 251.094 28.3103C251.221 28.6169 251.254 28.9543 251.189 29.2798C251.124 29.6053 250.964 29.9043 250.73 30.1389C250.495 30.3736 250.196 30.5334 249.871 30.5982C249.545 30.6629 249.208 30.6297 248.901 30.5027C248.594 30.3757 248.332 30.1606 248.148 29.8847C247.964 29.6087 247.865 29.2843 247.865 28.9524C247.865 28.5074 248.042 28.0806 248.357 27.7659C248.671 27.4512 249.098 27.2744 249.543 27.2744Z" fill="white" stroke="#27D4FF" stroke-miterlimit="10"/>
<path d="M263.849 26.5776C264.181 26.5774 264.505 26.6757 264.781 26.86C265.058 27.0442 265.273 27.3062 265.4 27.6128C265.527 27.9194 265.56 28.2568 265.496 28.5824C265.431 28.908 265.271 29.207 265.037 29.4418C264.802 29.6766 264.503 29.8365 264.178 29.9013C263.852 29.9662 263.515 29.933 263.208 29.806C262.901 29.679 262.639 29.464 262.455 29.188C262.27 28.912 262.172 28.5876 262.172 28.2556C262.172 27.8108 262.349 27.3841 262.663 27.0695C262.977 26.7548 263.404 26.5779 263.849 26.5776Z" stroke="#27D4FF" stroke-miterlimit="10"/>
<path d="M27.8704 57.6836C28.2023 57.6836 28.5267 57.782 28.8026 57.9664C29.0786 58.1508 29.2937 58.4128 29.4207 58.7195C29.5477 59.0261 29.5809 59.3634 29.5161 59.6889C29.4514 60.0144 29.2916 60.3134 29.0569 60.5481C28.8222 60.7828 28.5233 60.9426 28.1978 61.0074C27.8723 61.0721 27.5349 61.0389 27.2282 60.9119C26.9216 60.7849 26.6596 60.5698 26.4752 60.2938C26.2908 60.0179 26.1924 59.6934 26.1924 59.3616C26.1924 58.9165 26.3692 58.4897 26.6839 58.175C26.9986 57.8604 27.4254 57.6836 27.8704 57.6836Z" fill="white" stroke="#27D4FF" stroke-miterlimit="10"/>
<path d="M14.5647 76.4863C14.8966 76.4863 15.221 76.5847 15.497 76.7691C15.7729 76.9535 15.988 77.2156 16.115 77.5222C16.242 77.8288 16.2752 78.1662 16.2105 78.4917C16.1457 78.8172 15.9859 79.1162 15.7513 79.3508C15.5166 79.5855 15.2176 79.7454 14.8921 79.8101C14.5666 79.8749 14.2292 79.8416 13.9226 79.7146C13.616 79.5876 13.3539 79.3725 13.1695 79.0966C12.9851 78.8206 12.8867 78.4962 12.8867 78.1643C12.8867 77.7193 13.0635 77.2925 13.3782 76.9778C13.6929 76.6631 14.1197 76.4863 14.5647 76.4863Z" fill="white" fill-opacity="0.87"/>
<path d="M67.0462 97.3784C67.3781 97.3784 67.7025 97.4768 67.9785 97.6613C68.2545 97.8457 68.4696 98.1078 68.5965 98.4145C68.7235 98.7212 68.7567 99.0586 68.6918 99.3842C68.627 99.7097 68.4671 100.009 68.2323 100.243C67.9976 100.478 67.6985 100.638 67.3729 100.702C67.0474 100.767 66.7099 100.734 66.4033 100.606C66.0967 100.479 65.8347 100.264 65.6505 99.9879C65.4662 99.7118 65.368 99.3873 65.3682 99.0554C65.3684 98.6106 65.5453 98.184 65.86 97.8695C66.1746 97.555 66.6013 97.3784 67.0462 97.3784Z" fill="white" fill-opacity="0.87"/>
<path d="M80.1653 90.8794C80.4972 90.8794 80.8217 90.9779 81.0977 91.1623C81.3736 91.3467 81.5887 91.6088 81.7157 91.9155C81.8426 92.2221 81.8758 92.5596 81.811 92.8851C81.7461 93.2107 81.5862 93.5096 81.3515 93.7443C81.1167 93.9789 80.8176 94.1387 80.492 94.2033C80.1665 94.2679 79.8291 94.2345 79.5225 94.1074C79.2159 93.9802 78.9539 93.765 78.7696 93.4889C78.5854 93.2128 78.4871 92.8883 78.4873 92.5564C78.4876 92.1115 78.6645 91.685 78.9791 91.3705C79.2938 91.0561 79.7205 90.8794 80.1653 90.8794Z" fill="white" fill-opacity="0.87"/>
<path d="M93.2864 100.629C93.6183 100.629 93.9427 100.728 94.2186 100.912C94.4946 101.097 94.7097 101.359 94.8367 101.665C94.9637 101.972 94.9969 102.309 94.9321 102.635C94.8674 102.96 94.7076 103.259 94.4729 103.494C94.2382 103.729 93.9392 103.888 93.6137 103.953C93.2882 104.018 92.9509 103.985 92.6443 103.858C92.3376 103.731 92.0756 103.516 91.8912 103.24C91.7068 102.964 91.6084 102.639 91.6084 102.307C91.6084 101.862 91.7852 101.436 92.0999 101.121C92.4145 100.806 92.8413 100.629 93.2864 100.629Z" fill="white" fill-opacity="0.87"/>
<path d="M106.407 93.2002C106.738 93.2002 107.063 93.2986 107.339 93.483C107.615 93.6674 107.83 93.9294 107.957 94.236C108.084 94.5426 108.117 94.8801 108.052 95.2056C107.988 95.5311 107.828 95.83 107.593 96.0647C107.358 96.2994 107.059 96.4592 106.734 96.5239C106.408 96.5887 106.071 96.5555 105.764 96.4285C105.458 96.3015 105.196 96.0864 105.011 95.8104C104.827 95.5345 104.729 95.2101 104.729 94.8782C104.729 94.4331 104.905 94.0063 105.22 93.6917C105.535 93.377 105.961 93.2002 106.407 93.2002Z" fill="white" fill-opacity="0.87"/>
<path d="M119.528 85.3071C119.86 85.3071 120.184 85.4055 120.46 85.59C120.736 85.7744 120.951 86.0365 121.078 86.3432C121.205 86.6499 121.238 86.9873 121.173 87.3129C121.108 87.6384 120.949 87.9374 120.714 88.172C120.479 88.4066 120.18 88.5663 119.854 88.631C119.529 88.6956 119.191 88.6623 118.885 88.5351C118.578 88.4079 118.316 88.1927 118.132 87.9166C117.948 87.6405 117.849 87.3161 117.85 86.9841C117.85 86.5393 118.027 86.1127 118.341 85.7982C118.656 85.4837 119.083 85.3071 119.528 85.3071Z" fill="white" fill-opacity="0.87"/>
<path d="M132.647 93.6641C132.979 93.6641 133.303 93.7625 133.579 93.9468C133.855 94.1312 134.07 94.3933 134.197 94.6999C134.324 95.0065 134.357 95.3439 134.293 95.6694C134.228 95.9949 134.068 96.2939 133.833 96.5286C133.599 96.7632 133.3 96.923 132.974 96.9878C132.649 97.0525 132.311 97.0193 132.005 96.8923C131.698 96.7653 131.436 96.5502 131.252 96.2743C131.067 95.9983 130.969 95.6739 130.969 95.342C130.969 94.897 131.146 94.4702 131.46 94.1555C131.775 93.8408 132.202 93.6641 132.647 93.6641Z" fill="white" fill-opacity="0.87"/>
<path d="M145.768 104.343C146.1 104.343 146.424 104.442 146.7 104.626C146.976 104.81 147.191 105.073 147.318 105.379C147.445 105.686 147.478 106.023 147.414 106.349C147.349 106.674 147.189 106.973 146.954 107.208C146.72 107.442 146.421 107.602 146.095 107.667C145.77 107.732 145.432 107.699 145.126 107.572C144.819 107.445 144.557 107.229 144.373 106.954C144.188 106.678 144.09 106.353 144.09 106.021C144.09 105.576 144.267 105.149 144.581 104.835C144.896 104.52 145.323 104.343 145.768 104.343Z" fill="white" fill-opacity="0.87"/>
<path d="M158.887 98.7715C159.219 98.7715 159.543 98.8699 159.819 99.0543C160.095 99.2387 160.31 99.5008 160.437 99.8074C160.564 100.114 160.597 100.451 160.533 100.777C160.468 101.102 160.308 101.401 160.073 101.636C159.839 101.871 159.54 102.031 159.214 102.095C158.889 102.16 158.551 102.127 158.245 102C157.938 101.873 157.676 101.658 157.492 101.382C157.307 101.106 157.209 100.781 157.209 100.45C157.209 100.004 157.386 99.5777 157.7 99.263C158.015 98.9483 158.442 98.7715 158.887 98.7715Z" fill="white" fill-opacity="0.87"/>
<path d="M172.007 95.9854C172.339 95.9854 172.663 96.0838 172.939 96.2682C173.215 96.4526 173.43 96.7148 173.557 97.0214C173.684 97.3281 173.718 97.6656 173.653 97.9911C173.588 98.3166 173.428 98.6156 173.193 98.8502C172.958 99.0849 172.659 99.2446 172.334 99.3092C172.008 99.3738 171.671 99.3405 171.364 99.2133C171.058 99.0862 170.796 98.8709 170.611 98.5948C170.427 98.3188 170.329 97.9943 170.329 97.6624C170.329 97.2175 170.506 96.7909 170.821 96.4764C171.136 96.162 171.562 95.9854 172.007 95.9854Z" fill="white" fill-opacity="0.87"/>
<path d="M185.128 92.5044C185.46 92.5044 185.785 92.6029 186.061 92.7873C186.337 92.9717 186.552 93.2339 186.679 93.5405C186.806 93.8472 186.839 94.1846 186.774 94.5101C186.709 94.8357 186.549 95.1347 186.314 95.3693C186.08 95.604 185.781 95.7637 185.455 95.8283C185.129 95.8929 184.792 95.8596 184.485 95.7324C184.179 95.6053 183.917 95.39 183.733 95.114C183.548 94.8379 183.45 94.5133 183.45 94.1814C183.45 93.7365 183.627 93.31 183.942 92.9955C184.257 92.6811 184.683 92.5044 185.128 92.5044Z" fill="white" fill-opacity="0.87"/>
<path d="M198.247 81.5933C198.579 81.5931 198.904 81.6913 199.18 81.8755C199.456 82.0598 199.671 82.3218 199.798 82.6284C199.925 82.935 199.959 83.2725 199.894 83.598C199.83 83.9236 199.67 84.2226 199.435 84.4574C199.201 84.6922 198.902 84.8521 198.576 84.9169C198.251 84.9818 197.913 84.9486 197.606 84.8216C197.3 84.6946 197.038 84.4796 196.853 84.2036C196.669 83.9276 196.57 83.6032 196.57 83.2712C196.57 82.8264 196.747 82.3997 197.061 82.0851C197.376 81.7704 197.802 81.5935 198.247 81.5933Z" fill="white" fill-opacity="0.87"/>
<path d="M211.367 92.5044C211.699 92.5044 212.024 92.6029 212.3 92.7873C212.576 92.9717 212.791 93.2339 212.918 93.5405C213.045 93.8472 213.078 94.1846 213.013 94.5101C212.948 94.8357 212.788 95.1347 212.554 95.3693C212.319 95.604 212.02 95.7637 211.694 95.8283C211.369 95.8929 211.031 95.8596 210.725 95.7324C210.418 95.6053 210.156 95.39 209.972 95.114C209.788 94.8379 209.689 94.5133 209.689 94.1814C209.69 93.7365 209.867 93.31 210.181 92.9955C210.496 92.6811 210.923 92.5044 211.367 92.5044Z" fill="white" fill-opacity="0.87"/>
<path d="M263.849 80.8965C264.181 80.8963 264.505 80.9945 264.781 81.1788C265.058 81.3631 265.273 81.6252 265.4 81.9318C265.527 82.2385 265.56 82.576 265.496 82.9016C265.431 83.2271 265.271 83.5263 265.036 83.761C264.802 83.9957 264.503 84.1556 264.177 84.2203C263.851 84.285 263.514 84.2516 263.207 84.1245C262.901 83.9974 262.639 83.7822 262.454 83.5061C262.27 83.23 262.172 82.9054 262.172 82.5734C262.172 82.1287 262.349 81.7024 262.663 81.3879C262.978 81.0735 263.404 80.8967 263.849 80.8965Z" fill="white" fill-opacity="0.87"/>
<path d="M14.5647 76.4863C14.8966 76.4863 15.221 76.5847 15.497 76.7691C15.7729 76.9535 15.988 77.2156 16.115 77.5222C16.242 77.8288 16.2752 78.1662 16.2105 78.4917C16.1457 78.8172 15.9859 79.1162 15.7513 79.3508C15.5166 79.5855 15.2176 79.7454 14.8921 79.8101C14.5666 79.8749 14.2292 79.8416 13.9226 79.7146C13.616 79.5876 13.3539 79.3725 13.1695 79.0966C12.9851 78.8206 12.8867 78.4962 12.8867 78.1643C12.8867 77.7193 13.0635 77.2925 13.3782 76.9778C13.6929 76.6631 14.1197 76.4863 14.5647 76.4863Z" stroke="#FF1F55" stroke-miterlimit="10"/>
<path d="M27.5647 86.4863C27.8966 86.4863 28.221 86.5847 28.497 86.7691C28.7729 86.9535 28.988 87.2156 29.115 87.5222C29.242 87.8288 29.2752 88.1662 29.2105 88.4917C29.1457 88.8172 28.9859 89.1162 28.7513 89.3508C28.5166 89.5855 28.2176 89.7454 27.8921 89.8101C27.5666 89.8749 27.2292 89.8416 26.9226 89.7146C26.616 89.5876 26.3539 89.3725 26.1695 89.0966C25.9851 88.8206 25.8867 88.4962 25.8867 88.1643C25.8867 87.7193 26.0635 87.2925 26.3782 86.9778C26.6929 86.6631 27.1197 86.4863 27.5647 86.4863Z" fill="white" stroke="#FF1F55" stroke-miterlimit="10"/>
<path d="M40.177 97.3784C40.5089 97.3784 40.8333 97.4768 41.1093 97.6612C41.3852 97.8456 41.6003 98.1077 41.7273 98.4143C41.8543 98.7209 41.8875 99.0583 41.8228 99.3838C41.758 99.7093 41.5982 100.008 41.3636 100.243C41.1289 100.478 40.8299 100.637 40.5044 100.702C40.1789 100.767 39.8415 100.734 39.5349 100.607C39.2283 100.48 38.9662 100.265 38.7818 99.9886C38.5974 99.7127 38.499 99.3883 38.499 99.0564C38.499 98.6114 38.6758 98.1846 38.9905 97.8699C39.3052 97.5552 39.732 97.3784 40.177 97.3784Z" fill="white" stroke="#FF1F55" stroke-miterlimit="10"/>
<path d="M53.177 94.3784C53.5089 94.3784 53.8333 94.4768 54.1093 94.6612C54.3852 94.8456 54.6003 95.1077 54.7273 95.4143C54.8543 95.7209 54.8875 96.0583 54.8228 96.3838C54.758 96.7093 54.5982 97.0082 54.3636 97.2429C54.1289 97.4776 53.8299 97.6375 53.5044 97.7022C53.1789 97.767 52.8415 97.7337 52.5349 97.6067C52.2283 97.4797 51.9662 97.2646 51.7818 96.9886C51.5974 96.7127 51.499 96.3883 51.499 96.0564C51.499 95.6114 51.6758 95.1846 51.9905 94.8699C52.3052 94.5552 52.732 94.3784 53.177 94.3784Z" fill="white" stroke="#FF1F55" stroke-miterlimit="10"/>
<path d="M67.0462 97.3784C67.3781 97.3784 67.7025 97.4768 67.9785 97.6613C68.2545 97.8457 68.4696 98.1078 68.5965 98.4145C68.7235 98.7212 68.7567 99.0586 68.6918 99.3842C68.627 99.7097 68.4671 100.009 68.2323 100.243C67.9976 100.478 67.6985 100.638 67.3729 100.702C67.0474 100.767 66.7099 100.734 66.4033 100.606C66.0967 100.479 65.8347 100.264 65.6505 99.9879C65.4662 99.7118 65.368 99.3873 65.3682 99.0554C65.3684 98.6106 65.5453 98.184 65.86 97.8695C66.1746 97.555 66.6013 97.3784 67.0462 97.3784Z" stroke="#FF1F55" stroke-miterlimit="10"/>
<path d="M80.1653 90.8784C80.4972 90.8784 80.8217 90.9769 81.0977 91.1613C81.3736 91.3457 81.5887 91.6078 81.7157 91.9145C81.8426 92.2212 81.8758 92.5586 81.811 92.8842C81.7461 93.2097 81.5862 93.5087 81.3515 93.7433C81.1167 93.9779 80.8176 94.1377 80.492 94.2023C80.1665 94.267 79.8291 94.2335 79.5225 94.1064C79.2159 93.9792 78.9539 93.764 78.7696 93.4879C78.5854 93.2118 78.4871 92.8873 78.4873 92.5554C78.4876 92.1106 78.6645 91.684 78.9791 91.3696C79.2938 91.0551 79.7205 90.8784 80.1653 90.8784Z" stroke="#FF1F55" stroke-miterlimit="10"/>
<path d="M93.2864 100.628C93.6183 100.628 93.9427 100.727 94.2186 100.911C94.4946 101.096 94.7097 101.358 94.8367 101.664C94.9637 101.971 94.9969 102.308 94.9321 102.634C94.8674 102.959 94.7076 103.258 94.4729 103.493C94.2382 103.728 93.9392 103.887 93.6137 103.952C93.2882 104.017 92.9509 103.984 92.6443 103.857C92.3376 103.73 92.0756 103.515 91.8912 103.239C91.7068 102.963 91.6084 102.638 91.6084 102.306C91.6084 101.861 91.7852 101.435 92.0999 101.12C92.4145 100.805 92.8413 100.628 93.2864 100.628Z" stroke="#FF1F55" stroke-miterlimit="10"/>
<path d="M106.407 93.1992C106.738 93.1992 107.063 93.2976 107.339 93.482C107.615 93.6664 107.83 93.9284 107.957 94.235C108.084 94.5417 108.117 94.8791 108.052 95.2046C107.988 95.5301 107.828 95.829 107.593 96.0637C107.358 96.2984 107.059 96.4582 106.734 96.5229C106.408 96.5877 106.071 96.5545 105.764 96.4275C105.458 96.3005 105.196 96.0854 105.011 95.8094C104.827 95.5335 104.729 95.2091 104.729 94.8772C104.729 94.4322 104.905 94.0054 105.22 93.6907C105.535 93.376 105.961 93.1992 106.407 93.1992Z" stroke="#FF1F55" stroke-miterlimit="10"/>
<path d="M119.528 85.3071C119.86 85.3071 120.184 85.4055 120.46 85.59C120.736 85.7744 120.951 86.0365 121.078 86.3432C121.205 86.6499 121.238 86.9873 121.173 87.3129C121.108 87.6384 120.949 87.9374 120.714 88.172C120.479 88.4066 120.18 88.5663 119.854 88.631C119.529 88.6956 119.191 88.6623 118.885 88.5351C118.578 88.4079 118.316 88.1927 118.132 87.9166C117.948 87.6405 117.849 87.3161 117.85 86.9841C117.85 86.5393 118.027 86.1127 118.341 85.7982C118.656 85.4837 119.083 85.3071 119.528 85.3071Z" stroke="#FF1F55" stroke-miterlimit="10"/>
<path d="M132.647 93.6646C132.979 93.6646 133.303 93.7629 133.579 93.9473C133.855 94.1317 134.07 94.3938 134.197 94.7004C134.324 95.007 134.357 95.3444 134.293 95.6699C134.228 95.9954 134.068 96.2944 133.833 96.5291C133.599 96.7637 133.3 96.9235 132.974 96.9883C132.649 97.053 132.311 97.0198 132.005 96.8928C131.698 96.7658 131.436 96.5507 131.252 96.2748C131.067 95.9988 130.969 95.6744 130.969 95.3425C130.969 94.8975 131.146 94.4707 131.46 94.156C131.775 93.8413 132.202 93.6646 132.647 93.6646Z" stroke="#FF1F55" stroke-miterlimit="10"/>
<path d="M145.768 104.342C146.1 104.342 146.424 104.441 146.7 104.625C146.976 104.81 147.191 105.072 147.318 105.378C147.445 105.685 147.478 106.022 147.414 106.348C147.349 106.673 147.189 106.972 146.954 107.207C146.72 107.442 146.421 107.601 146.095 107.666C145.77 107.731 145.432 107.698 145.126 107.571C144.819 107.444 144.557 107.229 144.373 106.953C144.188 106.677 144.09 106.352 144.09 106.02C144.09 105.575 144.267 105.148 144.581 104.834C144.896 104.519 145.323 104.342 145.768 104.342Z" stroke="#FF1F55" stroke-miterlimit="10"/>
<path d="M158.887 98.7705C159.219 98.7705 159.543 98.869 159.819 99.0533C160.095 99.2377 160.31 99.4998 160.437 99.8064C160.564 100.113 160.597 100.45 160.533 100.776C160.468 101.101 160.308 101.4 160.073 101.635C159.839 101.87 159.54 102.03 159.214 102.094C158.889 102.159 158.551 102.126 158.245 101.999C157.938 101.872 157.676 101.657 157.492 101.381C157.307 101.105 157.209 100.78 157.209 100.449C157.209 100.004 157.386 99.5767 157.7 99.262C158.015 98.9473 158.442 98.7705 158.887 98.7705Z" stroke="#FF1F55" stroke-miterlimit="10"/>
<path d="M172.007 95.9854C172.339 95.9854 172.663 96.0838 172.939 96.2682C173.215 96.4526 173.43 96.7148 173.557 97.0214C173.684 97.3281 173.718 97.6656 173.653 97.9911C173.588 98.3166 173.428 98.6156 173.193 98.8502C172.958 99.0849 172.659 99.2446 172.334 99.3092C172.008 99.3738 171.671 99.3405 171.364 99.2133C171.058 99.0862 170.796 98.8709 170.611 98.5948C170.427 98.3188 170.329 97.9943 170.329 97.6624C170.329 97.2175 170.506 96.7909 170.821 96.4764C171.136 96.162 171.562 95.9854 172.007 95.9854Z" stroke="#FF1F55" stroke-miterlimit="10"/>
<path d="M185.128 92.5034C185.46 92.5034 185.785 92.6019 186.061 92.7863C186.337 92.9707 186.552 93.2329 186.679 93.5396C186.806 93.8462 186.839 94.1836 186.774 94.5092C186.709 94.8347 186.549 95.1337 186.314 95.3683C186.08 95.603 185.781 95.7627 185.455 95.8273C185.129 95.892 184.792 95.8586 184.485 95.7314C184.179 95.6043 183.917 95.3891 183.733 95.113C183.548 94.8369 183.45 94.5123 183.45 94.1804C183.45 93.7356 183.627 93.309 183.942 92.9946C184.257 92.6801 184.683 92.5034 185.128 92.5034Z" stroke="#FF1F55" stroke-miterlimit="10"/>
<path d="M198.247 81.5933C198.579 81.5931 198.904 81.6913 199.18 81.8755C199.456 82.0598 199.671 82.3218 199.798 82.6284C199.925 82.935 199.959 83.2725 199.894 83.598C199.83 83.9236 199.67 84.2226 199.435 84.4574C199.201 84.6922 198.902 84.8521 198.576 84.9169C198.251 84.9818 197.913 84.9486 197.606 84.8216C197.3 84.6946 197.038 84.4796 196.853 84.2036C196.669 83.9276 196.57 83.6032 196.57 83.2712C196.57 82.8264 196.747 82.3997 197.061 82.0851C197.376 81.7704 197.802 81.5935 198.247 81.5933Z" stroke="#FF1F55" stroke-miterlimit="10"/>
<path d="M211.367 92.5034C211.699 92.5034 212.024 92.6019 212.3 92.7863C212.576 92.9707 212.791 93.2329 212.918 93.5396C213.045 93.8462 213.078 94.1836 213.013 94.5092C212.948 94.8347 212.788 95.1337 212.554 95.3683C212.319 95.603 212.02 95.7627 211.694 95.8273C211.369 95.892 211.031 95.8586 210.725 95.7314C210.418 95.6043 210.156 95.3891 209.972 95.113C209.788 94.8369 209.689 94.5123 209.689 94.1804C209.69 93.7356 209.867 93.309 210.181 92.9946C210.496 92.6801 210.923 92.5034 211.367 92.5034Z" stroke="#FF1F55" stroke-miterlimit="10"/>
<path d="M250.543 84.3784C250.875 84.3784 251.2 84.4769 251.476 84.6613C251.752 84.8457 251.967 85.1079 252.094 85.4146C252.221 85.7212 252.254 86.0586 252.189 86.3842C252.124 86.7097 251.964 87.0087 251.729 87.2433C251.495 87.4779 251.196 87.6377 250.87 87.7023C250.544 87.767 250.207 87.7335 249.9 87.6064C249.594 87.4792 249.332 87.2641 249.148 86.988C248.963 86.7119 248.865 86.3873 248.865 86.0554C248.865 85.6106 249.042 85.184 249.357 84.8696C249.672 84.5551 250.098 84.3784 250.543 84.3784Z" fill="white" stroke="#FF1F55" stroke-miterlimit="10"/>
<path d="M237.543 77.3784C237.875 77.3784 238.2 77.4769 238.476 77.6613C238.752 77.8457 238.967 78.1079 239.094 78.4146C239.221 78.7212 239.254 79.0586 239.189 79.3842C239.124 79.7097 238.964 80.0087 238.729 80.2433C238.495 80.4779 238.196 80.6377 237.87 80.7023C237.544 80.767 237.207 80.7335 236.9 80.6064C236.594 80.4792 236.332 80.2641 236.148 79.988C235.963 79.7119 235.865 79.3873 235.865 79.0554C235.865 78.6106 236.042 78.184 236.357 77.8696C236.672 77.5551 237.098 77.3784 237.543 77.3784Z" fill="white" stroke="#FF1F55" stroke-miterlimit="10"/>
<path d="M225.543 84.3784C225.875 84.3784 226.2 84.4769 226.476 84.6613C226.752 84.8457 226.967 85.1079 227.094 85.4146C227.221 85.7212 227.254 86.0586 227.189 86.3842C227.124 86.7097 226.964 87.0087 226.729 87.2433C226.495 87.4779 226.196 87.6377 225.87 87.7023C225.544 87.767 225.207 87.7335 224.9 87.6064C224.594 87.4792 224.332 87.2641 224.148 86.988C223.963 86.7119 223.865 86.3873 223.865 86.0554C223.865 85.6106 224.042 85.184 224.357 84.8696C224.672 84.5551 225.098 84.3784 225.543 84.3784Z" fill="white" stroke="#FF1F55" stroke-miterlimit="10"/>
<path d="M263.849 80.8965C264.181 80.8963 264.505 80.9945 264.781 81.1788C265.058 81.3631 265.273 81.6252 265.4 81.9318C265.527 82.2385 265.56 82.576 265.496 82.9016C265.431 83.2271 265.271 83.5263 265.036 83.761C264.802 83.9957 264.503 84.1556 264.177 84.2203C263.851 84.285 263.514 84.2516 263.207 84.1245C262.901 83.9974 262.639 83.7822 262.454 83.5061C262.27 83.23 262.172 82.9054 262.172 82.5734C262.172 82.1287 262.349 81.7024 262.663 81.3879C262.978 81.0735 263.404 80.8967 263.849 80.8965Z" stroke="#FF1F55" stroke-miterlimit="10"/>
</svg>
