<svg width="248" height="163" viewBox="0 0 248 163" fill="none" xmlns="http://www.w3.org/2000/svg">
<g clip-path="url(#clip0_443_12591)">
<path d="M184.5 133V48L190.5 40L196.5 48V133H184.5Z" fill="#FFBC04"/>
<path d="M51.5 133V48L57.5 40L63.5 48V133H51.5Z" fill="#00FF00"/>
<path d="M59.5 83L51.5 77L59.5 71H188.5L196.5 77L188.5 83H59.5Z" fill="#00FF00"/>
<path d="M51.5 145L43.5 139L51.5 133H130.5V145H51.5Z" fill="#FFBC04"/>
<path d="M196.5 133L204.5 139L196.5 145V133ZM130.5 145V133H196.5V145H130.5Z" fill="#00FF00"/>
<path d="M118.5 71V48L124.5 40L130.5 48V71H118.5Z" fill="#D60000"/>
<path d="M130.5 71H118.5V145H130.5V71Z" fill="#FFBC04"/>
</g>
<path d="M43.652 8.54H38.64V7.28H42.182V2.94H33.656V7.28H37.184V8.54H32.2V9.702H43.652V8.54ZM35.07 6.132V4.088H40.768V6.132H35.07ZM37.898 10.556C35.182 10.556 33.544 11.368 33.544 12.824C33.544 14.28 35.112 15.092 37.898 15.092C40.698 15.092 42.252 14.28 42.252 12.824C42.252 11.368 40.698 10.556 37.898 10.556ZM37.898 13.986C36.036 13.986 35.014 13.608 35.014 12.824C35.014 12.04 36.036 11.662 37.898 11.662C39.76 11.662 40.796 12.04 40.796 12.824C40.796 13.608 39.76 13.986 37.898 13.986ZM45.6809 7.308L46.1429 8.414C48.3409 8.204 50.0069 7.434 50.7909 6.258C51.5749 7.434 53.2409 8.204 55.4389 8.414L55.9009 7.308C53.3809 7.084 51.7709 6.118 51.6169 4.886H55.3829V3.752H51.5189V2.45H50.0769V3.752H46.2269V4.886H49.9789C49.8249 6.118 48.2149 7.084 45.6809 7.308ZM56.5169 9.338H51.5189V7.826H50.0769V9.338H45.0789V10.5H56.5169V9.338ZM47.9769 13.664V11.368H46.5209V14.84H55.2429V13.664H47.9769ZM69.4238 12.404H64.4118V10.024H68.1498V8.876H60.8558V7.224H67.7578V6.09H60.8558V4.564H68.0378V3.388H59.3858V10.024H62.9558V12.404H57.9718V13.594H69.4238V12.404ZM79.8807 6.132V9.884H81.3227V2.422H79.8807V4.956H77.3187V6.132H79.8807ZM77.5847 9.38L78.3547 8.246C76.4507 7.616 75.3867 6.034 75.3867 4.284V3.108H73.9307V4.354C73.9307 6.202 72.8247 7.924 70.7947 8.596L71.5507 9.758C73.0767 9.212 74.1407 8.106 74.7007 6.706C75.2467 7.938 76.2267 8.89 77.5847 9.38ZM77.1087 10.234C74.4767 10.234 72.8527 11.13 72.8527 12.656C72.8527 14.182 74.4767 15.078 77.1087 15.078C79.7547 15.078 81.3787 14.182 81.3787 12.656C81.3787 11.13 79.7547 10.234 77.1087 10.234ZM77.1087 13.944C75.3027 13.944 74.2947 13.496 74.2947 12.656C74.2947 11.816 75.3027 11.368 77.1087 11.368C78.9147 11.368 79.9367 11.816 79.9367 12.656C79.9367 13.496 78.9147 13.944 77.1087 13.944Z" fill="white" fill-opacity="0.87"/>
<path d="M44.712 25.056L46.392 23.642C46.378 23.88 46.378 24.118 46.378 24.342V30.656H44.222V32H49.864V30.656H47.918V21.626H46.658L43.858 24.02L44.712 25.056ZM58.4978 32V30.628H54.9138C54.4658 30.628 54.0038 30.712 53.5698 30.824L56.2018 28.164C57.2378 27.128 58.3158 26.022 58.3158 24.454C58.3158 22.578 56.8878 21.542 55.1518 21.542C53.2338 21.542 51.9458 22.648 51.6798 24.496L53.2198 24.776C53.1358 23.67 53.9618 22.858 55.0678 22.858C57.0558 22.858 56.9718 24.818 56.2718 26.078C55.9078 26.652 55.4598 27.128 54.9838 27.604L51.4978 31.104V32H58.4978ZM69.8477 25.952V20.828H68.4197V22.298H62.7917V20.828H61.3637V25.952H69.8477ZM68.4197 23.404V24.818H62.7917V23.404H68.4197ZM71.3457 27.016H59.8797V28.178H65.0037V30.432H66.4457V28.178H71.3457V27.016ZM62.7217 31.664V29.382H61.2797V32.84H70.0717V31.664H62.7217Z" fill="#FFE043"/>
<path d="M13.2393 74.65V73.46H11.4473V70.436H10.0053V77.786H11.4473V74.65H13.2393ZM8.22728 77.268L8.98328 76.148C7.07928 75.476 6.01528 73.908 6.01528 72.228V71.08H4.55928V72.27C4.55928 74.09 3.46728 75.784 1.46528 76.484L2.23528 77.618C3.74728 77.072 4.78328 75.994 5.32928 74.58C5.87528 75.812 6.86928 76.778 8.22728 77.268ZM3.36928 78.332V82.924H11.4473V78.332H3.36928ZM4.79728 81.776V79.48H10.0333V81.776H4.79728ZM23.4862 73.824H21.1902V75.014H23.4862V79.69H24.9282V70.45H23.4862V73.824ZM21.2602 77.898L21.9742 76.778C20.0702 76.106 19.0062 74.538 19.0062 72.984V72.55H21.6382V71.388H14.8762V72.55H17.5502V72.984C17.5502 74.678 16.4022 76.372 14.4422 77.044L15.1842 78.178C16.6962 77.66 17.7462 76.582 18.3062 75.182C18.8522 76.428 19.8602 77.408 21.2602 77.898ZM25.2502 81.664H18.1802V78.892H16.7382V82.84H25.2502V81.664ZM38.7731 76.54H33.7751V75.28H37.4571V74.118H30.1911V72.144H37.3731V70.996H28.7631V75.28H32.3331V76.54H27.3491V77.716H38.7731V76.54ZM33.0191 78.486C30.3171 78.486 28.6651 79.326 28.6651 80.782C28.6651 82.252 30.3171 83.092 33.0191 83.092C35.8051 83.092 37.3731 82.252 37.3731 80.782C37.3731 79.326 35.7351 78.486 33.0191 78.486ZM33.0191 81.972C31.1571 81.972 30.1351 81.566 30.1351 80.782C30.1351 79.998 31.1571 79.592 33.0191 79.592C34.8811 79.592 35.9171 79.998 35.9171 80.782C35.9171 81.566 34.8811 81.972 33.0191 81.972Z" fill="white" fill-opacity="0.87"/>
<path d="M24.8722 129.848V123.422H23.4302V129.848H24.8722ZM21.3302 126.698C21.3302 125.018 19.9162 123.842 17.9982 123.842C16.1082 123.842 14.6942 125.018 14.6942 126.698C14.6942 128.364 16.1082 129.54 17.9982 129.54C19.9162 129.54 21.3302 128.364 21.3302 126.698ZM16.0942 126.698C16.0942 125.69 16.9202 125.032 17.9982 125.032C19.1042 125.032 19.9302 125.69 19.9302 126.698C19.9302 127.706 19.1042 128.364 17.9982 128.364C16.9202 128.364 16.0942 127.706 16.0942 126.698ZM25.2502 134.79H18.0262V133.67H24.8722V130.422H16.5842V131.556H23.4442V132.606H16.6122V135.924H25.2502V134.79ZM36.3651 130.856H33.8871V131.864H36.3651V133.04H37.8071V123.422H36.3651V130.856ZM31.3671 128.364C33.2151 128.364 34.4891 127.482 34.4891 126.138C34.4891 124.794 33.2151 123.912 31.3671 123.912C29.5191 123.912 28.2311 124.794 28.2311 126.138C28.2311 127.482 29.5191 128.364 31.3671 128.364ZM31.3671 124.976C32.4311 124.976 33.1171 125.424 33.1171 126.138C33.1171 126.852 32.4311 127.3 31.3671 127.3C30.3031 127.3 29.6031 126.852 29.6031 126.138C29.6031 125.424 30.3031 124.976 31.3671 124.976ZM30.7931 130.282V132.634H32.2351V130.198C33.3131 130.142 34.4191 130.016 35.4831 129.834L35.3711 128.798C32.6831 129.134 29.5891 129.176 27.2651 129.176L27.4471 130.352C28.4551 130.352 29.5611 130.338 30.7931 130.282ZM38.1011 134.664H30.4151V132.102H28.9731V135.84H38.1011V134.664ZM24.9562 141.408H23.5002V146.056H21.0782V147.246H23.5002V154.092H24.9562V141.408ZM16.4582 149.962V147.232H20.3642V146.084H16.4582V143.718H20.8822V142.528H15.0162V151.138H16.0102C18.2782 151.138 19.9022 151.096 21.6942 150.76L21.5682 149.598C19.9162 149.864 18.4602 149.962 16.4582 149.962ZM36.3651 144.558V147.904H37.8071V141.436H36.3651V143.382H33.0051V144.558H36.3651ZM34.8111 147.008L34.6291 145.818C32.8371 146.168 31.2411 146.28 29.4911 146.294V141.996H28.0491V147.484H29.0571C31.0311 147.484 32.8091 147.386 34.8111 147.008ZM38.1991 152.776H31.0451V151.67H37.8071V148.45H29.5751V149.598H36.3651V150.592H29.6031V153.924H38.1991V152.776Z" fill="white" fill-opacity="0.87"/>
<path d="M220.876 73.516H219.084V70.436H217.642V77.982H219.084V74.706H220.876V73.516ZM215.612 77.114V71.234H214.184V72.984H211.09V71.234H209.648V77.114H215.612ZM214.184 74.118V75.966H211.09V74.118H214.184ZM215.01 78.276C212.406 78.276 210.796 79.186 210.796 80.684C210.796 82.196 212.406 83.092 215.01 83.092C217.614 83.092 219.224 82.196 219.224 80.684C219.224 79.186 217.614 78.276 215.01 78.276ZM215.01 81.958C213.204 81.958 212.224 81.524 212.224 80.684C212.224 79.844 213.204 79.424 215.01 79.424C216.816 79.424 217.796 79.844 217.796 80.684C217.796 81.524 216.816 81.958 215.01 81.958ZM232.495 70.422H231.039V83.106H232.495V70.422ZM225.761 71.36C223.899 71.36 222.513 73.096 222.513 75.812C222.513 78.556 223.899 80.278 225.761 80.278C227.651 80.278 229.023 78.556 229.023 75.812C229.023 73.096 227.651 71.36 225.761 71.36ZM225.761 72.662C226.881 72.662 227.637 73.838 227.637 75.812C227.637 77.842 226.881 78.99 225.761 78.99C224.641 78.99 223.899 77.842 223.899 75.812C223.899 73.838 224.641 72.662 225.761 72.662ZM246.41 76.54H241.412V75.28H245.094V74.118H237.828V72.144H245.01V70.996H236.4V75.28H239.97V76.54H234.986V77.716H246.41V76.54ZM240.656 78.486C237.954 78.486 236.302 79.326 236.302 80.782C236.302 82.252 237.954 83.092 240.656 83.092C243.442 83.092 245.01 82.252 245.01 80.782C245.01 79.326 243.372 78.486 240.656 78.486ZM240.656 81.972C238.794 81.972 237.772 81.566 237.772 80.782C237.772 79.998 238.794 79.592 240.656 79.592C242.518 79.592 243.554 79.998 243.554 80.782C243.554 81.566 242.518 81.972 240.656 81.972Z" fill="white" fill-opacity="0.87"/>
<path d="M219.63 138.848V132.436H218.188V138.848H219.63ZM215.85 132.982H210.054V134.158H214.268C214.086 135.95 212.56 137.28 209.41 137.938L209.914 139.1C213.764 138.26 215.85 136.3 215.85 132.982ZM220.008 143.818H212.812V142.642H219.63V139.408H211.342V140.528H218.188V141.592H211.37V144.966H220.008V143.818ZM233.531 138.54H228.533V137.28H232.215V136.118H224.949V134.144H232.131V132.996H223.521V137.28H227.091V138.54H222.107V139.716H233.531V138.54ZM227.777 140.486C225.075 140.486 223.423 141.326 223.423 142.782C223.423 144.252 225.075 145.092 227.777 145.092C230.563 145.092 232.131 144.252 232.131 142.782C232.131 141.326 230.493 140.486 227.777 140.486ZM227.777 143.972C225.915 143.972 224.893 143.566 224.893 142.782C224.893 141.998 225.915 141.592 227.777 141.592C229.639 141.592 230.675 141.998 230.675 142.782C230.675 143.566 229.639 143.972 227.777 143.972Z" fill="white" fill-opacity="0.87"/>
<path d="M116.876 6.636V5.446H115.084V2.422H113.642V9.814H115.084V6.636H116.876ZM111.92 9.478L112.634 8.33C110.688 7.7 109.638 6.188 109.638 4.606V4.41H112.27V3.248H105.48V4.41H108.168V4.606C108.168 6.342 107.062 7.938 105.074 8.61L105.802 9.758C107.314 9.24 108.364 8.176 108.924 6.832C109.47 8.064 110.464 9.016 111.92 9.478ZM107.006 10.36V14.924H115.084V10.36H107.006ZM108.434 13.776V11.508H113.67V13.776H108.434ZM128.509 8.918V2.436H127.053V8.918H128.509ZM125.079 8.638L125.779 7.504C123.833 6.902 122.699 5.348 122.699 3.724V2.772H121.229V3.724C121.229 5.432 120.095 7.056 118.093 7.728L118.807 8.876C120.333 8.358 121.411 7.308 121.985 5.95C122.559 7.196 123.623 8.148 125.079 8.638ZM128.887 13.832H121.663V12.726H128.509V9.52H120.221V10.64H127.081V11.676H120.249V14.966H128.887V13.832ZM141.444 2.422L140.002 2.436V4.214H137.006C136.404 3.542 135.494 3.122 134.43 3.122C132.568 3.122 131.14 4.396 131.14 6.202C131.14 7.994 132.568 9.282 134.43 9.282C135.494 9.296 136.404 8.876 137.006 8.19H140.002V9.912H141.444V2.422ZM134.43 8.05C133.324 8.05 132.512 7.322 132.512 6.202C132.512 5.082 133.352 4.34 134.43 4.34C135.508 4.34 136.348 5.082 136.348 6.202C136.348 7.322 135.536 8.05 134.43 8.05ZM140.002 7.014H137.608C137.678 6.692 137.72 6.426 137.72 6.202C137.72 5.908 137.678 5.656 137.622 5.39H140.002V7.014ZM132.918 10.542V11.704H140.002V15.092H141.444V10.542H132.918Z" fill="white" fill-opacity="0.87"/>
<path d="M111.212 25.056L112.892 23.642C112.878 23.88 112.878 24.118 112.878 24.342V30.656H110.722V32H116.364V30.656H114.418V21.626H113.158L110.358 24.02L111.212 25.056ZM119.342 28.836L117.984 29.396C118.544 31.272 119.65 32.126 121.54 32.126C123.458 32.126 125.04 30.964 125.04 28.99C125.04 27.688 124.34 26.904 123.108 26.554C124.298 26.176 124.816 25.392 124.816 24.202C124.816 22.452 123.318 21.542 121.75 21.542C119.832 21.542 118.558 22.676 118.292 24.51L119.818 24.776C119.734 23.67 120.602 22.858 121.666 22.858C122.688 22.858 123.318 23.474 123.318 24.468C123.318 25.84 122.156 26.148 120.994 26.148V27.268C122.254 27.268 123.5 27.45 123.5 29.032C123.5 30.11 122.576 30.81 121.526 30.81C120.462 30.81 119.468 29.9 119.342 28.836ZM136.348 25.952V20.828H134.92V22.298H129.292V20.828H127.864V25.952H136.348ZM134.92 23.404V24.818H129.292V23.404H134.92ZM137.846 27.016H126.38V28.178H131.504V30.432H132.946V28.178H137.846V27.016ZM129.222 31.664V29.382H127.78V32.84H136.572V31.664H129.222Z" fill="#FFE043"/>
<path d="M175.98 6.44L175.434 7.574C174.417 7.41533 173.511 7.112 172.718 6.664C171.925 6.20667 171.318 5.63733 170.898 4.956C170.497 5.628 169.904 6.19267 169.12 6.65C168.336 7.10733 167.421 7.41533 166.376 7.574L165.844 6.44C166.469 6.356 167.043 6.21133 167.566 6.006C168.098 5.79133 168.555 5.53933 168.938 5.25C169.33 4.95133 169.633 4.62 169.848 4.256C170.063 3.892 170.17 3.514 170.17 3.122V2.646H171.654V3.122C171.654 3.514 171.761 3.892 171.976 4.256C172.191 4.62 172.489 4.95133 172.872 5.25C173.255 5.53933 173.712 5.79133 174.244 6.006C174.776 6.21133 175.355 6.356 175.98 6.44ZM171.626 8.596H176.638V9.758H165.2V8.596H170.184V6.874H171.626V8.596ZM170.898 10.654C172.307 10.654 173.385 10.8453 174.132 11.228C174.879 11.6107 175.252 12.1567 175.252 12.866C175.252 13.5753 174.879 14.1213 174.132 14.504C173.385 14.8867 172.307 15.078 170.898 15.078C169.498 15.078 168.42 14.8867 167.664 14.504C166.917 14.1213 166.544 13.5753 166.544 12.866C166.544 12.1567 166.917 11.6107 167.664 11.228C168.42 10.8453 169.498 10.654 170.898 10.654ZM170.898 13.972C171.831 13.972 172.545 13.8787 173.04 13.692C173.544 13.5053 173.796 13.23 173.796 12.866C173.796 12.502 173.544 12.2267 173.04 12.04C172.545 11.844 171.831 11.746 170.898 11.746C169.965 11.746 169.251 11.844 168.756 12.04C168.261 12.2267 168.014 12.502 168.014 12.866C168.014 13.23 168.261 13.5053 168.756 13.692C169.251 13.8787 169.965 13.972 170.898 13.972ZM189.853 7.378V8.568H187.879V15.092H186.437V2.436H187.879V7.378H189.853ZM184.015 4.872V10.696C184.314 10.668 184.608 10.64 184.897 10.612C185.186 10.584 185.471 10.5513 185.751 10.514L185.835 11.578C185.182 11.69 184.514 11.7787 183.833 11.844C183.152 11.9093 182.475 11.956 181.803 11.984C181.14 12.012 180.492 12.0307 179.857 12.04C179.232 12.0493 178.644 12.054 178.093 12.054L177.939 10.864H179.493V4.872H178.261V3.71H185.247V4.872H184.015ZM180.893 4.872V10.836C181.173 10.8267 181.458 10.8173 181.747 10.808C182.036 10.7987 182.326 10.7847 182.615 10.766V4.872H180.893ZM202.41 8.61V9.8H197.37V15.078H195.914V9.8H190.972V8.61H199.19C199.376 7.73267 199.484 6.95333 199.512 6.272C199.54 5.59067 199.554 4.956 199.554 4.368H192.344V3.206H200.968V4.312C200.968 4.90933 200.954 5.54867 200.926 6.23C200.898 6.91133 200.804 7.70467 200.646 8.61H202.41ZM211.383 8.498L210.711 9.604C209.983 9.39867 209.357 9.09067 208.835 8.68C208.321 8.26 207.92 7.77 207.631 7.21C207.351 7.854 206.949 8.40933 206.427 8.876C205.913 9.34267 205.279 9.69267 204.523 9.926L203.823 8.806C204.308 8.65667 204.737 8.456 205.111 8.204C205.493 7.94267 205.811 7.65333 206.063 7.336C206.324 7.00933 206.52 6.65933 206.651 6.286C206.791 5.90333 206.861 5.516 206.861 5.124V5.012H204.201V3.864H206.861V2.366H208.317V3.864H210.963V5.012H208.303V5.124C208.303 5.488 208.373 5.84267 208.513 6.188C208.653 6.524 208.853 6.84133 209.115 7.14C209.385 7.43867 209.707 7.70467 210.081 7.938C210.463 8.17133 210.897 8.358 211.383 8.498ZM210.599 5.922H212.881V2.422H214.323V10.08H212.881V7.112H210.599V5.922ZM210.109 10.36C210.771 10.36 211.364 10.416 211.887 10.528C212.419 10.6307 212.867 10.7847 213.231 10.99C213.604 11.186 213.889 11.4287 214.085 11.718C214.281 12.0073 214.379 12.3387 214.379 12.712C214.379 13.0853 214.281 13.4213 214.085 13.72C213.889 14.0093 213.604 14.252 213.231 14.448C212.867 14.6533 212.419 14.8073 211.887 14.91C211.364 15.022 210.771 15.078 210.109 15.078C208.783 15.078 207.743 14.868 206.987 14.448C206.231 14.0373 205.853 13.4587 205.853 12.712C205.853 11.956 206.231 11.3773 206.987 10.976C207.743 10.5653 208.783 10.36 210.109 10.36ZM210.109 13.958C211.014 13.958 211.709 13.8507 212.195 13.636C212.689 13.4213 212.937 13.1133 212.937 12.712C212.937 12.3107 212.689 12.0073 212.195 11.802C211.709 11.5873 211.014 11.48 210.109 11.48C209.203 11.48 208.508 11.5873 208.023 11.802C207.537 12.0073 207.295 12.3107 207.295 12.712C207.295 13.1133 207.537 13.4213 208.023 13.636C208.508 13.8507 209.203 13.958 210.109 13.958Z" fill="white" fill-opacity="0.87"/>
<path d="M177.712 25.056L179.392 23.642C179.378 23.88 179.378 24.118 179.378 24.342V30.656H177.222V32H182.864V30.656H180.918V21.626H179.658L176.858 24.02L177.712 25.056ZM191.932 29.382V28.178H190.504V21.64H189.062L184.092 28.262V29.382H189.16V32H190.504V29.382H191.932ZM189.16 28.178H185.758L189.23 23.404C189.188 23.768 189.16 24.09 189.16 24.398V28.178ZM202.848 25.952V20.828H201.42V22.298H195.792V20.828H194.364V25.952H202.848ZM201.42 23.404V24.818H195.792V23.404H201.42ZM204.346 27.016H192.88V28.178H198.004V30.432H199.446V28.178H204.346V27.016ZM195.722 31.664V29.382H194.28V32.84H203.072V31.664H195.722Z" fill="#FFE043"/>
<g clip-path="url(#clip1_443_12591)">
<path d="M121.875 162.776V156.227H119.25L124.5 149.227L129.75 156.227H127.125V162.776H121.875Z" fill="white"/>
</g>
<defs>
<clipPath id="clip0_443_12591">
<rect width="161" height="105.001" fill="white" transform="translate(43.5 40)"/>
</clipPath>
<clipPath id="clip1_443_12591">
<rect width="14" height="14" fill="white" transform="translate(117.5 149)"/>
</clipPath>
</defs>
</svg>
