<svg width="20" height="20" viewBox="0 0 20 20" fill="none" xmlns="http://www.w3.org/2000/svg">
<path d="M19.44 10.32C19.44 10.07 19.35 9.81 19.2 9.61C18.95 9.28 18.53 8.77 17.99 8.18C16.34 6.42 13.48 4 10.23 4C5.86 4 2.24 8.29 1.24 9.61C1.09 9.81 1 10.06 1 10.31C1 10.56 1.08 10.81 1.24 11.01C2.24 12.33 5.86 16.62 10.22 16.62C14.58 16.62 18.2 12.32 19.2 11.01C19.35 10.81 19.44 10.56 19.44 10.31V10.32ZM10.22 15.63C6.31 15.63 2.97 11.63 2.03 10.41C2.01 10.38 2 10.35 2 10.31L2.03 10.21C2.97 8.99 6.32 5 10.22 5C14.12 5 17.47 9 18.41 10.22C18.43 10.24 18.44 10.29 18.44 10.32C18.44 10.35 18.43 10.39 18.41 10.41C18.3 10.55 18.16 10.73 17.99 10.94C16.69 12.51 13.67 15.63 10.23 15.63H10.22Z" fill="#27D4FF"/>
<path fill-rule="evenodd" clip-rule="evenodd" d="M10 8C8.9 8 8 8.9 8 10C8 11.1 8.9 12 10 12C11.1 12 12 11.1 12 10C12 8.9 11.1 8 10 8ZM6 10C6 7.79 7.79 6 10 6C12.21 6 14 7.79 14 10C14 12.21 12.21 14 10 14C7.79 14 6 12.21 6 10Z" fill="#27D4FF"/>
</svg>
