<svg width="20" height="20" viewBox="0 0 20 20" fill="none" xmlns="http://www.w3.org/2000/svg">
<path d="M18.6086 9.60069C18.6956 9.71455 18.7427 9.85388 18.7427 9.99719C18.7427 10.1405 18.6956 10.2798 18.6086 10.3937C17.6086 11.7047 14.1426 15.8107 10.0226 15.8107C5.90258 15.8107 2.43958 11.7107 1.43658 10.3947C1.34852 10.2799 1.30078 10.1393 1.30078 9.99469C1.30078 9.85004 1.34852 9.70944 1.43658 9.59469C2.43658 8.28369 5.90358 4.17969 10.0226 4.17969C14.1416 4.17969 17.6076 8.29369 18.6086 9.60069Z" stroke="white"/>
<path d="M10 13C11.6569 13 13 11.6569 13 10C13 8.34315 11.6569 7 10 7C8.34315 7 7 8.34315 7 10C7 11.6569 8.34315 13 10 13Z" stroke="white" stroke-width="2" stroke-miterlimit="10"/>
</svg>
