<svg width="20" height="20" viewBox="0 0 20 20" fill="none" xmlns="http://www.w3.org/2000/svg">
<mask id="mask0_592_17820" style="mask-type:luminance" maskUnits="userSpaceOnUse" x="0" y="0" width="20" height="20">
<path d="M20 0H0V20H20V0Z" fill="white"/>
</mask>
<g mask="url(#mask0_592_17820)">
<path d="M11.5003 18H8.50026C8.2951 17.9993 8.09659 17.9272 7.93889 17.796C7.78119 17.6647 7.67417 17.4826 7.63626 17.281L7.38826 15.542C7.08103 15.396 6.78666 15.2244 6.50826 15.029L4.90026 15.674C4.70217 15.75 4.48329 15.7519 4.28392 15.6793C4.08455 15.6068 3.91811 15.4646 3.81526 15.279L2.31526 12.695C2.21325 12.5125 2.17937 12.2997 2.21967 12.0946C2.25996 11.8895 2.37181 11.7053 2.53526 11.575L3.90026 10.515C3.88526 10.352 3.87726 10.178 3.87726 10.001C3.87806 9.82747 3.88941 9.65415 3.91126 9.482L2.55326 8.426C2.38389 8.30036 2.26735 8.11619 2.22631 7.90934C2.18527 7.7025 2.22268 7.48778 2.33126 7.307L3.82426 4.707C3.92569 4.52505 4.08925 4.38571 4.285 4.31446C4.48075 4.24321 4.6956 4.24482 4.89026 4.319L6.51726 4.973C6.79725 4.77784 7.09254 4.60561 7.40026 4.458L7.64226 2.751C7.67209 2.54401 7.77498 2.35453 7.93234 2.21679C8.0897 2.07906 8.29115 2.00216 8.50026 2H11.5003C11.7091 1.99971 11.9111 2.07384 12.0702 2.20909C12.2293 2.34435 12.335 2.53187 12.3683 2.738L12.6123 4.457C12.9195 4.60332 13.2139 4.77526 13.4923 4.971L15.1003 4.326C15.299 4.25104 15.5181 4.25021 15.7173 4.32368C15.9166 4.39715 16.0828 4.53998 16.1853 4.726L17.6853 7.309C17.7873 7.49163 17.8213 7.70457 17.781 7.90987C17.7407 8.11517 17.6288 8.2995 17.4653 8.43L16.1003 9.486C16.1143 9.648 16.1223 9.819 16.1223 10.001C16.1223 10.183 16.1153 10.347 16.1013 10.513L17.4543 11.576C17.6201 11.702 17.7344 11.8841 17.7756 12.0882C17.8168 12.2924 17.7822 12.5045 17.6783 12.685L16.1723 15.285C16.0715 15.4674 15.9083 15.6074 15.7127 15.6792C15.5171 15.751 15.3021 15.7499 15.1073 15.676L13.4833 15.025C13.2042 15.2202 12.9091 15.3915 12.6013 15.537L12.3593 17.245C12.3321 17.4537 12.2299 17.6453 12.0719 17.7842C11.9138 17.9231 11.7107 17.9998 11.5003 18ZM8.60026 17H11.3843L11.6893 14.84L11.9563 14.733C12.3676 14.5643 12.7536 14.3395 13.1033 14.065L13.3303 13.89L15.3553 14.703L16.7493 12.293L15.0413 10.951L15.0783 10.668C15.1091 10.4467 15.1248 10.2235 15.1253 10C15.1267 9.7814 15.1106 9.56304 15.0773 9.347L15.0283 9.053L16.7603 7.707L15.3663 5.3L13.3453 6.113L13.1193 5.942C12.7667 5.66878 12.3797 5.44318 11.9683 5.271L11.7003 5.16L11.4003 3H8.61226L8.30726 5.16L8.04026 5.267C7.6288 5.44021 7.24157 5.6661 6.88826 5.939L6.66226 6.109L4.64226 5.3L3.25526 7.707L4.98726 9.054L4.93826 9.348C4.85932 9.77901 4.85425 10.2203 4.92326 10.653L4.97226 10.947L3.24026 12.293L4.63426 14.7L6.65526 13.886L6.88126 14.058C7.23383 14.3309 7.62083 14.5562 8.03226 14.728L8.29926 14.835L8.60026 17ZM10.0003 13.313C9.34529 13.3128 8.70509 13.1184 8.16059 12.7544C7.61609 12.3904 7.19173 11.8731 6.94118 11.268C6.69063 10.6628 6.62512 9.99699 6.75295 9.35462C6.88077 8.71224 7.19619 8.12219 7.65932 7.65906C8.12245 7.19593 8.7125 6.88052 9.35488 6.75269C9.99725 6.62486 10.6631 6.69037 11.2682 6.94092C11.8734 7.19147 12.3907 7.61583 12.7547 8.16033C13.1187 8.70483 13.3131 9.34503 13.3133 10C13.3119 10.8783 12.9625 11.7202 12.3414 12.3412C11.7204 12.9622 10.8785 13.3117 10.0003 13.313ZM10.0003 7.688C9.54303 7.6882 9.09613 7.82396 8.71605 8.07813C8.33598 8.33229 8.0398 8.69345 7.86496 9.11593C7.69013 9.53841 7.64448 10.0032 7.73381 10.4517C7.82313 10.9001 8.0434 11.3119 8.36678 11.6352C8.69016 11.9584 9.10212 12.1785 9.55058 12.2676C9.99904 12.3568 10.4639 12.3109 10.8863 12.1359C11.3087 11.9609 11.6697 11.6646 11.9237 11.2844C12.1777 10.9042 12.3133 10.4572 12.3133 10C12.3125 9.38689 12.0685 8.79913 11.6349 8.36569C11.2012 7.93225 10.6134 7.68853 10.0003 7.688Z" fill="white"/>
</g>
</svg>
