<svg width="20" height="20" viewBox="0 0 20 20" fill="none" xmlns="http://www.w3.org/2000/svg">
<mask id="mask0_592_17808" style="mask-type:luminance" maskUnits="userSpaceOnUse" x="0" y="0" width="20" height="20">
<path d="M20 0H0V20H20V0Z" fill="white"/>
</mask>
<g mask="url(#mask0_592_17808)">
<path d="M15.6 2H4.40003C3.76004 2.00449 3.14796 2.26264 2.69804 2.7178C2.24812 3.17297 1.9971 3.788 2.00003 4.428V11.571C1.9971 12.2111 2.24809 12.8262 2.69798 13.2816C3.14787 13.7369 3.75995 13.9952 4.40003 14H9.50003V17H6.50003C6.36742 17 6.24024 17.0527 6.14647 17.1464C6.0527 17.2402 6.00003 17.3674 6.00003 17.5C6.00003 17.6326 6.0527 17.7598 6.14647 17.8536C6.24024 17.9473 6.36742 18 6.50003 18H13.5C13.6326 18 13.7598 17.9473 13.8536 17.8536C13.9473 17.7598 14 17.6326 14 17.5C14 17.3674 13.9473 17.2402 13.8536 17.1464C13.7598 17.0527 13.6326 17 13.5 17H10.5V14H15.6C16.2401 13.9952 16.8522 13.7369 17.3021 13.2816C17.752 12.8262 18.003 12.2111 18 11.571V4.428C18.003 3.788 17.7519 3.17297 17.302 2.7178C16.8521 2.26264 16.24 2.00449 15.6 2ZM17 11.571C17.0038 11.9461 16.8584 12.3074 16.5959 12.5753C16.3333 12.8433 15.9751 12.996 15.6 13H4.40003C4.02491 12.996 3.66672 12.8433 3.4042 12.5753C3.14167 12.3074 2.99629 11.9461 3.00003 11.571V4.428C2.99818 4.24231 3.03293 4.05807 3.10228 3.88581C3.17164 3.71355 3.27425 3.55663 3.40426 3.42403C3.53426 3.29143 3.68911 3.18573 3.85997 3.11297C4.03082 3.04022 4.21433 3.00183 4.40003 3H15.6C15.7857 3.00183 15.9692 3.04022 16.1401 3.11297C16.3109 3.18573 16.4658 3.29143 16.5958 3.42403C16.7258 3.55663 16.8284 3.71355 16.8978 3.88581C16.9671 4.05807 17.0019 4.24231 17 4.428V11.571Z" fill="white"/>
<path d="M9.99977 4.4375C7.27777 4.4375 4.99177 6.8665 4.36077 7.6055C4.26428 7.71347 4.21094 7.8532 4.21094 7.998C4.21094 8.1428 4.26428 8.28253 4.36077 8.3905C4.99277 9.1345 7.26777 11.5645 10.0038 11.5645C12.7398 11.5645 15.0128 9.1345 15.6438 8.3925C15.7385 8.28466 15.7907 8.14603 15.7907 8.0025C15.7907 7.85897 15.7385 7.72034 15.6438 7.6125C15.0058 6.8655 12.7238 4.4375 9.99977 4.4375ZM15.2618 8.0645C14.6618 8.7645 12.5128 11.0645 9.99977 11.0645C7.48677 11.0645 5.33477 8.7645 4.73377 8.0645C4.71768 8.04727 4.70872 8.02458 4.70872 8.001C4.70872 7.97742 4.71768 7.95473 4.73377 7.9375C5.33377 7.2375 7.48877 4.9375 9.99677 4.9375C12.5048 4.9375 14.6588 7.2375 15.2588 7.9375C15.274 7.95439 15.2824 7.97629 15.2824 7.999C15.2824 8.02171 15.274 8.04361 15.2588 8.0605" fill="white"/>
<path d="M10.002 6.04297C9.61447 6.04297 9.23568 6.15789 8.9135 6.37319C8.59133 6.58849 8.34024 6.8945 8.19199 7.25252C8.04375 7.61054 8.00502 8.00448 8.08068 8.38452C8.15635 8.76455 8.34303 9.11361 8.6171 9.38754C8.89117 9.66148 9.24033 9.84797 9.6204 9.92345C10.0005 9.99892 10.3944 9.95999 10.7523 9.81156C11.1103 9.66314 11.4162 9.41189 11.6313 9.0896C11.8464 8.76732 11.9612 8.38846 11.961 8.00097C11.9602 7.48175 11.7535 6.98403 11.3863 6.61698C11.019 6.24992 10.5212 6.0435 10.002 6.04297ZM10.002 8.64297C9.87543 8.64317 9.75168 8.60585 9.64634 8.53573C9.54101 8.46562 9.45882 8.36585 9.41017 8.24904C9.36152 8.13223 9.34858 8.00362 9.373 7.87946C9.39742 7.7553 9.4581 7.64117 9.54737 7.55148C9.63663 7.4618 9.75048 7.40059 9.87452 7.37559C9.99856 7.35058 10.1272 7.36292 10.2443 7.41102C10.3613 7.45912 10.4615 7.54084 10.5321 7.64585C10.6027 7.75085 10.6406 7.87443 10.641 8.00097C10.6407 8.17045 10.5733 8.33294 10.4536 8.45287C10.3338 8.57281 10.1715 8.64044 10.002 8.64097" fill="white"/>
</g>
</svg>
