<svg width="146" height="20" viewBox="0 0 146 20" fill="none" xmlns="http://www.w3.org/2000/svg">
<g clip-path="url(#clip0_641_2723)">
<mask id="mask0_641_2723" style="mask-type:luminance" maskUnits="userSpaceOnUse" x="0" y="0" width="146" height="20">
<path d="M145.539 0H0V20H145.539V0Z" fill="white"/>
</mask>
<g mask="url(#mask0_641_2723)">
<path d="M41.5494 5.00596C42.0328 5.00596 42.5054 4.8626 42.9074 4.594C43.3094 4.32541 43.6227 3.94365 43.8077 3.497C43.9927 3.05035 44.0411 2.55886 43.9468 2.0847C43.8525 1.61053 43.6197 1.17499 43.2778 0.833132C42.936 0.491279 42.5004 0.258474 42.0262 0.164157C41.5521 0.0698397 41.0606 0.118247 40.6139 0.303256C40.1673 0.488266 39.7855 0.801569 39.5169 1.20355C39.2483 1.60552 39.105 2.07812 39.105 2.56157C39.105 3.20986 39.3625 3.8316 39.8209 4.29001C40.2793 4.74842 40.9011 5.00596 41.5494 5.00596Z" fill="#0068E6"/>
<path d="M43.9938 7.4502H39.106V19.6703H43.9938V7.4502Z" fill="#0068E6"/>
</g>
<mask id="mask1_641_2723" style="mask-type:luminance" maskUnits="userSpaceOnUse" x="0" y="0" width="15" height="20">
<path d="M0 0.118164V9.8939C0.00043088 11.6098 0.452435 13.2954 1.3106 14.7814C2.16877 16.2673 3.40287 17.5012 4.88893 18.3591C6.37499 19.2171 8.06066 19.6688 9.77659 19.669C11.4925 19.6691 13.1783 19.2177 14.6645 18.3601V9.8939C14.6645 11.1904 14.1495 12.4337 13.2327 13.3505C12.316 14.2672 11.0726 14.7822 9.77619 14.7822C8.47972 14.7822 7.23636 14.2672 6.31962 13.3505C5.40289 12.4337 4.88787 11.1904 4.88787 9.8939V0.118164H0Z" fill="white"/>
</mask>
<g mask="url(#mask1_641_2723)">
<path d="M14.6645 0.118164H0V19.6705H14.6645V0.118164Z" fill="url(#paint0_linear_641_2723)"/>
</g>
<mask id="mask2_641_2723" style="mask-type:luminance" maskUnits="userSpaceOnUse" x="0" y="0" width="146" height="20">
<path d="M145.539 0H0V20H145.539V0Z" fill="white"/>
</mask>
<g mask="url(#mask2_641_2723)">
<path d="M29.3291 1.42589C27.8426 0.56852 26.1567 0.117188 24.4407 0.117188C22.7247 0.117188 21.0389 0.56852 19.5524 1.42589V0.11724H14.6646V19.6705H19.5524V9.89388C19.5524 8.59741 20.0674 7.35405 20.9842 6.43731C21.9009 5.52058 23.1443 5.00556 24.4407 5.00556C25.7372 5.00556 26.9806 5.52058 27.8973 6.43731C28.814 7.35405 29.3291 8.59741 29.3291 9.89388V19.6705H34.2169V9.89388C34.2173 8.17778 33.7658 6.49184 32.9077 5.00565C32.0497 3.51946 30.8154 2.28543 29.3291 1.4277" fill="#0068E6"/>
<path d="M63.6413 2.39214H57.5114V19.6785H55.0112V2.39214H48.8813V0.29541H63.6413V2.39214Z" fill="white"/>
<path d="M72.1103 8.22678C71.4649 8.22289 70.8207 8.28597 70.1883 8.41502C69.6231 8.52887 69.0759 8.71883 68.5617 8.97973C68.0512 9.26923 67.5925 9.64181 67.2044 10.0821C66.7879 10.538 66.496 11.0936 66.3569 11.6952C66.1901 12.4906 66.1092 13.3017 66.1155 14.1144V19.6795H63.7495V6.23723H66.1155V8.60326C66.723 7.83731 67.4826 7.20558 68.3465 6.7479C69.5057 6.14315 70.8042 5.85573 72.1103 5.9148V8.22678Z" fill="white"/>
<path d="M84.8277 19.6794H82.3806V18.1483C81.9027 18.5691 81.369 18.9218 80.7946 19.1966C80.2828 19.469 79.7352 19.6682 79.168 19.7884C78.4817 19.9235 77.7832 19.9866 77.0839 19.9766C76.6474 19.9617 76.2163 19.8756 75.8076 19.7217C75.3391 19.5641 74.8988 19.3324 74.5035 19.0354C74.1193 18.727 73.815 18.3307 73.6163 17.8799C73.4133 17.4041 73.3124 16.8911 73.32 16.374C73.2967 15.4183 73.6216 14.4868 74.2342 13.753C74.825 13.0395 75.6094 12.5119 76.493 12.2336C77.0797 12.0438 77.6827 11.9091 78.2944 11.831C78.8642 11.7481 79.4388 11.7029 80.0146 11.6959H82.3806V10.5926C82.3703 10.3244 82.3296 10.0582 82.2591 9.79916C82.1785 9.467 82.0375 9.15253 81.8429 8.87149C81.5808 8.54872 81.2438 8.29489 80.8612 8.13205C80.3559 7.91284 79.8086 7.80738 79.2581 7.82312C78.5463 7.80198 77.8444 7.99392 77.2424 8.37432C76.975 8.54409 76.7571 8.78135 76.6107 9.06218C76.4643 9.34301 76.3945 9.65748 76.4084 9.97389H73.674C73.6653 9.44086 73.7754 8.91259 73.9964 8.42746C74.2409 7.93425 74.599 7.50611 75.0412 7.17825C75.5905 6.77692 76.2042 6.47233 76.856 6.27759C77.6325 6.03028 78.4432 5.90747 79.2581 5.91373C80.7588 5.80863 82.2424 6.28532 83.4011 7.2449C83.8566 7.65206 84.2195 8.15217 84.4653 8.7115C84.7111 9.27083 84.834 9.87637 84.8259 10.4873L84.8277 19.6794ZM82.3806 14.5979V13.4684C81.9681 13.4684 81.4752 13.4732 80.9018 13.4829C80.1992 13.5032 79.4987 13.5703 78.805 13.6837C78.0869 13.7721 77.3978 14.0205 76.7885 14.4105C76.4911 14.5833 76.2435 14.8302 76.0699 15.1271C75.8963 15.424 75.8025 15.7608 75.7977 16.1047C75.7714 16.3894 75.8166 16.6762 75.9292 16.939C76.0418 17.2018 76.2183 17.4324 76.4426 17.6097C76.9366 17.9333 77.5198 18.0934 78.1097 18.0672C78.4672 18.051 78.822 17.9967 79.168 17.9051C79.5989 17.8066 80.018 17.6622 80.4181 17.4746C81.0937 17.1001 81.6664 16.5645 82.0852 15.9155C82.3016 15.5113 82.4038 15.0558 82.3806 14.5979Z" fill="white"/>
<path d="M96.9512 2.36511C96.5318 2.2117 96.1 2.09478 95.6605 2.01566C95.2165 1.94177 94.7669 1.90592 94.3168 1.90848C93.8949 1.88762 93.4735 1.95638 93.0802 2.11023C92.7705 2.26444 92.5098 2.50175 92.3272 2.79563C92.1834 3.06503 92.0837 3.35572 92.0318 3.65666C91.9731 4.02081 91.946 4.38934 91.9507 4.75816V6.23704H95.9569V8.14553H91.9507V19.6794H89.4505V8.14553H87.0034V6.23704H89.4496V5.26973C89.4484 4.66334 89.4784 4.0573 89.5397 3.45401C89.6052 2.8442 89.8125 2.25818 90.1449 1.74276C90.5037 1.21234 90.997 0.786814 91.5743 0.509758C92.4036 0.146121 93.3036 -0.0280279 94.2087 -1.40248e-05C94.704 -0.00304739 95.1988 0.0327887 95.6885 0.107164C96.1364 0.179217 96.5567 0.250669 96.9494 0.321521L96.9512 2.36511Z" fill="white"/>
<path d="M107.006 2.36511C106.587 2.2117 106.155 2.09478 105.716 2.01566C105.272 1.94177 104.822 1.90592 104.372 1.90848C103.95 1.88762 103.529 1.95638 103.135 2.11023C102.826 2.26444 102.565 2.50175 102.382 2.79563C102.239 3.06503 102.139 3.35572 102.087 3.65666C102.028 4.02081 102.001 4.38934 102.006 4.75816V6.23704H106.012V8.14553H102.006V19.6794H99.5058V8.14553H97.0596V6.23704H99.5058V5.26973C99.5045 4.66334 99.5346 4.0573 99.5958 3.45401C99.6614 2.8442 99.8687 2.25818 100.201 1.74276C100.56 1.21246 101.053 0.786947 101.63 0.509758C102.459 0.146121 103.359 -0.0280279 104.264 -1.40248e-05C104.759 -0.00304739 105.254 0.0327887 105.744 0.107164C106.192 0.179217 106.612 0.250669 107.005 0.321521L107.006 2.36511Z" fill="white"/>
<path d="M111.334 3.19913H108.403V0.29541H111.334V3.19913ZM111.146 19.6812H108.646V6.23705H111.141L111.146 19.6812Z" fill="white"/>
<path d="M125.987 10.646H123.406C123.416 9.92017 123.158 9.21634 122.68 8.66994C122.385 8.36856 122.027 8.13623 121.632 7.98968C121.237 7.84313 120.815 7.78601 120.395 7.82242C119.859 7.81249 119.328 7.92167 118.84 8.14207C118.352 8.36248 117.919 8.6886 117.572 9.09685C116.764 10.1125 116.362 11.3916 116.443 12.6869C116.443 13.079 116.475 13.4705 116.537 13.8577C116.602 14.2689 116.714 14.6709 116.873 15.0556C117.048 15.5447 117.307 15.9995 117.639 16.3994C118.047 16.876 118.545 17.2685 119.104 17.5549C119.428 17.6983 119.766 17.8064 120.113 17.8774C120.62 17.9901 121.139 18.0442 121.658 18.0386C122.232 18.0272 122.805 17.9691 123.37 17.8647C124.145 17.716 124.887 17.4289 125.56 17.0172V18.9798C124.736 19.4161 123.846 19.7157 122.926 19.8669C122.019 20.0109 121.098 20.0381 120.184 19.948C119.371 19.8699 118.577 19.6613 117.831 19.3301C117.129 19.0393 116.487 18.6199 115.939 18.0935C115.311 17.4456 114.814 16.683 114.474 15.8473C114.068 14.8353 113.871 13.7517 113.896 12.6617C113.884 11.7498 114.021 10.8423 114.3 9.97409C114.562 9.17686 115.003 8.45032 115.59 7.85034C116.163 7.23415 116.865 6.75196 117.646 6.43811C118.538 6.07747 119.494 5.89923 120.456 5.91393C121.181 5.90396 121.903 6.01288 122.593 6.23636C123.213 6.44324 123.797 6.74264 124.327 7.12441C124.815 7.52334 125.221 8.01262 125.524 8.56546C125.855 9.20851 126.017 9.92557 125.994 10.6487" fill="white"/>
</g>
<mask id="mask3_641_2723" style="mask-type:luminance" maskUnits="userSpaceOnUse" x="136" y="2" width="5" height="16">
<path d="M136.374 4.39432V15.3932C136.374 15.8794 136.567 16.3457 136.911 16.6895C137.255 17.0333 137.721 17.2264 138.207 17.2264C138.694 17.2264 139.16 17.0333 139.504 16.6895C139.847 16.3457 140.041 15.8794 140.041 15.3932V4.39432C140.041 3.90811 139.847 3.4418 139.504 3.09799C139.16 2.75418 138.694 2.56104 138.207 2.56104C137.721 2.56104 137.255 2.75418 136.911 3.09799C136.567 3.4418 136.374 3.90811 136.374 4.39432Z" fill="white"/>
</mask>
<g mask="url(#mask3_641_2723)">
<path d="M140.041 2.56152H136.374V17.226H140.041V2.56152Z" fill="url(#paint1_linear_641_2723)"/>
</g>
<mask id="mask4_641_2723" style="mask-type:luminance" maskUnits="userSpaceOnUse" x="0" y="0" width="146" height="20">
<path d="M145.539 0H0V20H145.539V0Z" fill="white"/>
</mask>
<g mask="url(#mask4_641_2723)">
<path d="M130.875 9.89387C130.875 9.40777 131.068 8.94158 131.411 8.59786C131.755 8.25414 132.221 8.06104 132.707 8.06104H143.706C144.192 8.06104 144.658 8.25414 145.002 8.59786C145.346 8.94158 145.539 9.40777 145.539 9.89387C145.539 10.38 145.346 10.8462 145.002 11.1899C144.658 11.5336 144.192 11.7267 143.706 11.7267H132.707C132.221 11.7267 131.755 11.5336 131.411 11.1899C131.068 10.8462 130.875 10.38 130.875 9.89387Z" fill="#27D4FF"/>
</g>
</g>
<defs>
<linearGradient id="paint0_linear_641_2723" x1="3.48531e-09" y1="20.0029" x2="14.6646" y2="20.0469" gradientUnits="userSpaceOnUse">
<stop offset="0.546875" stop-color="#0068E6"/>
<stop offset="1" stop-color="#0032A0"/>
</linearGradient>
<linearGradient id="paint1_linear_641_2723" x1="138.207" y1="2.56152" x2="138.207" y2="17.226" gradientUnits="userSpaceOnUse">
<stop stop-color="#27D4FF"/>
<stop offset="0.502" stop-color="#0082F0"/>
<stop offset="1" stop-color="#27D4FF"/>
</linearGradient>
<clipPath id="clip0_641_2723">
<rect width="145.539" height="20" fill="white"/>
</clipPath>
</defs>
</svg>
