<svg width="20" height="20" viewBox="0 0 20 20" fill="none" xmlns="http://www.w3.org/2000/svg">
<mask id="mask0_592_17814" style="mask-type:luminance" maskUnits="userSpaceOnUse" x="0" y="0" width="20" height="20">
<path d="M20 0H0V20H20V0Z" fill="white"/>
</mask>
<g mask="url(#mask0_592_17814)">
<path d="M17.5008 14C17.3682 14 17.241 14.0527 17.1473 14.1465C17.0535 14.2402 17.0008 14.3674 17.0008 14.5C16.956 15.1974 16.6411 15.85 16.1229 16.319C15.6048 16.788 14.9243 17.0366 14.2258 17.012C13.4782 17.012 12.7612 16.715 12.2325 16.1863C11.7038 15.6577 11.4068 14.9406 11.4068 14.193C11.4068 13.4454 11.7038 12.7283 12.2325 12.1997C12.7612 11.671 13.4782 11.374 14.2258 11.374C14.5991 11.3797 14.9696 11.4394 15.3258 11.551C15.4495 11.5937 15.5849 11.5862 15.7031 11.5302C15.8213 11.4742 15.9128 11.3741 15.9581 11.2514C16.0034 11.1287 15.9987 10.9931 15.9452 10.8738C15.8917 10.7545 15.7936 10.6608 15.6718 10.613C15.2054 10.4604 14.7185 10.3798 14.2278 10.374C13.2507 10.3769 12.3119 10.7546 11.6051 11.4293C10.8983 12.1039 10.4772 13.0241 10.4288 14H6.25082C4.22482 14 3.30082 12.7 3.30082 11.495C3.29928 11.1784 3.36152 10.8646 3.48385 10.5726C3.60618 10.2805 3.78608 10.016 4.01282 9.795C4.62462 9.24495 5.42912 8.95917 6.25082 9H14.5848C15.0034 9.03598 15.4249 8.98553 15.8231 8.85178C16.2213 8.71803 16.5878 8.50385 16.8998 8.22252C17.2118 7.94119 17.4626 7.59873 17.6367 7.2164C17.8108 6.83407 17.9045 6.42004 17.9118 6C17.9045 5.57997 17.8108 5.16593 17.6367 4.7836C17.4626 4.40127 17.2118 4.05882 16.8998 3.77749C16.5878 3.49616 16.2213 3.28198 15.8231 3.14823C15.4249 3.01448 15.0034 2.96403 14.5848 3H6.16882C6.04872 2.59717 5.78763 2.25103 5.4333 2.02487C5.07897 1.79871 4.65508 1.70765 4.23913 1.76834C3.82317 1.82902 3.44297 2.0374 3.16802 2.35537C2.89308 2.67334 2.74177 3.07965 2.74177 3.5C2.74177 3.92036 2.89308 4.32667 3.16802 4.64464C3.44297 4.9626 3.82317 5.17098 4.23913 5.23167C4.65508 5.29236 5.07897 5.2013 5.4333 4.97514C5.78763 4.74898 6.04872 4.40284 6.16882 4H14.5848C14.8714 3.96528 15.1621 3.99065 15.4383 4.0745C15.7146 4.15835 15.9703 4.29883 16.1892 4.487C16.4082 4.67517 16.5855 4.90689 16.7099 5.16739C16.8343 5.42789 16.9031 5.71145 16.9118 6C16.9031 6.28856 16.8343 6.57212 16.7099 6.83262C16.5855 7.09312 16.4082 7.32484 16.1892 7.51301C15.9703 7.70118 15.7146 7.84166 15.4383 7.92551C15.1621 8.00936 14.8714 8.03473 14.5848 8H6.25082C5.16768 7.95613 4.11139 8.34383 3.31382 9.078C2.9912 9.39212 2.73522 9.76805 2.56117 10.1833C2.38711 10.5986 2.29857 11.0447 2.30082 11.495C2.31374 11.99 2.4282 12.477 2.63711 12.9259C2.84601 13.3748 3.1449 13.776 3.51525 14.1046C3.8856 14.4333 4.31952 14.6823 4.79008 14.8363C5.26065 14.9903 5.75784 15.0461 6.25082 15H10.5008C10.6817 15.8535 11.1508 16.6187 11.8293 17.1672C12.5078 17.7157 13.3544 18.014 14.2268 18.012C15.1924 18.0444 16.1315 17.6932 16.8388 17.035C17.546 16.3769 17.9638 15.4654 18.0008 14.5C18.0008 14.3674 17.9481 14.2402 17.8544 14.1465C17.7606 14.0527 17.6334 14 17.5008 14ZM4.50082 4.25C4.35249 4.25 4.20748 4.20602 4.08415 4.12361C3.96081 4.0412 3.86468 3.92406 3.80791 3.78702C3.75115 3.64997 3.7363 3.49917 3.76523 3.35369C3.79417 3.2082 3.8656 3.07456 3.97049 2.96967C4.07538 2.86478 4.20902 2.79335 4.35451 2.76442C4.49999 2.73548 4.65079 2.75033 4.78784 2.80709C4.92488 2.86386 5.04201 2.95999 5.12443 3.08333C5.20684 3.20666 5.25082 3.35167 5.25082 3.5C5.2503 3.69875 5.17111 3.88921 5.03057 4.02975C4.89003 4.17029 4.69957 4.24948 4.50082 4.25Z" fill="white"/>
<path d="M17.1432 11.1529L14.2232 14.1529L13.5862 13.5149C13.5401 13.4672 13.4849 13.4291 13.4239 13.4029C13.3629 13.3767 13.2973 13.3629 13.2309 13.3623C13.1645 13.3617 13.0987 13.3744 13.0372 13.3995C12.9758 13.4247 12.92 13.4618 12.873 13.5087C12.8261 13.5557 12.7889 13.6115 12.7638 13.673C12.7387 13.7344 12.726 13.8002 12.7266 13.8666C12.7272 13.933 12.741 13.9986 12.7672 14.0596C12.7934 14.1206 12.8315 14.1758 12.8792 14.2219L13.8742 15.2219C13.9206 15.2685 13.9758 15.3055 14.0366 15.3307C14.0973 15.3559 14.1624 15.3689 14.2282 15.3689C14.2944 15.3685 14.3599 15.355 14.4209 15.329C14.4818 15.3031 14.537 15.2654 14.5832 15.2179L17.8572 11.8549C17.9032 11.8078 17.9394 11.7522 17.9639 11.6911C17.9883 11.63 18.0005 11.5647 17.9997 11.4989C17.9989 11.4331 17.9852 11.3681 17.9593 11.3077C17.9334 11.2472 17.8958 11.1924 17.8487 11.1464C17.8016 11.1005 17.746 11.0642 17.6849 11.0398C17.6238 11.0153 17.5585 11.0032 17.4927 11.0039C17.4269 11.0047 17.3619 11.0185 17.3014 11.0444C17.241 11.0703 17.1862 11.1078 17.1402 11.1549" fill="white"/>
</g>
</svg>
