<svg width="20" height="20" viewBox="0 0 20 20" fill="none" xmlns="http://www.w3.org/2000/svg">
<mask id="mask0_592_17811" style="mask-type:luminance" maskUnits="userSpaceOnUse" x="0" y="0" width="20" height="20">
<path d="M20 0H0V20H20V0Z" fill="white"/>
</mask>
<g mask="url(#mask0_592_17811)">
<path d="M8 8.875C8.46973 8.875 8.92891 8.73571 9.31948 8.47474C9.71005 8.21377 10.0145 7.84285 10.1942 7.40887C10.374 6.9749 10.421 6.49737 10.3294 6.03666C10.2377 5.57596 10.0115 5.15277 9.67938 4.82062C9.34723 4.48847 8.92404 4.26228 8.46334 4.17064C8.00264 4.079 7.5251 4.12603 7.09113 4.30579C6.65715 4.48555 6.28623 4.78996 6.02526 5.18052C5.76429 5.57109 5.625 6.03027 5.625 6.5C5.62553 7.12973 5.87592 7.73351 6.32121 8.1788C6.76649 8.62408 7.37027 8.87447 8 8.875ZM8 5.125C8.27195 5.125 8.53779 5.20564 8.76391 5.35673C8.99003 5.50782 9.16626 5.72256 9.27033 5.97381C9.3744 6.22506 9.40163 6.50153 9.34858 6.76825C9.29552 7.03497 9.16457 7.27998 8.97227 7.47227C8.77997 7.66457 8.53497 7.79553 8.26825 7.84858C8.00153 7.90164 7.72506 7.87441 7.47381 7.77034C7.22256 7.66627 7.00782 7.49003 6.85673 7.26391C6.70564 7.03779 6.625 6.77195 6.625 6.5C6.62553 6.13549 6.77056 5.78606 7.02831 5.52831C7.28606 5.27057 7.63549 5.12553 8 5.125Z" fill="white"/>
<path d="M8 9.625C7.53027 9.625 7.07109 9.76429 6.68052 10.0253C6.28996 10.2862 5.98555 10.6572 5.80579 11.0911C5.62603 11.5251 5.579 12.0026 5.67064 12.4633C5.76228 12.924 5.98847 13.3472 6.32062 13.6794C6.65277 14.0115 7.07596 14.2377 7.53666 14.3294C7.99737 14.421 8.4749 14.374 8.90887 14.1942C9.34285 14.0145 9.71377 13.71 9.97474 13.3195C10.2357 12.9289 10.375 12.4697 10.375 12C10.3745 11.3703 10.1241 10.7665 9.6788 10.3212C9.23351 9.87592 8.62973 9.62553 8 9.625ZM8 13.375C7.72805 13.375 7.46221 13.2944 7.23609 13.1433C7.00997 12.9922 6.83374 12.7774 6.72967 12.5262C6.6256 12.2749 6.59837 11.9985 6.65142 11.7318C6.70448 11.465 6.83543 11.22 7.02773 11.0277C7.22003 10.8354 7.46503 10.7045 7.73175 10.6514C7.99848 10.5984 8.27494 10.6256 8.52619 10.7297C8.77744 10.8337 8.99218 11.01 9.14327 11.2361C9.29436 11.4622 9.375 11.7281 9.375 12C9.37447 12.3645 9.22944 12.7139 8.97169 12.9717C8.71394 13.2294 8.36451 13.3745 8 13.375Z" fill="white"/>
<path d="M17.5 14C17.3674 14 17.2402 14.0527 17.1464 14.1464C17.0527 14.2402 17 14.3674 17 14.5C17.0314 14.8845 16.9816 15.2712 16.8538 15.6352C16.726 15.9992 16.5232 16.3322 16.2584 16.6127C15.9937 16.8933 15.6729 17.115 15.3169 17.2635C14.9609 17.4121 14.5776 17.4841 14.192 17.475C13.8218 17.4749 13.4552 17.4018 13.1132 17.2599C12.7712 17.1181 12.4606 16.9102 12.199 16.6482C11.9373 16.3862 11.7299 16.0753 11.5886 15.7331C11.4472 15.3909 11.3746 15.0242 11.375 14.654C11.3769 13.9061 11.6753 13.1894 12.205 12.6613C12.7346 12.1332 13.4521 11.8367 14.2 11.837C14.5862 11.8363 14.971 11.8826 15.346 11.975C15.472 12.0169 15.6094 12.007 15.7282 11.9476C15.8469 11.8881 15.9371 11.784 15.979 11.658C16.0209 11.532 16.011 11.3946 15.9516 11.2758C15.8921 11.1571 15.788 11.0669 15.662 11.025C15.1847 10.9001 14.6934 10.8369 14.2 10.837C13.7913 10.842 13.3861 10.9129 13 11.047V2.5C13 2.36739 12.9473 2.24021 12.8536 2.14645C12.7598 2.05268 12.6326 2 12.5 2H3.5C3.36739 2 3.24021 2.05268 3.14645 2.14645C3.05268 2.24021 3 2.36739 3 2.5V16.5C3 16.6326 3.05268 16.7598 3.14645 16.8536C3.24021 16.9473 3.36739 17 3.5 17H11.2C11.2903 17.1239 11.3878 17.2425 11.492 17.355C11.8455 17.7111 12.2662 17.9934 12.7297 18.1857C13.1932 18.378 13.6902 18.4763 14.192 18.475C14.7098 18.4874 15.2245 18.3918 15.7033 18.1942C16.182 17.9966 16.6143 17.7013 16.9726 17.3273C17.3309 16.9533 17.6074 16.5087 17.7842 16.0219C17.9611 15.5351 18.0346 15.0168 18 14.5C18 14.3674 17.9473 14.2402 17.8536 14.1464C17.7598 14.0527 17.6326 14 17.5 14ZM4 16V3H12V11.541C11.3042 12.0225 10.7906 12.7241 10.5417 13.5329C10.2928 14.3416 10.3232 15.2106 10.628 16H4Z" fill="white"/>
<path d="M13.5505 13.9741C13.4562 13.883 13.3299 13.8326 13.1988 13.8337C13.0677 13.8349 12.9423 13.8875 12.8496 13.9802C12.7569 14.0729 12.7043 14.1983 12.7031 14.3294C12.702 14.4605 12.7524 14.5868 12.8435 14.6811L13.8435 15.6811C13.9372 15.7748 14.0644 15.8275 14.197 15.8275C14.3296 15.8275 14.4567 15.7748 14.5505 15.6811L17.8685 12.3591C17.9596 12.2648 18.01 12.1385 18.0088 12.0074C18.0077 11.8763 17.9551 11.7509 17.8624 11.6582C17.7697 11.5655 17.6443 11.5129 17.5132 11.5117C17.3821 11.5106 17.2558 11.561 17.1615 11.6521L14.1975 14.6211L13.5505 13.9741Z" fill="white"/>
</g>
</svg>
