<svg width="180" height="40" viewBox="0 0 180 40" fill="none" xmlns="http://www.w3.org/2000/svg">
<path d="M19.7793 26.9086C19.6734 26.8879 19.5662 26.8749 19.4585 26.8696L19.7793 26.9086Z" fill="#40B1C6"/>
<path d="M7.13731 26.2707C6.53178 26.6719 6.03858 27.2209 5.70433 27.8658C5.37008 28.5107 5.20583 29.2302 5.2271 29.9563C5.21696 30.6427 5.38827 31.3197 5.72369 31.9186C6.05911 32.5176 6.54676 33.0174 7.13731 33.3674C7.47315 33.5603 7.8331 33.7078 8.20774 33.806C8.43553 33.8616 8.66666 33.9026 8.8997 33.9286V31.7983C8.62497 31.6581 8.38773 31.4543 8.20774 31.2038C7.90117 30.7508 7.74827 30.2112 7.77161 29.6647C7.75551 29.2566 7.83962 28.8508 8.0166 28.4827C8.19357 28.1146 8.45801 27.7954 8.78681 27.5531C8.82268 27.5237 8.86039 27.4965 8.8997 27.4719V25.3984C8.65605 25.4797 8.43109 25.5731 8.20774 25.6665C7.83157 25.8315 7.47296 26.0339 7.13731 26.2707ZM9.65502 12.9731V11.0312H0V29.1043H2.34066V21.3019H8.8997V19.3876H2.34066V12.9715L9.65502 12.9731Z" fill="#0A57A4"/>
<path d="M21.4056 13.368C20.63 13.8064 19.9869 14.4458 19.5441 15.2189V12.94H17.2457V25.0494C16.916 25.0047 16.5537 24.9519 16.1558 24.9129C16.1144 22.2563 15.1 19.5339 11.2235 19.3853H8.8999V21.2996L11.2235 21.3061C13.2726 21.4685 13.6218 23.4397 13.6218 24.4735V24.7635C12.8204 24.7587 12.0195 24.8032 11.2235 24.8967C10.434 24.9848 9.65553 25.1527 8.8999 25.3978V27.4794C9.62371 27.0786 10.4089 26.8003 11.2235 26.6558C12.0372 26.5419 12.8592 26.4987 13.6803 26.5267V28.9469C13.6803 30.3463 12.6131 32.0892 10.1247 32.0892C9.69912 32.0934 9.2789 31.9944 8.8999 31.8009V33.9312C9.81962 34.0867 10.7646 33.9775 11.6246 33.6165C12.4847 33.2554 13.2244 32.6573 13.7575 31.8918H13.8452L14.0888 33.6469H16.358C16.2123 32.5377 16.1452 31.4195 16.1574 30.3008V26.6542C17.4179 26.7281 19.7196 26.8897 19.7813 26.906V18.4806C19.7883 17.8646 19.9387 17.2587 20.2207 16.711C20.5026 16.1633 20.9083 15.6889 21.4056 15.3253C21.9312 14.956 22.5508 14.7434 23.1924 14.7121V12.7134C22.5631 12.8256 21.9584 13.0471 21.4056 13.368Z" fill="#41B6C8"/>
<path d="M38.3369 12.3136L38.9192 14.0192C40.0123 13.3294 41.2815 12.9704 42.574 12.9853H42.6917V11.1108C41.1614 11.1346 39.6625 11.5486 38.3369 12.3136Z" fill="#6EBB20"/>
<path d="M42.6949 18.5194V16.7327C41.7605 16.8015 40.852 17.0717 40.0317 17.5247C39.2115 17.9776 38.4989 18.6026 37.9429 19.3568H34.9428V16.0626L32.4673 16.8415V19.3592H29.1317V18.5738C29.1317 12.0221 23.3036 12.7035 23.1899 12.7197V14.7185C24.2311 14.6568 26.5872 14.5942 26.5872 18.8605V26.9066H29.1317V21.2824H32.4673V28.946C32.4673 30.5947 32.7475 31.8332 33.4419 32.6056C33.7975 32.9664 34.2251 33.2483 34.6967 33.4331C35.1684 33.618 35.6737 33.7016 36.1797 33.6785C36.9461 33.6881 37.7089 33.5704 38.4367 33.3301L38.323 31.3987C37.8448 31.5312 37.3489 31.589 36.853 31.5701C35.4423 31.5701 34.9452 30.5955 34.9452 28.8615V21.2824H37.3695C37.3685 21.6851 37.3905 22.0875 37.4353 22.4877C37.623 23.4425 38.1529 24.2959 38.9255 24.8876C39.6981 25.4792 40.6602 25.7683 41.631 25.7006C41.989 25.6967 42.3461 25.6619 42.6981 25.5966V23.7993C41.6245 23.9162 39.8954 23.5678 39.8954 21.4018C39.8921 19.7198 41.1104 18.8955 42.6949 18.5194Z" fill="#6EBB20"/>
<path d="M58.7529 13.8778H58.7789C58.9967 13.8853 59.2137 13.8479 59.4164 13.768C59.6192 13.6882 59.8033 13.5675 59.9575 13.4136C60.1117 13.2596 60.2327 13.0756 60.3128 12.873C60.393 12.6703 60.4307 12.4534 60.4235 12.2356C60.4316 12.0209 60.3953 11.8068 60.3167 11.6069C60.2382 11.4069 60.1191 11.2253 59.967 11.0735C59.815 10.9218 59.6331 10.8031 59.433 10.7249C59.2329 10.6468 59.0187 10.6108 58.8041 10.6194C58.3764 10.6193 57.9658 10.7873 57.6609 11.0872C57.356 11.3872 57.1813 11.795 57.1745 12.2226C57.1677 12.6502 57.3293 13.0634 57.6245 13.3729C57.9196 13.6824 58.3246 13.8635 58.7521 13.877L58.7529 13.8778Z" fill="#F50003"/>
<path d="M71.3665 30.2771V25.0476C71.3665 22.2553 70.3318 19.3965 66.033 19.3454C63.9788 19.4341 61.983 20.0554 60.2415 21.1484V15.2683H60.0482V15.2618H56.2846C55.9419 14.0176 55.0046 13.1502 53.5054 12.4761V15.2521C53.8383 15.6267 54.0129 16.1157 53.9927 16.6165C54.0043 17.1022 53.83 17.574 53.5054 17.9354V20.272C54.1739 20.0861 54.7831 19.7307 55.274 19.2403C55.7649 18.7498 56.1208 18.1409 56.3073 17.4725H57.7067V26.8636H60.2415V23.4622C61.7544 22.1445 63.6575 21.3588 65.6594 21.2255C68.5174 21.193 68.8269 23.3039 68.8269 24.4547V24.743C63.4357 24.713 60.4331 26.559 60.4331 29.9368C60.4282 30.4868 60.5373 31.0319 60.7537 31.5377C60.97 32.0434 61.2888 32.4988 61.69 32.8751C62.0912 33.2515 62.5661 33.5405 63.0846 33.7241C63.6031 33.9076 64.1541 33.9817 64.7027 33.9416C65.5288 33.9628 66.348 33.7853 67.0912 33.4241C67.8345 33.0628 68.4801 32.5284 68.9739 31.8657H69.064L69.2865 33.624H71.5655C71.4202 32.5145 71.3537 31.396 71.3665 30.2771ZM68.6863 28.92C68.6863 29.5762 68.3209 32.0647 65.1348 32.0647C64.8137 32.0866 64.4917 32.0385 64.191 31.9239C63.8903 31.8092 63.618 31.6307 63.393 31.4006C63.1681 31.1705 62.9957 30.8943 62.8878 30.5911C62.7799 30.2879 62.739 29.9649 62.7681 29.6444C62.7681 26.9285 65.9096 26.4437 68.6863 26.4989V28.92Z" fill="#F50003"/>
<path d="M51.3119 18.6951C50.2583 18.6612 49.2257 18.3917 48.2898 17.9065V16.8166C48.2898 14.1023 47.3071 11.2735 43.3048 11.1119C43.1886 11.1046 42.7842 11.1046 42.6948 11.1119V12.9864C42.8988 12.9907 43.1024 13.0059 43.3048 13.0319C45.4806 13.3421 45.7453 15.1646 45.7453 16.2156V16.5023C44.9298 16.4951 44.1147 16.5395 43.3048 16.6355C43.1017 16.6574 42.8987 16.6931 42.6948 16.7289V18.5156C42.9011 18.4677 43.1009 18.4287 43.3048 18.3995C44.1323 18.2791 44.9688 18.2316 45.8046 18.2574V20.6817C45.8066 21.3956 45.5572 22.0875 45.1001 22.6359C44.643 23.1843 44.0074 23.5543 43.3048 23.681C43.1054 23.7382 42.9013 23.7768 42.6948 23.7963V25.5936C42.9076 25.5514 43.1115 25.5043 43.3048 25.4483C44.3466 25.1446 45.2568 24.5007 45.8899 23.6193H45.9841L46.2107 25.3744H48.4929C48.3445 24.2686 48.2763 23.1536 48.289 22.038V20.0595C49.2362 20.4169 50.2411 20.5964 51.2534 20.5891C52.0144 20.5808 52.7709 20.4715 53.5031 20.2642V17.9301C52.8942 18.4504 52.1123 18.7234 51.3119 18.6951Z" fill="#FE7112"/>
<path d="M51.7773 7.95C52.0023 7.90191 52.2318 7.87795 52.4619 7.87853C52.8122 7.87878 53.1614 7.9158 53.5039 7.98899V6.06172C53.1779 6.02134 52.8498 6.00073 52.5212 6C52.2725 6.00202 52.0241 6.01828 51.7773 6.04873C49.249 6.32649 47.7051 8.04665 47.7051 10.099C47.7051 11.7712 48.8876 13.1284 51.4224 14.0534C51.5523 14.1022 51.666 14.1436 51.7781 14.1891C52.4235 14.4115 53.0127 14.7718 53.5048 15.2449V12.4713C53.2691 12.3588 53.0273 12.2598 52.7803 12.1749C52.4027 12.0287 52.0729 11.889 51.7781 11.7599C50.6638 11.2368 50.1538 10.7195 50.1538 9.78144C50.1587 9.3319 50.3256 8.89921 50.6238 8.5628C50.922 8.22639 51.3316 8.00881 51.7773 7.95Z" fill="#FE7112"/>
<path d="M55.9152 6.86719C55.18 6.4256 54.3569 6.15058 53.5039 6.06152V7.98879C54.1425 8.11716 54.7554 8.35072 55.3175 8.67994L55.9152 6.86719Z" fill="#F50003"/>
<path d="M85.0429 23.5718V27.3646H92.5299V29.0002H83.2358V23.5718H85.0429Z" fill="white"/>
<path d="M88.1576 19.5914C87.6983 19.6243 87.2168 19.6687 86.7183 19.698L86.7788 13.8405H88.1576V12.2661H79.9022V13.8405H81.313L81.3423 19.8259H79.5654V21.4314H82.03C82.994 21.4314 84.2316 21.4003 85.7544 21.3194C87.3065 21.251 88.5281 21.1604 89.4317 21.0707V19.4768C89.0408 19.5176 88.6205 19.547 88.1576 19.5914ZM85.0481 19.7584C84.6865 19.7735 84.3311 19.7735 83.9819 19.7877C83.6328 19.802 83.3262 19.8179 83.0251 19.8259L82.9931 13.8405H85.1058L85.0481 19.7584Z" fill="white"/>
<path d="M94.6557 16.4043V18.0551H92.2666V24.3382H90.4897V11.4663H92.2666V16.4043H94.6557Z" fill="white"/>
<path d="M103.076 16.3823V17.9638H98.1811V20.6931L99.9225 20.6638C100.722 20.654 101.579 20.6096 102.506 20.5492C103.45 20.4817 104.406 20.3768 105.409 20.2489V21.7957C104.384 21.96 103.262 22.096 102.033 22.1724C100.797 22.2301 99.8301 22.2772 99.1371 22.2772H96.4131V12.355H103.227V13.9995H98.1811V16.3823H103.076Z" fill="white"/>
<path d="M110.569 16.5999V18.1991H108.203V26.5443H106.412V11.4966H108.206V16.5999H110.569Z" fill="white"/>
<path d="M112.508 14.1495V12.4614H120.592V14.1495H117.429C117.45 14.8903 117.526 15.6285 117.655 16.3582C117.775 17.0086 117.991 17.6375 118.297 18.2239C118.613 18.8286 119.025 19.3783 119.517 19.8516C120.096 20.4354 120.736 20.956 121.426 21.4046L120.36 22.6564C119.952 22.4082 119.561 22.1315 119.192 21.8284C118.81 21.5194 118.447 21.1868 118.107 20.8324C117.782 20.4859 117.502 20.1216 117.218 19.7663C116.961 19.4166 116.734 19.0453 116.54 18.6566C116.368 19.0521 116.156 19.4289 115.907 19.7814C115.644 20.1592 115.356 20.5192 115.045 20.8591C114.338 21.6302 113.539 22.3112 112.666 22.8865L111.594 21.6889C112.337 21.147 113.024 20.5328 113.645 19.8551C114.149 19.2991 114.565 18.6701 114.881 17.9894C115.139 17.4278 115.322 16.834 115.423 16.224C115.538 15.542 115.588 14.8507 115.575 14.1592L112.508 14.1495Z" fill="white"/>
<path d="M124.672 11.4966H122.856V26.5576H124.672V11.4966Z" fill="white"/>
<path d="M134.879 13.5623C134.501 13.1306 134.033 12.7858 133.509 12.5515C132.985 12.3172 132.416 12.1989 131.842 12.2048C131.273 12.1992 130.71 12.3178 130.192 12.5522C129.673 12.7867 129.213 13.1314 128.841 13.5623C128.027 14.4524 127.575 15.6154 127.575 16.8221C127.575 18.0288 128.027 19.1917 128.841 20.0818C129.213 20.5118 129.674 20.8554 130.192 21.0886C130.71 21.3217 131.273 21.4387 131.842 21.4314C132.415 21.4388 132.984 21.322 133.508 21.0891C134.032 20.8561 134.5 20.5125 134.879 20.0818C135.681 19.1852 136.124 18.0247 136.124 16.8221C136.124 15.6194 135.681 14.4589 134.879 13.5623ZM133.576 18.8611C133.371 19.1247 133.107 19.3374 132.807 19.4827C132.506 19.628 132.176 19.702 131.842 19.6989C131.509 19.6982 131.182 19.6225 130.883 19.4774C130.584 19.3323 130.321 19.1217 130.115 18.8611C129.637 18.2953 129.384 17.5732 129.405 16.8327C129.385 16.0862 129.638 15.358 130.115 14.784C130.318 14.519 130.579 14.3047 130.879 14.1581C131.179 14.0114 131.508 13.9365 131.842 13.939C132.177 13.9327 132.509 14.0059 132.81 14.1528C133.112 14.2997 133.374 14.516 133.576 14.784C134.048 15.3601 134.294 16.0883 134.269 16.8327C134.295 17.5707 134.048 18.2925 133.576 18.8602V18.8611Z" fill="white"/>
<path d="M142.425 16.5474V18.1307H140.045V26.5434H138.268V11.4966H140.045V16.5474H142.425Z" fill="white"/>
<path d="M148.486 23.0119V21.4509H163.59V23.0119H157.015V27.2552H155.072V23.0119H148.486ZM153.195 11.9951V14.2784H158.803V11.9951H160.62V19.7246H151.412V11.9951H153.195ZM153.195 18.161H158.803V15.8386H153.195V18.161Z" fill="white"/>
<path d="M165.251 14.7395V13.1252H168.44V11H170.332V13.1252H173.55V14.7395H170.301V14.7892C170.288 15.3964 170.378 16.0014 170.568 16.5786C170.744 17.12 171.012 17.6271 171.36 18.0783C171.706 18.5705 172.116 19.0142 172.579 19.3976C173.08 19.8129 173.615 20.1856 174.178 20.5117L173.29 21.8391C172.896 21.6565 172.522 21.4331 172.174 21.1727C171.789 20.8893 171.404 20.5775 171.045 20.2559C170.72 19.939 170.412 19.6044 170.124 19.2537C169.879 18.9337 169.654 18.5984 169.452 18.2497C169.278 18.5859 169.079 18.9082 168.856 19.2137C168.6 19.546 168.344 19.8934 168.044 20.2185C167.674 20.6132 167.275 20.9808 166.852 21.3184C166.464 21.6397 166.056 21.9364 165.631 22.2069L164.5 20.9711C165.092 20.5799 165.654 20.1445 166.181 19.6686C166.686 19.2181 167.121 18.6943 167.471 18.1147C167.786 17.6381 168.034 17.1207 168.209 16.5768C168.379 15.9939 168.466 15.3895 168.465 14.7821V14.7377L165.251 14.7395ZM170.648 23.5716V27.3501H178.338V28.9849H168.854V23.5716H170.648ZM176.152 11.4673H177.947V24.3427H176.152V17.7087H173.062V16.1637H176.152V11.4673Z" fill="white"/>
</svg>
