<svg width="128" height="40" viewBox="0 0 128 40" fill="none" xmlns="http://www.w3.org/2000/svg">
<mask id="mask0_453_10315" style="mask-type:luminance" maskUnits="userSpaceOnUse" x="0" y="6" width="128" height="28">
<path d="M127.574 6H0V34H127.574V6Z" fill="white"/>
</mask>
<g mask="url(#mask0_453_10315)">
<path d="M12.5416 26.7798C14.547 28.0654 16.866 28.7776 19.2473 28.8393C21.6286 28.901 23.9813 28.3099 26.0506 27.1299C24.751 29.3269 22.8755 31.1267 20.6268 32.3348C18.3782 33.5428 15.842 34.113 13.2927 33.9837C10.7434 33.8544 8.27792 33.0305 6.16304 31.6012C4.04815 30.1718 2.36434 28.1914 1.29373 25.8742C0.223121 23.5569 -0.193524 20.9911 0.0888601 18.4541C0.371245 15.9172 1.34191 13.5058 2.89586 11.4807C4.44981 9.45558 6.52789 7.89392 8.90532 6.9646C11.2827 6.03529 13.869 5.77371 16.3844 6.20815C17.2699 6.39734 18.1085 6.76201 18.8507 7.28065C19.5929 7.79928 20.2237 8.46136 20.7058 9.2278C21.2928 10.2095 21.7247 11.276 21.9864 12.3895L21.992 12.4175C22.346 14.0621 22.3319 15.7647 21.9506 17.4032C21.4287 19.9422 20.0077 22.2075 17.949 23.7825L17.9389 23.7937C18.5237 23.1868 18.9603 22.4529 19.2146 21.6493C19.4689 20.8458 19.5341 19.9944 19.405 19.1615C19.2759 18.3286 18.9561 17.5368 18.4704 16.848C17.9848 16.1591 17.3465 15.5919 16.6055 15.1904C15.8644 14.789 15.0405 14.5643 14.1983 14.5338C13.356 14.5033 12.5181 14.668 11.7499 15.0148C10.9818 15.3617 10.3042 15.8814 9.7701 16.5333C9.23598 17.1853 8.85977 17.9519 8.67084 18.7733C8.47287 19.5908 8.45266 20.4413 8.61157 21.2673C8.86842 22.4008 9.34816 23.4719 10.0229 24.4183C10.6976 25.3647 11.5537 26.1674 12.5416 26.7798Z" fill="#005FAE"/>
<path d="M11.3448 24.8026C12.2188 25.2635 13.1499 25.6068 14.1139 25.8236C15.748 26.1968 17.4438 26.2083 19.0828 25.8575C20.7217 25.5067 22.2642 24.802 23.6024 23.7927L23.6191 23.777C25.6 22.3706 27.0943 20.3826 27.8947 18.0889C28.1702 19.9152 28.0508 21.7793 27.5447 23.5556C26.188 25.1736 24.4074 26.3816 22.4024 27.044C20.3975 27.7063 18.2477 27.7969 16.1941 27.3055C14.3932 26.8886 12.7248 26.0287 11.3403 24.8037" fill="#00979B"/>
<path d="M14.7805 25.4092C17.3839 25.5521 19.9579 24.8011 22.076 23.2806C24.1941 21.7601 25.729 19.5615 26.4263 17.0492C26.6382 16.1684 26.7681 15.2698 26.8144 14.3651C25.8831 12.2649 24.4577 10.4212 22.6595 8.99121C23.4176 10.4838 23.8401 12.1241 23.8976 13.7971C23.955 15.4702 23.646 17.1355 22.9921 18.6766C22.3383 20.2177 21.3554 21.5971 20.1123 22.7184C18.8693 23.8396 17.3961 24.6756 15.796 25.1676C15.4615 25.2708 15.1203 25.3512 14.7749 25.408L14.7805 25.4092Z" fill="#00979B"/>
<path d="M51.1237 11.7471H48.812V21.8394H51.1237V11.7471Z" fill="white"/>
<path d="M127.573 11.7446H125.262V28.6748H127.573V11.7446Z" fill="white"/>
<path d="M67.4274 11.7402V14.9735H64.0532V16.9463H67.4274V21.8404H69.7425V11.7402H67.4274Z" fill="white"/>
<path d="M63.942 20.9048L60.1484 14.4629H63.3526V12.4934H59.8599V11.1592H57.547V12.4934H54.0677V14.4663H57.2462L53.4526 20.9082H55.9511L58.6956 16.2467L61.4424 20.9082L63.942 20.9048Z" fill="white"/>
<path d="M124.301 23.7512L118.408 12.3022H115.82L109.926 23.7512H112.49L117.115 14.7694L121.74 23.7512H124.301Z" fill="white"/>
<path d="M93.1216 22.3555V24.3272H106.153V28.633H108.464L108.458 22.3566L93.1216 22.3555Z" fill="white"/>
<path d="M38.718 22.7002H36.4062V28.253H51.2294V26.2813H38.718V22.7002Z" fill="white"/>
<path d="M69.6453 26.282H56.9057V22.7031H54.5918V28.2582H69.6453V26.282Z" fill="white"/>
<path d="M102.53 11.8525V13.831H106.153V17.0497H102.53V19.0225H106.153V21.4181H108.463V11.8525H102.53Z" fill="white"/>
<path d="M86.2388 11.8581L86.2466 21.3231H88.5528V13.8298H90.1811V11.8525L86.2388 11.8581Z" fill="white"/>
<path d="M72.5467 14.0113H81.448V18.401H77.7372V15.5357H75.4243V18.3965H72.1396V20.3682H83.7586V12.0317H72.5478L72.5467 14.0113Z" fill="white"/>
<path d="M39.8414 11.7764C38.8878 11.7764 37.9557 12.0591 37.1628 12.5889C36.3699 13.1187 35.752 13.8717 35.387 14.7527C35.0221 15.6337 34.9266 16.6031 35.1127 17.5383C35.2987 18.4736 35.7579 19.3327 36.4321 20.007C37.1064 20.6813 37.9655 21.1404 38.9008 21.3265C39.836 21.5125 40.8054 21.417 41.6864 21.0521C42.5674 20.6872 43.3204 20.0692 43.8502 19.2764C44.38 18.4835 44.6628 17.5513 44.6628 16.5977C44.6629 15.9646 44.5383 15.3375 44.2961 14.7525C44.0538 14.1675 43.6987 13.6359 43.251 13.1882C42.8032 12.7405 42.2716 12.3853 41.6866 12.1431C41.1016 11.9008 40.4746 11.7762 39.8414 11.7764ZM39.8414 19.2908C39.3091 19.2904 38.7888 19.1321 38.3464 18.8361C37.904 18.54 37.5593 18.1194 37.3559 17.6275C37.1525 17.1356 37.0995 16.5944 37.2037 16.0723C37.3078 15.5503 37.5644 15.0708 37.9409 14.6946C38.3175 14.3183 38.7972 14.0622 39.3193 13.9585C39.8414 13.8548 40.3825 13.9082 40.8743 14.112C41.3661 14.3158 41.7864 14.6609 42.0821 15.1035C42.3778 15.5462 42.5356 16.0665 42.5356 16.5989C42.5354 16.9525 42.4657 17.3027 42.3302 17.6294C42.1947 17.9561 41.9962 18.2529 41.746 18.5028C41.4958 18.7528 41.1989 18.9511 40.8721 19.0863C40.5453 19.2215 40.195 19.291 39.8414 19.2908Z" fill="white"/>
<path d="M96.7065 11.5342C95.7531 11.5342 94.8212 11.8169 94.0285 12.3465C93.2358 12.8762 92.618 13.629 92.2532 14.5098C91.8883 15.3906 91.7929 16.3598 91.9788 17.2948C92.1648 18.2299 92.6239 19.0888 93.2981 19.7629C93.9722 20.437 94.8311 20.8961 95.7661 21.0821C96.7011 21.2681 97.6704 21.1726 98.5512 20.8078C99.4319 20.4429 100.185 19.8251 100.714 19.0324C101.244 18.2397 101.527 17.3078 101.527 16.3544C101.526 15.0761 101.019 13.8502 100.115 12.9463C99.2107 12.0424 97.9848 11.5345 96.7065 11.5342ZM96.7065 19.0475C96.1738 19.0477 95.653 18.89 95.21 18.5942C94.767 18.2984 94.4216 17.8779 94.2176 17.3858C94.0136 16.8937 93.9601 16.3522 94.0639 15.8297C94.1677 15.3072 94.4241 14.8273 94.8007 14.4505C95.1773 14.0738 95.6571 13.8172 96.1796 13.7132C96.702 13.6092 97.2435 13.6625 97.7357 13.8663C98.2279 14.0701 98.6486 14.4152 98.9445 14.8581C99.2405 15.301 99.3985 15.8218 99.3985 16.3544C99.3985 17.0685 99.1149 17.7533 98.6101 18.2583C98.1053 18.7634 97.4205 19.0472 96.7065 19.0475Z" fill="white"/>
<path d="M84.5849 19.1499C83.6315 19.1499 82.6996 19.4326 81.907 19.9623C81.1143 20.4919 80.4964 21.2447 80.1316 22.1255C79.7667 23.0063 79.6713 23.9755 79.8573 24.9105C80.0433 25.8456 80.5024 26.7045 81.1765 27.3786C81.8506 28.0527 82.7095 28.5118 83.6445 28.6978C84.5796 28.8838 85.5487 28.7883 86.4295 28.4235C87.3103 28.0587 88.0631 27.4408 88.5928 26.6482C89.1224 25.8555 89.4052 24.9235 89.4052 23.9702C89.4055 23.3371 89.281 22.7101 89.0389 22.1252C88.7967 21.5402 88.4417 21.0087 87.994 20.5611C87.5463 20.1134 87.0149 19.7584 86.4299 19.5162C85.845 19.2741 85.218 19.1496 84.5849 19.1499ZM84.5849 26.6632C84.0523 26.663 83.5318 26.5049 83.089 26.2088C82.6463 25.9128 82.3013 25.4921 82.0976 25C81.8939 24.5079 81.8408 23.9664 81.9448 23.4441C82.0489 22.9217 82.3054 22.442 82.6821 22.0655C83.0588 21.6889 83.5387 21.4326 84.0611 21.3287C84.5834 21.2249 85.1248 21.2783 85.6169 21.4822C86.1089 21.686 86.5294 22.0312 86.8253 22.4741C87.1212 22.9169 87.2791 23.4376 87.2791 23.9702C87.2791 24.3239 87.2095 24.6742 87.074 25.001C86.9386 25.3278 86.7401 25.6248 86.4899 25.8748C86.2397 26.1249 85.9427 26.3233 85.6159 26.4586C85.289 26.5938 84.9387 26.6634 84.5849 26.6632Z" fill="white"/>
</g>
</svg>
