<svg width="20" height="20" viewBox="0 0 20 20" fill="none" xmlns="http://www.w3.org/2000/svg">
<mask id="mask0_592_17817" style="mask-type:luminance" maskUnits="userSpaceOnUse" x="0" y="0" width="20" height="20">
<path d="M20 0H0V20H20V0Z" fill="white"/>
</mask>
<g mask="url(#mask0_592_17817)">
<path d="M6.50089 10C6.5666 10.0001 6.63168 9.98728 6.69243 9.96223C6.75317 9.93718 6.80838 9.9004 6.85489 9.854L9.00089 7.707L10.1469 8.854C10.1933 8.90056 10.2485 8.93751 10.3093 8.96271C10.37 8.98792 10.4351 9.00089 10.5009 9.00089C10.5667 9.00089 10.6318 8.98792 10.6925 8.96271C10.7533 8.93751 10.8084 8.90056 10.8549 8.854L13.0009 6.707V7.5C13.0009 7.63261 13.0536 7.75979 13.1473 7.85355C13.2411 7.94732 13.3683 8 13.5009 8C13.6335 8 13.7607 7.94732 13.8544 7.85355C13.9482 7.75979 14.0009 7.63261 14.0009 7.5V5.5C14.0009 5.36739 13.9482 5.24021 13.8544 5.14645C13.7607 5.05268 13.6335 5 13.5009 5H11.5009C11.3683 5 11.2411 5.05268 11.1473 5.14645C11.0536 5.24021 11.0009 5.36739 11.0009 5.5C11.0009 5.63261 11.0536 5.75979 11.1473 5.85355C11.2411 5.94732 11.3683 6 11.5009 6H12.2939L10.5009 7.793L9.35489 6.646C9.30845 6.59944 9.25327 6.56249 9.19253 6.53729C9.13178 6.51208 9.06666 6.49911 9.00089 6.49911C8.93513 6.49911 8.87001 6.51208 8.80926 6.53729C8.74852 6.56249 8.69334 6.59944 8.64689 6.646L6.14689 9.146C6.07679 9.21593 6.02902 9.3051 6.00966 9.40221C5.99029 9.49932 6.00019 9.59999 6.03811 9.69146C6.07603 9.78294 6.14025 9.86109 6.22264 9.91602C6.30503 9.97095 6.40187 10.0002 6.50089 10Z" fill="white"/>
<path d="M14.5 13.9985H13.75V10.0195C13.75 9.82062 13.671 9.62985 13.5303 9.4892C13.3897 9.34855 13.1989 9.26953 13 9.26953C12.8011 9.26953 12.6103 9.34855 12.4697 9.4892C12.329 9.62985 12.25 9.82062 12.25 10.0195V13.9985H10.75V12.3845C10.75 12.1856 10.671 11.9949 10.5303 11.8542C10.3897 11.7135 10.1989 11.6345 10 11.6345C9.80109 11.6345 9.61032 11.7135 9.46967 11.8542C9.32902 11.9949 9.25 12.1856 9.25 12.3845V13.9985H7.75V11.3985C7.75 11.1996 7.67098 11.0089 7.53033 10.8682C7.38968 10.7275 7.19891 10.6485 7 10.6485C6.80109 10.6485 6.61032 10.7275 6.46967 10.8682C6.32902 11.0089 6.25 11.1996 6.25 11.3985V13.9985H5.5C5.36739 13.9985 5.24021 14.0512 5.14645 14.145C5.05268 14.2387 5 14.3659 5 14.4985C5 14.6311 5.05268 14.7583 5.14645 14.8521C5.24021 14.9459 5.36739 14.9985 5.5 14.9985H14.5C14.6326 14.9985 14.7598 14.9459 14.8536 14.8521C14.9473 14.7583 15 14.6311 15 14.4985C15 14.3659 14.9473 14.2387 14.8536 14.145C14.7598 14.0512 14.6326 13.9985 14.5 13.9985Z" fill="white"/>
<path d="M16 2H4C3.46957 2 2.96086 2.21071 2.58579 2.58579C2.21071 2.96086 2 3.46957 2 4V16C2 16.5304 2.21071 17.0391 2.58579 17.4142C2.96086 17.7893 3.46957 18 4 18H16C16.5304 18 17.0391 17.7893 17.4142 17.4142C17.7893 17.0391 18 16.5304 18 16V4C18 3.46957 17.7893 2.96086 17.4142 2.58579C17.0391 2.21071 16.5304 2 16 2ZM17 16C17 16.2652 16.8946 16.5196 16.7071 16.7071C16.5196 16.8946 16.2652 17 16 17H4C3.73478 17 3.48043 16.8946 3.29289 16.7071C3.10536 16.5196 3 16.2652 3 16V4C3 3.73478 3.10536 3.48043 3.29289 3.29289C3.48043 3.10536 3.73478 3 4 3H16C16.2652 3 16.5196 3.10536 16.7071 3.29289C16.8946 3.48043 17 3.73478 17 4V16Z" fill="white"/>
</g>
</svg>
