<svg width="20" height="20" viewBox="0 0 20 20" fill="none" xmlns="http://www.w3.org/2000/svg">
<path d="M9.76245 15.2995C9.67245 15.2995 9.58245 15.2995 9.50245 15.2795C9.07245 15.2295 8.67245 15.0395 8.35245 14.7495H8.33245L5.27245 11.8595C4.95245 11.5595 4.73245 11.1695 4.65245 10.7295C4.57245 10.2895 4.62245 9.84952 4.81245 9.44952L6.59245 5.65952C6.59245 5.65952 6.59245 5.65952 6.59245 5.64952C6.78245 5.24952 7.08245 4.91952 7.47245 4.70952C7.86245 4.49952 8.30245 4.40952 8.74245 4.45952L12.9125 4.98952C13.3525 5.04952 13.7625 5.23952 14.0825 5.53952C14.4025 5.84952 14.6125 6.23952 14.7025 6.66952C14.7025 6.66952 14.7025 6.67952 14.7025 6.68952L15.4925 10.7995C15.5725 11.2395 15.5225 11.6795 15.3325 12.0795C15.1425 12.4795 14.8425 12.8095 14.4525 13.0195L10.7725 15.0395C10.4625 15.2095 10.1225 15.2995 9.77245 15.2995H9.76245ZM9.00245 13.9895C9.00245 13.9895 9.00245 13.9895 9.01245 13.9995C9.18245 14.1595 9.39245 14.2595 9.62245 14.2895C9.85245 14.3195 10.0825 14.2795 10.2825 14.1695L13.9625 12.1495C14.1625 12.0395 14.3225 11.8695 14.4225 11.6595C14.5225 11.4495 14.5525 11.2195 14.5025 10.9895L13.7125 6.87952C13.7125 6.87952 13.7125 6.87952 13.7125 6.86952C13.6725 6.64952 13.5625 6.44952 13.3925 6.28952C13.2225 6.12952 13.0125 6.02952 12.7825 5.99952L8.62245 5.46952C8.39245 5.43952 8.16245 5.48952 7.96245 5.59952C7.76245 5.70952 7.60245 5.87952 7.50245 6.08952L5.71245 9.88952C5.61245 10.0995 5.58245 10.3295 5.63245 10.5595C5.67245 10.7895 5.78245 10.9895 5.95245 11.1495L9.00245 14.0095V13.9895Z" fill="white"/>
<path d="M9.88245 12.8595C9.88245 12.8595 9.80245 12.8595 9.75245 12.8595C9.54245 12.8295 9.35245 12.7395 9.19245 12.5995L7.36245 10.8795H7.35245C7.20245 10.7195 7.09245 10.5295 7.05245 10.3295C7.01245 10.1295 7.04245 9.90952 7.13245 9.71952L8.21245 7.42952C8.30245 7.23952 8.45245 7.07952 8.64245 6.97952C8.82245 6.87952 9.03245 6.83952 9.25245 6.85952L11.7625 7.17952C11.9725 7.20952 12.1625 7.29952 12.3225 7.43952C12.4825 7.58952 12.5825 7.76952 12.6225 7.97952L13.1025 10.4695C13.1425 10.6795 13.1125 10.8895 13.0225 11.0795C12.9325 11.2695 12.7825 11.4295 12.6025 11.5295L10.3825 12.7495C10.2325 12.8295 10.0625 12.8695 9.90245 12.8695L9.88245 12.8595ZM8.15245 10.2395L9.88245 11.8595L12.1025 10.6395L11.6325 8.14952C11.6325 8.14952 11.6125 8.14952 11.6025 8.14952L9.12245 7.83952L8.11245 9.98952L8.16245 10.2495L8.15245 10.2395Z" fill="white"/>
<path d="M9.53245 17.7495C9.43245 17.7495 9.32245 17.7495 9.22245 17.7295C8.69245 17.6595 8.21245 17.4295 7.82245 17.0695L3.04245 12.5595C2.66245 12.1995 2.40245 11.7295 2.30245 11.2095C2.20245 10.6895 2.27245 10.1595 2.49245 9.67952L5.28245 3.69952C5.50245 3.21952 5.88245 2.81952 6.33245 2.56952C6.80245 2.30952 7.32245 2.20952 7.85245 2.27952L14.3425 3.09952C14.8625 3.16952 15.3525 3.39952 15.7325 3.75952C16.1225 4.11952 16.3725 4.58952 16.4725 5.10952L17.7025 11.5995C17.8025 12.1195 17.7325 12.6495 17.5125 13.1295C17.2925 13.6095 16.9225 13.9995 16.4625 14.2595L10.7325 17.4395C10.3625 17.6495 9.95245 17.7495 9.52245 17.7495H9.53245ZM7.54245 3.24952C7.29245 3.24952 7.04245 3.30952 6.82245 3.43952C6.55245 3.58952 6.32245 3.82952 6.19245 4.11952L3.40245 10.0995C3.27245 10.3895 3.23245 10.7095 3.29245 11.0195C3.35245 11.3295 3.50245 11.6095 3.73245 11.8295L8.51245 16.3395C8.74245 16.5595 9.03245 16.6995 9.35245 16.7395C9.66245 16.7795 9.98245 16.7195 10.2625 16.5595L15.9925 13.3795C16.2725 13.2295 16.4925 12.9895 16.6225 12.6995C16.7525 12.4195 16.7925 12.0895 16.7425 11.7795L15.5125 5.28952C15.4525 4.97952 15.3025 4.69952 15.0625 4.47952C14.8325 4.25952 14.5425 4.12952 14.2325 4.07952L7.74245 3.25952C7.68245 3.25952 7.61245 3.24952 7.55245 3.24952H7.54245Z" fill="white"/>
</svg>
