<svg width="24" height="24" viewBox="0 0 24 24" fill="none" xmlns="http://www.w3.org/2000/svg">
<mask id="mask0_607_18252" style="mask-type:luminance" maskUnits="userSpaceOnUse" x="0" y="0" width="24" height="24">
<path d="M24 0H0V24H24V0Z" fill="white"/>
</mask>
<g mask="url(#mask0_607_18252)">
<path d="M11.632 16.9997C11.45 17 11.2747 16.9314 11.1413 16.8076L7.10896 13.0216C6.99882 12.919 6.92413 12.784 6.89565 12.6361C6.86716 12.4882 6.88637 12.3351 6.95049 12.1989L9.30913 7.19288C9.36681 7.07052 9.458 6.96703 9.57212 6.89441C9.68624 6.82179 9.81861 6.78301 9.95388 6.78259C9.98497 6.7808 10.0161 6.7808 10.0472 6.78259L15.5254 7.47509C15.6743 7.49342 15.8135 7.5586 15.923 7.66123C16.0324 7.76385 16.1064 7.8986 16.1343 8.04603L17.1731 13.4786C17.201 13.627 17.1813 13.7804 17.1168 13.9168C17.0523 14.0533 16.9462 14.1659 16.8138 14.2384L11.976 16.9129C11.8705 16.9705 11.7522 16.9996 11.632 16.9997ZM10.7723 7.23195C10.3937 7.2333 10.0232 7.34202 9.70386 7.54549C9.38454 7.74895 9.12949 8.03881 8.9683 8.38143L7.55724 11.3946C7.37779 11.7754 7.32376 12.2034 7.40295 12.6169C7.48214 13.0304 7.69046 13.4081 7.99793 13.6957L10.4217 15.9751C10.7293 16.2632 11.1201 16.4467 11.5383 16.4994C11.9564 16.552 12.3805 16.4711 12.7499 16.2682L15.6611 14.6672C16.0315 14.465 16.3279 14.1501 16.5074 13.7682C16.687 13.3863 16.7403 12.9572 16.6597 12.543L16.0355 9.27473C15.9583 8.8586 15.7502 8.47802 15.4415 8.18846C15.1328 7.89891 14.7397 7.71552 14.3195 7.66504L11.023 7.24932C10.9402 7.23963 10.8568 7.23456 10.7734 7.23413" fill="#27D4FF"/>
<path d="M9.95857 6.10547C9.69458 6.10633 9.43623 6.18192 9.21341 6.32348C8.99059 6.46505 8.81241 6.66682 8.69947 6.90543L6.33649 11.9114C6.21074 12.1771 6.17263 12.4758 6.22764 12.7646C6.28266 13.0533 6.42795 13.3171 6.64258 13.5179L10.6771 17.3039C10.892 17.5057 11.1654 17.6342 11.458 17.6709C11.7505 17.7076 12.0472 17.6505 12.3053 17.5079L17.143 14.841C17.4018 14.6994 17.6089 14.4794 17.7345 14.2125C17.8601 13.9456 17.8978 13.6458 17.8421 13.3561L16.7968 7.92465C16.7419 7.63595 16.5966 7.37217 16.382 7.17141C16.1674 6.97065 15.8945 6.8433 15.6028 6.80774L10.129 6.11632C10.071 6.10909 10.0127 6.10547 9.95423 6.10547M11.7832 15.8342C11.4482 15.8343 11.1258 15.707 10.8812 15.4782L8.45742 13.1988C8.25476 13.0086 8.11747 12.7592 8.06522 12.4862C8.01296 12.2132 8.04843 11.9307 8.16653 11.6792L9.58193 8.67034C9.68785 8.44308 9.85651 8.25082 10.068 8.11621C10.2796 7.9816 10.5252 7.91024 10.7759 7.91054C10.8294 7.91219 10.8827 7.91727 10.9355 7.92574L14.2352 8.34471C14.511 8.37922 14.7688 8.50022 14.9716 8.69034C15.1744 8.88047 15.3118 9.12996 15.364 9.40301L15.9881 12.6723C16.0405 12.9454 16.005 13.2281 15.8866 13.4797C15.7682 13.7313 15.5731 13.9388 15.3293 14.0725L12.4171 15.6757C12.2228 15.7824 12.0048 15.8384 11.7832 15.8385" fill="#27D4FF"/>
<path d="M11.4009 20.2601C10.9418 20.261 10.4999 20.0853 10.1668 19.7695L4.24032 14.1838C3.96466 13.9236 3.77816 13.583 3.70742 13.2105C3.63667 12.8381 3.68527 12.4528 3.84631 12.1096L7.311 4.7178C7.45515 4.40722 7.6849 4.14421 7.97329 3.95964C8.26169 3.77507 8.59675 3.6766 8.93915 3.67579C9.01499 3.67557 9.09077 3.68028 9.166 3.6899L17.2199 4.71237C17.5972 4.75915 17.95 4.9246 18.2272 5.18485C18.5044 5.4451 18.6918 5.78669 18.7623 6.16034L20.2906 14.1925C20.3625 14.5652 20.3144 14.951 20.1533 15.2946C19.9922 15.6382 19.7264 15.9219 19.394 16.1051L12.2758 20.0354C12.0099 20.1825 11.7112 20.2601 11.4074 20.2612M9.94968 4.06654C9.29957 4.06825 8.66324 4.25411 8.11441 4.60258C7.56558 4.95105 7.1267 5.44788 6.84861 6.03551L4.48888 11.0415C4.1793 11.6966 4.08607 12.4332 4.22265 13.1448C4.35923 13.8564 4.71856 14.5061 5.24868 15.0001L9.28106 18.785C9.80893 19.2805 10.4801 19.5962 11.1984 19.6869C11.9168 19.7776 12.6453 19.6385 13.2798 19.2897L18.1197 16.6228C18.7549 16.274 19.2632 15.7327 19.5713 15.0768C19.8795 14.4209 19.9717 13.6841 19.8347 12.9725L18.7949 7.54535C18.6603 6.83544 18.3041 6.18647 17.7775 5.69169C17.251 5.19691 16.5811 4.88179 15.8642 4.79161L10.3795 4.09259C10.2354 4.07529 10.0905 4.06659 9.94534 4.06654" fill="#27D4FF"/>
<path d="M8.93794 3.00001C8.46662 3.00033 8.0052 3.13524 7.60793 3.38887C7.21067 3.64249 6.8941 4.00428 6.69544 4.43169L3.234 11.8256C3.01283 12.2979 2.94622 12.8279 3.04366 13.3403C3.14109 13.8526 3.39761 14.3211 3.77672 14.6792L9.70317 20.267C10.0851 20.6274 10.5717 20.857 11.0927 20.9226C11.6137 20.9881 12.142 20.8863 12.6013 20.6317L19.7184 16.7003C20.1764 16.4481 20.5428 16.0574 20.7651 15.5842C20.9874 15.1109 21.0541 14.5795 20.9558 14.066L19.4275 6.03378C19.3293 5.51992 19.071 5.05031 18.6897 4.69216C18.3083 4.334 17.8235 4.10567 17.3044 4.03985L9.24946 3.01954C9.14615 3.0063 9.04209 2.99977 8.93794 3.00001ZM11.6309 19.0372C10.9316 19.0377 10.2584 18.7714 9.74876 18.2926L5.71313 14.5067C5.28949 14.1097 5.00256 13.5887 4.89354 13.0184C4.78453 12.4482 4.85904 11.8581 5.10637 11.3329L7.4661 6.32685C7.71288 5.80146 8.11974 5.36773 8.62831 5.0879C9.13687 4.80808 9.72101 4.69653 10.2969 4.76926L15.7805 5.46068C16.3551 5.53384 16.8918 5.78675 17.3141 6.18325C17.7363 6.57976 18.0224 7.09958 18.1315 7.66844L19.1725 13.101C19.282 13.6723 19.2078 14.2635 18.9605 14.79C18.7133 15.3165 18.3057 15.7511 17.7961 16.0317L12.9573 18.6997C12.5517 18.9229 12.0961 19.0398 11.6331 19.0394" fill="#27D4FF"/>
<path d="M10.2305 12.0779L11.2019 10.0156L13.4629 10.3L13.8905 12.5425L11.8933 13.641L10.2305 12.0779Z" fill="#27D4FF"/>
<path d="M11.6053 10.747L12.8883 10.9077L13.1304 12.1809L11.9961 12.805L11.0528 11.9193L11.6053 10.747ZM10.7967 9.27734L9.40625 12.2297L11.7877 14.4646L14.6489 12.8897L14.0367 9.68004L10.7967 9.27734Z" fill="#27D4FF"/>
</g>
</svg>
