<svg width="24" height="24" viewBox="0 0 24 24" fill="none" xmlns="http://www.w3.org/2000/svg">
<path fill-rule="evenodd" clip-rule="evenodd" d="M12 22C17.5228 22 22 17.5228 22 12C22 6.47715 17.5228 2 12 2C6.47715 2 2 6.47715 2 12C2 17.5228 6.47715 22 12 22ZM23 12C23 18.0751 18.0751 23 12 23C5.92487 23 1 18.0751 1 12C1 5.92487 5.92487 1 12 1C18.0751 1 23 5.92487 23 12Z" fill="#27D4FF"/>
<path d="M12.0011 7.26172L13.2711 8.52572L13.2651 8.53272L17.3711 12.6387V15.1617L12.0011 9.79572L6.63109 15.1617L6.63109 12.6387L10.7371 8.53272L10.7311 8.52572L12.0011 7.26172Z" fill="#27D4FF"/>
</svg>
