<svg width="13" height="13" viewBox="0 0 13 13" fill="none" xmlns="http://www.w3.org/2000/svg">
<g clip-path="url(#clip0_443_11797)">
<path d="M4.41698 1.26381L8.58398 1.26381V7.13281L4.41698 7.13281L4.41698 1.26381Z" fill="#139DF2"/>
<path d="M3.28426 6.96114C3.17938 6.96112 3.07868 7.0023 3.00386 7.07581C2.92905 7.14931 2.8861 7.24927 2.88426 7.35414C2.88462 7.44223 2.91495 7.52757 2.97026 7.59614L4.47626 9.47014L6.18626 11.5851C6.25385 11.6676 6.35071 11.7207 6.45658 11.7334C6.56245 11.7461 6.66912 11.7173 6.75426 11.6531C6.77884 11.6331 6.80099 11.6103 6.82026 11.5851L8.52026 9.47114L10.0343 7.59714C10.0669 7.55684 10.0911 7.51036 10.1053 7.46049C10.1196 7.41063 10.1236 7.3584 10.1171 7.30694C10.1107 7.25548 10.0939 7.20585 10.0678 7.16103C10.0417 7.11622 10.0068 7.07714 9.96526 7.04614C9.89335 6.99157 9.80553 6.96206 9.71526 6.96214" fill="#139DF2"/>
</g>
<defs>
<clipPath id="clip0_443_11797">
<rect width="7.241" height="10.473" fill="white" transform="translate(2.87891 1.26367)"/>
</clipPath>
</defs>
</svg>
