<svg width="20" height="20" viewBox="0 0 20 20" fill="none" xmlns="http://www.w3.org/2000/svg">
<g id="download_fff_20" opacity="0.6">
<g id="Vector">
<path d="M16.875 12V15.833C16.8745 16.1092 16.7645 16.3739 16.5692 16.5692C16.3739 16.7645 16.1092 16.8745 15.833 16.875H4.167C3.89081 16.8745 3.62608 16.7645 3.43078 16.5692C3.23548 16.3739 3.12553 16.1092 3.125 15.833V12H1.875V15.833C1.87553 16.4407 2.11718 17.0234 2.5469 17.4531C2.97661 17.8828 3.55929 18.1245 4.167 18.125H15.833C16.4407 18.1245 17.0234 17.8828 17.4531 17.4531C17.8828 17.0234 18.1245 16.4407 18.125 15.833V12H16.875Z" fill="black"/>
<path d="M9.55711 12.942C9.6442 13.0299 9.75559 13.0897 9.87695 13.1138C9.99831 13.1378 10.1241 13.125 10.2381 13.077C10.3128 13.0452 10.3807 12.9994 10.4381 12.942L14.6081 8.775L13.7241 7.891L10.6241 10.991V2H9.37411V10.991L6.27411 7.891L5.39011 8.775L9.55711 12.942Z" fill="black"/>
</g>
</g>
</svg>
