<svg width="20" height="20" viewBox="0 0 20 20" fill="none" xmlns="http://www.w3.org/2000/svg">
<g id="cctv_fff_20" opacity="0.4">
<g id="Vector">
<path d="M6.21 7.97973L3.858 6.73973C3.79603 6.70002 3.72684 6.67292 3.65439 6.65998C3.58194 6.64703 3.50765 6.6485 3.43576 6.66429C3.36388 6.68008 3.29581 6.70988 3.23545 6.75199C3.17509 6.79411 3.12363 6.84771 3.084 6.90973C3.04071 6.97554 3.01207 7.04988 3 7.12773V12.8077C3.02804 12.9569 3.11331 13.0891 3.23758 13.1762C3.36185 13.2633 3.51525 13.2983 3.665 13.2737C3.74246 13.2614 3.81641 13.2327 3.882 13.1897L6.22 11.9117C6.2898 11.875 6.34871 11.8205 6.39084 11.7538C6.43296 11.6871 6.45681 11.6105 6.46 11.5317V8.36473C6.45696 8.2837 6.43214 8.205 6.38815 8.1369C6.34415 8.06879 6.28261 8.01381 6.21 7.97773" fill="black"/>
<path d="M17.991 6.82791C17.9899 6.60767 17.9017 6.39682 17.7456 6.24147C17.5895 6.08612 17.3782 5.9989 17.158 5.99891H9.658C9.54852 5.99877 9.4401 6.02022 9.33892 6.06203C9.23774 6.10383 9.14579 6.16517 9.06833 6.24253C8.99088 6.3199 8.92943 6.41177 8.8875 6.5129C8.84558 6.61403 8.824 6.72243 8.824 6.83191V7.49891H7.831C7.6105 7.4997 7.39929 7.58778 7.24356 7.74388C7.08784 7.89999 7.00026 8.11141 7 8.33191V11.6649C7 11.8861 7.08787 12.0982 7.24427 12.2546C7.40068 12.411 7.61281 12.4989 7.834 12.4989H8.827L8.839 13.1699C8.839 13.3909 8.92673 13.6029 9.08292 13.7593C9.23911 13.9157 9.45098 14.0036 9.672 14.0039H17.172C17.3921 14.0023 17.6027 13.9138 17.7579 13.7575C17.913 13.6013 18 13.3901 18 13.1699L17.991 6.82791Z" fill="black"/>
</g>
</g>
</svg>
