<svg width="24" height="24" viewBox="0 0 24 24" fill="none" xmlns="http://www.w3.org/2000/svg">
<g opacity="0.6">
<mask id="mask0_474_13373" style="mask-type:luminance" maskUnits="userSpaceOnUse" x="0" y="0" width="24" height="24">
<path d="M24 0H0V24H24V0Z" fill="white"/>
</mask>
<g mask="url(#mask0_474_13373)">
<path d="M20 4H4C3.46957 4 2.96086 4.21071 2.58579 4.58579C2.21071 4.96086 2 5.46957 2 6V18C2 18.5304 2.21071 19.0391 2.58579 19.4142C2.96086 19.7893 3.46957 20 4 20H20C20.5304 20 21.0391 19.7893 21.4142 19.4142C21.7893 19.0391 22 18.5304 22 18V6C22 5.46957 21.7893 4.96086 21.4142 4.58579C21.0391 4.21071 20.5304 4 20 4ZM4 5H20C20.2652 5 20.5196 5.10536 20.7071 5.29289C20.8946 5.48043 21 5.73478 21 6V14.92L19.266 13.294C18.9547 13.0484 18.5726 12.9097 18.1763 12.8986C17.7799 12.8874 17.3906 13.0043 17.066 13.232L15.33 14.447L10.77 10.457C10.4455 10.1744 10.0325 10.014 9.60228 10.0036C9.17209 9.99321 8.75179 10.1334 8.414 10.4L3 14.982V6C3 5.73478 3.10536 5.48043 3.29289 5.29289C3.48043 5.10536 3.73478 5 4 5Z" fill="white"/>
<path d="M16.5 10C16.7967 10 17.0867 9.91203 17.3334 9.74721C17.58 9.58238 17.7723 9.34812 17.8858 9.07403C17.9993 8.79994 18.0291 8.49834 17.9712 8.20736C17.9133 7.91639 17.7704 7.64912 17.5607 7.43934C17.3509 7.22956 17.0836 7.0867 16.7926 7.02882C16.5017 6.97094 16.2001 7.00065 15.926 7.11418C15.6519 7.22771 15.4176 7.41997 15.2528 7.66665C15.088 7.91332 15 8.20333 15 8.5C15 8.89783 15.158 9.27936 15.4393 9.56066C15.7206 9.84197 16.1022 10 16.5 10Z" fill="white"/>
</g>
</g>
</svg>
