<svg width="14" height="14" viewBox="0 0 14 14" fill="none" xmlns="http://www.w3.org/2000/svg">
<g clip-path="url(#clip0_259_6269)">
<path d="M6.00001 11.4457C5.99549 11.3038 6.02155 11.1626 6.07642 11.0316C6.13128 10.9007 6.21368 10.7831 6.31801 10.6867C6.5393 10.4955 6.82202 10.3902 7.11451 10.3902C7.40701 10.3902 7.68973 10.4955 7.91101 10.6867C8.01182 10.7858 8.09189 10.9039 8.14654 11.0342C8.2012 11.1645 8.22935 11.3044 8.22935 11.4457C8.22935 11.5871 8.2012 11.727 8.14654 11.8573C8.09189 11.9876 8.01182 12.1057 7.91101 12.2047C7.68992 12.3964 7.40712 12.5019 7.11451 12.5019C6.82191 12.5019 6.53911 12.3964 6.31801 12.2047C6.21368 12.1084 6.13128 11.9908 6.07642 11.8598C6.02155 11.7289 5.99549 11.5877 6.00001 11.4457ZM7.94401 8.72674H6.31501L6.05801 2.51074H8.19901L7.94401 8.72674Z" fill="white" stroke="white" stroke-width="0.3"/>
</g>
<defs>
<clipPath id="clip0_259_6269">
<rect width="14" height="14" fill="white"/>
</clipPath>
</defs>
</svg>
