<svg width="20" height="20" viewBox="0 0 20 20" fill="none" xmlns="http://www.w3.org/2000/svg">
<path fill-rule="evenodd" clip-rule="evenodd" d="M9.12528 2.85938C5.66687 2.85938 2.86328 5.66297 2.86328 9.12138C2.86328 12.5798 5.66687 15.3834 9.12528 15.3834C12.5837 15.3834 15.3873 12.5798 15.3873 9.12138C15.3873 5.66297 12.5837 2.85938 9.12528 2.85938ZM1.36328 9.12138C1.36328 4.83454 4.83845 1.35938 9.12528 1.35938C13.4121 1.35938 16.8873 4.83454 16.8873 9.12138C16.8873 13.4082 13.4121 16.8834 9.12528 16.8834C4.83845 16.8834 1.36328 13.4082 1.36328 9.12138Z" fill="white"/>
<path fill-rule="evenodd" clip-rule="evenodd" d="M13.5439 13.5439C13.8368 13.251 14.3117 13.251 14.6045 13.5439L18.4175 17.3569C18.7104 17.6498 18.7104 18.1247 18.4175 18.4175C18.1247 18.7104 17.6498 18.7104 17.3569 18.4175L13.5439 14.6045C13.251 14.3117 13.251 13.8368 13.5439 13.5439Z" fill="white"/>
</svg>
