<svg width="24" height="25" viewBox="0 0 24 25" fill="none" xmlns="http://www.w3.org/2000/svg">
<mask id="mask0_101_1270" style="mask-type:luminance" maskUnits="userSpaceOnUse" x="0" y="0" width="24" height="25">
<path d="M24 0.5H0V24.5H24V0.5Z" fill="white"/>
</mask>
<g mask="url(#mask0_101_1270)">
<path d="M18.749 21.5371H5.24902C5.05019 21.5368 4.85934 21.458 4.71875 21.3174C4.57816 21.1768 4.49929 20.9859 4.49902 20.7871V4.28711C4.49929 4.08828 4.57816 3.89743 4.71875 3.75684C4.85934 3.61624 5.05019 3.53737 5.24902 3.53711H13.5V9.53711H19.5V20.7861C19.5 20.9853 19.4211 21.1765 19.2803 21.3174C19.1394 21.4582 18.9482 21.5371 18.749 21.5371ZM12 10.5C11.9508 10.4994 11.9024 10.5095 11.8574 10.5293C11.8124 10.5491 11.772 10.5785 11.7393 10.6152L8.59082 14.2593C8.54556 14.3123 8.51646 14.3769 8.50586 14.4458C8.49526 14.5147 8.50402 14.5848 8.53125 14.6489C8.55702 14.7124 8.60066 14.7671 8.65723 14.8057C8.71379 14.8443 8.78016 14.8653 8.84863 14.8662H10.249V18.1372C10.2474 18.232 10.2838 18.3234 10.3496 18.3916C10.4154 18.4598 10.5048 18.4991 10.5996 18.501H13.4004C13.4952 18.4991 13.5846 18.4598 13.6504 18.3916C13.7162 18.3234 13.7526 18.232 13.751 18.1372V14.8662H15.1514C15.22 14.8655 15.287 14.8443 15.3438 14.8057C15.4005 14.7671 15.4439 14.7125 15.4697 14.6489C15.497 14.5849 15.5063 14.5146 15.4961 14.4458C15.4859 14.377 15.4568 14.3126 15.4121 14.2593L12.2617 10.6152C12.2288 10.5784 12.1888 10.5491 12.1436 10.5293C12.0984 10.5095 12.0494 10.4993 12 10.5Z" fill="white" fill-opacity="0.6"/>
<path d="M19.5 8.03711H15V3.53711" fill="white" fill-opacity="0.6"/>
</g>
</svg>
