<svg width="20" height="20" viewBox="0 0 20 20" fill="none" xmlns="http://www.w3.org/2000/svg">
<mask id="mask0_388_109" style="mask-type:luminance" maskUnits="userSpaceOnUse" x="0" y="0" width="20" height="20">
<path d="M20 0H0V20H20V0Z" fill="white"/>
</mask>
<g mask="url(#mask0_388_109)">
<path d="M17.5 11.875C17.3342 11.875 17.1753 11.9408 17.0581 12.0581C16.9408 12.1753 16.875 12.3342 16.875 12.5V15.833C16.8745 16.1092 16.7645 16.3739 16.5692 16.5692C16.3739 16.7645 16.1092 16.8745 15.833 16.875H4.167C3.89081 16.8745 3.62608 16.7645 3.43078 16.5692C3.23548 16.3739 3.12553 16.1092 3.125 15.833V12.5C3.125 12.3342 3.05915 12.1753 2.94194 12.0581C2.82473 11.9408 2.66576 11.875 2.5 11.875C2.33424 11.875 2.17527 11.9408 2.05806 12.0581C1.94085 12.1753 1.875 12.3342 1.875 12.5V15.833C1.87553 16.4407 2.11718 17.0234 2.5469 17.4531C2.97661 17.8828 3.55929 18.1245 4.167 18.125H15.833C16.4407 18.1245 17.0234 17.8828 17.4531 17.4531C17.8828 17.0234 18.1245 16.4407 18.125 15.833V12.5C18.125 12.3342 18.0592 12.1753 17.9419 12.0581C17.8247 11.9408 17.6658 11.875 17.5 11.875Z" fill="white"/>
<path d="M9.55711 12.942C9.6442 13.0299 9.75559 13.0897 9.87695 13.1138C9.99831 13.1378 10.1241 13.125 10.2381 13.077C10.3128 13.0452 10.3807 12.9994 10.4381 12.942L14.6081 8.775C14.7253 8.65777 14.7912 8.49878 14.7912 8.333C14.7912 8.16722 14.7253 8.00823 14.6081 7.891C14.4909 7.77377 14.3319 7.70792 14.1661 7.70792C14.0003 7.70792 13.8413 7.77377 13.7241 7.891L10.6241 10.991V2.5C10.6241 2.33424 10.5583 2.17527 10.4411 2.05806C10.3238 1.94085 10.1649 1.875 9.99911 1.875C9.83335 1.875 9.67438 1.94085 9.55717 2.05806C9.43996 2.17527 9.37411 2.33424 9.37411 2.5V10.991L6.27411 7.891C6.15689 7.77377 5.9979 7.70792 5.83211 7.70792C5.66633 7.70792 5.50734 7.77377 5.39011 7.891C5.27289 8.00823 5.20703 8.16722 5.20703 8.333C5.20703 8.49878 5.27289 8.65777 5.39011 8.775L9.55711 12.942Z" fill="white"/>
</g>
</svg>
