<svg width="20" height="20" viewBox="0 0 20 20" fill="none" xmlns="http://www.w3.org/2000/svg">
<g clip-path="url(#clip0_139_2853)">
<mask id="mask0_139_2853" style="mask-type:luminance" maskUnits="userSpaceOnUse" x="0" y="0" width="20" height="20">
<path d="M20 0H0V20H20V0Z" fill="white"/>
</mask>
<g mask="url(#mask0_139_2853)">
<path d="M16.5 10.7619C16.5012 11.9837 16.158 13.181 15.5098 14.2167C14.8616 15.2523 13.9346 16.0843 12.8352 16.6172C11.7358 17.1501 10.5085 17.3624 9.29393 17.2297C8.0794 17.0969 6.92686 16.6246 5.96849 15.8668C5.01012 15.1091 4.28472 14.0965 3.87548 12.9453C3.46625 11.7942 3.38974 10.5509 3.65474 9.35826C3.91974 8.16559 4.51552 7.07175 5.37375 6.20218C6.23197 5.33262 7.3179 4.72254 8.507 4.44191L7.83 5.49191L9.092 6.29991L11.028 3.29991L8.021 1.35791L7.208 2.61891L7.885 3.05491C6.4465 3.44924 5.14689 4.23788 4.13291 5.33178C3.11892 6.42568 2.43094 7.78126 2.14666 9.24549C1.86237 10.7097 1.99309 12.2243 2.52406 13.6181C3.05503 15.012 3.9651 16.2296 5.15152 17.1336C6.33795 18.0376 7.75346 18.5919 9.23826 18.7339C10.723 18.8759 12.218 18.6 13.5543 17.9374C14.8905 17.2747 16.0149 16.2516 16.8005 14.9837C17.5861 13.7158 18.0016 12.2535 18 10.7619H16.5Z" fill="white"/>
<path d="M9.25 6.96172V11.8117C9.25 11.8648 9.27107 11.9156 9.30858 11.9531C9.34609 11.9906 9.39696 12.0117 9.45 12.0117H13.8C13.853 12.0117 13.9039 11.9906 13.9414 11.9531C13.9789 11.9156 14 11.8648 14 11.8117V10.7117C14 10.6587 13.9789 10.6078 13.9414 10.5703C13.9039 10.5328 13.853 10.5117 13.8 10.5117H10.95C10.897 10.5117 10.8461 10.4906 10.8086 10.4531C10.7711 10.4156 10.75 10.3648 10.75 10.3117V6.96172C10.75 6.90868 10.7289 6.8578 10.6914 6.8203C10.6539 6.78279 10.603 6.76172 10.55 6.76172H9.45C9.39696 6.76172 9.34609 6.78279 9.30858 6.8203C9.27107 6.8578 9.25 6.90868 9.25 6.96172Z" fill="white"/>
</g>
</g>
<defs>
<clipPath id="clip0_139_2853">
<rect width="20" height="20" fill="white"/>
</clipPath>
</defs>
</svg>
