<svg width="68" height="50" viewBox="0 0 68 50" fill="none" xmlns="http://www.w3.org/2000/svg">
<g opacity="0.6">
<mask id="mask0_637_20157" style="mask-type:luminance" maskUnits="userSpaceOnUse" x="22" y="0" width="24" height="24">
<path d="M46 0H22V24H46V0Z" fill="white"/>
</mask>
<g mask="url(#mask0_637_20157)">
<path d="M42 4H26C25.4696 4 24.9609 4.21071 24.5858 4.58579C24.2107 4.96086 24 5.46957 24 6V18C24 18.5304 24.2107 19.0391 24.5858 19.4142C24.9609 19.7893 25.4696 20 26 20H42C42.5304 20 43.0391 19.7893 43.4142 19.4142C43.7893 19.0391 44 18.5304 44 18V6C44 5.46957 43.7893 4.96086 43.4142 4.58579C43.0391 4.21071 42.5304 4 42 4ZM26 5H42C42.2652 5 42.5196 5.10536 42.7071 5.29289C42.8946 5.48043 43 5.73478 43 6V14.92L41.266 13.294C40.9548 13.0484 40.5726 12.9097 40.1763 12.8986C39.7799 12.8874 39.3906 13.0043 39.066 13.232L37.33 14.447L32.77 10.457C32.4455 10.1744 32.0325 10.014 31.6023 10.0036C31.1721 9.99321 30.7518 10.1334 30.414 10.4L25 14.982V6C25 5.73478 25.1054 5.48043 25.2929 5.29289C25.4804 5.10536 25.7348 5 26 5Z" fill="white"/>
<path d="M38.5 10C38.7967 10 39.0867 9.91203 39.3334 9.74721C39.58 9.58238 39.7723 9.34811 39.8858 9.07403C39.9993 8.79994 40.0291 8.49834 39.9712 8.20736C39.9133 7.91639 39.7704 7.64912 39.5607 7.43934C39.3509 7.22956 39.0836 7.0867 38.7926 7.02882C38.5017 6.97094 38.2001 7.00065 37.926 7.11418C37.6519 7.22771 37.4176 7.41997 37.2528 7.66665C37.088 7.91332 37 8.20333 37 8.5C37 8.89783 37.158 9.27936 37.4393 9.56066C37.7206 9.84197 38.1022 10 38.5 10Z" fill="white"/>
</g>
</g>
<path d="M11.2553 47.064V34.478H10.1073V47.064H11.2553ZM4.6333 35.444C2.7713 35.444 1.4413 37.152 1.4413 39.826C1.4413 42.5 2.7713 44.208 4.6333 44.208C6.49531 44.208 7.82531 42.5 7.82531 39.826C7.82531 37.152 6.49531 35.444 4.6333 35.444ZM4.6333 36.48C5.85131 36.48 6.71931 37.796 6.71931 39.826C6.71931 41.87 5.85131 43.186 4.6333 43.186C3.4013 43.186 2.5333 41.87 2.5333 39.826C2.5333 37.796 3.4013 36.48 4.6333 36.48ZM24.1342 47.064V34.478H22.9862V47.064H24.1342ZM20.3542 43.872V35.71H14.5862V43.872H20.3542ZM15.7062 42.962V36.634H19.2342V42.962H15.7062ZM37.0131 47.036V34.492H35.8651V47.036H37.0131ZM31.2171 38.314V36.718H34.1711V35.766H27.1571V36.718H30.0691V38.314C30.0691 40.484 28.5431 42.836 26.7371 43.704L27.4091 44.628C28.8091 43.928 30.0831 42.304 30.6431 40.484C31.2451 42.206 32.4771 43.648 33.9331 44.32L34.5771 43.396C32.7291 42.612 31.2171 40.442 31.2171 38.314ZM49.3689 38.37H51.9309V41.128H53.0929V34.492H51.9309V37.432H49.3689C49.1449 35.976 47.8569 35.038 46.1769 35.038C44.3149 35.038 42.9429 36.2 42.9429 37.922C42.9429 39.644 44.3149 40.82 46.1769 40.82C47.9129 40.82 49.1449 39.84 49.3689 38.37ZM46.1769 39.868C44.9309 39.868 44.0349 39.042 44.0349 37.922C44.0349 36.788 44.9309 35.99 46.1769 35.99C47.4229 35.99 48.3189 36.788 48.3189 37.922C48.3189 39.042 47.4229 39.868 46.1769 39.868ZM52.0849 42.822V41.758H50.9649V42.822C50.9649 44.11 50.1809 45.482 48.6829 46.112L49.2709 46.98C50.3909 46.49 51.1189 45.636 51.5249 44.614C51.9029 45.678 52.6589 46.49 53.7929 46.98L54.3669 46.112C52.8689 45.51 52.0849 44.152 52.0849 42.822ZM48.5289 41.842H47.4649V43.424H45.2529V41.842H44.1749V46.868H48.5289V41.842ZM45.2529 44.278H47.4649V45.972H45.2529V44.278ZM61.2958 34.758C58.5798 34.758 56.8858 35.64 56.8858 37.138C56.8858 38.636 58.5798 39.504 61.2958 39.504C64.0118 39.504 65.7058 38.636 65.7058 37.138C65.7058 35.64 64.0118 34.758 61.2958 34.758ZM61.2958 35.668C63.3258 35.668 64.5298 36.186 64.5298 37.138C64.5298 38.09 63.3258 38.608 61.2958 38.608C59.2658 38.608 58.0618 38.09 58.0618 37.138C58.0618 36.186 59.2658 35.668 61.2958 35.668ZM66.9798 41.506V40.582H55.6258V41.506H66.9798ZM65.5938 46.868V42.738H57.0258V46.868H65.5938ZM58.1458 45.944V43.648H64.4738V45.944H58.1458Z" fill="white" fill-opacity="0.87"/>
</svg>
