<svg width="24" height="24" viewBox="0 0 24 24" fill="none" xmlns="http://www.w3.org/2000/svg">
<mask id="mask0_388_4504" style="mask-type:luminance" maskUnits="userSpaceOnUse" x="0" y="0" width="24" height="24">
<path d="M24 0H0V24H24V0Z" fill="white"/>
</mask>
<g mask="url(#mask0_388_4504)">
<path d="M19 15H17.5V9H19C19.1326 9 19.2598 8.94732 19.3536 8.85355C19.4473 8.75979 19.5 8.63261 19.5 8.5C19.5 8.36739 19.4473 8.24021 19.3536 8.14645C19.2598 8.05268 19.1326 8 19 8H17.5V5C17.5 4.73478 17.3946 4.48043 17.2071 4.29289C17.0196 4.10536 16.7652 4 16.5 4H7.5C7.23478 4 6.98043 4.10536 6.79289 4.29289C6.60536 4.48043 6.5 4.73478 6.5 5V8H5C4.86739 8 4.74021 8.05268 4.64645 8.14645C4.55268 8.24021 4.5 8.36739 4.5 8.5C4.5 8.63261 4.55268 8.75979 4.64645 8.85355C4.74021 8.94732 4.86739 9 5 9H6.5V15H5C4.86739 15 4.74021 15.0527 4.64645 15.1464C4.55268 15.2402 4.5 15.3674 4.5 15.5C4.5 15.6326 4.55268 15.7598 4.64645 15.8536C4.74021 15.9473 4.86739 16 5 16H6.5V19C6.5 19.2652 6.60536 19.5196 6.79289 19.7071C6.98043 19.8946 7.23478 20 7.5 20H16.5C16.7652 20 17.0196 19.8946 17.2071 19.7071C17.3946 19.5196 17.5 19.2652 17.5 19V16H19C19.1326 16 19.2598 15.9473 19.3536 15.8536C19.4473 15.7598 19.5 15.6326 19.5 15.5C19.5 15.3674 19.4473 15.2402 19.3536 15.1464C19.2598 15.0527 19.1326 15 19 15ZM12 17.5C11.6044 17.5 11.2178 17.3827 10.8889 17.1629C10.56 16.9432 10.3036 16.6308 10.1522 16.2654C10.0009 15.8999 9.96126 15.4978 10.0384 15.1098C10.1156 14.7219 10.3061 14.3655 10.5858 14.0858C10.8655 13.8061 11.2219 13.6156 11.6098 13.5384C11.9978 13.4613 12.3999 13.5009 12.7654 13.6522C13.1308 13.8036 13.4432 14.06 13.6629 14.3889C13.8827 14.7178 14 15.1044 14 15.5C14 16.0304 13.7893 16.5391 13.4142 16.9142C13.0391 17.2893 12.5304 17.5 12 17.5ZM12 10.5C11.6044 10.5 11.2178 10.3827 10.8889 10.1629C10.56 9.94318 10.3036 9.63082 10.1522 9.26537C10.0009 8.89991 9.96126 8.49778 10.0384 8.10982C10.1156 7.72186 10.3061 7.36549 10.5858 7.08579C10.8655 6.80608 11.2219 6.6156 11.6098 6.53843C11.9978 6.46126 12.3999 6.50087 12.7654 6.65224C13.1308 6.80362 13.4432 7.05996 13.6629 7.38886C13.8827 7.71776 14 8.10444 14 8.5C14 9.03043 13.7893 9.53914 13.4142 9.91421C13.0391 10.2893 12.5304 10.5 12 10.5Z" fill="#27D4FF"/>
</g>
</svg>
