<svg width="120" height="120" viewBox="0 0 120 120" fill="none" xmlns="http://www.w3.org/2000/svg">
<mask id="mask0_474_13533" style="mask-type:luminance" maskUnits="userSpaceOnUse" x="0" y="0" width="120" height="120">
<path d="M120 0H0V120H120V0Z" fill="white"/>
</mask>
<g mask="url(#mask0_474_13533)">
<path d="M61.5 115.5C50.8198 115.5 40.3795 112.333 31.4992 106.399C22.619 100.466 15.6977 92.0321 11.6105 82.1649C7.5234 72.2977 6.45402 61.4401 8.53762 50.9651C10.6212 40.4902 15.7642 30.8683 23.3163 23.3163C30.8683 15.7642 40.4902 10.6212 50.9651 8.53762C61.4401 6.45402 72.2977 7.5234 82.1649 11.6105C92.0321 15.6977 100.466 22.619 106.399 31.4992C112.333 40.3795 115.5 50.8198 115.5 61.5C115.484 75.8168 109.789 89.5425 99.666 99.666C89.5425 109.789 75.8168 115.484 61.5 115.5ZM61.5 8.50002C51.0176 8.50002 40.7706 11.6084 32.0548 17.4321C23.339 23.2558 16.5459 31.5333 12.5344 41.2178C8.52296 50.9023 7.47339 61.5588 9.5184 71.8398C11.5634 82.1208 16.6112 91.5645 24.0234 98.9767C31.4355 106.389 40.8792 111.437 51.1602 113.482C61.4412 115.527 72.0978 114.477 81.7822 110.466C91.4667 106.454 99.7442 99.661 105.568 90.9452C111.392 82.2294 114.5 71.9824 114.5 61.5C114.484 47.4484 108.895 33.9769 98.9591 24.0409C89.0232 14.1049 75.5516 8.5159 61.5 8.50002Z" fill="#27D4FF"/>
<path d="M61.6445 13C71.2369 13 80.6139 15.8445 88.5897 21.1737C96.5655 26.503 102.782 34.0776 106.453 42.9399C110.124 51.8021 111.084 61.5538 109.213 70.9619C107.341 80.37 102.722 89.0118 95.9392 95.7947C89.1564 102.578 80.5145 107.197 71.1064 109.068C61.6983 110.939 51.9466 109.979 43.0844 106.308C34.2222 102.637 26.6475 96.4209 21.3183 88.4452C15.989 80.4694 13.1445 71.0924 13.1445 61.5C13.1445 48.637 18.2543 36.3008 27.3499 27.2053C36.4454 18.1098 48.7815 13 61.6445 13Z" fill="#090A13"/>
<path d="M61.6446 110.5C51.9533 110.5 42.4796 107.626 34.4216 102.242C26.3636 96.8578 20.0831 89.2051 16.3745 80.2515C12.6658 71.2979 11.6954 61.4457 13.5861 51.9406C15.4768 42.4355 20.1435 33.7046 26.9963 26.8518C33.8491 19.999 42.5801 15.3322 52.0851 13.4415C61.5902 11.5509 71.4425 12.5212 80.396 16.2299C89.3496 19.9386 97.0024 26.2191 102.387 34.2771C107.771 42.3351 110.645 51.8087 110.645 61.5C110.63 74.4912 105.463 86.9461 96.2767 96.1322C87.0906 105.318 74.6357 110.485 61.6446 110.5ZM61.6446 13.5C52.1511 13.5 42.8707 16.3152 34.9772 21.5895C27.0836 26.8638 20.9313 34.3604 17.2983 43.1312C13.6653 51.9021 12.7148 61.5533 14.5669 70.8644C16.4189 80.1754 20.9905 88.7282 27.7034 95.4411C34.4163 102.154 42.9691 106.726 52.2802 108.578C61.5913 110.43 71.2425 109.479 80.0134 105.846C88.7842 102.213 96.2808 96.061 101.555 88.1674C106.829 80.2738 109.645 70.9935 109.645 61.5C109.63 48.774 104.569 36.5733 95.5699 27.5747C86.5712 18.576 74.3706 13.5143 61.6446 13.5Z" fill="#27D4FF"/>
<path d="M63.9904 119.999L63.8164 115.412C64.0234 115.404 64.2294 115.395 64.4364 115.385L64.6714 119.968C64.4434 119.979 64.2154 119.99 63.9874 119.999M67.3874 119.765L66.9374 115.198L67.5654 115.133L68.0654 119.696C67.8404 119.719 67.6154 119.743 67.3904 119.765M70.7674 119.335L70.0564 114.801C70.2624 114.768 70.4694 114.735 70.6764 114.701L71.4424 119.226C71.2184 119.264 70.9934 119.3 70.7684 119.336M74.1234 118.706L73.1364 114.224L73.7564 114.084L74.7894 118.557L74.1234 118.706ZM77.4294 117.878L76.1814 113.462L76.7884 113.287L78.0794 117.687L77.4284 117.874M80.6784 116.855L79.1784 112.517L79.7714 112.31L81.3214 116.631C81.1074 116.707 80.8934 116.783 80.6804 116.857M83.8584 115.652L82.1134 111.412C82.3054 111.332 82.4964 111.252 82.6864 111.171L84.4864 115.392C84.2804 115.482 84.0707 115.57 83.8574 115.656M86.9634 114.263L84.9634 110.131C85.1514 110.041 85.3391 109.949 85.5264 109.855L87.5684 113.963C87.3684 114.065 87.1654 114.165 86.9594 114.263M89.9784 112.692L87.7414 108.685L88.2904 108.375L90.5634 112.358C90.3674 112.47 90.1711 112.581 89.9744 112.691M92.8944 110.948L90.4324 107.077C90.6084 106.965 90.7844 106.85 90.9594 106.736L93.4594 110.58C93.2704 110.705 93.0794 110.828 92.8884 110.948M95.7054 109.037L93.0184 105.313C93.1884 105.19 93.3574 105.067 93.5254 104.943L96.2504 108.634C96.0684 108.769 95.8844 108.903 95.7004 109.034M98.4004 106.965L95.5074 103.405C95.6701 103.272 95.8321 103.139 95.9934 103.005L98.9254 106.533C98.7514 106.677 98.5774 106.822 98.4004 106.965ZM100.999 104.739L97.8994 101.356L98.3624 100.926L101.494 104.278C101.33 104.432 101.163 104.586 100.994 104.739M103.437 102.369L100.155 99.1632C100.301 99.0132 100.445 98.8632 100.589 98.7112L103.91 101.874C103.754 102.039 103.596 102.204 103.436 102.367M105.736 99.8582L102.278 96.8452C102.414 96.6893 102.55 96.5353 102.684 96.3713L106.184 99.3372C106.037 99.5112 105.884 99.6843 105.738 99.8543M107.899 97.2082L104.265 94.4152C104.392 94.2492 104.519 94.0826 104.645 93.9152L108.311 96.6702L107.898 97.2132M109.898 94.4533L106.112 91.8683C106.23 91.6953 106.346 91.5232 106.461 91.3502L110.284 93.8902C110.157 94.0802 110.03 94.2702 109.901 94.4592M111.739 91.5802L107.813 89.2192C107.92 89.0392 108.027 88.8586 108.133 88.6772L112.093 90.9902C111.977 91.1902 111.861 91.3866 111.744 91.5793M113.414 88.5962L109.347 86.4772L109.637 85.9132L113.724 87.9922C113.622 88.1922 113.519 88.3923 113.414 88.5923M114.903 85.5213L110.722 83.6362C110.809 83.4452 110.893 83.2543 110.976 83.0623L115.176 84.8922C115.084 85.1022 114.992 85.3123 114.898 85.5213M116.207 82.3602L111.922 80.7262C111.997 80.5262 112.07 80.3323 112.143 80.1333L116.448 81.7163C116.369 81.9293 116.29 82.1433 116.209 82.3563M117.329 79.1252L112.955 77.7472C113.019 77.5472 113.08 77.3473 113.14 77.1473L117.531 78.4712C117.465 78.6906 117.398 78.9086 117.331 79.1252M118.261 75.8372L113.813 74.7272C113.863 74.5212 113.913 74.3162 113.963 74.1152L118.423 75.1763C118.371 75.3976 118.318 75.6182 118.262 75.8382M118.992 72.5073L114.487 71.6582C114.525 71.4522 114.563 71.2452 114.599 71.0382L119.115 71.8382C119.074 72.0632 119.034 72.2843 118.992 72.5073ZM119.525 69.1412L114.978 68.5542C115.005 68.3472 115.03 68.1412 115.055 67.9342L119.608 68.4632C119.583 68.6912 119.554 68.9172 119.526 69.1432M119.862 65.7502L115.288 65.4282C115.303 65.2209 115.316 65.0139 115.328 64.8072L119.904 65.0702C119.891 65.2982 119.876 65.5262 119.861 65.7542M119.999 62.3382L115.414 62.2842V61.6562H119.999V62.3382Z" fill="#27D4FF"/>
<path d="M61.6726 116.623C54.2943 116.644 46.9887 115.165 40.1998 112.275C33.411 109.384 27.2808 105.144 22.1816 99.8111L24.5376 97.5352C33.7055 107.071 46.1906 112.713 59.4057 113.294C72.6208 113.875 85.5528 109.349 95.5216 100.654L97.6716 103.126C87.6952 111.825 74.908 116.62 61.6716 116.626" fill="#0068E6"/>
<path d="M106.523 39.2488C100.975 28.0947 91.4638 19.4125 79.8516 14.9017L81.0316 11.8438C93.4065 16.6485 103.542 25.8997 109.454 37.7858L106.523 39.2488Z" fill="#27D4FF"/>
<path d="M106.523 39.2488C100.975 28.0947 91.4638 19.4125 79.8516 14.9017L81.0316 11.8438C93.4065 16.6485 103.542 25.8997 109.454 37.7858L106.523 39.2488Z" fill="#27D4FF"/>
<path d="M24.0799 25.3949L21.9219 23.3119C27.6828 17.3511 34.7091 12.7604 42.4819 9.87891L43.5189 12.6939C36.1701 15.4186 29.527 19.7597 24.0799 25.3949Z" fill="#0068E6"/>
<path d="M118 61.7492H117C117.023 53.2505 115.102 44.8592 111.383 37.2172L112.283 36.7812C116.068 44.5591 118.023 53.0995 118 61.7492Z" fill="#27D4FF"/>
<path d="M105.959 93.884L103.535 92.115C110.037 83.2339 113.528 72.5065 113.499 61.5H116.499C116.53 73.1425 112.836 84.4897 105.959 93.884Z" fill="#27D4FF"/>
<path d="M83.615 7.123C76.8 4.41299 69.5341 3.01579 62.2 3.005V0.015C62.007 0.015 61.818 0 61.625 0C45.3731 0.0274249 29.7876 6.46258 18.2505 17.909C6.71341 29.3555 0.155567 44.8898 0 61.141H2.394V61.5C2.39369 71.4036 4.8621 81.1512 9.576 89.861L10.291 91.179L12.928 89.747L12.212 88.429C7.73653 80.1588 5.39322 70.9035 5.394 61.5V61.039C5.57634 46.2371 11.5776 32.1019 22.0999 21.6899C32.6223 11.278 46.82 5.42621 61.623 5.4C61.815 5.4 62.005 5.367 62.198 5.369V4.005C69.4063 4.01608 76.5476 5.38917 83.246 8.052L83.615 7.123Z" fill="#27D4FF"/>
</g>
</svg>
