<svg width="20" height="20" viewBox="0 0 20 20" fill="none" xmlns="http://www.w3.org/2000/svg">
<path d="M5.07031 5.99872C5.24365 5.87472 5.42131 5.75405 5.60331 5.63672" stroke="white"/>
<path d="M13.9991 14.606C12.7974 15.3583 11.4164 15.7753 9.99914 15.814C5.87914 15.814 2.41614 11.714 1.41314 10.398C1.32508 10.2833 1.27734 10.1426 1.27734 9.998C1.27734 9.85335 1.32508 9.71275 1.41314 9.598C2.45537 8.23201 3.68594 7.02063 5.06814 6" stroke="white" stroke-linecap="round"/>
<path d="M7.29297 4.74759C8.15017 4.38576 9.06959 4.1942 9.99997 4.18359C14.119 4.18359 17.585 8.29359 18.586 9.60459C18.673 9.71846 18.7201 9.85779 18.7201 10.0011C18.7201 10.1444 18.673 10.2837 18.586 10.3976C17.8032 11.4177 16.919 12.3559 15.947 13.1976" stroke="white" stroke-linecap="round"/>
<path d="M12.2673 12.1015C11.682 12.6737 10.8933 12.99 10.0748 12.9807C9.2563 12.9714 8.47501 12.6373 7.9028 12.052C7.3306 11.4667 7.01435 10.678 7.02364 9.8595C7.03292 9.041 7.36697 8.2597 7.9523 7.6875" stroke="white" stroke-width="2"/>
<path fill-rule="evenodd" clip-rule="evenodd" d="M1.64645 1.64645C1.84171 1.45118 2.15829 1.45118 2.35355 1.64645L18.3536 17.6464C18.5488 17.8417 18.5488 18.1583 18.3536 18.3536C18.1583 18.5488 17.8417 18.5488 17.6464 18.3536L1.64645 2.35355C1.45118 2.15829 1.45118 1.84171 1.64645 1.64645Z" fill="white"/>
</svg>
