<svg width="24" height="24" viewBox="0 0 24 24" fill="none" xmlns="http://www.w3.org/2000/svg">
<path d="M11.3923 4.15991L3.51129 9.16891C3.36231 9.25968 3.23919 9.38724 3.15375 9.53934C3.06831 9.69144 3.02344 9.86296 3.02344 10.0374C3.02344 10.2119 3.06831 10.3834 3.15375 10.5355C3.23919 10.6876 3.36231 10.8151 3.51129 10.9059L11.3923 15.9149C11.5743 16.0291 11.7849 16.0897 11.9998 16.0897C12.2147 16.0897 12.4253 16.0291 12.6073 15.9149L20.4883 10.9009C20.6373 10.8101 20.7604 10.6826 20.8458 10.5305C20.9313 10.3784 20.9761 10.2069 20.9761 10.0324C20.9761 9.85796 20.9313 9.68644 20.8458 9.53434C20.7604 9.38224 20.6373 9.25468 20.4883 9.16391L12.6073 4.15991C12.4254 4.04523 12.2148 3.98438 11.9998 3.98438C11.7848 3.98438 11.5742 4.04523 11.3923 4.15991Z" fill="#27D4FF"/>
<path d="M12.0402 19.9522C11.945 19.9524 11.8517 19.9253 11.7712 19.8742L3.01425 14.2932C2.95665 14.259 2.90652 14.2136 2.86682 14.1596C2.82712 14.1057 2.79867 14.0443 2.78314 13.9792C2.76762 13.914 2.76535 13.8464 2.77646 13.7803C2.78757 13.7143 2.81184 13.6511 2.84782 13.5946C2.88381 13.5382 2.93078 13.4895 2.98594 13.4515C3.04111 13.4135 3.10334 13.387 3.16895 13.3735C3.23456 13.36 3.30221 13.3599 3.36788 13.373C3.43356 13.3862 3.49591 13.4125 3.55125 13.4502L12.0352 18.8572L20.2002 13.4572C20.3108 13.384 20.446 13.3577 20.5759 13.3842C20.7059 13.4106 20.82 13.4876 20.8932 13.5982C20.9664 13.7088 20.9927 13.8439 20.9663 13.9739C20.9398 14.1039 20.8628 14.218 20.7522 14.2912L12.3162 19.8722C12.2341 19.9253 12.1381 19.9531 12.0402 19.9522Z" fill="#27D4FF"/>
</svg>
