<svg width="28" height="28" viewBox="0 0 28 28" fill="none" xmlns="http://www.w3.org/2000/svg">
<g id="light">
<g id="accident_32px">
<path id="Polygon 2" d="M12.2763 3.99616C13.0462 2.66795 14.9552 2.66795 15.725 3.99616L26.7271 22.9785C27.5021 24.3158 26.5424 25.9941 25.0027 25.9941H2.99863C1.45893 25.9941 0.499224 24.3158 1.27427 22.9786L12.2763 3.99616Z" fill="#FFE043"/>
<path id="Polygon 2 (Stroke)" fill-rule="evenodd" clip-rule="evenodd" d="M11.4135 3.49424C12.5682 1.50192 15.4318 1.50192 16.5865 3.49424L27.5886 22.4766C28.7512 24.4825 27.3116 27 25.0021 27H2.99795C0.6884 27 -0.751165 24.4825 0.411411 22.4766L11.4135 3.49424ZM14.8622 4.50395C14.4773 3.83984 13.5227 3.83984 13.1378 4.50395L2.13577 23.4863C1.74824 24.155 2.2281 24.9941 2.99795 24.9941H25.0021C25.7719 24.9941 26.2518 24.155 25.8642 23.4863L14.8622 4.50395Z" fill="#0A0F24"/>
<path id="&#237;&#140;&#168;&#236;&#138;&#164; 88633" d="M17.4448 17.446L16.0508 14.9409C15.9143 14.7173 15.7081 14.5441 15.4636 14.4478C15.2192 14.3514 14.9497 14.337 14.6963 14.4069L8.30162 16.1541C8.04861 16.2232 7.82509 16.3723 7.66488 16.579C7.50466 16.7857 7.41647 17.0386 7.41365 17.2996L7.50036 20.1607C7.27408 20.2946 7.09799 20.4984 6.99891 20.7411C6.89983 20.9837 6.8832 21.252 6.95155 21.5049L7.59037 23.8222C7.64716 24.0243 7.7562 24.2081 7.9066 24.3552C8.057 24.5023 8.24353 24.6077 8.4476 24.6608L8.65176 25.4012C8.67272 25.4773 8.70854 25.5485 8.75718 25.6108C8.80581 25.6731 8.86631 25.7253 8.93521 25.7643C9.00412 25.8034 9.08008 25.8285 9.15875 25.8384C9.23743 25.8482 9.31728 25.8425 9.39375 25.8216L9.97658 25.6633C10.1309 25.6209 10.262 25.5194 10.3412 25.3811C10.4204 25.2427 10.4412 25.0787 10.3992 24.9251L10.2389 24.3463L17.2252 22.4364L17.3844 23.0163C17.4053 23.0923 17.4412 23.1636 17.4898 23.2259C17.5384 23.2882 17.5989 23.3404 17.6678 23.3794C17.7367 23.4184 17.8127 23.4436 17.8914 23.4534C17.9701 23.4633 18.0499 23.4576 18.1264 23.4367L18.7081 23.2783C18.8624 23.236 18.9935 23.1345 19.0727 22.9961C19.1519 22.8578 19.1728 22.6938 19.1307 22.5402L18.9265 21.8009C19.075 21.6515 19.1816 21.466 19.2355 21.2629C19.2894 21.0598 19.2889 20.8462 19.2339 20.6433L18.5951 18.3261C18.5235 18.075 18.3717 17.8539 18.1625 17.6963C17.9534 17.5386 17.6983 17.4531 17.436 17.4525M9.07873 17.185L14.5558 15.69C14.6864 15.6545 14.8252 15.6636 14.95 15.7159C15.0748 15.7682 15.1783 15.8606 15.244 15.9783L16.2165 17.7255L8.69676 19.7807L8.63639 17.7823C8.63204 17.6483 8.6729 17.5166 8.75247 17.4084C8.83204 17.3001 8.94573 17.2215 9.07544 17.185M9.46619 22.6832C9.29346 22.7302 9.11061 22.7252 8.94075 22.6688C8.77088 22.6124 8.62163 22.5072 8.51187 22.3664C8.4021 22.2257 8.33675 22.0557 8.32407 21.878C8.31139 21.7003 8.35195 21.5228 8.44063 21.3681C8.52931 21.2133 8.66212 21.0882 8.82227 21.0085C8.98243 20.9288 9.16274 20.8981 9.3404 20.9204C9.51807 20.9426 9.68512 21.0168 9.82043 21.1334C9.95574 21.2501 10.0532 21.4041 10.1006 21.5759C10.1321 21.6901 10.1406 21.8093 10.1258 21.9267C10.1109 22.0441 10.0729 22.1575 10.014 22.2604C9.95511 22.3632 9.8764 22.4535 9.7824 22.526C9.6884 22.5986 9.58095 22.652 9.46619 22.6832ZM17.0397 20.6171C16.867 20.6643 16.6841 20.6595 16.5142 20.6033C16.3442 20.5471 16.1948 20.442 16.0849 20.3013C15.975 20.1607 15.9095 19.9907 15.8967 19.813C15.8838 19.6353 15.9242 19.4577 16.0128 19.3029C16.1014 19.148 16.2341 19.0227 16.3943 18.9429C16.5544 18.8631 16.7347 18.8324 16.9124 18.8545C17.0902 18.8767 17.2573 18.9508 17.3927 19.0674C17.5281 19.1841 17.6256 19.338 17.6731 19.5099C17.7367 19.7402 17.7057 19.9863 17.5869 20.194C17.4681 20.4016 17.2713 20.5538 17.0397 20.6171Z" fill="#0A0F24"/>
<path id="&#237;&#140;&#168;&#236;&#138;&#164; 88634" d="M16.5234 14.3345L16.8352 12.2969L17.7034 13.6258L20.24 12.2969L19.0161 14.6665L20.24 15.3086L18.9053 16.0162L20.24 17.7875L18.216 16.9925L16.5234 14.3345Z" fill="#0A0F24"/>
</g>
</g>
</svg>
