<svg width="28" height="28" viewBox="0 0 28 28" fill="none" xmlns="http://www.w3.org/2000/svg">
<path d="M12.2763 3.99665C13.0462 2.66844 14.9552 2.66843 15.725 3.99665L26.7271 22.979C27.5021 24.3163 26.5424 25.9946 25.0027 25.9946H2.99863C1.45893 25.9946 0.499224 24.3163 1.27427 22.979L12.2763 3.99665Z" fill="#0A0B14"/>
<path fill-rule="evenodd" clip-rule="evenodd" d="M11.4135 3.49473C12.5682 1.50241 15.4318 1.5024 16.5865 3.49473L27.5886 22.4771C28.7512 24.483 27.3116 27.0005 25.0021 27.0005H2.99795C0.6884 27.0005 -0.751165 24.483 0.411411 22.4771L11.4135 3.49473ZM14.8622 4.50444C14.4773 3.84033 13.5227 3.84033 13.1378 4.50444L2.13577 23.4868C1.74824 24.1554 2.2281 24.9946 2.99795 24.9946H25.0021C25.7719 24.9946 26.2518 24.1554 25.8642 23.4868L14.8622 4.50444Z" fill="#FFE043"/>
<path d="M12.3058 18.8178L12.7449 16.605C12.8026 16.3631 12.9066 16.1346 13.0511 15.9321H9.73081L10.1699 13.7369C10.1856 13.6565 10.2288 13.5841 10.2921 13.532C10.3554 13.48 10.4348 13.4515 10.5167 13.4515H14.8622C14.9441 13.4515 15.0235 13.48 15.0867 13.532C15.15 13.5841 15.1932 13.6565 15.209 13.7369L15.5043 15.222H16.5876L16.1881 13.2254C16.154 13.0039 16.0456 12.8005 15.8806 12.6487C15.7157 12.4969 15.504 12.4057 15.2804 12.3901H10.0919C9.8683 12.4057 9.65661 12.4969 9.49166 12.6487C9.3267 12.8005 9.21828 13.0039 9.1842 13.2254L8.64636 15.9321H8.43452C8.24694 15.9327 8.0672 16.0075 7.93456 16.1401C7.80192 16.2728 7.72714 16.4525 7.72656 16.6401V19.4741C7.72714 19.6617 7.80192 19.8415 7.93456 19.9741C8.0672 20.1068 8.24694 20.1815 8.43452 20.1821H9.14249V20.8901C9.14249 21.078 9.21713 21.2582 9.35 21.3911C9.48288 21.5239 9.66309 21.5986 9.851 21.5986C10.0389 21.5986 10.2191 21.5239 10.352 21.3911C10.4849 21.2582 10.5595 21.078 10.5595 20.8901V20.1832H11.2675C11.2679 19.8738 11.3693 19.573 11.5564 19.3266C11.7434 19.0801 12.0058 18.9015 12.3036 18.8178M9.49592 18.4117C9.3559 18.4117 9.21902 18.3701 9.1026 18.2923C8.98617 18.2145 8.89543 18.104 8.84185 17.9746C8.78826 17.8453 8.77424 17.7029 8.80156 17.5656C8.82888 17.4282 8.8963 17.3021 8.99531 17.2031C9.09432 17.1041 9.22047 17.0367 9.3578 17.0093C9.49513 16.982 9.63748 16.996 9.76684 17.0496C9.89621 17.1032 10.0068 17.1939 10.0846 17.3104C10.1624 17.4268 10.2039 17.5637 10.2039 17.7037C10.2039 17.8915 10.1293 18.0715 9.99652 18.2043C9.86375 18.3371 9.68368 18.4117 9.49592 18.4117Z" fill="#FFE043"/>
<path d="M21.1885 19.4736H20.9799L20.4421 16.7669C20.4079 16.545 20.2992 16.3414 20.1338 16.1895C19.9684 16.0377 19.7562 15.9467 19.5322 15.9316H14.3449C14.1212 15.9472 13.9095 16.0384 13.7446 16.1902C13.5796 16.342 13.4712 16.5454 13.4371 16.7669L12.8993 19.4736H12.6875C12.4999 19.4742 12.3201 19.549 12.1875 19.6816C12.0548 19.8143 11.9801 19.994 11.9795 20.1816V23.0156C11.9801 23.2032 12.0548 23.383 12.1875 23.5156C12.3201 23.6483 12.4999 23.723 12.6875 23.7236H13.3954V24.4316C13.4026 24.6147 13.4804 24.7878 13.6125 24.9148C13.7446 25.0418 13.9207 25.1127 14.1039 25.1127C14.2872 25.1127 14.4633 25.0418 14.5953 24.9148C14.7274 24.7878 14.8052 24.6147 14.8124 24.4316V23.7247H19.0624V24.4327C19.0696 24.6158 19.1474 24.7889 19.2795 24.9159C19.4116 25.0429 19.5877 25.1138 19.7709 25.1138C19.9541 25.1138 20.1303 25.0429 20.2623 24.9159C20.3944 24.7889 20.4722 24.6158 20.4794 24.4327V23.7247H21.1874C21.375 23.7241 21.5547 23.6494 21.6874 23.5167C21.82 23.3841 21.8948 23.2043 21.8953 23.0167V20.1816C21.8948 19.994 21.82 19.8143 21.6874 19.6816C21.5547 19.549 21.375 19.4742 21.1874 19.4736M13.751 21.9488C13.611 21.9488 13.4741 21.9072 13.3577 21.8295C13.2413 21.7517 13.1506 21.6411 13.097 21.5117C13.0434 21.3824 13.0294 21.24 13.0567 21.1027C13.084 20.9654 13.1514 20.8392 13.2504 20.7402C13.3494 20.6412 13.4756 20.5738 13.6129 20.5464C13.7503 20.5191 13.8926 20.5332 14.022 20.5867C14.1513 20.6403 14.2619 20.7311 14.3397 20.8475C14.4175 20.9639 14.459 21.1008 14.459 21.2408C14.459 21.4286 14.3844 21.6086 14.2516 21.7414C14.1189 21.8742 13.9388 21.9488 13.751 21.9488ZM17.6476 19.4693H13.9826L14.4217 17.274C14.4375 17.1936 14.4807 17.1212 14.5439 17.0692C14.6072 17.0171 14.6866 16.9886 14.7685 16.9886H19.114C19.1959 16.9886 19.2753 17.0171 19.3386 17.0692C19.4018 17.1212 19.4451 17.1936 19.4608 17.274L19.8999 19.4693H17.6476ZM20.1271 21.9488C19.9871 21.9488 19.8502 21.9072 19.7338 21.8295C19.6173 21.7517 19.5266 21.6411 19.473 21.5117C19.4194 21.3824 19.4054 21.24 19.4327 21.1027C19.46 20.9654 19.5275 20.8392 19.6265 20.7402C19.7255 20.6412 19.8516 20.5738 19.989 20.5464C20.1263 20.5191 20.2687 20.5332 20.398 20.5867C20.5274 20.6403 20.6379 20.7311 20.7157 20.8475C20.7935 20.9639 20.8351 21.1008 20.8351 21.2408C20.8351 21.4286 20.7605 21.6086 20.6277 21.7414C20.4949 21.8742 20.3149 21.9488 20.1271 21.9488Z" fill="#FFE043"/>
</svg>
