<svg width="28" height="28" viewBox="0 0 28 28" fill="none" xmlns="http://www.w3.org/2000/svg">
<path d="M12.2763 3.99665C13.0462 2.66844 14.9552 2.66843 15.725 3.99665L26.7271 22.979C27.5021 24.3163 26.5424 25.9946 25.0027 25.9946H2.99863C1.45893 25.9946 0.499224 24.3163 1.27427 22.979L12.2763 3.99665Z" fill="#0A0B14"/>
<path fill-rule="evenodd" clip-rule="evenodd" d="M11.4135 3.49473C12.5682 1.50241 15.4318 1.5024 16.5865 3.49473L27.5886 22.4771C28.7512 24.483 27.3116 27.0005 25.0021 27.0005H2.99795C0.6884 27.0005 -0.751165 24.483 0.411411 22.4771L11.4135 3.49473ZM14.8622 4.50444C14.4773 3.84033 13.5227 3.84033 13.1378 4.50444L2.13577 23.4868C1.74824 24.1554 2.2281 24.9946 2.99795 24.9946H25.0021C25.7719 24.9946 26.2518 24.1554 25.8642 23.4868L14.8622 4.50444Z" fill="#FFE043"/>
<path d="M20.3421 16.7933C20.3853 16.7933 20.4282 16.7848 20.4681 16.7683C20.5081 16.7517 20.5444 16.7275 20.5749 16.6969C20.6055 16.6663 20.6298 16.63 20.6463 16.5901C20.6629 16.5501 20.6714 16.5073 20.6714 16.464V15.8055C20.6714 15.7622 20.6629 15.7194 20.6463 15.6795C20.6298 15.6395 20.6055 15.6032 20.5749 15.5726C20.5444 15.5421 20.5081 15.5178 20.4681 15.5013C20.4282 15.4847 20.3853 15.4762 20.3421 15.4762H19.3542V15.1469C19.3542 15.0596 19.3196 14.9758 19.2578 14.9141C19.196 14.8523 19.1123 14.8176 19.025 14.8176H18.6957V13.8298C18.6957 13.7424 18.661 13.6587 18.5992 13.5969C18.5375 13.5352 18.4537 13.5005 18.3664 13.5005H17.7078C17.6205 13.5005 17.5367 13.5352 17.475 13.5969C17.4132 13.6587 17.3785 13.7424 17.3785 13.8298V14.8176H17.0493C16.9619 14.8176 16.8782 14.8523 16.8164 14.9141C16.7547 14.9758 16.72 15.0596 16.72 15.1469V15.4762H11.4514V15.1469C11.4514 15.0596 11.4167 14.9758 11.355 14.9141C11.2932 14.8523 11.2095 14.8176 11.1221 14.8176H10.7928V13.8298C10.7928 13.7424 10.7582 13.6587 10.6964 13.5969C10.6346 13.5352 10.5509 13.5005 10.4636 13.5005H9.80499C9.76175 13.5005 9.71893 13.509 9.67898 13.5256C9.63903 13.5421 9.60273 13.5664 9.57215 13.5969C9.54158 13.6275 9.51732 13.6638 9.50077 13.7038C9.48422 13.7437 9.47571 13.7865 9.47571 13.8298V14.8176H9.14642C9.05909 14.8176 8.97534 14.8523 8.91358 14.9141C8.85183 14.9758 8.81714 15.0596 8.81714 15.1469V15.4762H7.82928C7.74195 15.4762 7.6582 15.5109 7.59644 15.5726C7.53469 15.6344 7.5 15.7181 7.5 15.8055V16.464C7.5 16.5514 7.53469 16.6351 7.59644 16.6969C7.6582 16.7586 7.74195 16.7933 7.82928 16.7933H8.15857V16.8175L8.19918 16.7933H9.6645L11.5612 20.0862H10.0454L8.15857 16.8142V20.0862H7.82928C7.78604 20.0862 7.74322 20.0947 7.70327 20.1112C7.66332 20.1278 7.62702 20.152 7.59644 20.1826C7.56587 20.2132 7.54161 20.2495 7.52506 20.2895C7.50852 20.3294 7.5 20.3722 7.5 20.4155V21.074C7.5 21.1614 7.53469 21.2451 7.59644 21.3069C7.6582 21.3686 7.74195 21.4033 7.82928 21.4033H9.47571V24.0376H9.14642C9.05909 24.0376 8.97534 24.0723 8.91358 24.134C8.85183 24.1958 8.81714 24.2795 8.81714 24.3669V25.3547H11.4514V24.3669C11.4514 24.2795 11.4167 24.1958 11.355 24.134C11.2932 24.0723 11.2095 24.0376 11.1221 24.0376H10.7928V21.4033H17.3785V24.0376H17.0493C17.006 24.0376 16.9632 24.0461 16.9232 24.0627C16.8833 24.0792 16.847 24.1035 16.8164 24.134C16.7858 24.1646 16.7616 24.2009 16.745 24.2409C16.7285 24.2808 16.72 24.3236 16.72 24.3669V25.3547H19.3542V24.3669C19.3542 24.2795 19.3196 24.1958 19.2578 24.134C19.196 24.0723 19.1123 24.0376 19.025 24.0376H18.6957V21.4033H20.3421C20.4294 21.4033 20.5132 21.3686 20.5749 21.3069C20.6367 21.2451 20.6714 21.1614 20.6714 21.074V20.4155C20.6714 20.3281 20.6367 20.2444 20.5749 20.1826C20.5132 20.1209 20.4294 20.0862 20.3421 20.0862H20.0128V16.7933H20.3421ZM13.7707 16.7933H15.2382L17.1393 20.0862H15.6224L13.7301 16.8175L13.7707 16.7933ZM10.9169 16.7933H12.4393L14.3414 20.0862H12.8212L10.9169 16.7933ZM18.4904 20.0862L16.5861 16.7933H18.1074L20.0128 20.0862H18.4904Z" fill="#FFE043"/>
</svg>
