<svg width="28" height="28" viewBox="0 0 28 28" fill="none" xmlns="http://www.w3.org/2000/svg">
<g id="light">
<g id="&#234;&#183;&#184;&#235;&#163;&#185; 169494">
<path id="Polygon 2" d="M12.2763 3.99616C13.0462 2.66795 14.9552 2.66795 15.725 3.99616L26.7271 22.9785C27.5021 24.3158 26.5424 25.9941 25.0027 25.9941H2.99863C1.45893 25.9941 0.499224 24.3158 1.27427 22.9786L12.2763 3.99616Z" fill="#FFE043"/>
<path id="Polygon 2 (Stroke)" fill-rule="evenodd" clip-rule="evenodd" d="M11.4135 3.49424C12.5682 1.50192 15.4318 1.50192 16.5865 3.49424L27.5886 22.4766C28.7512 24.4825 27.3116 27 25.0021 27H2.99795C0.6884 27 -0.751165 24.4825 0.411411 22.4766L11.4135 3.49424ZM14.8622 4.50395C14.4773 3.83984 13.5227 3.83984 13.1378 4.50395L2.13577 23.4863C1.74824 24.155 2.2281 24.9941 2.99795 24.9941H25.0021C25.7719 24.9941 26.2518 24.155 25.8642 23.4863L14.8622 4.50395Z" fill="black"/>
<path id="&#237;&#140;&#168;&#236;&#138;&#164; 88655" d="M17.4649 26.3235H9.84089C9.74922 26.3235 9.65844 26.3054 9.57374 26.2703C9.48905 26.2353 9.41209 26.1838 9.34727 26.119C9.28245 26.0542 9.23103 25.9772 9.19594 25.8926C9.16086 25.8079 9.14281 25.7171 9.14281 25.6254C9.14281 25.5337 9.16086 25.443 9.19594 25.3583C9.23103 25.2736 9.28245 25.1966 9.34727 25.1318C9.41209 25.067 9.48905 25.0155 9.57374 24.9805C9.65844 24.9454 9.74922 24.9273 9.84089 24.9273H10.5335V21.4358C10.5497 20.5273 10.9219 19.6615 11.5701 19.0248C12.2183 18.388 13.0906 18.0312 13.9992 18.0312C14.9078 18.0312 15.7801 18.388 16.4283 19.0248C17.0765 19.6615 17.4488 20.5273 17.4649 21.4358V24.9273H18.1597C18.2514 24.9273 18.3422 24.9454 18.4269 24.9805C18.5116 25.0155 18.5885 25.067 18.6533 25.1318C18.7182 25.1966 18.7696 25.2736 18.8047 25.3583C18.8397 25.443 18.8578 25.5337 18.8578 25.6254C18.8578 25.7171 18.8397 25.8079 18.8047 25.8926C18.7696 25.9772 18.7182 26.0542 18.6533 26.119C18.5885 26.1838 18.5116 26.2353 18.4269 26.2703C18.3422 26.3054 18.2514 26.3235 18.1597 26.3235H17.4649ZM11.574 21.0857C11.574 21.1774 11.6105 21.2653 11.6753 21.3301C11.7401 21.395 11.8281 21.4314 11.9198 21.4314C12.0115 21.4314 12.0994 21.395 12.1643 21.3301C12.2291 21.2653 12.2655 21.1774 12.2655 21.0857C12.2595 20.9082 12.2885 20.7313 12.3509 20.5651C12.4134 20.3988 12.5079 20.2465 12.6292 20.1169C12.7505 19.9872 12.8962 19.8827 13.0579 19.8094C13.2196 19.736 13.3942 19.6953 13.5717 19.6895C13.5991 19.6895 13.6277 19.6895 13.6551 19.6895C13.748 19.6895 13.837 19.6526 13.9027 19.5869C13.9684 19.5213 14.0052 19.4322 14.0052 19.3394C14.0052 19.2465 13.9684 19.1574 13.9027 19.0918C13.837 19.0261 13.748 18.9892 13.6551 18.9892C13.3906 18.9795 13.1268 19.0221 12.8788 19.1145C12.6308 19.2069 12.4034 19.3472 12.2097 19.5276C12.016 19.7079 11.8598 19.9247 11.7499 20.1655C11.6401 20.4063 11.5788 20.6664 11.5696 20.9309C11.5696 20.9825 11.5696 21.033 11.5696 21.0846L11.574 21.0857ZM18.8534 21.0857C18.7614 21.0857 18.6732 21.0491 18.6082 20.9841C18.5431 20.919 18.5066 20.8308 18.5066 20.7388C18.5066 20.6465 18.543 20.558 18.6079 20.4924C18.6729 20.4268 18.7611 20.3896 18.8534 20.3887H20.2386C20.3315 20.3887 20.4205 20.4256 20.4862 20.4912C20.5518 20.5569 20.5887 20.646 20.5887 20.7388C20.5887 20.8317 20.5518 20.9207 20.4862 20.9864C20.4205 21.0521 20.3315 21.089 20.2386 21.089L18.8534 21.0857ZM7.76201 21.0857C7.66992 21.0857 7.58158 21.0492 7.51636 20.9841C7.45114 20.9191 7.41435 20.8309 7.41406 20.7388C7.41406 20.6463 7.45065 20.5576 7.51584 20.492C7.58103 20.4264 7.66952 20.3893 7.76201 20.3887H9.1472C9.24006 20.3887 9.32912 20.4256 9.39478 20.4912C9.46045 20.5569 9.49734 20.646 9.49734 20.7388C9.49734 20.8317 9.46045 20.9207 9.39478 20.9864C9.32912 21.0521 9.24006 21.089 9.1472 21.089L7.76201 21.0857ZM17.2224 18.188C17.1574 18.1252 17.1201 18.0392 17.1184 17.9489C17.1168 17.8585 17.151 17.7712 17.2136 17.7061L17.2224 17.6962L18.2003 16.7084C18.2322 16.6764 18.2701 16.6511 18.3119 16.6338C18.3536 16.6165 18.3983 16.6076 18.4434 16.6076C18.4886 16.6076 18.5333 16.6165 18.575 16.6338C18.6168 16.6511 18.6547 16.6764 18.6866 16.7084H18.6932C18.7571 16.7745 18.7928 16.8628 18.7928 16.9548C18.7928 17.0467 18.7571 17.1351 18.6932 17.2012L17.7053 18.1891C17.6413 18.2528 17.5547 18.2886 17.4644 18.2886C17.3741 18.2886 17.2874 18.2528 17.2234 18.1891L17.2224 18.188ZM10.2876 18.188L9.30745 17.2001C9.24354 17.134 9.20781 17.0456 9.20781 16.9537C9.20781 16.8617 9.24354 16.7734 9.30745 16.7073C9.33917 16.6754 9.37688 16.6501 9.41842 16.6328C9.45995 16.6155 9.50449 16.6067 9.54947 16.6067C9.59445 16.6067 9.63899 16.6155 9.68053 16.6328C9.72206 16.6501 9.75977 16.6754 9.7915 16.7073H9.79808L10.7783 17.6951C10.8435 17.7602 10.8802 17.8485 10.8803 17.9406C10.8804 18.0327 10.8439 18.1211 10.7788 18.1863C10.7137 18.2515 10.6254 18.2882 10.5333 18.2883C10.4412 18.2884 10.3528 18.2519 10.2876 18.1869M13.6551 16.5404V15.1465C13.6525 15.0995 13.6594 15.0525 13.6756 15.0083C13.6917 14.9641 13.7167 14.9237 13.749 14.8895C13.7813 14.8553 13.8203 14.8281 13.8635 14.8095C13.9067 14.7909 13.9533 14.7812 14.0003 14.7812C14.0473 14.7812 14.0939 14.7909 14.1371 14.8095C14.1803 14.8281 14.2193 14.8553 14.2516 14.8895C14.2839 14.9237 14.3089 14.9641 14.325 15.0083C14.3412 15.0525 14.3482 15.0995 14.3455 15.1465V16.5415C14.3405 16.6297 14.302 16.7127 14.2378 16.7733C14.1736 16.834 14.0886 16.8678 14.0003 16.8678C13.912 16.8678 13.827 16.834 13.7628 16.7733C13.6986 16.7127 13.6601 16.6297 13.6551 16.5415" fill="black"/>
</g>
</g>
</svg>
