<svg width="24" height="24" viewBox="0 0 24 24" fill="none" xmlns="http://www.w3.org/2000/svg">
<mask id="mask0_261_4764" style="mask-type:luminance" maskUnits="userSpaceOnUse" x="0" y="0" width="24" height="24">
<path d="M24 0H0V24H24V0Z" fill="white"/>
</mask>
<g mask="url(#mask0_261_4764)">
<mask id="mask1_261_4764" style="mask-type:luminance" maskUnits="userSpaceOnUse" x="0" y="0" width="24" height="24">
<path d="M24 0H0V24H24V0Z" fill="white"/>
</mask>
<g mask="url(#mask1_261_4764)">
<path d="M11.4382 6.77734C9.04719 6.90139 6.77145 7.84332 4.99219 9.44534L8.17419 12.6273C9.10118 11.8585 10.239 11.3879 11.4382 11.2773V6.77734Z" fill="#27D4FF"/>
<path d="M19.4005 9.79844C17.572 7.98164 15.1368 6.90436 12.5625 6.77344V11.2734C13.9423 11.4012 15.2347 12.0047 16.2185 12.9804L19.4005 9.79844Z" fill="#27D4FF"/>
<path d="M16.9414 13.8496C17.5052 14.6664 17.8565 15.6109 17.9634 16.5976C17.9848 16.7782 18.072 16.9445 18.2084 17.0648C18.3447 17.1851 18.5206 17.2509 18.7024 17.2496H21.7174C21.8224 17.2486 21.9261 17.2257 22.0218 17.1825C22.1175 17.1394 22.2033 17.0768 22.2736 16.9988C22.3439 16.9208 22.3972 16.829 22.4302 16.7293C22.4633 16.6296 22.4752 16.5242 22.4654 16.4196C22.2997 14.303 21.4929 12.2871 20.1524 10.6406L16.9414 13.8496Z" fill="#27D4FF"/>
<path d="M4.19896 10.2422C2.65292 11.954 1.716 14.1288 1.53396 16.4282C1.52513 16.5324 1.53795 16.6373 1.57163 16.7363C1.60531 16.8353 1.6591 16.9263 1.72964 17.0035C1.80018 17.0807 1.88593 17.1425 1.98149 17.1849C2.07706 17.2274 2.18038 17.2496 2.28496 17.2502H5.29896C5.48083 17.2517 5.65685 17.1859 5.79323 17.0656C5.92962 16.9453 6.01677 16.7788 6.03796 16.5982C6.16426 15.4311 6.63174 14.3271 7.38196 13.4242L4.19896 10.2422Z" fill="#27D4FF"/>
</g>
</g>
</svg>
