<svg width="28" height="28" viewBox="0 0 28 28" fill="none" xmlns="http://www.w3.org/2000/svg">
<path d="M12.2763 3.99616C13.0462 2.66795 14.9552 2.66795 15.725 3.99616L26.7271 22.9785C27.5021 24.3158 26.5424 25.9941 25.0027 25.9941H2.99863C1.45893 25.9941 0.499224 24.3158 1.27427 22.9786L12.2763 3.99616Z" fill="#0A0B14"/>
<path fill-rule="evenodd" clip-rule="evenodd" d="M11.4135 3.49424C12.5682 1.50192 15.4318 1.50192 16.5865 3.49424L27.5886 22.4766C28.7512 24.4825 27.3116 27 25.0021 27H2.99795C0.6884 27 -0.751165 24.4825 0.411411 22.4766L11.4135 3.49424ZM14.8622 4.50395C14.4773 3.83984 13.5227 3.83984 13.1378 4.50395L2.13577 23.4863C1.74824 24.155 2.2281 24.9941 2.99795 24.9941H25.0021C25.7719 24.9941 26.2518 24.155 25.8642 23.4863L14.8622 4.50395Z" fill="#FFE043"/>
<path d="M14.4988 12.3335C14.7296 12.3335 14.9551 12.2651 15.147 12.1369C15.3389 12.0087 15.4884 11.8265 15.5767 11.6133C15.6651 11.4001 15.6882 11.1655 15.6431 10.9391C15.5981 10.7128 15.487 10.5049 15.3238 10.3417C15.1606 10.1786 14.9528 10.0674 14.7264 10.0224C14.5001 9.9774 14.2655 10.0005 14.0523 10.0888C13.8391 10.1771 13.6569 10.3267 13.5287 10.5185C13.4005 10.7104 13.332 10.936 13.332 11.1668C13.332 11.4762 13.455 11.773 13.6738 11.9918C13.8926 12.2106 14.1894 12.3335 14.4988 12.3335Z" fill="#FFE043"/>
<path d="M15.95 22.4197L14.668 20.1992L14.668 25H17.5492L17.2638 22.963C17.0145 23.03 16.75 23.0125 16.5117 22.9132C16.2734 22.8139 16.0747 22.6384 15.9467 22.4142" fill="#FFE043"/>
<path d="M20.6687 20.0039H18.1211L18.8993 25H22.0023L20.6687 20.0039Z" fill="#FFE043"/>
<path d="M13.3364 21.8363C13.3271 22.1397 13.2001 22.4276 12.9822 22.6389C12.7643 22.8502 12.4727 22.9684 12.1691 22.9684C11.8656 22.9684 11.574 22.8502 11.3561 22.6389C11.1382 22.4276 11.0111 22.1397 11.0018 21.8363V21.3281L10.4453 25H13.3364" fill="#FFE043"/>
<path d="M5.90625 25H8.99823L9.86991 20.0039H7.33332L5.90625 25Z" fill="#FFE043"/>
<path d="M17.1881 22.2677C17.5229 22.0482 17.5316 21.8287 17.3933 21.585L15.8358 18.8871V13.9698L16.9653 14.8665V16.1672C16.9621 16.2348 16.9727 16.3024 16.9964 16.3658C17.0201 16.4292 17.0564 16.4872 17.1031 16.5362C17.1499 16.5851 17.2061 16.6241 17.2683 16.6508C17.3305 16.6774 17.3975 16.6911 17.4652 16.6911C17.5329 16.6911 17.5999 16.6774 17.6622 16.6508C17.7244 16.6241 17.7806 16.5851 17.8273 16.5362C17.8741 16.4872 17.9104 16.4292 17.9341 16.3658C17.9578 16.3024 17.9684 16.2348 17.9652 16.1672V14.6283C17.9651 14.5531 17.9481 14.4788 17.9154 14.4109C17.8827 14.3431 17.8352 14.2835 17.7764 14.2365L16.1476 12.9435C16.103 12.9075 16.0525 12.8797 15.9983 12.8612C15.9451 12.8473 15.8907 12.8389 15.8358 12.8359H13.1412C13.0084 12.8359 12.8811 12.8887 12.7873 12.9825C12.6934 13.0764 12.6407 13.2037 12.6407 13.3365C12.6266 13.8988 12.3915 14.433 11.9864 14.8234C11.5813 15.2137 11.0387 15.4287 10.4762 15.4219C10.3472 15.4302 10.2264 15.4881 10.1391 15.5835C10.0518 15.6788 10.0048 15.8043 10.008 15.9335C10.0111 16.0627 10.0641 16.1857 10.1559 16.2768C10.2476 16.3678 10.3711 16.4198 10.5003 16.4218C11.0211 16.4019 11.5308 16.266 11.9924 16.0241C12.454 15.7822 12.8559 15.4403 13.1686 15.0235V16.6699L11.7571 18.7433C11.7007 18.8266 11.6705 18.9248 11.6704 19.0254V21.8386C11.6672 21.9062 11.6778 21.9738 11.7015 22.0372C11.7252 22.1006 11.7615 22.1586 11.8082 22.2075C11.855 22.2565 11.9112 22.2955 11.9734 22.3221C12.0356 22.3488 12.1026 22.3625 12.1703 22.3625C12.238 22.3625 12.305 22.3488 12.3673 22.3221C12.4295 22.2955 12.4857 22.2565 12.5324 22.2075C12.5792 22.1586 12.6155 22.1006 12.6392 22.0372C12.6629 21.9738 12.6735 21.9062 12.6703 21.8386V19.1791L14.2618 16.8378H14.8392V19.0254C14.8392 19.1129 14.8623 19.1988 14.9061 19.2745L16.5306 22.0888C16.5745 22.1646 16.6376 22.2276 16.7135 22.2713C16.7894 22.315 16.8755 22.338 16.9631 22.338C17.0433 22.3357 17.1216 22.3126 17.1903 22.271" fill="#FFE043"/>
</svg>
