<svg width="28" height="28" viewBox="0 0 28 28" fill="none" xmlns="http://www.w3.org/2000/svg">
<path d="M12.2763 3.99519C13.0462 2.66697 14.9552 2.66697 15.725 3.99518L26.7271 22.9776C27.5021 24.3148 26.5424 25.9932 25.0027 25.9932H2.99863C1.45893 25.9932 0.499224 24.3148 1.27427 22.9776L12.2763 3.99519Z" fill="#0A0B14"/>
<path fill-rule="evenodd" clip-rule="evenodd" d="M11.4135 3.49327C12.5682 1.50095 15.4318 1.50094 16.5865 3.49326L27.5886 22.4757C28.7512 24.4815 27.3116 26.999 25.0021 26.999H2.99795C0.6884 26.999 -0.751165 24.4815 0.411411 22.4757L11.4135 3.49327ZM14.8622 4.50297C14.4773 3.83887 13.5227 3.83887 13.1378 4.50298L2.13577 23.4854C1.74824 24.154 2.2281 24.9932 2.99795 24.9932H25.0021C25.7719 24.9932 26.2518 24.154 25.8642 23.4854L14.8622 4.50297Z" fill="#FFE043"/>
<path d="M16.2981 13.1685C15.7318 13.1687 15.1782 13.3368 14.7075 13.6516C14.2367 13.9664 13.8698 14.4137 13.6532 14.937C13.4366 15.4603 13.3801 16.0361 13.4907 16.5915C13.6013 17.1469 13.8742 17.6571 14.2747 18.0574C14.6752 18.4578 15.1855 18.7305 15.741 18.8409C16.2964 18.9513 16.8722 18.8945 17.3954 18.6777C17.9186 18.4609 18.3657 18.0939 18.6804 17.623C18.995 17.1521 19.1629 16.5985 19.1629 16.0321C19.1629 15.656 19.0888 15.2835 18.9448 14.936C18.8008 14.5885 18.5898 14.2728 18.3238 14.0068C18.0577 13.7409 17.7419 13.53 17.3943 13.3861C17.0468 13.2423 16.6743 13.1683 16.2981 13.1685ZM16.7503 17.6895C16.7516 17.722 16.7461 17.7543 16.7343 17.7845C16.7225 17.8148 16.7047 17.8423 16.6818 17.8653C16.659 17.8884 16.6316 17.9065 16.6015 17.9185C16.5714 17.9306 16.5391 17.9363 16.5067 17.9354H16.0896C16.0573 17.936 16.0252 17.93 15.9953 17.9179C15.9653 17.9057 15.9382 17.8875 15.9155 17.8645C15.8928 17.8415 15.875 17.8142 15.8633 17.7841C15.8515 17.754 15.846 17.7218 15.847 17.6895V17.2505C15.8456 17.2181 15.851 17.1858 15.8626 17.1556C15.8743 17.1253 15.892 17.0978 15.9148 17.0748C15.9376 17.0517 15.9648 17.0336 15.9949 17.0215C16.025 17.0094 16.0572 17.0037 16.0896 17.0046H16.5067C16.539 17.0042 16.5711 17.0102 16.601 17.0225C16.6309 17.0347 16.658 17.0528 16.6808 17.0758C16.7035 17.0987 16.7214 17.126 16.7334 17.156C16.7453 17.1861 16.7511 17.2182 16.7503 17.2505V17.6895ZM16.7503 16.3285C16.7469 16.3955 16.7177 16.4585 16.6688 16.5043C16.6199 16.5502 16.5551 16.5753 16.488 16.5744H16.106C16.0391 16.5753 15.9744 16.5502 15.9257 16.5043C15.8769 16.4584 15.8479 16.3954 15.8448 16.3285L15.7768 14.3813C15.7755 14.3505 15.7805 14.3197 15.7915 14.2909C15.8024 14.262 15.8191 14.2357 15.8404 14.2134C15.8656 14.1865 15.896 14.165 15.9298 14.1503C15.9636 14.1355 16 14.1279 16.0369 14.1278H16.5561C16.5935 14.1277 16.6305 14.1354 16.6647 14.1505C16.699 14.1657 16.7296 14.1878 16.7547 14.2156C16.7759 14.2377 16.7923 14.2639 16.8031 14.2926C16.8138 14.3213 16.8187 14.3518 16.8173 14.3824L16.7503 16.3285Z" fill="#FFE043"/>
<path d="M17.8829 19.8294L17.8346 19.6252C17.0113 19.9791 16.0907 20.0361 15.23 19.7866H10.0712L10.4784 18.0512C10.5052 17.9359 10.5702 17.833 10.6628 17.7592C10.7555 17.6855 10.8704 17.6453 10.9888 17.6451H12.745C12.5906 17.3045 12.4863 16.9433 12.4355 16.5728H10.5783C10.3494 16.5747 10.1274 16.6518 9.94654 16.7922C9.76568 16.9326 9.63595 17.1286 9.57727 17.3499L8.99334 19.8327C8.77174 19.898 8.57744 20.0337 8.43981 20.2192C8.30218 20.4048 8.2287 20.6301 8.2305 20.8611V23.0015C8.22996 23.1873 8.27773 23.3701 8.36913 23.532C8.46053 23.6938 8.59242 23.8291 8.75187 23.9246V24.6095C8.75085 24.6788 8.7635 24.7477 8.7891 24.8121C8.8147 24.8766 8.85274 24.9353 8.90105 24.9851C8.94936 25.0348 9.007 25.0746 9.07067 25.102C9.13435 25.1295 9.2028 25.1441 9.27214 25.1451H9.7935C9.93363 25.1431 10.0672 25.0856 10.165 24.9851C10.2627 24.8847 10.3166 24.7496 10.3149 24.6095V24.0739H16.5625V24.6095C16.5615 24.6788 16.5741 24.7477 16.5997 24.8121C16.6253 24.8766 16.6634 24.9353 16.7117 24.9851C16.76 25.0348 16.8176 25.0746 16.8813 25.102C16.945 25.1295 17.0134 25.1441 17.0828 25.1451H17.6041C17.7443 25.1431 17.8779 25.0856 17.9756 24.9851C18.0734 24.8847 18.1273 24.7496 18.1255 24.6095V23.9246C18.2848 23.829 18.4165 23.6937 18.5078 23.5319C18.599 23.37 18.6465 23.1873 18.6458 23.0015V20.8578C18.6476 20.6268 18.5741 20.4015 18.4365 20.2159C18.2988 20.0304 18.1045 19.8947 17.8829 19.8294ZM10.0536 22.4637C9.89356 22.4682 9.73576 22.425 9.60043 22.3393C9.4651 22.2537 9.3584 22.1297 9.29399 21.983C9.22958 21.8364 9.21038 21.6739 9.23886 21.5163C9.26735 21.3588 9.3422 21.2133 9.45386 21.0985C9.56552 20.9837 9.70889 20.9048 9.86563 20.872C10.0224 20.8391 10.1853 20.8538 10.3337 20.9142C10.482 20.9745 10.609 21.0777 10.6983 21.2106C10.7877 21.3435 10.8353 21.5001 10.8351 21.6602C10.8366 21.7643 10.8175 21.8676 10.779 21.9643C10.7405 22.061 10.6834 22.1492 10.6108 22.2238C10.5382 22.2984 10.4517 22.358 10.3561 22.3991C10.2605 22.4403 10.1577 22.4622 10.0536 22.4637ZM16.8237 22.4637C16.6637 22.4682 16.5059 22.425 16.3705 22.3393C16.2352 22.2537 16.1285 22.1297 16.0641 21.983C15.9997 21.8364 15.9805 21.6739 16.009 21.5163C16.0374 21.3588 16.1123 21.2133 16.224 21.0985C16.3356 20.9837 16.479 20.9048 16.6357 20.872C16.7925 20.8391 16.9554 20.8538 17.1038 20.9142C17.2521 20.9745 17.3791 21.0777 17.4684 21.2106C17.5577 21.3435 17.6054 21.5001 17.6052 21.6602C17.6067 21.7643 17.5876 21.8676 17.5491 21.9643C17.5106 22.061 17.4535 22.1492 17.3809 22.2238C17.3083 22.2984 17.2218 22.358 17.1262 22.3991C17.0306 22.4403 16.9278 22.4622 16.8237 22.4637Z" fill="#FFE043"/>
</svg>
