<svg width="28" height="28" viewBox="0 0 28 28" fill="none" xmlns="http://www.w3.org/2000/svg">
<path d="M12.2763 3.99616C13.0462 2.66795 14.9552 2.66795 15.725 3.99616L26.7271 22.9785C27.5021 24.3158 26.5424 25.9941 25.0027 25.9941H2.99863C1.45893 25.9941 0.499224 24.3158 1.27427 22.9786L12.2763 3.99616Z" fill="#0A0B14"/>
<path fill-rule="evenodd" clip-rule="evenodd" d="M11.4135 3.49424C12.5682 1.50192 15.4318 1.50192 16.5865 3.49424L27.5886 22.4766C28.7512 24.4825 27.3116 27 25.0021 27H2.99795C0.6884 27 -0.751165 24.4825 0.411411 22.4766L11.4135 3.49424ZM14.8622 4.50395C14.4773 3.83984 13.5227 3.83984 13.1378 4.50395L2.13577 23.4863C1.74824 24.155 2.2281 24.9941 2.99795 24.9941H25.0021C25.7719 24.9941 26.2518 24.155 25.8642 23.4863L14.8622 4.50395Z" fill="#FFE043"/>
<path d="M19.2415 21.375H18.0078L16.7752 18.8505C16.7179 18.7739 16.6435 18.7116 16.558 18.6688C16.4724 18.6259 16.3781 18.6036 16.2824 18.6035H11.6076C11.4935 18.604 11.3817 18.6361 11.2848 18.6964C11.1879 18.7567 11.1097 18.8427 11.0588 18.9449L9.99633 21.3783H8.76041C8.59681 21.3783 8.43991 21.4433 8.32423 21.559C8.20855 21.6746 8.14355 21.8315 8.14355 21.9951V23.5318C8.14355 23.6954 8.20855 23.8523 8.32423 23.968C8.43991 24.0837 8.59681 24.1487 8.76041 24.1487H9.37727C9.37727 23.7398 9.53969 23.3477 9.8288 23.0586C10.1179 22.7695 10.51 22.6071 10.9189 22.6071C11.3277 22.6071 11.7198 22.7695 12.009 23.0586C12.2981 23.3477 12.4605 23.7398 12.4605 24.1487H15.5437C15.5437 23.7398 15.7061 23.3477 15.9952 23.0586C16.2843 22.7695 16.6764 22.6071 17.0853 22.6071C17.4941 22.6071 17.8862 22.7695 18.1754 23.0586C18.4645 23.3477 18.6269 23.7398 18.6269 24.1487H19.2437C19.3248 24.1488 19.4051 24.133 19.48 24.102C19.5549 24.0711 19.6229 24.0256 19.6802 23.9683C19.7376 23.911 19.783 23.8429 19.8139 23.768C19.8449 23.6931 19.8607 23.6129 19.8606 23.5318V21.9951C19.8607 21.9141 19.8449 21.8338 19.8139 21.7589C19.783 21.684 19.7376 21.6159 19.6802 21.5586C19.6229 21.5013 19.5549 21.4559 19.48 21.4249C19.4051 21.394 19.3248 21.3781 19.2437 21.3783M10.9908 21.3783L11.8458 19.419H13.4867V21.3783H10.9908ZM14.2836 21.3783V19.4158H16.1605L16.9607 21.375L14.2836 21.3783Z" fill="#FFE043"/>
<path d="M17.0864 23.2222C17.2694 23.2222 17.4483 23.2764 17.6005 23.3781C17.7526 23.4798 17.8712 23.6243 17.9413 23.7934C18.0113 23.9624 18.0296 24.1485 17.9939 24.328C17.9582 24.5075 17.8701 24.6723 17.7407 24.8017C17.6113 24.9311 17.4464 25.0193 17.2669 25.055C17.0874 25.0907 16.9014 25.0723 16.7323 25.0023C16.5633 24.9323 16.4187 24.8137 16.3171 24.6615C16.2154 24.5094 16.1611 24.3305 16.1611 24.1475C16.1611 23.9021 16.2586 23.6667 16.4321 23.4932C16.6057 23.3197 16.841 23.2222 17.0864 23.2222Z" fill="#FFE043"/>
<path d="M10.9204 23.2222C11.1034 23.2222 11.2823 23.2764 11.4345 23.3781C11.5866 23.4798 11.7052 23.6243 11.7753 23.7934C11.8453 23.9624 11.8636 24.1485 11.8279 24.328C11.7922 24.5075 11.7041 24.6723 11.5747 24.8017C11.4453 24.9311 11.2804 25.0193 11.1009 25.055C10.9214 25.0907 10.7354 25.0723 10.5663 25.0023C10.3972 24.9323 10.2527 24.8137 10.1511 24.6615C10.0494 24.5094 9.99512 24.3305 9.99512 24.1475C9.99512 23.9021 10.0926 23.6667 10.2661 23.4932C10.4397 23.3197 10.675 23.2222 10.9204 23.2222Z" fill="#FFE043"/>
<path d="M17.9032 14.594H10.9663L11.7631 13.7971C11.8787 13.6815 11.9436 13.5248 11.9436 13.3614C11.9436 13.1979 11.8787 13.0412 11.7631 12.9256C11.6476 12.81 11.4908 12.7451 11.3274 12.7451C11.1639 12.7451 11.0072 12.81 10.8916 12.9256L9.04105 14.7751C8.98377 14.8323 8.93832 14.9002 8.90732 14.975C8.87631 15.0498 8.86035 15.1299 8.86035 15.2108C8.86035 15.2918 8.87631 15.3719 8.90732 15.4467C8.93832 15.5215 8.98377 15.5894 9.04105 15.6466L10.8905 17.4961C11.0061 17.6117 11.1628 17.6766 11.3263 17.6766C11.4897 17.6766 11.6465 17.6117 11.762 17.4961C11.8776 17.3805 11.9425 17.2238 11.9425 17.0603C11.9425 16.8969 11.8776 16.7401 11.762 16.6246L10.9652 15.8277H17.9021C17.9852 15.8312 18.0682 15.8179 18.146 15.7885C18.2239 15.7591 18.2949 15.7143 18.355 15.6567C18.4151 15.5991 18.4628 15.53 18.4955 15.4535C18.5281 15.3769 18.545 15.2946 18.545 15.2114C18.545 15.1282 18.5281 15.0459 18.4955 14.9693C18.4628 14.8928 18.4151 14.8237 18.355 14.7661C18.2949 14.7085 18.2239 14.6637 18.146 14.6343C18.0682 14.6049 17.9852 14.5916 17.9021 14.5951" fill="#FFE043"/>
</svg>
