<svg width="28" height="28" viewBox="0 0 28 28" fill="none" xmlns="http://www.w3.org/2000/svg">
<path d="M12.2763 3.99714C13.0462 2.66892 14.9552 2.66892 15.725 3.99714L26.7271 22.9795C27.5021 24.3168 26.5424 25.9951 25.0027 25.9951H2.99863C1.45893 25.9951 0.499224 24.3168 1.27427 22.9795L12.2763 3.99714Z" fill="#0A0B14"/>
<path fill-rule="evenodd" clip-rule="evenodd" d="M11.4135 3.49522C12.5682 1.5029 15.4318 1.50289 16.5865 3.49522L27.5886 22.4776C28.7512 24.4835 27.3116 27.001 25.0021 27.001H2.99795C0.6884 27.001 -0.751165 24.4835 0.411411 22.4776L11.4135 3.49522ZM14.8622 4.50493C14.4773 3.84082 13.5227 3.84082 13.1378 4.50493L2.13577 23.4873C1.74824 24.1559 2.2281 24.9951 2.99795 24.9951H25.0021C25.7719 24.9951 26.2518 24.1559 25.8642 23.4873L14.8622 4.50493Z" fill="#FFE043"/>
<path d="M9.81738 15.8985L9.25759 15.1554C9.18176 15.0535 9.06856 14.9859 8.94289 14.9675C8.81722 14.949 8.68938 14.9813 8.5875 15.0571C8.48561 15.133 8.41802 15.2462 8.3996 15.3718C8.38117 15.4975 8.41343 15.6253 8.48926 15.7272L9.04904 16.4725C9.08659 16.523 9.13371 16.5655 9.18771 16.5978C9.2417 16.63 9.30152 16.6513 9.36375 16.6604C9.42597 16.6695 9.48938 16.6663 9.55036 16.6509C9.61134 16.6355 9.66869 16.6083 9.71914 16.5707C9.76959 16.5332 9.81215 16.4861 9.84439 16.4321C9.87663 16.3781 9.89792 16.3183 9.90704 16.256C9.91616 16.1938 9.91294 16.1304 9.89755 16.0694C9.88217 16.0084 9.85492 15.9511 9.81738 15.9006" fill="#FFE043"/>
<path d="M7.9731 19.128C8.09304 19.1267 8.2081 19.0804 8.29541 18.9981C8.38272 18.9159 8.43588 18.8038 8.44432 18.6842C8.45276 18.5645 8.41586 18.4461 8.34095 18.3524C8.26604 18.2587 8.15862 18.1967 8.04005 18.1786L7.12793 18.048C7.00555 18.0276 6.88005 18.0557 6.77803 18.1263C6.67602 18.1969 6.60548 18.3045 6.58137 18.4262C6.55726 18.5479 6.58146 18.6742 6.64886 18.7783C6.71625 18.8825 6.82155 18.9563 6.94244 18.9842C6.95909 18.9879 6.97595 18.9904 6.99293 18.9919L7.90944 19.1225C7.93207 19.1247 7.95486 19.1247 7.97749 19.1225" fill="#FFE043"/>
<path d="M8.39882 21.0436L7.65463 21.599C7.60454 21.6365 7.56234 21.6836 7.53043 21.7374C7.49853 21.7913 7.47754 21.8509 7.46867 21.9129C7.45981 21.9748 7.46323 22.0379 7.47875 22.0986C7.49428 22.1592 7.52159 22.2162 7.55914 22.2663C7.59669 22.3164 7.64374 22.3586 7.69759 22.3905C7.75145 22.4224 7.81107 22.4434 7.87304 22.4523C7.93501 22.4611 7.99812 22.4577 8.05876 22.4422C8.11941 22.4267 8.1764 22.3994 8.22649 22.3618L8.97177 21.8064C9.07366 21.7306 9.14125 21.6174 9.15967 21.4917C9.17809 21.3661 9.14584 21.2382 9.07001 21.1363C8.99417 21.0344 8.88097 20.9668 8.75531 20.9484C8.62964 20.93 8.5018 20.9623 8.39991 21.0381" fill="#FFE043"/>
<path d="M12.1387 15.948H12.2067C12.3215 15.9479 12.4323 15.9064 12.519 15.8312C12.6057 15.756 12.6624 15.6522 12.6787 15.5386L12.8093 14.6309C12.8296 14.5085 12.8015 14.383 12.7309 14.281C12.6603 14.1789 12.5528 14.1084 12.4311 14.0843C12.3094 14.0602 12.1831 14.0844 12.0789 14.1518C11.9748 14.2192 11.9009 14.3245 11.8731 14.4454C11.8694 14.462 11.8669 14.4789 11.8654 14.4959L11.7304 15.4069C11.7125 15.5322 11.7451 15.6595 11.8211 15.7607C11.897 15.862 12.0101 15.929 12.1354 15.9469" fill="#FFE043"/>
<path d="M14.6703 17.4109C14.7733 17.4107 14.8734 17.3772 14.9557 17.3154L15.6966 16.76C15.7985 16.6842 15.8661 16.571 15.8845 16.4453C15.9029 16.3197 15.8707 16.1918 15.7949 16.0899C15.719 15.9881 15.6058 15.9205 15.4801 15.902C15.3545 15.8836 15.2266 15.9159 15.1248 15.9917L14.3839 16.5515C14.3042 16.6117 14.2454 16.6955 14.2158 16.791C14.1862 16.8864 14.1873 16.9887 14.2189 17.0835C14.2505 17.1783 14.3111 17.2608 14.3921 17.3193C14.4731 17.3779 14.5704 17.4095 14.6703 17.4098" fill="#FFE043"/>
<path d="M10.9025 21.1339C11.0215 20.7418 11.2191 20.3779 11.4833 20.0647C11.7475 19.7514 12.0727 19.4953 12.4392 19.3119C12.8759 19.0955 13.3567 18.9828 13.8441 18.9826C13.8771 18.9826 13.9089 18.9936 13.9429 18.9936C13.9074 18.6205 13.7745 18.2633 13.5576 17.9577C13.3407 17.652 13.0473 17.4087 12.7069 17.2521C12.3664 17.0954 11.9908 17.0309 11.6176 17.065C11.2443 17.0991 10.8866 17.2306 10.5802 17.4463C10.2737 17.6621 10.0293 17.9545 9.8713 18.2943C9.71333 18.6342 9.64737 19.0096 9.68001 19.3829C9.71265 19.7563 9.84275 20.1145 10.0573 20.4218C10.2718 20.7291 10.5633 20.9746 10.9025 21.1339Z" fill="#FFE043"/>
<path d="M20.7516 21.4603C20.6911 21.4588 20.6306 21.4618 20.5705 21.4691C20.6034 21.3046 20.62 21.1374 20.6199 20.9697C20.5948 20.2991 20.3308 19.6596 19.8754 19.1666C19.42 18.6737 18.8034 18.3599 18.1369 18.2818C17.4704 18.2037 16.798 18.3666 16.241 18.741C15.6841 19.1153 15.2794 19.6765 15.1 20.3232C14.7766 20.0994 14.3992 19.9663 14.007 19.9377C13.6148 19.9092 13.2221 19.9862 12.8697 20.1607C12.5241 20.3293 12.2325 20.5911 12.0278 20.9165C11.823 21.2419 11.7131 21.618 11.7106 22.0025C11.7105 22.1398 11.7249 22.2766 11.7534 22.4108C11.6716 22.3992 11.5891 22.3929 11.5064 22.3922C11.2761 22.3759 11.0448 22.4051 10.8258 22.4782C10.6067 22.5513 10.4042 22.6669 10.2298 22.8182C9.87764 23.1239 9.6613 23.5569 9.6284 24.0221C9.61212 24.2525 9.64135 24.4838 9.71445 24.7028C9.78755 24.9218 9.90308 25.1243 10.0544 25.2987C10.2058 25.4731 10.39 25.616 10.5966 25.7192C10.8032 25.8224 11.028 25.8839 11.2584 25.9002C11.341 25.9057 11.4238 25.9057 11.5064 25.9002H20.756C21.0473 25.9097 21.3375 25.8617 21.6102 25.759C21.8829 25.6562 22.1327 25.5008 22.3453 25.3014C22.5578 25.1021 22.729 24.8628 22.849 24.5973C22.969 24.3317 23.0355 24.0451 23.0447 23.7539C23.0538 23.4626 23.0055 23.1724 22.9024 22.8998C22.7993 22.6273 22.6435 22.3777 22.4439 22.1654C22.2443 21.9531 22.0048 21.7822 21.7391 21.6626C21.4734 21.5429 21.1867 21.4768 20.8954 21.468H20.756" fill="#FFE043"/>
</svg>
