<svg width="28" height="28" viewBox="0 0 28 28" fill="none" xmlns="http://www.w3.org/2000/svg">
<path d="M12.2763 3.99616C13.0462 2.66795 14.9552 2.66795 15.725 3.99616L26.7271 22.9785C27.5021 24.3158 26.5424 25.9941 25.0027 25.9941H2.99863C1.45893 25.9941 0.499224 24.3158 1.27427 22.9786L12.2763 3.99616Z" fill="#0A0B14"/>
<path fill-rule="evenodd" clip-rule="evenodd" d="M11.4135 3.49424C12.5682 1.50192 15.4318 1.50192 16.5865 3.49424L27.5886 22.4766C28.7512 24.4825 27.3116 27 25.0021 27H2.99795C0.6884 27 -0.751165 24.4825 0.411411 22.4766L11.4135 3.49424ZM14.8622 4.50395C14.4773 3.83984 13.5227 3.83984 13.1378 4.50395L2.13577 23.4863C1.74824 24.155 2.2281 24.9941 2.99795 24.9941H25.0021C25.7719 24.9941 26.2518 24.155 25.8642 23.4863L14.8622 4.50395Z" fill="#FFE043"/>
<path d="M9.65567 22.3915C9.2752 21.8867 9.07866 21.267 9.09863 20.6352C9.11859 20.0034 9.35386 19.3973 9.76543 18.9175C9.75336 18.6409 9.70068 18.2425 9.67324 17.9297C9.22102 17.9692 7.16079 18.0834 6.63504 18.1865C6.31071 18.2732 6.02389 18.4642 5.8188 18.73C5.6137 18.9958 5.50172 19.3216 5.5001 19.6573C5.45887 19.9897 5.52615 20.3264 5.6919 20.6174C5.85766 20.9083 6.11302 21.1379 6.4199 21.2719C7.46154 21.6737 7.18823 22.0029 8.30231 22.3882" fill="#FFE043"/>
<path d="M11.6521 25.2691H20.8831C21.1596 25.2691 21.4248 25.1592 21.6204 24.9637C21.8159 24.7681 21.9258 24.5029 21.9258 24.2263C21.9258 23.9498 21.8159 23.6846 21.6204 23.489C21.4248 23.2935 21.1596 23.1836 20.8831 23.1836H11.6521C11.3756 23.1836 11.1103 23.2935 10.9148 23.489C10.7192 23.6846 10.6094 23.9498 10.6094 24.2263C10.6094 24.5029 10.7192 24.7681 10.9148 24.9637C11.1103 25.1592 11.3756 25.2691 11.6521 25.2691Z" fill="#FFE043"/>
<path d="M14.2302 17.7586C14.2647 17.6924 14.3167 17.6369 14.3806 17.5982C14.4444 17.5595 14.5177 17.539 14.5924 17.5391H17.9862C18.0948 17.5385 18.1992 17.5808 18.2767 17.6569C18.3543 17.733 18.3986 17.8366 18.4 17.9452V19.6201H20.8817C20.9747 19.6193 21.0642 19.6553 21.1307 19.7203C21.1971 19.7853 21.2351 19.874 21.2362 19.967V22.0525C21.2351 22.1454 21.1971 22.2341 21.1307 22.2992C21.0642 22.3642 20.9747 22.4002 20.8817 22.3993H13.0744C13.0283 22.3999 12.9825 22.3914 12.9396 22.3743C12.8968 22.3571 12.8577 22.3318 12.8247 22.2995C12.7917 22.2673 12.7653 22.2289 12.7472 22.1865C12.729 22.1441 12.7193 22.0986 12.7188 22.0525V21.0108L14.2302 17.7586ZM17.6898 21.0042V18.2295H14.8492L13.6265 21.0042H17.6898Z" fill="#FFE043"/>
<path d="M12.9771 12.4774L14.5324 12.2744L14.5236 12.2634C14.674 12.2418 14.8117 12.1675 14.9122 12.0537C15.0128 11.9398 15.0696 11.794 15.0725 11.6422C15.0701 11.4697 14.9995 11.3052 14.876 11.1849C14.7525 11.0645 14.5863 10.998 14.4139 11C14.3605 11.0036 14.3077 11.0139 14.2569 11.0308V11.0187L13.1681 11.191L11.9925 11.3348C11.9276 11.3407 11.8648 11.3612 11.8089 11.3949C11.753 11.4285 11.7054 11.4744 11.6698 11.5291L8.42969 17.3926H9.13984L12.1627 12.7826C12.1627 12.7826 14.876 15.9525 15.5313 16.6989H16.9505L12.9771 12.4774Z" fill="#FFE043"/>
</svg>
