<svg width="28" height="28" viewBox="0 0 28 28" fill="none" xmlns="http://www.w3.org/2000/svg">
<g id="light">
<g id="event_32px">
<path id="Polygon 2" d="M12.2763 3.99616C13.0462 2.66795 14.9552 2.66795 15.725 3.99616L26.7271 22.9785C27.5021 24.3158 26.5424 25.9941 25.0027 25.9941H2.99863C1.45893 25.9941 0.499224 24.3158 1.27427 22.9786L12.2763 3.99616Z" fill="#FFE043"/>
<path id="Polygon 2 (Stroke)" fill-rule="evenodd" clip-rule="evenodd" d="M11.4135 3.49424C12.5682 1.50192 15.4318 1.50192 16.5865 3.49424L27.5886 22.4766C28.7512 24.4825 27.3116 27 25.0021 27H2.99795C0.6884 27 -0.751165 24.4825 0.411411 22.4766L11.4135 3.49424ZM14.8622 4.50395C14.4773 3.83984 13.5227 3.83984 13.1378 4.50395L2.13577 23.4863C1.74824 24.155 2.2281 24.9941 2.99795 24.9941H25.0021C25.7719 24.9941 26.2518 24.155 25.8642 23.4863L14.8622 4.50395Z" fill="black"/>
<path id="&#237;&#140;&#168;&#236;&#138;&#164; 88652" d="M20.3421 16.7928C20.3853 16.7928 20.4282 16.7843 20.4681 16.7678C20.5081 16.7512 20.5444 16.727 20.5749 16.6964C20.6055 16.6658 20.6298 16.6295 20.6463 16.5896C20.6629 16.5496 20.6714 16.5068 20.6714 16.4636V15.805C20.6714 15.7617 20.6629 15.7189 20.6463 15.679C20.6298 15.639 20.6055 15.6027 20.5749 15.5722C20.5444 15.5416 20.5081 15.5173 20.4681 15.5008C20.4282 15.4842 20.3853 15.4757 20.3421 15.4757H19.3542V15.1464C19.3542 15.0591 19.3196 14.9753 19.2578 14.9136C19.196 14.8518 19.1123 14.8171 19.025 14.8171H18.6957V13.8293C18.6957 13.742 18.661 13.6582 18.5992 13.5964C18.5375 13.5347 18.4537 13.5 18.3664 13.5H17.7078C17.6205 13.5 17.5367 13.5347 17.475 13.5964C17.4132 13.6582 17.3785 13.742 17.3785 13.8293V14.8171H17.0493C16.9619 14.8171 16.8782 14.8518 16.8164 14.9136C16.7547 14.9753 16.72 15.0591 16.72 15.1464V15.4757H11.4514V15.1464C11.4514 15.0591 11.4167 14.9753 11.355 14.9136C11.2932 14.8518 11.2095 14.8171 11.1221 14.8171H10.7928V13.8293C10.7928 13.742 10.7582 13.6582 10.6964 13.5964C10.6346 13.5347 10.5509 13.5 10.4636 13.5H9.80499C9.76175 13.5 9.71893 13.5085 9.67898 13.5251C9.63903 13.5416 9.60273 13.5659 9.57215 13.5964C9.54158 13.627 9.51732 13.6633 9.50077 13.7033C9.48422 13.7432 9.47571 13.786 9.47571 13.8293V14.8171H9.14642C9.05909 14.8171 8.97534 14.8518 8.91358 14.9136C8.85183 14.9753 8.81714 15.0591 8.81714 15.1464V15.4757H7.82928C7.74195 15.4757 7.6582 15.5104 7.59644 15.5722C7.53469 15.6339 7.5 15.7177 7.5 15.805V16.4636C7.5 16.5509 7.53469 16.6346 7.59644 16.6964C7.6582 16.7582 7.74195 16.7928 7.82928 16.7928H8.15857V16.817L8.19918 16.7928H9.6645L11.5612 20.0857H10.0454L8.15857 16.8137V20.0857H7.82928C7.78604 20.0857 7.74322 20.0942 7.70327 20.1108C7.66332 20.1273 7.62702 20.1516 7.59644 20.1821C7.56587 20.2127 7.54161 20.249 7.52506 20.289C7.50852 20.3289 7.5 20.3717 7.5 20.415V21.0735C7.5 21.1609 7.53469 21.2446 7.59644 21.3064C7.6582 21.3681 7.74195 21.4028 7.82928 21.4028H9.47571V24.0371H9.14642C9.05909 24.0371 8.97534 24.0718 8.91358 24.1336C8.85183 24.1953 8.81714 24.2791 8.81714 24.3664V25.3542H11.4514V24.3664C11.4514 24.2791 11.4167 24.1953 11.355 24.1336C11.2932 24.0718 11.2095 24.0371 11.1221 24.0371H10.7928V21.4028H17.3785V24.0371H17.0493C17.006 24.0371 16.9632 24.0456 16.9232 24.0622C16.8833 24.0787 16.847 24.103 16.8164 24.1336C16.7858 24.1641 16.7616 24.2004 16.745 24.2404C16.7285 24.2803 16.72 24.3231 16.72 24.3664V25.3542H19.3542V24.3664C19.3542 24.2791 19.3196 24.1953 19.2578 24.1336C19.196 24.0718 19.1123 24.0371 19.025 24.0371H18.6957V21.4028H20.3421C20.4294 21.4028 20.5132 21.3681 20.5749 21.3064C20.6367 21.2446 20.6714 21.1609 20.6714 21.0735V20.415C20.6714 20.3276 20.6367 20.2439 20.5749 20.1821C20.5132 20.1204 20.4294 20.0857 20.3421 20.0857H20.0128V16.7928H20.3421ZM13.7707 16.7928H15.2382L17.1393 20.0857H15.6224L13.7301 16.817L13.7707 16.7928ZM10.9169 16.7928H12.4393L14.3414 20.0857H12.8212L10.9169 16.7928ZM18.4904 20.0857L16.5861 16.7928H18.1074L20.0128 20.0857H18.4904Z" fill="black"/>
</g>
</g>
</svg>
