<svg width="28" height="28" viewBox="0 0 28 28" fill="none" xmlns="http://www.w3.org/2000/svg">
<g id="light">
<g id="weather_32px">
<path id="Polygon 2" d="M12.2763 3.99616C13.0462 2.66795 14.9552 2.66795 15.725 3.99616L26.7271 22.9785C27.5021 24.3158 26.5424 25.9941 25.0027 25.9941H2.99863C1.45893 25.9941 0.499224 24.3158 1.27427 22.9786L12.2763 3.99616Z" fill="#FFE043"/>
<path id="Polygon 2 (Stroke)" fill-rule="evenodd" clip-rule="evenodd" d="M11.4135 3.49424C12.5682 1.50192 15.4318 1.50192 16.5865 3.49424L27.5886 22.4766C28.7512 24.4825 27.3116 27 25.0021 27H2.99795C0.6884 27 -0.751165 24.4825 0.411411 22.4766L11.4135 3.49424ZM14.8622 4.50395C14.4773 3.83984 13.5227 3.83984 13.1378 4.50395L2.13577 23.4863C1.74824 24.155 2.2281 24.9941 2.99795 24.9941H25.0021C25.7719 24.9941 26.2518 24.155 25.8642 23.4863L14.8622 4.50395Z" fill="black"/>
<path id="&#237;&#140;&#168;&#236;&#138;&#164; 88637" d="M9.81738 15.897L9.25759 15.1539C9.18176 15.052 9.06856 14.9844 8.94289 14.966C8.81722 14.9476 8.68938 14.9798 8.5875 15.0557C8.48561 15.1315 8.41802 15.2447 8.3996 15.3704C8.38117 15.496 8.41343 15.6239 8.48926 15.7258L9.04904 16.471C9.08659 16.5215 9.13371 16.5641 9.18771 16.5963C9.2417 16.6285 9.30152 16.6498 9.36375 16.6589C9.42597 16.6681 9.48938 16.6648 9.55036 16.6495C9.61134 16.6341 9.66869 16.6068 9.71914 16.5693C9.76959 16.5317 9.81215 16.4846 9.84439 16.4306C9.87663 16.3766 9.89792 16.3168 9.90704 16.2546C9.91616 16.1924 9.91294 16.1289 9.89755 16.068C9.88217 16.007 9.85492 15.9496 9.81738 15.8992" fill="black"/>
<path id="&#237;&#140;&#168;&#236;&#138;&#164; 88638" d="M7.97505 19.1256C8.09499 19.1243 8.21005 19.0779 8.29737 18.9957C8.38468 18.9135 8.43784 18.8014 8.44628 18.6817C8.45471 18.5621 8.41781 18.4436 8.3429 18.35C8.268 18.2563 8.16058 18.1942 8.04201 18.1761L7.12989 18.0455C7.0075 18.0252 6.88201 18.0533 6.77999 18.1239C6.67797 18.1945 6.60744 18.302 6.58332 18.4237C6.55921 18.5454 6.58342 18.6717 6.65081 18.7759C6.71821 18.8801 6.8235 18.9539 6.94439 18.9818C6.96104 18.9854 6.9779 18.988 6.99488 18.9895L7.91139 19.1201C7.93402 19.1223 7.95681 19.1223 7.97944 19.1201" fill="black"/>
<path id="&#237;&#140;&#168;&#236;&#138;&#164; 88639" d="M8.39979 21.0416L7.65561 21.597C7.60552 21.6346 7.56332 21.6816 7.53141 21.7355C7.4995 21.7893 7.47852 21.8489 7.46965 21.9109C7.46078 21.9729 7.46421 22.036 7.47973 22.0966C7.49525 22.1573 7.52257 22.2143 7.56012 22.2644C7.59767 22.3145 7.64471 22.3567 7.69857 22.3886C7.75243 22.4205 7.81205 22.4415 7.87401 22.4503C7.93598 22.4592 7.99909 22.4558 8.05974 22.4402C8.12038 22.4247 8.17738 22.3974 8.22747 22.3599L8.97275 21.8045C9.07464 21.7286 9.14222 21.6154 9.16065 21.4898C9.17907 21.3641 9.14682 21.2363 9.07098 21.1344C8.99515 21.0325 8.88195 20.9649 8.75628 20.9465C8.63062 20.9281 8.50278 20.9603 8.40089 21.0361" fill="black"/>
<path id="&#237;&#140;&#168;&#236;&#138;&#164; 88640" d="M12.1397 15.947H12.2077C12.3224 15.9469 12.4333 15.9054 12.52 15.8302C12.6066 15.7551 12.6633 15.6512 12.6797 15.5376L12.8103 14.6299C12.8306 14.5075 12.8025 14.382 12.7319 14.28C12.6613 14.178 12.5538 14.1074 12.4321 14.0833C12.3104 14.0592 12.1841 14.0834 12.0799 14.1508C11.9758 14.2182 11.9019 14.3235 11.874 14.4444C11.8704 14.461 11.8678 14.4779 11.8663 14.4949L11.7313 15.4059C11.7135 15.5312 11.7461 15.6585 11.8221 15.7598C11.898 15.861 12.0111 15.928 12.1364 15.9459" fill="black"/>
<path id="&#237;&#140;&#168;&#236;&#138;&#164; 88641" d="M14.6713 17.4085C14.7743 17.4082 14.8744 17.3747 14.9567 17.313L15.6976 16.7576C15.7995 16.6818 15.8671 16.5686 15.8855 16.4429C15.9039 16.3172 15.8717 16.1894 15.7958 16.0875C15.72 15.9856 15.6068 15.918 15.4811 15.8996C15.3555 15.8812 15.2276 15.9134 15.1257 15.9893L14.3848 16.549C14.3051 16.6093 14.2463 16.6931 14.2167 16.7885C14.1871 16.884 14.1882 16.9863 14.2199 17.0811C14.2515 17.1759 14.3121 17.2583 14.3931 17.3169C14.4741 17.3754 14.5714 17.4071 14.6713 17.4074" fill="black"/>
<path id="&#237;&#140;&#168;&#236;&#138;&#164; 88642" d="M10.9025 21.1324C11.0215 20.7403 11.2191 20.3765 11.4833 20.0632C11.7475 19.7499 12.0727 19.4938 12.4392 19.3104C12.8759 19.094 13.3567 18.9813 13.8441 18.9811C13.8771 18.9811 13.9089 18.9921 13.9429 18.9921C13.9074 18.619 13.7745 18.2618 13.5576 17.9562C13.3407 17.6506 13.0473 17.4073 12.7069 17.2506C12.3664 17.094 11.9908 17.0295 11.6176 17.0636C11.2443 17.0976 10.8866 17.2291 10.5802 17.4449C10.2737 17.6606 10.0293 17.953 9.8713 18.2929C9.71333 18.6327 9.64737 19.0081 9.68001 19.3814C9.71265 19.7548 9.84275 20.113 10.0573 20.4203C10.2718 20.7276 10.5633 20.9732 10.9025 21.1324Z" fill="black"/>
<path id="&#237;&#140;&#168;&#236;&#138;&#164; 88643" d="M20.7526 21.4593C20.6921 21.4578 20.6316 21.4608 20.5715 21.4681C20.6044 21.3037 20.6209 21.1364 20.6209 20.9687C20.5958 20.2981 20.3317 19.6586 19.8764 19.1656C19.421 18.6727 18.8044 18.3589 18.1379 18.2808C17.4714 18.2028 16.7989 18.3656 16.242 18.74C15.6851 19.1144 15.2804 19.6755 15.101 20.3222C14.7776 20.0984 14.4002 19.9653 14.008 19.9367C13.6157 19.9082 13.223 19.9852 12.8706 20.1597C12.5251 20.3284 12.2335 20.5901 12.0287 20.9155C11.824 21.2409 11.7141 21.6171 11.7116 22.0015C11.7115 22.1388 11.7258 22.2756 11.7544 22.4099C11.6725 22.3982 11.59 22.3919 11.5074 22.3912C11.2771 22.3749 11.0458 22.4042 10.8267 22.4773C10.6077 22.5503 10.4052 22.6659 10.2308 22.8172C9.87862 23.1229 9.66227 23.556 9.62938 24.0212C9.61309 24.2515 9.64233 24.4828 9.71543 24.7018C9.78853 24.9209 9.90405 25.1234 10.0554 25.2977C10.2068 25.4721 10.391 25.615 10.5976 25.7182C10.8041 25.8214 11.029 25.8829 11.2593 25.8992C11.3419 25.9047 11.4248 25.9047 11.5074 25.8992H20.757C21.0483 25.9087 21.3385 25.8607 21.6112 25.758C21.8839 25.6553 22.1337 25.4998 22.3462 25.3005C22.5588 25.1011 22.73 24.8618 22.85 24.5963C22.97 24.3307 23.0365 24.0441 23.0456 23.7529C23.0548 23.4616 23.0065 23.1714 22.9034 22.8988C22.8003 22.6263 22.6445 22.3767 22.4449 22.1644C22.2453 21.9521 22.0058 21.7812 21.7401 21.6616C21.4744 21.5419 21.1877 21.4758 20.8964 21.467H20.757" fill="black"/>
</g>
</g>
</svg>
