<svg width="28" height="28" viewBox="0 0 28 28" fill="none" xmlns="http://www.w3.org/2000/svg">
<path d="M12.2763 3.99616C13.0462 2.66795 14.9552 2.66795 15.725 3.99616L26.7271 22.9785C27.5021 24.3158 26.5424 25.9941 25.0027 25.9941H2.99863C1.45893 25.9941 0.499224 24.3158 1.27427 22.9786L12.2763 3.99616Z" fill="#0A0B14"/>
<path fill-rule="evenodd" clip-rule="evenodd" d="M11.4135 3.49424C12.5682 1.50192 15.4318 1.50192 16.5865 3.49424L27.5886 22.4766C28.7512 24.4825 27.3116 27 25.0021 27H2.99795C0.6884 27 -0.751165 24.4825 0.411411 22.4766L11.4135 3.49424ZM14.8622 4.50395C14.4773 3.83984 13.5227 3.83984 13.1378 4.50395L2.13577 23.4863C1.74824 24.155 2.2281 24.9941 2.99795 24.9941H25.0021C25.7719 24.9941 26.2518 24.155 25.8642 23.4863L14.8622 4.50395Z" fill="#FFE043"/>
<path d="M16.1594 19.386C16.4076 19.0981 16.563 18.7419 16.6051 18.3641C16.6512 18.0162 16.6852 17.666 16.7423 17.3192C16.7646 17.1654 16.8141 17.0167 16.8882 16.8802C16.942 16.7869 17.0573 16.6738 17.1473 16.6716C17.2373 16.6694 17.3569 16.7814 17.4063 16.8758C17.8365 17.6758 18.1651 18.5264 18.3843 19.408C18.5408 20.0056 18.6563 20.6133 18.73 21.2267C18.7819 21.7903 18.7106 22.3585 18.5211 22.8918C18.3316 23.4252 18.0283 23.9109 17.6324 24.3154C17.1859 24.8121 16.6333 25.2018 16.0156 25.4558C16.132 25.0651 16.2725 24.6644 16.3658 24.2539C16.4069 24.0324 16.4136 23.8058 16.3855 23.5822C16.3761 23.4404 16.3336 23.3028 16.2613 23.1804C16.1891 23.058 16.0891 22.9543 15.9695 22.8775C15.8446 22.7853 15.7071 22.7113 15.5612 22.658C15.234 22.5594 14.9429 22.367 14.724 22.1046C14.5051 21.8422 14.368 21.5213 14.3297 21.1817C14.2968 21.0313 14.2803 20.8777 14.2594 20.724C14.2276 20.5045 14.0465 20.3947 13.8665 20.5176C13.0009 21.0534 12.3052 21.8237 11.8601 22.7392C11.6776 23.1422 11.5924 23.5825 11.6115 24.0244C11.6306 24.4664 11.7533 24.8977 11.9698 25.2835C11.9995 25.3395 12.0302 25.3933 12.0884 25.503C11.927 25.4295 11.8052 25.3823 11.691 25.3208C11.066 25.0157 10.5229 24.5657 10.1071 24.0082C9.69124 23.4507 9.41467 22.8018 9.30042 22.1158C9.2239 21.6694 9.2507 21.2115 9.37875 20.7771C9.50681 20.3427 9.73271 19.9434 10.0391 19.6099C10.2741 19.3261 10.5458 19.0747 10.847 18.8624C11.7897 18.1855 12.4838 17.2175 12.8227 16.1074C13.0658 15.4233 13.192 14.703 13.1959 13.977C13.1959 13.685 13.3298 13.584 13.6173 13.6543C14.2864 13.8397 14.8691 14.2542 15.2638 14.8254C15.9994 15.7694 16.3606 16.9518 16.278 18.1457C16.2582 18.5507 16.2022 18.9557 16.1605 19.3904" fill="#FFE043"/>
</svg>
