<svg width="24" height="24" viewBox="0 0 24 24" fill="none" xmlns="http://www.w3.org/2000/svg">
<mask id="mask0_609_17889" style="mask-type:luminance" maskUnits="userSpaceOnUse" x="0" y="0" width="24" height="24">
<path d="M24 0H0V24H24V0Z" fill="white"/>
</mask>
<g mask="url(#mask0_609_17889)">
<path d="M21.3337 11.8472C21.3334 11.221 21.0854 10.6204 20.6438 10.1765C20.2021 9.73266 19.6028 9.48159 18.9767 9.47815C18.9757 9.43625 18.9696 9.39462 18.9587 9.35415C18.3743 7.66227 17.1807 6.24871 15.6107 5.38915L14.6627 4.96415C14.6071 4.93979 14.5473 4.92621 14.4867 4.92415C14.4688 4.30935 14.212 3.72572 13.7708 3.29717C13.3296 2.86863 12.7387 2.62891 12.1237 2.62891C11.5086 2.62891 10.9178 2.86863 10.4766 3.29717C10.0354 3.72572 9.77856 4.30935 9.76067 4.92415C9.71044 4.92396 9.66049 4.93172 9.61267 4.94715C8.60388 5.31361 7.68791 5.89719 6.9295 6.65664C6.17108 7.41609 5.58875 8.33286 5.22367 9.34215C5.20945 9.3885 5.20204 9.43667 5.20167 9.48515C4.58967 9.50696 4.01001 9.76542 3.58477 10.2061C3.15952 10.6468 2.92188 11.2353 2.92188 11.8477C2.92188 12.46 3.15952 13.0485 3.58477 13.4892C4.01001 13.9299 4.58967 14.1883 5.20167 14.2102C5.20149 14.2601 5.20925 14.3097 5.22467 14.3572C5.60005 15.3608 6.18661 16.2722 6.94468 17.0296C7.70275 17.787 8.61464 18.3727 9.61867 18.7472C9.66484 18.7626 9.71301 18.7714 9.76167 18.7732C9.77956 19.3877 10.0363 19.9711 10.4773 20.3994C10.9183 20.8278 11.5089 21.0674 12.1237 21.0674C12.7385 21.0674 13.3291 20.8278 13.7701 20.3994C14.2111 19.9711 14.4678 19.3877 14.4857 18.7732C14.5344 18.7719 14.5826 18.7631 14.6287 18.7472C15.6306 18.3693 16.5407 17.7825 17.2983 17.0258C18.0559 16.269 18.6437 15.3597 19.0227 14.3582C19.0381 14.3107 19.0459 14.2611 19.0457 14.2112C19.659 14.1907 20.2403 13.9328 20.6672 13.492C21.094 13.0512 21.333 12.4608 21.3337 11.8472ZM14.3177 17.7942C14.1408 17.3572 13.8375 16.9831 13.4466 16.7196C13.0557 16.4562 12.595 16.3154 12.1237 16.3154C11.6523 16.3154 11.1917 16.4562 10.8008 16.7196C10.4099 16.9831 10.1066 17.3572 9.92967 17.7942C9.07449 17.4693 8.29782 16.967 7.65078 16.3203C7.00374 15.6736 6.50101 14.8972 6.17567 14.0422C6.61291 13.8654 6.98738 13.5621 7.25106 13.1711C7.51475 12.7801 7.65562 12.3193 7.65562 11.8477C7.65562 11.3761 7.51475 10.9152 7.25106 10.5242C6.98738 10.1332 6.61291 9.82989 6.17567 9.65315C6.49288 8.79339 6.99275 8.01263 7.64084 7.36471C8.28893 6.7168 9.06982 6.21713 9.92967 5.90015C10.1071 6.33638 10.4106 6.70979 10.8013 6.97268C11.192 7.23556 11.6522 7.37598 12.1232 7.37598C12.5941 7.37598 13.0543 7.23556 13.4451 6.97268C13.8358 6.70979 14.1392 6.33638 14.3167 5.90015L15.1707 6.28215C16.5029 7.02431 17.5142 8.2322 18.0107 9.67415C17.5839 9.86094 17.2216 10.1695 16.9693 10.5612C16.717 10.9528 16.5859 11.4102 16.5923 11.8761C16.5987 12.3419 16.7424 12.7955 17.0053 13.1801C17.2683 13.5647 17.6389 13.8632 18.0707 14.0382C17.7423 14.8911 17.2386 15.6657 16.5921 16.3118C15.9457 16.958 15.1708 17.4612 14.3177 17.7892" fill="#27D4FF"/>
</g>
</svg>
