<svg width="72" height="72" viewBox="0 0 72 72" fill="none" xmlns="http://www.w3.org/2000/svg">
<g id="&#234;&#183;&#184;&#235;&#163;&#185; 176294">
<g id="&#234;&#183;&#184;&#235;&#163;&#185; 7839">
<g id="Group" filter="url(#filter0_d_5151_75337)">
<path id="&#237;&#131;&#128;&#236;&#155;&#144; 138" d="M37.1398 60.1234C50.0301 60.1234 60.4798 49.6626 60.4798 36.7587C60.4798 23.8548 50.0301 13.394 37.1398 13.394C24.2495 13.394 13.7998 23.8548 13.7998 36.7587C13.7998 49.6626 24.2495 60.1234 37.1398 60.1234Z" fill="url(#paint0_linear_5151_75337)"/>
</g>
<path id="&#237;&#140;&#168;&#236;&#138;&#164; 4261" d="M37.001 69.191C30.6391 69.191 24.4202 67.3025 19.1305 63.7643C13.8408 60.2261 9.71803 55.1972 7.28347 49.3134C4.8489 43.4296 4.2119 36.9553 5.45304 30.7091C6.69417 24.4629 9.75768 18.7254 14.2562 14.2222C18.7547 9.71894 24.4861 6.65219 30.7257 5.40974C36.9653 4.1673 43.4328 4.80497 49.3104 7.24211C55.1879 9.67925 60.2116 13.8064 63.746 19.1017C67.2805 24.3969 69.167 30.6225 69.167 36.991C69.158 45.5282 65.7662 53.7132 59.7358 59.7499C53.7055 65.7866 45.5292 69.182 37.001 69.191ZM37.001 5.18445C30.7169 5.18445 24.5739 7.04987 19.3488 10.5448C14.1238 14.0398 10.0514 19.0073 7.64655 24.8192C5.24173 30.6311 4.61252 37.0263 5.83848 43.1962C7.06445 49.366 10.0905 55.0334 14.5341 59.4817C18.9776 63.9299 24.639 66.9592 30.8024 68.1864C36.9657 69.4137 43.3542 68.7838 49.16 66.3765C54.9657 63.9691 59.928 59.8924 63.4193 54.6618C66.9105 49.4312 68.774 43.2818 68.774 36.991C68.7631 28.5592 65.412 20.4759 59.4556 14.5141C53.4992 8.5524 45.4239 5.19899 37.001 5.18945M37.001 66.396C31.1926 66.396 25.5146 64.6719 20.685 61.4416C15.8554 58.2113 12.0911 53.6199 9.86804 48.2481C7.64502 42.8762 7.06312 36.9651 8.19593 31.2622C9.32873 25.5593 12.1254 20.3207 16.2322 16.2088C20.339 12.097 25.5716 9.29649 31.2683 8.16151C36.965 7.02654 42.87 7.60805 48.2365 9.8325C53.6031 12.057 58.1903 15.8244 61.418 20.6586C64.6457 25.4928 66.369 31.1765 66.37 36.991C66.3618 44.7859 63.2649 52.2591 57.7589 57.7709C52.253 63.2827 44.7876 66.3828 37.001 66.391M37.001 7.9834C31.2701 7.9834 25.6679 9.68458 20.9029 12.8718C16.1378 16.0591 12.4239 20.5892 10.2307 25.8894C8.03758 31.1896 7.4637 37.0219 8.58167 42.6486C9.69963 48.2753 12.4592 53.4437 16.5115 57.5004C20.5638 61.5571 25.7267 64.3198 31.3474 65.4392C36.9682 66.5585 42.7942 65.9842 48.0889 63.7889C53.3836 61.5936 57.9091 57.8759 61.0932 53.106C64.2772 48.336 65.9768 42.7279 65.977 36.991C65.968 29.3007 62.9123 21.928 57.4802 16.4902C52.0481 11.0523 44.6831 7.99341 37.001 7.9844" fill="#0068E6"/>
<path id="&#237;&#140;&#168;&#236;&#138;&#164; 4263" d="M60.9641 36.961H58.6101C58.6019 31.2364 56.3263 25.7486 52.2822 21.701C48.2382 17.6534 42.7557 15.3764 37.0371 15.3693V13.0098C43.3806 13.0169 49.4622 15.5426 53.9478 20.0328C58.4334 24.5229 60.9567 30.6109 60.9641 36.961Z" fill="#0068E6"/>
<path id="&#237;&#140;&#168;&#236;&#138;&#164; 4264" d="M37.0022 65.9953C36.8688 65.9953 36.7355 65.9953 36.6022 65.9953L36.6182 64.8151C36.7462 64.8151 36.8745 64.8151 37.0032 64.8151L37.0022 65.9953ZM38.0872 65.9753L38.0442 64.7951C38.1722 64.7951 38.3002 64.7851 38.4282 64.778L38.4892 65.9573L38.0892 65.9743M35.0012 65.9263C34.8672 65.9173 34.7342 65.9072 34.6012 65.8962L34.7012 64.719C34.8292 64.73 34.9572 64.739 35.0852 64.748L35.0012 65.9263ZM40.0902 65.8262L39.9662 64.6519C40.0942 64.6386 40.2218 64.6242 40.3492 64.6089L40.4892 65.7811C40.3562 65.7971 40.2252 65.8121 40.0902 65.8262ZM33.0052 65.714C32.8722 65.696 32.7402 65.677 32.6052 65.656L32.7852 64.4887L33.1652 64.5448L33.0052 65.714ZM42.0752 65.5449L41.8692 64.3816L42.2482 64.3116L42.4692 65.4708L42.0752 65.5449ZM31.0292 65.3687C30.8982 65.3406 30.7672 65.3126 30.6372 65.2826L30.8962 64.1314L31.2722 64.2135L31.0292 65.3687ZM44.0372 65.1244L43.7532 63.9862L44.1252 63.8861L44.4252 65.0263C44.2962 65.0613 44.1662 65.0944 44.0362 65.1264M29.0812 64.8892C28.9525 64.8531 28.8242 64.8158 28.6962 64.777L29.0352 63.6469L29.4042 63.755L29.0812 64.8892ZM45.9632 64.5758L45.5972 63.4537L45.9632 63.3315L46.3432 64.4487C46.2172 64.4921 46.0905 64.5345 45.9632 64.5758ZM27.1682 64.2755C27.0412 64.2305 26.9162 64.1834 26.7902 64.1354L27.2072 63.0342C27.3272 63.0796 27.4478 63.1243 27.5692 63.1683L27.1682 64.2755ZM47.8422 63.8891L47.4022 62.7939C47.5202 62.7469 47.6382 62.6938 47.7552 62.6488L48.2132 63.7369C48.0902 63.788 47.9662 63.8371 47.8412 63.8901M25.3032 63.5257C25.1798 63.4717 25.0575 63.4163 24.9362 63.3596L25.4292 62.2874C25.5452 62.3405 25.6632 62.3945 25.7802 62.4456L25.3032 63.5257ZM49.6712 63.0732L49.1542 62.0121C49.2688 61.9561 49.3832 61.8993 49.4972 61.8419L50.0292 62.8951C49.9102 62.9551 49.7912 63.0152 49.6712 63.0732ZM23.4952 62.6478C23.3762 62.5847 23.2582 62.5207 23.1412 62.4576L23.7072 61.4205C23.8202 61.4826 23.9332 61.5436 24.0472 61.6037L23.4952 62.6478ZM51.4392 62.1323L50.8532 61.1092C50.9642 61.0451 51.0742 60.98 51.1842 60.914L51.7842 61.929L51.4392 62.1293M21.7532 61.6467C21.6392 61.576 21.5258 61.5046 21.4132 61.4325L22.0502 60.4385C22.1582 60.5052 22.2668 60.5739 22.3762 60.6447L21.7532 61.6467ZM53.1382 61.0711L52.4792 60.0921C52.5858 60.02 52.6918 59.9473 52.7972 59.8739L53.4692 60.8439L53.1392 61.0701M20.0862 60.5266C19.9782 60.4485 19.8705 60.3697 19.7632 60.2903L20.4632 59.3413C20.5665 59.4181 20.6705 59.4941 20.7752 59.5696L20.0862 60.5266ZM54.7612 59.8929L54.0382 58.9609L54.3382 58.7227L55.0752 59.6446C54.9752 59.7277 54.8662 59.8108 54.7612 59.8929ZM18.4992 59.2923C18.3958 59.2068 18.2935 59.1204 18.1922 59.033L18.9592 58.132C19.0565 58.2155 19.1545 58.2982 19.2532 58.3803L18.4992 59.2923ZM56.2992 58.6035L55.5132 57.7236C55.6085 57.6382 55.7035 57.5521 55.7982 57.4653L56.5982 58.3332C56.5002 58.424 56.4012 58.5141 56.2992 58.6035ZM16.9982 57.9569C16.9008 57.8648 16.8045 57.7716 16.7092 57.6775L17.5352 56.8347C17.6265 56.9241 17.7185 57.0132 17.8112 57.1019L16.9982 57.9569ZM57.7532 57.2191L56.9082 56.3952C56.9975 56.3031 57.0865 56.2103 57.1752 56.1169L58.0302 56.9298C57.9382 57.0272 57.8465 57.1236 57.7532 57.2191ZM15.6052 56.5263C15.5152 56.4262 15.4262 56.3261 15.3362 56.226L16.2182 55.4412C16.3035 55.5373 16.3895 55.6327 16.4762 55.7275L15.6052 56.5263ZM59.1052 55.7345L58.2052 54.9697C58.2878 54.8723 58.3702 54.7738 58.4522 54.6744L59.3612 55.4262C59.2762 55.5263 59.1912 55.6324 59.1052 55.7345ZM14.3042 54.9977C14.2215 54.8929 14.1392 54.7878 14.0572 54.6824L14.9902 53.9606C15.0692 54.0607 15.1472 54.1608 15.2272 54.2609L14.3042 54.9977ZM60.3452 54.1588L59.3962 53.4581C59.4722 53.3553 59.5475 53.2516 59.6222 53.1468L60.5812 53.8335C60.5032 53.9423 60.4245 54.0507 60.3452 54.1588ZM13.1132 53.385C13.0372 53.2749 12.9622 53.1645 12.8882 53.0537L13.8682 52.398C13.9402 52.5041 14.0112 52.6112 14.0842 52.7163L13.1132 53.385ZM61.4792 52.5011L60.4792 51.8684C60.5458 51.7596 60.6125 51.6505 60.6792 51.5411L61.6792 52.1617C61.6092 52.2759 61.5382 52.389 61.4662 52.5021M12.0332 51.6922C11.9665 51.5774 11.8998 51.462 11.8332 51.3459L12.8532 50.7613C12.9198 50.8727 12.9842 50.9835 13.0462 51.0936L12.0332 51.6922ZM62.4952 50.7663L61.4532 50.2067C61.5145 50.0932 61.5752 49.9794 61.6352 49.8653L62.6792 50.4139C62.6172 50.532 62.5542 50.6501 62.4902 50.7683M11.0702 49.9334C11.0108 49.8146 10.9522 49.6951 10.8942 49.575L11.9552 49.0595C12.0112 49.1749 12.0678 49.29 12.1252 49.4048L11.0702 49.9334ZM63.3852 48.9684L62.3122 48.4788C62.3655 48.3614 62.4182 48.2439 62.4702 48.1265L63.5502 48.601C63.4962 48.7238 63.4415 48.8466 63.3862 48.9694M10.2372 48.1125C10.1858 47.989 10.1355 47.8655 10.0862 47.7421L11.1812 47.3036C11.2285 47.4224 11.2768 47.5409 11.3262 47.659L10.2372 48.1125ZM64.1542 47.1114L63.0532 46.697C63.0978 46.5768 63.1422 46.4554 63.1862 46.3326L64.2962 46.733C64.2508 46.8591 64.2048 46.9849 64.1582 47.1104M9.53518 46.2355C9.49251 46.1087 9.45085 45.9812 9.41018 45.8531L10.5332 45.4917C10.5725 45.6138 10.6125 45.7356 10.6532 45.8571L9.53518 46.2355ZM64.7952 45.2014L63.6642 44.867C63.7012 44.7439 63.7362 44.6208 63.7712 44.4966L64.9072 44.815C64.8712 44.9438 64.8332 45.0726 64.7952 45.2014ZM8.96218 44.3104C8.92818 44.1813 8.89618 44.0522 8.86218 43.922L10.0072 43.6387C10.0382 43.7639 10.0702 43.889 10.1022 44.0131L8.96218 44.3104ZM65.2972 43.2563L64.1452 43.0021C64.1732 42.8769 64.2002 42.7508 64.2262 42.6247L65.3812 42.8629C65.3538 42.9964 65.3258 43.1272 65.2972 43.2553M8.52418 42.3544C8.49951 42.2209 8.47585 42.0874 8.45318 41.954L9.61518 41.7537C9.63718 41.8799 9.65918 42.007 9.68318 42.1321L8.52418 42.3544ZM65.6602 41.2812L64.4942 41.1061C64.5132 40.9789 64.5312 40.8528 64.5482 40.7247L65.7172 40.8818C65.6992 41.015 65.6802 41.1471 65.6602 41.2823M8.22218 40.3653C8.20618 40.2318 8.19151 40.0983 8.17818 39.9649L9.35218 39.8447C9.36485 39.9722 9.37885 40.0997 9.39418 40.2271L8.22218 40.3653ZM65.8862 39.2871L64.7112 39.193C64.7212 39.0659 64.7302 38.9378 64.7382 38.8096L65.9152 38.8857C65.9072 39.0199 65.8972 39.154 65.8862 39.2861M8.05818 38.3632C8.05218 38.23 8.04718 38.0959 8.04218 37.9627L9.22118 37.9237C9.22518 38.0525 9.23051 38.181 9.23718 38.3091L8.05818 38.3632ZM65.9752 37.277L64.7962 37.265V36.8806L65.9752 36.8736V37.277ZM9.21318 36.3761L8.03418 36.35C8.03418 36.2166 8.03785 36.0831 8.04518 35.9496L9.22418 35.9907C9.22018 36.1195 9.21651 36.2479 9.21318 36.3761ZM64.7532 35.344C64.7462 35.2148 64.7372 35.0867 64.7282 34.9586L65.9042 34.8735C65.9132 35.0066 65.9222 35.1408 65.9302 35.2739L64.7532 35.344ZM9.32418 34.4601L8.14918 34.3529C8.16118 34.2188 8.17418 34.0857 8.18818 33.9525L9.35318 34.0736C9.34018 34.2008 9.32718 34.3299 9.31618 34.457M64.5652 33.423C64.5492 33.2948 64.5322 33.1677 64.5142 33.0406L65.6812 32.8744C65.6998 33.0079 65.7178 33.1413 65.7352 33.2748L64.5652 33.423ZM9.55518 32.546L8.39118 32.3578C8.41318 32.2257 8.43518 32.0936 8.45718 31.9574L9.61918 32.1576C9.59718 32.2838 9.57618 32.4099 9.55518 32.538M64.2552 31.5139C64.2302 31.3878 64.2042 31.2627 64.1772 31.1375L65.3302 30.8903C65.3582 31.0214 65.3852 31.1526 65.4112 31.2847L64.2552 31.5139ZM9.92818 30.648L8.77918 30.3797C8.81018 30.2486 8.84118 30.1185 8.87318 29.9883L10.0172 30.2736C9.98618 30.3978 9.95618 30.5219 9.92718 30.647M63.8112 29.64C63.7772 29.5148 63.7422 29.3917 63.7112 29.2686L64.8442 28.9412C64.8808 29.0694 64.9172 29.1982 64.9532 29.3276L63.8112 29.64ZM10.4302 28.7881L9.30318 28.4397C9.34318 28.3116 9.38351 28.1834 9.42418 28.0553L10.5532 28.4317C10.5132 28.5538 10.4745 28.6769 10.4372 28.8011M63.2462 27.814C63.2035 27.6926 63.1602 27.5718 63.1162 27.4517L64.2232 27.0452C64.2692 27.1704 64.3142 27.2975 64.3592 27.4236L63.2462 27.814ZM11.0702 26.9782L9.97018 26.5527C10.0182 26.4276 10.0702 26.3024 10.1182 26.1783L11.2122 26.6198C11.1642 26.7392 11.1168 26.858 11.0702 26.9782ZM62.5492 26.0241C62.4985 25.9067 62.4472 25.7892 62.3952 25.6718L63.4722 25.1903C63.5262 25.3114 63.5802 25.4335 63.6322 25.5567L62.5492 26.0241ZM11.8282 25.2043L10.7602 24.7038C10.8175 24.5816 10.8755 24.4602 10.9342 24.3394L11.9942 24.8569C11.9382 24.9724 11.8828 25.0875 11.8282 25.2043ZM61.7282 24.2863C61.6695 24.1729 61.6102 24.0594 61.5502 23.946L62.5912 23.3904C62.6538 23.5078 62.7158 23.6259 62.7772 23.7447L61.7282 24.2863ZM12.7072 23.4855L11.6772 22.9109C11.7438 22.7934 11.8105 22.6766 11.8772 22.5605L12.8992 23.1501C12.8352 23.2612 12.7722 23.3734 12.7092 23.4865M60.7912 22.6045C60.7245 22.4951 60.6578 22.386 60.5912 22.2772L61.5912 21.6515C61.6618 21.765 61.7318 21.8788 61.8012 21.9929L60.7912 22.6045ZM13.7052 21.8347L12.7162 21.191C12.7895 21.0783 12.8638 20.9661 12.9392 20.8547L13.9182 21.5144C13.8462 21.6205 13.7752 21.7276 13.7052 21.8347ZM59.7402 20.9948C59.6662 20.8947 59.5912 20.7866 59.5162 20.6825L60.4712 19.9888C60.5502 20.0969 60.6272 20.206 60.7052 20.3161L59.7402 20.9948ZM14.8072 20.2591L13.8662 19.5463C13.9472 19.4402 14.0282 19.3341 14.1102 19.228L15.0422 19.9517C14.9632 20.0518 14.8852 20.1519 14.8072 20.2591ZM58.5732 19.4582C58.4925 19.3588 58.4108 19.2587 58.3282 19.1579L59.2282 18.4011C59.3142 18.5032 59.3992 18.6063 59.4832 18.7104L58.5732 19.4582ZM16.0192 18.7575L15.1292 17.9827C15.2172 17.8826 15.3062 17.7824 15.3952 17.6823L16.2742 18.4692C16.1882 18.5653 16.1032 18.6607 16.0192 18.7575ZM57.3092 18.0077C57.2212 17.9136 57.1332 17.8215 57.0442 17.7284L57.8942 16.9095C57.9872 17.0096 58.0792 17.1027 58.1702 17.2018L57.3092 18.0077ZM17.3302 17.356L16.4952 16.5221C16.5898 16.4274 16.6848 16.3333 16.7802 16.2398L17.6032 17.0847C17.5112 17.1748 17.4202 17.2649 17.3292 17.356M55.9462 16.6553C55.8522 16.5672 55.7572 16.4801 55.6622 16.394L56.4552 15.5201C56.5538 15.6095 56.6518 15.6999 56.7492 15.7913L55.9462 16.6553ZM18.7342 16.0406L17.9582 15.1517L18.2582 14.8904L19.0232 15.7913C18.9258 15.8741 18.8285 15.9579 18.7312 16.0426M54.4912 15.3909C54.3912 15.3102 54.2912 15.2301 54.1912 15.1507L54.9212 14.2237C55.0262 14.3068 55.1312 14.3899 55.2352 14.476L54.4912 15.3909ZM20.2212 14.8263L19.5082 13.8853C19.6142 13.8042 19.7212 13.7242 19.8292 13.6451L20.5292 14.5951L20.2212 14.8263ZM52.9562 14.2247C52.8512 14.1506 52.7452 14.0775 52.6392 14.0035L53.3052 13.0294C53.4152 13.1055 53.5252 13.1806 53.6342 13.2577L52.9562 14.2247ZM21.7922 13.7112L21.1532 12.7211C21.2645 12.6477 21.3768 12.575 21.4902 12.5029L22.1242 13.5039C22.0162 13.5707 21.9088 13.6401 21.8022 13.7122M51.3532 13.1666C51.2432 13.0998 51.1328 13.0331 51.0222 12.9664L51.6222 11.9473C51.7382 12.0154 51.8522 12.0834 51.9672 12.1535L51.3532 13.1666ZM23.4442 12.7081L22.8662 11.679C22.9828 11.6123 23.0998 11.5479 23.2172 11.4858L23.7802 12.5239C23.6675 12.5846 23.5555 12.6464 23.4442 12.7091M49.6722 12.2266L49.3282 12.0514L49.8522 10.9943C49.9722 11.0537 50.0918 11.1141 50.2112 11.1755L49.6722 12.2266ZM25.1502 11.8262L24.6452 10.759C24.7652 10.702 24.8862 10.6459 25.0082 10.5899L25.4982 11.663L25.1502 11.8252M47.9272 11.4027L47.5722 11.2536L48.0212 10.1614C48.1462 10.2135 48.2692 10.2615 48.3932 10.3186L47.9272 11.4027ZM26.9122 11.0634L26.4832 9.96219C26.6072 9.91348 26.7318 9.86576 26.8572 9.81904L27.2712 10.9202L26.9112 11.0584M46.1302 10.699C46.0088 10.6563 45.8868 10.6145 45.7642 10.5738L46.1372 9.45466C46.2652 9.4967 46.3922 9.53975 46.5182 9.5848L46.1302 10.699ZM28.7302 10.4187L28.3772 9.29249C28.5045 9.25245 28.6325 9.2134 28.7612 9.17536L29.0982 10.3066L28.7302 10.4187ZM44.2942 10.1284C44.1712 10.0943 44.0462 10.0623 43.9222 10.0283L44.2152 8.88506C44.3452 8.91843 44.4745 8.95179 44.6032 8.98516L44.2942 10.1284ZM30.5852 9.90914L30.3112 8.76093C30.4445 8.72956 30.5748 8.69953 30.7022 8.67083L30.9592 9.82305L30.5842 9.90914M42.4212 9.68891C42.2962 9.66388 42.1702 9.63985 42.0442 9.61683L42.2562 8.4556C42.3895 8.47963 42.5212 8.50466 42.6512 8.53068L42.4212 9.68891ZM32.4702 9.53074L32.2782 8.36651C32.4102 8.34449 32.5422 8.32447 32.6782 8.30344L32.8542 9.47168C32.7272 9.4897 32.6002 9.51072 32.4742 9.53074M40.5262 9.38058C40.3992 9.36456 40.2722 9.34955 40.1442 9.33553L40.2752 8.1623C40.4085 8.17698 40.5418 8.19299 40.6752 8.21034L40.5262 9.38058ZM34.3812 9.28047L34.2712 8.10423C34.4032 8.09122 34.5372 8.08021 34.6712 8.0692L34.7662 9.24544C34.6382 9.25545 34.5102 9.26646 34.3822 9.27947M38.6112 9.20039C38.4832 9.19338 38.3552 9.18638 38.2272 9.18137L38.2772 8.00112C38.4112 8.00713 38.5452 8.01414 38.6772 8.02115L38.6112 9.20039ZM36.3032 9.16335L36.2742 7.98311L36.6742 7.9751L36.6872 9.15534L36.3032 9.16235" fill="#0068E6"/>
<path id="&#237;&#140;&#168;&#236;&#138;&#164; 4265" d="M3.229 36.6187C3.3266 27.7375 6.9166 19.2527 13.2209 13.0033C19.5251 6.75378 28.0357 3.2432 36.908 3.23241C37.023 3.23241 37.137 3.23942 37.252 3.24142V0.00900951C37.137 0.00900951 37.023 0 36.908 0C27.1797 0.0118844 17.8484 3.86336 10.9389 10.7188C4.02927 17.5742 0.0987106 26.8806 0 36.6187H3.229Z" fill="#0068E6"/>
<path id="&#237;&#140;&#168;&#236;&#138;&#164; 4266" d="M14.6962 15.1881L13.5732 14.0869C16.9088 10.658 20.9539 8.00179 25.4242 6.30469L25.9802 7.77324C21.7245 9.38908 17.8734 11.9175 14.6972 15.1811" fill="#0068E6"/>
<path id="&#237;&#140;&#168;&#236;&#138;&#164; 4267" d="M38.4555 71.9998L38.3555 69.2529L38.7295 69.2359L38.8705 71.9808C38.7345 71.9878 38.5975 71.9938 38.4605 71.9988M40.4985 71.8587L40.2295 69.1238L40.6045 69.0847L40.9045 71.8176L40.5045 71.8597M42.5275 71.6014L42.1015 68.8865L42.4725 68.8255L42.9315 71.5353L42.5315 71.6014M44.5415 71.224L43.9505 68.5402L44.3205 68.4561L44.9365 71.1349L44.5415 71.224ZM46.5225 70.7295L45.7755 68.0847L46.1395 67.9846L46.9125 70.6223L46.5225 70.7345M48.4685 70.1238L47.5685 67.5211C47.6871 67.4804 47.8055 67.4387 47.9235 67.3959L48.8505 69.9837L48.4665 70.1188M50.3665 69.3971L49.3215 66.8554C49.4361 66.808 49.5508 66.7599 49.6655 66.7112L50.7445 69.2389C50.6191 69.2923 50.4925 69.345 50.3665 69.3971ZM52.2275 68.5632L51.0275 66.0886C51.1401 66.0345 51.2525 65.9795 51.3645 65.9234L52.5875 68.384L52.2225 68.5632M54.0305 67.6222L52.6905 65.2197L53.0195 65.0335L54.3835 67.419L54.0305 67.6192M55.7795 66.5751L54.3045 64.2566L54.6205 64.0564L56.1205 66.3588C56.0071 66.4336 55.8931 66.507 55.7785 66.5791M57.4655 65.4339L55.8595 63.2045L56.1595 62.9823L57.7915 65.1926L57.4625 65.4329M59.0805 64.1916L57.3485 62.0593C57.4465 61.9799 57.5435 61.9001 57.6395 61.8201L59.3965 63.9333C59.2918 64.0201 59.1858 64.1061 59.0805 64.1916ZM60.6275 62.8572L58.7725 60.831L59.0495 60.5737L60.9265 62.5809C60.8278 62.6736 60.7278 62.7657 60.6265 62.8572M62.0895 61.4377L60.1245 59.5186L60.3845 59.2483L62.3735 61.1433C62.2795 61.2421 62.1848 61.3396 62.0895 61.4377ZM63.4695 59.9371L61.3975 58.1352C61.4795 58.0411 61.5605 57.946 61.6405 57.8509L63.7405 59.6267C63.6525 59.7315 63.5631 59.8356 63.4725 59.9391M64.7665 58.3544L62.5895 56.6796C62.6661 56.5802 62.7421 56.4801 62.8175 56.3793L65.0175 58.0301C64.9355 58.1395 64.8531 58.248 64.7705 58.3554M65.9705 56.7027L63.7035 55.152C63.7741 55.0486 63.8438 54.9448 63.9125 54.8407L66.1995 56.3613C66.1235 56.4754 66.0475 56.5905 65.9705 56.7027ZM67.0705 54.9778L64.7165 53.5633C64.7831 53.4559 64.8471 53.3478 64.9085 53.239L67.2795 54.6245C67.2128 54.7426 67.1431 54.8611 67.0705 54.9778ZM68.0705 53.19L65.6345 51.9206L65.8085 51.5833L68.2565 52.8286C68.1951 52.9494 68.1331 53.0692 68.0705 53.19ZM68.9625 51.352L66.4625 50.2238C66.5138 50.1097 66.5645 49.9949 66.6145 49.8795L69.1325 50.9756C69.0778 51.1018 69.0225 51.2272 68.9665 51.352M69.7505 49.459L67.1835 48.483C67.2281 48.3649 67.2721 48.2464 67.3155 48.1276L69.8935 49.0756C69.8461 49.2037 69.7985 49.3315 69.7505 49.459ZM70.4215 47.524L67.8015 46.7001C67.8395 46.58 67.8765 46.4599 67.9125 46.3387L70.5415 47.1316C70.5021 47.265 70.4621 47.3965 70.4215 47.524ZM70.9765 45.5529L68.3125 44.8882C68.3425 44.7661 68.3721 44.6439 68.4015 44.5218L71.0725 45.1575C71.0411 45.291 71.0078 45.4244 70.9725 45.5579M71.4095 43.5628L68.7095 43.0543C68.7325 42.9311 68.7555 42.807 68.7765 42.6829L71.4765 43.1614C71.4525 43.2955 71.4285 43.4287 71.4035 43.5618M71.7225 41.5457L68.9995 41.1943C69.0155 41.0702 69.0305 40.946 69.0455 40.8219L71.7725 41.1392C71.7565 41.2754 71.7395 41.4105 71.7225 41.5457ZM71.9225 39.5135L69.1835 39.3203C69.1921 39.1955 69.2001 39.0711 69.2075 38.9469L71.9485 39.1041C71.9405 39.2376 71.9318 39.3734 71.9225 39.5135ZM72.0045 37.4734L69.2585 37.4413C69.2585 37.3162 69.2585 37.1901 69.2585 37.0649H72.0045C72.0045 37.1984 72.0045 37.3346 72.0045 37.4734Z" fill="#0068E6"/>
<path id="&#237;&#140;&#168;&#236;&#138;&#164; 4268" d="M6.05057 53.185C3.37134 48.0047 1.97416 42.2559 1.97657 36.4224H3.93557C3.93216 41.9358 5.25149 47.3694 7.78257 52.2661L6.05057 53.185Z" fill="#0068E6"/>
<path id="&#237;&#140;&#168;&#236;&#138;&#164; 4269" d="M37.0052 69.977C32.5767 69.9912 28.1914 69.1062 24.1144 67.3754C20.0374 65.6446 16.3534 63.1041 13.2852 59.9074L14.7002 58.5439C20.2188 64.2577 27.7156 67.636 35.6473 67.9835C43.579 68.331 51.342 65.6212 57.3382 60.4119L58.6292 61.8925C52.628 67.1052 44.9495 69.9754 37.0042 69.976" fill="#0068E6"/>
<path id="&#237;&#140;&#168;&#236;&#138;&#164; 4270" d="M63.7766 56.1974L62.1846 55.0512C65.9716 49.8019 68.0038 43.4883 67.9906 37.0132H69.9516C69.9654 43.8997 67.8041 50.6144 63.7766 56.1974Z" fill="#0068E6"/>
<path id="&#237;&#140;&#168;&#236;&#138;&#164; 4271" d="M70.681 36.9773H70.289C70.3027 31.8541 69.1195 26.7987 66.834 22.2147L67.185 22.0396C69.4991 26.6776 70.6976 31.793 70.685 36.9773" fill="#0068E6"/>
<path id="&#237;&#140;&#168;&#236;&#138;&#164; 4272" d="M48.9526 5.8862C45.1453 4.41373 41.0981 3.66122 37.0166 3.66686V3.27445C41.146 3.26869 45.2407 4.03003 49.0926 5.51982L48.9526 5.8862Z" fill="#0068E6"/>
<path id="&#237;&#140;&#168;&#236;&#138;&#164; 4273" d="M63.9331 23.5065C60.6059 16.8252 54.9079 11.6274 47.9541 8.93008L48.6611 7.09814C56.0706 9.97385 62.1412 15.5146 65.6841 22.6355L63.9331 23.5065Z" fill="#0068E6"/>
</g>
<g id="notice">
<path id="&#237;&#140;&#168;&#236;&#138;&#164; 91757" d="M33.888 46.8274C33.8765 46.4579 33.9444 46.0902 34.0873 45.7492C34.2301 45.4083 34.4446 45.1021 34.716 44.8514C35.2799 44.333 36.0238 44.0556 36.789 44.0785C37.5536 44.056 38.2968 44.3333 38.86 44.8514C39.1223 45.1094 39.3306 45.4171 39.4728 45.7565C39.615 46.096 39.6882 46.4604 39.6882 46.8284C39.6882 47.1965 39.615 47.5609 39.4728 47.9004C39.3306 48.2398 39.1223 48.5475 38.86 48.8055C38.2965 49.3228 37.5532 49.5988 36.789 49.5743C36.0234 49.5976 35.2791 49.3194 34.716 48.7995C34.4444 48.5486 34.2298 48.242 34.0869 47.9007C33.9441 47.5594 33.8762 47.1913 33.888 46.8214M38.94 39.744H34.709L34.04 23.5469H39.611L38.94 39.744Z" fill="white"/>
</g>
</g>
<defs>
<filter id="filter0_d_5151_75337" x="3.7998" y="3.39404" width="66.6797" height="66.7295" filterUnits="userSpaceOnUse" color-interpolation-filters="sRGB">
<feFlood flood-opacity="0" result="BackgroundImageFix"/>
<feColorMatrix in="SourceAlpha" type="matrix" values="0 0 0 0 0 0 0 0 0 0 0 0 0 0 0 0 0 0 127 0" result="hardAlpha"/>
<feOffset/>
<feGaussianBlur stdDeviation="5"/>
<feColorMatrix type="matrix" values="0 0 0 0 0.152941 0 0 0 0 0.831373 0 0 0 0 1 0 0 0 0.502 0"/>
<feBlend mode="normal" in2="BackgroundImageFix" result="effect1_dropShadow_5151_75337"/>
<feBlend mode="normal" in="SourceGraphic" in2="effect1_dropShadow_5151_75337" result="shape"/>
</filter>
<linearGradient id="paint0_linear_5151_75337" x1="50.0235" y1="60.1234" x2="21.2256" y2="15.4311" gradientUnits="userSpaceOnUse">
<stop stop-color="#006EFF"/>
<stop offset="1" stop-color="#27D4FF"/>
</linearGradient>
</defs>
</svg>
