<svg xmlns="http://www.w3.org/2000/svg" xmlns:xlink="http://www.w3.org/1999/xlink" width="76.679" height="76.679" viewBox="0 0 76.679 76.679">
  <defs>
    <linearGradient id="linear-gradient" x1="0.776" y1="1" x2="0.16" y2="0.043" gradientUnits="objectBoundingBox">
      <stop offset="0" stop-color="#006eff"/>
      <stop offset="1" stop-color="#27d4ff"/>
    </linearGradient>
    <filter id="타원_138" x="0" y="0" width="76.679" height="76.679" filterUnits="userSpaceOnUse">
      <feOffset input="SourceAlpha"/>
      <feGaussianBlur stdDeviation="5" result="blur"/>
      <feFlood flood-color="#27d4ff" flood-opacity="0.502"/>
      <feComposite operator="in" in2="blur"/>
      <feComposite in="SourceGraphic"/>
    </filter>
  </defs>
  <g id="그룹_176294" data-name="그룹 176294" transform="translate(-929.01 -300.48)">
    <g id="그룹_7839" data-name="그룹 7839" transform="translate(930.211 302.103)">
      <circle id="타원_3938" data-name="타원 3938" cx="33.5" cy="33.5" r="33.5" transform="translate(2.789 2.961)" fill="#090a13"/>
      <g transform="matrix(1, 0, 0, 1, -1.2, -1.62)" filter="url(#타원_138)">
        <ellipse id="타원_138-2" data-name="타원 138" cx="23.34" cy="23.34" rx="23.34" ry="23.34" transform="translate(15 15)" fill="url(#linear-gradient)"/>
      </g>
      <path id="패스_4261" data-name="패스 4261" d="M44.493,76.534A32.166,32.166,0,1,1,76.659,44.368,32.2,32.2,0,0,1,44.493,76.534m0-63.939A31.773,31.773,0,1,0,76.266,44.368,31.809,31.809,0,0,0,44.493,12.6m0,61.142A29.369,29.369,0,1,1,73.862,44.368,29.4,29.4,0,0,1,44.493,73.737m0-58.346A28.976,28.976,0,1,0,73.469,44.368,29.01,29.01,0,0,0,44.493,15.392" transform="translate(-7.491 -7.415)" fill="#27d4ff"/>
      <path id="패스_4263" data-name="패스 4263" d="M118.092,56.969h-2.354A21.6,21.6,0,0,0,94.165,35.4V33.043a23.954,23.954,0,0,1,23.927,23.926" transform="translate(-57.128 -20.047)" fill="#0068e6"/>
      <path id="패스_4264" data-name="패스 4264" d="M49.449,78.288q-.2,0-.4,0l.016-1.179q.192,0,.385,0Zm1.085-.02-.043-1.179c.128,0,.256-.01.384-.017l.061,1.178-.4.017m-3.088-.048c-.134-.009-.267-.019-.4-.03l.1-1.176c.128.011.256.02.384.029Zm5.089-.1-.124-1.173q.192-.02.383-.043l.14,1.171c-.133.016-.265.031-.4.045m-7.084-.112c-.133-.018-.265-.037-.4-.058l.18-1.166.38.056Zm9.07-.169-.206-1.162.379-.07.221,1.158-.394.073m-11.046-.175c-.131-.028-.262-.056-.392-.086l.259-1.15.376.082Zm13.008-.244L56.2,76.281l.372-.1.3,1.139c-.129.035-.259.068-.389.1m-14.955-.237q-.193-.054-.385-.112l.339-1.129.369.108ZM58.41,76.87l-.366-1.121.366-.122.38,1.116q-.189.065-.38.127m-18.795-.3c-.127-.045-.252-.092-.378-.14l.417-1.1q.18.068.362.134Zm20.674-.386-.44-1.094c.118-.047.236-.1.353-.145l.458,1.087c-.123.051-.247.1-.372.153M37.75,75.821q-.185-.081-.367-.166l.493-1.071c.116.053.234.107.351.158Zm24.368-.452-.517-1.06q.172-.084.343-.17l.532,1.052c-.119.06-.239.12-.359.178m-26.175-.425c-.119-.063-.237-.127-.354-.19l.566-1.036c.113.062.226.123.34.183Zm27.944-.515L63.3,73.407c.111-.064.221-.129.331-.195l.6,1.014-.345.2M34.2,73.944q-.171-.106-.34-.214l.637-.993q.162.1.326.206Zm31.385-.575-.659-.978q.16-.108.318-.218l.672.969-.33.226m-33.053-.543q-.162-.117-.323-.236l.7-.948q.155.115.312.228Zm34.675-.633-.723-.931.3-.238.737.921c-.1.083-.21.166-.315.248m-36.261-.6q-.155-.128-.307-.259l.767-.9q.146.125.294.248Zm37.8-.688-.786-.879q.143-.128.285-.258l.8.867q-.147.136-.3.27m-39.3-.646q-.146-.138-.289-.279l.826-.842q.137.134.276.267ZM70.2,69.521l-.845-.823q.134-.138.267-.278l.855.812q-.138.146-.278.289m-42.147-.692c-.09-.1-.179-.2-.269-.3l.882-.784q.128.144.258.286Zm43.5-.791-.9-.764q.124-.146.247-.295l.909.751c-.085.1-.171.206-.257.308m-44.8-.736q-.124-.157-.247-.315l.933-.721c.079.1.157.2.237.3Zm46.041-.838-.949-.7q.114-.154.226-.311l.959.686q-.117.163-.236.325m-47.232-.773q-.114-.165-.225-.331l.98-.655c.072.106.143.213.216.318Zm48.366-.883-1-.632q.1-.163.2-.327l1,.62c-.07.114-.141.227-.213.34M24.48,64q-.1-.172-.2-.346L25.3,63.07q.1.167.193.332Zm50.462-.925L73.9,62.516q.092-.17.182-.341l1.044.548c-.062.118-.125.236-.189.354m-51.42-.834q-.089-.178-.176-.358l1.061-.515q.084.173.17.345Zm52.315-.964-1.073-.489q.08-.176.158-.352l1.08.474q-.081.184-.164.368m-53.149-.856q-.077-.185-.151-.37l1.095-.438q.071.178.145.355Zm53.917-1L75.5,59.01q.067-.18.133-.364l1.11.4q-.068.189-.138.377m-54.623-.874q-.064-.19-.125-.382l1.123-.361q.059.183.12.365Zm55.26-1.033-1.131-.334c.037-.123.072-.246.107-.37l1.136.318q-.054.193-.111.386m-55.834-.89c-.034-.129-.066-.258-.1-.388l1.145-.283c.031.125.063.25.095.374Zm56.335-1.053-1.152-.254c.028-.125.055-.251.081-.377l1.155.238q-.041.2-.084.392m-56.773-.9q-.037-.2-.071-.4l1.162-.2c.022.126.044.253.068.378ZM78.107,53.6l-1.166-.175c.019-.127.037-.253.054-.381l1.169.157c-.018.133-.037.265-.057.4m-57.438-.916q-.024-.2-.044-.4l1.174-.12q.019.191.042.382Zm57.664-1.077-1.175-.094c.01-.127.019-.255.027-.383l1.177.076c-.008.134-.018.268-.029.4m-57.828-.922c-.006-.133-.011-.267-.016-.4l1.179-.039q.006.193.016.385ZM78.422,49.6l-1.179-.012,0-.384,1.179-.007Zm-56.762-.9-1.179-.026q0-.2.011-.4l1.179.041q-.006.193-.011.385M77.2,47.669c-.007-.129-.016-.257-.025-.385l1.176-.085c.009.133.018.267.026.4Zm-55.429-.883-1.175-.107c.012-.134.025-.267.039-.4L21.8,46.4c-.013.127-.026.256-.037.383m55.249-1.033c-.016-.128-.033-.255-.051-.382l1.167-.166q.028.2.054.4Zm-55.01-.876-1.164-.188c.022-.132.044-.264.066-.4l1.162.2c-.022.126-.043.252-.064.38m54.7-1.023c-.025-.126-.051-.251-.078-.376l1.153-.247c.028.131.055.262.081.394Zm-54.327-.865-1.149-.268c.031-.131.062-.261.094-.391l1.144.285c-.031.124-.061.248-.09.373m53.884-1.006c-.034-.125-.069-.248-.1-.371l1.133-.327q.055.192.109.386Zm-53.381-.851-1.127-.348q.06-.192.121-.384L23,40.764q-.06.183-.116.369m52.809-.986q-.064-.182-.13-.362l1.107-.406c.046.125.091.252.136.378Zm-52.176-.835-1.1-.425c.048-.125.1-.25.148-.374l1.094.441q-.072.179-.142.359m51.479-.954q-.076-.176-.154-.352l1.077-.481c.054.121.108.243.16.366Zm-50.721-.819-1.068-.5q.086-.183.174-.364l1.06.517q-.084.173-.166.348m49.9-.918q-.088-.17-.178-.34l1.041-.555q.094.176.186.354Zm-49.021-.8-1.03-.574q.1-.176.2-.35l1.022.589c-.064.111-.127.223-.19.336m48.082-.881q-.1-.164-.2-.327l1-.625q.106.17.21.341Zm-47.086-.769-.989-.643q.11-.169.223-.336l.979.659c-.072.106-.142.213-.212.32m46.034-.839c-.074-.1-.149-.208-.224-.312l.955-.693c.079.108.156.217.234.327ZM27.254,32.6l-.941-.712c.081-.106.162-.212.244-.318l.932.723c-.079.1-.157.2-.235.307m43.766-.8q-.121-.149-.245-.3l.9-.756q.129.153.255.309Zm-42.554-.7-.89-.774c.088-.1.177-.2.266-.3l.879.786q-.129.144-.255.289m41.29-.75c-.088-.094-.176-.186-.265-.279l.85-.818c.093.1.185.193.276.292ZM29.777,29.7l-.835-.833q.142-.142.285-.282l.823.844c-.092.09-.183.18-.274.271m38.617-.7c-.094-.088-.189-.175-.284-.261l.793-.873q.148.134.294.271Zm-37.212-.614-.776-.888.3-.261.765.9q-.146.124-.292.251m35.76-.651q-.15-.121-.3-.24l.73-.926c.105.083.21.166.314.252Zm-34.27-.564-.713-.94c.106-.081.213-.161.321-.24l.7.949-.308.23m32.735-.6c-.105-.074-.211-.147-.317-.221l.666-.973c.11.076.22.151.329.228Zm-31.164-.513L33.6,25.07q.167-.11.337-.218l.634,1q-.162.1-.322.208M63.8,25.515q-.165-.1-.331-.2l.6-1.018c.116.068.23.136.345.206Zm-27.909-.458-.578-1.028q.175-.1.351-.193l.563,1.037q-.169.091-.336.185m26.228-.482-.344-.175.524-1.056q.18.089.359.181Zm-24.522-.4-.505-1.066c.12-.057.241-.113.363-.169l.49,1.072-.348.162m22.777-.422-.355-.149.449-1.091c.125.052.248.1.372.157Zm-21.015-.339-.429-1.1q.186-.073.374-.143l.414,1.1-.36.138m19.219-.359q-.182-.064-.366-.125l.373-1.118c.128.042.255.085.381.13Zm-17.4-.28-.353-1.125q.191-.06.384-.117l.337,1.13-.368.112m15.564-.29c-.123-.034-.248-.066-.372-.1l.293-1.142q.195.05.388.1Zm-13.709-.219-.274-1.147q.2-.047.391-.09l.257,1.151-.375.086m11.837-.22c-.125-.025-.251-.049-.377-.072l.212-1.16q.2.036.395.075Zm-9.951-.158-.192-1.163c.132-.022.264-.042.4-.063l.176,1.167c-.127.018-.254.039-.38.059m8.052-.15c-.127-.016-.254-.031-.382-.045l.131-1.172q.2.022.4.048Zm-6.145-.1-.11-1.175c.132-.013.266-.024.4-.035l.095,1.175c-.128.01-.256.021-.384.034m4.229-.079c-.128-.007-.256-.014-.384-.019l.05-1.179c.134.006.268.013.4.02Zm-2.308-.037-.029-1.179.4-.008.013,1.179-.384.007" transform="translate(-12.447 -12.362)" fill="#27d4ff"/>
      <path id="패스_4265" data-name="패스 4265" d="M3.229,36.58A33.722,33.722,0,0,1,36.908,3.229c.115,0,.229.007.344.009V.009c-.115,0-.229-.009-.344-.009A36.955,36.955,0,0,0,0,36.58Z" transform="translate(0 0)" fill="#27d4ff"/>
      <path id="패스_4266" data-name="패스 4266" d="M35.649,24.936l-1.123-1.1a32.753,32.753,0,0,1,11.851-7.774l.556,1.467a31.2,31.2,0,0,0-11.283,7.4" transform="translate(-20.953 -9.764)" fill="#0068e6"/>
      <path id="패스_4267" data-name="패스 4267" d="M97.544,128.947l-.1-2.744.374-.017.141,2.742c-.136.007-.273.013-.41.018m2.038-.14-.269-2.732.375-.039.3,2.73-.4.042m2.023-.258-.426-2.712.371-.061.459,2.707-.4.066m2.01-.377-.591-2.681.37-.084.616,2.676Zm1.981-.494-.747-2.642.364-.1.773,2.635-.39.112m1.946-.61-.9-2.6q.178-.061.355-.125l.927,2.585-.384.135m1.9-.721-1.045-2.539q.172-.071.344-.144l1.079,2.525q-.188.08-.377.158m1.86-.833-1.2-2.472q.169-.081.337-.165l1.223,2.458-.365.179m1.808-.94-1.34-2.4.329-.186,1.364,2.383-.353.2m1.749-1.043-1.475-2.316.316-.2,1.5,2.3q-.17.112-.342.22m1.687-1.144-1.606-2.227.3-.222,1.632,2.208-.329.24m1.618-1.24-1.732-2.13q.147-.119.291-.239l1.757,2.111q-.157.13-.315.258m1.546-1.333-1.855-2.024.277-.257,1.877,2.005q-.148.139-.3.276m1.463-1.418-1.965-1.917.26-.27,1.989,1.893q-.141.148-.284.295m1.38-1.5-2.072-1.8c.082-.094.163-.189.243-.284l2.1,1.774q-.132.157-.268.312m1.294-1.583-2.177-1.673q.115-.149.228-.3l2.2,1.649q-.123.164-.247.325m1.2-1.651-2.267-1.549q.106-.155.209-.311l2.287,1.519c-.076.114-.152.228-.229.34m1.1-1.722-2.354-1.413q.1-.161.192-.324l2.371,1.384q-.1.177-.209.352m1-1.785-2.436-1.268.174-.337,2.448,1.244q-.092.181-.186.362m.892-1.837-2.5-1.127q.077-.171.152-.344l2.518,1.095q-.082.189-.166.376m.784-1.891-2.567-.975q.067-.177.132-.355l2.578.947q-.071.192-.143.383m.671-1.933-2.62-.823c.038-.12.075-.24.111-.361l2.629.792q-.059.2-.12.391m.555-1.968-2.664-.664q.045-.183.089-.366l2.671.635q-.047.2-.1.4m.437-1.993-2.7-.508c.023-.123.046-.247.067-.371l2.7.478c-.024.134-.048.267-.073.4m.319-2.014-2.723-.351c.016-.124.031-.248.046-.372l2.727.317c-.016.136-.033.271-.05.406m.2-2.03-2.739-.193q.013-.187.024-.373l2.741.157q-.012.2-.026.41m.082-2.039-2.746-.032c0-.125,0-.251,0-.376h2.746q0,.2,0,.408" transform="translate(-59.088 -57.023)" fill="#27d4ff"/>
      <path id="패스_4268" data-name="패스 4268" d="M9.115,109.284A36.388,36.388,0,0,1,5.041,92.539H7a34.393,34.393,0,0,0,3.847,15.827Z" transform="translate(-3.063 -56.155)" fill="#27d4ff"/>
      <path id="패스_4269" data-name="패스 4269" d="M57.587,160.183a32.749,32.749,0,0,1-23.72-10.059l1.415-1.362a31.024,31.024,0,0,0,42.638,1.866l1.291,1.479a33,33,0,0,1-21.625,8.075" transform="translate(-20.582 -90.28)" fill="#27d4ff"/>
      <path id="패스_4270" data-name="패스 4270" d="M159.793,113.2l-1.592-1.145a30.67,30.67,0,0,0,5.806-18.019h1.961a32.622,32.622,0,0,1-6.175,19.164" transform="translate(-96.016 -57.061)" fill="#27d4ff"/>
      <path id="패스_4271" data-name="패스 4271" d="M173.9,70.921h-.392a32.825,32.825,0,0,0-3.455-14.747l.351-.175a33.214,33.214,0,0,1,3.5,14.922" transform="translate(-103.219 -33.983)" fill="#27d4ff"/>
      <path id="패스_4272" data-name="패스 4272" d="M106.1,10.948A32.994,32.994,0,0,0,94.164,8.731V8.339a33.379,33.379,0,0,1,12.076,2.243Z" transform="translate(-57.147 -5.068)" fill="#27d4ff"/>
      <path id="패스_4273" data-name="패스 4273" d="M137.9,34.461A29.943,29.943,0,0,0,121.921,19.9l.707-1.83a31.9,31.9,0,0,1,17.023,15.521Z" transform="translate(-73.967 -10.979)" fill="#27d4ff"/>
    </g>
    <g id="notice" transform="translate(957 325.591)">
      <path id="패스_91880" data-name="패스 91880" d="M24.991,16.045c-.24,5.84-4.907,10.369-10.424,10.115S4.77,20.966,5.01,15.125,9.917,4.757,15.435,5.011s9.8,5.194,9.556,11.034" transform="translate(-5 -2.585)" fill="none" stroke="rgba(0,0,0,0)" stroke-width="1"/>
      <path id="패스_91757" data-name="패스 91757" d="M13.948,34.256a2.576,2.576,0,0,1,.828-1.974,2.935,2.935,0,0,1,2.073-.772,2.933,2.933,0,0,1,2.071.772,2.769,2.769,0,0,1,0,3.95A2.926,2.926,0,0,1,16.849,37a2.927,2.927,0,0,1-2.073-.774,2.577,2.577,0,0,1-.828-1.976M19,27.18H14.769L14.1,11h5.571Z" transform="translate(-6.849 -11.005)" fill="#fff"/>
    </g>
  </g>
</svg>
