<svg width="201" height="28" viewBox="0 0 201 28" fill="none" xmlns="http://www.w3.org/2000/svg">
<g clip-path="url(#clip0_5151_74980)">
<mask id="mask0_5151_74980" style="mask-type:luminance" maskUnits="userSpaceOnUse" x="0" y="0" width="201" height="28">
<path d="M200.5 0.257812H0.5V27.7418H200.5V0.257812Z" fill="white"/>
</mask>
<g mask="url(#mask0_5151_74980)">
<path d="M57.5969 7.1371C58.2612 7.1371 58.9107 6.94009 59.4631 6.57099C60.0155 6.20189 60.446 5.67728 60.7003 5.06349C60.9545 4.4497 61.021 3.7743 60.8914 3.1227C60.7618 2.4711 60.4419 1.87257 59.9721 1.4028C59.5023 0.933022 58.9038 0.613101 58.2522 0.483491C57.6006 0.35388 56.9252 0.420401 56.3114 0.674641C55.6976 0.928882 55.173 1.35942 54.8039 1.91182C54.4348 2.46422 54.2378 3.11366 54.2378 3.77802C54.2378 4.66891 54.5917 5.5233 55.2216 6.15325C55.8516 6.7832 56.706 7.1371 57.5969 7.1371Z" fill="#0068E6"/>
<path d="M60.9562 10.4961H54.2393V27.289H60.9562V10.4961Z" fill="#0068E6"/>
</g>
<mask id="mask1_5151_74980" style="mask-type:luminance" maskUnits="userSpaceOnUse" x="0" y="0" width="21" height="28">
<path d="M0.5 0.419922V13.8538C0.500592 16.2118 1.12174 18.5281 2.30103 20.5701C3.48033 22.6121 5.17624 24.3077 7.21838 25.4867C9.26052 26.6657 11.577 27.2865 13.935 27.2867C16.293 27.2869 18.6096 26.6666 20.652 25.488V13.8538C20.652 15.6354 19.9443 17.344 18.6845 18.6038C17.4247 19.8636 15.7161 20.5713 13.9345 20.5713C12.1529 20.5713 10.4442 19.8636 9.18444 18.6038C7.92465 17.344 7.21692 15.6354 7.21692 13.8538V0.419922H0.5Z" fill="white"/>
</mask>
<g mask="url(#mask1_5151_74980)">
<path d="M20.652 0.419922H0.5V27.2888H20.652V0.419922Z" fill="url(#paint0_linear_5151_74980)"/>
</g>
<mask id="mask2_5151_74980" style="mask-type:luminance" maskUnits="userSpaceOnUse" x="0" y="0" width="201" height="28">
<path d="M200.5 0.257812H0.5V27.7418H200.5V0.257812Z" fill="white"/>
</mask>
<g mask="url(#mask2_5151_74980)">
<path d="M40.8038 2.21737C38.7611 1.03917 36.4445 0.418945 34.0863 0.418945C31.7282 0.418945 29.4115 1.03917 27.3688 2.21737V0.419017H20.6519V27.2892H27.3688V13.8541C27.3688 12.0725 28.0765 10.3639 29.3363 9.10407C30.5961 7.84429 32.3047 7.13655 34.0863 7.13655C35.8679 7.13655 37.5765 7.84429 38.8363 9.10407C40.0961 10.3639 40.8038 12.0725 40.8038 13.8541V27.2892H47.5208V13.8541C47.5213 11.4958 46.9008 9.179 45.7217 7.13668C44.5426 5.09435 42.8464 3.39855 40.8038 2.21985" fill="#0068E6"/>
<path d="M87.956 3.54539H79.5324V27.3003H76.0965V3.54539H67.6729V0.664062H87.956V3.54539Z" fill="black"/>
<path d="M99.5939 11.563C98.7069 11.5577 97.8218 11.6444 96.9527 11.8217C96.176 11.9781 95.424 12.2392 94.7174 12.5977C94.0159 12.9956 93.3855 13.5076 92.8523 14.1127C92.2799 14.7391 91.8787 15.5026 91.6876 16.3294C91.4584 17.4224 91.3472 18.537 91.3559 19.6538V27.3014H88.1045V8.82898H91.3559V12.0804C92.1907 11.0278 93.2345 10.1597 94.4216 9.53075C96.0146 8.6997 97.799 8.30472 99.5939 8.38589V11.563Z" fill="black"/>
<path d="M117.07 27.3012H113.707V25.1971C113.05 25.7754 112.317 26.2602 111.528 26.6378C110.824 27.0121 110.072 27.2858 109.292 27.451C108.349 27.6366 107.389 27.7233 106.428 27.7096C105.829 27.6892 105.236 27.5708 104.674 27.3594C104.031 27.1427 103.426 26.8243 102.882 26.4162C102.354 25.9925 101.936 25.4478 101.663 24.8283C101.384 24.1746 101.246 23.4696 101.256 22.7589C101.224 21.4457 101.67 20.1656 102.512 19.1572C103.324 18.1767 104.402 17.4516 105.616 17.0693C106.423 16.8084 107.251 16.6232 108.092 16.516C108.875 16.402 109.664 16.3399 110.456 16.3304H113.707V14.8142C113.693 14.4456 113.637 14.0797 113.54 13.7238C113.429 13.2673 113.236 12.8352 112.968 12.449C112.608 12.0054 112.145 11.6566 111.619 11.4328C110.925 11.1316 110.173 10.9867 109.416 11.0083C108.438 10.9793 107.473 11.243 106.646 11.7658C106.279 11.9991 105.979 12.3251 105.778 12.711C105.577 13.0969 105.481 13.5291 105.5 13.9639H101.742C101.73 13.2314 101.882 12.5055 102.186 11.8388C102.521 11.161 103.014 10.5727 103.621 10.1221C104.376 9.57062 105.219 9.15204 106.115 8.88444C107.182 8.54458 108.296 8.37582 109.416 8.38441C111.478 8.23999 113.517 8.89506 115.109 10.2137C115.735 10.7732 116.234 11.4605 116.572 12.2291C116.91 12.9978 117.079 13.8299 117.067 14.6694L117.07 27.3012ZM113.707 20.3182V18.7661C113.14 18.7661 112.463 18.7727 111.675 18.7859C110.709 18.8139 109.747 18.9061 108.794 19.0619C107.807 19.1834 106.86 19.5248 106.022 20.0607C105.614 20.2982 105.273 20.6374 105.035 21.0454C104.796 21.4534 104.667 21.9162 104.661 22.3888C104.625 22.7801 104.687 23.1742 104.842 23.5354C104.996 23.8965 105.239 24.2133 105.547 24.457C106.226 24.9017 107.027 25.1217 107.838 25.0857C108.329 25.0635 108.817 24.9888 109.292 24.863C109.884 24.7276 110.46 24.5292 111.01 24.2713C111.939 23.7567 112.726 23.0208 113.301 22.1289C113.599 21.5735 113.739 20.9474 113.707 20.3182Z" fill="black"/>
<path d="M133.73 3.50807C133.154 3.29725 132.561 3.13658 131.957 3.02785C131.346 2.92632 130.729 2.87705 130.11 2.88057C129.53 2.8519 128.951 2.94639 128.411 3.15781C127.985 3.36974 127.627 3.69585 127.376 4.09969C127.178 4.4699 127.041 4.86936 126.97 5.28291C126.889 5.78333 126.852 6.28977 126.859 6.7966V8.82888H132.364V11.4515H126.859V27.3013H123.423V11.4515H120.06V8.82888H123.422V7.49961C123.42 6.66631 123.461 5.83348 123.545 5.00444C123.635 4.16644 123.92 3.36113 124.377 2.65283C124.87 1.92393 125.548 1.33917 126.341 0.958443C127.481 0.458732 128.718 0.219416 129.962 0.257913C130.642 0.253744 131.322 0.30299 131.995 0.405197C132.611 0.504212 133.188 0.602402 133.728 0.699767L133.73 3.50807Z" fill="black"/>
<path d="M147.548 3.50807C146.972 3.29725 146.378 3.13658 145.774 3.02785C145.164 2.92632 144.546 2.87705 143.928 2.88057C143.348 2.8519 142.769 2.94639 142.228 3.15781C141.803 3.36974 141.445 3.69585 141.194 4.09969C140.996 4.4699 140.859 4.86936 140.788 5.28291C140.707 5.78333 140.67 6.28977 140.676 6.7966V8.82888H146.181V11.4515H140.676V27.3013H137.24V11.4515H133.879V8.82888H137.24V7.49961C137.239 6.66631 137.28 5.83348 137.364 5.00444C137.454 4.16644 137.739 3.36113 138.196 2.65283C138.689 1.9241 139.366 1.33936 140.159 0.958443C141.299 0.458732 142.535 0.219416 143.779 0.257913C144.46 0.253744 145.14 0.30299 145.813 0.405197C146.428 0.504212 147.006 0.602402 147.545 0.699767L147.548 3.50807Z" fill="black"/>
<path d="M153.495 4.65436H149.468V0.664062H153.495V4.65436ZM153.237 27.304H149.801V8.82907H153.23L153.237 27.304Z" fill="black"/>
<path d="M173.631 14.8873H170.085C170.099 13.8898 169.743 12.9226 169.086 12.1718C168.681 11.7576 168.19 11.4383 167.647 11.237C167.104 11.0356 166.523 10.9571 165.946 11.0071C165.21 10.9935 164.48 11.1435 163.81 11.4464C163.139 11.7493 162.544 12.1974 162.067 12.7584C160.957 14.1541 160.404 15.9119 160.515 17.6918C160.516 18.2308 160.559 18.7688 160.645 19.3008C160.734 19.8658 160.889 20.4184 161.107 20.947C161.347 21.6191 161.703 22.2441 162.159 22.7936C162.721 23.4486 163.405 23.9879 164.172 24.3815C164.617 24.5786 165.082 24.7271 165.559 24.8246C166.256 24.9796 166.968 25.0539 167.683 25.0462C168.472 25.0305 169.258 24.9506 170.034 24.8073C171.099 24.6029 172.119 24.2084 173.044 23.6426V26.3396C171.911 26.9392 170.689 27.3509 169.424 27.5587C168.178 27.7565 166.912 27.794 165.656 27.6701C164.54 27.5628 163.448 27.2761 162.422 26.821C161.458 26.4214 160.576 25.845 159.823 25.1217C158.96 24.2313 158.277 23.1834 157.81 22.0349C157.252 20.6442 156.982 19.1551 157.015 17.6572C157 16.4042 157.187 15.157 157.571 13.9639C157.931 12.8684 158.537 11.87 159.343 11.0455C160.131 10.1987 161.096 9.53608 162.169 9.10479C163.395 8.60919 164.708 8.36426 166.03 8.38446C167.027 8.37076 168.019 8.52044 168.967 8.82755C169.818 9.11184 170.622 9.52328 171.35 10.0479C172.02 10.5961 172.579 11.2685 172.995 12.0282C173.45 12.9119 173.673 13.8973 173.641 14.891" fill="black"/>
</g>
<mask id="mask3_5151_74980" style="mask-type:luminance" maskUnits="userSpaceOnUse" x="187" y="3" width="6" height="21">
<path d="M187.905 6.29665V21.4113C187.905 22.0794 188.171 22.7202 188.643 23.1927C189.116 23.6651 189.756 23.9306 190.425 23.9306C191.093 23.9306 191.734 23.6651 192.206 23.1927C192.678 22.7202 192.944 22.0794 192.944 21.4113V6.29665C192.944 5.62849 192.678 4.98769 192.206 4.51523C191.734 4.04277 191.093 3.77734 190.425 3.77734C189.756 3.77734 189.116 4.04277 188.643 4.51523C188.171 4.98769 187.905 5.62849 187.905 6.29665Z" fill="white"/>
</mask>
<g mask="url(#mask3_5151_74980)">
<path d="M192.944 3.77783H187.905V23.9298H192.944V3.77783Z" fill="url(#paint1_linear_5151_74980)"/>
</g>
<mask id="mask4_5151_74980" style="mask-type:luminance" maskUnits="userSpaceOnUse" x="0" y="0" width="201" height="28">
<path d="M200.5 0.257812H0.5V27.7418H200.5V0.257812Z" fill="white"/>
</mask>
<g mask="url(#mask4_5151_74980)">
<path d="M180.348 13.8537C180.348 13.1857 180.614 12.545 181.086 12.0727C181.558 11.6003 182.199 11.335 182.867 11.335H197.981C198.649 11.335 199.29 11.6003 199.762 12.0727C200.235 12.545 200.5 13.1857 200.5 13.8537C200.5 14.5216 200.235 15.1623 199.762 15.6346C199.29 16.107 198.649 16.3723 197.981 16.3723H182.867C182.199 16.3723 181.558 16.107 181.086 15.6346C180.614 15.1623 180.348 14.5216 180.348 13.8537Z" fill="#27D4FF"/>
</g>
</g>
<defs>
<linearGradient id="paint0_linear_5151_74980" x1="0.5" y1="27.7456" x2="20.6521" y2="27.8061" gradientUnits="userSpaceOnUse">
<stop offset="0.546875" stop-color="#0068E6"/>
<stop offset="1" stop-color="#0032A0"/>
</linearGradient>
<linearGradient id="paint1_linear_5151_74980" x1="190.425" y1="3.77783" x2="190.425" y2="23.9298" gradientUnits="userSpaceOnUse">
<stop stop-color="#27D4FF"/>
<stop offset="0.502" stop-color="#0082F0"/>
<stop offset="1" stop-color="#27D4FF"/>
</linearGradient>
<clipPath id="clip0_5151_74980">
<rect width="200" height="27.484" fill="white" transform="translate(0.5 0.257812)"/>
</clipPath>
</defs>
</svg>
