<svg width="146" height="20" viewBox="0 0 146 20" fill="none" xmlns="http://www.w3.org/2000/svg">
<g clip-path="url(#clip0_4227_17122)">
<mask id="mask0_4227_17122" style="mask-type:luminance" maskUnits="userSpaceOnUse" x="0" y="0" width="146" height="20">
<path d="M145.539 0H0V20H145.539V0Z" fill="white"/>
</mask>
<g mask="url(#mask0_4227_17122)">
<path d="M41.5489 5.00596C42.0323 5.00596 42.5049 4.8626 42.9069 4.594C43.3089 4.32541 43.6222 3.94365 43.8072 3.497C43.9922 3.05035 44.0406 2.55886 43.9463 2.0847C43.852 1.61053 43.6192 1.17499 43.2773 0.833132C42.9355 0.491279 42.4999 0.258474 42.0258 0.164157C41.5516 0.0698397 41.0601 0.118247 40.6135 0.303256C40.1668 0.488266 39.785 0.801569 39.5164 1.20355C39.2479 1.60552 39.1045 2.07812 39.1045 2.56157C39.1045 3.20986 39.362 3.8316 39.8204 4.29001C40.2788 4.74843 40.9006 5.00596 41.5489 5.00596Z" fill="#0068E6"/>
<path d="M43.9933 7.45044H39.1055V19.6706H43.9933V7.45044Z" fill="#0068E6"/>
</g>
<mask id="mask1_4227_17122" style="mask-type:luminance" maskUnits="userSpaceOnUse" x="0" y="0" width="15" height="20">
<path d="M0 0.11792V9.89366C0.00043088 11.6096 0.452435 13.2952 1.3106 14.7811C2.16877 16.267 3.40287 17.501 4.88893 18.3589C6.37499 19.2168 8.06066 19.6686 9.77659 19.6687C11.4925 19.6689 13.1783 19.2175 14.6645 18.3598V9.89366C14.6645 11.1901 14.1495 12.4335 13.2327 13.3502C12.316 14.267 11.0726 14.782 9.77619 14.782C8.47972 14.782 7.23636 14.267 6.31962 13.3502C5.40288 12.4335 4.88787 11.1901 4.88787 9.89366V0.11792H0Z" fill="white"/>
</mask>
<g mask="url(#mask1_4227_17122)">
<path d="M14.6645 0.11792H0V19.6703H14.6645V0.11792Z" fill="url(#paint0_linear_4227_17122)"/>
</g>
<mask id="mask2_4227_17122" style="mask-type:luminance" maskUnits="userSpaceOnUse" x="0" y="0" width="146" height="20">
<path d="M145.539 0H0V20H145.539V0Z" fill="white"/>
</mask>
<g mask="url(#mask2_4227_17122)">
<path d="M29.3286 1.42565C27.8421 0.568276 26.1563 0.116943 24.4402 0.116943C22.7242 0.116943 21.0384 0.568276 19.5519 1.42565V0.116995H14.6641V19.6703H19.5519V9.89363C19.5519 8.59717 20.0669 7.35381 20.9837 6.43707C21.9004 5.52033 23.1438 5.00531 24.4402 5.00531C25.7367 5.00531 26.9801 5.52033 27.8968 6.43707C28.8135 7.35381 29.3286 8.59717 29.3286 9.89363V19.6703H34.2164V9.89363C34.2168 8.17754 33.7653 6.49159 32.9073 5.0054C32.0492 3.51921 30.8149 2.28518 29.3286 1.42745" fill="#0068E6"/>
<path d="M63.6408 2.39214H57.511V19.6785H55.0107V2.39214H48.8809V0.29541H63.6408V2.39214Z" fill="black"/>
<path d="M72.1098 8.22654C71.4644 8.22265 70.8203 8.28573 70.1878 8.41478C69.6226 8.52862 69.0754 8.71859 68.5612 8.97949C68.0507 9.26899 67.592 9.64156 67.2039 10.0819C66.7874 10.5378 66.4955 11.0933 66.3564 11.695C66.1896 12.4904 66.1087 13.3014 66.115 14.1141V19.6793H63.749V6.23699H66.115V8.60302C66.7225 7.83707 67.4821 7.20533 68.346 6.74766C69.5052 6.14291 70.8037 5.85549 72.1098 5.91455V8.22654Z" fill="black"/>
<path d="M84.8272 19.6794H82.3802V18.1483C81.9022 18.5691 81.3685 18.9218 80.7941 19.1966C80.2823 19.469 79.7347 19.6682 79.1675 19.7884C78.4812 19.9235 77.7827 19.9866 77.0834 19.9766C76.6469 19.9617 76.2158 19.8756 75.8072 19.7217C75.3386 19.5641 74.8983 19.3324 74.503 19.0354C74.1188 18.727 73.8145 18.3307 73.6159 17.8799C73.4129 17.4041 73.3119 16.8911 73.3195 16.374C73.2962 15.4183 73.6211 14.4868 74.2337 13.753C74.8245 13.0395 75.6089 12.5119 76.4926 12.2336C77.0792 12.0438 77.6822 11.9091 78.2939 11.831C78.8637 11.7481 79.4383 11.7029 80.0141 11.6959H82.3802V10.5926C82.3699 10.3244 82.3291 10.0582 82.2586 9.79916C82.178 9.467 82.037 9.15253 81.8425 8.87149C81.5803 8.54872 81.2433 8.29489 80.8607 8.13205C80.3554 7.91284 79.8081 7.80738 79.2576 7.82312C78.5458 7.80198 77.8439 7.99392 77.2419 8.37432C76.9745 8.54409 76.7567 8.78135 76.6102 9.06218C76.4638 9.34301 76.394 9.65748 76.4079 9.97389H73.6735C73.6648 9.44086 73.7749 8.91259 73.9959 8.42746C74.2404 7.93425 74.5985 7.50611 75.0407 7.17825C75.59 6.77692 76.2037 6.47233 76.8555 6.27759C77.632 6.03028 78.4427 5.90747 79.2576 5.91373C80.7583 5.80863 82.2419 6.28532 83.4006 7.2449C83.8561 7.65206 84.219 8.15217 84.4648 8.7115C84.7106 9.27083 84.8336 9.87637 84.8254 10.4873L84.8272 19.6794ZM82.3802 14.5979V13.4684C81.9677 13.4684 81.4747 13.4732 80.9013 13.4829C80.1987 13.5032 79.4982 13.5703 78.8045 13.6837C78.0865 13.7721 77.3974 14.0205 76.788 14.4105C76.4906 14.5833 76.243 14.8302 76.0694 15.1271C75.8958 15.424 75.802 15.7608 75.7972 16.1047C75.7709 16.3894 75.8161 16.6762 75.9287 16.939C76.0413 17.2018 76.2178 17.4324 76.4421 17.6097C76.9361 17.9333 77.5193 18.0934 78.1092 18.0672C78.4668 18.051 78.8215 17.9967 79.1675 17.9051C79.5984 17.8066 80.0175 17.6622 80.4176 17.4746C81.0932 17.1001 81.6659 16.5645 82.0847 15.9155C82.3012 15.5113 82.4033 15.0558 82.3802 14.5979Z" fill="black"/>
<path d="M96.9507 2.36511C96.5313 2.2117 96.0995 2.09478 95.66 2.01566C95.216 1.94177 94.7664 1.90592 94.3163 1.90848C93.8944 1.88762 93.473 1.95638 93.0797 2.11023C92.77 2.26444 92.5093 2.50175 92.3267 2.79563C92.1829 3.06503 92.0832 3.35572 92.0313 3.65666C91.9726 4.02081 91.9455 4.38934 91.9502 4.75816V6.23704H95.9564V8.14553H91.9502V19.6794H89.45V8.14553H87.0029V6.23704H89.4491V5.26973C89.4479 4.66334 89.478 4.0573 89.5392 3.45401C89.6047 2.8442 89.812 2.25818 90.1444 1.74276C90.5032 1.21234 90.9965 0.786814 91.5738 0.509758C92.4031 0.146121 93.3031 -0.0280279 94.2082 -1.40248e-05C94.7035 -0.00304739 95.1983 0.0327887 95.688 0.107164C96.1359 0.179217 96.5562 0.250669 96.9489 0.321521L96.9507 2.36511Z" fill="black"/>
<path d="M107.005 2.36511C106.586 2.2117 106.154 2.09478 105.715 2.01566C105.271 1.94177 104.821 1.90592 104.371 1.90848C103.949 1.88762 103.528 1.95638 103.134 2.11023C102.825 2.26444 102.564 2.50175 102.381 2.79563C102.238 3.06503 102.138 3.35572 102.086 3.65666C102.027 4.02081 102 4.38934 102.005 4.75816V6.23704H106.011V8.14553H102.005V19.6794H99.5048V8.14553H97.0586V6.23704H99.5048V5.26973C99.5036 4.66334 99.5336 4.0573 99.5948 3.45401C99.6604 2.8442 99.8677 2.25818 100.2 1.74276C100.559 1.21246 101.052 0.786947 101.629 0.509758C102.458 0.146121 103.358 -0.0280279 104.263 -1.40248e-05C104.758 -0.00304739 105.253 0.0327887 105.743 0.107164C106.191 0.179217 106.611 0.250669 107.004 0.321521L107.005 2.36511Z" fill="black"/>
<path d="M111.333 3.19913H108.402V0.29541H111.333V3.19913ZM111.145 19.6812H108.645V6.23705H111.14L111.145 19.6812Z" fill="black"/>
<path d="M125.986 10.6457H123.406C123.415 9.91992 123.157 9.21609 122.679 8.66969C122.384 8.36831 122.026 8.13599 121.631 7.98944C121.236 7.84289 120.814 7.78576 120.394 7.82218C119.858 7.81224 119.327 7.92143 118.839 8.14183C118.351 8.36223 117.918 8.68835 117.571 9.09661C116.763 10.1122 116.361 11.3914 116.442 12.6866C116.442 13.0788 116.474 13.4703 116.536 13.8575C116.601 14.2686 116.713 14.6707 116.872 15.0554C117.047 15.5445 117.306 15.9993 117.638 16.3991C118.047 16.8758 118.544 17.2683 119.103 17.5547C119.427 17.6981 119.765 17.8062 120.112 17.8771C120.619 17.9899 121.138 18.044 121.657 18.0383C122.232 18.0269 122.804 17.9688 123.369 17.8645C124.144 17.7158 124.886 17.4287 125.559 17.017V18.9795C124.735 19.4159 123.845 19.7155 122.925 19.8667C122.018 20.0106 121.097 20.0379 120.183 19.9477C119.37 19.8697 118.576 19.6611 117.83 19.3299C117.128 19.0391 116.486 18.6197 115.938 18.0933C115.31 17.4454 114.813 16.6828 114.473 15.847C114.067 14.8351 113.87 13.7514 113.895 12.6614C113.883 11.7496 114.02 10.842 114.299 9.97385C114.561 9.17662 115.002 8.45007 115.589 7.8501C116.162 7.23391 116.864 6.75171 117.645 6.43786C118.537 6.07722 119.493 5.89899 120.455 5.91368C121.18 5.90372 121.902 6.01264 122.592 6.23612C123.212 6.44299 123.796 6.7424 124.326 7.12417C124.814 7.52309 125.22 8.01238 125.523 8.56522C125.854 9.20827 126.016 9.92533 125.993 10.6484" fill="black"/>
</g>
<mask id="mask3_4227_17122" style="mask-type:luminance" maskUnits="userSpaceOnUse" x="136" y="2" width="5" height="16">
<path d="M136.374 4.39432V15.3932C136.374 15.8794 136.567 16.3457 136.911 16.6895C137.255 17.0333 137.721 17.2264 138.207 17.2264C138.694 17.2264 139.16 17.0333 139.504 16.6895C139.847 16.3457 140.041 15.8794 140.041 15.3932V4.39432C140.041 3.90811 139.847 3.4418 139.504 3.09799C139.16 2.75418 138.694 2.56104 138.207 2.56104C137.721 2.56104 137.255 2.75418 136.911 3.09799C136.567 3.4418 136.374 3.90811 136.374 4.39432Z" fill="white"/>
</mask>
<g mask="url(#mask3_4227_17122)">
<path d="M140.041 2.56152H136.374V17.226H140.041V2.56152Z" fill="url(#paint1_linear_4227_17122)"/>
</g>
<mask id="mask4_4227_17122" style="mask-type:luminance" maskUnits="userSpaceOnUse" x="0" y="0" width="146" height="20">
<path d="M145.539 0H0V20H145.539V0Z" fill="white"/>
</mask>
<g mask="url(#mask4_4227_17122)">
<path d="M130.875 9.89363C130.875 9.40753 131.068 8.94134 131.412 8.59762C131.756 8.25389 132.222 8.06079 132.708 8.06079H143.707C144.193 8.06079 144.659 8.25389 145.003 8.59762C145.346 8.94134 145.54 9.40753 145.54 9.89363C145.54 10.3797 145.346 10.8459 145.003 11.1896C144.659 11.5334 144.193 11.7265 143.707 11.7265H132.708C132.222 11.7265 131.756 11.5334 131.412 11.1896C131.068 10.8459 130.875 10.3797 130.875 9.89363Z" fill="#0068E6"/>
</g>
</g>
<defs>
<linearGradient id="paint0_linear_4227_17122" x1="3.48531e-09" y1="20.0027" x2="14.6646" y2="20.0467" gradientUnits="userSpaceOnUse">
<stop offset="0.546875" stop-color="#0068E6"/>
<stop offset="1" stop-color="#0032A0"/>
</linearGradient>
<linearGradient id="paint1_linear_4227_17122" x1="138.207" y1="2.56152" x2="138.207" y2="17.226" gradientUnits="userSpaceOnUse">
<stop stop-color="#27D4FF"/>
<stop offset="0.502" stop-color="#0082F0"/>
<stop offset="1" stop-color="#27D4FF"/>
</linearGradient>
<clipPath id="clip0_4227_17122">
<rect width="145.539" height="20" fill="white"/>
</clipPath>
</defs>
</svg>
