<svg width="24" height="24" viewBox="0 0 24 24" fill="none" xmlns="http://www.w3.org/2000/svg">
<g>
<mask id="mask0_661_4032" style="mask-type:luminance" maskUnits="userSpaceOnUse" x="0" y="0" width="24" height="24">
<path d="M24 0H0V24H24V0Z" fill="white"/>
</mask>
<g mask="url(#mask0_661_4032)">
<path d="M12.5 20H6.5C5.83696 20 5.20107 19.7366 4.73223 19.2678C4.26339 18.7989 4 18.163 4 17.5V6.5C4 5.83696 4.26339 5.20107 4.73223 4.73223C5.20107 4.26339 5.83696 4 6.5 4H12.5C12.6326 4 12.7598 4.05268 12.8536 4.14645C12.9473 4.24021 13 4.36739 13 4.5C13 4.63261 12.9473 4.75979 12.8536 4.85355C12.7598 4.94732 12.6326 5 12.5 5H6.5C6.10218 5 5.72064 5.15804 5.43934 5.43934C5.15804 5.72064 5 6.10218 5 6.5V17.5C5 17.8978 5.15804 18.2794 5.43934 18.5607C5.72064 18.842 6.10218 19 6.5 19H12.5C12.6326 19 12.7598 19.0527 12.8536 19.1464C12.9473 19.2402 13 19.3674 13 19.5C13 19.6326 12.9473 19.7598 12.8536 19.8536C12.7598 19.9473 12.6326 20 12.5 20Z" fill="white"/>
<path d="M20.7924 11.4991L16.0184 7.6391C15.9238 7.56278 15.8095 7.51474 15.6888 7.50052C15.5681 7.4863 15.4458 7.50649 15.3361 7.55875C15.2263 7.61101 15.1336 7.69322 15.0685 7.7959C15.0035 7.89858 14.9688 8.01755 14.9684 8.1391V10.9991H9.48438C9.21916 10.9991 8.9648 11.1045 8.77727 11.292C8.58973 11.4795 8.48438 11.7339 8.48438 11.9991C8.48438 12.2643 8.58973 12.5187 8.77727 12.7062C8.9648 12.8937 9.21916 12.9991 9.48438 12.9991H14.9684V15.8581C14.9688 15.9797 15.0035 16.0986 15.0685 16.2013C15.1336 16.304 15.2263 16.3862 15.3361 16.4385C15.4458 16.4907 15.5681 16.5109 15.6888 16.4967C15.8095 16.4825 15.9238 16.4344 16.0184 16.3581L20.7924 12.4991C20.8668 12.4387 20.9267 12.3625 20.9679 12.276C21.0091 12.1895 21.0305 12.0949 21.0305 11.9991C21.0305 11.9033 21.0091 11.8087 20.9679 11.7222C20.9267 11.6357 20.8668 11.5595 20.7924 11.4991Z" fill="white"/>
</g>
</g>
</svg>
