<svg id="그룹_170231" data-name="그룹 170231" xmlns="http://www.w3.org/2000/svg" xmlns:xlink="http://www.w3.org/1999/xlink" width="120" height="42" viewBox="0 0 120 42">
  <defs>
    <clipPath id="clip-path">
      <rect id="사각형_37977" data-name="사각형 37977" width="114.069" height="25.036" fill="#fff"/>
    </clipPath>
  </defs>
  <rect id="사각형_36173" data-name="사각형 36173" width="120" height="42" fill="none"/>
  <g id="그룹_170078" data-name="그룹 170078" transform="translate(1 8.482)">
    <g id="그룹_170076" data-name="그룹 170076" clip-path="url(#clip-path)">
      <path id="패스_88733" data-name="패스 88733" d="M11.214,18.58a11.67,11.67,0,0,0,12.079.313A12.517,12.517,0,1,1,14.65.186a6.061,6.061,0,0,1,3.864,2.7,9.94,9.94,0,0,1,1.145,2.827l.005.025a10.2,10.2,0,0,1-.037,4.458A9.621,9.621,0,0,1,16.049,15.9l-.009.01a4.89,4.89,0,1,0-8.287-4.489A5.256,5.256,0,0,0,7.7,13.651a7.837,7.837,0,0,0,3.514,4.929" transform="translate(0 0)" fill="#005fae"/>
      <path id="패스_88734" data-name="패스 88734" d="M89.964,101.862a10.024,10.024,0,0,0,2.476.913,10.286,10.286,0,0,0,8.484-1.816l.015-.014a10.467,10.467,0,0,0,3.823-5.086,11.55,11.55,0,0,1-.313,4.888A10.159,10.159,0,0,1,94.3,104.1a9.928,9.928,0,0,1-4.34-2.237" transform="translate(-79.82 -85.05)" fill="#00979b"/>
      <path id="패스_88735" data-name="패스 88735" d="M117.165,38.4a10.225,10.225,0,0,0,10.413-7.475,13.123,13.123,0,0,0,.347-2.4,12.734,12.734,0,0,0-3.715-4.805,10.268,10.268,0,0,1-6.137,14.464,6.9,6.9,0,0,1-.913.215Z" transform="translate(-103.949 -21.045)" fill="#00979b"/>
      <rect id="사각형_37975" data-name="사각형 37975" width="2.067" height="9.024" transform="translate(43.645 5.139)" fill="#fff"/>
      <rect id="사각형_37976" data-name="사각형 37976" width="2.067" height="15.138" transform="translate(112.002 5.136)" fill="#fff"/>
      <path id="패스_88736" data-name="패스 88736" d="M510.93,45.516v2.891h-3.017v1.764h3.017v4.376H513V45.516Z" transform="translate(-450.64 -40.383)" fill="#fff"/>
      <path id="패스_88737" data-name="패스 88737" d="M433.2,49.621l-3.392-5.76h2.865V42.1h-3.123V40.907h-2.068V42.1h-3.111v1.764h2.842l-3.392,5.76h2.234l2.454-4.168,2.456,4.168Z" transform="translate(-376.027 -36.294)" fill="#fff"/>
      <path id="패스_88738" data-name="패스 88738" d="M884.516,60.21l-5.269-10.237h-2.314l-5.27,10.237h2.292l4.136-8.031,4.135,8.031Z" transform="translate(-773.373 -44.338)" fill="#fff"/>
      <path id="패스_88739" data-name="패스 88739" d="M738.407,129.683v1.763h11.652v3.85h2.066l-.005-5.612Z" transform="translate(-655.143 -115.059)" fill="#fff"/>
      <path id="패스_88740" data-name="패스 88740" d="M290.76,132.422h-2.067v4.965h13.254v-1.763H290.76Z" transform="translate(-256.14 -117.49)" fill="#fff"/>
      <path id="패스_88741" data-name="패스 88741" d="M446.342,135.625H434.951v-3.2h-2.069v4.967h13.46Z" transform="translate(-384.069 -117.49)" fill="#fff"/>
      <path id="패스_88742" data-name="패스 88742" d="M813.019,46.409v1.769h3.239v2.878h-3.239v1.764h3.239v2.142h2.066V46.409Z" transform="translate(-721.342 -41.176)" fill="#fff"/>
      <path id="패스_88743" data-name="패스 88743" d="M683.831,46.413l.007,8.463H685.9v-6.7h1.456V46.408Z" transform="translate(-606.721 -41.175)" fill="#fff"/>
      <path id="패스_88744" data-name="패스 88744" d="M572.389,49.6h7.959v3.925H577.03V50.963h-2.068v2.558h-2.937v1.763l10.389,0V47.83l-10.024,0Z" transform="translate(-507.522 -42.437)" fill="#fff"/>
      <path id="패스_88745" data-name="패스 88745" d="M282.02,45.807a4.311,4.311,0,1,0,4.311,4.311,4.31,4.31,0,0,0-4.311-4.311m0,6.719a2.407,2.407,0,1,1,2.409-2.407,2.408,2.408,0,0,1-2.409,2.407" transform="translate(-246.396 -40.642)" fill="#fff"/>
      <path id="패스_88746" data-name="패스 88746" d="M732.928,43.884a4.31,4.31,0,1,0,4.31,4.31,4.311,4.311,0,0,0-4.31-4.31m0,6.718a2.408,2.408,0,1,1,2.407-2.408,2.408,2.408,0,0,1-2.407,2.408" transform="translate(-646.458 -38.936)" fill="#fff"/>
      <path id="패스_88747" data-name="패스 88747" d="M636.8,104.273a4.31,4.31,0,1,0,4.31,4.31,4.308,4.308,0,0,0-4.31-4.31m0,6.718a2.408,2.408,0,1,1,2.409-2.408,2.408,2.408,0,0,1-2.409,2.408" transform="translate(-561.169 -92.515)" fill="#fff"/>
    </g>
  </g>
</svg>
