<svg xmlns="http://www.w3.org/2000/svg" xmlns:xlink="http://www.w3.org/1999/xlink" width="200" height="50" viewBox="0 0 200 50">
  <defs>
    <clipPath id="clip-path">
      <rect id="사각형_37977" data-name="사각형 37977" width="190.9" height="41.899" fill="#fff"/>
    </clipPath>
  </defs>
  <g id="그룹_174438" data-name="그룹 174438" transform="translate(0 -10)">
    <rect id="사각형_36173" data-name="사각형 36173" width="200" height="50" transform="translate(0 10)" fill="none"/>
    <g id="그룹_170078" data-name="그룹 170078" transform="translate(1.674 14.195)">
      <g id="그룹_170076" data-name="그룹 170076" clip-path="url(#clip-path)">
        <path id="패스_88733" data-name="패스 88733" d="M18.767,31.094a19.53,19.53,0,0,0,20.215.523A20.948,20.948,0,1,1,24.517.31,10.143,10.143,0,0,1,30.982,4.83,16.635,16.635,0,0,1,32.9,9.56l.009.041a17.064,17.064,0,0,1-.061,7.461,16.1,16.1,0,0,1-5.987,9.55l-.016.017a8.183,8.183,0,1,0-13.869-7.513,8.8,8.8,0,0,0-.088,3.729,13.116,13.116,0,0,0,5.882,8.249" transform="translate(0 0)" fill="#005fae"/>
        <path id="패스_88734" data-name="패스 88734" d="M89.964,105.906a16.775,16.775,0,0,0,4.144,1.528,17.214,17.214,0,0,0,14.2-3.039l.024-.023a17.518,17.518,0,0,0,6.4-8.512,19.329,19.329,0,0,1-.525,8.18,17,17,0,0,1-16.977,5.612,16.615,16.615,0,0,1-7.264-3.744" transform="translate(-72.987 -77.769)" fill="#00979b"/>
        <path id="패스_88735" data-name="패스 88735" d="M117.169,48.295A17.112,17.112,0,0,0,134.6,35.785a21.962,21.962,0,0,0,.58-4.023,21.31,21.31,0,0,0-6.217-8.042,17.184,17.184,0,0,1-10.27,24.207,11.541,11.541,0,0,1-1.528.359Z" transform="translate(-95.051 -19.244)" fill="#00979b"/>
        <rect id="사각형_37975" data-name="사각형 37975" width="3.459" height="15.103" transform="translate(73.041 8.6)" fill="#fff"/>
        <rect id="사각형_37976" data-name="사각형 37976" width="3.459" height="25.335" transform="translate(187.441 8.595)" fill="#fff"/>
        <path id="패스_88736" data-name="패스 88736" d="M512.962,45.516v4.838h-5.048v2.953h5.048v7.323h3.459V45.516Z" transform="translate(-412.064 -36.926)" fill="#fff"/>
        <path id="패스_88737" data-name="패스 88737" d="M439.513,55.491l-5.677-9.639h4.795V42.9H433.4V40.907h-3.461V42.9h-5.206v2.951h4.757l-5.676,9.639h3.739l4.107-6.976,4.11,6.976Z" transform="translate(-343.838 -33.187)" fill="#fff"/>
        <path id="패스_88738" data-name="패스 88738" d="M893.174,67.105l-8.818-17.132h-3.873l-8.82,17.132H875.5l6.922-13.441,6.92,13.441Z" transform="translate(-707.17 -40.543)" fill="#fff"/>
        <path id="패스_88739" data-name="패스 88739" d="M738.407,129.683v2.951h19.5v6.443h3.457l-.009-9.391Z" transform="translate(-599.061 -105.21)" fill="#fff"/>
        <path id="패스_88740" data-name="패스 88740" d="M292.152,132.422h-3.459v8.31l22.182,0v-2.951H292.152Z" transform="translate(-234.213 -107.432)" fill="#fff"/>
        <path id="패스_88741" data-name="패스 88741" d="M455.408,137.783H436.345v-5.361h-3.463v8.312h22.526Z" transform="translate(-351.192 -107.432)" fill="#fff"/>
        <path id="패스_88742" data-name="패스 88742" d="M813.019,46.409v2.96h5.42v4.817h-5.42v2.952h5.42v3.584H821.9V46.409Z" transform="translate(-659.593 -37.651)" fill="#fff"/>
        <path id="패스_88743" data-name="패스 88743" d="M683.831,46.415l.011,14.164H687.3V49.372h2.436V46.408Z" transform="translate(-554.784 -37.651)" fill="#fff"/>
        <path id="패스_88744" data-name="패스 88744" d="M572.635,50.786h13.32v6.568H580.4v-4.28h-3.461v4.28h-4.915V60.3l17.386-.007V47.83l-16.776.006Z" transform="translate(-464.077 -38.804)" fill="#fff"/>
        <path id="패스_88745" data-name="패스 88745" d="M284.923,45.807a7.214,7.214,0,1,0,7.215,7.215,7.214,7.214,0,0,0-7.215-7.215m0,11.244a4.029,4.029,0,1,1,4.031-4.028,4.03,4.03,0,0,1-4.031,4.028" transform="translate(-225.304 -37.163)" fill="#fff"/>
        <path id="패스_88746" data-name="패스 88746" d="M735.83,43.884a7.214,7.214,0,1,0,7.213,7.213,7.214,7.214,0,0,0-7.213-7.213m0,11.243a4.03,4.03,0,1,1,4.028-4.029,4.03,4.03,0,0,1-4.028,4.029" transform="translate(-591.12 -35.603)" fill="#fff"/>
        <path id="패스_88747" data-name="패스 88747" d="M639.7,104.273a7.213,7.213,0,1,0,7.213,7.213,7.21,7.21,0,0,0-7.213-7.213m0,11.243a4.03,4.03,0,1,1,4.032-4.03,4.03,4.03,0,0,1-4.032,4.03" transform="translate(-513.131 -84.596)" fill="#fff"/>
      </g>
    </g>
  </g>
</svg>
