<svg width="20" height="20" viewBox="0 0 20 20" fill="none" xmlns="http://www.w3.org/2000/svg">
<mask id="mask0_392_8596" style="mask-type:luminance" maskUnits="userSpaceOnUse" x="0" y="0" width="20" height="20">
<path d="M20 0H0V20H20V0Z" fill="white"/>
</mask>
<g mask="url(#mask0_392_8596)">
<path d="M11.5 19C11.3674 19 11.2402 18.9473 11.1464 18.8536C11.0527 18.7598 11 18.6326 11 18.5V16.5C11 16.3674 11.0527 16.2402 11.1464 16.1464C11.2402 16.0527 11.3674 16 11.5 16H15.5C15.8978 16 16.2794 15.842 16.5607 15.5607C16.842 15.2794 17 14.8978 17 14.5V4.5C17 4.10218 16.842 3.72064 16.5607 3.43934C16.2794 3.15804 15.8978 3 15.5 3H4.5C4.10218 3 3.72064 3.15804 3.43934 3.43934C3.15804 3.72064 3 4.10218 3 4.5V14.5C3 14.8978 3.15804 15.2794 3.43934 15.5607C3.72064 15.842 4.10218 16 4.5 16H8.5C8.63261 16 8.75979 16.0527 8.85355 16.1464C8.94732 16.2402 9 16.3674 9 16.5C9 16.6326 8.94732 16.7598 8.85355 16.8536C8.75979 16.9473 8.63261 17 8.5 17H4.5C3.83696 17 3.20107 16.7366 2.73223 16.2678C2.26339 15.7989 2 15.163 2 14.5V4.5C2 3.83696 2.26339 3.20107 2.73223 2.73223C3.20107 2.26339 3.83696 2 4.5 2H15.5C16.163 2 16.7989 2.26339 17.2678 2.73223C17.7366 3.20107 18 3.83696 18 4.5V14.5C18 15.163 17.7366 15.7989 17.2678 16.2678C16.7989 16.7366 16.163 17 15.5 17H12V18.5C12 18.6326 11.9473 18.7598 11.8536 18.8536C11.7598 18.9473 11.6326 19 11.5 19Z" fill="#27D4FF"/>
<path d="M14 5H6C5.73478 5 5.48043 5.10536 5.29289 5.29289C5.10536 5.48043 5 5.73478 5 6V13C5 13.2652 5.10536 13.5196 5.29289 13.7071C5.48043 13.8946 5.73478 14 6 14H14C14.2652 14 14.5196 13.8946 14.7071 13.7071C14.8946 13.5196 15 13.2652 15 13V6C15 5.73478 14.8946 5.48043 14.7071 5.29289C14.5196 5.10536 14.2652 5 14 5Z" fill="#27D4FF"/>
</g>
</svg>
