<svg width="20" height="20" viewBox="0 0 20 20" fill="none" xmlns="http://www.w3.org/2000/svg">
<path d="M3 17H5.982L3 15V17Z" fill="white"/>
<mask id="mask0_331_9224" style="mask-type:luminance" maskUnits="userSpaceOnUse" x="0" y="0" width="20" height="20">
<path d="M20 0H0V20H20V0Z" fill="white"/>
</mask>
<g mask="url(#mask0_331_9224)">
<path d="M17 4.99962V4.16662L15.244 2.25962C15.0878 2.1034 14.8759 2.01564 14.655 2.01562H5.345C5.12408 2.01564 4.91221 2.1034 4.756 2.25962L3 4.16662V4.99962H5V14.9996H4.472L7.328 16.9996H9.328L6.469 14.9996H7.817L10.673 16.9996H13.136L10.279 14.9996H11.626L14.483 16.9996H16.335L13.6 14.9996H14.947L17 16.4996V14.9996H15V4.99962H17ZM14 7.99963H6V5.99962H14V7.99963Z" fill="white"/>
</g>
<path d="M3 17H5.982L3 15V17Z" fill="white"/>
<mask id="mask1_331_9224" style="mask-type:luminance" maskUnits="userSpaceOnUse" x="0" y="0" width="20" height="20">
<path d="M20 0H0V20H20V0Z" fill="white"/>
</mask>
<g mask="url(#mask1_331_9224)">
<path d="M17 4.99962V4.16662L15.244 2.25962C15.0878 2.1034 14.8759 2.01564 14.655 2.01562H5.345C5.12408 2.01564 4.91221 2.1034 4.756 2.25962L3 4.16662V4.99962H5V14.9996H4.472L7.328 16.9996H9.328L6.469 14.9996H7.817L10.673 16.9996H13.136L10.279 14.9996H11.626L14.483 16.9996H16.335L13.6 14.9996H14.947L17 16.4996V14.9996H15V4.99962H17ZM14 7.99963H6V5.99962H14V7.99963Z" fill="white"/>
</g>
</svg>
