<svg width="24" height="24" viewBox="0 0 24 24" fill="none" xmlns="http://www.w3.org/2000/svg">
<mask id="mask0_417_10583" style="mask-type:luminance" maskUnits="userSpaceOnUse" x="0" y="0" width="24" height="24">
<path d="M24 0H0V24H24V0Z" fill="white"/>
</mask>
<g mask="url(#mask0_417_10583)">
<path d="M19.9988 11.6261V5.4085C19.9988 5.03411 19.8501 4.67503 19.5855 4.41018C19.3209 4.14534 18.9619 3.9964 18.5875 3.99609H11.8477L13.8074 12.8111L19.9988 11.6261Z" fill="white"/>
<path d="M4 16.0438V18.5829C4 18.9573 4.14865 19.3164 4.41328 19.5812C4.67792 19.8461 5.03688 19.995 5.41128 19.9953H8.80977L7.67732 15.3398L4 16.0438Z" fill="white"/>
<path d="M8.98438 15.0904L10.1774 19.9961H18.5834C18.7688 19.9961 18.9524 19.9596 19.1237 19.8886C19.295 19.8176 19.4506 19.7136 19.5817 19.5824C19.7127 19.4512 19.8167 19.2955 19.8875 19.1242C19.9584 18.9528 19.9948 18.7692 19.9946 18.5837V12.9844L8.98438 15.0904Z" fill="white"/>
<path d="M10.4805 3.99609H5.41128C5.03698 3.99609 4.67802 4.14478 4.41335 4.40944C4.14869 4.67411 4 5.03307 4 5.40736V14.6863L12.4962 13.0613L10.4805 3.99609Z" fill="white"/>
</g>
</svg>
