<svg width="188" height="278" viewBox="0 0 188 278" fill="none" xmlns="http://www.w3.org/2000/svg">
<g clip-path="url(#clip0_1197_13995)">
<path d="M65.1445 149.901L54.7255 152.401L54.6885 152.413C54.3665 152.52 46.7555 155.056 41.4095 156.683L40.3145 157.017L44.6714 164.861L57.1094 173.861L63.1484 178.173L69.3074 178.615L71.9545 174.203C71.9545 174.203 72.7984 167.03 72.8094 166.935L74.9445 163.945L75.8265 158.651L71.0265 155.16L65.6484 149.778L65.1445 149.901Z" fill="#0A0F24" stroke="#27D4FF" stroke-width="2" stroke-linejoin="round"/>
<path d="M40.319 157.021C38.248 157.632 37.395 157.831 37.045 157.889C34.437 158.324 30.162 164.017 28.557 166.826L25.548 171.888C21.781 178.17 19.837 181.461 19.599 182.147L19.574 182.218L19.562 182.294C19.442 182.984 19.723 185.105 20.437 189.903C21.0734 193.576 21.5038 197.282 21.726 201.003C21.726 203.953 22.839 204.471 24.807 205.141C25.8274 205.44 26.7956 205.894 27.677 206.488C31.7567 209.358 36.0397 211.928 40.492 214.177C43.456 215.448 50.606 215.777 51.812 214.383L51.86 214.327L51.953 214.174L54.924 210.356L55.132 210.196L55.424 209.822L56.478 207.011L55.61 201.371C55.61 201.371 53.162 196.471 53.075 196.3L56.875 189.543L61.963 185.317C61.939 185.336 63.692 184.285 63.692 184.285L64.179 183.991L63.736 177.798L57.67 173.463L45.27 164.484L41.387 157.457L41.028 156.809L40.319 157.021Z" fill="#0A0F24" stroke="#27D4FF" stroke-width="2" stroke-linejoin="round"/>
<path d="M75.5786 159.988C75.5786 159.988 74.9357 163.842 74.9207 163.927C74.7847 164.119 72.7776 166.927 72.7776 166.927L71.9166 174.248L69.4376 178.348C69.2136 178.333 63.3446 177.913 63.3446 177.913C63.3446 177.913 63.7636 183.782 63.7796 184.004L61.7236 185.238L56.5576 189.543L52.6406 196.505L55.2536 201.731C55.2536 201.731 56.0686 207.09 56.0826 207.187L54.8936 210.356L57.2066 213.13C57.2066 213.277 56.4136 216.051 56.4136 216.051L56.0776 217.229H60.6066L65.2996 214.671L70.4556 211.239H80.6066C80.8826 211.418 86.5756 215.076 86.5756 215.076L92.6346 216.807L99.5576 215.507L107.332 210.754L109.554 206.31L104.389 200.716C104.4 200.585 104.795 196.274 104.804 196.158L107.804 192.736L108.67 184.069L106.925 180.143L103.02 176.237L96.1367 173.656L88.9006 168.97L83.4006 163.887L83.3557 163.846L75.8276 158.532L75.5786 159.988Z" fill="#0A0F24" stroke="#27D4FF" stroke-width="2" stroke-linejoin="round"/>
<path d="M108.798 206.724C108.798 206.724 107.068 210.184 107.02 210.279L99.3664 214.956L92.5873 216.216L86.6874 214.509C86.6874 214.498 80.9294 210.797 80.9294 210.797L80.7004 210.651H70.3243L65.0873 214.139L60.4933 216.639H56.1733L54.6504 221.97V222.1C54.6504 222.459 54.7204 230.943 57.1714 232.577C59.5074 234.132 73.8764 246.662 74.3044 248.831L74.3254 248.936L74.3694 249.036C74.6404 249.636 75.2063 250.88 88.7853 258.682L91.1044 260.041C91.1044 260.041 91.9414 252.533 91.9534 252.418L97.9153 245.601L101.349 239.162L107.28 233.67L114.621 226.331L115.921 218.123V209.445L109.231 205.877L108.798 206.724Z" fill="#FFE043" fill-opacity="0.2" stroke="#FFE043" stroke-width="2"/>
<path d="M125.819 273.069L125.189 272.632L124.804 272.365C118.698 268.144 112.989 265.195 110.922 265.195C110.87 265.195 110.823 265.198 110.783 265.202C110.541 265.229 110.28 265.242 109.984 265.242C105.107 265.242 92.3703 261.477 90.3638 260.595L89.7433 260.322L88.7344 259.878L88.8563 258.783L89.7054 251.154L89.7571 250.689L90.0636 250.337L90.2544 250.117L90.2563 250.115L90.2584 250.112C90.2584 250.112 91.7101 248.454 93.1626 246.795C93.8889 245.966 94.6154 245.136 95.1605 244.514C95.4333 244.203 95.6609 243.943 95.8203 243.762L95.9579 243.605L99.3123 237.315L99.432 237.091L99.619 236.918L99.7308 236.815L102.665 234.089L104.685 232.214L105.35 231.596L105.537 231.422C105.549 231.411 105.563 231.398 105.579 231.384L112.465 224.501C112.714 222.927 113.482 218.083 113.644 217.058V209.636L108.092 206.677L107.867 206.557L107.695 206.37L102.483 200.722L102.032 200.233L102.092 199.569L102.533 194.719L102.577 194.233L102.897 193.867L105.578 190.803C105.729 189.296 106.196 184.621 106.335 183.234C105.919 182.299 104.854 179.9 104.708 179.572L103.939 177.839L105.803 177.489C107.696 177.134 110.964 176.521 112.257 176.278C113.111 175.191 115.339 172.356 116.628 170.715L117.079 170.142H117.808H128.206H128.514L128.797 170.263L137.826 174.132L137.832 174.135L137.839 174.137C138.783 174.553 146.146 177.793 148.04 178.627C149.161 178.405 151.932 177.859 153.521 177.547L159.959 172.719C160.201 172.457 160.979 171.603 161.519 171.007L161.544 170.98L161.57 170.954L163.047 169.478C163.283 169.205 164.623 167.657 165.995 166.119C166.885 165.123 167.615 164.323 168.167 163.743C168.512 163.38 168.785 163.104 169.001 162.901C169.345 162.577 169.695 162.28 170.188 162.198C170.336 162.173 170.491 162.16 170.649 162.16C172.688 162.16 175.117 164.298 177.851 166.882C178.016 167.037 178.172 167.185 178.318 167.322C179.337 168.25 179.248 170.038 178.824 173.598C178.759 174.141 178.685 174.757 178.685 174.954L178.685 174.972L178.684 174.989L178.634 176.914C178.637 178.3 179.023 180.125 179.722 182.056C180.339 183.759 180.993 184.969 181.198 185.224L181.359 185.393L181.646 185.695L181.736 186.101L183.424 193.704L183.662 194.773L182.716 195.324L173.203 200.873C173.178 203.685 173.009 212.952 171.873 217.117C170.624 221.695 164.932 224.658 162.781 225.63L157.043 231.799C157.299 233.611 157.434 235.451 157.444 237.279L157.444 237.283V237.287C157.444 239.742 157.169 241.524 156.604 242.736C156.051 243.922 155.321 244.346 154.82 244.562C154.567 244.687 152.983 245.722 146.164 254.049C141.962 259.18 137.445 265.04 134.854 268.499C134.445 269.044 133.547 269.925 130.482 271.28C128.791 272.028 127.169 272.595 126.98 272.661L126.542 272.815L125.819 273.069Z" fill="#0A0F24"/>
<path d="M170.649 163.66C170.575 163.66 170.504 163.666 170.434 163.677C169.967 163.755 164.147 170.501 164.147 170.501L162.631 172.016C162.631 172.016 161.018 173.793 160.961 173.843L154.147 178.953C154.147 178.953 147.983 180.166 147.869 180.19C147.765 180.144 137.235 175.51 137.235 175.51L128.207 171.642H117.808C117.808 171.642 113.175 177.539 113.089 177.648C112.949 177.675 106.08 178.963 106.08 178.963C106.08 178.963 107.827 182.898 107.867 182.987C107.858 183.085 107.035 191.31 107.023 191.43L104.027 194.854L103.586 199.705L108.798 205.353L115.145 208.735V217.176C115.145 217.176 113.889 225.097 113.871 225.217L106.624 232.46C106.624 232.46 100.751 237.916 100.751 237.916L100.636 238.021L97.1993 244.466C97.1945 244.466 91.3877 251.1 91.3877 251.1L91.1969 251.32L90.3477 258.949L90.9684 259.222C93.0721 260.147 106.844 264.13 110.618 263.711C113.359 263.407 120.432 267.519 125.659 271.132L126.045 271.4L126.488 271.244C127.102 271.031 132.52 269.11 133.654 267.599C139.269 260.104 151.686 244.274 154.225 243.186C154.651 243.002 155.945 242.448 155.945 237.287C155.934 235.285 155.769 233.286 155.452 231.307L161.893 224.383C162.676 224.043 169.213 221.17 170.426 216.722C171.692 212.081 171.708 200.184 171.708 200.065C171.708 200.031 171.725 199.999 171.755 199.982L181.96 194.029L180.272 186.427L180.098 186.243C179.407 185.509 177.134 180.613 177.134 176.896L177.186 174.95C177.189 173.907 178.083 169.117 177.303 168.426C175.587 166.819 172.412 163.66 170.649 163.66ZM170.649 160.66C170.649 160.66 170.649 160.66 170.649 160.66C173.245 160.66 175.805 162.884 178.882 165.791C179.042 165.943 179.194 166.087 179.337 166.22C180.558 167.34 180.667 169.031 180.611 170.541C180.57 171.621 180.428 172.815 180.314 173.775C180.262 174.206 180.192 174.794 180.185 174.973C180.185 174.992 180.185 175.01 180.185 175.029L180.134 176.931C180.149 179.567 181.784 183.394 182.363 184.271L182.446 184.359C182.822 184.754 183.083 185.244 183.201 185.776L184.889 193.378C185.172 194.652 184.599 195.963 183.472 196.62L174.693 201.741C174.64 205.298 174.402 213.546 173.32 217.511C172.622 220.072 170.737 222.441 167.717 224.552C166.18 225.626 164.678 226.402 163.678 226.869L158.623 232.303C158.828 233.95 158.936 235.615 158.945 237.271C158.945 237.276 158.945 237.282 158.945 237.287C158.945 242.144 157.889 244.806 155.524 245.891C155.213 246.108 153.408 247.548 147.033 255.356C142.928 260.384 138.671 265.906 136.055 269.398C135.501 270.137 134.437 271.172 131.089 272.652C129.386 273.405 127.797 273.965 127.476 274.076L127.041 274.23C126.133 274.549 125.126 274.414 124.335 273.865L123.949 273.597C121.241 271.725 118.449 270.005 116.093 268.757C112.312 266.755 111.02 266.697 110.927 266.695C110.636 266.727 110.328 266.742 109.985 266.742C107.21 266.742 102.368 265.64 98.7948 264.716C94.9391 263.719 91.0552 262.537 89.7605 261.968L89.14 261.695C87.9395 261.167 87.2211 259.92 87.3662 258.617L88.2153 250.988C88.2826 250.383 88.5325 249.813 88.9317 249.353L89.1225 249.133C89.125 249.13 89.1276 249.127 89.1303 249.124C89.1303 249.124 90.5822 247.466 92.0347 245.807C92.7612 244.977 93.4878 244.148 94.033 243.525C94.3062 243.214 94.534 242.954 94.6936 242.772L94.7169 242.746L97.9894 236.609C98.1479 236.312 98.3554 236.044 98.6031 235.815L98.7138 235.713L104.517 230.323C104.525 230.316 104.533 230.308 104.541 230.301L111.061 223.785C111.335 222.052 111.897 218.503 112.145 216.94V210.536L107.387 208.001C107.09 207.842 106.821 207.635 106.593 207.388L101.381 201.74C100.806 201.116 100.522 200.278 100.599 199.434L101.039 194.583C101.097 193.952 101.352 193.356 101.769 192.879L104.134 190.176C104.301 188.502 104.647 185.038 104.803 183.48C104.345 182.447 103.546 180.649 103.338 180.181C102.966 179.343 102.997 178.38 103.424 177.568C103.851 176.756 104.625 176.184 105.527 176.015C106.885 175.76 109.823 175.209 111.427 174.907C112.435 173.624 114.311 171.237 115.45 169.789C116.018 169.065 116.888 168.642 117.808 168.642H128.207C128.613 168.642 129.015 168.725 129.388 168.885L138.417 172.753C138.426 172.757 138.435 172.76 138.444 172.765C140.43 173.638 146.032 176.104 148.213 177.064C148.985 176.911 150.376 176.637 152.896 176.141L158.95 171.601C159.232 171.295 159.852 170.614 160.409 169.999C160.442 169.963 160.476 169.928 160.51 169.893L161.949 168.456C162.265 168.09 163.556 166.6 164.877 165.121C165.776 164.113 166.518 163.301 167.08 162.71C168.173 161.56 168.845 160.9 169.943 160.718C170.17 160.68 170.409 160.66 170.649 160.66Z" fill="#27D4FF"/>
<path d="M162.631 172.017C162.631 172.017 161.018 173.794 160.961 173.844L154.148 178.954C154.148 178.954 147.984 180.167 147.869 180.192L137.236 175.512L128.207 171.644H117.807L113.087 177.649L106.078 178.965C106.078 178.965 107.825 182.9 107.865 182.989C107.855 183.089 107.033 191.312 107.021 191.432L104.021 194.857L103.58 199.708L108.791 205.356L115.138 208.738V217.179C115.138 217.179 113.882 225.1 113.864 225.219L106.617 232.463C106.64 232.44 100.744 237.918 100.744 237.918L100.63 238.023L97.1957 244.467L91.3837 251.101L91.1927 251.321L90.3438 258.95L90.9647 259.223C93.0647 260.148 106.839 264.131 110.615 263.713C113.353 263.413 120.428 267.52 125.656 271.134L126.042 271.402L126.485 271.246C127.1 271.033 132.517 269.112 133.652 267.601C139.266 260.106 151.683 244.276 154.222 243.188C154.648 243.004 155.942 242.45 155.942 237.288C155.93 235.285 155.766 233.286 155.449 231.308L161.89 224.384C162.673 224.044 169.21 221.171 170.423 216.723C171.689 212.082 171.704 200.185 171.704 200.066C171.704 200.05 171.709 200.033 171.717 200.019C171.725 200.004 171.737 199.992 171.751 199.983L181.957 194.03L180.269 186.43L180.094 186.246C178.346 183.424 177.328 180.212 177.13 176.899L177.181 174.953C177.181 173.911 178.081 169.12 177.298 168.429C175.509 166.755 172.137 163.395 170.43 163.681C169.962 163.759 164.142 170.504 164.142 170.504L162.631 172.017Z" fill="#27D4FF" fill-opacity="0.4"/>
<path d="M170.65 163.661C170.575 163.661 170.504 163.667 170.435 163.678C169.967 163.756 164.147 170.502 164.147 170.502L162.631 172.016C162.631 172.016 161.018 173.794 160.961 173.844L154.148 178.953C154.148 178.953 147.983 180.167 147.869 180.191C147.765 180.145 137.236 175.511 137.236 175.511L128.207 171.643H117.809C117.809 171.643 113.175 177.54 113.089 177.649C112.949 177.676 106.08 178.964 106.08 178.964C106.08 178.964 107.827 182.899 107.867 182.988C107.858 183.086 107.036 191.311 107.023 191.431L104.027 194.855L103.587 199.706L108.798 205.354L115.145 208.736V217.177C115.145 217.177 113.89 225.098 113.872 225.218L106.624 232.462C106.624 232.462 100.751 237.917 100.751 237.917L100.637 238.022L97.1996 244.467C97.1948 244.467 91.3879 251.101 91.3879 251.101L91.1971 251.321L90.348 258.95L90.9687 259.223C93.0723 260.148 106.843 264.13 110.619 263.712C113.357 263.409 120.432 267.52 125.66 271.133L126.045 271.401L126.488 271.245C127.103 271.032 132.52 269.111 133.655 267.6C139.269 260.105 151.686 244.275 154.225 243.187C154.651 243.003 155.945 242.449 155.945 237.288C155.934 235.286 155.769 233.287 155.452 231.308L161.893 224.384C162.676 224.044 169.213 221.171 170.426 216.723C171.692 212.082 171.708 200.185 171.708 200.066C171.708 200.032 171.726 200 171.755 199.983L181.961 194.03L180.273 186.428L180.098 186.244C179.407 185.51 177.134 180.614 177.134 176.897L177.186 174.951C177.189 173.908 178.083 169.118 177.303 168.427C175.587 166.82 172.413 163.661 170.65 163.661ZM170.65 157.661C174.35 157.661 177.374 160.24 180.942 163.612C184.2 166.523 183.739 170.391 183.293 174.131L183.181 175.137L183.132 177.055C183.134 178.687 184.378 181.828 184.903 182.674C185.655 183.464 185.894 184.062 186.13 185.127L187.818 192.729C188.384 195.277 187.238 197.898 184.984 199.212L177.662 203.483C177.561 207.672 177.238 214.55 176.215 218.302C174.636 224.091 168.869 227.679 165.484 229.333L161.754 233.344C161.874 234.644 161.938 235.948 161.945 237.254C161.945 239.779 161.945 246.395 156.599 248.697C155.238 249.872 146.263 260.776 138.457 271.197C137.889 271.954 136.172 274.241 128.451 276.915C126.642 277.541 124.199 277.422 122.625 276.331C116.417 272.038 111.896 269.875 110.676 269.682C110.896 269.718 110.464 269.743 109.985 269.743C104.357 269.743 90.8664 265.732 88.5529 264.715C86.152 263.659 84.0947 260.893 84.3848 258.286L85.2339 250.657C85.3686 249.447 85.8683 248.307 86.6667 247.387C89.1585 244.54 90.8549 242.601 92.0985 241.282L95.3426 235.199C95.6596 234.604 96.0746 234.067 96.57 233.611C99.3982 230.984 101.187 229.322 102.436 228.271L102.383 228.218L108.251 222.352L109.219 216.238L109.181 212.357L105.976 210.649C105.382 210.333 104.845 209.918 104.388 209.423L99.1769 203.775C98.0265 202.528 97.4577 200.853 97.6112 199.163L98.0519 194.312C98.1665 193.051 98.6774 191.858 99.5114 190.905L101.244 188.924L101.739 183.972L100.596 181.399C99.8519 179.723 99.9153 177.798 100.768 176.174C101.622 174.55 103.171 173.405 104.974 173.067L109.765 172.168L113.091 167.936C114.229 166.488 115.968 165.643 117.809 165.643H128.207C129.019 165.643 129.823 165.808 130.57 166.128L139.599 169.996L148.559 173.94C149.558 173.742 150.749 173.508 151.644 173.331L157.361 169.044L158.188 167.984L159.906 166.258C166.44 158.66 167.137 158.144 169.452 157.759C169.777 157.705 170.32 157.661 170.65 157.661Z" fill="#27D4FF" fill-opacity="0.2"/>
<mask id="path-9-inside-1_1197_13995" fill="white">
<path d="M78.3284 1.03433C76.8364 1.30333 75.8944 3.13432 74.8974 5.07132C74.1424 6.42832 73.8214 7.01735 73.6714 7.32235C73.6784 7.29936 73.6954 7.24032 73.6954 7.24032C73.1061 8.18649 72.3671 9.03079 71.5074 9.74032C70.0804 10.7838 68.4594 11.5318 66.7394 11.9403C64.7966 12.4237 62.9614 13.2662 61.3284 14.4243C60.5744 14.9903 60.6004 16.2134 60.7284 18.0124C60.8364 19.5944 60.9494 21.2263 60.0604 22.1123C58.8044 23.3683 55.0414 27.5823 52.1074 30.8963L51.8984 31.1303L44.6584 38.3683C44.5084 38.3863 37.3464 37.5683 36.1124 39.2133L34.6634 41.2284C33.5338 42.9159 32.3004 44.5317 30.9704 46.0663C30.3704 46.6663 26.9584 47.7113 19.3344 48.6663C17.2024 48.8663 11.3554 49.6663 10.2404 50.8453L10.0684 51.0283L10.0084 51.2733C9.78051 52.5603 9.68201 53.8668 9.71438 55.1733C9.71447 56.9653 9.82071 58.7558 10.0324 60.5353C10.4584 63.9433 13.0224 71.6203 14.7004 72.8783C16.3414 74.1063 18.2114 78.9783 18.2114 82.0103L18.1604 82.8103C17.7534 85.6573 16.5824 91.5524 16.4504 92.2104C16.4478 92.2322 16.438 92.2525 16.4226 92.2682C16.4073 92.2839 16.3871 92.2942 16.3654 92.2973C16.2814 92.3043 8.03941 93.1184 6.76541 94.2054L6.66543 94.2903L6.59439 94.3904C6.20039 94.9834 5.37539 96.7083 4.25039 99.0813C3.30239 101.081 2.32243 103.152 1.88943 103.805C1.24743 104.769 1.00839 107.931 1.00839 109.693C0.974734 110.998 1.13071 112.301 1.4714 113.56C1.8904 114.816 4.01741 117.344 6.97641 120.78C9.47141 123.68 11.1194 125.631 11.2924 126.349L11.3364 126.533L11.4504 126.686C12.2274 127.725 15.5424 127.677 16.5394 127.638L17.1454 127.614L20.1044 120.014L14.1394 109.789C14.1254 109.729 14.1294 109.689 14.1724 109.66C22.4624 104.687 23.9194 104.517 24.0614 104.514C24.2034 104.511 25.5244 104.723 31.5714 111.937L31.8064 112.218L39.0224 113.068L39.2014 113.017C42.223 112.187 45.3136 111.631 48.4354 111.358C52.1444 111.198 55.8558 111.618 59.4354 112.602L59.5804 112.642L67.2044 112.219L69.3214 107.136C70.3814 105.914 72.8144 103.654 74.5484 103.654C77.5184 103.654 79.1424 104.073 79.8104 104.998C80.5194 105.974 80.1164 107.37 79.4004 109.564L78.5004 112.69C77.9702 115.055 76.9372 117.278 75.4714 119.208C73.3274 119.401 69.4604 119.672 68.1254 119.672C66.4554 119.672 60.1014 122.627 60.0374 122.657C56.4144 123.957 53.4524 124.287 52.6584 123.494C51.1281 122.162 49.5257 120.914 47.8584 119.757L47.1804 119.273L40.8234 126.48L40.7354 128.992C40.7073 130.71 40.8859 132.424 41.2674 134.099C41.9944 137.008 45.2064 140.225 46.1754 141.141L46.3424 141.299L46.5654 141.359C46.9924 141.475 57.0214 144.186 58.6344 141.767C60.3344 139.213 64.0754 137.526 64.2344 137.455C64.3344 137.465 64.3544 137.487 64.3614 137.515L66.0724 142.648L65.6274 149.864L70.9924 155.228L75.7024 158.654L82.9834 163.797L88.4834 168.872L88.5434 168.926L95.8434 173.65L103.666 176.582L103.184 168.038L106.763 166.343L110.021 161.479L110.237 154.852L105.825 148.066L99.7764 138.701L96.7694 127.963C96.7694 127.963 95.3024 118.975 95.2794 118.791L98.6564 115.416L101.237 110.253L104.144 107.358L110.56 106.931L117.479 100.438L120.111 90.8943L112.923 78.6073L105.157 72.3954C105.086 72.3234 100.334 67.5083 100.268 67.4433C99.2584 66.9383 97.4144 60.8373 97.4144 60.8373L101.022 58.5823C101.16 58.6033 111.722 62.4443 111.722 62.4443L119.687 64.9613L119.857 65.0154L125.645 64.5703C125.645 64.5703 125.232 59.1883 125.213 58.9493L127.689 57.7104L132.04 53.3614L132.449 49.2754L131.72 49.0563C131.069 48.8623 129.315 47.7563 127.065 41.7563C126.615 40.5563 125.43 40.2803 124.058 39.9563C121.714 39.4053 118.507 38.6564 117.658 32.4084L117.652 32.3564L117.638 32.3053C117.585 32.0983 116.323 27.2294 113.856 26.4054C108.699 24.637 103.98 21.7854 100.015 18.0423C98.6633 16.6643 97.4529 15.1541 96.4024 13.5343C95.5717 12.2816 94.6618 11.0832 93.6784 9.94632C91.7104 7.75632 90.6734 7.58435 88.6994 7.42935L86.4394 7.16134C84.1144 6.74234 83.8744 6.14133 83.4784 5.14633C83.1118 4.13011 82.4874 3.22658 81.6664 2.52432C80.3714 1.34132 79.2784 0.85032 78.3274 1.02432"/>
</mask>
<path d="M78.3284 1.03433C76.8364 1.30333 75.8944 3.13432 74.8974 5.07132C74.1424 6.42832 73.8214 7.01735 73.6714 7.32235C73.6784 7.29936 73.6954 7.24032 73.6954 7.24032C73.1061 8.18649 72.3671 9.03079 71.5074 9.74032C70.0804 10.7838 68.4594 11.5318 66.7394 11.9403C64.7966 12.4237 62.9614 13.2662 61.3284 14.4243C60.5744 14.9903 60.6004 16.2134 60.7284 18.0124C60.8364 19.5944 60.9494 21.2263 60.0604 22.1123C58.8044 23.3683 55.0414 27.5823 52.1074 30.8963L51.8984 31.1303L44.6584 38.3683C44.5084 38.3863 37.3464 37.5683 36.1124 39.2133L34.6634 41.2284C33.5338 42.9159 32.3004 44.5317 30.9704 46.0663C30.3704 46.6663 26.9584 47.7113 19.3344 48.6663C17.2024 48.8663 11.3554 49.6663 10.2404 50.8453L10.0684 51.0283L10.0084 51.2733C9.78051 52.5603 9.68201 53.8668 9.71438 55.1733C9.71447 56.9653 9.82071 58.7558 10.0324 60.5353C10.4584 63.9433 13.0224 71.6203 14.7004 72.8783C16.3414 74.1063 18.2114 78.9783 18.2114 82.0103L18.1604 82.8103C17.7534 85.6573 16.5824 91.5524 16.4504 92.2104C16.4478 92.2322 16.438 92.2525 16.4226 92.2682C16.4073 92.2839 16.3871 92.2942 16.3654 92.2973C16.2814 92.3043 8.03941 93.1184 6.76541 94.2054L6.66543 94.2903L6.59439 94.3904C6.20039 94.9834 5.37539 96.7083 4.25039 99.0813C3.30239 101.081 2.32243 103.152 1.88943 103.805C1.24743 104.769 1.00839 107.931 1.00839 109.693C0.974734 110.998 1.13071 112.301 1.4714 113.56C1.8904 114.816 4.01741 117.344 6.97641 120.78C9.47141 123.68 11.1194 125.631 11.2924 126.349L11.3364 126.533L11.4504 126.686C12.2274 127.725 15.5424 127.677 16.5394 127.638L17.1454 127.614L20.1044 120.014L14.1394 109.789C14.1254 109.729 14.1294 109.689 14.1724 109.66C22.4624 104.687 23.9194 104.517 24.0614 104.514C24.2034 104.511 25.5244 104.723 31.5714 111.937L31.8064 112.218L39.0224 113.068L39.2014 113.017C42.223 112.187 45.3136 111.631 48.4354 111.358C52.1444 111.198 55.8558 111.618 59.4354 112.602L59.5804 112.642L67.2044 112.219L69.3214 107.136C70.3814 105.914 72.8144 103.654 74.5484 103.654C77.5184 103.654 79.1424 104.073 79.8104 104.998C80.5194 105.974 80.1164 107.37 79.4004 109.564L78.5004 112.69C77.9702 115.055 76.9372 117.278 75.4714 119.208C73.3274 119.401 69.4604 119.672 68.1254 119.672C66.4554 119.672 60.1014 122.627 60.0374 122.657C56.4144 123.957 53.4524 124.287 52.6584 123.494C51.1281 122.162 49.5257 120.914 47.8584 119.757L47.1804 119.273L40.8234 126.48L40.7354 128.992C40.7073 130.71 40.8859 132.424 41.2674 134.099C41.9944 137.008 45.2064 140.225 46.1754 141.141L46.3424 141.299L46.5654 141.359C46.9924 141.475 57.0214 144.186 58.6344 141.767C60.3344 139.213 64.0754 137.526 64.2344 137.455C64.3344 137.465 64.3544 137.487 64.3614 137.515L66.0724 142.648L65.6274 149.864L70.9924 155.228L75.7024 158.654L82.9834 163.797L88.4834 168.872L88.5434 168.926L95.8434 173.65L103.666 176.582L103.184 168.038L106.763 166.343L110.021 161.479L110.237 154.852L105.825 148.066L99.7764 138.701L96.7694 127.963C96.7694 127.963 95.3024 118.975 95.2794 118.791L98.6564 115.416L101.237 110.253L104.144 107.358L110.56 106.931L117.479 100.438L120.111 90.8943L112.923 78.6073L105.157 72.3954C105.086 72.3234 100.334 67.5083 100.268 67.4433C99.2584 66.9383 97.4144 60.8373 97.4144 60.8373L101.022 58.5823C101.16 58.6033 111.722 62.4443 111.722 62.4443L119.687 64.9613L119.857 65.0154L125.645 64.5703C125.645 64.5703 125.232 59.1883 125.213 58.9493L127.689 57.7104L132.04 53.3614L132.449 49.2754L131.72 49.0563C131.069 48.8623 129.315 47.7563 127.065 41.7563C126.615 40.5563 125.43 40.2803 124.058 39.9563C121.714 39.4053 118.507 38.6564 117.658 32.4084L117.652 32.3564L117.638 32.3053C117.585 32.0983 116.323 27.2294 113.856 26.4054C108.699 24.637 103.98 21.7854 100.015 18.0423C98.6633 16.6643 97.4529 15.1541 96.4024 13.5343C95.5717 12.2816 94.6618 11.0832 93.6784 9.94632C91.7104 7.75632 90.6734 7.58435 88.6994 7.42935L86.4394 7.16134C84.1144 6.74234 83.8744 6.14133 83.4784 5.14633C83.1118 4.13011 82.4874 3.22658 81.6664 2.52432C80.3714 1.34132 79.2784 0.85032 78.3274 1.02432" fill="white" fill-opacity="0.2"/>
<path d="M74.8974 5.07132L76.6451 6.0437L76.6609 6.0154L76.6757 5.98661L74.8974 5.07132ZM73.6714 7.32235L71.7581 6.74003L75.4661 8.20499L73.6714 7.32235ZM73.6954 7.24032L75.6174 7.7934L71.9978 6.18292L73.6954 7.24032ZM71.5074 9.74032L72.6879 11.3548L72.7353 11.3202L72.7805 11.2828L71.5074 9.74032ZM66.7394 11.9403L66.2772 9.99448L66.2669 9.99693L66.2566 9.99949L66.7394 11.9403ZM61.3284 14.4243L60.1714 12.793L60.1493 12.8086L60.1277 12.8249L61.3284 14.4243ZM60.7284 18.0124L62.7238 17.8761L62.7234 17.8704L60.7284 18.0124ZM60.0604 22.1123L58.6486 20.6957L58.6462 20.6981L60.0604 22.1123ZM52.1074 30.8963L53.5991 32.2285L53.6048 32.2221L52.1074 30.8963ZM51.8984 31.1303L53.3124 32.5447L53.3524 32.5047L53.3901 32.4625L51.8984 31.1303ZM44.6584 38.3683L44.8967 40.3541L45.5833 40.2717L46.0724 39.7827L44.6584 38.3683ZM36.1124 39.2133L34.5125 38.0132L34.5004 38.0293L34.4886 38.0457L36.1124 39.2133ZM34.6634 41.2284L33.0396 40.0607L33.0201 40.088L33.0014 40.1158L34.6634 41.2284ZM30.9704 46.0663L32.3846 47.4805L32.4351 47.4301L32.4818 47.3762L30.9704 46.0663ZM19.3344 48.6663L19.5212 50.6576L19.5522 50.6547L19.583 50.6508L19.3344 48.6663ZM10.2404 50.8453L8.78727 49.4711L8.78287 49.4758L10.2404 50.8453ZM10.0684 51.0283L8.61087 49.6588L8.25085 50.042L8.12579 50.5526L10.0684 51.0283ZM10.0084 51.2733L8.06579 50.7976L8.05035 50.8607L8.03903 50.9246L10.0084 51.2733ZM9.71438 55.1733L11.7144 55.1732L11.7144 55.1485L11.7138 55.1238L9.71438 55.1733ZM10.0324 60.5353L8.04641 60.7716L8.04788 60.7834L10.0324 60.5353ZM14.7004 72.8783L13.5007 74.4786L13.5021 74.4796L14.7004 72.8783ZM18.2114 82.0103L20.2073 82.1375L20.2114 82.074V82.0103H18.2114ZM18.1604 82.8103L20.1403 83.0934L20.1514 83.0157L20.1564 82.9375L18.1604 82.8103ZM16.4504 92.2104L14.4895 91.817L14.4741 91.8934L14.4648 91.9709L16.4504 92.2104ZM16.3654 92.2973L16.5315 94.2904L16.5914 94.2854L16.651 94.2768L16.3654 92.2973ZM6.76541 94.2054L8.06055 95.7294L8.06355 95.7268L6.76541 94.2054ZM6.66543 94.2903L5.3703 92.7663L5.17967 92.9283L5.03481 93.1323L6.66543 94.2903ZM6.59439 94.3904L4.96377 93.2323L4.94577 93.2577L4.92856 93.2835L6.59439 94.3904ZM4.25039 99.0813L2.4432 98.2246L2.44314 98.2247L4.25039 99.0813ZM1.88943 103.805L3.55407 104.914L3.55628 104.911L1.88943 103.805ZM1.00839 109.693L3.00772 109.745L3.00839 109.719V109.693H1.00839ZM1.4714 113.56L-0.459243 114.082L-0.444131 114.138L-0.425813 114.193L1.4714 113.56ZM6.97641 120.78L8.49252 119.476L8.4919 119.475L6.97641 120.78ZM11.2924 126.349L13.2375 125.884L13.2367 125.881L11.2924 126.349ZM11.3364 126.533L9.39124 126.999L9.48694 127.399L9.73287 127.729L11.3364 126.533ZM11.4504 126.686L9.84688 127.882L9.84874 127.884L11.4504 126.686ZM16.5394 127.638L16.6176 129.637L16.6185 129.637L16.5394 127.638ZM17.1454 127.614L17.2245 129.613L18.5338 129.561L19.0091 128.34L17.1454 127.614ZM20.1044 120.014L21.9681 120.74L22.3184 119.84L21.8319 119.007L20.1044 120.014ZM14.1394 109.789L12.1917 110.244L12.2602 110.537L12.4119 110.797L14.1394 109.789ZM14.1724 109.66L13.1436 107.945L13.0981 107.973L13.0541 108.002L14.1724 109.66ZM31.5714 111.937L33.1057 110.654L33.1042 110.653L31.5714 111.937ZM31.8064 112.218L30.2722 113.501L30.7825 114.112L31.5725 114.205L31.8064 112.218ZM39.0224 113.068L38.7885 115.055L39.1856 115.101L39.5702 114.992L39.0224 113.068ZM39.2014 113.017L38.6712 111.089L38.6624 111.091L38.6536 111.094L39.2014 113.017ZM48.4354 111.358L48.3492 109.36L48.3051 109.362L48.2611 109.366L48.4354 111.358ZM59.4354 112.602L59.9677 110.674L59.9657 110.674L59.4354 112.602ZM59.5804 112.642L59.0481 114.57L59.364 114.657L59.6912 114.639L59.5804 112.642ZM67.2044 112.219L67.3152 114.216L68.5682 114.147L69.0507 112.988L67.2044 112.219ZM69.3214 107.136L67.8106 105.826L67.5992 106.07L67.4752 106.367L69.3214 107.136ZM79.8104 104.998L78.189 106.169L78.1923 106.174L79.8104 104.998ZM79.4004 109.564L77.4991 108.944L77.4882 108.977L77.4785 109.011L79.4004 109.564ZM78.5004 112.69L76.5785 112.137L76.5619 112.194L76.5488 112.253L78.5004 112.69ZM75.4714 119.208L75.6507 121.2L76.5301 121.121L77.0642 120.418L75.4714 119.208ZM60.0374 122.657L60.7128 124.54L60.8012 124.508L60.8862 124.468L60.0374 122.657ZM52.6584 123.494L54.0717 122.079L54.0234 122.031L53.9719 121.986L52.6584 123.494ZM47.8584 119.757L46.6964 121.385L46.7073 121.393L46.7184 121.401L47.8584 119.757ZM47.1804 119.273L48.3424 117.646L46.874 116.597L45.6805 117.95L47.1804 119.273ZM40.8234 126.48L39.3235 125.157L38.8497 125.694L38.8246 126.41L40.8234 126.48ZM40.7354 128.992L38.7366 128.922L38.736 128.941L38.7356 128.96L40.7354 128.992ZM41.2674 134.099L39.3174 134.544L39.322 134.564L39.3271 134.584L41.2674 134.099ZM46.1754 141.141L47.5498 139.688L47.5493 139.688L46.1754 141.141ZM46.3424 141.299L44.968 142.752L45.335 143.099L45.8227 143.231L46.3424 141.299ZM46.5654 141.359L47.0897 139.429L47.0851 139.428L46.5654 141.359ZM58.6344 141.767L60.2984 142.877L60.2993 142.876L58.6344 141.767ZM64.2344 137.455L64.4334 135.465L63.9044 135.412L63.4189 135.629L64.2344 137.455ZM64.3614 137.515L62.4211 138L62.4398 138.075L62.4641 138.148L64.3614 137.515ZM66.0724 142.648L68.0686 142.771L68.0925 142.384L67.9698 142.016L66.0724 142.648ZM65.6274 149.864L63.6312 149.741L63.5757 150.641L64.2133 151.279L65.6274 149.864ZM70.9924 155.228L69.5783 156.643L69.6892 156.754L69.8159 156.846L70.9924 155.228ZM75.7024 158.654L74.526 160.272L74.5372 160.28L74.5485 160.288L75.7024 158.654ZM82.9834 163.797L84.3397 162.327L84.2439 162.239L84.1373 162.164L82.9834 163.797ZM88.4834 168.872L87.1271 170.342L87.1361 170.351L87.1452 170.359L88.4834 168.872ZM88.5434 168.926L87.2052 170.413L87.3234 170.519L87.4568 170.605L88.5434 168.926ZM95.8434 173.65L94.7568 175.329L94.9387 175.447L95.1415 175.523L95.8434 173.65ZM103.666 176.582L102.965 178.455L105.836 179.531L105.663 176.47L103.666 176.582ZM103.184 168.038L102.328 166.231L101.112 166.807L101.188 168.151L103.184 168.038ZM106.763 166.343L107.619 168.151L108.118 167.915L108.425 167.456L106.763 166.343ZM110.021 161.479L111.683 162.592L112.002 162.117L112.02 161.544L110.021 161.479ZM110.237 154.852L112.236 154.917L112.257 154.289L111.914 153.762L110.237 154.852ZM105.825 148.066L104.145 149.151L104.149 149.156L105.825 148.066ZM99.7764 138.701L97.8505 139.241L97.9321 139.532L98.0964 139.786L99.7764 138.701ZM96.7694 127.963L94.7956 128.286L94.8135 128.395L94.8435 128.503L96.7694 127.963ZM95.2794 118.791L93.8656 117.377L93.1735 118.068L93.2948 119.039L95.2794 118.791ZM98.6564 115.416L100.07 116.831L100.3 116.601L100.445 116.311L98.6564 115.416ZM101.237 110.253L99.8261 108.836L99.5946 109.067L99.4485 109.359L101.237 110.253ZM104.144 107.358L104.012 105.363L103.264 105.412L102.733 105.941L104.144 107.358ZM110.56 106.931L110.693 108.927L111.407 108.879L111.929 108.39L110.56 106.931ZM117.479 100.438L118.848 101.897L119.258 101.512L119.407 100.97L117.479 100.438ZM120.111 90.8943L122.039 91.426L122.264 90.6127L121.838 89.8844L120.111 90.8943ZM112.923 78.6073L114.65 77.5974L114.462 77.2772L114.173 77.0455L112.923 78.6073ZM105.157 72.3954L103.733 73.7996L103.816 73.8836L103.908 73.9572L105.157 72.3954ZM100.268 67.4433L101.672 66.0184L101.446 65.7961L101.163 65.6545L100.268 67.4433ZM97.4144 60.8373L96.3544 59.1413L95.0574 59.9519L95.4999 61.4159L97.4144 60.8373ZM101.022 58.5823L101.323 56.6051L100.591 56.4936L99.9624 56.8863L101.022 58.5823ZM111.722 62.4443L111.039 64.3239L111.079 64.3385L111.12 64.3513L111.722 62.4443ZM119.687 64.9613L120.293 63.0553L120.29 63.0543L119.687 64.9613ZM119.857 65.0154L119.252 66.9214L119.623 67.0393L120.011 67.0095L119.857 65.0154ZM125.645 64.5703L125.799 66.5645L127.793 66.4112L127.64 64.4173L125.645 64.5703ZM125.213 58.9493L124.318 57.1607L123.113 57.764L123.22 59.1078L125.213 58.9493ZM127.689 57.7104L128.584 59.4989L128.874 59.3539L129.103 59.1249L127.689 57.7104ZM132.04 53.3614L133.454 54.7759L133.959 54.2711L134.03 53.5606L132.04 53.3614ZM132.449 49.2754L134.439 49.4746L134.604 47.8343L133.025 47.36L132.449 49.2754ZM131.72 49.0563L132.296 47.1409L132.292 47.1396L131.72 49.0563ZM127.065 41.7563L125.193 42.4586L127.065 41.7563ZM124.058 39.9563L124.518 38.0099L124.516 38.0094L124.058 39.9563ZM117.658 32.4084L115.672 32.6369L115.674 32.6573L115.677 32.6776L117.658 32.4084ZM117.652 32.3564L119.639 32.1278L119.622 31.9746L119.581 31.8258L117.652 32.3564ZM117.638 32.3053L115.701 32.8014L115.705 32.8187L115.71 32.8359L117.638 32.3053ZM113.856 26.4054L113.208 28.2972L113.215 28.2998L113.223 28.3023L113.856 26.4054ZM100.015 18.0423L98.5878 19.4431L98.6146 19.4703L98.6423 19.4965L100.015 18.0423ZM96.4024 13.5343L98.0804 12.4461L98.0749 12.4375L98.0692 12.429L96.4024 13.5343ZM93.6784 9.94632L95.1911 8.6379L95.1787 8.62359L95.166 8.60951L93.6784 9.94632ZM88.6994 7.42935L88.4639 9.41543L88.5033 9.42011L88.5429 9.42321L88.6994 7.42935ZM86.4394 7.16134L86.0847 9.12964L86.144 9.14033L86.2039 9.14743L86.4394 7.16134ZM83.4784 5.14633L81.5971 5.82508L81.6082 5.85567L81.6202 5.88589L83.4784 5.14633ZM81.6664 2.52432L80.3175 4.00095L80.3416 4.02294L80.3663 4.04413L81.6664 2.52432ZM77.9735 -0.933936C76.4861 -0.665757 75.4845 0.34538 74.8236 1.23223C74.1581 2.12529 73.596 3.22956 73.1192 4.15602L76.6757 5.98661C77.1958 4.97607 77.6032 4.19635 78.031 3.62241C78.4633 3.04227 78.6787 3.00342 78.6833 3.0026L77.9735 -0.933936ZM73.1497 4.09894C72.4064 5.43493 72.0547 6.07788 71.8767 6.43972L75.4661 8.20499C75.5882 7.95683 75.8784 7.4217 76.6451 6.0437L73.1497 4.09894ZM75.5848 7.90468C75.5926 7.87889 75.6022 7.84601 75.6067 7.83059C75.6096 7.8205 75.6122 7.81136 75.6141 7.80478C75.6151 7.80146 75.6159 7.79873 75.6164 7.79678C75.6167 7.7958 75.6169 7.79502 75.6171 7.79445C75.6172 7.79416 75.6173 7.79393 75.6173 7.79375C75.6173 7.79367 75.6174 7.79359 75.6174 7.79353C75.6174 7.7935 75.6174 7.79348 75.6174 7.79346C75.6174 7.79344 75.6174 7.79343 75.6174 7.79342C75.6174 7.79342 75.6174 7.79341 75.6174 7.79341C75.6174 7.79341 75.6174 7.7934 73.6954 7.24032C71.7734 6.68725 71.7734 6.68724 71.7734 6.68724C71.7734 6.68724 71.7734 6.68723 71.7734 6.68723C71.7734 6.68722 71.7734 6.68722 71.7734 6.68721C71.7734 6.68721 71.7734 6.6872 71.7734 6.6872C71.7734 6.6872 71.7734 6.68721 71.7734 6.68723C71.7734 6.68728 71.7734 6.68739 71.7733 6.68754C71.7732 6.68784 71.7731 6.68835 71.7729 6.68903C71.7725 6.6904 71.7719 6.69246 71.7711 6.69504C71.7697 6.70024 71.7676 6.70729 71.7654 6.71484C71.7597 6.73468 71.7572 6.74282 71.7581 6.74003L75.5848 7.90468ZM71.9978 6.18292C71.5228 6.9455 70.9273 7.62596 70.2344 8.19781L72.7805 11.2828C73.807 10.4356 74.6893 9.42749 75.393 8.29773L71.9978 6.18292ZM70.3269 8.1259C69.1149 9.01217 67.738 9.64747 66.2772 9.99448L67.2016 13.8862C69.1807 13.4161 71.046 12.5554 72.6879 11.3548L70.3269 8.1259ZM66.2566 9.99949C64.0717 10.543 62.0078 11.4905 60.1714 12.793L62.4854 16.0557C63.9149 15.0418 65.5215 14.3043 67.2223 13.8812L66.2566 9.99949ZM60.1277 12.8249C59.1197 13.5815 58.8123 14.6762 58.7117 15.5191C58.6138 16.3401 58.6716 17.2844 58.7335 18.1543L62.7234 17.8704C62.6573 16.9413 62.638 16.3747 62.6836 15.9929C62.7265 15.633 62.7831 15.8331 62.5291 16.0238L60.1277 12.8249ZM58.7331 18.1486C58.7899 18.9816 58.828 19.6102 58.7776 20.1306C58.7271 20.6516 58.6137 20.7305 58.6486 20.6957L61.4722 23.5289C62.3961 22.6081 62.6707 21.4281 62.759 20.5161C62.8473 19.6035 62.7749 18.6251 62.7238 17.8761L58.7331 18.1486ZM58.6462 20.6981C57.3354 22.0089 53.5194 26.2842 50.6099 29.5706L53.6048 32.2221C56.5633 28.8804 60.2734 24.7277 61.4746 23.5265L58.6462 20.6981ZM50.6157 29.5641L50.4067 29.7981L53.3901 32.4625L53.5991 32.2285L50.6157 29.5641ZM50.4844 29.7159L43.2444 36.9539L46.0724 39.7827L53.3124 32.5447L50.4844 29.7159ZM44.4201 36.3826C44.5156 36.3711 44.5901 36.3694 44.6139 36.369C44.6471 36.3683 44.673 36.3687 44.6863 36.369C44.7128 36.3695 44.7307 36.3705 44.7318 36.3706C44.736 36.3708 44.7289 36.3704 44.7017 36.3684C44.6491 36.3644 44.5734 36.3581 44.4622 36.349C44.2471 36.3314 43.9392 36.3064 43.5692 36.2812C42.8324 36.2311 41.8341 36.1789 40.7885 36.1807C39.7587 36.1825 38.6063 36.2362 37.5875 36.4225C37.0779 36.5156 36.5379 36.6531 36.0378 36.8681C35.556 37.0753 34.9579 37.4194 34.5125 38.0132L37.7123 40.4135C37.5753 40.596 37.4711 40.6059 37.6177 40.5429C37.746 40.4877 37.9692 40.419 38.3069 40.3572C38.9827 40.2337 39.8616 40.1823 40.7953 40.1807C41.7133 40.1791 42.6107 40.2252 43.2975 40.272C43.6393 40.2953 43.9252 40.3184 44.1353 40.3356C44.2367 40.3439 44.3314 40.3518 44.4009 40.357C44.4347 40.3596 44.4765 40.3626 44.5166 40.3648C44.5357 40.3658 44.5683 40.3674 44.6063 40.3682C44.6081 40.3682 44.7397 40.3729 44.8967 40.3541L44.4201 36.3826ZM34.4886 38.0457L33.0396 40.0607L36.2872 42.396L37.7362 40.381L34.4886 38.0457ZM33.0014 40.1158C31.9179 41.7346 30.7348 43.2844 29.459 44.7565L32.4818 47.3762C33.866 45.7789 35.1497 44.0973 36.3254 42.3409L33.0014 40.1158ZM29.5562 44.6521C29.7389 44.4694 29.7831 44.525 29.2659 44.7199C28.8458 44.8783 28.21 45.0728 27.3156 45.2894C25.5323 45.7214 22.8531 46.21 19.0859 46.6819L19.583 50.6508C23.4398 50.1677 26.2785 49.6563 28.2573 49.177C29.2439 48.938 30.0501 48.6991 30.6767 48.4629C31.2062 48.2633 31.9019 47.9633 32.3846 47.4805L29.5562 44.6521ZM19.1476 46.6751C18.0289 46.78 15.9641 47.0387 14.015 47.4273C13.0434 47.621 12.0525 47.8564 11.2045 48.1365C10.7806 48.2766 10.3559 48.4397 9.97087 48.6318C9.60987 48.8119 9.15906 49.078 8.78728 49.4711L11.6935 52.2195C11.6005 52.3179 11.5763 52.301 11.7568 52.211C11.9133 52.1329 12.1449 52.0385 12.4593 51.9346C13.0879 51.7269 13.901 51.5288 14.7971 51.3501C16.5833 50.994 18.508 50.7527 19.5212 50.6576L19.1476 46.6751ZM8.78287 49.4758L8.61087 49.6588L11.5259 52.3979L11.6979 52.2148L8.78287 49.4758ZM8.12579 50.5526L8.06579 50.7976L11.951 51.7491L12.011 51.5041L8.12579 50.5526ZM8.03903 50.9246C7.78787 52.343 7.67932 53.7829 7.715 55.2228L11.7138 55.1238C11.6847 53.9506 11.7731 52.7776 11.9778 51.6221L8.03903 50.9246ZM7.71438 55.1734C7.71447 57.0444 7.82539 58.9138 8.04645 60.7716L12.0184 60.299C11.816 58.5979 11.7145 56.8863 11.7144 55.1732L7.71438 55.1734ZM8.04788 60.7834C8.287 62.6963 9.08826 65.6246 10.0159 68.1926C10.4848 69.4906 11.0075 70.757 11.5403 71.8048C11.8064 72.3281 12.09 72.8267 12.3871 73.2592C12.6675 73.6672 13.0363 74.1304 13.5007 74.4786L15.9001 71.2781C15.945 71.3118 15.8666 71.2598 15.6839 70.994C15.518 70.7525 15.3227 70.4183 15.1058 69.9918C14.6726 69.1398 14.213 68.038 13.778 66.8336C12.8976 64.3965 12.2039 61.7823 12.017 60.2872L8.04788 60.7834ZM13.5021 74.4796C13.6051 74.5566 13.8698 74.8317 14.2263 75.4259C14.5604 75.9827 14.8999 76.6928 15.2044 77.4852C15.8271 79.1058 16.2114 80.8271 16.2114 82.0103H20.2114C20.2114 80.1616 19.6607 77.9308 18.9382 76.0505C18.57 75.0924 18.1344 74.1648 17.6563 73.3679C17.2006 72.6085 16.6162 71.814 15.8987 71.277L13.5021 74.4796ZM16.2154 81.8832L16.1645 82.6832L20.1564 82.9375L20.2073 82.1375L16.2154 81.8832ZM16.1806 82.5273C15.7832 85.3069 14.6251 91.141 14.4895 91.817L18.4113 92.6037C18.5397 91.9638 19.7237 86.0077 20.1403 83.0934L16.1806 82.5273ZM14.4648 91.9709C14.5151 91.5537 14.7018 91.1676 14.9921 90.8705L17.8532 93.6659C18.1742 93.3374 18.3804 92.9107 18.436 92.4499L14.4648 91.9709ZM14.9921 90.8705C15.2832 90.5726 15.6651 90.3777 16.0798 90.3178L16.651 94.2768C17.1092 94.2107 17.5314 93.9953 17.8532 93.6659L14.9921 90.8705ZM16.1993 90.3042C16.1135 90.3114 13.9868 90.5219 11.71 90.8692C10.5725 91.0428 9.35657 91.2565 8.3233 91.5051C7.80843 91.629 7.30205 91.7701 6.85698 91.9319C6.46578 92.0741 5.91269 92.3039 5.46727 92.6839L8.06355 95.7268C7.93663 95.8351 7.91979 95.8016 8.2235 95.6912C8.47335 95.6004 8.82054 95.4996 9.25882 95.3942C10.1319 95.1842 11.2205 94.9902 12.3133 94.8235C14.497 94.4903 16.5332 94.2903 16.5315 94.2904L16.1993 90.3042ZM5.47027 92.6813L5.3703 92.7663L7.96057 95.8143L8.06054 95.7294L5.47027 92.6813ZM5.03481 93.1323L4.96377 93.2323L8.22501 95.5484L8.29605 95.4484L5.03481 93.1323ZM4.92856 93.2835C4.64816 93.7056 4.28781 94.4042 3.90332 95.1826C3.49885 96.0015 3.00441 97.0408 2.4432 98.2246L6.05759 99.9381C6.62137 98.7489 7.10194 97.7391 7.48971 96.954C7.89747 96.1285 8.14662 95.6681 8.26022 95.4972L4.92856 93.2835ZM2.44314 98.2247C1.96704 99.2291 1.49191 100.232 1.082 101.066C0.649253 101.946 0.353905 102.502 0.222588 102.7L3.55628 104.911C3.85796 104.456 4.26909 103.65 4.67158 102.831C5.0969 101.966 5.58575 100.934 6.05765 99.938L2.44314 98.2247ZM0.2248 102.697C-0.135685 103.238 -0.336153 103.897 -0.461519 104.408C-0.599318 104.97 -0.70112 105.594 -0.776695 106.204C-0.927948 107.427 -0.99161 108.74 -0.99161 109.693H3.00839C3.00839 108.884 3.06425 107.736 3.19302 106.696C3.25745 106.175 3.33579 105.718 3.42337 105.361C3.52339 104.953 3.59355 104.855 3.55406 104.914L0.2248 102.697ZM-0.990945 109.642C-1.02959 111.14 -0.85048 112.636 -0.459243 114.082L3.40205 113.038C3.11189 111.965 2.97906 110.856 3.00772 109.745L-0.990945 109.642ZM-0.425813 114.193C-0.239451 114.752 0.0831667 115.315 0.416653 115.827C0.765571 116.363 1.20222 116.954 1.69664 117.586C2.68413 118.847 3.98619 120.373 5.46092 122.085L8.4919 119.475C7.00763 117.752 5.76668 116.296 4.84617 115.12C4.38659 114.533 4.02799 114.042 3.76778 113.643C3.49214 113.22 3.39176 112.997 3.36862 112.927L-0.425813 114.193ZM5.4603 122.085C6.71358 123.541 7.72206 124.723 8.43814 125.626C8.79689 126.078 9.05645 126.429 9.22795 126.688C9.44163 127.011 9.39461 127.011 9.34803 126.818L13.2367 125.881C13.1037 125.329 12.7858 124.816 12.5638 124.48C12.2997 124.081 11.9589 123.628 11.5722 123.14C10.7972 122.163 9.73423 120.919 8.49252 119.476L5.4603 122.085ZM9.34723 126.814L9.39124 126.999L13.2815 126.068L13.2375 125.884L9.34723 126.814ZM9.73287 127.729L9.84688 127.882L13.0539 125.491L12.9399 125.338L9.73287 127.729ZM9.84874 127.884C10.4199 128.648 11.2607 129.002 11.8173 129.182C12.436 129.382 13.1052 129.491 13.6985 129.555C14.8929 129.684 16.0841 129.658 16.6176 129.637L16.4612 125.64C15.9977 125.658 15.0329 125.676 14.1263 125.578C13.6691 125.529 13.3016 125.458 13.0491 125.376C12.7344 125.274 12.8695 125.244 13.0521 125.489L9.84874 127.884ZM16.6185 129.637L17.2245 129.613L17.0663 125.616L16.4603 125.64L16.6185 129.637ZM19.0091 128.34L21.9681 120.74L18.2407 119.289L15.2817 126.889L19.0091 128.34ZM21.8319 119.007L15.867 108.782L12.4119 110.797L18.3769 121.022L21.8319 119.007ZM16.0871 109.335C16.1008 109.393 16.1802 109.72 16.0885 110.14C15.9718 110.674 15.649 111.077 15.2907 111.318L13.0541 108.002C12.6528 108.273 12.3065 108.71 12.1806 109.286C12.0797 109.749 12.1641 110.125 12.1917 110.244L16.0871 109.335ZM15.2012 111.375C19.3193 108.905 21.6905 107.658 23.021 107.035C24.4486 106.366 24.5013 106.505 24.1037 106.514L24.0192 102.515C23.4795 102.526 22.7327 102.752 21.3239 103.412C19.8178 104.118 17.3154 105.443 13.1436 107.945L15.2012 111.375ZM24.1037 106.514C23.6261 106.524 23.3672 106.348 23.4743 106.407C23.5485 106.449 23.8002 106.605 24.294 107.032C25.2799 107.885 27.0428 109.648 30.0387 113.222L33.1042 110.653C30.0531 107.013 28.132 105.063 26.9101 104.007C26.3 103.479 25.8169 103.133 25.4145 102.909C25.045 102.704 24.5678 102.503 24.0192 102.515L24.1037 106.514ZM30.0372 113.22L30.2722 113.501L33.3407 110.935L33.1057 110.654L30.0372 113.22ZM31.5725 114.205L38.7885 115.055L39.2564 111.082L32.0404 110.232L31.5725 114.205ZM39.5702 114.992L39.7492 114.941L38.6536 111.094L38.4746 111.145L39.5702 114.992ZM39.7316 114.946C42.6367 114.147 45.6082 113.613 48.6096 113.351L48.2611 109.366C45.019 109.649 41.8092 110.226 38.6712 111.089L39.7316 114.946ZM48.5216 113.356C52.0228 113.205 55.5261 113.602 58.9051 114.531L59.9657 110.674C56.1854 109.634 52.2661 109.191 48.3492 109.36L48.5216 113.356ZM58.9031 114.53L59.0481 114.57L60.1127 110.714L59.9677 110.674L58.9031 114.53ZM59.6912 114.639L67.3152 114.216L67.0936 110.222L59.4696 110.645L59.6912 114.639ZM69.0507 112.988L71.1677 107.905L67.4752 106.367L65.3582 111.45L69.0507 112.988ZM70.8322 108.447C71.2867 107.923 72.0577 107.155 72.8818 106.537C73.292 106.23 73.6746 105.99 74.0041 105.835C74.1662 105.758 74.2974 105.71 74.3974 105.683C74.4463 105.67 74.4835 105.662 74.5098 105.658C74.5227 105.656 74.5324 105.655 74.5389 105.655C74.5454 105.654 74.5485 105.654 74.5484 105.654V101.654C73.7059 101.654 72.924 101.921 72.2944 102.218C71.6468 102.525 71.0298 102.927 70.4826 103.337C69.3917 104.155 68.4162 105.128 67.8106 105.826L70.8322 108.447ZM74.5484 105.654C75.9664 105.654 76.9226 105.757 77.5466 105.917C78.1757 106.078 78.2382 106.237 78.189 106.169L81.4318 103.827C80.7146 102.834 79.6311 102.322 78.5387 102.042C77.4412 101.761 76.1005 101.654 74.5484 101.654V105.654ZM78.1923 106.174C78.1221 106.077 78.2243 106.069 78.1581 106.554C78.0854 107.088 77.8699 107.808 77.4991 108.944L81.3017 110.185C81.6469 109.127 81.9909 108.052 82.1214 107.095C82.2585 106.09 82.2077 104.895 81.4285 103.823L78.1923 106.174ZM77.4785 109.011L76.5785 112.137L80.4223 113.244L81.3223 110.118L77.4785 109.011ZM76.5488 112.253C76.0815 114.338 75.1708 116.297 73.8786 117.999L77.0642 120.418C78.7036 118.259 79.859 115.773 80.452 113.128L76.5488 112.253ZM75.2921 117.216C73.1405 117.41 69.3582 117.672 68.1254 117.672V121.672C69.5626 121.672 73.5143 121.393 75.6507 121.2L75.2921 117.216ZM68.1254 117.672C67.3346 117.672 66.326 117.973 65.533 118.237C64.6396 118.536 63.6394 118.925 62.7184 119.304C60.8721 120.063 59.2358 120.824 59.1885 120.846L60.8862 124.468C60.8861 124.468 60.986 124.422 61.1659 124.34C61.3443 124.258 61.5986 124.143 61.9077 124.005C62.5272 123.729 63.3608 123.365 64.2399 123.003C65.1241 122.64 66.0296 122.289 66.7992 122.032C67.1846 121.903 67.5124 121.806 67.772 121.743C68.0611 121.673 68.1582 121.672 68.1254 121.672V117.672ZM59.3619 120.775C57.6465 121.39 56.1565 121.75 55.0627 121.873C54.5113 121.936 54.1307 121.929 53.9047 121.899C53.6227 121.861 53.8117 121.82 54.0717 122.079L51.2451 124.909C51.9021 125.566 52.7591 125.78 53.369 125.863C54.0349 125.953 54.7702 125.932 55.5113 125.848C57.0028 125.68 58.8053 125.224 60.7128 124.54L59.3619 120.775ZM53.9719 121.986C52.3863 120.605 50.726 119.313 48.9985 118.114L46.7184 121.401C48.3254 122.516 49.8699 123.718 51.3449 125.003L53.9719 121.986ZM49.0204 118.13L48.3424 117.646L46.0184 120.901L46.6964 121.385L49.0204 118.13ZM45.6805 117.95L39.3235 125.157L42.3233 127.803L48.6803 120.596L45.6805 117.95ZM38.8246 126.41L38.7366 128.922L42.7341 129.062L42.8222 126.55L38.8246 126.41ZM38.7356 128.96C38.7049 130.838 38.9003 132.712 39.3174 134.544L43.2175 133.655C42.8716 132.137 42.7096 130.582 42.7351 129.025L38.7356 128.96ZM39.3271 134.584C39.7966 136.463 41.0005 138.267 42.0624 139.609C43.1587 140.994 44.2783 142.1 44.8015 142.595L47.5493 139.688C47.1034 139.266 46.1325 138.306 45.1989 137.126C44.2308 135.903 43.4653 134.645 43.2077 133.614L39.3271 134.584ZM44.801 142.594L44.968 142.752L47.7168 139.846L47.5498 139.688L44.801 142.594ZM45.8227 143.231L46.0457 143.291L47.0851 139.428L46.8621 139.368L45.8227 143.231ZM46.0411 143.289C46.274 143.353 48.9857 144.086 51.8756 144.494C53.309 144.697 54.8895 144.834 56.2713 144.735C56.9618 144.686 57.6896 144.572 58.3576 144.327C59.0191 144.085 59.7787 143.656 60.2984 142.877L56.9704 140.658C57.0869 140.483 57.1803 140.499 56.9829 140.571C56.7921 140.641 56.4683 140.711 55.9851 140.746C55.0195 140.815 53.7636 140.721 52.4347 140.534C49.8001 140.162 47.2838 139.482 47.0897 139.429L46.0411 143.289ZM60.2993 142.876C60.9208 141.942 62.0059 141.061 63.0931 140.363C64.1448 139.688 65.0207 139.295 65.0499 139.282L63.4189 135.629C63.2891 135.687 62.215 136.173 60.9315 136.997C59.6835 137.799 58.0481 139.039 56.9695 140.659L60.2993 142.876ZM64.0354 139.445C64.0183 139.444 63.7103 139.421 63.3587 139.225C63.1478 139.108 62.9184 138.927 62.7285 138.663C62.542 138.403 62.4597 138.155 62.4211 138L66.3017 137.03C66.2597 136.862 66.1722 136.6 65.9769 136.329C65.7781 136.052 65.5361 135.86 65.3069 135.732C64.9185 135.515 64.5505 135.477 64.4334 135.465L64.0354 139.445ZM62.4641 138.148L64.1751 143.281L67.9698 142.016L66.2588 136.883L62.4641 138.148ZM64.0762 142.525L63.6312 149.741L67.6236 149.987L68.0686 142.771L64.0762 142.525ZM64.2133 151.279L69.5783 156.643L72.4065 153.814L67.0415 148.45L64.2133 151.279ZM69.8159 156.846L74.526 160.272L76.8789 157.037L72.1689 153.611L69.8159 156.846ZM74.5485 160.288L81.8295 165.431L84.1373 162.164L76.8563 157.021L74.5485 160.288ZM81.6271 165.267L87.1271 170.342L89.8397 167.402L84.3397 162.327L81.6271 165.267ZM87.1452 170.359L87.2052 170.413L89.8816 167.44L89.8216 167.386L87.1452 170.359ZM87.4568 170.605L94.7568 175.329L96.93 171.971L89.63 167.247L87.4568 170.605ZM95.1415 175.523L102.965 178.455L104.368 174.71L96.5453 171.778L95.1415 175.523ZM105.663 176.47L105.181 167.926L101.188 168.151L101.67 176.695L105.663 176.47ZM104.04 169.846L107.619 168.151L105.907 164.536L102.328 166.231L104.04 169.846ZM108.425 167.456L111.683 162.592L108.36 160.366L105.102 165.23L108.425 167.456ZM112.02 161.544L112.236 154.917L108.238 154.787L108.022 161.414L112.02 161.544ZM111.914 153.762L107.502 146.976L104.149 149.156L108.561 155.942L111.914 153.762ZM107.505 146.981L101.456 137.616L98.0964 139.786L104.145 149.151L107.505 146.981ZM101.702 138.162L98.6954 127.424L94.8435 128.503L97.8505 139.241L101.702 138.162ZM96.7694 127.963C98.7433 127.641 98.7433 127.641 98.7433 127.641C98.7433 127.641 98.7433 127.641 98.7433 127.641C98.7432 127.64 98.7431 127.64 98.743 127.64C98.7429 127.638 98.7426 127.637 98.7423 127.635C98.7416 127.63 98.7405 127.624 98.7391 127.615C98.7363 127.598 98.7322 127.573 98.7268 127.54C98.7161 127.474 98.7003 127.378 98.6803 127.255C98.6401 127.009 98.5827 126.657 98.5138 126.234C98.3759 125.389 98.1918 124.26 98.007 123.125C97.8222 121.99 97.6368 120.85 97.4961 119.982C97.3488 119.073 97.2637 118.541 97.2639 118.543L93.2948 119.039C93.3125 119.18 93.6967 121.543 94.059 123.768C94.2439 124.903 94.428 126.032 94.5659 126.878C94.6349 127.301 94.6923 127.653 94.7325 127.899C94.7525 128.022 94.7683 128.119 94.7791 128.184C94.7844 128.217 94.7886 128.243 94.7914 128.26C94.7927 128.268 94.7938 128.275 94.7945 128.279C94.7948 128.281 94.7951 128.283 94.7953 128.284C94.7954 128.284 94.7954 128.285 94.7955 128.285C94.7955 128.285 94.7955 128.285 94.7955 128.285C94.7956 128.285 94.7956 128.286 96.7694 127.963ZM96.6932 120.206L100.07 116.831L97.2426 114.002L93.8656 117.377L96.6932 120.206ZM100.445 116.311L103.026 111.148L99.4485 109.359L96.8675 114.522L100.445 116.311ZM102.649 111.67L105.556 108.775L102.733 105.941L99.8261 108.836L102.649 111.67ZM104.277 109.354L110.693 108.927L110.428 104.936L104.012 105.363L104.277 109.354ZM111.929 108.39L118.848 101.897L116.111 98.9799L109.192 105.473L111.929 108.39ZM119.407 100.97L122.039 91.426L118.183 90.3626L115.551 99.9066L119.407 100.97ZM121.838 89.8844L114.65 77.5974L111.197 79.6172L118.385 91.9042L121.838 89.8844ZM114.173 77.0455L106.407 70.8335L103.908 73.9572L111.674 80.1692L114.173 77.0455ZM106.582 70.9911C106.522 70.9311 101.752 66.097 101.672 66.0184L98.865 68.8683C98.8605 68.8638 98.9253 68.9292 99.0719 69.0776C99.2081 69.2154 99.3992 69.4089 99.6271 69.6397C100.083 70.1012 100.685 70.7113 101.288 71.3217C102.493 72.5428 103.698 73.7641 103.733 73.7996L106.582 70.9911ZM101.163 65.6545C101.528 65.8368 101.631 66.0671 101.507 65.8858C101.436 65.7827 101.33 65.5983 101.193 65.3184C100.922 64.7653 100.624 64.0286 100.339 63.2574C100.057 62.4961 99.8039 61.7444 99.6202 61.1797C99.5286 60.8984 99.4551 60.6657 99.4047 60.5044C99.3795 60.4237 99.3602 60.3611 99.3473 60.3191C99.3409 60.2982 99.3361 60.2824 99.333 60.2722C99.3314 60.2671 99.3303 60.2634 99.3296 60.2611C99.3293 60.26 99.329 60.2592 99.3289 60.2588C99.3288 60.2586 99.3288 60.2585 99.3288 60.2585C99.3288 60.2585 99.3288 60.2585 99.3288 60.2585C99.3288 60.2586 99.3289 60.2587 97.4144 60.8373C95.4999 61.4159 95.5 61.4161 95.5 61.4163C95.5001 61.4163 95.5001 61.4165 95.5002 61.4167C95.5003 61.4171 95.5004 61.4175 95.5006 61.418C95.5009 61.4191 95.5013 61.4205 95.5019 61.4223C95.503 61.4259 95.5045 61.431 95.5065 61.4374C95.5104 61.4503 95.5161 61.4689 95.5234 61.4928C95.538 61.5405 95.5593 61.6093 95.5865 61.6965C95.6409 61.8708 95.7193 62.1187 95.8164 62.4173C96.01 63.0123 96.281 63.8174 96.5868 64.6445C96.8889 65.4617 97.2413 66.3449 97.6002 67.0778C97.778 67.4409 97.981 67.816 98.2047 68.1432C98.3749 68.3922 98.7568 68.9236 99.374 69.2322L101.163 65.6545ZM98.4744 62.5333L102.082 60.2783L99.9624 56.8863L96.3544 59.1413L98.4744 62.5333ZM100.722 60.5595C100.604 60.5417 100.514 60.5165 100.51 60.5154C100.484 60.5085 100.465 60.5027 100.458 60.5007C100.443 60.4962 100.436 60.4936 100.442 60.4956C100.452 60.4988 100.474 60.5063 100.513 60.5199C100.59 60.5463 100.704 60.5864 100.854 60.6394C101.151 60.7448 101.572 60.8954 102.076 61.0766C103.083 61.4388 104.414 61.9203 105.743 62.4016C107.071 62.8828 108.395 63.3633 109.387 63.7237C109.883 63.9038 110.296 64.0539 110.585 64.1589C110.73 64.2114 110.843 64.2527 110.92 64.2808C110.959 64.2948 110.989 64.3056 111.009 64.3129C111.019 64.3165 111.026 64.3193 111.031 64.3211C111.034 64.322 111.036 64.3227 111.037 64.3232C111.038 64.3234 111.038 64.3236 111.038 64.3237C111.039 64.3238 111.039 64.3238 111.039 64.3238C111.039 64.3239 111.039 64.3239 111.722 62.4443C112.406 60.5647 112.406 60.5647 112.406 60.5647C112.406 60.5647 112.406 60.5646 112.405 60.5646C112.405 60.5644 112.405 60.5643 112.404 60.564C112.403 60.5636 112.401 60.5629 112.398 60.5619C112.393 60.5601 112.386 60.5573 112.376 60.5537C112.356 60.5464 112.326 60.5356 112.287 60.5215C112.21 60.4934 112.096 60.4521 111.951 60.3995C111.662 60.2944 111.249 60.1442 110.753 59.964C109.76 59.6034 108.435 59.1225 107.105 58.6408C105.776 58.1592 104.441 57.6765 103.429 57.3126C102.924 57.1308 102.496 56.9778 102.19 56.8692C102.037 56.8151 101.91 56.7705 101.817 56.7384C101.772 56.7227 101.727 56.7074 101.689 56.6949C101.671 56.6889 101.644 56.6803 101.615 56.6715C101.601 56.6672 101.576 56.6598 101.545 56.6515C101.536 56.6493 101.443 56.6232 101.323 56.6051L100.722 60.5595ZM111.12 64.3513L119.085 66.8684L120.29 63.0543L112.325 60.5373L111.12 64.3513ZM119.082 66.8674L119.252 66.9214L120.463 63.1093L120.293 63.0553L119.082 66.8674ZM120.011 67.0095L125.799 66.5645L125.492 62.5762L119.704 63.0212L120.011 67.0095ZM125.645 64.5703C127.64 64.4173 127.64 64.4173 127.64 64.4173C127.64 64.4172 127.64 64.4171 127.64 64.4171C127.64 64.4169 127.64 64.4167 127.639 64.4163C127.639 64.4157 127.639 64.4147 127.639 64.4134C127.639 64.4108 127.639 64.407 127.638 64.4019C127.638 64.3917 127.636 64.3765 127.635 64.3568C127.632 64.3173 127.627 64.2594 127.622 64.1856C127.61 64.0379 127.594 63.8268 127.575 63.5726C127.536 63.0643 127.483 62.384 127.431 61.6963C127.325 60.3239 127.217 58.9139 127.207 58.7908L123.22 59.1078C123.229 59.2237 123.337 60.6242 123.442 62.0026C123.495 62.6903 123.547 63.3704 123.586 63.8787C123.606 64.1329 123.622 64.344 123.633 64.4917C123.639 64.5655 123.644 64.6234 123.647 64.6629C123.648 64.6826 123.649 64.6977 123.65 64.7079C123.65 64.713 123.651 64.7169 123.651 64.7195C123.651 64.7208 123.651 64.7217 123.651 64.7224C123.651 64.7227 123.651 64.723 123.651 64.7231C123.651 64.7232 123.651 64.7233 123.651 64.7233C123.651 64.7233 123.651 64.7234 125.645 64.5703ZM126.108 60.7379L128.584 59.4989L126.794 55.9218L124.318 57.1607L126.108 60.7379ZM129.103 59.1249L133.454 54.7759L130.627 51.9468L126.276 56.2958L129.103 59.1249ZM134.03 53.5606L134.439 49.4746L130.459 49.0762L130.05 53.1622L134.03 53.5606ZM133.025 47.36L132.296 47.1409L131.145 50.9717L131.874 51.1908L133.025 47.36ZM132.292 47.1396C132.502 47.2024 132.225 47.2124 131.583 46.3709C130.942 45.5303 130.024 43.9492 128.938 41.0541L125.193 42.4586C126.357 45.5634 127.441 47.5353 128.402 48.7962C129.363 50.0562 130.288 50.7162 131.149 50.973L132.292 47.1396ZM128.938 41.0541C128.496 39.8753 127.664 39.1658 126.795 38.7356C126.024 38.3539 125.14 38.1567 124.518 38.0099L123.599 41.9028C124.349 42.08 124.743 42.1828 125.02 42.3201C125.13 42.3746 125.166 42.4099 125.171 42.4147C125.173 42.4173 125.174 42.4183 125.175 42.4201C125.176 42.4221 125.183 42.433 125.193 42.4586L128.938 41.0541ZM124.516 38.0094C123.309 37.7256 122.388 37.4811 121.605 36.8051C120.877 36.1764 120.02 34.9359 119.64 32.1391L115.677 32.6776C116.146 36.1288 117.317 38.3868 118.991 39.8324C120.61 41.2306 122.464 41.6361 123.601 41.9033L124.516 38.0094ZM119.645 32.1798L119.639 32.1278L115.666 32.5849L115.672 32.6369L119.645 32.1798ZM119.581 31.8258L119.567 31.7748L115.71 32.8359L115.724 32.8869L119.581 31.8258ZM119.576 31.8093C119.538 31.6612 119.173 30.2519 118.464 28.7384C118.11 27.9821 117.639 27.1334 117.035 26.3872C116.443 25.6557 115.608 24.8818 114.49 24.5084L113.223 28.3023C113.338 28.341 113.587 28.4847 113.926 28.9043C114.254 29.3093 114.565 29.8452 114.841 30.435C115.394 31.6138 115.686 32.7425 115.701 32.8014L119.576 31.8093ZM114.505 24.5135C109.618 22.8376 105.145 20.1353 101.388 16.5881L98.6423 19.4965C102.814 23.4355 107.78 26.4363 113.208 28.2972L114.505 24.5135ZM101.443 16.6416C100.185 15.3591 99.0581 13.9536 98.0804 12.4461L94.7244 14.6226C95.8477 16.3546 97.142 17.9695 98.5878 19.4431L101.443 16.6416ZM98.0692 12.429C97.1914 11.1054 96.2301 9.8391 95.1911 8.6379L92.1658 11.2547C93.0935 12.3273 93.9519 13.4579 94.7357 14.6397L98.0692 12.429ZM95.166 8.60951C94.0949 7.41757 93.1231 6.59753 92.0073 6.0988C90.9041 5.60572 89.8312 5.51206 88.856 5.43549L88.5429 9.42321C89.5416 9.50163 89.9742 9.57146 90.3751 9.75062C90.7632 9.92412 91.294 10.2851 92.1908 11.2831L95.166 8.60951ZM88.935 5.44327L86.6749 5.17526L86.2039 9.14743L88.4639 9.41543L88.935 5.44327ZM86.7941 5.19305C85.7184 4.99919 85.4952 4.81633 85.5012 4.82122C85.5581 4.86778 85.5566 4.95936 85.3367 4.40677L81.6202 5.88589C81.7963 6.3283 82.1127 7.21788 82.9699 7.91845C83.7762 8.57735 84.8354 8.90449 86.0847 9.12964L86.7941 5.19305ZM85.3597 4.46758C84.8755 3.12537 84.0508 1.93202 82.9665 1.00451L80.3663 4.04413C80.924 4.52113 81.3481 5.13484 81.5971 5.82508L85.3597 4.46758ZM83.0153 1.04769C81.616 -0.23062 79.8897 -1.29472 77.9675 -0.943021L78.6874 2.99166C78.6897 2.99124 78.7097 2.98719 78.7596 2.99498C78.8131 3.00333 78.9076 3.02657 79.0483 3.08981C79.3423 3.22185 79.7623 3.49375 80.3175 4.00095L83.0153 1.04769Z" fill="#27D4FF" fill-opacity="0.4" mask="url(#path-9-inside-1_1197_13995)"/>
<g filter="url(#filter0_bd_1197_13995)">
<rect x="116" y="203" width="42" height="24" rx="2" fill="#0A0F24" shape-rendering="crispEdges"/>
<rect x="116.5" y="203.5" width="41" height="23" rx="1.5" stroke="white" stroke-opacity="0.4" shape-rendering="crispEdges"/>
<path d="M128.721 209.588H129.969V220.424H128.721V209.588ZM125.049 211.688V212.72C125.049 213.176 125.113 213.628 125.241 214.076C125.377 214.516 125.569 214.932 125.817 215.324C126.065 215.708 126.361 216.056 126.705 216.368C127.049 216.68 127.433 216.928 127.857 217.112L127.173 218.084C126.541 217.804 125.989 217.388 125.517 216.836C125.053 216.284 124.693 215.656 124.437 214.952C124.197 215.704 123.841 216.384 123.369 216.992C122.905 217.6 122.353 218.056 121.713 218.36L121.005 217.376C121.429 217.184 121.809 216.92 122.145 216.584C122.489 216.248 122.785 215.872 123.033 215.456C123.281 215.032 123.469 214.584 123.597 214.112C123.733 213.64 123.801 213.176 123.801 212.72V211.688H121.389V210.668H127.461V211.688H125.049ZM139.832 209.588L141.068 209.576V215.996H139.832V214.52H137.264C137.008 214.816 136.688 215.048 136.304 215.216C135.928 215.384 135.512 215.464 135.056 215.456C134.656 215.456 134.284 215.392 133.94 215.264C133.596 215.128 133.296 214.944 133.04 214.712C132.792 214.48 132.596 214.204 132.452 213.884C132.308 213.556 132.236 213.2 132.236 212.816C132.236 212.432 132.308 212.08 132.452 211.76C132.596 211.432 132.792 211.152 133.04 210.92C133.296 210.68 133.596 210.496 133.94 210.368C134.284 210.24 134.656 210.176 135.056 210.176C135.512 210.176 135.928 210.26 136.304 210.428C136.688 210.596 137.008 210.824 137.264 211.112H139.832V209.588ZM135.056 214.4C135.536 214.4 135.928 214.256 136.232 213.968C136.544 213.68 136.7 213.296 136.7 212.816C136.7 212.576 136.656 212.36 136.568 212.168C136.488 211.968 136.372 211.8 136.22 211.664C136.076 211.52 135.904 211.412 135.704 211.34C135.504 211.26 135.288 211.22 135.056 211.22C134.824 211.22 134.608 211.26 134.408 211.34C134.208 211.412 134.032 211.52 133.88 211.664C133.736 211.8 133.62 211.968 133.532 212.168C133.452 212.36 133.412 212.576 133.412 212.816C133.412 213.296 133.564 213.68 133.868 213.968C134.18 214.256 134.576 214.4 135.056 214.4ZM137.78 213.512H139.832V212.12H137.792C137.816 212.232 137.836 212.344 137.852 212.456C137.868 212.568 137.876 212.688 137.876 212.816C137.876 212.984 137.844 213.216 137.78 213.512ZM133.76 217.532V216.536H141.068V220.436H139.832V217.532H133.76ZM148.616 214.412V215.276H143.6V210.392H148.616V211.256H150.872V209.588H152.108V215.972H150.872V214.412H148.616ZM147.416 214.292V211.376H144.812V214.292H147.416ZM150.872 212.264H148.616V213.404H150.872V212.264ZM148.496 216.272C149.064 216.272 149.572 216.32 150.02 216.416C150.476 216.504 150.86 216.64 151.172 216.824C151.492 217 151.736 217.216 151.904 217.472C152.072 217.728 152.156 218.02 152.156 218.348C152.156 218.676 152.072 218.968 151.904 219.224C151.736 219.48 151.492 219.696 151.172 219.872C150.86 220.056 150.476 220.192 150.02 220.28C149.572 220.376 149.064 220.424 148.496 220.424C147.936 220.424 147.428 220.376 146.972 220.28C146.524 220.192 146.14 220.056 145.82 219.872C145.508 219.696 145.268 219.48 145.1 219.224C144.932 218.968 144.848 218.676 144.848 218.348C144.848 218.02 144.932 217.728 145.1 217.472C145.268 217.216 145.508 217 145.82 216.824C146.14 216.64 146.524 216.504 146.972 216.416C147.428 216.32 147.936 216.272 148.496 216.272ZM148.496 219.464C149.272 219.464 149.868 219.368 150.284 219.176C150.708 218.984 150.92 218.708 150.92 218.348C150.92 217.988 150.708 217.716 150.284 217.532C149.868 217.34 149.272 217.244 148.496 217.244C147.72 217.244 147.124 217.34 146.708 217.532C146.292 217.716 146.084 217.988 146.084 218.348C146.084 218.708 146.292 218.984 146.708 219.176C147.124 219.368 147.72 219.464 148.496 219.464Z" fill="white"/>
</g>
</g>
<defs>
<filter id="filter0_bd_1197_13995" x="56" y="143" width="162" height="144" filterUnits="userSpaceOnUse" color-interpolation-filters="sRGB">
<feFlood flood-opacity="0" result="BackgroundImageFix"/>
<feGaussianBlur in="BackgroundImageFix" stdDeviation="30"/>
<feComposite in2="SourceAlpha" operator="in" result="effect1_backgroundBlur_1197_13995"/>
<feColorMatrix in="SourceAlpha" type="matrix" values="0 0 0 0 0 0 0 0 0 0 0 0 0 0 0 0 0 0 127 0" result="hardAlpha"/>
<feOffset dy="4"/>
<feGaussianBlur stdDeviation="6"/>
<feComposite in2="hardAlpha" operator="out"/>
<feColorMatrix type="matrix" values="0 0 0 0 0.0156863 0 0 0 0 0.0352941 0 0 0 0 0.101961 0 0 0 0.2 0"/>
<feBlend mode="normal" in2="effect1_backgroundBlur_1197_13995" result="effect2_dropShadow_1197_13995"/>
<feBlend mode="normal" in="SourceGraphic" in2="effect2_dropShadow_1197_13995" result="shape"/>
</filter>
<clipPath id="clip0_1197_13995">
<rect width="187.965" height="277.294" fill="white"/>
</clipPath>
</defs>
</svg>
