<svg width="20" height="20" viewBox="0 0 20 20" fill="none" xmlns="http://www.w3.org/2000/svg">
<mask id="mask0_385_8226" style="mask-type:luminance" maskUnits="userSpaceOnUse" x="0" y="0" width="20" height="20">
<path d="M20 0H0V20H20V0Z" fill="white"/>
</mask>
<g mask="url(#mask0_385_8226)">
<path d="M17.0742 9.677V4.236C17.0742 3.90837 16.9441 3.59414 16.7126 3.36237C16.481 3.1306 16.1669 3.00027 15.8392 3H9.94122L11.6562 10.714L17.0742 9.677Z" fill="white"/>
<path d="M3.07422 13.5418V15.7638C3.07422 16.0914 3.2043 16.4056 3.43588 16.6374C3.66746 16.8692 3.98158 16.9995 4.30922 16.9998H7.28322L6.29222 12.9258L3.07422 13.5418Z" fill="white"/>
<path d="M7.4375 12.7063L8.4815 16.9993H15.8375C15.9998 16.9993 16.1604 16.9673 16.3103 16.9052C16.4602 16.843 16.5964 16.752 16.7111 16.6372C16.8258 16.5224 16.9168 16.3862 16.9788 16.2362C17.0408 16.0862 17.0726 15.9255 17.0725 15.7633V10.8633L7.4375 12.7063Z" fill="white"/>
<path d="M8.74522 3H4.30922C3.98168 3 3.66755 3.13012 3.43594 3.36172C3.20433 3.59333 3.07422 3.90746 3.07422 4.235V12.355L10.5092 10.933L8.74522 3Z" fill="white"/>
</g>
</svg>
