<svg xmlns="http://www.w3.org/2000/svg" xmlns:xlink="http://www.w3.org/1999/xlink" width="20" height="20" viewBox="0 0 20 20">
  <defs>
    <clipPath id="clip-path">
      <rect id="사각형_39436" data-name="사각형 39436" width="20" height="20" fill="#27d4ff"/>
    </clipPath>
  </defs>
  <g id="그룹_173638" data-name="그룹 173638" transform="translate(-1824 -585)">
    <g id="그룹_173610" data-name="그룹 173610" transform="translate(1824 585)">
      <g id="그룹_173609" data-name="그룹 173609" clip-path="url(#clip-path)">
        <path id="패스_91005" data-name="패스 91005" d="M17.334,9.873h0L11.713,4.457a1.676,1.676,0,0,0-2.3,0L3.792,9.873a1.046,1.046,0,0,0-.353,1.18,1.081,1.081,0,0,0,1.115.616h.772v4.863a.653.653,0,0,0,.653.653H9.256V12.813h2.613v4.372h3.269a.654.654,0,0,0,.653-.652l.008-4.865h.772a1.083,1.083,0,0,0,1.116-.616,1.046,1.046,0,0,0-.353-1.18" transform="translate(-0.563 -0.667)" fill="#27d4ff"/>
      </g>
    </g>
  </g>
</svg>
