<svg id="그룹_173608" data-name="그룹 173608" xmlns="http://www.w3.org/2000/svg" xmlns:xlink="http://www.w3.org/1999/xlink" width="20" height="20" viewBox="0 0 20 20">
  <defs>
    <clipPath id="clip-path">
      <rect id="사각형_39432" data-name="사각형 39432" width="20" height="20" fill="#27d4ff"/>
    </clipPath>
  </defs>
  <g id="그룹_173588" data-name="그룹 173588" clip-path="url(#clip-path)">
    <path id="패스_90992" data-name="패스 90992" d="M10.5,3A7.5,7.5,0,1,0,18,10.5,7.5,7.5,0,0,0,10.5,3m4.89,9.4a.378.378,0,0,1-.337.053l-3.736-1.137v1.76a.223.223,0,0,0,.055.118l.665.559a.69.69,0,0,1,.226.485v.425a.379.379,0,0,1-.144.305.383.383,0,0,1-.333.066L10.5,14.717l-1.288.319a.412.412,0,0,1-.1.013.375.375,0,0,1-.23-.078.381.381,0,0,1-.145-.307V14.24a.691.691,0,0,1,.225-.485l.665-.559a.229.229,0,0,0,.055-.118v-1.76L5.946,12.455a.367.367,0,0,1-.485-.36V11.4a.587.587,0,0,1,.283-.483L9.4,9.012a.151.151,0,0,0,.037-.067l.537-3.2a.239.239,0,0,1,.237-.2h.574a.239.239,0,0,1,.237.2l.535,3.164a.153.153,0,0,0,.044.1l3.646,1.9,0,0a.579.579,0,0,1,.286.483v.691a.374.374,0,0,1-.149.307" transform="translate(-0.5 -0.5)" fill="#27d4ff"/>
  </g>
</svg>
