<svg width="48" height="54" viewBox="0 0 48 54" fill="none" xmlns="http://www.w3.org/2000/svg">
<g id="depart_48">
<path id="Vector" d="M24 46C23.6526 46 23.3259 45.8653 23.0802 45.6208L12.5323 35.0188C9.5478 31.9673 7.93777 27.9385 8.00184 23.6781C8.13157 15.0332 15.3094 8 24.0024 8C24.0526 8 24.104 8.00025 24.1543 8.00075C28.3956 8.04068 32.3767 9.71443 35.3642 12.7138C38.3536 15.715 40 19.6952 40 23.9211C40 28.089 38.3893 32.0314 35.4647 35.022L24.9178 45.6226C24.674 45.8653 24.3474 45.9999 24 46Z" fill="#009961"/>
<g id="state">
<g id="map marker selected">
<g id="Vector_2">
<path d="M24 46C23.6526 46 23.3259 45.8653 23.0802 45.6208L12.5323 35.0188C9.5478 31.9673 7.93777 27.9385 8.00184 23.6781C8.13157 15.0332 15.3094 8 24.0024 8C24.0526 8 24.104 8.00025 24.1543 8.00075C28.3956 8.04068 32.3767 9.71443 35.3642 12.7138C38.3536 15.715 40 19.6952 40 23.9211C40 28.089 38.3893 32.0314 35.4647 35.022L24.9178 45.6226C24.674 45.8653 24.3474 45.9999 24 46Z" fill="#636771"/>
<path d="M8.50178 23.6856L8.50178 23.6856C8.43974 27.8118 9.9977 31.7114 12.8883 34.6678C12.8888 34.6683 12.8893 34.6687 12.8897 34.6692L23.433 45.2664C23.4332 45.2666 23.4334 45.2669 23.4337 45.2671C23.5853 45.4177 23.7847 45.5 23.9999 45.5L8.50178 23.6856ZM8.50178 23.6856C8.62737 15.3163 15.5801 8.5 24.0024 8.5C24.051 8.5 24.1007 8.50024 24.1493 8.50073L24.1496 8.50073M8.50178 23.6856L24.1496 8.50073M24.1496 8.50073C28.2598 8.53943 32.1153 10.1605 35.0099 13.0666M24.1496 8.50073L35.0099 13.0666M35.0099 13.0666C37.9063 15.9744 39.5 19.8278 39.5 23.9211M35.0099 13.0666L39.5 23.9211M39.5 23.9211C39.5 27.9571 37.9414 31.7735 35.1087 34.6708M39.5 23.9211L35.1087 34.6708M35.1087 34.6708C35.1082 34.6714 35.1077 34.6719 35.1072 34.6724M35.1087 34.6708L35.1072 34.6724M35.1072 34.6724L24.5651 45.2682C24.5649 45.2684 24.5647 45.2686 24.5645 45.2688C24.415 45.4173 24.2158 45.4999 24 45.5L35.1072 34.6724Z" stroke="black" stroke-opacity="0.3"/>
</g>
</g>
</g>
<path id="&#237;&#140;&#168;&#236;&#138;&#164; 88625" d="M14.2448 21.444C15.1318 21.425 16.0087 21.2525 16.8368 20.934C17.0905 20.8519 17.3225 20.7138 17.5156 20.53C17.7088 20.3462 17.8582 20.1213 17.9528 19.872H14.7608V18.948H18.0608V18H19.2968V18.948H22.6088V19.872H19.4088C19.503 20.1209 19.6517 20.3455 19.8442 20.5293C20.0366 20.7131 20.2678 20.8514 20.5208 20.934C21.3449 21.2518 22.2178 21.4243 23.1008 21.444L22.7648 22.368C21.9074 22.3261 21.0607 22.1604 20.2508 21.876C19.6337 21.6737 19.0876 21.2989 18.6768 20.796C18.2671 21.2983 17.7224 21.673 17.1068 21.876C16.3019 22.1611 15.4597 22.3269 14.6068 22.368L14.2448 21.444ZM19.2968 23.688V24.528H22.3568V27.048H16.1888V27.86H22.6688V28.788H14.9688V26.196H21.1488V25.44H14.9488V24.528H18.0688V23.688H13.8008V22.76H23.5768V23.684L19.2968 23.688ZM34.8128 20.268V21.288H33.2888V23.604H32.0528V18.048H33.2888V20.268H34.8128ZM30.3128 23.244H25.2008V18.504H26.4368V19.932H29.0888V18.504H30.3128V23.244ZM29.0888 20.88H26.4368V22.26H29.0888V20.88ZM27.5288 27.816H33.6488V28.788H26.3168V25.944H32.0648V25.044H26.2928V24.084H33.2928V26.86H27.5328L27.5288 27.816Z" fill="white"/>
</g>
</svg>
