<svg width="29" height="52" viewBox="0 0 29 52" fill="none" xmlns="http://www.w3.org/2000/svg">
<g clip-path="url(#clip0_102_2621)">
<path d="M14.2962 45.1436C16.0914 45.1441 17.8853 45.0432 19.6693 44.8428V44.837C21.0603 44.685 22.1048 43.499 22.1048 41.628C22.6888 35.521 22.3838 22.4349 22.1048 9.58893C22.0132 8.82976 21.6735 8.12207 21.138 7.57623C20.6025 7.03039 19.9011 6.67744 19.1439 6.57135C15.9377 6.05417 12.6693 6.05732 9.46418 6.58111C8.70378 6.68417 7.99869 7.03632 7.46027 7.58307C6.92185 8.12981 6.58094 8.84071 6.48957 9.6026C6.24157 22.4426 5.96657 35.5199 6.48957 41.6309C6.48957 43.4979 7.53207 44.6839 8.92707 44.8419C10.7097 45.0423 12.5023 45.1422 14.2962 45.1417M14.2962 51.3331C12.2708 51.3319 10.2465 51.2186 8.23371 50.9932C6.034 50.7152 4.01299 49.6406 2.55207 47.9727C1.09115 46.3049 0.291895 44.1596 0.305975 41.9424C-0.208025 35.6184 0.0266312 23.454 0.278631 10.587L0.300116 9.48736C0.300116 5.21936 3.89966 1.20576 8.48566 0.470762C12.3421 -0.153049 16.273 -0.155562 20.1302 0.46295C22.3366 0.805825 24.3568 1.90288 25.845 3.56744C27.3333 5.232 28.1976 7.36102 28.2923 9.59186L28.3196 10.7462C28.5966 23.5462 28.8584 35.6466 28.2884 41.9786C28.2958 44.1921 27.4919 46.3313 26.0286 47.9922C24.5654 49.6532 22.5438 50.7206 20.347 50.9922C18.3378 51.2218 16.3184 51.3361 14.2962 51.335V51.3331Z" fill="#27D4FF" fill-opacity="0.4"/>
<g clip-path="url(#clip1_102_2621)">
<path d="M14.2043 45.0491C15.9982 45.0497 17.7908 44.9497 19.5735 44.7493C20.9685 44.5953 22.0129 43.4073 22.0129 41.5383C22.5969 35.4293 22.2859 22.3383 22.0129 9.49928C21.9216 8.73998 21.5817 8.03248 21.0461 7.48658C20.5106 6.94068 19.8094 6.58747 19.052 6.4817C15.8472 5.9635 12.5799 5.96665 9.37622 6.49146C8.61485 6.59333 7.90785 6.94557 7.36841 7.49244C6.82896 8.03931 6.4872 8.74928 6.39575 9.51197C6.14375 22.354 5.87075 35.4323 6.39575 41.5413C6.39575 43.4063 7.4403 44.5963 8.8313 44.7503C10.6153 44.9506 12.4091 45.0496 14.2043 45.0491ZM14.2043 48.1448C12.2949 48.1444 10.3872 48.0379 8.4895 47.8264C5.4365 47.4864 3.302 44.9003 3.302 41.5413C2.79 35.7093 3.03047 23.4939 3.28247 10.5569L3.302 9.4524C3.39833 7.96032 4.0059 6.54667 5.0227 5.45045C6.03951 4.35422 7.40339 3.64191 8.88403 3.43385C12.4147 2.86121 16.0144 2.85806 19.5461 3.42408C21.0319 3.63865 22.3977 4.36082 23.4114 5.46803C24.4251 6.57523 25.0237 7.99943 25.1067 9.4983L25.1321 10.721C25.4111 23.59 25.677 35.7442 25.093 41.8342C25.1354 43.2991 24.6278 44.7267 23.6692 45.8352C22.7106 46.9437 21.371 47.653 19.9153 47.8225C18.0192 48.0374 16.1125 48.1439 14.2043 48.1428V48.1448Z" fill="#27D4FF" fill-opacity="0.4"/>
</g>
</g>
<mask id="path-3-outside-1_102_2621" maskUnits="userSpaceOnUse" x="4" y="5" width="22" height="42" fill="black">
<rect fill="white" x="4" y="5" width="22" height="42"/>
<path fill-rule="evenodd" clip-rule="evenodd" d="M11.7321 44.8723C13.6273 44.9855 15.5276 44.986 17.4229 44.8738L17.4232 44.883C17.4266 44.9438 17.4534 45.0009 17.4981 45.0424C17.5428 45.0838 17.6018 45.1062 17.6628 45.1049V45.1029H17.6888L20.3188 44.8089C20.3499 44.8061 20.3802 44.7972 20.4079 44.7825C20.4355 44.7679 20.46 44.7478 20.4798 44.7236C20.4996 44.6994 20.5144 44.6715 20.5233 44.6414C20.5321 44.6114 20.5349 44.5799 20.5315 44.5488C20.5307 44.5424 20.5298 44.536 20.5285 44.5297C21.6263 44.1514 22.3973 43.0494 22.3973 41.4448C22.8243 37.0017 22.7772 28.8691 22.6129 19.8219L24.1738 19.9851V19.8621C24.1737 19.5975 24.0757 19.3422 23.8986 19.1456C23.7216 18.9489 23.4779 18.8248 23.2148 18.7971L22.5926 18.7316C22.5426 16.0998 22.484 13.401 22.4254 10.7019L22.4254 10.7015L22.4254 10.7011L22.4254 10.7008L22.4254 10.7005L22.4254 10.6985L22.3973 9.40579C22.3072 8.64644 21.9681 7.93834 21.4329 7.39214C20.8977 6.84593 20.1967 6.49241 19.4393 6.38679C16.2336 5.86873 12.9653 5.8711 9.76034 6.39379C8.99969 6.49714 8.2948 6.84987 7.75609 7.39672C7.21737 7.94358 6.87526 8.65368 6.78334 9.41579L6.75894 10.6715V10.6715L6.75894 10.6716C6.70627 13.3798 6.65361 16.088 6.6087 18.7287L5.959 18.7971C5.69582 18.8248 5.4522 18.9489 5.27512 19.1456C5.09804 19.3422 5.00003 19.5975 5 19.8621V19.9851L6.59056 19.8185C6.4434 28.8663 6.40136 36.9998 6.78334 41.4438C6.78334 43.0367 7.54381 44.1342 8.62898 44.5203C8.62649 44.5303 8.62466 44.5405 8.62351 44.5508C8.62005 44.5819 8.62284 44.6134 8.6317 44.6434C8.64057 44.6734 8.65535 44.7013 8.67516 44.7256C8.69497 44.7498 8.71942 44.7698 8.74708 44.7845C8.77473 44.7991 8.80504 44.8081 8.83621 44.8109L11.4662 45.1049H11.4922V45.1069C11.5531 45.1081 11.6121 45.0857 11.6568 45.0443C11.7015 45.0029 11.7284 44.9458 11.7318 44.8849C11.732 44.8807 11.7321 44.8765 11.7321 44.8723Z"/>
</mask>
<path d="M17.4229 44.8738L18.4222 44.8382L18.3857 43.8151L17.3638 43.8756L17.4229 44.8738ZM11.7321 44.8723L11.7917 43.874L10.7337 43.8108L10.7321 44.8708L11.7321 44.8723ZM17.4232 44.883L16.4238 44.9187L16.4242 44.9285L16.4247 44.9383L17.4232 44.883ZM17.6628 45.1049L17.6837 46.1047L18.6628 46.0842V45.1049H17.6628ZM17.6628 45.1029V44.1029H16.6628V45.1029H17.6628ZM17.6888 45.1029V46.1029H17.7445L17.7998 46.0967L17.6888 45.1029ZM20.3188 44.8089L20.23 43.8129L20.2188 43.8139L20.2077 43.8151L20.3188 44.8089ZM20.4798 44.7236L19.7057 44.0905L19.7057 44.0906L20.4798 44.7236ZM20.5233 44.6414L19.5643 44.358L19.5642 44.3581L20.5233 44.6414ZM20.5315 44.5488L19.5376 44.6595L19.5376 44.6595L20.5315 44.5488ZM20.5285 44.5297L20.2027 43.5843L19.38 43.8678L19.5471 44.7218L20.5285 44.5297ZM22.3973 41.4448L21.4019 41.3491L21.3973 41.3969V41.4448H22.3973ZM22.6129 19.8219L22.7169 18.8273L21.5925 18.7097L21.613 19.84L22.6129 19.8219ZM24.1738 19.9851L24.0697 20.9797L25.1738 21.0951V19.9851H24.1738ZM24.1738 19.8621H25.1738V19.862L24.1738 19.8621ZM23.2148 18.7971L23.1101 19.7916L23.1102 19.7916L23.2148 18.7971ZM22.5926 18.7316L21.5928 18.7506L21.6096 19.6337L22.488 19.7262L22.5926 18.7316ZM22.4254 10.7019L23.4252 10.6802L23.4251 10.676L22.4254 10.7019ZM22.4254 10.7015L21.4255 10.7165L21.4258 10.7274L22.4254 10.7015ZM22.4254 10.7011L23.4253 10.6861L23.4253 10.6833L22.4254 10.7011ZM22.4254 10.7008L23.4253 10.683L23.4252 10.68L22.4254 10.7008ZM22.4254 10.7005L23.4252 10.6797L23.4252 10.6779L22.4254 10.7005ZM22.4254 10.6985L21.4256 10.7202L21.4256 10.7211L22.4254 10.6985ZM22.3973 9.40579L23.3971 9.38411L23.3961 9.33585L23.3904 9.28792L22.3973 9.40579ZM21.4329 7.39214L22.1472 6.69228L22.1472 6.69228L21.4329 7.39214ZM19.4393 6.38679L19.2798 7.37398L19.2905 7.37571L19.3012 7.37721L19.4393 6.38679ZM9.76034 6.39379L9.89497 7.38469L9.90816 7.38289L9.9213 7.38075L9.76034 6.39379ZM6.78334 9.41579L5.79053 9.29604L5.7845 9.34603L5.78352 9.39637L6.78334 9.41579ZM6.75894 10.6715L5.75913 10.652L5.75894 10.6617V10.6715H6.75894ZM6.75894 10.6715L7.75874 10.6917L7.75894 10.6816V10.6715H6.75894ZM6.75894 10.6716L5.75914 10.6514L5.75913 10.6522L6.75894 10.6716ZM6.6087 18.7287L6.71334 19.7233L7.5935 19.6306L7.60855 18.7458L6.6087 18.7287ZM5.959 18.7971L6.06357 19.7916L6.06365 19.7916L5.959 18.7971ZM5 19.8621L4 19.862V19.8621H5ZM5 19.9851H4V21.0954L5.1042 20.9797L5 19.9851ZM6.59056 19.8185L7.59043 19.8347L7.60878 18.7063L6.48636 18.8239L6.59056 19.8185ZM6.78334 41.4438H7.78334V41.4009L7.77966 41.3582L6.78334 41.4438ZM8.62898 44.5203L9.59961 44.7608L9.8175 43.8817L8.96419 43.5781L8.62898 44.5203ZM8.62351 44.5508L7.62966 44.4401L7.62966 44.4401L8.62351 44.5508ZM8.6317 44.6434L9.59072 44.36L9.59071 44.36L8.6317 44.6434ZM8.67516 44.7256L9.44927 44.0925L9.44922 44.0925L8.67516 44.7256ZM8.74708 44.7845L9.21514 43.9008H9.21514L8.74708 44.7845ZM8.83621 44.8109L8.94731 43.8171L8.93614 43.8158L8.92495 43.8148L8.83621 44.8109ZM11.4662 45.1049L11.3551 46.0987L11.4105 46.1049H11.4662V45.1049ZM11.4922 45.1049H12.4922V44.1049H11.4922V45.1049ZM11.4922 45.1069H10.4922V46.0862L11.4713 46.1066L11.4922 45.1069ZM11.7318 44.8849L10.7333 44.8295L10.7333 44.8296L11.7318 44.8849ZM17.3638 43.8756C15.5081 43.9854 13.6474 43.9849 11.7917 43.874L11.6725 45.8705C13.6072 45.9861 15.5472 45.9866 17.482 45.8721L17.3638 43.8756ZM18.4226 44.8473L18.4222 44.8382L16.4235 44.9095L16.4238 44.9187L18.4226 44.8473ZM18.1778 44.3088C18.3233 44.4436 18.4107 44.6296 18.4217 44.8276L16.4247 44.9383C16.4425 45.258 16.5836 45.5583 16.8185 45.7759L18.1778 44.3088ZM17.6418 44.1051C17.8401 44.101 18.0323 44.174 18.1778 44.3088L16.8185 45.7759C17.0534 45.9935 17.3636 46.1114 17.6837 46.1047L17.6418 44.1051ZM16.6628 45.1029V45.1049H18.6628V45.1029H16.6628ZM17.6888 44.1029H17.6628V46.1029H17.6888V44.1029ZM20.2077 43.8151L17.5777 44.1091L17.7998 46.0967L20.4298 45.8027L20.2077 43.8151ZM19.9398 43.8988C20.0298 43.8512 20.1284 43.8219 20.23 43.8129L20.4075 45.805C20.5714 45.7904 20.7307 45.7432 20.8759 45.6662L19.9398 43.8988ZM19.7057 44.0906C19.7702 44.0117 19.8498 43.9465 19.9398 43.8988L20.8759 45.6662C21.0212 45.5892 21.1498 45.484 21.2539 45.3567L19.7057 44.0906ZM19.5642 44.3581C19.5931 44.2604 19.6412 44.1694 19.7057 44.0905L21.2539 45.3567C21.358 45.2294 21.4357 45.0825 21.4823 44.9248L19.5642 44.3581ZM19.5376 44.6595C19.5263 44.5583 19.5354 44.4557 19.5643 44.358L21.4823 44.9249C21.5289 44.7671 21.5435 44.6016 21.5253 44.4382L19.5376 44.6595ZM19.5471 44.7218C19.5432 44.7016 19.54 44.6809 19.5376 44.6595L21.5253 44.4382C21.5215 44.404 21.5163 44.3704 21.5099 44.3376L19.5471 44.7218ZM21.3973 41.4448C21.3973 42.7196 20.8125 43.3741 20.2027 43.5843L20.8543 45.4751C22.4401 44.9286 23.3973 43.3793 23.3973 41.4448H21.3973ZM21.613 19.84C21.7777 28.9064 21.8222 36.9751 21.4019 41.3491L23.3927 41.5404C23.8263 37.0283 23.7767 28.8318 23.6127 19.8037L21.613 19.84ZM24.2778 18.9905L22.7169 18.8273L22.5089 20.8164L24.0697 20.9797L24.2778 18.9905ZM23.1738 19.8621V19.9851H25.1738V19.8621H23.1738ZM23.1555 19.8147C23.1673 19.8278 23.1738 19.8447 23.1738 19.8622L25.1738 19.862C25.1737 19.3503 24.9842 18.8567 24.6418 18.4764L23.1555 19.8147ZM23.1102 19.7916C23.1276 19.7935 23.1438 19.8017 23.1555 19.8147L24.6418 18.4764C24.2993 18.0961 23.8282 17.8561 23.3193 17.8026L23.1102 19.7916ZM22.488 19.7262L23.1101 19.7916L23.3194 17.8026L22.6973 17.7371L22.488 19.7262ZM21.4257 10.7236C21.4843 13.4229 21.5428 16.1204 21.5928 18.7506L23.5924 18.7127C23.5424 16.0792 23.4838 13.379 23.4252 10.6802L21.4257 10.7236ZM21.4258 10.7274L21.4258 10.7279L23.4251 10.676L23.4251 10.6755L21.4258 10.7274ZM21.4255 10.7161L21.4255 10.7165L23.4253 10.6865L23.4253 10.6861L21.4255 10.7161ZM21.4256 10.7186L21.4256 10.7189L23.4253 10.6833L23.4253 10.683L21.4256 10.7186ZM21.4256 10.7213L21.4256 10.7216L23.4252 10.68L23.4252 10.6797L21.4256 10.7213ZM21.4256 10.7211L21.4257 10.7231L23.4252 10.6779L23.4251 10.6759L21.4256 10.7211ZM21.3976 9.42747L21.4256 10.7202L23.4251 10.6768L23.3971 9.38411L21.3976 9.42747ZM20.7186 8.09199C21.0991 8.48033 21.3402 8.98378 21.4043 9.52366L23.3904 9.28792C23.2742 8.3091 22.837 7.39635 22.1472 6.69228L20.7186 8.09199ZM19.3012 7.37721C19.8397 7.4523 20.3381 7.70365 20.7186 8.09199L22.1472 6.69228C21.4573 5.98822 20.5537 5.53251 19.5775 5.39637L19.3012 7.37721ZM9.9213 7.38075C13.0201 6.87536 16.1802 6.87308 19.2798 7.37398L19.5989 5.3996C16.287 4.86439 12.9105 4.86683 9.59937 5.40683L9.9213 7.38075ZM8.46848 8.09851C8.8519 7.70929 9.35359 7.45824 9.89497 7.38469L9.6257 5.4029C8.64579 5.53604 7.73771 5.99044 7.0437 6.69494L8.46848 8.09851ZM7.77614 9.53554C7.84157 8.99312 8.08506 8.48772 8.46848 8.09851L7.0437 6.69494C6.34969 7.39944 5.90896 8.31423 5.79053 9.29604L7.77614 9.53554ZM7.75875 10.6909L7.78315 9.43521L5.78352 9.39637L5.75913 10.652L7.75875 10.6909ZM7.75894 10.6715V10.6715H5.75894V10.6715H7.75894ZM7.75873 10.6919L7.75874 10.6917L5.75915 10.6512L5.75914 10.6514L7.75873 10.6919ZM7.60855 18.7458C7.65344 16.1064 7.70608 13.3994 7.75875 10.6911L5.75913 10.6522C5.70647 13.3601 5.65378 16.0695 5.60884 18.7117L7.60855 18.7458ZM6.06365 19.7916L6.71334 19.7233L6.50405 17.7342L5.85435 17.8026L6.06365 19.7916ZM6.01824 19.8147C6.02997 19.8017 6.04612 19.7935 6.06357 19.7916L5.85443 17.8026C5.34551 17.8561 4.87442 18.0961 4.532 18.4764L6.01824 19.8147ZM6 19.8622C6 19.8447 6.0065 19.8278 6.01824 19.8147L4.532 18.4764C4.18957 18.8567 4.00006 19.3503 4 19.862L6 19.8622ZM6 19.9851V19.8621H4V19.9851H6ZM6.48636 18.8239L4.8958 18.9906L5.1042 20.9797L6.69476 20.813L6.48636 18.8239ZM7.77966 41.3582C7.40301 36.9761 7.44299 28.8997 7.59043 19.8347L5.59069 19.8022C5.44381 28.8329 5.39972 37.0236 5.78701 41.5294L7.77966 41.3582ZM8.96419 43.5781C8.36071 43.3634 7.78334 42.7092 7.78334 41.4438H5.78334C5.78334 43.3642 6.72692 44.9049 8.29377 45.4624L8.96419 43.5781ZM9.61737 44.6615C9.6136 44.6953 9.60763 44.7285 9.59961 44.7608L7.65835 44.2797C7.64536 44.3321 7.63572 44.3857 7.62966 44.4401L9.61737 44.6615ZM9.59071 44.36C9.61958 44.4577 9.62865 44.5602 9.61737 44.6614L7.62966 44.4401C7.61145 44.6036 7.62609 44.7691 7.6727 44.9268L9.59071 44.36ZM9.44922 44.0925C9.5138 44.1714 9.56187 44.2624 9.59072 44.36L7.67269 44.9267C7.71927 45.0844 7.79689 45.2313 7.9011 45.3587L9.44922 44.0925ZM9.21514 43.9008C9.30514 43.9484 9.38475 44.0136 9.44927 44.0925L7.90105 45.3586C8.00519 45.486 8.1337 45.5912 8.27902 45.6682L9.21514 43.9008ZM8.92495 43.8148C9.02635 43.8238 9.12502 43.853 9.21514 43.9008L8.27902 45.6682C8.42445 45.7452 8.58372 45.7923 8.74747 45.8069L8.92495 43.8148ZM11.5773 44.1111L8.94731 43.8171L8.72512 45.8047L11.3551 46.0987L11.5773 44.1111ZM11.4922 44.1049H11.4662V46.1049H11.4922V44.1049ZM12.4922 45.1069V45.1049H10.4922V45.1069H12.4922ZM10.9772 44.3108C11.1227 44.176 11.3148 44.1029 11.5131 44.1071L11.4713 46.1066C11.7914 46.1133 12.1016 45.9955 12.3365 45.7778L10.9772 44.3108ZM10.7333 44.8296C10.7443 44.6316 10.8317 44.4455 10.9772 44.3108L12.3365 45.7778C12.5713 45.5602 12.7125 45.2599 12.7302 44.9403L10.7333 44.8296ZM10.7321 44.8708C10.7321 44.8577 10.7325 44.844 10.7333 44.8295L12.7302 44.9403C12.7315 44.9174 12.7321 44.8952 12.7321 44.8737L10.7321 44.8708Z" fill="#27D4FF" mask="url(#path-3-outside-1_102_2621)"/>
<g clip-path="url(#clip2_102_2621)">
<mask id="mask0_102_2621" style="mask-type:luminance" maskUnits="userSpaceOnUse" x="5" y="6" width="20" height="40">
<path d="M24.17 6H5V45.105H24.17V6Z" fill="white"/>
</mask>
<g mask="url(#mask0_102_2621)">
<path d="M19.9613 44.6558C16.3923 45.0582 12.7894 45.0582 9.22034 44.6558C7.83034 44.4998 6.78334 43.3128 6.78334 41.4438C6.25834 35.3358 6.53434 22.2578 6.78334 9.41579C6.87526 8.65368 7.21737 7.94358 7.75609 7.39672C8.2948 6.84987 8.99969 6.49714 9.76034 6.39379C12.9653 5.8711 16.2336 5.86873 19.4393 6.38679C20.1967 6.49241 20.8977 6.84593 21.4329 7.39214C21.9681 7.93834 22.3072 8.64644 22.3973 9.40579C22.6753 22.2518 22.9843 35.3358 22.3973 41.4448C22.3973 43.3138 21.3513 44.5008 19.9613 44.6568" fill="#CBCBCA"/>
<path d="M14.5909 44.4875C12.8922 44.4864 11.195 44.3863 9.50791 44.1875C8.28191 44.0495 7.48891 42.9725 7.48891 41.4425L7.25391 38.4535V18.2415L7.72891 9.88545C7.81979 9.23617 8.12086 8.63454 8.58607 8.17259C9.05128 7.71063 9.65501 7.41378 10.3049 7.32745C11.7371 7.07121 13.189 6.94138 14.6439 6.93945C16.069 6.94016 17.4913 7.06732 18.8939 7.31945C19.5418 7.40635 20.1433 7.7033 20.6062 8.1648C21.0692 8.62629 21.368 9.22686 21.4569 9.87445L21.9269 18.2405V38.4545L21.6919 41.4435C21.6919 42.9734 20.8999 44.0505 19.6729 44.1885C17.9859 44.3873 16.2886 44.4874 14.5899 44.4885" fill="#F3F3F3"/>
<path d="M7.24609 18.2419V38.4549C12.0207 40.0227 17.1715 40.0227 21.9461 38.4549V18.2419C19.6475 17.1579 17.1375 16.5957 14.5961 16.5957C12.0547 16.5957 9.54471 17.1579 7.24609 18.2419Z" fill="#3A4458"/>
<path d="M19.7453 30.4267C19.7233 30.3267 19.6973 30.2267 19.6773 30.1267C19.635 29.8997 19.6491 29.6659 19.7183 29.4457C19.6061 28.491 19.5576 27.5298 19.5733 26.5687C19.5756 26.3684 19.6198 26.1708 19.7033 25.9887C19.507 25.7305 19.4047 25.413 19.4133 25.0887C19.4059 24.9482 19.4166 24.8074 19.4453 24.6697C20.0484 22.4451 20.8056 20.2652 21.7113 18.1457C19.4513 17.1339 17.0045 16.6062 14.5283 16.5967V39.6287C16.9187 39.6267 19.2954 39.267 21.5793 38.5617C20.701 37.2585 20.0033 35.8423 19.5053 34.3517C19.1756 33.0499 19.2592 31.6778 19.7443 30.4257" fill="#53607A"/>
<path d="M9.59616 24.175C9.54795 24.1752 9.50084 24.1606 9.46128 24.133C9.42172 24.1054 9.39165 24.0663 9.37516 24.021L7.27516 18.283C7.26285 18.2537 7.25662 18.2222 7.25684 18.1904C7.25707 18.1586 7.26374 18.1272 7.27646 18.098C7.28919 18.0689 7.30769 18.0426 7.33086 18.0208C7.35403 17.999 7.38137 17.9822 7.41124 17.9713C7.44112 17.9604 7.47289 17.9556 7.50464 17.9574C7.5364 17.9591 7.56747 17.9673 7.59597 17.9814C7.62448 17.9955 7.64983 18.0152 7.67049 18.0394C7.69115 18.0635 7.70669 18.0917 7.71616 18.122L9.81616 23.86C9.82901 23.8955 9.83312 23.9336 9.82815 23.971C9.82317 24.0084 9.80925 24.0441 9.78757 24.075C9.76589 24.1059 9.73709 24.1311 9.7036 24.1485C9.6701 24.1659 9.63291 24.175 9.59516 24.175" fill="#CBCBCA"/>
<path d="M7.58467 38.7586C7.52346 38.7588 7.46325 38.743 7.40998 38.7129C7.35672 38.6827 7.31224 38.6392 7.28094 38.5866C7.24964 38.534 7.2326 38.4741 7.2315 38.4129C7.2304 38.3517 7.24528 38.2913 7.27467 38.2376L9.86067 33.4586C9.90523 33.3765 9.98057 33.3155 10.0701 33.2889C10.1597 33.2624 10.2561 33.2725 10.3382 33.3171C10.4203 33.3616 10.4813 33.437 10.5078 33.5265C10.5344 33.6161 10.5242 33.7125 10.4797 33.7946L7.89467 38.5756C7.86443 38.6315 7.81967 38.6781 7.76511 38.7107C7.71055 38.7433 7.64821 38.7605 7.58467 38.7606" fill="#CBCBCA"/>
<path d="M10.1422 28.2817H7.24316V28.9867H10.1422V28.2817Z" fill="#CBCBCA"/>
<path d="M19.5854 24.1745C19.5578 24.1745 19.5304 24.1698 19.5044 24.1605C19.4462 24.1391 19.3989 24.0955 19.3726 24.0393C19.3464 23.9831 19.3435 23.9188 19.3644 23.8605L21.4584 18.1505C21.4691 18.1214 21.4853 18.0948 21.5063 18.0721C21.5272 18.0493 21.5524 18.0309 21.5804 18.0179C21.6085 18.0049 21.6388 17.9976 21.6697 17.9963C21.7006 17.995 21.7314 17.9998 21.7604 18.0105C21.7894 18.0211 21.8161 18.0374 21.8388 18.0583C21.8616 18.0792 21.88 18.1044 21.893 18.1325C21.906 18.1605 21.9133 18.1908 21.9146 18.2217C21.9159 18.2526 21.9111 18.2834 21.9004 18.3125L19.8074 24.0205C19.7909 24.0658 19.7609 24.1049 19.7213 24.1325C19.6817 24.16 19.6336 24.1747 19.5854 24.1745Z" fill="#CBCBCA"/>
<path d="M21.5817 38.7391C21.518 38.7392 21.4554 38.722 21.4007 38.6895C21.3459 38.6569 21.301 38.6101 21.2707 38.5541L18.6957 33.7951C18.6703 33.7542 18.6535 33.7085 18.6464 33.6609C18.6393 33.6133 18.6421 33.5647 18.6544 33.5182C18.6668 33.4716 18.6886 33.4281 18.7184 33.3903C18.7482 33.3525 18.7854 33.3212 18.8278 33.2983C18.8701 33.2754 18.9167 33.2614 18.9647 33.2572C19.0127 33.253 19.061 33.2586 19.1067 33.2738C19.1524 33.289 19.1945 33.3133 19.2304 33.3453C19.2664 33.3774 19.2954 33.4164 19.3157 33.4601L21.8917 38.2191C21.9208 38.2727 21.9355 38.3331 21.9343 38.3941C21.9331 38.4552 21.916 38.5149 21.8847 38.5673C21.8534 38.6198 21.8091 38.6632 21.7559 38.6933C21.7028 38.7234 21.6428 38.7392 21.5817 38.7391Z" fill="#CBCBCA"/>
<path d="M21.9381 28.2817H19.0391V28.9867H21.9381V28.2817Z" fill="#CBCBCA"/>
<path d="M14.5848 36.3399C12.6597 36.3353 10.7436 36.0795 8.88477 35.5789V22.3949C10.7013 21.6821 12.6334 21.3092 14.5848 21.2949C16.5361 21.3092 18.4682 21.6821 20.2848 22.3949V35.5779C18.4232 36.0785 16.5044 36.3346 14.5768 36.3399H14.5848Z" fill="#F9FAFB"/>
<path d="M7.243 19.7501L5 19.9851V19.8621C5.00003 19.5975 5.09804 19.3422 5.27512 19.1456C5.4522 18.9489 5.69582 18.8248 5.959 18.7971L7.242 18.6621L7.243 19.7501Z" fill="#CBCBCA"/>
<path d="M21.9268 19.7501L24.1738 19.9851V19.8621C24.1737 19.5975 24.0757 19.3422 23.8986 19.1456C23.7216 18.9489 23.4779 18.8248 23.2148 18.7971L21.9318 18.6621L21.9268 19.7501Z" fill="#CBCBCA"/>
<path d="M7.73633 9.59911L10.5653 8.24211C10.7449 8.15613 10.8965 8.02114 11.0027 7.85269C11.1089 7.68425 11.1652 7.48922 11.1653 7.29011C11.1654 7.2665 11.1601 7.24317 11.15 7.22182C11.1399 7.20048 11.1252 7.18165 11.1069 7.16671C11.0886 7.15178 11.0672 7.1411 11.0443 7.13546C11.0214 7.12982 10.9975 7.12936 10.9743 7.13411L9.50333 7.43411C9.0043 7.53583 8.55577 7.80694 8.23374 8.2015C7.91171 8.59606 7.73599 9.08982 7.73633 9.59911Z" fill="#637783"/>
<path d="M21.4348 9.59911L18.6088 8.24211C18.4292 8.15613 18.2776 8.02114 18.1714 7.85269C18.0653 7.68425 18.0089 7.48922 18.0088 7.29011C18.0088 7.2665 18.014 7.24317 18.0241 7.22182C18.0342 7.20048 18.0489 7.18165 18.0672 7.16671C18.0855 7.15178 18.1069 7.1411 18.1298 7.13546C18.1528 7.12982 18.1767 7.12936 18.1998 7.13411L19.6708 7.43411C20.1688 7.53657 20.6161 7.80773 20.9373 8.20181C21.2585 8.59588 21.4339 9.08872 21.4338 9.59711" fill="#637783"/>
<path d="M11.2067 7.95898L10.6067 17.15L10.1387 17.108L11.2067 7.95898Z" fill="#CBCBCA"/>
<path d="M17.9736 7.95898L19.0386 17.108L18.5706 17.15L17.9736 7.95898Z" fill="#CBCBCA"/>
<path d="M17.5492 7.95006C15.5848 7.70551 13.5977 7.70551 11.6332 7.95006L11.5732 7.48406C13.5762 7.23448 15.6023 7.23448 17.6052 7.48406L17.5492 7.95006Z" fill="#637783"/>
</g>
</g>
<defs>
<clipPath id="clip0_102_2621">
<rect width="28.629" height="51.335" fill="white"/>
</clipPath>
<clipPath id="clip1_102_2621">
<rect width="22.441" height="45.143" fill="white" transform="translate(3 3)"/>
</clipPath>
<clipPath id="clip2_102_2621">
<rect width="19.17" height="39.105" fill="white" transform="translate(5 6)"/>
</clipPath>
</defs>
</svg>
