<svg width="48" height="54" viewBox="0 0 48 54" fill="none" xmlns="http://www.w3.org/2000/svg">
<g id="arrive_48">
<path id="Vector" d="M24 46C23.6526 46 23.3259 45.8653 23.0802 45.6208L12.5323 35.0188C9.5478 31.9673 7.93777 27.9385 8.00184 23.6781C8.13157 15.0332 15.3094 8 24.0024 8C24.0526 8 24.104 8.00025 24.1543 8.00075C28.3956 8.04068 32.3767 9.71443 35.3642 12.7138C38.3536 15.715 40 19.6952 40 23.9211C40 28.089 38.3893 32.0314 35.4647 35.022L24.9178 45.6226C24.674 45.8653 24.3474 45.9999 24 46Z" fill="#E62222"/>
<g id="state">
<g id="map marker selected">
<g id="Vector_2">
<path d="M24 46C23.6526 46 23.3259 45.8653 23.0802 45.6208L12.5323 35.0188C9.5478 31.9673 7.93777 27.9385 8.00184 23.6781C8.13157 15.0332 15.3094 8 24.0024 8C24.0526 8 24.104 8.00025 24.1543 8.00075C28.3956 8.04068 32.3767 9.71443 35.3642 12.7138C38.3536 15.715 40 19.6952 40 23.9211C40 28.089 38.3893 32.0314 35.4647 35.022L24.9178 45.6226C24.674 45.8653 24.3474 45.9999 24 46Z" fill="#636771"/>
<path d="M8.50178 23.6856L8.50178 23.6856C8.43974 27.8118 9.9977 31.7114 12.8883 34.6678C12.8888 34.6683 12.8893 34.6687 12.8897 34.6692L23.433 45.2664C23.4332 45.2666 23.4334 45.2669 23.4337 45.2671C23.5853 45.4177 23.7847 45.5 23.9999 45.5L8.50178 23.6856ZM8.50178 23.6856C8.62737 15.3163 15.5801 8.5 24.0024 8.5C24.051 8.5 24.1007 8.50024 24.1493 8.50073L24.1496 8.50073M8.50178 23.6856L24.1496 8.50073M24.1496 8.50073C28.2598 8.53943 32.1153 10.1605 35.0099 13.0666M24.1496 8.50073L35.0099 13.0666M35.0099 13.0666C37.9063 15.9744 39.5 19.8278 39.5 23.9211M35.0099 13.0666L39.5 23.9211M39.5 23.9211C39.5 27.9571 37.9414 31.7735 35.1087 34.6708M39.5 23.9211L35.1087 34.6708M35.1087 34.6708C35.1082 34.6714 35.1077 34.6719 35.1072 34.6724M35.1087 34.6708L35.1072 34.6724M35.1072 34.6724L24.5651 45.2682C24.5649 45.2684 24.5647 45.2686 24.5645 45.2688C24.415 45.4173 24.2158 45.4999 24 45.5L35.1072 34.6724Z" stroke="black" stroke-opacity="0.3"/>
</g>
</g>
</g>
<path id="&#237;&#140;&#168;&#236;&#138;&#164; 88624" d="M23.4273 26.6093V27.6293H13.6113V26.6093H17.8833V24.0533H14.8113V18.9013H22.2273V19.9013H16.0473V23.0573H22.3233V24.0573H19.1193V26.6133L23.4273 26.6093ZM30.4593 24.3173C29.8794 24.164 29.3391 23.8878 28.8753 23.5073C28.4535 23.1587 28.1123 22.7226 27.8753 22.2293C27.6308 22.7617 27.2795 23.2382 26.8433 23.6293C26.3713 24.0431 25.8142 24.3483 25.2113 24.5233L24.6233 23.5513C25.0164 23.4341 25.3903 23.2602 25.7333 23.0353C26.0409 22.8341 26.316 22.5873 26.5493 22.3033C26.7644 22.0373 26.9334 21.7372 27.0493 21.4153C27.1645 21.1001 27.2234 20.767 27.2233 20.4313V20.3113H24.9433V19.3273H27.2233V18.0273H28.4793V19.3273H30.7473V20.3113H28.4673V20.4313C28.4676 20.745 28.5245 21.056 28.6353 21.3493C28.7511 21.6548 28.9204 21.9373 29.1353 22.1833C29.37 22.4519 29.6429 22.6844 29.9453 22.8733C30.2869 23.0871 30.6573 23.2508 31.0453 23.3593L30.4593 24.3173ZM34.6473 21.9013H33.1113V24.7093H31.8753V18.0773H33.1113V20.8853H34.6473V21.9013ZM25.9833 25.2293H33.1113V28.9493H31.8753V26.2253H25.9833V25.2293Z" fill="white"/>
</g>
</svg>
