<svg width="32" height="32" viewBox="0 0 32 32" fill="none" xmlns="http://www.w3.org/2000/svg">
<circle cx="16" cy="16" r="16" fill="white" fill-opacity="0.87"/>
<g clip-path="url(#clip0_181_1457)">
<path d="M14.6427 22.2953C16.5044 23.4891 18.6572 24.1506 20.8679 24.2079C23.0786 24.2652 25.2628 23.7162 27.1838 22.6205C25.9774 24.6607 24.2362 26.3321 22.1486 27.4539C20.0611 28.5758 17.7066 29.1053 15.3399 28.9853C12.9732 28.8652 10.6843 28.1002 8.72091 26.7729C6.75751 25.4456 5.19428 23.6066 4.20034 21.4548C3.2064 19.303 2.81958 16.9203 3.08172 14.5645C3.34385 12.2086 4.24497 9.96932 5.68759 8.08878C7.13022 6.20823 9.05943 4.75804 11.2666 3.89506C13.4737 3.03208 15.8747 2.78916 18.2099 3.19259C19.0319 3.36843 19.8103 3.7072 20.4992 4.18892C21.1882 4.67064 21.7736 5.28554 22.2211 5.99732C22.7661 6.90883 23.1673 7.89901 23.4105 8.93292L23.4154 8.95869C23.7445 10.4859 23.7316 12.067 23.3778 13.5886C22.8936 15.947 21.5744 18.0513 19.6629 19.5143L19.653 19.5253C20.1958 18.9616 20.601 18.2801 20.8369 17.5339C21.0729 16.7877 21.1332 15.9971 21.0133 15.2237C20.8933 14.4504 20.5962 13.7152 20.1453 13.0757C19.6943 12.4361 19.1017 11.9095 18.4137 11.5368C17.7256 11.1642 16.9608 10.9557 16.1789 10.9276C15.397 10.8995 14.6192 11.0526 13.9062 11.3748C13.1932 11.6971 12.5643 12.1798 12.0686 12.7854C11.573 13.3909 11.2239 14.1028 11.0488 14.8656C10.8654 15.6234 10.8464 16.4118 10.9933 17.1776C11.2317 18.2301 11.6771 19.2247 12.3034 20.1035C12.9298 20.9823 13.7246 21.7277 14.6417 22.2963" fill="#005FAE"/>
<path d="M13.5323 20.4606C14.3438 20.8885 15.2083 21.2072 16.1033 21.4084C17.6201 21.7552 19.1943 21.7664 20.7158 21.441C22.2373 21.1156 23.6694 20.4616 24.9117 19.5247L24.9266 19.5098C26.7639 18.203 28.1494 16.357 28.8912 14.2275C29.1469 15.9234 29.036 17.6543 28.5661 19.3036C27.3072 20.8052 25.655 21.9263 23.7947 22.5413C21.9344 23.1563 19.9397 23.2409 18.0341 22.7855C16.3622 22.3981 14.8134 21.5993 13.5283 20.4616" fill="#00979B"/>
<path d="M16.7208 21.0264C19.1376 21.1591 21.5272 20.4618 23.4936 19.0499C25.4599 17.6381 26.8849 15.5965 27.5323 13.2636C27.7291 12.4444 27.8496 11.6086 27.8921 10.7672C27.0276 8.81664 25.7041 7.10432 24.0345 5.77637C24.7383 7.16236 25.1307 8.68552 25.1842 10.2392C25.2376 11.7928 24.9508 13.3393 24.3438 14.7704C23.7369 16.2015 22.8244 17.4826 21.6705 18.5238C20.5165 19.5651 19.1488 20.3414 17.6634 20.7984C17.3529 20.8941 17.0364 20.9687 16.7158 21.0214L16.7208 21.0264Z" fill="#00979B"/>
</g>
<defs>
<clipPath id="clip0_181_1457">
<rect width="26" height="26" fill="white" transform="translate(3 3)"/>
</clipPath>
</defs>
</svg>
