<svg width="20" height="20" viewBox="0 0 20 20" fill="none" xmlns="http://www.w3.org/2000/svg">
<mask id="mask0_269_8999" style="mask-type:luminance" maskUnits="userSpaceOnUse" x="0" y="0" width="20" height="20">
<path d="M20 0H0V20H20V0Z" fill="white"/>
</mask>
<g mask="url(#mask0_269_8999)">
<path d="M10.0986 10.0225C6.24363 10.0225 3.05663 12.4035 3.01562 15.4035V16.2865C3.04075 16.4946 3.14648 16.6844 3.3101 16.8153C3.47372 16.9462 3.68216 17.0077 3.89062 16.9865H16.1556C16.3641 17.0077 16.5725 16.9462 16.7362 16.8153C16.8998 16.6844 17.0055 16.4946 17.0306 16.2865V15.4005C16.9916 12.4655 13.8766 10.0525 10.0956 10.0195" fill="white" fill-opacity="0.87"/>
<path d="M9.99909 9.00028H10.0051C10.8021 8.99948 11.5661 8.68223 12.1292 8.11825C12.6924 7.55428 13.0085 6.78976 13.0081 5.99278C13.0077 5.1958 12.6908 4.4316 12.1271 3.86819C11.5634 3.30478 10.7991 2.98828 10.0021 2.98828C9.20511 2.98828 8.44075 3.30478 7.87706 3.86819C7.31337 4.4316 6.99649 5.1958 6.99609 5.99278C6.9957 6.78976 7.31181 7.55428 7.87494 8.11825C8.43807 8.68223 9.20211 8.99948 9.99909 9.00028Z" fill="white" fill-opacity="0.87"/>
</g>
</svg>
