<svg width="20" height="20" viewBox="0 0 20 20" fill="none" xmlns="http://www.w3.org/2000/svg">
<g id="member_fff_20" opacity="0.6">
<g id="Vector">
<path d="M10.091 10.0225C6.24017 10.0225 3.05658 12.4035 3.01562 15.4035V16.2865C3.04072 16.4946 3.14634 16.6844 3.30978 16.8153C3.47323 16.9462 3.68145 17.0077 3.88969 16.9865H16.1416C16.3498 17.0077 16.558 16.9462 16.7215 16.8153C16.8849 16.6844 16.9905 16.4946 17.0156 16.2865V15.4005C16.9767 12.4655 13.865 10.0525 10.088 10.0195" fill="black"/>
<path d="M9.99162 9.00028H9.99761C10.7937 8.99948 11.557 8.68223 12.1195 8.11825C12.682 7.55428 12.9978 6.78976 12.9974 5.99278C12.997 5.1958 12.6805 4.4316 12.1174 3.86819C11.5543 3.30478 10.7907 2.98828 9.99462 2.98828C9.19849 2.98828 8.43495 3.30478 7.87186 3.86819C7.30877 4.4316 6.99223 5.1958 6.99183 5.99278C6.99144 6.78976 7.30721 7.55428 7.86974 8.11825C8.43227 8.68223 9.19549 8.99948 9.99162 9.00028Z" fill="black"/>
</g>
</g>
</svg>
