<svg width="24" height="24" viewBox="0 0 24 24" fill="none" xmlns="http://www.w3.org/2000/svg">
<mask id="mask0_455_9789" style="mask-type:luminance" maskUnits="userSpaceOnUse" x="0" y="0" width="24" height="24">
<path d="M24 0H0V24H24V0Z" fill="white"/>
</mask>
<g mask="url(#mask0_455_9789)">
<path d="M11.0726 8.45829L9.69329 5.52739C9.62167 5.36683 9.50316 5.23094 9.35287 5.13707C9.20258 5.04319 9.02734 4.99559 8.84949 5.00032C8.67165 5.00506 8.49926 5.06192 8.35434 5.16366C8.20941 5.26539 8.09851 5.40739 8.03579 5.57153L6.86328 8.50663C7.51874 8.83068 8.24334 8.99538 8.97655 8.98697C9.70976 8.97856 10.4303 8.79729 11.0779 8.45829" fill="#27D4FF"/>
<path fill-rule="evenodd" clip-rule="evenodd" d="M6.41463 9.60453L3.06261 17.9313C3.00497 18.0685 2.98218 18.2175 2.99621 18.3654C3.01025 18.5132 3.06068 18.6555 3.14314 18.7797C3.2256 18.904 3.33758 19.0066 3.46937 19.0785C3.60116 19.1504 3.74876 19.1895 3.89936 19.1924H14.6875C14.8425 19.1894 14.9942 19.1482 15.1288 19.0724C15.2635 18.9966 15.3766 18.8887 15.458 18.7586C15.5394 18.6285 15.5863 18.4804 15.5945 18.3278C15.6027 18.1751 15.572 18.0219 15.505 17.884L11.5789 9.53125C10.7779 9.9386 9.89131 10.1563 8.98949 10.1666C8.09835 10.1769 7.21728 9.98432 6.41463 9.60453Z" fill="#27D4FF"/>
<path fill-rule="evenodd" clip-rule="evenodd" d="M16.5807 19.1955H20.092C20.2434 19.1958 20.3924 19.1585 20.5252 19.0869C20.658 19.0154 20.7704 18.912 20.8519 18.7862C20.9334 18.6605 20.9815 18.5165 20.9915 18.3676C21.0016 18.2188 20.9734 18.0698 20.9096 17.9345L20.9107 17.9408L17.8195 11.3202C17.7455 11.1624 17.6262 11.0295 17.4764 10.9379C17.3265 10.8463 17.1526 10.8001 16.9764 10.805C16.8001 10.81 16.6292 10.8658 16.4848 10.9656C16.3404 11.0654 16.2289 11.2048 16.1641 11.3665L15.0586 14.126L16.5894 17.3826C16.7408 17.698 16.8095 18.0456 16.7909 18.3919C16.7758 18.6716 16.7041 18.9448 16.5807 19.1955Z" fill="#27D4FF"/>
</g>
</svg>
