<svg width="24" height="24" viewBox="0 0 24 24" fill="none" xmlns="http://www.w3.org/2000/svg">
<path d="M23.9887 12.5203C23.8858 14.8915 23.0821 17.1789 21.6792 19.0932C20.2762 21.0076 18.3372 22.463 16.1071 23.2753C13.877 24.0876 11.4562 24.2204 9.15067 23.6568C6.84515 23.0933 4.75853 21.8587 3.15466 20.1092C1.55079 18.3598 0.501719 16.174 0.140108 13.8283C-0.221503 11.4826 0.120589 9.0824 1.12312 6.93114C2.12566 4.77988 3.7436 2.97422 5.77236 1.7425C7.80112 0.510777 10.1496 -0.0916822 12.5207 0.0113063C15.7003 0.149405 18.6947 1.54488 20.8454 3.89076C22.996 6.23664 24.1267 9.34077 23.9887 12.5203Z" fill="#FFE043"/>
<path d="M10.5083 17.029C10.5033 16.8462 10.539 16.6646 10.6126 16.4972C10.6863 16.3298 10.7961 16.1808 10.9343 16.061C11.2352 15.8161 11.6113 15.6823 11.9993 15.6823C12.3873 15.6823 12.7634 15.8161 13.0643 16.061C13.1986 16.1842 13.3058 16.3339 13.3791 16.5007C13.4525 16.6676 13.4903 16.8478 13.4903 17.03C13.4903 17.2122 13.4525 17.3925 13.3791 17.5593C13.3058 17.7261 13.1986 17.8758 13.0643 17.999C12.7636 18.2445 12.3874 18.3785 11.9993 18.3785C11.6112 18.3785 11.2349 18.2445 10.9343 17.999C10.796 17.8791 10.6861 17.7299 10.6124 17.5624C10.5387 17.3948 10.5032 17.212 10.5083 17.029ZM13.1083 13.559H10.9303L10.5873 5.625H13.4503L13.1083 13.559Z" fill="black" stroke="black" stroke-width="0.3"/>
</svg>
