<svg width="20" height="20" viewBox="0 0 20 20" fill="none" xmlns="http://www.w3.org/2000/svg">
<mask id="mask0_331_9182" style="mask-type:luminance" maskUnits="userSpaceOnUse" x="0" y="0" width="20" height="20">
<path d="M20 0H0V20H20V0Z" fill="white"/>
</mask>
<g mask="url(#mask0_331_9182)">
<path d="M16.9996 10.9987C16.7344 10.9987 16.48 11.1041 16.2925 11.2916C16.105 11.4791 15.9996 11.7335 15.9996 11.9987V12.9987H14.1896C14.0704 12.7184 13.875 12.4772 13.6256 12.3024C13.3762 12.1276 13.0827 12.0262 12.7786 12.0097L12.1996 10.9987L14.1756 9.85872C14.2566 9.81297 14.3278 9.75172 14.385 9.67845C14.4423 9.60519 14.4846 9.52136 14.5095 9.43174C14.5344 9.34213 14.5414 9.24849 14.5301 9.15617C14.5188 9.06386 14.4894 8.97467 14.4436 8.89372L14.0786 8.26172L8.3936 11.5437C8.19539 11.6589 7.97247 11.7249 7.7435 11.7362C7.51454 11.7475 7.2862 11.7038 7.0776 11.6087L4.0866 10.2377C3.9226 10.1627 3.7536 10.3787 3.8396 10.5267L5.7836 13.8987C5.83067 13.9789 5.89309 14.049 5.9673 14.105C6.0415 14.1611 6.12603 14.2019 6.21603 14.2252C6.30604 14.2485 6.39977 14.2539 6.49184 14.2409C6.58391 14.228 6.67252 14.197 6.7526 14.1497L10.4646 11.9987L11.1016 13.0987C10.973 13.4547 10.9696 13.844 11.0922 14.2022C11.2147 14.5604 11.4558 14.866 11.7756 15.0686C12.0953 15.2712 12.4747 15.3587 12.8509 15.3165C13.2271 15.2744 13.5776 15.1051 13.8446 14.8367C13.8977 14.7811 13.9465 14.7216 13.9906 14.6587H15.9996V15.9987C15.9996 16.2639 16.105 16.5183 16.2925 16.7058C16.48 16.8934 16.7344 16.9987 16.9996 16.9987H17.9996V10.9987H16.9996Z" fill="white"/>
<path d="M2.49997 10.2098C2.2703 10.3424 2.10271 10.5608 2.03407 10.817C1.96544 11.0732 2.00137 11.3461 2.13397 11.5758L2.89997 12.9018C3.03258 13.1315 3.251 13.2991 3.50717 13.3677C3.76335 13.4363 4.03629 13.4004 4.26597 13.2678L4.61597 13.0678L2.84897 10.0078L2.49997 10.2098Z" fill="white"/>
<path d="M2.94317 8.84736L3.91317 9.30336L7.41917 10.9514C7.52148 10.9996 7.63396 11.0224 7.74699 11.0177C7.86002 11.013 7.97022 10.981 8.06817 10.9244L13.6532 7.70036L14.2612 7.34936C14.3411 7.30346 14.4111 7.24224 14.4673 7.1692C14.5235 7.09616 14.5647 7.01274 14.5886 6.92373C14.6125 6.83473 14.6186 6.74188 14.6065 6.65052C14.5944 6.55916 14.5644 6.47109 14.5182 6.39136L12.7632 3.35136C12.7173 3.27145 12.656 3.20139 12.583 3.14519C12.51 3.089 12.4265 3.04778 12.3375 3.02391C12.2485 3.00003 12.1557 2.99396 12.0643 3.00605C11.973 3.01814 11.8849 3.04815 11.8052 3.09436L2.91717 8.22636C2.86179 8.25846 2.81625 8.30508 2.78546 8.3612C2.75468 8.41731 2.73982 8.48077 2.74249 8.54472C2.74517 8.60866 2.76528 8.67066 2.80065 8.72401C2.83602 8.77735 2.88531 8.82 2.94317 8.84736Z" fill="white"/>
</g>
</svg>
