<svg xmlns="http://www.w3.org/2000/svg" xmlns:xlink="http://www.w3.org/1999/xlink" width="90" height="44.003" viewBox="0 0 90 44.003">
  <defs>
    <clipPath id="clip-path">
      <rect id="사각형_37342" data-name="사각형 37342" width="12" height="12" fill="#e62222"/>
    </clipPath>
  </defs>
  <g id="그룹_170348" data-name="그룹 170348" transform="translate(-1032 -1537.998)">
    <g id="그룹_168025" data-name="그룹 168025" transform="translate(212 1024)">
      <g id="그룹_165311" data-name="그룹 165311" transform="translate(-3984 16201)">
        <g id="합치기_21" data-name="합치기 21" transform="translate(-6810 -8021)" fill="#e62222" stroke-miterlimit="10">
          <path d="M 11659.5 -7630.4990234375 C 11659.345703125 -7630.4990234375 11659.2021484375 -7630.56884765625 11659.10546875 -7630.69140625 L 11656.26171875 -7634.310546875 L 11656.111328125 -7634.50146484375 L 11655.8681640625 -7634.50146484375 L 11624 -7634.50146484375 C 11623.173828125 -7634.50146484375 11622.5009765625 -7635.173828125 11622.5009765625 -7636 L 11622.5009765625 -7656.00146484375 C 11622.5009765625 -7656.828125 11623.173828125 -7657.50048828125 11624 -7657.50048828125 L 11693.9990234375 -7657.50048828125 C 11694.826171875 -7657.50048828125 11695.5 -7656.828125 11695.5 -7656.00146484375 L 11695.5 -7636 C 11695.5 -7635.173828125 11694.826171875 -7634.50146484375 11693.9990234375 -7634.50146484375 L 11663.1318359375 -7634.50146484375 L 11662.888671875 -7634.50146484375 L 11662.7392578125 -7634.310546875 L 11659.892578125 -7630.69091796875 C 11659.796875 -7630.56884765625 11659.654296875 -7630.4990234375 11659.5 -7630.4990234375 Z" stroke="none"/>
          <path d="M 11659.5 -7630.9990234375 L 11659.5 -7631 L 11662.6455078125 -7635.00146484375 L 11693.9990234375 -7635.00146484375 C 11694.55078125 -7635.00146484375 11695 -7635.44921875 11695 -7636 L 11695 -7656.00146484375 C 11695 -7656.55224609375 11694.55078125 -7657.00048828125 11693.9990234375 -7657.00048828125 L 11624 -7657.00048828125 C 11623.44921875 -7657.00048828125 11623.0009765625 -7656.55224609375 11623.0009765625 -7656.00146484375 L 11623.0009765625 -7636 C 11623.0009765625 -7635.44921875 11623.44921875 -7635.00146484375 11624 -7635.00146484375 L 11656.3544921875 -7635.00146484375 L 11656.654296875 -7634.619140625 L 11659.498046875 -7630.9990234375 C 11659.498046875 -7630.9990234375 11659.4990234375 -7630.9990234375 11659.5 -7630.9990234375 M 11659.5 -7629.9990234375 C 11659.20703125 -7629.9990234375 11658.9140625 -7630.12646484375 11658.712890625 -7630.3818359375 L 11655.8681640625 -7634.00146484375 L 11624 -7634.00146484375 C 11622.896484375 -7634.00146484375 11622.0009765625 -7634.896484375 11622.0009765625 -7636 L 11622.0009765625 -7656.00146484375 C 11622.0009765625 -7657.10498046875 11622.896484375 -7658.00048828125 11624 -7658.00048828125 L 11693.9990234375 -7658.00048828125 C 11695.10546875 -7658.00048828125 11696 -7657.10498046875 11696 -7656.00146484375 L 11696 -7636 C 11696 -7634.896484375 11695.10546875 -7634.00146484375 11693.9990234375 -7634.00146484375 L 11663.1318359375 -7634.00146484375 L 11660.2861328125 -7630.3818359375 C 11660.0859375 -7630.12646484375 11659.79296875 -7629.9990234375 11659.5 -7629.9990234375 Z" stroke="none" fill="#27d4ff"/>
        </g>
      </g>
    </g>
    <g id="그룹_168029" data-name="그룹 168029" transform="translate(18444 16793)">
      <circle id="타원_3746" data-name="타원 3746" cx="8" cy="8" r="8" transform="translate(-17400 -15243)" fill="#fff"/>
      <g id="그룹_168027" data-name="그룹 168027" transform="translate(-17398 -15241)" clip-path="url(#clip-path)">
        <path id="패스_88127" data-name="패스 88127" d="M7.734,6h2.387a8,8,0,0,1,.863.04,4.326,4.326,0,0,1,.622.108,1.918,1.918,0,0,1,.439.168,2.254,2.254,0,0,1,.326.217,2.185,2.185,0,0,1,.646.863,2.745,2.745,0,0,1,.212,1.07,2.921,2.921,0,0,1-.054.557,2.818,2.818,0,0,1-.4,1,1.6,1.6,0,0,1-.316.36,3.019,3.019,0,0,1-.384.276,2.111,2.111,0,0,1-.444.2,3.166,3.166,0,0,1-.562.119,6.129,6.129,0,0,1-.74.039H9.519v2.481H7.734ZM9.519,9.374h.76c.085,0,.2-.005.33-.015a1.172,1.172,0,0,0,.385-.094A.766.766,0,0,0,11.31,9a.849.849,0,0,0,.133-.508A.785.785,0,0,0,11.3,8a.817.817,0,0,0-.331-.251,1.28,1.28,0,0,0-.4-.094q-.212-.015-.36-.015h-.69Z" transform="translate(-4.231 -3.496)" fill="#e62222"/>
      </g>
    </g>
    <g id="그룹_169550" data-name="그룹 169550" transform="translate(0 -0.002)">
      <path id="패스_88697" data-name="패스 88697" d="M80,8a2,2,0,0,1,2,2V30a2,2,0,0,1-2,2H49.133l-2.846,3.62A.993.993,0,0,1,45.5,36H45.5a1,1,0,0,1-.786-.383L41.868,32H10a2,2,0,0,1-2-2V10a2,2,0,0,1,2-2Zm0-8H10A10.011,10.011,0,0,0,0,10V30A10.011,10.011,0,0,0,10,40H37.98l.443.563A9,9,0,0,0,52.6,40.534L53.02,40H80A10.011,10.011,0,0,0,90,30V10A10.011,10.011,0,0,0,80,0" transform="translate(1032 1538)" fill="rgba(39,212,255,0.4)"/>
      <path id="패스_88698" data-name="패스 88698" d="M11659.5-7630a.993.993,0,0,0,.786-.383l2.846-3.62H11694a2,2,0,0,0,2-2v-20a2,2,0,0,0-2-2h-70a2,2,0,0,0-2,2v20a2,2,0,0,0,2,2h31.868l2.845,3.62a1,1,0,0,0,.787.383m0,4a4.975,4.975,0,0,1-3.93-1.908l-1.646-2.095H11624a6.006,6.006,0,0,1-6-6v-20a6.006,6.006,0,0,1,6-6h70a6.007,6.007,0,0,1,6,6v20a6.007,6.007,0,0,1-6,6h-28.924l-1.642,2.088A4.97,4.97,0,0,1,11659.5-7626Z" transform="translate(-10582 9204)" fill="rgba(39,212,255,0.4)"/>
    </g>
  </g>
</svg>
