<svg width="20" height="20" viewBox="0 0 20 20" fill="none" xmlns="http://www.w3.org/2000/svg">
<mask id="mask0_392_8584" style="mask-type:luminance" maskUnits="userSpaceOnUse" x="0" y="0" width="20" height="20">
<path d="M20 0H0V20H20V0Z" fill="white"/>
</mask>
<g mask="url(#mask0_392_8584)">
<path d="M15.5 8H4.50001C4.3674 8 4.24022 8.05268 4.14646 8.14645C4.05269 8.24021 4.00001 8.36739 4.00001 8.5V9.748C3.99821 10.8306 4.27282 11.8957 4.79781 12.8424C5.3228 13.7891 6.0808 14.5862 7.00001 15.158V12C7.00001 11.2044 7.31608 10.4413 7.87869 9.87868C8.4413 9.31607 9.20436 9 10 9C10.7957 9 11.5587 9.31607 12.1213 9.87868C12.6839 10.4413 13 11.2044 13 12V15.189C13.9116 14.6636 14.6688 13.9075 15.1954 12.9966C15.7221 12.0857 15.9996 11.0522 16 10V8.5C16 8.36739 15.9473 8.24021 15.8536 8.14645C15.7598 8.05268 15.6326 8 15.5 8Z" fill="#27D4FF"/>
<path d="M10 10C9.46957 10 8.96086 10.2107 8.58579 10.5858C8.21071 10.9609 8 11.4696 8 12V15.641C8.58134 15.859 9.19446 15.9802 9.815 16C10.5587 16.0203 11.2996 15.9019 12 15.651V12C12 11.4696 11.7893 10.9609 11.4142 10.5858C11.0391 10.2107 10.5304 10 10 10ZM10 13C9.80222 13 9.60888 12.9414 9.44443 12.8315C9.27998 12.7216 9.15181 12.5654 9.07612 12.3827C9.00043 12.2 8.98063 11.9989 9.01921 11.8049C9.0578 11.6109 9.15304 11.4327 9.29289 11.2929C9.43275 11.153 9.61093 11.0578 9.80491 11.0192C9.99889 10.9806 10.2 11.0004 10.3827 11.0761C10.5654 11.1518 10.7216 11.28 10.8315 11.4444C10.9414 11.6089 11 11.8022 11 12C11 12.2652 10.8946 12.5196 10.7071 12.7071C10.5196 12.8946 10.2652 13 10 13Z" fill="#27D4FF"/>
<path d="M17.8 5H2.2C2.14696 5 2.09609 5.02107 2.05858 5.05858C2.02107 5.09609 2 5.14696 2 5.2V6.5C2 6.63261 2.05268 6.75979 2.14645 6.85355C2.24021 6.94732 2.36739 7 2.5 7H17.5C17.6326 7 17.7598 6.94732 17.8536 6.85355C17.9473 6.75979 18 6.63261 18 6.5V5.2C18 5.14696 17.9789 5.09609 17.9414 5.05858C17.9039 5.02107 17.853 5 17.8 5Z" fill="#27D4FF"/>
</g>
</svg>
