<svg width="20" height="20" viewBox="0 0 20 20" fill="none" xmlns="http://www.w3.org/2000/svg">
<mask id="mask0_370_12957" style="mask-type:luminance" maskUnits="userSpaceOnUse" x="0" y="0" width="20" height="20">
<path d="M20 0H0V20H20V0Z" fill="white"/>
</mask>
<g mask="url(#mask0_370_12957)">
<path d="M6 4.00038H9.90954C10.3815 3.99682 10.8534 4.01821 11.323 4.06445C11.6665 4.09803 12.0069 4.15612 12.3417 4.23824C12.5915 4.29857 12.8327 4.38868 13.0599 4.50654C13.2476 4.60732 13.426 4.72389 13.593 4.85492C14.0588 5.22161 14.4231 5.69658 14.6527 6.23644C14.8845 6.77927 15.0026 7.36207 15 7.95033C14.9998 8.25008 14.9702 8.54911 14.9115 8.84332C14.7998 9.41152 14.5773 9.9534 14.2564 10.4395C14.1144 10.656 13.9399 10.8504 13.7388 11.0161C13.5411 11.1794 13.3305 11.3272 13.1091 11.4582C12.8799 11.5904 12.6359 11.6963 12.3819 11.7737C12.0813 11.8642 11.7729 11.9277 11.4606 11.9636C11.0582 12.0083 10.6535 12.0291 10.2486 12.026H8.92028V16H6V4.00038ZM8.92028 9.40473H10.1642C10.3043 9.40473 10.4844 9.39673 10.7047 9.38071C10.9221 9.36591 11.1354 9.31499 11.3353 9.23014C11.5428 9.13914 11.7212 8.99463 11.8512 8.81208C12.01 8.56991 12.0862 8.28477 12.069 7.99758C12.089 7.71338 12.0096 7.43098 11.8438 7.1967C11.7013 7.01986 11.5146 6.88194 11.3017 6.79626C11.0907 6.71112 10.8669 6.66027 10.6392 6.6457C10.4077 6.63021 10.2114 6.6222 10.0504 6.62167H8.92028V9.40473Z" fill="white"/>
</g>
</svg>
