<svg width="16" height="16" viewBox="0 0 16 16" fill="none" xmlns="http://www.w3.org/2000/svg">
<path d="M9.26361 3.27216L1.5138 11.0224C1.41175 11.1224 1.33949 11.2487 1.30505 11.3874L0.521322 14.525C0.506334 14.5868 0.499195 14.6502 0.500072 14.7137C0.499743 14.8169 0.519772 14.9191 0.559011 15.0144C0.59825 15.1098 0.655927 15.1965 0.728736 15.2696C0.801545 15.3426 0.888054 15.4006 0.983303 15.4401C1.07855 15.4796 1.18067 15.5 1.2838 15.5C1.3474 15.499 1.41069 15.4911 1.47255 15.4763L4.60997 14.6912C4.74831 14.6567 4.87455 14.585 4.97496 14.4837L12.7248 6.73351L9.26361 3.27216Z" fill="white"/>
<path d="M14.7843 1.21696C14.3251 0.757892 13.7024 0.5 13.0531 0.5C12.4038 0.5 11.7811 0.757892 11.3219 1.21696L10.1494 2.3895L13.6119 5.85209L14.7831 4.68081C15.2421 4.22159 15.5 3.59884 15.5 2.94951C15.5 2.30018 15.2421 1.67743 14.7831 1.21821" fill="white"/>
</svg>
