<svg width="130" height="130" viewBox="0 0 130 130" fill="none" xmlns="http://www.w3.org/2000/svg">
<path d="M65.0002 0C78.3781 4.88429e-05 91.4302 4.12792 102.375 11.8203C113.321 19.5127 121.626 30.395 126.157 42.982C130.688 55.569 131.226 69.2475 127.696 82.151C124.165 95.0546 116.74 106.555 106.432 115.082C96.1243 123.609 83.4363 128.749 70.0996 129.798C56.7629 130.848 43.4272 127.757 31.9122 120.947C20.3974 114.137 11.2642 103.94 5.75899 91.7476C0.253762 79.5551 -1.35536 65.9609 1.1512 52.82L40.4422 60.32C39.4787 65.3738 40.0979 70.6017 42.2152 75.2906C44.3326 79.9795 47.8449 83.901 52.2732 86.52C56.7021 89.1393 61.8313 90.3281 66.9609 89.9244C72.0905 89.5206 76.9706 87.5439 80.9352 84.264C84.9 80.9842 87.7562 76.5609 89.1141 71.5978C90.4719 66.6346 90.2652 61.3733 88.5222 56.532C86.7793 51.6907 83.5851 47.5052 79.3754 44.5464C75.1657 41.5877 70.1456 40 65.0002 40V0Z" fill="#0068E6"/>
<path d="M1.15137 52.82C3.98571 37.9621 11.913 24.5579 23.5677 14.9165C35.2223 5.27497 49.8746 -8.60136e-05 65.0004 1.05189e-09V40C59.1829 40 53.5475 42.0289 49.065 45.737C44.5825 49.4452 41.5336 54.6006 40.4434 60.315L1.15137 52.82Z" fill="#27D4FF"/>
</svg>
