<svg width="130" height="130" viewBox="0 0 130 130" fill="none" xmlns="http://www.w3.org/2000/svg">
<path d="M64.9999 6.58261e-10C78.7267 -6.17575e-05 92.101 4.34549 103.206 12.4138C114.311 20.4822 122.577 31.8591 126.819 44.914C131.061 57.9688 131.061 72.0314 126.819 85.0862C122.577 98.1409 114.311 109.518 103.206 117.586C92.1009 125.654 78.7266 130 64.9999 130C51.2733 130 37.899 125.654 26.7939 117.586L50.3049 85.225C54.5761 88.3281 59.72 89.9995 64.9994 89.9995C70.2789 89.9995 75.4228 88.3281 79.6939 85.225C83.965 82.1219 87.1441 77.7463 88.7756 72.7254C90.407 67.7045 90.4072 62.296 88.7759 57.275C87.1446 52.2539 83.9655 47.8781 79.6944 44.7749C75.4233 41.6716 70.2794 40.0001 64.9999 40V6.58261e-10Z" fill="#0068E6"/>
<path d="M26.794 117.586C18.4954 111.557 11.7415 103.649 7.08462 94.5094C2.42772 85.3698 2.1259e-05 75.2577 0 65.0001C2.1259e-05 54.7424 2.42772 44.6304 7.08462 35.4907C11.7415 26.3511 18.4954 18.4434 26.794 12.4141L50.305 44.7751C47.1133 47.094 44.5158 50.1354 42.7248 53.6506C40.9337 57.1658 40 61.0549 40 65.0001C40 68.9452 40.9337 72.8344 42.7248 76.3495C44.5158 79.8647 47.1133 82.9061 50.305 85.2251L26.794 117.586Z" fill="#27D4FF"/>
<path d="M26.7939 12.414C37.899 4.34565 51.2733 3.9156e-05 64.9999 0V40C59.7203 40 54.5762 41.6716 50.3049 44.775L26.7939 12.414Z" fill="#16D9AB"/>
</svg>
