<svg width="131" height="131" viewBox="0 0 131 131" fill="none" xmlns="http://www.w3.org/2000/svg">
<path d="M64.7031 0.499512C77.4365 0.499528 89.8941 4.20831 100.554 11.1727C111.214 18.1372 119.615 28.0557 124.73 39.7165C129.844 51.3771 131.452 64.2749 129.356 76.8342C127.26 89.3935 121.552 101.07 112.928 110.439L83.2508 83.1222C86.5679 79.519 88.7638 75.0277 89.57 70.197C90.3762 65.3662 89.7578 60.4052 87.7905 55.9202C85.8232 51.4352 82.5921 47.6205 78.492 44.9419C74.392 42.2634 69.6006 40.837 64.7031 40.8371V0.499512Z" fill="#16A3E9"/>
<path d="M113.603 109.204C107.525 115.902 100.114 121.257 91.8452 124.925C83.5766 128.592 74.6329 130.492 65.5874 130.501C56.542 130.492 47.5982 128.592 39.3297 124.925C31.0611 121.257 23.6501 115.902 17.5718 109.204L47.1204 81.6909C49.4582 84.2672 52.3085 86.3265 55.4887 87.7369C58.6688 89.1473 62.1085 89.8777 65.5874 89.8812C69.0663 89.8777 72.506 89.1473 75.6861 87.7369C78.8663 86.3265 81.7166 84.2672 84.0545 81.6909L113.603 109.204Z" fill="#27D4FF"/>
<path d="M17.5726 109.442C10.1942 101.427 4.92985 91.6995 2.25551 81.1388C-0.418831 70.578 -0.41883 59.5173 2.25552 48.9565L41.3581 58.8589C40.3293 62.9208 40.3291 67.175 41.3576 71.2369C42.386 75.2988 44.4107 79.0403 47.2486 82.1231L17.5726 109.442Z" fill="#16D9AB"/>
<path d="M2.25562 49.9581C5.83664 35.82 14.0306 23.2799 25.5406 14.3228L50.3167 46.1542C45.8901 49.5995 42.739 54.4228 41.3621 59.8605L2.25562 49.9581Z" fill="#6E3DFF"/>
<path d="M25.2551 14.3245C30.9711 9.8759 37.3849 6.40544 44.2357 4.0542L57.3336 42.2051C54.6993 43.1095 52.2331 44.444 50.0352 46.1547L25.2551 14.3245Z" fill="#0077FF"/>
<path d="M44.0752 4.05122C50.9246 1.69976 58.1163 0.499606 65.3581 0.499512V40.8371C62.5713 40.8367 59.8037 41.2984 57.1679 42.2035L44.0752 4.05122Z" fill="#0077FF"/>
</svg>
