<svg width="280" height="160" viewBox="0 0 280 160" fill="none" xmlns="http://www.w3.org/2000/svg">
<rect width="280" height="160" fill="white" fill-opacity="0.06"/>
<path d="M197.061 68.4409C200.384 78.6654 200.899 89.5946 198.554 100.086C196.209 110.578 191.089 120.248 183.73 128.085L160.85 106.596C164.361 102.857 166.804 98.2434 167.923 93.2378C169.042 88.2322 168.796 83.018 167.211 78.1399L197.061 68.4409Z" fill="#139DF2"/>
<path d="M183.73 128.064C177.245 134.969 169.218 140.242 160.305 143.45C151.393 146.659 141.847 147.713 132.449 146.526L136.383 115.387C140.867 115.953 145.422 115.45 149.674 113.919C153.927 112.388 157.757 109.873 160.851 106.578L183.73 128.064Z" fill="#27D4FF"/>
<path d="M132.504 146.527C117.357 144.613 103.508 137 93.7764 125.236L117.96 105.229C122.604 110.842 129.211 114.475 136.438 115.388L132.504 146.527Z" fill="#18E1B2"/>
<path d="M93.776 125.25C85.6966 115.484 80.916 103.411 80.1191 90.7611L111.444 88.7939C111.824 94.8301 114.105 100.591 117.96 105.251L93.776 125.25Z" fill="#89ECD4"/>
<path d="M80.1185 90.7807C79.16 75.5434 84.0436 60.5135 93.7754 48.7498L117.959 68.7566C113.316 74.3693 110.986 81.5405 111.443 88.8106L80.1185 90.7807Z" fill="#937EFF"/>
<path d="M93.7764 48.7645C99.4084 41.9565 106.474 36.4758 114.469 32.7136L127.833 61.1133C124.018 62.9082 120.647 65.5231 117.959 68.7714L93.7764 48.7645Z" fill="#6548F5"/>
<path d="M114.45 32.7127C120.149 30.0297 126.235 28.2606 132.485 27.4702L136.419 58.6091C133.437 58.9855 130.533 59.8289 127.814 61.1084L114.45 32.7127Z" fill="#323ED1"/>
<path d="M132.478 27.4731C134.973 27.1579 137.486 26.9999 140.001 27V58.3868C138.801 58.3869 137.602 58.4625 136.412 58.613L132.478 27.4731Z" fill="#0032D2"/>
<path d="M140.027 27C152.704 27 165.055 31.0131 175.31 38.464C185.565 45.915 193.199 56.4213 197.116 68.4772L167.265 78.1762C165.396 72.4241 161.754 67.4114 156.861 63.8564C151.968 60.3014 146.075 58.3867 140.027 58.3868V27Z" fill="#0068E6" stroke="#27D4FF" stroke-width="2" stroke-miterlimit="10"/>
<path d="M140.027 25L138.027 25V27V58.3868V60.3868L140.027 60.3868C145.653 60.3867 151.134 62.1677 155.686 65.4744C160.237 68.7811 163.625 73.4439 165.363 78.7943L165.981 80.6964L167.883 80.0783L197.734 70.3793L199.636 69.7613L199.018 67.8592C194.97 55.4016 187.083 44.5452 176.486 36.846C165.888 29.1468 153.126 25 140.027 25Z" stroke="#27D4FF" stroke-opacity="0.2" stroke-width="4" stroke-miterlimit="10"/>
<path d="M62.1799 14.958V17.51H60.2329V18.247H62.1799V20.832H63.0929V14.958H62.1799ZM60.3319 20.458L60.7829 19.754C59.3529 19.259 58.3849 18.005 58.3849 16.74V16.399H60.5519V15.673H55.2829V16.399H57.4829V16.74C57.4829 18.148 56.4599 19.501 54.9969 20.029L55.4699 20.744C56.6249 20.304 57.5269 19.38 57.9559 18.236C58.3849 19.248 59.2319 20.062 60.3319 20.458ZM59.8369 21.14C57.8129 21.14 56.5479 21.8 56.5479 22.977C56.5479 24.154 57.8129 24.814 59.8369 24.814C61.8609 24.814 63.1149 24.154 63.1149 22.977C63.1149 21.8 61.8609 21.14 59.8369 21.14ZM59.8369 24.11C58.3299 24.11 57.4499 23.692 57.4499 22.977C57.4499 22.262 58.3299 21.833 59.8369 21.833C61.3439 21.833 62.2239 22.262 62.2239 22.977C62.2239 23.692 61.3439 24.11 59.8369 24.11ZM73.157 24.814V14.958H72.255V24.814H73.157ZM68.603 17.961V16.707H70.924V15.959H65.413V16.707H67.701V17.961C67.701 19.666 66.502 21.514 65.083 22.196L65.611 22.922C66.711 22.372 67.712 21.096 68.152 19.666C68.625 21.019 69.593 22.152 70.737 22.68L71.243 21.954C69.791 21.338 68.603 19.633 68.603 17.961ZM82.7921 19.754H84.4201V19.006H82.7921V14.947H81.8901V24.814H82.7921V19.754ZM78.5021 18.148V17.378H80.6911V16.652H78.5021V15.123H77.6001V16.652H75.3781V17.378H77.6111V18.148C77.6111 19.864 76.5551 21.525 75.1141 22.229L75.6201 22.911C76.7641 22.35 77.6331 21.239 78.0621 19.864C78.4911 21.151 79.2941 22.207 80.3941 22.735L80.9001 22.031C79.4811 21.349 78.5021 19.721 78.5021 18.148ZM92.9773 18.566V17.235H94.4403V16.487H92.9773V14.958H92.0753V20.92H92.9773V19.314H94.4403V18.566H92.9773ZM91.2173 20.018L91.1293 19.281C89.6333 19.545 88.3683 19.6 86.6413 19.6V18.236H90.1723V15.563H85.7283V16.3H89.2813V17.543H85.7503V20.337H86.5313C88.3573 20.337 89.6663 20.282 91.2173 20.018ZM89.8313 21.206C87.8183 21.206 86.5863 21.866 86.5863 23.01C86.5863 24.154 87.8183 24.803 89.8313 24.803C91.8223 24.803 93.0763 24.154 93.0763 23.01C93.0763 21.866 91.8223 21.206 89.8313 21.206ZM89.8313 24.11C88.3243 24.11 87.4663 23.714 87.4663 23.01C87.4663 22.306 88.3243 21.91 89.8313 21.91C91.3383 21.91 92.1853 22.306 92.1853 23.01C92.1853 23.714 91.3383 24.11 89.8313 24.11ZM99.4184 18.94L99.7814 16.828H102.938V15.904H99.0774L98.4174 19.721L99.0664 19.908C99.5394 19.743 99.9574 19.644 100.386 19.644C101.541 19.644 102.223 20.26 102.223 21.316C102.223 22.504 101.42 23.197 100.309 23.197C99.6494 23.197 99.0114 22.9 98.5274 22.493L97.9884 23.23C98.4834 23.703 99.2974 24.099 100.265 24.099C101.904 24.099 103.191 22.977 103.191 21.261C103.191 19.853 102.278 18.797 100.573 18.797C100.177 18.797 99.7924 18.841 99.4184 18.94ZM106.125 20.667C107.269 20.667 107.984 19.842 107.984 18.203C107.984 16.564 107.269 15.772 106.125 15.772C105.014 15.772 104.288 16.564 104.288 18.203C104.288 19.842 105.014 20.667 106.125 20.667ZM111.592 15.772H110.723L106.268 24.132H107.148L111.592 15.772ZM106.125 19.985C105.52 19.985 105.102 19.468 105.102 18.203C105.102 16.96 105.509 16.454 106.125 16.454C106.741 16.454 107.159 16.938 107.159 18.203C107.159 19.479 106.741 19.985 106.125 19.985ZM111.713 24.11C112.824 24.11 113.561 23.296 113.561 21.657C113.561 20.018 112.824 19.226 111.713 19.226C110.602 19.226 109.854 20.018 109.854 21.657C109.854 23.296 110.602 24.11 111.713 24.11ZM111.713 23.428C111.097 23.428 110.679 22.922 110.679 21.657C110.679 20.392 111.097 19.897 111.713 19.897C112.329 19.897 112.736 20.392 112.736 21.657C112.736 22.933 112.329 23.428 111.713 23.428Z" fill="white" fill-opacity="0.6"/>
<path d="M138.109 11.958V14.51H136.162V15.247H138.109V17.832H139.022V11.958H138.109ZM136.261 17.458L136.712 16.754C135.282 16.259 134.314 15.005 134.314 13.74V13.399H136.481V12.673H131.212V13.399H133.412V13.74C133.412 15.148 132.389 16.501 130.926 17.029L131.399 17.744C132.554 17.304 133.456 16.38 133.885 15.236C134.314 16.248 135.161 17.062 136.261 17.458ZM135.766 18.14C133.742 18.14 132.477 18.8 132.477 19.977C132.477 21.154 133.742 21.814 135.766 21.814C137.79 21.814 139.044 21.154 139.044 19.977C139.044 18.8 137.79 18.14 135.766 18.14ZM135.766 21.11C134.259 21.11 133.379 20.692 133.379 19.977C133.379 19.262 134.259 18.833 135.766 18.833C137.273 18.833 138.153 19.262 138.153 19.977C138.153 20.692 137.273 21.11 135.766 21.11ZM149.394 21.803V11.947H148.525V21.803H149.394ZM147.403 12.178H146.545V15.841H145.038V16.589H146.545V21.297H147.403V12.178ZM143.883 14.983V14.51H145.709V13.762H143.894V12.299H143.025V13.762H141.199V14.51H143.025V14.983C143.025 16.6 142.266 18.327 140.935 19.119L141.463 19.79C142.431 19.207 143.124 18.14 143.465 16.853C143.828 18.041 144.521 19.042 145.489 19.581L146.006 18.899C144.675 18.195 143.883 16.556 143.883 14.983ZM155.109 15.94L155.472 13.828H158.629V12.904H154.768L154.108 16.721L154.757 16.908C155.23 16.743 155.648 16.644 156.077 16.644C157.232 16.644 157.914 17.26 157.914 18.316C157.914 19.504 157.111 20.197 156 20.197C155.34 20.197 154.702 19.9 154.218 19.493L153.679 20.23C154.174 20.703 154.988 21.099 155.956 21.099C157.595 21.099 158.882 19.977 158.882 18.261C158.882 16.853 157.969 15.797 156.264 15.797C155.868 15.797 155.483 15.841 155.109 15.94ZM161.816 17.667C162.96 17.667 163.675 16.842 163.675 15.203C163.675 13.564 162.96 12.772 161.816 12.772C160.705 12.772 159.979 13.564 159.979 15.203C159.979 16.842 160.705 17.667 161.816 17.667ZM167.283 12.772H166.414L161.959 21.132H162.839L167.283 12.772ZM161.816 16.985C161.211 16.985 160.793 16.468 160.793 15.203C160.793 13.96 161.2 13.454 161.816 13.454C162.432 13.454 162.85 13.938 162.85 15.203C162.85 16.479 162.432 16.985 161.816 16.985ZM167.404 21.11C168.515 21.11 169.252 20.296 169.252 18.657C169.252 17.018 168.515 16.226 167.404 16.226C166.293 16.226 165.545 17.018 165.545 18.657C165.545 20.296 166.293 21.11 167.404 21.11ZM167.404 20.428C166.788 20.428 166.37 19.922 166.37 18.657C166.37 17.392 166.788 16.897 167.404 16.897C168.02 16.897 168.427 17.392 168.427 18.657C168.427 19.933 168.02 20.428 167.404 20.428Z" fill="white" fill-opacity="0.6"/>
<path d="M53.212 39.766V33.947L52.299 33.958V35.399H49.813C49.34 34.838 48.647 34.497 47.767 34.497C46.315 34.497 45.237 35.487 45.237 36.862C45.237 38.259 46.315 39.249 47.767 39.249C48.647 39.249 49.329 38.908 49.802 38.347H52.299V39.766H53.212ZM47.767 38.479C46.81 38.479 46.095 37.797 46.095 36.862C46.095 35.938 46.81 35.267 47.767 35.267C48.735 35.267 49.45 35.938 49.45 36.862C49.45 37.797 48.735 38.479 47.767 38.479ZM52.299 36.125V37.61H50.198C50.275 37.401 50.308 37.148 50.308 36.862C50.308 36.587 50.275 36.334 50.198 36.125H52.299ZM53.212 40.305H46.612V41.042H52.299V43.825H53.212V40.305ZM55.7411 38.028L56.0821 38.743C57.6221 38.479 59.0521 37.665 59.6681 36.488C60.2511 37.665 61.7251 38.479 63.2541 38.743L63.6061 38.028C61.8681 37.764 60.1631 36.642 60.1631 35.344V35.289H63.2541V34.563H56.0491V35.289H59.1621V35.344C59.1621 36.642 57.4571 37.764 55.7411 38.028ZM60.0971 40.305H64.1341L64.1231 39.568H55.2131V40.305H59.1951V43.814H60.0971V40.305ZM70.6673 39.843H71.5253V37.368H72.7793V40.195H73.6483V33.947H72.7793V36.631H71.5253V34.145H70.6673V39.843ZM65.2663 35.839H70.2823V35.124H68.2253V34.024H67.3343V35.124H65.2663V35.839ZM69.8863 38.039C69.8863 37.027 69.0283 36.356 67.7853 36.356C66.5423 36.356 65.6733 37.027 65.6733 38.039C65.6733 39.062 66.5423 39.733 67.7853 39.733C69.0283 39.733 69.8863 39.062 69.8863 38.039ZM66.4873 38.039C66.4873 37.423 66.9933 37.027 67.7853 37.027C68.5773 37.027 69.0833 37.423 69.0833 38.039C69.0833 38.655 68.5773 39.062 67.7853 39.062C66.9933 39.062 66.4873 38.655 66.4873 38.039ZM70.4033 40.36C68.3463 40.36 67.1033 40.987 67.1033 42.087C67.1033 43.187 68.3463 43.803 70.4033 43.803C72.4603 43.803 73.7033 43.187 73.7033 42.087C73.7033 40.987 72.4603 40.36 70.4033 40.36ZM70.4033 43.11C68.8963 43.11 67.9943 42.747 67.9943 42.087C67.9943 41.427 68.8963 41.053 70.4033 41.053C71.9103 41.053 72.8013 41.427 72.8013 42.087C72.8013 42.747 71.9103 43.11 70.4033 43.11ZM83.3784 35.586V34.937H78.0764V35.795H82.2894L81.9154 36.411L78.6264 43H79.7374L83.3784 35.586ZM86.1251 39.667C87.2691 39.667 87.9841 38.842 87.9841 37.203C87.9841 35.564 87.2691 34.772 86.1251 34.772C85.0141 34.772 84.2881 35.564 84.2881 37.203C84.2881 38.842 85.0141 39.667 86.1251 39.667ZM91.5921 34.772H90.7231L86.2681 43.132H87.1481L91.5921 34.772ZM86.1251 38.985C85.5201 38.985 85.1021 38.468 85.1021 37.203C85.1021 35.96 85.5091 35.454 86.1251 35.454C86.7411 35.454 87.1591 35.938 87.1591 37.203C87.1591 38.479 86.7411 38.985 86.1251 38.985ZM91.7131 43.11C92.8241 43.11 93.5611 42.296 93.5611 40.657C93.5611 39.018 92.8241 38.226 91.7131 38.226C90.6021 38.226 89.8541 39.018 89.8541 40.657C89.8541 42.296 90.6021 43.11 91.7131 43.11ZM91.7131 42.428C91.0971 42.428 90.6791 41.922 90.6791 40.657C90.6791 39.392 91.0971 38.897 91.7131 38.897C92.3291 38.897 92.7361 39.392 92.7361 40.657C92.7361 41.933 92.3291 42.428 91.7131 42.428Z" fill="white" fill-opacity="0.6"/>
<path d="M8.54413 68.336H15.2101V64.497H8.54413V68.336ZM9.42413 65.223H14.3191V67.621H9.42413V65.223ZM12.3061 70.415H16.3541V69.678H7.40013V70.415H11.4041V73.803H12.3061V70.415ZM26.6493 67.621V66.873H25.1863V63.947H24.2843V71.086H25.1863V67.621H26.6493ZM23.3383 68.996L23.2393 68.27C21.9523 68.534 20.8303 68.6 18.8833 68.6V65.531H22.3483V64.805H17.9813V69.337H18.7513C20.8303 69.337 21.9853 69.26 23.3383 68.996ZM25.6263 72.857H19.9503V70.371H19.0483V73.594H25.6263V72.857ZM28.0344 65.465H33.7984V64.794H31.3564V63.859H30.4544V64.794H28.0344V65.465ZM34.8214 70.602H35.7234V63.969H34.8214V70.602ZM34.0844 69.755L34.0404 69.128C33.1604 69.249 32.2804 69.326 31.3564 69.37V68.655C32.5444 68.556 33.2594 68.05 33.2594 67.258C33.2594 66.367 32.3244 65.828 30.9054 65.828C29.5084 65.828 28.5734 66.367 28.5734 67.258C28.5734 68.05 29.2994 68.534 30.4544 68.655V69.414C29.4424 69.447 28.5294 69.447 27.6934 69.447L27.8254 70.14C29.5854 70.14 31.9394 70.107 34.0844 69.755ZM29.4204 67.258C29.4204 66.763 30.0144 66.455 30.9054 66.455C31.8294 66.455 32.4014 66.763 32.4014 67.258C32.4014 67.742 31.8294 68.05 30.9054 68.05C30.0144 68.05 29.4204 67.742 29.4204 67.258ZM32.5114 70.756C30.3884 70.756 29.2334 71.273 29.2334 72.285C29.2334 73.297 30.3884 73.803 32.5114 73.803C34.6234 73.803 35.7784 73.297 35.7784 72.285C35.7784 71.273 34.6234 70.756 32.5114 70.756ZM32.5114 73.132C30.9604 73.132 30.1354 72.846 30.1354 72.285C30.1354 71.724 30.9494 71.427 32.5004 71.427C34.0514 71.427 34.8764 71.724 34.8764 72.285C34.8764 72.846 34.0624 73.132 32.5114 73.132ZM46.8875 67.621V66.873H45.4245V63.947H44.5225V71.086H45.4245V67.621H46.8875ZM43.5765 68.996L43.4775 68.27C42.1905 68.534 41.0685 68.6 39.1215 68.6V65.531H42.5865V64.805H38.2195V69.337H38.9895C41.0685 69.337 42.2235 69.26 43.5765 68.996ZM45.8645 72.857H40.1885V70.371H39.2865V73.594H45.8645V72.857ZM55.5506 73V72.186H53.9666V64.893H53.1636L50.9966 66.763L51.5356 67.412L52.9986 66.103C52.9876 66.18 52.9876 66.279 52.9876 66.378V72.186H51.1946V73H55.5506ZM62.5764 68.985C62.5764 66.114 61.2784 64.805 59.6174 64.805C57.9454 64.805 56.6584 66.114 56.6584 68.985C56.6584 71.845 57.9454 73.154 59.6174 73.154C61.2784 73.154 62.5764 71.845 62.5764 68.985ZM61.5644 68.985C61.5644 71.493 60.6404 72.34 59.6174 72.34C58.5944 72.34 57.6814 71.493 57.6814 68.985C57.6814 66.466 58.5944 65.63 59.6174 65.63C60.6404 65.63 61.5644 66.466 61.5644 68.985ZM65.1251 69.667C66.2691 69.667 66.9841 68.842 66.9841 67.203C66.9841 65.564 66.2691 64.772 65.1251 64.772C64.0141 64.772 63.2881 65.564 63.2881 67.203C63.2881 68.842 64.0141 69.667 65.1251 69.667ZM70.5921 64.772H69.7231L65.2681 73.132H66.1481L70.5921 64.772ZM65.1251 68.985C64.5201 68.985 64.1021 68.468 64.1021 67.203C64.1021 65.96 64.5091 65.454 65.1251 65.454C65.7411 65.454 66.1591 65.938 66.1591 67.203C66.1591 68.479 65.7411 68.985 65.1251 68.985ZM70.7131 73.11C71.8241 73.11 72.5611 72.296 72.5611 70.657C72.5611 69.018 71.8241 68.226 70.7131 68.226C69.6021 68.226 68.8541 69.018 68.8541 70.657C68.8541 72.296 69.6021 73.11 70.7131 73.11ZM70.7131 72.428C70.0971 72.428 69.6791 71.922 69.6791 70.657C69.6791 69.392 70.0971 68.897 70.7131 68.897C71.3291 68.897 71.7361 69.392 71.7361 70.657C71.7361 71.933 71.3291 72.428 70.7131 72.428Z" fill="white" fill-opacity="0.6"/>
<path d="M37.0644 117.814V107.936H36.1954V111.929H34.8974V108.167H34.0504V117.33H34.8974V112.677H36.1954V117.814H37.0644ZM31.5644 110.62V109.85H33.3574V109.113H28.7814V109.85H30.6954V110.62C30.6954 112.611 29.9584 114.305 28.5504 115.097L29.1004 115.779C30.1234 115.163 30.8054 114.151 31.1464 112.776C31.4984 113.964 32.1804 114.899 33.1484 115.438L33.6764 114.745C32.2684 114.008 31.5644 112.435 31.5644 110.62ZM47.1285 117.803V107.936H46.2595V112.105H44.9945V108.167H44.1475V117.33H44.9945V112.842H46.2595V117.803H47.1285ZM43.6525 109.63H41.6505V108.233H40.7595V109.63H38.7575V110.367H43.6525V109.63ZM41.2105 111.027C39.9895 111.027 39.0985 111.951 39.0985 113.271C39.0985 114.613 39.9895 115.526 41.2105 115.526C42.4315 115.526 43.3225 114.613 43.3225 113.271C43.3225 111.951 42.4315 111.027 41.2105 111.027ZM41.2105 114.778C40.4515 114.778 39.9015 114.151 39.9015 113.271C39.9015 112.391 40.4185 111.786 41.2105 111.786C41.9695 111.786 42.5195 112.413 42.5195 113.271C42.5195 114.151 41.9695 114.778 41.2105 114.778ZM56.5506 117V116.186H54.9666V108.893H54.1636L51.9966 110.763L52.5356 111.412L53.9986 110.103C53.9876 110.18 53.9876 110.279 53.9876 110.378V116.186H52.1946V117H56.5506ZM63.3124 117V116.109H60.1334C59.8584 116.109 59.5284 116.153 59.2204 116.241L61.4754 114.008C62.3884 113.095 63.1584 112.259 63.1584 111.06C63.1584 109.63 62.0914 108.794 60.7164 108.794C59.3414 108.794 58.2744 109.597 58.0654 111.082L59.0554 111.247C59.0554 110.323 59.7374 109.663 60.6614 109.663C61.4974 109.663 62.1134 110.114 62.1464 111.082C62.1464 112.028 61.5304 112.721 60.6834 113.623L57.9004 116.296V117H63.3124ZM66.1251 113.667C67.2691 113.667 67.9841 112.842 67.9841 111.203C67.9841 109.564 67.2691 108.772 66.1251 108.772C65.0141 108.772 64.2881 109.564 64.2881 111.203C64.2881 112.842 65.0141 113.667 66.1251 113.667ZM71.5921 108.772H70.7231L66.2681 117.132H67.1481L71.5921 108.772ZM66.1251 112.985C65.5201 112.985 65.1021 112.468 65.1021 111.203C65.1021 109.96 65.5091 109.454 66.1251 109.454C66.7411 109.454 67.1591 109.938 67.1591 111.203C67.1591 112.479 66.7411 112.985 66.1251 112.985ZM71.7131 117.11C72.8241 117.11 73.5611 116.296 73.5611 114.657C73.5611 113.018 72.8241 112.226 71.7131 112.226C70.6021 112.226 69.8541 113.018 69.8541 114.657C69.8541 116.296 70.6021 117.11 71.7131 117.11ZM71.7131 116.428C71.0971 116.428 70.6791 115.922 70.6791 114.657C70.6791 113.392 71.0971 112.897 71.7131 112.897C72.3291 112.897 72.7361 113.392 72.7361 114.657C72.7361 115.933 72.3291 116.428 71.7131 116.428Z" fill="white" fill-opacity="0.6"/>
<path d="M60.7454 148.814V138.947H59.8434V148.814H60.7454ZM57.8524 140.014H53.2324V140.74H56.9394C56.7524 143.083 55.4324 144.975 52.7814 146.24L53.2654 146.977C56.5544 145.36 57.8524 142.863 57.8524 140.014ZM71.8875 142.247V141.499H70.4245V138.958H69.5225V144.931H70.4245V142.247H71.8875ZM67.9935 144.293L68.4665 143.589C67.0585 143.116 66.0795 141.862 66.0795 140.542V139.453H65.1775V140.465C65.1775 141.95 64.2205 143.325 62.7245 143.853L63.1975 144.568C64.3525 144.128 65.2325 143.226 65.6395 142.071C66.0795 143.083 66.9265 143.897 67.9935 144.293ZM67.2895 145.206C65.2765 145.206 64.0335 145.866 64.0335 147.01C64.0335 148.154 65.2765 148.803 67.2895 148.803C69.2805 148.803 70.5345 148.154 70.5345 147.01C70.5345 145.866 69.2805 145.206 67.2895 145.206ZM67.2895 148.099C65.8265 148.099 64.9355 147.714 64.9355 147.01C64.9355 146.306 65.8265 145.91 67.2895 145.91C68.7525 145.91 69.6325 146.306 69.6325 147.01C69.6325 147.714 68.7525 148.099 67.2895 148.099ZM80.5506 148V147.186H78.9666V139.893H78.1636L75.9966 141.763L76.5356 142.412L77.9986 141.103C77.9876 141.18 77.9876 141.279 77.9876 141.378V147.186H76.1946V148H80.5506ZM87.3124 148V147.109H84.1334C83.8584 147.109 83.5284 147.153 83.2204 147.241L85.4754 145.008C86.3884 144.095 87.1584 143.259 87.1584 142.06C87.1584 140.63 86.0914 139.794 84.7164 139.794C83.3414 139.794 82.2744 140.597 82.0654 142.082L83.0554 142.247C83.0554 141.323 83.7374 140.663 84.6614 140.663C85.4974 140.663 86.1134 141.114 86.1464 142.082C86.1464 143.028 85.5304 143.721 84.6834 144.623L81.9004 147.296V148H87.3124ZM90.1251 144.667C91.2691 144.667 91.9841 143.842 91.9841 142.203C91.9841 140.564 91.2691 139.772 90.1251 139.772C89.0141 139.772 88.2881 140.564 88.2881 142.203C88.2881 143.842 89.0141 144.667 90.1251 144.667ZM95.5921 139.772H94.7231L90.2681 148.132H91.1481L95.5921 139.772ZM90.1251 143.985C89.5201 143.985 89.1021 143.468 89.1021 142.203C89.1021 140.96 89.5091 140.454 90.1251 140.454C90.7411 140.454 91.1591 140.938 91.1591 142.203C91.1591 143.479 90.7411 143.985 90.1251 143.985ZM95.7131 148.11C96.8241 148.11 97.5611 147.296 97.5611 145.657C97.5611 144.018 96.8241 143.226 95.7131 143.226C94.6021 143.226 93.8541 144.018 93.8541 145.657C93.8541 147.296 94.6021 148.11 95.7131 148.11ZM95.7131 147.428C95.0971 147.428 94.6791 146.922 94.6791 145.657C94.6791 144.392 95.0971 143.897 95.7131 143.897C96.3291 143.897 96.7361 144.392 96.7361 145.657C96.7361 146.933 96.3291 147.428 95.7131 147.428Z" fill="white" fill-opacity="0.6"/>
<path d="M187.929 144.843H188.787V142.368H190.041V145.195H190.91V138.947H190.041V141.631H188.787V139.145H187.929V144.843ZM182.528 140.839H187.544V140.124H185.487V139.024H184.596V140.124H182.528V140.839ZM187.148 143.039C187.148 142.027 186.29 141.356 185.047 141.356C183.804 141.356 182.935 142.027 182.935 143.039C182.935 144.062 183.804 144.733 185.047 144.733C186.29 144.733 187.148 144.062 187.148 143.039ZM183.749 143.039C183.749 142.423 184.255 142.027 185.047 142.027C185.839 142.027 186.345 142.423 186.345 143.039C186.345 143.655 185.839 144.062 185.047 144.062C184.255 144.062 183.749 143.655 183.749 143.039ZM187.665 145.36C185.608 145.36 184.365 145.987 184.365 147.087C184.365 148.187 185.608 148.803 187.665 148.803C189.722 148.803 190.965 148.187 190.965 147.087C190.965 145.987 189.722 145.36 187.665 145.36ZM187.665 148.11C186.158 148.11 185.256 147.747 185.256 147.087C185.256 146.427 186.158 146.053 187.665 146.053C189.172 146.053 190.063 146.427 190.063 147.087C190.063 147.747 189.172 148.11 187.665 148.11ZM200.292 143.699H201.92V142.951H200.292V138.958H199.39V148.814H200.292V143.699ZM196.013 141.576V139.805H195.122V141.576C195.122 143.369 194 145.25 192.581 145.987L193.12 146.713C194.231 146.097 195.144 144.909 195.573 143.446C196.013 144.81 196.904 145.954 197.96 146.515L198.521 145.8C197.146 145.096 196.013 143.303 196.013 141.576ZM210.484 148V147.186H208.9V139.893H208.097L205.93 141.763L206.469 142.412L207.932 141.103C207.921 141.18 207.921 141.279 207.921 141.378V147.186H206.128V148H210.484ZM213.352 142.94L213.715 140.828H216.872V139.904H213.011L212.351 143.721L213 143.908C213.473 143.743 213.891 143.644 214.32 143.644C215.475 143.644 216.157 144.26 216.157 145.316C216.157 146.504 215.354 147.197 214.243 147.197C213.583 147.197 212.945 146.9 212.461 146.493L211.922 147.23C212.417 147.703 213.231 148.099 214.199 148.099C215.838 148.099 217.125 146.977 217.125 145.261C217.125 143.853 216.212 142.797 214.507 142.797C214.111 142.797 213.726 142.841 213.352 142.94ZM220.059 144.667C221.203 144.667 221.918 143.842 221.918 142.203C221.918 140.564 221.203 139.772 220.059 139.772C218.948 139.772 218.222 140.564 218.222 142.203C218.222 143.842 218.948 144.667 220.059 144.667ZM225.526 139.772H224.657L220.202 148.132H221.082L225.526 139.772ZM220.059 143.985C219.454 143.985 219.036 143.468 219.036 142.203C219.036 140.96 219.443 140.454 220.059 140.454C220.675 140.454 221.093 140.938 221.093 142.203C221.093 143.479 220.675 143.985 220.059 143.985ZM225.647 148.11C226.758 148.11 227.495 147.296 227.495 145.657C227.495 144.018 226.758 143.226 225.647 143.226C224.536 143.226 223.788 144.018 223.788 145.657C223.788 147.296 224.536 148.11 225.647 148.11ZM225.647 147.428C225.031 147.428 224.613 146.922 224.613 145.657C224.613 144.392 225.031 143.897 225.647 143.897C226.263 143.897 226.67 144.392 226.67 145.657C226.67 146.933 226.263 147.428 225.647 147.428Z" fill="white" fill-opacity="0.6"/>
<path d="M207.65 99.179H213.48V99.289C213.48 100.048 213.48 100.785 213.216 101.797L214.096 101.896C214.371 100.884 214.371 100.081 214.371 99.289V98.453H207.65V99.179ZM215.482 103.282V102.545H211.148V100.653H210.246V102.545H206.605V103.282H215.482ZM211.005 104.184C208.904 104.184 207.573 104.855 207.573 105.999C207.573 107.11 208.904 107.803 211.005 107.803C213.106 107.803 214.448 107.11 214.448 105.999C214.448 104.855 213.106 104.184 211.005 104.184ZM211.005 107.099C209.465 107.099 208.475 106.692 208.475 105.999C208.475 105.295 209.465 104.877 211.005 104.877C212.556 104.877 213.546 105.295 213.546 105.999C213.546 106.703 212.556 107.099 211.005 107.099ZM224.292 102.699H225.92V101.951H224.292V97.958H223.39V107.814H224.292V102.699ZM220.013 100.576V98.805H219.122V100.576C219.122 102.369 218 104.25 216.581 104.987L217.12 105.713C218.231 105.097 219.144 103.909 219.573 102.446C220.013 103.81 220.904 104.954 221.96 105.515L222.521 104.8C221.146 104.096 220.013 102.303 220.013 100.576ZM234.484 107V106.186H232.9V98.893H232.097L229.93 100.763L230.469 101.412L231.932 100.103C231.921 100.18 231.921 100.279 231.921 100.378V106.186H230.128V107H234.484ZM241.312 99.586V98.937H236.01V99.795H240.223L239.849 100.411L236.56 107H237.671L241.312 99.586ZM244.059 103.667C245.203 103.667 245.918 102.842 245.918 101.203C245.918 99.564 245.203 98.772 244.059 98.772C242.948 98.772 242.222 99.564 242.222 101.203C242.222 102.842 242.948 103.667 244.059 103.667ZM249.526 98.772H248.657L244.202 107.132H245.082L249.526 98.772ZM244.059 102.985C243.454 102.985 243.036 102.468 243.036 101.203C243.036 99.96 243.443 99.454 244.059 99.454C244.675 99.454 245.093 99.938 245.093 101.203C245.093 102.479 244.675 102.985 244.059 102.985ZM249.647 107.11C250.758 107.11 251.495 106.296 251.495 104.657C251.495 103.018 250.758 102.226 249.647 102.226C248.536 102.226 247.788 103.018 247.788 104.657C247.788 106.296 248.536 107.11 249.647 107.11ZM249.647 106.428C249.031 106.428 248.613 105.922 248.613 104.657C248.613 103.392 249.031 102.897 249.647 102.897C250.263 102.897 250.67 103.392 250.67 104.657C250.67 105.933 250.263 106.428 249.647 106.428Z" fill="white" fill-opacity="0.6"/>
<path d="M211.173 29.699H212.801V28.951H211.173V24.958H210.271V34.814H211.173V29.699ZM206.894 27.576V25.805H206.003V27.576C206.003 29.369 204.881 31.25 203.462 31.987L204.001 32.713C205.112 32.097 206.025 30.909 206.454 29.446C206.894 30.81 207.785 31.954 208.841 32.515L209.402 31.8C208.027 31.096 206.894 29.303 206.894 27.576ZM214.648 26.674H220.665V26.916C220.665 28.093 220.676 29.501 220.291 31.382L221.193 31.481C221.578 29.49 221.567 28.148 221.567 26.916V25.937H214.648V26.674ZM222.634 33.428V32.691H218.08V29.16H217.178V32.691H213.713V33.428H222.634ZM231.693 34V33.109H228.514C228.239 33.109 227.909 33.153 227.601 33.241L229.856 31.008C230.769 30.095 231.539 29.259 231.539 28.06C231.539 26.63 230.472 25.794 229.097 25.794C227.722 25.794 226.655 26.597 226.446 28.082L227.436 28.247C227.436 27.323 228.118 26.663 229.042 26.663C229.878 26.663 230.494 27.114 230.527 28.082C230.527 29.028 229.911 29.721 229.064 30.623L226.281 33.296V34H231.693ZM238.51 29.985C238.51 27.114 237.212 25.805 235.551 25.805C233.879 25.805 232.592 27.114 232.592 29.985C232.592 32.845 233.879 34.154 235.551 34.154C237.212 34.154 238.51 32.845 238.51 29.985ZM237.498 29.985C237.498 32.493 236.574 33.34 235.551 33.34C234.528 33.34 233.615 32.493 233.615 29.985C233.615 27.466 234.528 26.63 235.551 26.63C236.574 26.63 237.498 27.466 237.498 29.985ZM241.059 30.667C242.203 30.667 242.918 29.842 242.918 28.203C242.918 26.564 242.203 25.772 241.059 25.772C239.948 25.772 239.222 26.564 239.222 28.203C239.222 29.842 239.948 30.667 241.059 30.667ZM246.526 25.772H245.657L241.202 34.132H242.082L246.526 25.772ZM241.059 29.985C240.454 29.985 240.036 29.468 240.036 28.203C240.036 26.96 240.443 26.454 241.059 26.454C241.675 26.454 242.093 26.938 242.093 28.203C242.093 29.479 241.675 29.985 241.059 29.985ZM246.647 34.11C247.758 34.11 248.495 33.296 248.495 31.657C248.495 30.018 247.758 29.226 246.647 29.226C245.536 29.226 244.788 30.018 244.788 31.657C244.788 33.296 245.536 34.11 246.647 34.11ZM246.647 33.428C246.031 33.428 245.613 32.922 245.613 31.657C245.613 30.392 246.031 29.897 246.647 29.897C247.263 29.897 247.67 30.392 247.67 31.657C247.67 32.933 247.263 33.428 246.647 33.428Z" fill="#27D4FF"/>
<rect x="195.5" y="20.5" width="61" height="19" stroke="#27D4FF"/>
<path d="M195 29H188L177 40" stroke="#27D4FF"/>
</svg>
