<svg width="280" height="160" viewBox="0 0 280 160" fill="none" xmlns="http://www.w3.org/2000/svg">
<rect width="280" height="160" fill="white"/>
<path d="M197.061 68.4409C200.383 78.6654 200.899 89.5946 198.554 100.086C196.209 110.578 191.089 120.248 183.729 128.085L160.85 106.596C164.361 102.857 166.803 98.2434 167.922 93.2378C169.041 88.2322 168.795 83.018 167.21 78.1399L197.061 68.4409Z" fill="#139DF2"/>
<path d="M183.73 128.064C177.245 134.969 169.218 140.242 160.306 143.45C151.393 146.659 141.847 147.713 132.449 146.526L136.384 115.387C140.868 115.953 145.422 115.45 149.675 113.919C153.927 112.388 157.757 109.873 160.851 106.578L183.73 128.064Z" fill="#27D4FF"/>
<path d="M132.504 146.527C117.357 144.613 103.508 137 93.7764 125.236L117.96 105.229C122.604 110.842 129.211 114.475 136.438 115.388L132.504 146.527Z" fill="#18E1B2"/>
<path d="M93.776 125.25C85.6966 115.484 80.916 103.411 80.1191 90.7611L111.444 88.7939C111.824 94.8301 114.105 100.591 117.96 105.251L93.776 125.25Z" fill="#89ECD4"/>
<path d="M80.1185 90.7807C79.16 75.5434 84.0436 60.5135 93.7754 48.7498L117.959 68.7566C113.316 74.3693 110.986 81.5405 111.443 88.8106L80.1185 90.7807Z" fill="#937EFF"/>
<path d="M93.7764 48.7645C99.4084 41.9565 106.474 36.4758 114.469 32.7136L127.833 61.1133C124.018 62.9082 120.647 65.5231 117.959 68.7714L93.7764 48.7645Z" fill="#6548F5"/>
<path d="M114.45 32.7127C120.149 30.0297 126.236 28.2606 132.485 27.4702L136.419 58.6091C133.437 58.9855 130.534 59.8289 127.814 61.1084L114.45 32.7127Z" fill="#323ED1"/>
<path d="M132.478 27.4731C134.973 27.1579 137.486 26.9999 140.001 27V58.3868C138.801 58.3869 137.602 58.4625 136.412 58.613L132.478 27.4731Z" fill="#0032D2"/>
<path d="M140.027 27C152.704 27 165.055 31.0131 175.31 38.464C185.565 45.915 193.199 56.4213 197.116 68.4772L167.265 78.1762C165.396 72.4241 161.754 67.4114 156.861 63.8564C151.968 60.3014 146.075 58.3867 140.027 58.3868V27Z" fill="#0068E6" stroke="#27D4FF" stroke-width="2" stroke-miterlimit="10"/>
<path d="M140.027 25L138.027 25V27V58.3868V60.3868L140.027 60.3868C145.653 60.3867 151.134 62.1677 155.686 65.4744C160.237 68.7811 163.625 73.4439 165.363 78.7943L165.981 80.6964L167.883 80.0783L197.734 70.3793L199.636 69.7613L199.018 67.8592C194.97 55.4016 187.083 44.5452 176.486 36.846C165.888 29.1468 153.126 25 140.027 25Z" stroke="#27D4FF" stroke-opacity="0.2" stroke-width="4" stroke-miterlimit="10"/>
<path d="M62.1799 14.958H63.0929V20.832H62.1799V18.247H60.2329V17.51H62.1799V14.958ZM60.3319 20.458C59.7819 20.26 59.3015 19.9667 58.8909 19.578C58.4802 19.1893 58.1685 18.742 57.9559 18.236C57.7432 18.808 57.4205 19.314 56.9879 19.754C56.5552 20.194 56.0492 20.524 55.4699 20.744L54.9969 20.029C55.3635 19.897 55.6972 19.7173 55.9979 19.49C56.3059 19.2627 56.5699 19.006 56.7899 18.72C57.0099 18.4267 57.1785 18.1113 57.2959 17.774C57.4205 17.4367 57.4829 17.092 57.4829 16.74V16.399H55.2829V15.673H60.5519V16.399H58.3849V16.74C58.3849 17.0553 58.4435 17.367 58.5609 17.675C58.6782 17.983 58.8395 18.2727 59.0449 18.544C59.2575 18.808 59.5105 19.0463 59.8039 19.259C60.0972 19.4643 60.4235 19.6293 60.7829 19.754L60.3319 20.458ZM59.8369 21.14C60.3429 21.14 60.7975 21.1803 61.2009 21.261C61.6042 21.3417 61.9489 21.4627 62.2349 21.624C62.5209 21.778 62.7372 21.9687 62.8839 22.196C63.0379 22.4233 63.1149 22.6837 63.1149 22.977C63.1149 23.2703 63.0379 23.5307 62.8839 23.758C62.7372 23.9853 62.5209 24.176 62.2349 24.33C61.9489 24.4913 61.6042 24.6123 61.2009 24.693C60.7975 24.7737 60.3429 24.814 59.8369 24.814C59.3309 24.814 58.8725 24.7737 58.4619 24.693C58.0585 24.6123 57.7139 24.4913 57.4279 24.33C57.1492 24.176 56.9329 23.9853 56.7789 23.758C56.6249 23.5307 56.5479 23.2703 56.5479 22.977C56.5479 22.6837 56.6249 22.4233 56.7789 22.196C56.9329 21.9687 57.1492 21.778 57.4279 21.624C57.7139 21.4627 58.0585 21.3417 58.4619 21.261C58.8725 21.1803 59.3309 21.14 59.8369 21.14ZM59.8369 24.11C60.5922 24.11 61.1789 24.011 61.5969 23.813C62.0149 23.615 62.2239 23.3363 62.2239 22.977C62.2239 22.6177 62.0149 22.339 61.5969 22.141C61.1789 21.9357 60.5922 21.833 59.8369 21.833C59.0815 21.833 58.4949 21.9357 58.0769 22.141C57.6589 22.339 57.4499 22.6177 57.4499 22.977C57.4499 23.3363 57.6589 23.615 58.0769 23.813C58.4949 24.011 59.0815 24.11 59.8369 24.11ZM73.157 24.814H72.255V14.958H73.157V24.814ZM68.603 17.961C68.603 18.379 68.6727 18.7933 68.812 19.204C68.9513 19.6147 69.1383 19.9997 69.373 20.359C69.615 20.711 69.8973 21.0263 70.22 21.305C70.5427 21.5837 70.8837 21.8 71.243 21.954L70.737 22.68C70.451 22.548 70.176 22.3793 69.912 22.174C69.6553 21.9687 69.4133 21.7377 69.186 21.481C68.966 21.2243 68.768 20.942 68.592 20.634C68.416 20.326 68.2693 20.0033 68.152 19.666C68.042 20.0253 67.899 20.37 67.723 20.7C67.547 21.03 67.349 21.338 67.129 21.624C66.909 21.91 66.6707 22.163 66.414 22.383C66.1573 22.603 65.8897 22.7827 65.611 22.922L65.083 22.196C65.435 22.0273 65.7687 21.7927 66.084 21.492C66.4067 21.184 66.6853 20.843 66.92 20.469C67.162 20.0877 67.3527 19.6807 67.492 19.248C67.6313 18.8153 67.701 18.3863 67.701 17.961V16.707H65.413V15.959H70.924V16.707H68.603V17.961ZM82.7921 19.754V24.814H81.8901V14.947H82.7921V19.006H84.4201V19.754H82.7921ZM78.5021 18.148C78.5021 18.544 78.5608 18.9363 78.6781 19.325C78.7955 19.7137 78.9568 20.0803 79.1621 20.425C79.3748 20.7697 79.6278 21.0813 79.9211 21.36C80.2218 21.6387 80.5481 21.8623 80.9001 22.031L80.3941 22.735C79.8441 22.471 79.3711 22.0897 78.9751 21.591C78.5791 21.085 78.2748 20.5093 78.0621 19.864C77.8495 20.5533 77.5305 21.1657 77.1051 21.701C76.6871 22.229 76.1921 22.6323 75.6201 22.911L75.1141 22.229C75.4735 22.053 75.8035 21.822 76.1041 21.536C76.4121 21.25 76.6761 20.9273 76.8961 20.568C77.1235 20.2087 77.2995 19.8237 77.4241 19.413C77.5488 18.995 77.6111 18.5733 77.6111 18.148V17.378H75.3781V16.652H77.6001V15.123H78.5021V16.652H80.6911V17.378H78.5021V18.148ZM92.9773 18.566H94.4403V19.314H92.9773V20.92H92.0753V14.958H92.9773V16.487H94.4403V17.235H92.9773V18.566ZM91.2173 20.018C90.8286 20.084 90.4509 20.139 90.0843 20.183C89.7176 20.2197 89.3473 20.2527 88.9733 20.282C88.5993 20.304 88.2106 20.3187 87.8073 20.326C87.4113 20.3333 86.9859 20.337 86.5313 20.337H85.7503V17.543H89.2813V16.3H85.7283V15.563H90.1723V18.236H86.6413V19.6C87.0739 19.6 87.4809 19.5963 87.8623 19.589C88.2436 19.5817 88.6139 19.567 88.9733 19.545C89.3326 19.5157 89.6883 19.4827 90.0403 19.446C90.3923 19.402 90.7553 19.347 91.1293 19.281L91.2173 20.018ZM89.8313 21.206C90.3299 21.206 90.7773 21.2463 91.1733 21.327C91.5766 21.4077 91.9176 21.525 92.1963 21.679C92.4823 21.833 92.6986 22.0237 92.8453 22.251C92.9993 22.471 93.0763 22.724 93.0763 23.01C93.0763 23.296 92.9993 23.5527 92.8453 23.78C92.6986 24 92.4823 24.1833 92.1963 24.33C91.9176 24.484 91.5766 24.6013 91.1733 24.682C90.7773 24.7627 90.3299 24.803 89.8313 24.803C89.3253 24.803 88.8706 24.7627 88.4673 24.682C88.0713 24.6013 87.7339 24.484 87.4553 24.33C87.1766 24.1833 86.9603 24 86.8063 23.78C86.6596 23.5527 86.5863 23.296 86.5863 23.01C86.5863 22.724 86.6596 22.471 86.8063 22.251C86.9603 22.0237 87.1766 21.833 87.4553 21.679C87.7339 21.525 88.0713 21.4077 88.4673 21.327C88.8706 21.2463 89.3253 21.206 89.8313 21.206ZM89.8313 24.11C90.5866 24.11 91.1659 24.0147 91.5693 23.824C91.9799 23.6333 92.1853 23.362 92.1853 23.01C92.1853 22.658 91.9799 22.3867 91.5693 22.196C91.1659 22.0053 90.5866 21.91 89.8313 21.91C89.0759 21.91 88.4929 22.0053 88.0823 22.196C87.6716 22.3867 87.4663 22.658 87.4663 23.01C87.4663 23.362 87.6716 23.6333 88.0823 23.824C88.4929 24.0147 89.0759 24.11 89.8313 24.11ZM99.4184 18.94C99.7777 18.8447 100.163 18.797 100.573 18.797C100.999 18.797 101.373 18.8593 101.695 18.984C102.025 19.1087 102.3 19.281 102.52 19.501C102.74 19.721 102.905 19.9813 103.015 20.282C103.133 20.5827 103.191 20.909 103.191 21.261C103.191 21.6863 103.114 22.075 102.96 22.427C102.814 22.779 102.608 23.0797 102.344 23.329C102.08 23.571 101.769 23.7617 101.409 23.901C101.057 24.033 100.676 24.099 100.265 24.099C99.7814 24.099 99.3414 24.0147 98.9454 23.846C98.5567 23.67 98.2377 23.4647 97.9884 23.23L98.5274 22.493C98.7694 22.6983 99.0444 22.867 99.3524 22.999C99.6604 23.131 99.9794 23.197 100.309 23.197C100.588 23.197 100.845 23.1567 101.079 23.076C101.314 22.988 101.516 22.8633 101.684 22.702C101.853 22.5407 101.985 22.3427 102.08 22.108C102.176 21.8733 102.223 21.6093 102.223 21.316C102.223 20.788 102.062 20.3773 101.739 20.084C101.417 19.7907 100.966 19.644 100.386 19.644C100.174 19.644 99.9574 19.6697 99.7374 19.721C99.5247 19.765 99.301 19.8273 99.0664 19.908L98.4174 19.721L99.0774 15.904H102.938V16.828H99.7814L99.4184 18.94ZM106.125 20.667C105.568 20.667 105.12 20.4617 104.783 20.051C104.453 19.6403 104.288 19.0243 104.288 18.203C104.288 17.3817 104.453 16.773 104.783 16.377C105.12 15.9737 105.568 15.772 106.125 15.772C106.697 15.772 107.148 15.9737 107.478 16.377C107.815 16.773 107.984 17.3817 107.984 18.203C107.984 19.0243 107.815 19.6403 107.478 20.051C107.148 20.4617 106.697 20.667 106.125 20.667ZM111.592 15.772L107.148 24.132H106.268L110.723 15.772H111.592ZM106.125 19.985C106.433 19.985 106.682 19.8493 106.873 19.578C107.064 19.2993 107.159 18.841 107.159 18.203C107.159 17.5723 107.064 17.125 106.873 16.861C106.682 16.5897 106.433 16.454 106.125 16.454C105.817 16.454 105.568 16.5897 105.377 16.861C105.194 17.1323 105.102 17.5797 105.102 18.203C105.102 18.8337 105.197 19.2883 105.388 19.567C105.579 19.8457 105.824 19.985 106.125 19.985ZM111.713 24.11C111.156 24.11 110.705 23.9083 110.36 23.505C110.023 23.0943 109.854 22.4783 109.854 21.657C109.854 20.8357 110.023 20.227 110.36 19.831C110.705 19.4277 111.156 19.226 111.713 19.226C112.27 19.226 112.718 19.4277 113.055 19.831C113.392 20.227 113.561 20.8357 113.561 21.657C113.561 22.4783 113.392 23.0943 113.055 23.505C112.718 23.9083 112.27 24.11 111.713 24.11ZM111.713 23.428C112.021 23.428 112.267 23.2923 112.45 23.021C112.641 22.7497 112.736 22.295 112.736 21.657C112.736 21.0263 112.641 20.5753 112.45 20.304C112.267 20.0327 112.021 19.897 111.713 19.897C111.405 19.897 111.156 20.0327 110.965 20.304C110.774 20.5753 110.679 21.0263 110.679 21.657C110.679 22.2877 110.774 22.7423 110.965 23.021C111.156 23.2923 111.405 23.428 111.713 23.428Z" fill="black" fill-opacity="0.6"/>
<path d="M138.109 11.958H139.022V17.832H138.109V15.247H136.162V14.51H138.109V11.958ZM136.261 17.458C135.711 17.26 135.23 16.9667 134.82 16.578C134.409 16.1893 134.097 15.742 133.885 15.236C133.672 15.808 133.349 16.314 132.917 16.754C132.484 17.194 131.978 17.524 131.399 17.744L130.926 17.029C131.292 16.897 131.626 16.7173 131.927 16.49C132.235 16.2627 132.499 16.006 132.719 15.72C132.939 15.4267 133.107 15.1113 133.225 14.774C133.349 14.4367 133.412 14.092 133.412 13.74V13.399H131.212V12.673H136.481V13.399H134.314V13.74C134.314 14.0553 134.372 14.367 134.49 14.675C134.607 14.983 134.768 15.2727 134.974 15.544C135.186 15.808 135.439 16.0463 135.733 16.259C136.026 16.4643 136.352 16.6293 136.712 16.754L136.261 17.458ZM135.766 18.14C136.272 18.14 136.726 18.1803 137.13 18.261C137.533 18.3417 137.878 18.4627 138.164 18.624C138.45 18.778 138.666 18.9687 138.813 19.196C138.967 19.4233 139.044 19.6837 139.044 19.977C139.044 20.2703 138.967 20.5307 138.813 20.758C138.666 20.9853 138.45 21.176 138.164 21.33C137.878 21.4913 137.533 21.6123 137.13 21.693C136.726 21.7737 136.272 21.814 135.766 21.814C135.26 21.814 134.801 21.7737 134.391 21.693C133.987 21.6123 133.643 21.4913 133.357 21.33C133.078 21.176 132.862 20.9853 132.708 20.758C132.554 20.5307 132.477 20.2703 132.477 19.977C132.477 19.6837 132.554 19.4233 132.708 19.196C132.862 18.9687 133.078 18.778 133.357 18.624C133.643 18.4627 133.987 18.3417 134.391 18.261C134.801 18.1803 135.26 18.14 135.766 18.14ZM135.766 21.11C136.521 21.11 137.108 21.011 137.526 20.813C137.944 20.615 138.153 20.3363 138.153 19.977C138.153 19.6177 137.944 19.339 137.526 19.141C137.108 18.9357 136.521 18.833 135.766 18.833C135.01 18.833 134.424 18.9357 134.006 19.141C133.588 19.339 133.379 19.6177 133.379 19.977C133.379 20.3363 133.588 20.615 134.006 20.813C134.424 21.011 135.01 21.11 135.766 21.11ZM149.394 21.803H148.525V11.947H149.394V21.803ZM147.403 12.178V21.297H146.545V16.589H145.038V15.841H146.545V12.178H147.403ZM143.883 14.983C143.883 15.379 143.93 15.7713 144.026 16.16C144.121 16.5487 144.26 16.919 144.444 17.271C144.627 17.6157 144.851 17.931 145.115 18.217C145.379 18.4957 145.676 18.723 146.006 18.899L145.489 19.581C145.005 19.3097 144.59 18.9357 144.246 18.459C143.908 17.9823 143.648 17.447 143.465 16.853C143.296 17.4983 143.039 18.0777 142.695 18.591C142.357 19.097 141.947 19.4967 141.463 19.79L140.935 19.119C141.265 18.921 141.558 18.6717 141.815 18.371C142.079 18.063 142.299 17.7257 142.475 17.359C142.658 16.9923 142.794 16.6073 142.882 16.204C142.977 15.7933 143.025 15.3863 143.025 14.983V14.51H141.199V13.762H143.025V12.299H143.894V13.762H145.709V14.51H143.883V14.983ZM155.109 15.94C155.468 15.8447 155.853 15.797 156.264 15.797C156.689 15.797 157.063 15.8593 157.386 15.984C157.716 16.1087 157.991 16.281 158.211 16.501C158.431 16.721 158.596 16.9813 158.706 17.282C158.823 17.5827 158.882 17.909 158.882 18.261C158.882 18.6863 158.805 19.075 158.651 19.427C158.504 19.779 158.299 20.0797 158.035 20.329C157.771 20.571 157.459 20.7617 157.1 20.901C156.748 21.033 156.366 21.099 155.956 21.099C155.472 21.099 155.032 21.0147 154.636 20.846C154.247 20.67 153.928 20.4647 153.679 20.23L154.218 19.493C154.46 19.6983 154.735 19.867 155.043 19.999C155.351 20.131 155.67 20.197 156 20.197C156.278 20.197 156.535 20.1567 156.77 20.076C157.004 19.988 157.206 19.8633 157.375 19.702C157.543 19.5407 157.675 19.3427 157.771 19.108C157.866 18.8733 157.914 18.6093 157.914 18.316C157.914 17.788 157.752 17.3773 157.43 17.084C157.107 16.7907 156.656 16.644 156.077 16.644C155.864 16.644 155.648 16.6697 155.428 16.721C155.215 16.765 154.991 16.8273 154.757 16.908L154.108 16.721L154.768 12.904H158.629V13.828H155.472L155.109 15.94ZM161.816 17.667C161.258 17.667 160.811 17.4617 160.474 17.051C160.144 16.6403 159.979 16.0243 159.979 15.203C159.979 14.3817 160.144 13.773 160.474 13.377C160.811 12.9737 161.258 12.772 161.816 12.772C162.388 12.772 162.839 12.9737 163.169 13.377C163.506 13.773 163.675 14.3817 163.675 15.203C163.675 16.0243 163.506 16.6403 163.169 17.051C162.839 17.4617 162.388 17.667 161.816 17.667ZM167.283 12.772L162.839 21.132H161.959L166.414 12.772H167.283ZM161.816 16.985C162.124 16.985 162.373 16.8493 162.564 16.578C162.754 16.2993 162.85 15.841 162.85 15.203C162.85 14.5723 162.754 14.125 162.564 13.861C162.373 13.5897 162.124 13.454 161.816 13.454C161.508 13.454 161.258 13.5897 161.068 13.861C160.884 14.1323 160.793 14.5797 160.793 15.203C160.793 15.8337 160.888 16.2883 161.079 16.567C161.269 16.8457 161.515 16.985 161.816 16.985ZM167.404 21.11C166.846 21.11 166.395 20.9083 166.051 20.505C165.713 20.0943 165.545 19.4783 165.545 18.657C165.545 17.8357 165.713 17.227 166.051 16.831C166.395 16.4277 166.846 16.226 167.404 16.226C167.961 16.226 168.408 16.4277 168.746 16.831C169.083 17.227 169.252 17.8357 169.252 18.657C169.252 19.4783 169.083 20.0943 168.746 20.505C168.408 20.9083 167.961 21.11 167.404 21.11ZM167.404 20.428C167.712 20.428 167.957 20.2923 168.141 20.021C168.331 19.7497 168.427 19.295 168.427 18.657C168.427 18.0263 168.331 17.5753 168.141 17.304C167.957 17.0327 167.712 16.897 167.404 16.897C167.096 16.897 166.846 17.0327 166.656 17.304C166.465 17.5753 166.37 18.0263 166.37 18.657C166.37 19.2877 166.465 19.7423 166.656 20.021C166.846 20.2923 167.096 20.428 167.404 20.428Z" fill="black" fill-opacity="0.6"/>
<path d="M53.212 39.766H52.299V38.347H49.802C49.5673 38.6257 49.2777 38.8457 48.933 39.007C48.5957 39.1683 48.207 39.249 47.767 39.249C47.4077 39.249 47.0703 39.1903 46.755 39.073C46.447 38.9557 46.1793 38.7907 45.952 38.578C45.732 38.3653 45.556 38.116 45.424 37.83C45.2993 37.5367 45.237 37.214 45.237 36.862C45.237 36.5173 45.2993 36.202 45.424 35.916C45.556 35.6227 45.732 35.3733 45.952 35.168C46.1793 34.9553 46.447 34.7903 46.755 34.673C47.0703 34.5557 47.4077 34.497 47.767 34.497C48.207 34.497 48.5993 34.5777 48.944 34.739C49.2887 34.9003 49.5783 35.1203 49.813 35.399H52.299V33.958L53.212 33.947V39.766ZM47.767 38.479C48.009 38.479 48.2327 38.4387 48.438 38.358C48.6433 38.2773 48.8193 38.1673 48.966 38.028C49.12 37.8813 49.2373 37.709 49.318 37.511C49.406 37.313 49.45 37.0967 49.45 36.862C49.45 36.6273 49.406 36.4147 49.318 36.224C49.2373 36.026 49.12 35.8573 48.966 35.718C48.8193 35.5787 48.6433 35.4687 48.438 35.388C48.2327 35.3073 48.009 35.267 47.767 35.267C47.525 35.267 47.3013 35.3073 47.096 35.388C46.898 35.4687 46.722 35.5787 46.568 35.718C46.4213 35.8573 46.304 36.026 46.216 36.224C46.1353 36.4147 46.095 36.6273 46.095 36.862C46.095 37.0967 46.1353 37.313 46.216 37.511C46.304 37.709 46.4213 37.8813 46.568 38.028C46.722 38.1673 46.898 38.2773 47.096 38.358C47.3013 38.4387 47.525 38.479 47.767 38.479ZM52.299 36.125H50.198C50.2713 36.323 50.308 36.5687 50.308 36.862C50.308 37.1627 50.2713 37.412 50.198 37.61H52.299V36.125ZM53.212 40.305V43.825H52.299V41.042H46.612V40.305H53.212ZM55.7411 38.028C56.1738 37.962 56.5918 37.8483 56.9951 37.687C57.4058 37.5183 57.7725 37.3167 58.0951 37.082C58.4178 36.84 58.6745 36.5723 58.8651 36.279C59.0631 35.9783 59.1621 35.6667 59.1621 35.344V35.289H56.0491V34.563H63.2541V35.289H60.1631V35.344C60.1631 35.6667 60.2585 35.9783 60.4491 36.279C60.6471 36.5723 60.9075 36.84 61.2301 37.082C61.5528 37.3167 61.9195 37.5183 62.3301 37.687C62.7481 37.8483 63.1735 37.962 63.6061 38.028L63.2541 38.743C62.8728 38.677 62.4988 38.578 62.1321 38.446C61.7655 38.314 61.4245 38.1527 61.1091 37.962C60.7938 37.764 60.5115 37.544 60.2621 37.302C60.0128 37.0527 59.8148 36.7813 59.6681 36.488C59.5141 36.7813 59.3125 37.0527 59.0631 37.302C58.8138 37.544 58.5315 37.764 58.2161 37.962C57.9081 38.1527 57.5708 38.314 57.2041 38.446C56.8448 38.578 56.4708 38.677 56.0821 38.743L55.7411 38.028ZM60.0971 40.305V43.814H59.1951V40.305H55.2131V39.568H64.1231L64.1341 40.305H60.0971ZM70.6673 39.843V34.145H71.5253V36.631H72.7793V33.947H73.6483V40.195H72.7793V37.368H71.5253V39.843H70.6673ZM65.2663 35.839V35.124H67.3343V34.024H68.2253V35.124H70.2823V35.839H65.2663ZM69.8863 38.039C69.8863 38.2957 69.8349 38.5303 69.7323 38.743C69.6296 38.9483 69.4866 39.1243 69.3033 39.271C69.1199 39.4177 68.8963 39.5313 68.6323 39.612C68.3756 39.6927 68.0933 39.733 67.7853 39.733C67.4773 39.733 67.1913 39.6927 66.9273 39.612C66.6706 39.5313 66.4469 39.4177 66.2563 39.271C66.0729 39.1243 65.9299 38.9483 65.8273 38.743C65.7246 38.5303 65.6733 38.2957 65.6733 38.039C65.6733 37.7823 65.7246 37.5513 65.8273 37.346C65.9299 37.1407 66.0729 36.9647 66.2563 36.818C66.4469 36.6713 66.6706 36.5577 66.9273 36.477C67.1913 36.3963 67.4773 36.356 67.7853 36.356C68.0933 36.356 68.3756 36.3963 68.6323 36.477C68.8963 36.5577 69.1199 36.6713 69.3033 36.818C69.4866 36.9647 69.6296 37.1407 69.7323 37.346C69.8349 37.5513 69.8863 37.7823 69.8863 38.039ZM66.4873 38.039C66.4873 38.347 66.6046 38.5963 66.8393 38.787C67.0739 38.9703 67.3893 39.062 67.7853 39.062C68.1813 39.062 68.4966 38.9703 68.7313 38.787C68.9659 38.5963 69.0833 38.347 69.0833 38.039C69.0833 37.731 68.9659 37.4853 68.7313 37.302C68.4966 37.1187 68.1813 37.027 67.7853 37.027C67.3893 37.027 67.0739 37.1187 66.8393 37.302C66.6046 37.4853 66.4873 37.731 66.4873 38.039ZM70.4033 40.36C70.9166 40.36 71.3749 40.4003 71.7783 40.481C72.1889 40.5543 72.5373 40.6643 72.8233 40.811C73.1093 40.9577 73.3256 41.1373 73.4723 41.35C73.6263 41.5627 73.7033 41.8083 73.7033 42.087C73.7033 42.3583 73.6263 42.604 73.4723 42.824C73.3256 43.0367 73.1093 43.2127 72.8233 43.352C72.5373 43.4987 72.1889 43.6087 71.7783 43.682C71.3749 43.7627 70.9166 43.803 70.4033 43.803C69.8899 43.803 69.4279 43.7627 69.0173 43.682C68.6139 43.6087 68.2693 43.4987 67.9833 43.352C67.6973 43.2127 67.4773 43.0367 67.3233 42.824C67.1766 42.604 67.1033 42.3583 67.1033 42.087C67.1033 41.8083 67.1766 41.5627 67.3233 41.35C67.4773 41.1373 67.6973 40.9577 67.9833 40.811C68.2693 40.6643 68.6139 40.5543 69.0173 40.481C69.4279 40.4003 69.8899 40.36 70.4033 40.36ZM70.4033 43.11C71.1586 43.11 71.7453 43.022 72.1633 42.846C72.5886 42.67 72.8013 42.417 72.8013 42.087C72.8013 41.757 72.5886 41.504 72.1633 41.328C71.7453 41.1447 71.1586 41.053 70.4033 41.053C69.6479 41.053 69.0576 41.1447 68.6323 41.328C68.2069 41.504 67.9943 41.757 67.9943 42.087C67.9943 42.417 68.2069 42.67 68.6323 42.846C69.0576 43.022 69.6479 43.11 70.4033 43.11ZM83.3784 35.586L79.7374 43H78.6264L81.9154 36.411L82.2894 35.795H78.0764V34.937H83.3784V35.586ZM86.1251 39.667C85.5678 39.667 85.1205 39.4617 84.7831 39.051C84.4531 38.6403 84.2881 38.0243 84.2881 37.203C84.2881 36.3817 84.4531 35.773 84.7831 35.377C85.1205 34.9737 85.5678 34.772 86.1251 34.772C86.6971 34.772 87.1481 34.9737 87.4781 35.377C87.8155 35.773 87.9841 36.3817 87.9841 37.203C87.9841 38.0243 87.8155 38.6403 87.4781 39.051C87.1481 39.4617 86.6971 39.667 86.1251 39.667ZM91.5921 34.772L87.1481 43.132H86.2681L90.7231 34.772H91.5921ZM86.1251 38.985C86.4331 38.985 86.6825 38.8493 86.8731 38.578C87.0638 38.2993 87.1591 37.841 87.1591 37.203C87.1591 36.5723 87.0638 36.125 86.8731 35.861C86.6825 35.5897 86.4331 35.454 86.1251 35.454C85.8171 35.454 85.5678 35.5897 85.3771 35.861C85.1938 36.1323 85.1021 36.5797 85.1021 37.203C85.1021 37.8337 85.1975 38.2883 85.3881 38.567C85.5788 38.8457 85.8245 38.985 86.1251 38.985ZM91.7131 43.11C91.1558 43.11 90.7048 42.9083 90.3601 42.505C90.0228 42.0943 89.8541 41.4783 89.8541 40.657C89.8541 39.8357 90.0228 39.227 90.3601 38.831C90.7048 38.4277 91.1558 38.226 91.7131 38.226C92.2705 38.226 92.7178 38.4277 93.0551 38.831C93.3925 39.227 93.5611 39.8357 93.5611 40.657C93.5611 41.4783 93.3925 42.0943 93.0551 42.505C92.7178 42.9083 92.2705 43.11 91.7131 43.11ZM91.7131 42.428C92.0211 42.428 92.2668 42.2923 92.4501 42.021C92.6408 41.7497 92.7361 41.295 92.7361 40.657C92.7361 40.0263 92.6408 39.5753 92.4501 39.304C92.2668 39.0327 92.0211 38.897 91.7131 38.897C91.4051 38.897 91.1558 39.0327 90.9651 39.304C90.7745 39.5753 90.6791 40.0263 90.6791 40.657C90.6791 41.2877 90.7745 41.7423 90.9651 42.021C91.1558 42.2923 91.4051 42.428 91.7131 42.428Z" fill="black" fill-opacity="0.6"/>
<path d="M8.54413 68.336V64.497H15.2101V68.336H8.54413ZM9.42413 65.223V67.621H14.3191V65.223H9.42413ZM12.3061 70.415V73.803H11.4041V70.415H7.40013V69.678H16.3541V70.415H12.3061ZM26.6493 67.621H25.1863V71.086H24.2843V63.947H25.1863V66.873H26.6493V67.621ZM23.3383 68.996C23.0009 69.062 22.6673 69.117 22.3373 69.161C22.0146 69.205 21.6736 69.2417 21.3143 69.271C20.9549 69.293 20.5663 69.3113 20.1483 69.326C19.7376 69.3333 19.2719 69.337 18.7513 69.337H17.9813V64.805H22.3483V65.531H18.8833V68.6C19.3673 68.6 19.8073 68.5963 20.2033 68.589C20.5993 68.5743 20.9659 68.556 21.3033 68.534C21.6479 68.512 21.9743 68.479 22.2823 68.435C22.5976 68.391 22.9166 68.336 23.2393 68.27L23.3383 68.996ZM25.6263 72.857V73.594H19.0483V70.371H19.9503V72.857H25.6263ZM28.0344 65.465V64.794H30.4544V63.859H31.3564V64.794H33.7984V65.465H28.0344ZM34.8214 70.602V63.969H35.7234V70.602H34.8214ZM34.0844 69.755C33.5491 69.843 33.0027 69.9127 32.4454 69.964C31.8954 70.0153 31.3491 70.0557 30.8064 70.085C30.2711 70.107 29.7504 70.1217 29.2444 70.129C28.7384 70.1363 28.2654 70.14 27.8254 70.14L27.6934 69.447C28.1114 69.447 28.5477 69.447 29.0024 69.447C29.4644 69.4397 29.9484 69.4287 30.4544 69.414V68.655C29.8751 68.5963 29.4167 68.4497 29.0794 68.215C28.7421 67.973 28.5734 67.654 28.5734 67.258C28.5734 67.038 28.6284 66.84 28.7384 66.664C28.8557 66.4807 29.0134 66.3303 29.2114 66.213C29.4167 66.0883 29.6624 65.993 29.9484 65.927C30.2344 65.861 30.5534 65.828 30.9054 65.828C31.6167 65.828 32.1851 65.9563 32.6104 66.213C33.0431 66.4623 33.2594 66.8107 33.2594 67.258C33.2594 67.654 33.0907 67.973 32.7534 68.215C32.4161 68.457 31.9504 68.6037 31.3564 68.655V69.37C31.8184 69.348 32.2694 69.3187 32.7094 69.282C33.1567 69.238 33.6004 69.1867 34.0404 69.128L34.0844 69.755ZM29.4204 67.258C29.4204 67.5 29.5561 67.6943 29.8274 67.841C30.0987 67.9803 30.4581 68.05 30.9054 68.05C31.3674 68.05 31.7304 67.9803 31.9944 67.841C32.2657 67.6943 32.4014 67.5 32.4014 67.258C32.4014 67.0087 32.2657 66.8143 31.9944 66.675C31.7304 66.5283 31.3674 66.455 30.9054 66.455C30.4581 66.455 30.0987 66.5283 29.8274 66.675C29.5561 66.8143 29.4204 67.0087 29.4204 67.258ZM32.5114 70.756C33.5747 70.756 34.3851 70.8843 34.9424 71.141C35.4997 71.3977 35.7784 71.779 35.7784 72.285C35.7784 72.791 35.4997 73.1687 34.9424 73.418C34.3851 73.6747 33.5747 73.803 32.5114 73.803C31.4407 73.803 30.6267 73.6747 30.0694 73.418C29.5121 73.1687 29.2334 72.791 29.2334 72.285C29.2334 71.779 29.5121 71.3977 30.0694 71.141C30.6267 70.8843 31.4407 70.756 32.5114 70.756ZM32.5114 73.132C33.2887 73.132 33.8754 73.0623 34.2714 72.923C34.6747 72.7763 34.8764 72.5637 34.8764 72.285C34.8764 72.0063 34.6747 71.7937 34.2714 71.647C33.8681 71.5003 33.2777 71.427 32.5004 71.427C31.7231 71.427 31.1327 71.5003 30.7294 71.647C30.3334 71.7937 30.1354 72.0063 30.1354 72.285C30.1354 72.5637 30.3371 72.7763 30.7404 72.923C31.1437 73.0623 31.7341 73.132 32.5114 73.132ZM46.8875 67.621H45.4245V71.086H44.5225V63.947H45.4245V66.873H46.8875V67.621ZM43.5765 68.996C43.2392 69.062 42.9055 69.117 42.5755 69.161C42.2529 69.205 41.9119 69.2417 41.5525 69.271C41.1932 69.293 40.8045 69.3113 40.3865 69.326C39.9759 69.3333 39.5102 69.337 38.9895 69.337H38.2195V64.805H42.5865V65.531H39.1215V68.6C39.6055 68.6 40.0455 68.5963 40.4415 68.589C40.8375 68.5743 41.2042 68.556 41.5415 68.534C41.8862 68.512 42.2125 68.479 42.5205 68.435C42.8359 68.391 43.1549 68.336 43.4775 68.27L43.5765 68.996ZM45.8645 72.857V73.594H39.2865V70.371H40.1885V72.857H45.8645ZM55.5506 73H51.1946V72.186H52.9876V66.224C52.9876 66.18 52.9913 66.1397 52.9986 66.103L51.5356 67.412L50.9966 66.763L53.1636 64.893H53.9666V72.186H55.5506V73ZM62.5764 68.985C62.5764 69.6963 62.4994 70.316 62.3454 70.844C62.1914 71.3647 61.9824 71.7973 61.7184 72.142C61.4544 72.4867 61.1427 72.7433 60.7834 72.912C60.424 73.0733 60.0354 73.154 59.6174 73.154C59.1994 73.154 58.8107 73.0733 58.4514 72.912C58.092 72.7433 57.7767 72.4867 57.5054 72.142C57.2414 71.7973 57.0324 71.3647 56.8784 70.844C56.7317 70.316 56.6584 69.6963 56.6584 68.985C56.6584 68.2663 56.7317 67.6467 56.8784 67.126C57.0324 66.598 57.2414 66.1617 57.5054 65.817C57.7767 65.4723 58.092 65.2193 58.4514 65.058C58.8107 64.8893 59.1994 64.805 59.6174 64.805C60.0354 64.805 60.424 64.8893 60.7834 65.058C61.1427 65.2193 61.4544 65.4723 61.7184 65.817C61.9824 66.1617 62.1914 66.598 62.3454 67.126C62.4994 67.6467 62.5764 68.2663 62.5764 68.985ZM61.5644 68.985C61.5644 68.3543 61.5094 67.8263 61.3994 67.401C61.2967 66.9683 61.1537 66.6237 60.9704 66.367C60.7944 66.103 60.589 65.916 60.3544 65.806C60.1197 65.6887 59.874 65.63 59.6174 65.63C59.3607 65.63 59.115 65.6887 58.8804 65.806C58.6457 65.916 58.4404 66.103 58.2644 66.367C58.0884 66.6237 57.9454 66.9683 57.8354 67.401C57.7327 67.8263 57.6814 68.3543 57.6814 68.985C57.6814 69.6083 57.7327 70.1363 57.8354 70.569C57.9454 70.9943 58.0884 71.339 58.2644 71.603C58.4404 71.867 58.6457 72.0577 58.8804 72.175C59.115 72.285 59.3607 72.34 59.6174 72.34C59.874 72.34 60.1197 72.285 60.3544 72.175C60.589 72.0577 60.7944 71.867 60.9704 71.603C61.1537 71.339 61.2967 70.9943 61.3994 70.569C61.5094 70.1363 61.5644 69.6083 61.5644 68.985ZM65.1251 69.667C64.5678 69.667 64.1205 69.4617 63.7831 69.051C63.4531 68.6403 63.2881 68.0243 63.2881 67.203C63.2881 66.3817 63.4531 65.773 63.7831 65.377C64.1205 64.9737 64.5678 64.772 65.1251 64.772C65.6971 64.772 66.1481 64.9737 66.4781 65.377C66.8155 65.773 66.9841 66.3817 66.9841 67.203C66.9841 68.0243 66.8155 68.6403 66.4781 69.051C66.1481 69.4617 65.6971 69.667 65.1251 69.667ZM70.5921 64.772L66.1481 73.132H65.2681L69.7231 64.772H70.5921ZM65.1251 68.985C65.4331 68.985 65.6825 68.8493 65.8731 68.578C66.0638 68.2993 66.1591 67.841 66.1591 67.203C66.1591 66.5723 66.0638 66.125 65.8731 65.861C65.6825 65.5897 65.4331 65.454 65.1251 65.454C64.8171 65.454 64.5678 65.5897 64.3771 65.861C64.1938 66.1323 64.1021 66.5797 64.1021 67.203C64.1021 67.8337 64.1975 68.2883 64.3881 68.567C64.5788 68.8457 64.8245 68.985 65.1251 68.985ZM70.7131 73.11C70.1558 73.11 69.7048 72.9083 69.3601 72.505C69.0228 72.0943 68.8541 71.4783 68.8541 70.657C68.8541 69.8357 69.0228 69.227 69.3601 68.831C69.7048 68.4277 70.1558 68.226 70.7131 68.226C71.2705 68.226 71.7178 68.4277 72.0551 68.831C72.3925 69.227 72.5611 69.8357 72.5611 70.657C72.5611 71.4783 72.3925 72.0943 72.0551 72.505C71.7178 72.9083 71.2705 73.11 70.7131 73.11ZM70.7131 72.428C71.0211 72.428 71.2668 72.2923 71.4501 72.021C71.6408 71.7497 71.7361 71.295 71.7361 70.657C71.7361 70.0263 71.6408 69.5753 71.4501 69.304C71.2668 69.0327 71.0211 68.897 70.7131 68.897C70.4051 68.897 70.1558 69.0327 69.9651 69.304C69.7745 69.5753 69.6791 70.0263 69.6791 70.657C69.6791 71.2877 69.7745 71.7423 69.9651 72.021C70.1558 72.2923 70.4051 72.428 70.7131 72.428Z" fill="black" fill-opacity="0.6"/>
<path d="M37.0644 117.814H36.1954V112.677H34.8974V117.33H34.0504V108.167H34.8974V111.929H36.1954V107.936H37.0644V117.814ZM31.5644 110.62C31.5644 111.075 31.6084 111.511 31.6964 111.929C31.7844 112.347 31.9164 112.736 32.0924 113.095C32.2684 113.447 32.4884 113.766 32.7524 114.052C33.0164 114.331 33.3244 114.562 33.6764 114.745L33.1484 115.438C32.6644 115.167 32.2537 114.804 31.9164 114.349C31.5791 113.894 31.3224 113.37 31.1464 112.776C30.8017 114.162 30.1197 115.163 29.1004 115.779L28.5504 115.097C28.9024 114.899 29.2104 114.65 29.4744 114.349C29.7457 114.041 29.9694 113.696 30.1454 113.315C30.3287 112.926 30.4644 112.505 30.5524 112.05C30.6477 111.595 30.6954 111.119 30.6954 110.62V109.85H28.7814V109.113H33.3574V109.85H31.5644V110.62ZM47.1285 117.803H46.2595V112.842H44.9945V117.33H44.1475V108.167H44.9945V112.105H46.2595V107.936H47.1285V117.803ZM43.6525 109.63V110.367H38.7575V109.63H40.7595V108.233H41.6505V109.63H43.6525ZM41.2105 111.027C41.5185 111.027 41.8009 111.082 42.0575 111.192C42.3142 111.302 42.5342 111.456 42.7175 111.654C42.9082 111.852 43.0549 112.09 43.1575 112.369C43.2675 112.64 43.3225 112.941 43.3225 113.271C43.3225 113.608 43.2675 113.916 43.1575 114.195C43.0549 114.466 42.9082 114.701 42.7175 114.899C42.5342 115.097 42.3142 115.251 42.0575 115.361C41.8009 115.471 41.5185 115.526 41.2105 115.526C40.9025 115.526 40.6202 115.471 40.3635 115.361C40.1069 115.251 39.8832 115.097 39.6925 114.899C39.5092 114.701 39.3625 114.466 39.2525 114.195C39.1499 113.916 39.0985 113.608 39.0985 113.271C39.0985 112.941 39.1499 112.64 39.2525 112.369C39.3625 112.09 39.5092 111.852 39.6925 111.654C39.8832 111.456 40.1069 111.302 40.3635 111.192C40.6202 111.082 40.9025 111.027 41.2105 111.027ZM41.2105 114.778C41.4012 114.778 41.5772 114.741 41.7385 114.668C41.8999 114.595 42.0355 114.492 42.1455 114.36C42.2629 114.221 42.3545 114.059 42.4205 113.876C42.4865 113.693 42.5195 113.491 42.5195 113.271C42.5195 113.058 42.4865 112.86 42.4205 112.677C42.3545 112.494 42.2629 112.336 42.1455 112.204C42.0355 112.072 41.8999 111.969 41.7385 111.896C41.5772 111.823 41.4012 111.786 41.2105 111.786C40.8145 111.786 40.4955 111.925 40.2535 112.204C40.0189 112.475 39.9015 112.831 39.9015 113.271C39.9015 113.491 39.9345 113.693 40.0005 113.876C40.0665 114.059 40.1545 114.221 40.2645 114.36C40.3819 114.492 40.5212 114.595 40.6825 114.668C40.8439 114.741 41.0199 114.778 41.2105 114.778ZM56.5506 117H52.1946V116.186H53.9876V110.224C53.9876 110.18 53.9913 110.14 53.9986 110.103L52.5356 111.412L51.9966 110.763L54.1636 108.893H54.9666V116.186H56.5506V117ZM63.3124 117H57.9004V116.296L60.6834 113.623C60.896 113.396 61.0904 113.183 61.2664 112.985C61.4497 112.78 61.6037 112.574 61.7284 112.369C61.8604 112.164 61.963 111.958 62.0364 111.753C62.1097 111.54 62.1464 111.317 62.1464 111.082C62.1317 110.598 61.985 110.242 61.7064 110.015C61.4277 109.78 61.0794 109.663 60.6614 109.663C60.434 109.663 60.2214 109.703 60.0234 109.784C59.8254 109.857 59.653 109.967 59.5064 110.114C59.367 110.253 59.257 110.418 59.1764 110.609C59.0957 110.8 59.0554 111.012 59.0554 111.247L58.0654 111.082C58.1167 110.708 58.2194 110.382 58.3734 110.103C58.5274 109.817 58.718 109.579 58.9454 109.388C59.18 109.19 59.4477 109.043 59.7484 108.948C60.049 108.845 60.3717 108.794 60.7164 108.794C61.061 108.794 61.38 108.845 61.6734 108.948C61.974 109.051 62.2344 109.201 62.4544 109.399C62.6744 109.59 62.8467 109.824 62.9714 110.103C63.096 110.382 63.1584 110.701 63.1584 111.06C63.1584 111.361 63.1144 111.639 63.0264 111.896C62.9384 112.153 62.8174 112.402 62.6634 112.644C62.5094 112.879 62.3297 113.11 62.1244 113.337C61.919 113.557 61.7027 113.781 61.4754 114.008L59.2204 116.241C59.3744 116.197 59.5284 116.164 59.6824 116.142C59.8437 116.12 59.994 116.109 60.1334 116.109H63.3124V117ZM66.1251 113.667C65.5678 113.667 65.1205 113.462 64.7831 113.051C64.4531 112.64 64.2881 112.024 64.2881 111.203C64.2881 110.382 64.4531 109.773 64.7831 109.377C65.1205 108.974 65.5678 108.772 66.1251 108.772C66.6971 108.772 67.1481 108.974 67.4781 109.377C67.8155 109.773 67.9841 110.382 67.9841 111.203C67.9841 112.024 67.8155 112.64 67.4781 113.051C67.1481 113.462 66.6971 113.667 66.1251 113.667ZM71.5921 108.772L67.1481 117.132H66.2681L70.7231 108.772H71.5921ZM66.1251 112.985C66.4331 112.985 66.6825 112.849 66.8731 112.578C67.0638 112.299 67.1591 111.841 67.1591 111.203C67.1591 110.572 67.0638 110.125 66.8731 109.861C66.6825 109.59 66.4331 109.454 66.1251 109.454C65.8171 109.454 65.5678 109.59 65.3771 109.861C65.1938 110.132 65.1021 110.58 65.1021 111.203C65.1021 111.834 65.1975 112.288 65.3881 112.567C65.5788 112.846 65.8245 112.985 66.1251 112.985ZM71.7131 117.11C71.1558 117.11 70.7048 116.908 70.3601 116.505C70.0228 116.094 69.8541 115.478 69.8541 114.657C69.8541 113.836 70.0228 113.227 70.3601 112.831C70.7048 112.428 71.1558 112.226 71.7131 112.226C72.2705 112.226 72.7178 112.428 73.0551 112.831C73.3925 113.227 73.5611 113.836 73.5611 114.657C73.5611 115.478 73.3925 116.094 73.0551 116.505C72.7178 116.908 72.2705 117.11 71.7131 117.11ZM71.7131 116.428C72.0211 116.428 72.2668 116.292 72.4501 116.021C72.6408 115.75 72.7361 115.295 72.7361 114.657C72.7361 114.026 72.6408 113.575 72.4501 113.304C72.2668 113.033 72.0211 112.897 71.7131 112.897C71.4051 112.897 71.1558 113.033 70.9651 113.304C70.7745 113.575 70.6791 114.026 70.6791 114.657C70.6791 115.288 70.7745 115.742 70.9651 116.021C71.1558 116.292 71.4051 116.428 71.7131 116.428Z" fill="black" fill-opacity="0.6"/>
<path d="M60.7454 148.814H59.8434V138.947H60.7454V148.814ZM57.8524 140.014C57.8524 140.725 57.7681 141.415 57.5994 142.082C57.4307 142.742 57.1594 143.369 56.7854 143.963C56.4187 144.55 55.9457 145.1 55.3664 145.613C54.7871 146.119 54.0867 146.574 53.2654 146.977L52.7814 146.24C54.1087 145.609 55.1097 144.828 55.7844 143.897C56.4591 142.966 56.8441 141.913 56.9394 140.74H53.2324V140.014H57.8524ZM71.8875 142.247H70.4245V144.931H69.5225V138.958H70.4245V141.499H71.8875V142.247ZM67.9935 144.293C67.4582 144.095 66.9852 143.802 66.5745 143.413C66.1712 143.024 65.8595 142.577 65.6395 142.071C65.4342 142.65 65.1189 143.156 64.6935 143.589C64.2755 144.022 63.7769 144.348 63.1975 144.568L62.7245 143.853C63.0985 143.721 63.4359 143.541 63.7365 143.314C64.0372 143.079 64.2939 142.815 64.5065 142.522C64.7265 142.221 64.8915 141.899 65.0015 141.554C65.1189 141.202 65.1775 140.839 65.1775 140.465V139.453H66.0795V140.542C66.0795 140.872 66.1382 141.195 66.2555 141.51C66.3729 141.825 66.5342 142.119 66.7395 142.39C66.9522 142.654 67.2052 142.892 67.4985 143.105C67.7919 143.31 68.1145 143.472 68.4665 143.589L67.9935 144.293ZM67.2895 145.206C67.7882 145.206 68.2355 145.246 68.6315 145.327C69.0349 145.408 69.3759 145.525 69.6545 145.679C69.9405 145.833 70.1569 146.024 70.3035 146.251C70.4575 146.471 70.5345 146.724 70.5345 147.01C70.5345 147.296 70.4575 147.553 70.3035 147.78C70.1569 148 69.9405 148.183 69.6545 148.33C69.3759 148.484 69.0349 148.601 68.6315 148.682C68.2355 148.763 67.7882 148.803 67.2895 148.803C66.7835 148.803 66.3289 148.763 65.9255 148.682C65.5295 148.601 65.1885 148.484 64.9025 148.33C64.6239 148.183 64.4075 148 64.2535 147.78C64.1069 147.553 64.0335 147.296 64.0335 147.01C64.0335 146.724 64.1069 146.471 64.2535 146.251C64.4075 146.024 64.6239 145.833 64.9025 145.679C65.1885 145.525 65.5295 145.408 65.9255 145.327C66.3289 145.246 66.7835 145.206 67.2895 145.206ZM67.2895 148.099C68.0229 148.099 68.5949 148.007 69.0055 147.824C69.4235 147.633 69.6325 147.362 69.6325 147.01C69.6325 146.658 69.4235 146.387 69.0055 146.196C68.5949 146.005 68.0229 145.91 67.2895 145.91C66.5562 145.91 65.9805 146.005 65.5625 146.196C65.1445 146.387 64.9355 146.658 64.9355 147.01C64.9355 147.362 65.1445 147.633 65.5625 147.824C65.9805 148.007 66.5562 148.099 67.2895 148.099ZM80.5506 148H76.1946V147.186H77.9876V141.224C77.9876 141.18 77.9913 141.14 77.9986 141.103L76.5356 142.412L75.9966 141.763L78.1636 139.893H78.9666V147.186H80.5506V148ZM87.3124 148H81.9004V147.296L84.6834 144.623C84.896 144.396 85.0904 144.183 85.2664 143.985C85.4497 143.78 85.6037 143.574 85.7284 143.369C85.8604 143.164 85.963 142.958 86.0364 142.753C86.1097 142.54 86.1464 142.317 86.1464 142.082C86.1317 141.598 85.985 141.242 85.7064 141.015C85.4277 140.78 85.0794 140.663 84.6614 140.663C84.434 140.663 84.2214 140.703 84.0234 140.784C83.8254 140.857 83.653 140.967 83.5064 141.114C83.367 141.253 83.257 141.418 83.1764 141.609C83.0957 141.8 83.0554 142.012 83.0554 142.247L82.0654 142.082C82.1167 141.708 82.2194 141.382 82.3734 141.103C82.5274 140.817 82.718 140.579 82.9454 140.388C83.18 140.19 83.4477 140.043 83.7484 139.948C84.049 139.845 84.3717 139.794 84.7164 139.794C85.061 139.794 85.38 139.845 85.6734 139.948C85.974 140.051 86.2344 140.201 86.4544 140.399C86.6744 140.59 86.8467 140.824 86.9714 141.103C87.096 141.382 87.1584 141.701 87.1584 142.06C87.1584 142.361 87.1144 142.639 87.0264 142.896C86.9384 143.153 86.8174 143.402 86.6634 143.644C86.5094 143.879 86.3297 144.11 86.1244 144.337C85.919 144.557 85.7027 144.781 85.4754 145.008L83.2204 147.241C83.3744 147.197 83.5284 147.164 83.6824 147.142C83.8437 147.12 83.994 147.109 84.1334 147.109H87.3124V148ZM90.1251 144.667C89.5678 144.667 89.1205 144.462 88.7831 144.051C88.4531 143.64 88.2881 143.024 88.2881 142.203C88.2881 141.382 88.4531 140.773 88.7831 140.377C89.1205 139.974 89.5678 139.772 90.1251 139.772C90.6971 139.772 91.1481 139.974 91.4781 140.377C91.8155 140.773 91.9841 141.382 91.9841 142.203C91.9841 143.024 91.8155 143.64 91.4781 144.051C91.1481 144.462 90.6971 144.667 90.1251 144.667ZM95.5921 139.772L91.1481 148.132H90.2681L94.7231 139.772H95.5921ZM90.1251 143.985C90.4331 143.985 90.6825 143.849 90.8731 143.578C91.0638 143.299 91.1591 142.841 91.1591 142.203C91.1591 141.572 91.0638 141.125 90.8731 140.861C90.6825 140.59 90.4331 140.454 90.1251 140.454C89.8171 140.454 89.5678 140.59 89.3771 140.861C89.1938 141.132 89.1021 141.58 89.1021 142.203C89.1021 142.834 89.1975 143.288 89.3881 143.567C89.5788 143.846 89.8245 143.985 90.1251 143.985ZM95.7131 148.11C95.1558 148.11 94.7048 147.908 94.3601 147.505C94.0228 147.094 93.8541 146.478 93.8541 145.657C93.8541 144.836 94.0228 144.227 94.3601 143.831C94.7048 143.428 95.1558 143.226 95.7131 143.226C96.2705 143.226 96.7178 143.428 97.0551 143.831C97.3925 144.227 97.5611 144.836 97.5611 145.657C97.5611 146.478 97.3925 147.094 97.0551 147.505C96.7178 147.908 96.2705 148.11 95.7131 148.11ZM95.7131 147.428C96.0211 147.428 96.2668 147.292 96.4501 147.021C96.6408 146.75 96.7361 146.295 96.7361 145.657C96.7361 145.026 96.6408 144.575 96.4501 144.304C96.2668 144.033 96.0211 143.897 95.7131 143.897C95.4051 143.897 95.1558 144.033 94.9651 144.304C94.7745 144.575 94.6791 145.026 94.6791 145.657C94.6791 146.288 94.7745 146.742 94.9651 147.021C95.1558 147.292 95.4051 147.428 95.7131 147.428Z" fill="black" fill-opacity="0.6"/>
<path d="M187.929 144.843V139.145H188.787V141.631H190.041V138.947H190.91V145.195H190.041V142.368H188.787V144.843H187.929ZM182.528 140.839V140.124H184.596V139.024H185.487V140.124H187.544V140.839H182.528ZM187.148 143.039C187.148 143.296 187.097 143.53 186.994 143.743C186.891 143.948 186.748 144.124 186.565 144.271C186.382 144.418 186.158 144.531 185.894 144.612C185.637 144.693 185.355 144.733 185.047 144.733C184.739 144.733 184.453 144.693 184.189 144.612C183.932 144.531 183.709 144.418 183.518 144.271C183.335 144.124 183.192 143.948 183.089 143.743C182.986 143.53 182.935 143.296 182.935 143.039C182.935 142.782 182.986 142.551 183.089 142.346C183.192 142.141 183.335 141.965 183.518 141.818C183.709 141.671 183.932 141.558 184.189 141.477C184.453 141.396 184.739 141.356 185.047 141.356C185.355 141.356 185.637 141.396 185.894 141.477C186.158 141.558 186.382 141.671 186.565 141.818C186.748 141.965 186.891 142.141 186.994 142.346C187.097 142.551 187.148 142.782 187.148 143.039ZM183.749 143.039C183.749 143.347 183.866 143.596 184.101 143.787C184.336 143.97 184.651 144.062 185.047 144.062C185.443 144.062 185.758 143.97 185.993 143.787C186.228 143.596 186.345 143.347 186.345 143.039C186.345 142.731 186.228 142.485 185.993 142.302C185.758 142.119 185.443 142.027 185.047 142.027C184.651 142.027 184.336 142.119 184.101 142.302C183.866 142.485 183.749 142.731 183.749 143.039ZM187.665 145.36C188.178 145.36 188.637 145.4 189.04 145.481C189.451 145.554 189.799 145.664 190.085 145.811C190.371 145.958 190.587 146.137 190.734 146.35C190.888 146.563 190.965 146.808 190.965 147.087C190.965 147.358 190.888 147.604 190.734 147.824C190.587 148.037 190.371 148.213 190.085 148.352C189.799 148.499 189.451 148.609 189.04 148.682C188.637 148.763 188.178 148.803 187.665 148.803C187.152 148.803 186.69 148.763 186.279 148.682C185.876 148.609 185.531 148.499 185.245 148.352C184.959 148.213 184.739 148.037 184.585 147.824C184.438 147.604 184.365 147.358 184.365 147.087C184.365 146.808 184.438 146.563 184.585 146.35C184.739 146.137 184.959 145.958 185.245 145.811C185.531 145.664 185.876 145.554 186.279 145.481C186.69 145.4 187.152 145.36 187.665 145.36ZM187.665 148.11C188.42 148.11 189.007 148.022 189.425 147.846C189.85 147.67 190.063 147.417 190.063 147.087C190.063 146.757 189.85 146.504 189.425 146.328C189.007 146.145 188.42 146.053 187.665 146.053C186.91 146.053 186.319 146.145 185.894 146.328C185.469 146.504 185.256 146.757 185.256 147.087C185.256 147.417 185.469 147.67 185.894 147.846C186.319 148.022 186.91 148.11 187.665 148.11ZM200.292 143.699V148.814H199.39V138.958H200.292V142.951H201.92V143.699H200.292ZM196.013 141.576C196.013 142.009 196.079 142.441 196.211 142.874C196.343 143.299 196.523 143.699 196.75 144.073C196.977 144.447 197.241 144.784 197.542 145.085C197.85 145.386 198.176 145.624 198.521 145.8L197.96 146.515C197.696 146.376 197.443 146.203 197.201 145.998C196.959 145.785 196.735 145.547 196.53 145.283C196.332 145.019 196.149 144.733 195.98 144.425C195.819 144.11 195.683 143.783 195.573 143.446C195.36 144.179 195.038 144.832 194.605 145.404C194.172 145.969 193.677 146.405 193.12 146.713L192.581 145.987C192.933 145.804 193.263 145.554 193.571 145.239C193.886 144.924 194.158 144.572 194.385 144.183C194.612 143.787 194.792 143.365 194.924 142.918C195.056 142.471 195.122 142.023 195.122 141.576V139.805H196.013V141.576ZM210.484 148H206.128V147.186H207.921V141.224C207.921 141.18 207.925 141.14 207.932 141.103L206.469 142.412L205.93 141.763L208.097 139.893H208.9V147.186H210.484V148ZM213.352 142.94C213.711 142.845 214.096 142.797 214.507 142.797C214.932 142.797 215.306 142.859 215.629 142.984C215.959 143.109 216.234 143.281 216.454 143.501C216.674 143.721 216.839 143.981 216.949 144.282C217.066 144.583 217.125 144.909 217.125 145.261C217.125 145.686 217.048 146.075 216.894 146.427C216.747 146.779 216.542 147.08 216.278 147.329C216.014 147.571 215.702 147.762 215.343 147.901C214.991 148.033 214.61 148.099 214.199 148.099C213.715 148.099 213.275 148.015 212.879 147.846C212.49 147.67 212.171 147.465 211.922 147.23L212.461 146.493C212.703 146.698 212.978 146.867 213.286 146.999C213.594 147.131 213.913 147.197 214.243 147.197C214.522 147.197 214.778 147.157 215.013 147.076C215.248 146.988 215.449 146.863 215.618 146.702C215.787 146.541 215.919 146.343 216.014 146.108C216.109 145.873 216.157 145.609 216.157 145.316C216.157 144.788 215.996 144.377 215.673 144.084C215.35 143.791 214.899 143.644 214.32 143.644C214.107 143.644 213.891 143.67 213.671 143.721C213.458 143.765 213.235 143.827 213 143.908L212.351 143.721L213.011 139.904H216.872V140.828H213.715L213.352 142.94ZM220.059 144.667C219.501 144.667 219.054 144.462 218.717 144.051C218.387 143.64 218.222 143.024 218.222 142.203C218.222 141.382 218.387 140.773 218.717 140.377C219.054 139.974 219.501 139.772 220.059 139.772C220.631 139.772 221.082 139.974 221.412 140.377C221.749 140.773 221.918 141.382 221.918 142.203C221.918 143.024 221.749 143.64 221.412 144.051C221.082 144.462 220.631 144.667 220.059 144.667ZM225.526 139.772L221.082 148.132H220.202L224.657 139.772H225.526ZM220.059 143.985C220.367 143.985 220.616 143.849 220.807 143.578C220.997 143.299 221.093 142.841 221.093 142.203C221.093 141.572 220.997 141.125 220.807 140.861C220.616 140.59 220.367 140.454 220.059 140.454C219.751 140.454 219.501 140.59 219.311 140.861C219.127 141.132 219.036 141.58 219.036 142.203C219.036 142.834 219.131 143.288 219.322 143.567C219.512 143.846 219.758 143.985 220.059 143.985ZM225.647 148.11C225.089 148.11 224.638 147.908 224.294 147.505C223.956 147.094 223.788 146.478 223.788 145.657C223.788 144.836 223.956 144.227 224.294 143.831C224.638 143.428 225.089 143.226 225.647 143.226C226.204 143.226 226.651 143.428 226.989 143.831C227.326 144.227 227.495 144.836 227.495 145.657C227.495 146.478 227.326 147.094 226.989 147.505C226.651 147.908 226.204 148.11 225.647 148.11ZM225.647 147.428C225.955 147.428 226.2 147.292 226.384 147.021C226.574 146.75 226.67 146.295 226.67 145.657C226.67 145.026 226.574 144.575 226.384 144.304C226.2 144.033 225.955 143.897 225.647 143.897C225.339 143.897 225.089 144.033 224.899 144.304C224.708 144.575 224.613 145.026 224.613 145.657C224.613 146.288 224.708 146.742 224.899 147.021C225.089 147.292 225.339 147.428 225.647 147.428Z" fill="black" fill-opacity="0.6"/>
<path d="M207.65 99.179V98.453H214.371V99.289C214.371 99.685 214.36 100.092 214.338 100.51C214.316 100.928 214.235 101.39 214.096 101.896L213.216 101.797C213.348 101.291 213.425 100.844 213.447 100.455C213.469 100.059 213.48 99.6703 213.48 99.289V99.179H207.65ZM215.482 103.282H206.605V102.545H210.246V100.653H211.148V102.545H215.482V103.282ZM211.005 104.184C211.533 104.184 212.006 104.224 212.424 104.305C212.849 104.386 213.212 104.507 213.513 104.668C213.814 104.822 214.045 105.013 214.206 105.24C214.367 105.46 214.448 105.713 214.448 105.999C214.448 106.278 214.367 106.531 214.206 106.758C214.045 106.978 213.814 107.165 213.513 107.319C213.212 107.473 212.849 107.59 212.424 107.671C212.006 107.759 211.533 107.803 211.005 107.803C210.477 107.803 210 107.759 209.575 107.671C209.157 107.59 208.798 107.473 208.497 107.319C208.204 107.165 207.976 106.978 207.815 106.758C207.654 106.531 207.573 106.278 207.573 105.999C207.573 105.713 207.654 105.46 207.815 105.24C207.976 105.013 208.204 104.822 208.497 104.668C208.798 104.507 209.157 104.386 209.575 104.305C210 104.224 210.477 104.184 211.005 104.184ZM211.005 107.099C211.782 107.099 212.398 107.004 212.853 106.813C213.315 106.622 213.546 106.351 213.546 105.999C213.546 105.647 213.315 105.372 212.853 105.174C212.398 104.976 211.782 104.877 211.005 104.877C210.235 104.877 209.619 104.976 209.157 105.174C208.702 105.372 208.475 105.647 208.475 105.999C208.475 106.344 208.702 106.615 209.157 106.813C209.619 107.004 210.235 107.099 211.005 107.099ZM224.292 102.699V107.814H223.39V97.958H224.292V101.951H225.92V102.699H224.292ZM220.013 100.576C220.013 101.009 220.079 101.441 220.211 101.874C220.343 102.299 220.523 102.699 220.75 103.073C220.977 103.447 221.241 103.784 221.542 104.085C221.85 104.386 222.176 104.624 222.521 104.8L221.96 105.515C221.696 105.376 221.443 105.203 221.201 104.998C220.959 104.785 220.735 104.547 220.53 104.283C220.332 104.019 220.149 103.733 219.98 103.425C219.819 103.11 219.683 102.783 219.573 102.446C219.36 103.179 219.038 103.832 218.605 104.404C218.172 104.969 217.677 105.405 217.12 105.713L216.581 104.987C216.933 104.804 217.263 104.554 217.571 104.239C217.886 103.924 218.158 103.572 218.385 103.183C218.612 102.787 218.792 102.365 218.924 101.918C219.056 101.471 219.122 101.023 219.122 100.576V98.805H220.013V100.576ZM234.484 107H230.128V106.186H231.921V100.224C231.921 100.18 231.925 100.14 231.932 100.103L230.469 101.412L229.93 100.763L232.097 98.893H232.9V106.186H234.484V107ZM241.312 99.586L237.671 107H236.56L239.849 100.411L240.223 99.795H236.01V98.937H241.312V99.586ZM244.059 103.667C243.501 103.667 243.054 103.462 242.717 103.051C242.387 102.64 242.222 102.024 242.222 101.203C242.222 100.382 242.387 99.773 242.717 99.377C243.054 98.9737 243.501 98.772 244.059 98.772C244.631 98.772 245.082 98.9737 245.412 99.377C245.749 99.773 245.918 100.382 245.918 101.203C245.918 102.024 245.749 102.64 245.412 103.051C245.082 103.462 244.631 103.667 244.059 103.667ZM249.526 98.772L245.082 107.132H244.202L248.657 98.772H249.526ZM244.059 102.985C244.367 102.985 244.616 102.849 244.807 102.578C244.997 102.299 245.093 101.841 245.093 101.203C245.093 100.572 244.997 100.125 244.807 99.861C244.616 99.5897 244.367 99.454 244.059 99.454C243.751 99.454 243.501 99.5897 243.311 99.861C243.127 100.132 243.036 100.58 243.036 101.203C243.036 101.834 243.131 102.288 243.322 102.567C243.512 102.846 243.758 102.985 244.059 102.985ZM249.647 107.11C249.089 107.11 248.638 106.908 248.294 106.505C247.956 106.094 247.788 105.478 247.788 104.657C247.788 103.836 247.956 103.227 248.294 102.831C248.638 102.428 249.089 102.226 249.647 102.226C250.204 102.226 250.651 102.428 250.989 102.831C251.326 103.227 251.495 103.836 251.495 104.657C251.495 105.478 251.326 106.094 250.989 106.505C250.651 106.908 250.204 107.11 249.647 107.11ZM249.647 106.428C249.955 106.428 250.2 106.292 250.384 106.021C250.574 105.75 250.67 105.295 250.67 104.657C250.67 104.026 250.574 103.575 250.384 103.304C250.2 103.033 249.955 102.897 249.647 102.897C249.339 102.897 249.089 103.033 248.899 103.304C248.708 103.575 248.613 104.026 248.613 104.657C248.613 105.288 248.708 105.742 248.899 106.021C249.089 106.292 249.339 106.428 249.647 106.428Z" fill="black" fill-opacity="0.6"/>
<rect x="195.5" y="20.5" width="61" height="19" stroke="#0068E6"/>
<path d="M211.173 29.699V34.814H210.271V24.958H211.173V28.951H212.801V29.699H211.173ZM206.894 27.576C206.894 28.0087 206.96 28.4413 207.092 28.874C207.224 29.2993 207.404 29.699 207.631 30.073C207.858 30.447 208.122 30.7843 208.423 31.085C208.731 31.3857 209.057 31.624 209.402 31.8L208.841 32.515C208.577 32.3757 208.324 32.2033 208.082 31.998C207.84 31.7853 207.616 31.547 207.411 31.283C207.213 31.019 207.03 30.733 206.861 30.425C206.7 30.1097 206.564 29.7833 206.454 29.446C206.241 30.1793 205.919 30.832 205.486 31.404C205.053 31.9687 204.558 32.405 204.001 32.713L203.462 31.987C203.814 31.8037 204.144 31.5543 204.452 31.239C204.767 30.9237 205.039 30.5717 205.266 30.183C205.493 29.787 205.673 29.3653 205.805 28.918C205.937 28.4707 206.003 28.0233 206.003 27.576V25.805H206.894V27.576ZM214.648 26.674V25.937H221.567V26.916C221.567 27.224 221.563 27.543 221.556 27.873C221.556 28.1957 221.545 28.544 221.523 28.918C221.501 29.2847 221.464 29.6807 221.413 30.106C221.362 30.524 221.288 30.9823 221.193 31.481L220.291 31.382C220.482 30.4433 220.592 29.611 220.621 28.885C220.65 28.159 220.665 27.5027 220.665 26.916V26.674H214.648ZM222.634 33.428H213.713V32.691H217.178V29.16H218.08V32.691H222.634V33.428ZM231.693 34H226.281V33.296L229.064 30.623C229.277 30.3957 229.471 30.183 229.647 29.985C229.831 29.7797 229.985 29.5743 230.109 29.369C230.241 29.1637 230.344 28.9583 230.417 28.753C230.491 28.5403 230.527 28.3167 230.527 28.082C230.513 27.598 230.366 27.2423 230.087 27.015C229.809 26.7803 229.46 26.663 229.042 26.663C228.815 26.663 228.602 26.7033 228.404 26.784C228.206 26.8573 228.034 26.9673 227.887 27.114C227.748 27.2533 227.638 27.4183 227.557 27.609C227.477 27.7997 227.436 28.0123 227.436 28.247L226.446 28.082C226.498 27.708 226.6 27.3817 226.754 27.103C226.908 26.817 227.099 26.5787 227.326 26.388C227.561 26.19 227.829 26.0433 228.129 25.948C228.43 25.8453 228.753 25.794 229.097 25.794C229.442 25.794 229.761 25.8453 230.054 25.948C230.355 26.0507 230.615 26.201 230.835 26.399C231.055 26.5897 231.228 26.8243 231.352 27.103C231.477 27.3817 231.539 27.7007 231.539 28.06C231.539 28.3607 231.495 28.6393 231.407 28.896C231.319 29.1527 231.198 29.402 231.044 29.644C230.89 29.8787 230.711 30.1097 230.505 30.337C230.3 30.557 230.084 30.7807 229.856 31.008L227.601 33.241C227.755 33.197 227.909 33.164 228.063 33.142C228.225 33.12 228.375 33.109 228.514 33.109H231.693V34ZM238.51 29.985C238.51 30.6963 238.433 31.316 238.279 31.844C238.125 32.3647 237.916 32.7973 237.652 33.142C237.388 33.4867 237.076 33.7433 236.717 33.912C236.358 34.0733 235.969 34.154 235.551 34.154C235.133 34.154 234.744 34.0733 234.385 33.912C234.026 33.7433 233.71 33.4867 233.439 33.142C233.175 32.7973 232.966 32.3647 232.812 31.844C232.665 31.316 232.592 30.6963 232.592 29.985C232.592 29.2663 232.665 28.6467 232.812 28.126C232.966 27.598 233.175 27.1617 233.439 26.817C233.71 26.4723 234.026 26.2193 234.385 26.058C234.744 25.8893 235.133 25.805 235.551 25.805C235.969 25.805 236.358 25.8893 236.717 26.058C237.076 26.2193 237.388 26.4723 237.652 26.817C237.916 27.1617 238.125 27.598 238.279 28.126C238.433 28.6467 238.51 29.2663 238.51 29.985ZM237.498 29.985C237.498 29.3543 237.443 28.8263 237.333 28.401C237.23 27.9683 237.087 27.6237 236.904 27.367C236.728 27.103 236.523 26.916 236.288 26.806C236.053 26.6887 235.808 26.63 235.551 26.63C235.294 26.63 235.049 26.6887 234.814 26.806C234.579 26.916 234.374 27.103 234.198 27.367C234.022 27.6237 233.879 27.9683 233.769 28.401C233.666 28.8263 233.615 29.3543 233.615 29.985C233.615 30.6083 233.666 31.1363 233.769 31.569C233.879 31.9943 234.022 32.339 234.198 32.603C234.374 32.867 234.579 33.0577 234.814 33.175C235.049 33.285 235.294 33.34 235.551 33.34C235.808 33.34 236.053 33.285 236.288 33.175C236.523 33.0577 236.728 32.867 236.904 32.603C237.087 32.339 237.23 31.9943 237.333 31.569C237.443 31.1363 237.498 30.6083 237.498 29.985ZM241.059 30.667C240.501 30.667 240.054 30.4617 239.717 30.051C239.387 29.6403 239.222 29.0243 239.222 28.203C239.222 27.3817 239.387 26.773 239.717 26.377C240.054 25.9737 240.501 25.772 241.059 25.772C241.631 25.772 242.082 25.9737 242.412 26.377C242.749 26.773 242.918 27.3817 242.918 28.203C242.918 29.0243 242.749 29.6403 242.412 30.051C242.082 30.4617 241.631 30.667 241.059 30.667ZM246.526 25.772L242.082 34.132H241.202L245.657 25.772H246.526ZM241.059 29.985C241.367 29.985 241.616 29.8493 241.807 29.578C241.997 29.2993 242.093 28.841 242.093 28.203C242.093 27.5723 241.997 27.125 241.807 26.861C241.616 26.5897 241.367 26.454 241.059 26.454C240.751 26.454 240.501 26.5897 240.311 26.861C240.127 27.1323 240.036 27.5797 240.036 28.203C240.036 28.8337 240.131 29.2883 240.322 29.567C240.512 29.8457 240.758 29.985 241.059 29.985ZM246.647 34.11C246.089 34.11 245.638 33.9083 245.294 33.505C244.956 33.0943 244.788 32.4783 244.788 31.657C244.788 30.8357 244.956 30.227 245.294 29.831C245.638 29.4277 246.089 29.226 246.647 29.226C247.204 29.226 247.651 29.4277 247.989 29.831C248.326 30.227 248.495 30.8357 248.495 31.657C248.495 32.4783 248.326 33.0943 247.989 33.505C247.651 33.9083 247.204 34.11 246.647 34.11ZM246.647 33.428C246.955 33.428 247.2 33.2923 247.384 33.021C247.574 32.7497 247.67 32.295 247.67 31.657C247.67 31.0263 247.574 30.5753 247.384 30.304C247.2 30.0327 246.955 29.897 246.647 29.897C246.339 29.897 246.089 30.0327 245.899 30.304C245.708 30.5753 245.613 31.0263 245.613 31.657C245.613 32.2877 245.708 32.7423 245.899 33.021C246.089 33.2923 246.339 33.428 246.647 33.428Z" fill="#0068E6"/>
<path d="M195 29H188L177 40" stroke="#0068E6"/>
</svg>
