<svg width="20" height="20" viewBox="0 0 20 20" fill="none" xmlns="http://www.w3.org/2000/svg">
<mask id="mask0_392_8595" style="mask-type:luminance" maskUnits="userSpaceOnUse" x="0" y="0" width="20" height="20">
<path d="M20 0H0V20H20V0Z" fill="white"/>
</mask>
<g mask="url(#mask0_392_8595)">
<path d="M17 6H13V4H14.5C14.6326 4 14.7598 3.94732 14.8536 3.85355C14.9473 3.75979 15 3.63261 15 3.5C15 3.36739 14.9473 3.24021 14.8536 3.14645C14.7598 3.05268 14.6326 3 14.5 3H5.5C5.36739 3 5.24021 3.05268 5.14645 3.14645C5.05268 3.24021 5 3.36739 5 3.5C5 3.63261 5.05268 3.75979 5.14645 3.85355C5.24021 3.94732 5.36739 4 5.5 4H7V6H3C2.73478 6 2.48043 6.10536 2.29289 6.29289C2.10536 6.48043 2 6.73478 2 7V16C2 16.2652 2.10536 16.5196 2.29289 16.7071C2.48043 16.8946 2.73478 17 3 17H17C17.2652 17 17.5196 16.8946 17.7071 16.7071C17.8946 16.5196 18 16.2652 18 16V7C18 6.73478 17.8946 6.48043 17.7071 6.29289C17.5196 6.10536 17.2652 6 17 6ZM8 4H12V6H8V4ZM17 15.5C17 15.6326 16.9473 15.7598 16.8536 15.8536C16.7598 15.9473 16.6326 16 16.5 16H3.5C3.36739 16 3.24021 15.9473 3.14645 15.8536C3.05268 15.7598 3 15.6326 3 15.5V7.5C3 7.36739 3.05268 7.24021 3.14645 7.14645C3.24021 7.05268 3.36739 7 3.5 7H16.5C16.6326 7 16.7598 7.05268 16.8536 7.14645C16.9473 7.24021 17 7.36739 17 7.5V15.5Z" fill="#27D4FF"/>
<path d="M5.96031 10.5003H5.44531V11.4233H5.95131C6.07551 11.4317 6.1981 11.3915 6.29331 11.3113C6.3337 11.2695 6.36496 11.2197 6.3851 11.1651C6.40524 11.1106 6.41382 11.0524 6.41031 10.9943C6.4169 10.864 6.37364 10.736 6.28931 10.6363C6.24757 10.5912 6.19654 10.5557 6.13974 10.5322C6.08294 10.5088 6.02172 10.4979 5.96031 10.5003Z" fill="#27D4FF"/>
<path d="M15.5 8H4.5C4.36739 8 4.24021 8.05268 4.14645 8.14645C4.05268 8.24021 4 8.36739 4 8.5V14.5C4 14.6326 4.05268 14.7598 4.14645 14.8536C4.24021 14.9473 4.36739 15 4.5 15H15.5C15.6326 15 15.7598 14.9473 15.8536 14.8536C15.9473 14.7598 16 14.6326 16 14.5V8.5C16 8.36739 15.9473 8.24021 15.8536 8.14645C15.7598 8.05268 15.6326 8 15.5 8ZM6.857 11.734C6.59329 11.9336 6.26718 12.0328 5.937 12.014H5.444V13.1H4.674V9.9H5.95C6.17409 9.89523 6.39634 9.94139 6.6 10.035C6.77965 10.1178 6.93119 10.2513 7.036 10.419C7.14092 10.5889 7.19504 10.7853 7.192 10.985C7.19723 11.127 7.16974 11.2683 7.11166 11.398C7.05357 11.5277 6.96644 11.6423 6.857 11.733M8.424 13.1H7.655V9.9H8.424V13.1ZM12.414 13.1H11.641V12.353L11.716 10.823L10.943 13.1H10.433L9.657 10.821L9.732 12.353V13.1H8.961V9.9H9.974L10.688 12.125L11.4 9.9H12.414V13.1ZM13.8 10.985C13.9434 11.0769 14.0998 11.1466 14.264 11.192C14.4532 11.249 14.6359 11.3257 14.809 11.421C14.964 11.4958 15.0949 11.6128 15.1865 11.7585C15.2781 11.9042 15.3268 12.0729 15.327 12.245C15.3322 12.3723 15.3062 12.499 15.2511 12.6139C15.196 12.7288 15.1136 12.8284 15.011 12.904C14.756 13.0774 14.4509 13.1618 14.143 13.144C13.9024 13.1467 13.664 13.099 13.443 13.004C13.2509 12.9256 13.0858 12.7928 12.968 12.622C12.8608 12.4555 12.8055 12.261 12.809 12.063H13.582C13.5762 12.132 13.5851 12.2014 13.608 12.2667C13.6309 12.332 13.6674 12.3918 13.715 12.442C13.8392 12.5342 13.9929 12.5776 14.147 12.564C14.2533 12.569 14.3584 12.5399 14.447 12.481C14.4829 12.4543 14.5117 12.4191 14.5309 12.3787C14.55 12.3382 14.559 12.2937 14.557 12.249C14.5592 12.1988 14.5495 12.1487 14.5289 12.1029C14.5082 12.057 14.4771 12.0167 14.438 11.985C14.3082 11.8993 14.1663 11.8335 14.017 11.79C13.8488 11.7361 13.6844 11.671 13.525 11.595C13.3493 11.5331 13.1962 11.42 13.0853 11.2703C12.9745 11.1206 12.911 10.9411 12.903 10.755C12.9002 10.5856 12.9549 10.4203 13.058 10.286C13.172 10.1426 13.3231 10.0333 13.495 9.97C13.6985 9.89178 13.9151 9.85342 14.133 9.857C14.3454 9.85335 14.5562 9.89529 14.751 9.98C14.9236 10.0535 15.0714 10.175 15.177 10.33C15.2785 10.4842 15.3312 10.6654 15.328 10.85H14.56C14.563 10.7943 14.5538 10.7386 14.5331 10.6868C14.5124 10.635 14.4806 10.5883 14.44 10.55C14.3492 10.4743 14.2331 10.4357 14.115 10.442C13.9993 10.4356 13.8847 10.4676 13.789 10.533C13.751 10.5581 13.7199 10.5924 13.6989 10.6328C13.6778 10.6732 13.6674 10.7183 13.6686 10.7638C13.6698 10.8094 13.6826 10.8539 13.7057 10.8931C13.7289 10.9323 13.7617 10.965 13.801 10.988" fill="#27D4FF"/>
</g>
<mask id="mask1_392_8595" style="mask-type:luminance" maskUnits="userSpaceOnUse" x="0" y="0" width="20" height="20">
<path d="M20 0H0V20H20V0Z" fill="white"/>
</mask>
<g mask="url(#mask1_392_8595)">
<path d="M17 6H13V4H14.5C14.6326 4 14.7598 3.94732 14.8536 3.85355C14.9473 3.75979 15 3.63261 15 3.5C15 3.36739 14.9473 3.24021 14.8536 3.14645C14.7598 3.05268 14.6326 3 14.5 3H5.5C5.36739 3 5.24021 3.05268 5.14645 3.14645C5.05268 3.24021 5 3.36739 5 3.5C5 3.63261 5.05268 3.75979 5.14645 3.85355C5.24021 3.94732 5.36739 4 5.5 4H7V6H3C2.73478 6 2.48043 6.10536 2.29289 6.29289C2.10536 6.48043 2 6.73478 2 7V16C2 16.2652 2.10536 16.5196 2.29289 16.7071C2.48043 16.8946 2.73478 17 3 17H17C17.2652 17 17.5196 16.8946 17.7071 16.7071C17.8946 16.5196 18 16.2652 18 16V7C18 6.73478 17.8946 6.48043 17.7071 6.29289C17.5196 6.10536 17.2652 6 17 6ZM8 4H12V6H8V4ZM17 15.5C17 15.6326 16.9473 15.7598 16.8536 15.8536C16.7598 15.9473 16.6326 16 16.5 16H3.5C3.36739 16 3.24021 15.9473 3.14645 15.8536C3.05268 15.7598 3 15.6326 3 15.5V7.5C3 7.36739 3.05268 7.24021 3.14645 7.14645C3.24021 7.05268 3.36739 7 3.5 7H16.5C16.6326 7 16.7598 7.05268 16.8536 7.14645C16.9473 7.24021 17 7.36739 17 7.5V15.5Z" fill="#27D4FF"/>
<path d="M5.96031 10.5003H5.44531V11.4233H5.95131C6.07551 11.4317 6.1981 11.3915 6.29331 11.3113C6.3337 11.2695 6.36496 11.2197 6.3851 11.1651C6.40524 11.1106 6.41382 11.0524 6.41031 10.9943C6.4169 10.864 6.37364 10.736 6.28931 10.6363C6.24757 10.5912 6.19654 10.5557 6.13974 10.5322C6.08294 10.5088 6.02172 10.4979 5.96031 10.5003Z" fill="#27D4FF"/>
<path d="M15.5 8H4.5C4.36739 8 4.24021 8.05268 4.14645 8.14645C4.05268 8.24021 4 8.36739 4 8.5V14.5C4 14.6326 4.05268 14.7598 4.14645 14.8536C4.24021 14.9473 4.36739 15 4.5 15H15.5C15.6326 15 15.7598 14.9473 15.8536 14.8536C15.9473 14.7598 16 14.6326 16 14.5V8.5C16 8.36739 15.9473 8.24021 15.8536 8.14645C15.7598 8.05268 15.6326 8 15.5 8ZM6.857 11.734C6.59329 11.9336 6.26718 12.0328 5.937 12.014H5.444V13.1H4.674V9.9H5.95C6.17409 9.89523 6.39634 9.94139 6.6 10.035C6.77965 10.1178 6.93119 10.2513 7.036 10.419C7.14092 10.5889 7.19504 10.7853 7.192 10.985C7.19723 11.127 7.16974 11.2683 7.11166 11.398C7.05357 11.5277 6.96644 11.6423 6.857 11.733M8.424 13.1H7.655V9.9H8.424V13.1ZM12.414 13.1H11.641V12.353L11.716 10.823L10.943 13.1H10.433L9.657 10.821L9.732 12.353V13.1H8.961V9.9H9.974L10.688 12.125L11.4 9.9H12.414V13.1ZM13.8 10.985C13.9434 11.0769 14.0998 11.1466 14.264 11.192C14.4532 11.249 14.6359 11.3257 14.809 11.421C14.964 11.4958 15.0949 11.6128 15.1865 11.7585C15.2781 11.9042 15.3268 12.0729 15.327 12.245C15.3322 12.3723 15.3062 12.499 15.2511 12.6139C15.196 12.7288 15.1136 12.8284 15.011 12.904C14.756 13.0774 14.4509 13.1618 14.143 13.144C13.9024 13.1467 13.664 13.099 13.443 13.004C13.2509 12.9256 13.0858 12.7928 12.968 12.622C12.8608 12.4555 12.8055 12.261 12.809 12.063H13.582C13.5762 12.132 13.5851 12.2014 13.608 12.2667C13.6309 12.332 13.6674 12.3918 13.715 12.442C13.8392 12.5342 13.9929 12.5776 14.147 12.564C14.2533 12.569 14.3584 12.5399 14.447 12.481C14.4829 12.4543 14.5117 12.4191 14.5309 12.3787C14.55 12.3382 14.559 12.2937 14.557 12.249C14.5592 12.1988 14.5495 12.1487 14.5289 12.1029C14.5082 12.057 14.4771 12.0167 14.438 11.985C14.3082 11.8993 14.1663 11.8335 14.017 11.79C13.8488 11.7361 13.6844 11.671 13.525 11.595C13.3493 11.5331 13.1962 11.42 13.0853 11.2703C12.9745 11.1206 12.911 10.9411 12.903 10.755C12.9002 10.5856 12.9549 10.4203 13.058 10.286C13.172 10.1426 13.3231 10.0333 13.495 9.97C13.6985 9.89178 13.9151 9.85342 14.133 9.857C14.3454 9.85335 14.5562 9.89529 14.751 9.98C14.9236 10.0535 15.0714 10.175 15.177 10.33C15.2785 10.4842 15.3312 10.6654 15.328 10.85H14.56C14.563 10.7943 14.5538 10.7386 14.5331 10.6868C14.5124 10.635 14.4806 10.5883 14.44 10.55C14.3492 10.4743 14.2331 10.4357 14.115 10.442C13.9993 10.4356 13.8847 10.4676 13.789 10.533C13.751 10.5581 13.7199 10.5924 13.6989 10.6328C13.6778 10.6732 13.6674 10.7183 13.6686 10.7638C13.6698 10.8094 13.6826 10.8539 13.7057 10.8931C13.7289 10.9323 13.7617 10.965 13.801 10.988" fill="#27D4FF"/>
</g>
</svg>
