<svg width="20" height="20" viewBox="0 0 20 20" fill="none" xmlns="http://www.w3.org/2000/svg">
<path d="M14.7774 9.16612C14.9144 9.25744 15.0267 9.38116 15.1044 9.5263C15.182 9.67144 15.2227 9.83351 15.2227 9.99812C15.2227 10.1627 15.182 10.3248 15.1044 10.4699C15.0267 10.6151 14.9144 10.7388 14.7774 10.8301L7.53143 15.6611C7.38083 15.7616 7.20578 15.8193 7.02495 15.8281C6.84412 15.8369 6.6643 15.7964 6.50467 15.711C6.34504 15.6256 6.21159 15.4984 6.11856 15.3431C6.02553 15.1878 5.97641 15.0102 5.97643 14.8291V5.16812C5.97641 4.98708 6.02553 4.80942 6.11856 4.65411C6.21159 4.4988 6.34504 4.37165 6.50467 4.28624C6.6643 4.20083 6.84412 4.16036 7.02495 4.16915C7.20578 4.17793 7.38083 4.23564 7.53143 4.33612L14.7774 9.16612Z" fill="#27D4FF"/>
</svg>
