<svg width="22" height="22" viewBox="0 0 22 22" fill="none" xmlns="http://www.w3.org/2000/svg">
<path d="M1 11C1 16.5228 5.47715 21 11 21C16.5228 21 21 16.5228 21 11C21 5.47715 16.5228 1 11 1C5.47715 1 1 5.47715 1 11Z" fill="#081229" fill-opacity="0.8" stroke="#27D4FF"/>
<path d="M14.539 10.6142C14.5952 10.6611 14.6405 10.7199 14.6716 10.7862C14.7026 10.8526 14.7188 10.925 14.7188 10.9982C14.7188 11.0715 14.7026 11.1439 14.6716 11.2102C14.6405 11.2766 14.5952 11.3353 14.539 11.3822L9.81997 15.3152C9.74691 15.3761 9.658 15.4148 9.56368 15.427C9.46937 15.4391 9.37355 15.424 9.28747 15.3836C9.2014 15.3432 9.12863 15.2791 9.07771 15.1988C9.02679 15.1185 8.99982 15.0253 8.99997 14.9302V7.06622C9.00001 6.97121 9.02711 6.87818 9.07811 6.79802C9.12911 6.71786 9.20189 6.65389 9.28793 6.6136C9.37397 6.57331 9.46971 6.55836 9.56393 6.57051C9.65816 6.58267 9.74697 6.62141 9.81997 6.68222L14.539 10.6142Z" fill="#27D4FF"/>
</svg>
