<svg width="20" height="20" viewBox="0 0 20 20" fill="none" xmlns="http://www.w3.org/2000/svg">
<mask id="mask0_331_9181" style="mask-type:luminance" maskUnits="userSpaceOnUse" x="0" y="0" width="20" height="20">
<path d="M20 0H0V20H20V0Z" fill="white"/>
</mask>
<g mask="url(#mask0_331_9181)">
<path d="M4.91853 12.3011C4.83494 12.4027 4.79478 12.5332 4.80677 12.6642C4.81875 12.7952 4.8819 12.9163 4.98253 13.0011C6.39102 14.1745 8.16628 14.8171 9.99953 14.8171C11.8328 14.8171 13.608 14.1745 15.0165 13.0011C15.0688 12.9596 15.1122 12.9081 15.1442 12.8497C15.1763 12.7912 15.1963 12.7269 15.2031 12.6606C15.21 12.5943 15.2035 12.5273 15.184 12.4635C15.1645 12.3997 15.1325 12.3405 15.0899 12.2893C15.0472 12.2381 14.9947 12.1959 14.9355 12.1653C14.8763 12.1346 14.8115 12.1162 14.745 12.1109C14.6786 12.1057 14.6117 12.1138 14.5484 12.1348C14.4852 12.1557 14.4267 12.1892 14.3765 12.2331C13.1476 13.2566 11.5989 13.8172 9.99953 13.8172C8.40019 13.8172 6.85142 13.2566 5.62253 12.2331C5.52091 12.1495 5.39043 12.1093 5.25939 12.1213C5.12835 12.1333 5.00731 12.1964 4.92253 12.2971" fill="white"/>
<path d="M17.4327 13.4466C17.3892 13.3973 17.3365 13.3571 17.2775 13.3282C17.2185 13.2994 17.1544 13.2824 17.0888 13.2783C17.0232 13.2742 16.9575 13.2831 16.8954 13.3044C16.8333 13.3258 16.7759 13.3591 16.7267 13.4026C14.8658 15.0357 12.4745 15.9362 9.99869 15.9362C7.52286 15.9362 5.13155 15.0357 3.27069 13.4026C3.17072 13.3187 3.0419 13.2772 2.91174 13.287C2.78158 13.2968 2.66041 13.357 2.57411 13.455C2.48781 13.5529 2.44322 13.6807 2.44987 13.811C2.45652 13.9414 2.51388 14.064 2.60969 14.1526C4.65324 15.9468 7.27977 16.9362 9.99919 16.9362C12.7186 16.9362 15.3451 15.9468 17.3887 14.1526C17.438 14.1092 17.4782 14.0564 17.5071 13.9974C17.5359 13.9384 17.5529 13.8743 17.557 13.8087C17.5611 13.7432 17.5522 13.6774 17.5309 13.6153C17.5095 13.5532 17.4762 13.4958 17.4327 13.4466Z" fill="white"/>
<path d="M12.0295 11.0467C11.4365 11.4674 10.7275 11.6933 10.0005 11.6933C9.27349 11.6933 8.56446 11.4674 7.97149 11.0467C7.8633 10.9736 7.73077 10.9457 7.60226 10.969C7.47374 10.9922 7.35944 11.0649 7.2838 11.1714C7.20816 11.2778 7.17718 11.4097 7.19749 11.5387C7.2178 11.6677 7.28779 11.7837 7.39249 11.8617C8.15468 12.4024 9.06604 12.6927 10.0005 12.6927C10.9349 12.6927 11.8463 12.4024 12.6085 11.8617C12.7132 11.7837 12.7832 11.6677 12.8035 11.5387C12.8238 11.4097 12.7928 11.2778 12.7172 11.1714C12.6415 11.0649 12.5272 10.9922 12.3987 10.969C12.2702 10.9457 12.1377 10.9736 12.0295 11.0467Z" fill="white"/>
<path d="M4 8H6.142C6.05229 7.67407 6.00458 7.33802 6 7C6 6.73478 6.10536 6.48043 6.29289 6.29289C6.48043 6.10536 6.73478 6 7 6H13C13.2652 6 13.5196 6.10536 13.7071 6.29289C13.8946 6.48043 14 6.73478 14 7C13.9954 7.33802 13.9477 7.67407 13.858 8H16C16.2652 8 16.5196 7.89464 16.7071 7.70711C16.8946 7.51957 17 7.26522 17 7V4H3V7C3 7.26522 3.10536 7.51957 3.29289 7.70711C3.48043 7.89464 3.73478 8 4 8Z" fill="white"/>
<path d="M13 7H7C7 7.79565 7.31607 8.55871 7.87868 9.12132C8.44129 9.68393 9.20435 10 10 10C10.7956 10 11.5587 9.68393 12.1213 9.12132C12.6839 8.55871 13 7.79565 13 7Z" fill="white"/>
</g>
</svg>
