<svg width="1816" height="108" viewBox="0 0 1816 108" fill="none" xmlns="http://www.w3.org/2000/svg">
<path d="M37.5039 19L111.254 21.5L184.502 19L258.252 24.5L332.002 21L406.253 24.5L480.003 21L553.753 18.5H627.503L701.252 24L775.002 21L848.752 24L923.004 18.5L996.252 21.5L1070 24L1143.75 18L1218 21.5L1291.25 24L1365.5 18.5H1439.25L1513 22L1586.75 24L1660.5 18.5L1734.25 21L1808 24.5" stroke="#27D4FF" stroke-width="2"/>
<path d="M37.5039 30L111.254 32.5L184.502 30L258.252 35.5L332.002 32L406.253 35.5L480.003 32L553.753 29.5H627.503L701.252 35L775.002 32L848.752 35L923.004 29.5L996.252 32.5L1070 35L1143.75 29L1218 32.5L1291.25 35L1365.5 29.5H1439.25L1513 33L1586.75 35L1660.5 29.5L1734.25 32L1808 35.5" stroke="#0077FF" stroke-width="2"/>
<path d="M37.5039 56L111.254 58.5L184.502 56L258.252 61.5L332.002 58L406.253 61.5L480.003 58L553.753 55.5H627.503L701.252 61L775.002 58L848.752 61L923.004 55.5L996.252 58.5L1070 61L1143.75 55L1218 58.5L1291.25 61L1365.5 55.5H1439.25L1513 59L1586.75 61L1660.5 55.5L1734.25 58L1808 61.5" stroke="#6E3DFF" stroke-width="2"/>
<path d="M37 43L111.252 46L185.001 49L258.751 43L332.501 46L406.251 49.5L480.001 43L553.751 46L627.5 49L701.25 43L775 46L848.75 49L922.5 43L996.25 46L1070 49L1143.75 43L1217.5 46L1291.75 49L1365.5 43H1439.25L1513 46L1586.75 49L1660.5 43L1734.25 46L1808 49" stroke="#0E44E6" stroke-width="2"/>
<path d="M37 70.5L110.75 73L184.5 76.5L258.25 70L332.501 73.5L405.749 70L480.001 76L553.751 73.5L627.5 76H701.25L775 70L848.75 73L922.5 70L996.25 73L1070 76H1143.75L1217.5 70L1291.75 73.5L1365 70H1439.25L1513 73.5L1586.75 70L1660.5 76.5H1734.25L1808 73" stroke="#8972FF" stroke-width="2"/>
<path d="M37 4.5L110.75 7L184.5 10.5L258.25 4L332.501 7.5L405.749 4L480.001 10L553.751 7.5L627.5 10H701.25L775 4L848.75 7L922.5 4L996.25 7L1070 10H1143.75L1217.5 4L1291.75 7.5L1365 4H1439.25L1513 7.5L1586.75 4L1660.5 10.5H1734.25L1808 7" stroke="#16D9AB" stroke-width="2"/>
<path d="M7.27453 9.855V9.063H6.05353V3.849H5.10753L1.13653 9.107V9.855H5.16253V12H6.05353V9.855H7.27453ZM5.16253 5.697V9.063H2.23653L5.20653 5.015C5.17353 5.246 5.16253 5.51 5.16253 5.697ZM13.7063 7.985C13.7063 5.114 12.4083 3.805 10.7473 3.805C9.07527 3.805 7.78827 5.114 7.78827 7.985C7.78827 10.845 9.07527 12.154 10.7473 12.154C12.4083 12.154 13.7063 10.845 13.7063 7.985ZM12.6943 7.985C12.6943 10.493 11.7703 11.34 10.7473 11.34C9.72427 11.34 8.81127 10.493 8.81127 7.985C8.81127 5.466 9.72427 4.63 10.7473 4.63C11.7703 4.63 12.6943 5.466 12.6943 7.985Z" fill="white" fill-opacity="0.6"/>
<path d="M6.88953 49.25V48.359H3.71053C3.43553 48.359 3.10553 48.403 2.79753 48.491L5.05253 46.258C5.96553 45.345 6.73553 44.509 6.73553 43.31C6.73553 41.88 5.66853 41.044 4.29353 41.044C2.91853 41.044 1.85153 41.847 1.64253 43.332L2.63253 43.497C2.63253 42.573 3.31453 41.913 4.23853 41.913C5.07453 41.913 5.69053 42.364 5.72353 43.332C5.72353 44.278 5.10753 44.971 4.26053 45.873L1.47753 48.546V49.25H6.88953ZM13.7063 45.235C13.7063 42.364 12.4083 41.055 10.7473 41.055C9.07527 41.055 7.78827 42.364 7.78827 45.235C7.78827 48.095 9.07527 49.404 10.7473 49.404C12.4083 49.404 13.7063 48.095 13.7063 45.235ZM12.6943 45.235C12.6943 47.743 11.7703 48.59 10.7473 48.59C9.72427 48.59 8.81127 47.743 8.81127 45.235C8.81127 42.716 9.72427 41.88 10.7473 41.88C11.7703 41.88 12.6943 42.716 12.6943 45.235Z" fill="white" fill-opacity="0.6"/>
<path d="M13.7063 82.485C13.7063 79.614 12.4083 78.305 10.7473 78.305C9.07527 78.305 7.78827 79.614 7.78827 82.485C7.78827 85.345 9.07527 86.654 10.7473 86.654C12.4083 86.654 13.7063 85.345 13.7063 82.485ZM12.6943 82.485C12.6943 84.993 11.7703 85.84 10.7473 85.84C9.72427 85.84 8.81127 84.993 8.81127 82.485C8.81127 79.966 9.72427 79.13 10.7473 79.13C11.7703 79.13 12.6943 79.966 12.6943 82.485Z" fill="white" fill-opacity="0.6"/>
<path d="M21 89.5H20V90.5H21V89.5ZM1816 88.5H21V90.5H1816V88.5ZM22 89.5V1H20V89.5H22Z" fill="white" fill-opacity="0.2" mask="url(#path-10-inside-1_845_39264)"/>
<path d="M37 9C39.2091 9 41 7.20914 41 5C41 2.79086 39.2091 1 37 1C34.7909 1 33 2.79086 33 5C33 7.20914 34.7909 9 37 9Z" fill="white" stroke="#16D9AB" stroke-miterlimit="10"/>
<path d="M110.792 11C113.001 11 114.792 9.20914 114.792 7C114.792 4.79086 113.001 3 110.792 3C108.582 3 106.792 4.79086 106.792 7C106.792 9.20914 108.582 11 110.792 11Z" fill="white" stroke="#16D9AB" stroke-miterlimit="10"/>
<path d="M184.583 13C186.792 13 188.583 11.2091 188.583 9C188.583 6.79086 186.792 5 184.583 5C182.374 5 180.583 6.79086 180.583 9C180.583 11.2091 182.374 13 184.583 13Z" fill="white" stroke="#16D9AB" stroke-miterlimit="10"/>
<path d="M258.375 9C260.584 9 262.375 7.20914 262.375 5C262.375 2.79086 260.584 1 258.375 1C256.166 1 254.375 2.79086 254.375 5C254.375 7.20914 256.166 9 258.375 9Z" fill="white" stroke="#16D9AB" stroke-miterlimit="10"/>
<path d="M332.167 11C334.376 11 336.167 9.20914 336.167 7C336.167 4.79086 334.376 3 332.167 3C329.958 3 328.167 4.79086 328.167 7C328.167 9.20914 329.958 11 332.167 11Z" fill="white" stroke="#16D9AB" stroke-miterlimit="10"/>
<path d="M405.958 9C408.167 9 409.958 7.20914 409.958 5C409.958 2.79086 408.167 1 405.958 1C403.749 1 401.958 2.79086 401.958 5C401.958 7.20914 403.749 9 405.958 9Z" fill="white" stroke="#16D9AB" stroke-miterlimit="10"/>
<path d="M479.75 13C481.959 13 483.75 11.2091 483.75 9C483.75 6.79086 481.959 5 479.75 5C477.541 5 475.75 6.79086 475.75 9C475.75 11.2091 477.541 13 479.75 13Z" fill="white" stroke="#16D9AB" stroke-miterlimit="10"/>
<path d="M553.542 11C555.751 11 557.542 9.20914 557.542 7C557.542 4.79086 555.751 3 553.542 3C551.332 3 549.542 4.79086 549.542 7C549.542 9.20914 551.332 11 553.542 11Z" fill="#16D9AB" stroke="white" stroke-miterlimit="10"/>
<path d="M627.333 13C629.542 13 631.333 11.2091 631.333 9C631.333 6.79086 629.542 5 627.333 5C625.124 5 623.333 6.79086 623.333 9C623.333 11.2091 625.124 13 627.333 13Z" fill="white" stroke="#16D9AB" stroke-miterlimit="10"/>
<path d="M701.125 13C703.334 13 705.125 11.2091 705.125 9C705.125 6.79086 703.334 5 701.125 5C698.916 5 697.125 6.79086 697.125 9C697.125 11.2091 698.916 13 701.125 13Z" fill="white" stroke="#16D9AB" stroke-miterlimit="10"/>
<path d="M774.917 9C777.126 9 778.917 7.20914 778.917 5C778.917 2.79086 777.126 1 774.917 1C772.708 1 770.917 2.79086 770.917 5C770.917 7.20914 772.708 9 774.917 9Z" fill="white" stroke="#16D9AB" stroke-miterlimit="10"/>
<path d="M848.708 11C850.918 11 852.708 9.20914 852.708 7C852.708 4.79086 850.918 3 848.708 3C846.499 3 844.708 4.79086 844.708 7C844.708 9.20914 846.499 11 848.708 11Z" fill="white" stroke="#16D9AB" stroke-miterlimit="10"/>
<path d="M922.5 9C924.709 9 926.5 7.20914 926.5 5C926.5 2.79086 924.709 1 922.5 1C920.291 1 918.5 2.79086 918.5 5C918.5 7.20914 920.291 9 922.5 9Z" fill="white" stroke="#16D9AB" stroke-miterlimit="10"/>
<path d="M996.292 11C998.501 11 1000.29 9.20914 1000.29 7C1000.29 4.79086 998.501 3 996.292 3C994.083 3 992.292 4.79086 992.292 7C992.292 9.20914 994.083 11 996.292 11Z" fill="white" stroke="#16D9AB" stroke-miterlimit="10"/>
<path d="M1070.08 13C1072.29 13 1074.08 11.2091 1074.08 9C1074.08 6.79086 1072.29 5 1070.08 5C1067.87 5 1066.08 6.79086 1066.08 9C1066.08 11.2091 1067.87 13 1070.08 13Z" fill="white" stroke="#16D9AB" stroke-miterlimit="10"/>
<path d="M1143.88 13C1146.08 13 1147.88 11.2091 1147.88 9C1147.88 6.79086 1146.08 5 1143.88 5C1141.67 5 1139.88 6.79086 1139.88 9C1139.88 11.2091 1141.67 13 1143.88 13Z" fill="white" stroke="#16D9AB" stroke-miterlimit="10"/>
<path d="M1217.67 9C1219.88 9 1221.67 7.20914 1221.67 5C1221.67 2.79086 1219.88 1 1217.67 1C1215.46 1 1213.67 2.79086 1213.67 5C1213.67 7.20914 1215.46 9 1217.67 9Z" fill="white" stroke="#16D9AB" stroke-miterlimit="10"/>
<path d="M1291.46 11C1293.67 11 1295.46 9.20914 1295.46 7C1295.46 4.79086 1293.67 3 1291.46 3C1289.25 3 1287.46 4.79086 1287.46 7C1287.46 9.20914 1289.25 11 1291.46 11Z" fill="white" stroke="#16D9AB" stroke-miterlimit="10"/>
<path d="M1365.25 9C1367.46 9 1369.25 7.20914 1369.25 5C1369.25 2.79086 1367.46 1 1365.25 1C1363.04 1 1361.25 2.79086 1361.25 5C1361.25 7.20914 1363.04 9 1365.25 9Z" fill="white" stroke="#16D9AB" stroke-miterlimit="10"/>
<path d="M1439.04 9C1441.25 9 1443.04 7.20914 1443.04 5C1443.04 2.79086 1441.25 1 1439.04 1C1436.83 1 1435.04 2.79086 1435.04 5C1435.04 7.20914 1436.83 9 1439.04 9Z" fill="white" stroke="#16D9AB" stroke-miterlimit="10"/>
<path d="M1512.83 11C1515.04 11 1516.83 9.20914 1516.83 7C1516.83 4.79086 1515.04 3 1512.83 3C1510.62 3 1508.83 4.79086 1508.83 7C1508.83 9.20914 1510.62 11 1512.83 11Z" fill="white" stroke="#16D9AB" stroke-miterlimit="10"/>
<path d="M1586.62 9C1588.83 9 1590.62 7.20914 1590.62 5C1590.62 2.79086 1588.83 1 1586.62 1C1584.42 1 1582.62 2.79086 1582.62 5C1582.62 7.20914 1584.42 9 1586.62 9Z" fill="white" stroke="#16D9AB" stroke-miterlimit="10"/>
<path d="M1660.42 13C1662.63 13 1664.42 11.2091 1664.42 9C1664.42 6.79086 1662.63 5 1660.42 5C1658.21 5 1656.42 6.79086 1656.42 9C1656.42 11.2091 1658.21 13 1660.42 13Z" fill="white" stroke="#16D9AB" stroke-miterlimit="10"/>
<path d="M1734.21 13C1736.42 13 1738.21 11.2091 1738.21 9C1738.21 6.79086 1736.42 5 1734.21 5C1732 5 1730.21 6.79086 1730.21 9C1730.21 11.2091 1732 13 1734.21 13Z" fill="white" stroke="#16D9AB" stroke-miterlimit="10"/>
<path d="M1808 11C1810.21 11 1812 9.20914 1812 7C1812 4.79086 1810.21 3 1808 3C1805.79 3 1804 4.79086 1804 7C1804 9.20914 1805.79 11 1808 11Z" fill="white" stroke="#16D9AB" stroke-miterlimit="10"/>
<path d="M37 22.3335C39.2091 22.3335 41 20.5426 41 18.3335C41 16.1244 39.2091 14.3335 37 14.3335C34.7909 14.3335 33 16.1244 33 18.3335C33 20.5426 34.7909 22.3335 37 22.3335Z" fill="white" stroke="#27D4FF" stroke-miterlimit="10"/>
<path d="M110.792 24.3335C113.001 24.3335 114.792 22.5426 114.792 20.3335C114.792 18.1244 113.001 16.3335 110.792 16.3335C108.582 16.3335 106.792 18.1244 106.792 20.3335C106.792 22.5426 108.582 24.3335 110.792 24.3335Z" fill="white" stroke="#27D4FF" stroke-miterlimit="10"/>
<path d="M184.583 22.3335C186.792 22.3335 188.583 20.5426 188.583 18.3335C188.583 16.1244 186.792 14.3335 184.583 14.3335C182.374 14.3335 180.583 16.1244 180.583 18.3335C180.583 20.5426 182.374 22.3335 184.583 22.3335Z" fill="white" stroke="#27D4FF" stroke-miterlimit="10"/>
<path d="M258.375 26.3335C260.584 26.3335 262.375 24.5426 262.375 22.3335C262.375 20.1244 260.584 18.3335 258.375 18.3335C256.166 18.3335 254.375 20.1244 254.375 22.3335C254.375 24.5426 256.166 26.3335 258.375 26.3335Z" fill="white" stroke="#27D4FF" stroke-miterlimit="10"/>
<path d="M332.167 24.3335C334.376 24.3335 336.167 22.5426 336.167 20.3335C336.167 18.1244 334.376 16.3335 332.167 16.3335C329.958 16.3335 328.167 18.1244 328.167 20.3335C328.167 22.5426 329.958 24.3335 332.167 24.3335Z" fill="white" stroke="#27D4FF" stroke-miterlimit="10"/>
<path d="M405.958 26.3335C408.167 26.3335 409.958 24.5426 409.958 22.3335C409.958 20.1244 408.167 18.3335 405.958 18.3335C403.749 18.3335 401.958 20.1244 401.958 22.3335C401.958 24.5426 403.749 26.3335 405.958 26.3335Z" fill="white" stroke="#27D4FF" stroke-miterlimit="10"/>
<path d="M479.75 24.3335C481.959 24.3335 483.75 22.5426 483.75 20.3335C483.75 18.1244 481.959 16.3335 479.75 16.3335C477.541 16.3335 475.75 18.1244 475.75 20.3335C475.75 22.5426 477.541 24.3335 479.75 24.3335Z" fill="white" stroke="#27D4FF" stroke-miterlimit="10"/>
<path d="M553.542 22.3335C555.751 22.3335 557.542 20.5426 557.542 18.3335C557.542 16.1244 555.751 14.3335 553.542 14.3335C551.332 14.3335 549.542 16.1244 549.542 18.3335C549.542 20.5426 551.332 22.3335 553.542 22.3335Z" fill="white" stroke="#27D4FF" stroke-miterlimit="10"/>
<path d="M627.333 22.3335C629.542 22.3335 631.333 20.5426 631.333 18.3335C631.333 16.1244 629.542 14.3335 627.333 14.3335C625.124 14.3335 623.333 16.1244 623.333 18.3335C623.333 20.5426 625.124 22.3335 627.333 22.3335Z" fill="white" stroke="#27D4FF" stroke-miterlimit="10"/>
<path d="M701.125 26.3335C703.334 26.3335 705.125 24.5426 705.125 22.3335C705.125 20.1244 703.334 18.3335 701.125 18.3335C698.916 18.3335 697.125 20.1244 697.125 22.3335C697.125 24.5426 698.916 26.3335 701.125 26.3335Z" fill="white" stroke="#27D4FF" stroke-miterlimit="10"/>
<path d="M774.917 24.3335C777.126 24.3335 778.917 22.5426 778.917 20.3335C778.917 18.1244 777.126 16.3335 774.917 16.3335C772.708 16.3335 770.917 18.1244 770.917 20.3335C770.917 22.5426 772.708 24.3335 774.917 24.3335Z" fill="white" stroke="#27D4FF" stroke-miterlimit="10"/>
<path d="M848.708 26.3335C850.918 26.3335 852.708 24.5426 852.708 22.3335C852.708 20.1244 850.918 18.3335 848.708 18.3335C846.499 18.3335 844.708 20.1244 844.708 22.3335C844.708 24.5426 846.499 26.3335 848.708 26.3335Z" fill="white" stroke="#27D4FF" stroke-miterlimit="10"/>
<path d="M922.5 22.3335C924.709 22.3335 926.5 20.5426 926.5 18.3335C926.5 16.1244 924.709 14.3335 922.5 14.3335C920.291 14.3335 918.5 16.1244 918.5 18.3335C918.5 20.5426 920.291 22.3335 922.5 22.3335Z" fill="white" stroke="#27D4FF" stroke-miterlimit="10"/>
<path d="M996.292 24.3335C998.501 24.3335 1000.29 22.5426 1000.29 20.3335C1000.29 18.1244 998.501 16.3335 996.292 16.3335C994.083 16.3335 992.292 18.1244 992.292 20.3335C992.292 22.5426 994.083 24.3335 996.292 24.3335Z" fill="white" stroke="#27D4FF" stroke-miterlimit="10"/>
<path d="M1070.08 26.3335C1072.29 26.3335 1074.08 24.5426 1074.08 22.3335C1074.08 20.1244 1072.29 18.3335 1070.08 18.3335C1067.87 18.3335 1066.08 20.1244 1066.08 22.3335C1066.08 24.5426 1067.87 26.3335 1070.08 26.3335Z" fill="white" stroke="#27D4FF" stroke-miterlimit="10"/>
<path d="M1143.88 22.3335C1146.08 22.3335 1147.88 20.5426 1147.88 18.3335C1147.88 16.1244 1146.08 14.3335 1143.88 14.3335C1141.67 14.3335 1139.88 16.1244 1139.88 18.3335C1139.88 20.5426 1141.67 22.3335 1143.88 22.3335Z" fill="white" stroke="#27D4FF" stroke-miterlimit="10"/>
<path d="M1217.67 24.3335C1219.88 24.3335 1221.67 22.5426 1221.67 20.3335C1221.67 18.1244 1219.88 16.3335 1217.67 16.3335C1215.46 16.3335 1213.67 18.1244 1213.67 20.3335C1213.67 22.5426 1215.46 24.3335 1217.67 24.3335Z" fill="white" stroke="#27D4FF" stroke-miterlimit="10"/>
<path d="M1291.46 26.3335C1293.67 26.3335 1295.46 24.5426 1295.46 22.3335C1295.46 20.1244 1293.67 18.3335 1291.46 18.3335C1289.25 18.3335 1287.46 20.1244 1287.46 22.3335C1287.46 24.5426 1289.25 26.3335 1291.46 26.3335Z" fill="white" stroke="#27D4FF" stroke-miterlimit="10"/>
<path d="M1365.25 22.3335C1367.46 22.3335 1369.25 20.5426 1369.25 18.3335C1369.25 16.1244 1367.46 14.3335 1365.25 14.3335C1363.04 14.3335 1361.25 16.1244 1361.25 18.3335C1361.25 20.5426 1363.04 22.3335 1365.25 22.3335Z" fill="white" stroke="#27D4FF" stroke-miterlimit="10"/>
<path d="M1439.04 22.3335C1441.25 22.3335 1443.04 20.5426 1443.04 18.3335C1443.04 16.1244 1441.25 14.3335 1439.04 14.3335C1436.83 14.3335 1435.04 16.1244 1435.04 18.3335C1435.04 20.5426 1436.83 22.3335 1439.04 22.3335Z" fill="white" stroke="#27D4FF" stroke-miterlimit="10"/>
<path d="M1512.83 24.3335C1515.04 24.3335 1516.83 22.5426 1516.83 20.3335C1516.83 18.1244 1515.04 16.3335 1512.83 16.3335C1510.62 16.3335 1508.83 18.1244 1508.83 20.3335C1508.83 22.5426 1510.62 24.3335 1512.83 24.3335Z" fill="white" stroke="#27D4FF" stroke-miterlimit="10"/>
<path d="M1586.62 26.3335C1588.83 26.3335 1590.62 24.5426 1590.62 22.3335C1590.62 20.1244 1588.83 18.3335 1586.62 18.3335C1584.42 18.3335 1582.62 20.1244 1582.62 22.3335C1582.62 24.5426 1584.42 26.3335 1586.62 26.3335Z" fill="white" stroke="#27D4FF" stroke-miterlimit="10"/>
<path d="M1660.42 22.3335C1662.63 22.3335 1664.42 20.5426 1664.42 18.3335C1664.42 16.1244 1662.63 14.3335 1660.42 14.3335C1658.21 14.3335 1656.42 16.1244 1656.42 18.3335C1656.42 20.5426 1658.21 22.3335 1660.42 22.3335Z" fill="white" stroke="#27D4FF" stroke-miterlimit="10"/>
<path d="M1734.21 24.3335C1736.42 24.3335 1738.21 22.5426 1738.21 20.3335C1738.21 18.1244 1736.42 16.3335 1734.21 16.3335C1732 16.3335 1730.21 18.1244 1730.21 20.3335C1730.21 22.5426 1732 24.3335 1734.21 24.3335Z" fill="white" stroke="#27D4FF" stroke-miterlimit="10"/>
<path d="M1808 26.3335C1810.21 26.3335 1812 24.5426 1812 22.3335C1812 20.1244 1810.21 18.3335 1808 18.3335C1805.79 18.3335 1804 20.1244 1804 22.3335C1804 24.5426 1805.79 26.3335 1808 26.3335Z" fill="white" stroke="#27D4FF" stroke-miterlimit="10"/>
<path d="M37 35.7666C39.2091 35.7666 41 33.9757 41 31.7666C41 29.5575 39.2091 27.7666 37 27.7666C34.7909 27.7666 33 29.5575 33 31.7666C33 33.9757 34.7909 35.7666 37 35.7666Z" fill="white" stroke="#0077FF" stroke-miterlimit="10"/>
<path d="M110.792 37.7666C113.001 37.7666 114.792 35.9757 114.792 33.7666C114.792 31.5575 113.001 29.7666 110.792 29.7666C108.582 29.7666 106.792 31.5575 106.792 33.7666C106.792 35.9757 108.582 37.7666 110.792 37.7666Z" fill="white" stroke="#0077FF" stroke-miterlimit="10"/>
<path d="M184.583 35.7666C186.792 35.7666 188.583 33.9757 188.583 31.7666C188.583 29.5575 186.792 27.7666 184.583 27.7666C182.374 27.7666 180.583 29.5575 180.583 31.7666C180.583 33.9757 182.374 35.7666 184.583 35.7666Z" fill="white" stroke="#0077FF" stroke-miterlimit="10"/>
<path d="M258.375 39.7666C260.584 39.7666 262.375 37.9757 262.375 35.7666C262.375 33.5575 260.584 31.7666 258.375 31.7666C256.166 31.7666 254.375 33.5575 254.375 35.7666C254.375 37.9757 256.166 39.7666 258.375 39.7666Z" fill="white" stroke="#0077FF" stroke-miterlimit="10"/>
<path d="M332.167 37.7666C334.376 37.7666 336.167 35.9757 336.167 33.7666C336.167 31.5575 334.376 29.7666 332.167 29.7666C329.958 29.7666 328.167 31.5575 328.167 33.7666C328.167 35.9757 329.958 37.7666 332.167 37.7666Z" fill="white" stroke="#0077FF" stroke-miterlimit="10"/>
<path d="M405.958 39.7666C408.167 39.7666 409.958 37.9757 409.958 35.7666C409.958 33.5575 408.167 31.7666 405.958 31.7666C403.749 31.7666 401.958 33.5575 401.958 35.7666C401.958 37.9757 403.749 39.7666 405.958 39.7666Z" fill="white" stroke="#0077FF" stroke-miterlimit="10"/>
<path d="M479.75 37.7666C481.959 37.7666 483.75 35.9757 483.75 33.7666C483.75 31.5575 481.959 29.7666 479.75 29.7666C477.541 29.7666 475.75 31.5575 475.75 33.7666C475.75 35.9757 477.541 37.7666 479.75 37.7666Z" fill="white" stroke="#0077FF" stroke-miterlimit="10"/>
<path d="M553.542 35.7666C555.751 35.7666 557.542 33.9757 557.542 31.7666C557.542 29.5575 555.751 27.7666 553.542 27.7666C551.332 27.7666 549.542 29.5575 549.542 31.7666C549.542 33.9757 551.332 35.7666 553.542 35.7666Z" fill="white" stroke="#0077FF" stroke-miterlimit="10"/>
<path d="M627.333 35.7666C629.542 35.7666 631.333 33.9757 631.333 31.7666C631.333 29.5575 629.542 27.7666 627.333 27.7666C625.124 27.7666 623.333 29.5575 623.333 31.7666C623.333 33.9757 625.124 35.7666 627.333 35.7666Z" fill="white" stroke="#0077FF" stroke-miterlimit="10"/>
<path d="M701.125 39.7666C703.334 39.7666 705.125 37.9757 705.125 35.7666C705.125 33.5575 703.334 31.7666 701.125 31.7666C698.916 31.7666 697.125 33.5575 697.125 35.7666C697.125 37.9757 698.916 39.7666 701.125 39.7666Z" fill="white" stroke="#0077FF" stroke-miterlimit="10"/>
<path d="M774.917 37.7666C777.126 37.7666 778.917 35.9757 778.917 33.7666C778.917 31.5575 777.126 29.7666 774.917 29.7666C772.708 29.7666 770.917 31.5575 770.917 33.7666C770.917 35.9757 772.708 37.7666 774.917 37.7666Z" fill="white" stroke="#0077FF" stroke-miterlimit="10"/>
<path d="M848.708 39.7666C850.918 39.7666 852.708 37.9757 852.708 35.7666C852.708 33.5575 850.918 31.7666 848.708 31.7666C846.499 31.7666 844.708 33.5575 844.708 35.7666C844.708 37.9757 846.499 39.7666 848.708 39.7666Z" fill="white" stroke="#0077FF" stroke-miterlimit="10"/>
<path d="M922.5 35.7666C924.709 35.7666 926.5 33.9757 926.5 31.7666C926.5 29.5575 924.709 27.7666 922.5 27.7666C920.291 27.7666 918.5 29.5575 918.5 31.7666C918.5 33.9757 920.291 35.7666 922.5 35.7666Z" fill="white" stroke="#0077FF" stroke-miterlimit="10"/>
<path d="M996.292 37.7666C998.501 37.7666 1000.29 35.9757 1000.29 33.7666C1000.29 31.5575 998.501 29.7666 996.292 29.7666C994.083 29.7666 992.292 31.5575 992.292 33.7666C992.292 35.9757 994.083 37.7666 996.292 37.7666Z" fill="white" stroke="#0077FF" stroke-miterlimit="10"/>
<path d="M1070.08 39.7666C1072.29 39.7666 1074.08 37.9757 1074.08 35.7666C1074.08 33.5575 1072.29 31.7666 1070.08 31.7666C1067.87 31.7666 1066.08 33.5575 1066.08 35.7666C1066.08 37.9757 1067.87 39.7666 1070.08 39.7666Z" fill="white" stroke="#0077FF" stroke-miterlimit="10"/>
<path d="M1143.88 35.7666C1146.08 35.7666 1147.88 33.9757 1147.88 31.7666C1147.88 29.5575 1146.08 27.7666 1143.88 27.7666C1141.67 27.7666 1139.88 29.5575 1139.88 31.7666C1139.88 33.9757 1141.67 35.7666 1143.88 35.7666Z" fill="white" stroke="#0077FF" stroke-miterlimit="10"/>
<path d="M1217.67 37.7666C1219.88 37.7666 1221.67 35.9757 1221.67 33.7666C1221.67 31.5575 1219.88 29.7666 1217.67 29.7666C1215.46 29.7666 1213.67 31.5575 1213.67 33.7666C1213.67 35.9757 1215.46 37.7666 1217.67 37.7666Z" fill="white" stroke="#0077FF" stroke-miterlimit="10"/>
<path d="M1291.46 39.7666C1293.67 39.7666 1295.46 37.9757 1295.46 35.7666C1295.46 33.5575 1293.67 31.7666 1291.46 31.7666C1289.25 31.7666 1287.46 33.5575 1287.46 35.7666C1287.46 37.9757 1289.25 39.7666 1291.46 39.7666Z" fill="white" stroke="#0077FF" stroke-miterlimit="10"/>
<path d="M1365.25 35.7666C1367.46 35.7666 1369.25 33.9757 1369.25 31.7666C1369.25 29.5575 1367.46 27.7666 1365.25 27.7666C1363.04 27.7666 1361.25 29.5575 1361.25 31.7666C1361.25 33.9757 1363.04 35.7666 1365.25 35.7666Z" fill="white" stroke="#0077FF" stroke-miterlimit="10"/>
<path d="M1439.04 35.7666C1441.25 35.7666 1443.04 33.9757 1443.04 31.7666C1443.04 29.5575 1441.25 27.7666 1439.04 27.7666C1436.83 27.7666 1435.04 29.5575 1435.04 31.7666C1435.04 33.9757 1436.83 35.7666 1439.04 35.7666Z" fill="white" stroke="#0077FF" stroke-miterlimit="10"/>
<path d="M1512.83 37.7666C1515.04 37.7666 1516.83 35.9757 1516.83 33.7666C1516.83 31.5575 1515.04 29.7666 1512.83 29.7666C1510.62 29.7666 1508.83 31.5575 1508.83 33.7666C1508.83 35.9757 1510.62 37.7666 1512.83 37.7666Z" fill="white" stroke="#0077FF" stroke-miterlimit="10"/>
<path d="M1586.62 39.7666C1588.83 39.7666 1590.62 37.9757 1590.62 35.7666C1590.62 33.5575 1588.83 31.7666 1586.62 31.7666C1584.42 31.7666 1582.62 33.5575 1582.62 35.7666C1582.62 37.9757 1584.42 39.7666 1586.62 39.7666Z" fill="white" stroke="#0077FF" stroke-miterlimit="10"/>
<path d="M1660.42 35.7666C1662.63 35.7666 1664.42 33.9757 1664.42 31.7666C1664.42 29.5575 1662.63 27.7666 1660.42 27.7666C1658.21 27.7666 1656.42 29.5575 1656.42 31.7666C1656.42 33.9757 1658.21 35.7666 1660.42 35.7666Z" fill="white" stroke="#0077FF" stroke-miterlimit="10"/>
<path d="M1734.21 37.7666C1736.42 37.7666 1738.21 35.9757 1738.21 33.7666C1738.21 31.5575 1736.42 29.7666 1734.21 29.7666C1732 29.7666 1730.21 31.5575 1730.21 33.7666C1730.21 35.9757 1732 37.7666 1734.21 37.7666Z" fill="white" stroke="#0077FF" stroke-miterlimit="10"/>
<path d="M1808 39.7666C1810.21 39.7666 1812 37.9757 1812 35.7666C1812 33.5575 1810.21 31.7666 1808 31.7666C1805.79 31.7666 1804 33.5575 1804 35.7666C1804 37.9757 1805.79 39.7666 1808 39.7666Z" fill="white" stroke="#0077FF" stroke-miterlimit="10"/>
<path d="M37 49.2002C39.2091 49.2002 41 47.4093 41 45.2002C41 42.9911 39.2091 41.2002 37 41.2002C34.7909 41.2002 33 42.9911 33 45.2002C33 47.4093 34.7909 49.2002 37 49.2002Z" fill="white" stroke="#0E44E6" stroke-miterlimit="10"/>
<path d="M110.792 51.2002C113.001 51.2002 114.792 49.4093 114.792 47.2002C114.792 44.9911 113.001 43.2002 110.792 43.2002C108.582 43.2002 106.792 44.9911 106.792 47.2002C106.792 49.4093 108.582 51.2002 110.792 51.2002Z" fill="white" stroke="#0E44E6" stroke-miterlimit="10"/>
<path d="M184.583 53.2002C186.792 53.2002 188.583 51.4093 188.583 49.2002C188.583 46.9911 186.792 45.2002 184.583 45.2002C182.374 45.2002 180.583 46.9911 180.583 49.2002C180.583 51.4093 182.374 53.2002 184.583 53.2002Z" fill="white" stroke="#0E44E6" stroke-miterlimit="10"/>
<path d="M258.375 49.2002C260.584 49.2002 262.375 47.4093 262.375 45.2002C262.375 42.9911 260.584 41.2002 258.375 41.2002C256.166 41.2002 254.375 42.9911 254.375 45.2002C254.375 47.4093 256.166 49.2002 258.375 49.2002Z" fill="white" stroke="#0E44E6" stroke-miterlimit="10"/>
<path d="M332.167 51.2002C334.376 51.2002 336.167 49.4093 336.167 47.2002C336.167 44.9911 334.376 43.2002 332.167 43.2002C329.958 43.2002 328.167 44.9911 328.167 47.2002C328.167 49.4093 329.958 51.2002 332.167 51.2002Z" fill="white" stroke="#0E44E6" stroke-miterlimit="10"/>
<path d="M405.958 53.2002C408.167 53.2002 409.958 51.4093 409.958 49.2002C409.958 46.9911 408.167 45.2002 405.958 45.2002C403.749 45.2002 401.958 46.9911 401.958 49.2002C401.958 51.4093 403.749 53.2002 405.958 53.2002Z" fill="white" stroke="#0E44E6" stroke-miterlimit="10"/>
<path d="M479.75 49.2002C481.959 49.2002 483.75 47.4093 483.75 45.2002C483.75 42.9911 481.959 41.2002 479.75 41.2002C477.541 41.2002 475.75 42.9911 475.75 45.2002C475.75 47.4093 477.541 49.2002 479.75 49.2002Z" fill="white" stroke="#0E44E6" stroke-miterlimit="10"/>
<path d="M553.542 51.2002C555.751 51.2002 557.542 49.4093 557.542 47.2002C557.542 44.9911 555.751 43.2002 553.542 43.2002C551.332 43.2002 549.542 44.9911 549.542 47.2002C549.542 49.4093 551.332 51.2002 553.542 51.2002Z" fill="white" stroke="#0E44E6" stroke-miterlimit="10"/>
<path d="M627.333 53.2002C629.542 53.2002 631.333 51.4093 631.333 49.2002C631.333 46.9911 629.542 45.2002 627.333 45.2002C625.124 45.2002 623.333 46.9911 623.333 49.2002C623.333 51.4093 625.124 53.2002 627.333 53.2002Z" fill="white" stroke="#0E44E6" stroke-miterlimit="10"/>
<path d="M701.125 49.2002C703.334 49.2002 705.125 47.4093 705.125 45.2002C705.125 42.9911 703.334 41.2002 701.125 41.2002C698.916 41.2002 697.125 42.9911 697.125 45.2002C697.125 47.4093 698.916 49.2002 701.125 49.2002Z" fill="white" stroke="#0E44E6" stroke-miterlimit="10"/>
<path d="M774.917 51.2002C777.126 51.2002 778.917 49.4093 778.917 47.2002C778.917 44.9911 777.126 43.2002 774.917 43.2002C772.708 43.2002 770.917 44.9911 770.917 47.2002C770.917 49.4093 772.708 51.2002 774.917 51.2002Z" fill="white" stroke="#0E44E6" stroke-miterlimit="10"/>
<path d="M848.708 53.2002C850.918 53.2002 852.708 51.4093 852.708 49.2002C852.708 46.9911 850.918 45.2002 848.708 45.2002C846.499 45.2002 844.708 46.9911 844.708 49.2002C844.708 51.4093 846.499 53.2002 848.708 53.2002Z" fill="white" stroke="#0E44E6" stroke-miterlimit="10"/>
<path d="M922.5 49.2002C924.709 49.2002 926.5 47.4093 926.5 45.2002C926.5 42.9911 924.709 41.2002 922.5 41.2002C920.291 41.2002 918.5 42.9911 918.5 45.2002C918.5 47.4093 920.291 49.2002 922.5 49.2002Z" fill="white" stroke="#0E44E6" stroke-miterlimit="10"/>
<path d="M996.292 51.2002C998.501 51.2002 1000.29 49.4093 1000.29 47.2002C1000.29 44.9911 998.501 43.2002 996.292 43.2002C994.083 43.2002 992.292 44.9911 992.292 47.2002C992.292 49.4093 994.083 51.2002 996.292 51.2002Z" fill="white" stroke="#0E44E6" stroke-miterlimit="10"/>
<path d="M1070.08 53.2002C1072.29 53.2002 1074.08 51.4093 1074.08 49.2002C1074.08 46.9911 1072.29 45.2002 1070.08 45.2002C1067.87 45.2002 1066.08 46.9911 1066.08 49.2002C1066.08 51.4093 1067.87 53.2002 1070.08 53.2002Z" fill="white" stroke="#0E44E6" stroke-miterlimit="10"/>
<path d="M1143.88 49.2002C1146.08 49.2002 1147.88 47.4093 1147.88 45.2002C1147.88 42.9911 1146.08 41.2002 1143.88 41.2002C1141.67 41.2002 1139.88 42.9911 1139.88 45.2002C1139.88 47.4093 1141.67 49.2002 1143.88 49.2002Z" fill="white" stroke="#0E44E6" stroke-miterlimit="10"/>
<path d="M1217.67 51.2002C1219.88 51.2002 1221.67 49.4093 1221.67 47.2002C1221.67 44.9911 1219.88 43.2002 1217.67 43.2002C1215.46 43.2002 1213.67 44.9911 1213.67 47.2002C1213.67 49.4093 1215.46 51.2002 1217.67 51.2002Z" fill="white" stroke="#0E44E6" stroke-miterlimit="10"/>
<path d="M1291.46 53.2002C1293.67 53.2002 1295.46 51.4093 1295.46 49.2002C1295.46 46.9911 1293.67 45.2002 1291.46 45.2002C1289.25 45.2002 1287.46 46.9911 1287.46 49.2002C1287.46 51.4093 1289.25 53.2002 1291.46 53.2002Z" fill="white" stroke="#0E44E6" stroke-miterlimit="10"/>
<path d="M1365.25 49.2002C1367.46 49.2002 1369.25 47.4093 1369.25 45.2002C1369.25 42.9911 1367.46 41.2002 1365.25 41.2002C1363.04 41.2002 1361.25 42.9911 1361.25 45.2002C1361.25 47.4093 1363.04 49.2002 1365.25 49.2002Z" fill="white" stroke="#0E44E6" stroke-miterlimit="10"/>
<path d="M1439.04 49.2002C1441.25 49.2002 1443.04 47.4093 1443.04 45.2002C1443.04 42.9911 1441.25 41.2002 1439.04 41.2002C1436.83 41.2002 1435.04 42.9911 1435.04 45.2002C1435.04 47.4093 1436.83 49.2002 1439.04 49.2002Z" fill="white" stroke="#0E44E6" stroke-miterlimit="10"/>
<path d="M1512.83 51.2002C1515.04 51.2002 1516.83 49.4093 1516.83 47.2002C1516.83 44.9911 1515.04 43.2002 1512.83 43.2002C1510.62 43.2002 1508.83 44.9911 1508.83 47.2002C1508.83 49.4093 1510.62 51.2002 1512.83 51.2002Z" fill="white" stroke="#0E44E6" stroke-miterlimit="10"/>
<path d="M1586.62 53.2002C1588.83 53.2002 1590.62 51.4093 1590.62 49.2002C1590.62 46.9911 1588.83 45.2002 1586.62 45.2002C1584.42 45.2002 1582.62 46.9911 1582.62 49.2002C1582.62 51.4093 1584.42 53.2002 1586.62 53.2002Z" fill="white" stroke="#0E44E6" stroke-miterlimit="10"/>
<path d="M1660.42 49.2002C1662.63 49.2002 1664.42 47.4093 1664.42 45.2002C1664.42 42.9911 1662.63 41.2002 1660.42 41.2002C1658.21 41.2002 1656.42 42.9911 1656.42 45.2002C1656.42 47.4093 1658.21 49.2002 1660.42 49.2002Z" fill="white" stroke="#0E44E6" stroke-miterlimit="10"/>
<path d="M1734.21 51.2002C1736.42 51.2002 1738.21 49.4093 1738.21 47.2002C1738.21 44.9911 1736.42 43.2002 1734.21 43.2002C1732 43.2002 1730.21 44.9911 1730.21 47.2002C1730.21 49.4093 1732 51.2002 1734.21 51.2002Z" fill="white" stroke="#0E44E6" stroke-miterlimit="10"/>
<path d="M1808 53.2002C1810.21 53.2002 1812 51.4093 1812 49.2002C1812 46.9911 1810.21 45.2002 1808 45.2002C1805.79 45.2002 1804 46.9911 1804 49.2002C1804 51.4093 1805.79 53.2002 1808 53.2002Z" fill="white" stroke="#0E44E6" stroke-miterlimit="10"/>
<path d="M37 62.6333C39.2091 62.6333 41 60.8424 41 58.6333C41 56.4242 39.2091 54.6333 37 54.6333C34.7909 54.6333 33 56.4242 33 58.6333C33 60.8424 34.7909 62.6333 37 62.6333Z" fill="white" stroke="#6E3DFF" stroke-miterlimit="10"/>
<path d="M110.792 64.6333C113.001 64.6333 114.792 62.8424 114.792 60.6333C114.792 58.4242 113.001 56.6333 110.792 56.6333C108.582 56.6333 106.792 58.4242 106.792 60.6333C106.792 62.8424 108.582 64.6333 110.792 64.6333Z" fill="white" stroke="#6E3DFF" stroke-miterlimit="10"/>
<path d="M184.583 62.6333C186.792 62.6333 188.583 60.8424 188.583 58.6333C188.583 56.4242 186.792 54.6333 184.583 54.6333C182.374 54.6333 180.583 56.4242 180.583 58.6333C180.583 60.8424 182.374 62.6333 184.583 62.6333Z" fill="white" stroke="#6E3DFF" stroke-miterlimit="10"/>
<path d="M258.375 66.6333C260.584 66.6333 262.375 64.8424 262.375 62.6333C262.375 60.4242 260.584 58.6333 258.375 58.6333C256.166 58.6333 254.375 60.4242 254.375 62.6333C254.375 64.8424 256.166 66.6333 258.375 66.6333Z" fill="white" stroke="#6E3DFF" stroke-miterlimit="10"/>
<path d="M332.167 64.6333C334.376 64.6333 336.167 62.8424 336.167 60.6333C336.167 58.4242 334.376 56.6333 332.167 56.6333C329.958 56.6333 328.167 58.4242 328.167 60.6333C328.167 62.8424 329.958 64.6333 332.167 64.6333Z" fill="white" stroke="#6E3DFF" stroke-miterlimit="10"/>
<path d="M405.958 66.6333C408.167 66.6333 409.958 64.8424 409.958 62.6333C409.958 60.4242 408.167 58.6333 405.958 58.6333C403.749 58.6333 401.958 60.4242 401.958 62.6333C401.958 64.8424 403.749 66.6333 405.958 66.6333Z" fill="white" stroke="#6E3DFF" stroke-miterlimit="10"/>
<path d="M479.75 64.6333C481.959 64.6333 483.75 62.8424 483.75 60.6333C483.75 58.4242 481.959 56.6333 479.75 56.6333C477.541 56.6333 475.75 58.4242 475.75 60.6333C475.75 62.8424 477.541 64.6333 479.75 64.6333Z" fill="white" stroke="#6E3DFF" stroke-miterlimit="10"/>
<path d="M553.542 62.6333C555.751 62.6333 557.542 60.8424 557.542 58.6333C557.542 56.4242 555.751 54.6333 553.542 54.6333C551.332 54.6333 549.542 56.4242 549.542 58.6333C549.542 60.8424 551.332 62.6333 553.542 62.6333Z" fill="white" stroke="#6E3DFF" stroke-miterlimit="10"/>
<path d="M627.333 62.6333C629.542 62.6333 631.333 60.8424 631.333 58.6333C631.333 56.4242 629.542 54.6333 627.333 54.6333C625.124 54.6333 623.333 56.4242 623.333 58.6333C623.333 60.8424 625.124 62.6333 627.333 62.6333Z" fill="white" stroke="#6E3DFF" stroke-miterlimit="10"/>
<path d="M701.125 66.6333C703.334 66.6333 705.125 64.8424 705.125 62.6333C705.125 60.4242 703.334 58.6333 701.125 58.6333C698.916 58.6333 697.125 60.4242 697.125 62.6333C697.125 64.8424 698.916 66.6333 701.125 66.6333Z" fill="white" stroke="#6E3DFF" stroke-miterlimit="10"/>
<path d="M774.917 64.6333C777.126 64.6333 778.917 62.8424 778.917 60.6333C778.917 58.4242 777.126 56.6333 774.917 56.6333C772.708 56.6333 770.917 58.4242 770.917 60.6333C770.917 62.8424 772.708 64.6333 774.917 64.6333Z" fill="white" stroke="#6E3DFF" stroke-miterlimit="10"/>
<path d="M848.708 66.6333C850.918 66.6333 852.708 64.8424 852.708 62.6333C852.708 60.4242 850.918 58.6333 848.708 58.6333C846.499 58.6333 844.708 60.4242 844.708 62.6333C844.708 64.8424 846.499 66.6333 848.708 66.6333Z" fill="white" stroke="#6E3DFF" stroke-miterlimit="10"/>
<path d="M922.5 62.6333C924.709 62.6333 926.5 60.8424 926.5 58.6333C926.5 56.4242 924.709 54.6333 922.5 54.6333C920.291 54.6333 918.5 56.4242 918.5 58.6333C918.5 60.8424 920.291 62.6333 922.5 62.6333Z" fill="white" stroke="#6E3DFF" stroke-miterlimit="10"/>
<path d="M996.292 64.6333C998.501 64.6333 1000.29 62.8424 1000.29 60.6333C1000.29 58.4242 998.501 56.6333 996.292 56.6333C994.083 56.6333 992.292 58.4242 992.292 60.6333C992.292 62.8424 994.083 64.6333 996.292 64.6333Z" fill="white" stroke="#6E3DFF" stroke-miterlimit="10"/>
<path d="M1070.08 66.6333C1072.29 66.6333 1074.08 64.8424 1074.08 62.6333C1074.08 60.4242 1072.29 58.6333 1070.08 58.6333C1067.87 58.6333 1066.08 60.4242 1066.08 62.6333C1066.08 64.8424 1067.87 66.6333 1070.08 66.6333Z" fill="white" stroke="#6E3DFF" stroke-miterlimit="10"/>
<path d="M1143.88 62.6333C1146.08 62.6333 1147.88 60.8424 1147.88 58.6333C1147.88 56.4242 1146.08 54.6333 1143.88 54.6333C1141.67 54.6333 1139.88 56.4242 1139.88 58.6333C1139.88 60.8424 1141.67 62.6333 1143.88 62.6333Z" fill="white" stroke="#6E3DFF" stroke-miterlimit="10"/>
<path d="M1217.67 64.6333C1219.88 64.6333 1221.67 62.8424 1221.67 60.6333C1221.67 58.4242 1219.88 56.6333 1217.67 56.6333C1215.46 56.6333 1213.67 58.4242 1213.67 60.6333C1213.67 62.8424 1215.46 64.6333 1217.67 64.6333Z" fill="white" stroke="#6E3DFF" stroke-miterlimit="10"/>
<path d="M1291.46 66.6333C1293.67 66.6333 1295.46 64.8424 1295.46 62.6333C1295.46 60.4242 1293.67 58.6333 1291.46 58.6333C1289.25 58.6333 1287.46 60.4242 1287.46 62.6333C1287.46 64.8424 1289.25 66.6333 1291.46 66.6333Z" fill="white" stroke="#6E3DFF" stroke-miterlimit="10"/>
<path d="M1365.25 62.6333C1367.46 62.6333 1369.25 60.8424 1369.25 58.6333C1369.25 56.4242 1367.46 54.6333 1365.25 54.6333C1363.04 54.6333 1361.25 56.4242 1361.25 58.6333C1361.25 60.8424 1363.04 62.6333 1365.25 62.6333Z" fill="white" stroke="#6E3DFF" stroke-miterlimit="10"/>
<path d="M1439.04 62.6333C1441.25 62.6333 1443.04 60.8424 1443.04 58.6333C1443.04 56.4242 1441.25 54.6333 1439.04 54.6333C1436.83 54.6333 1435.04 56.4242 1435.04 58.6333C1435.04 60.8424 1436.83 62.6333 1439.04 62.6333Z" fill="white" stroke="#6E3DFF" stroke-miterlimit="10"/>
<path d="M1512.83 64.6333C1515.04 64.6333 1516.83 62.8424 1516.83 60.6333C1516.83 58.4242 1515.04 56.6333 1512.83 56.6333C1510.62 56.6333 1508.83 58.4242 1508.83 60.6333C1508.83 62.8424 1510.62 64.6333 1512.83 64.6333Z" fill="white" stroke="#6E3DFF" stroke-miterlimit="10"/>
<path d="M1586.62 66.6333C1588.83 66.6333 1590.62 64.8424 1590.62 62.6333C1590.62 60.4242 1588.83 58.6333 1586.62 58.6333C1584.42 58.6333 1582.62 60.4242 1582.62 62.6333C1582.62 64.8424 1584.42 66.6333 1586.62 66.6333Z" fill="white" stroke="#6E3DFF" stroke-miterlimit="10"/>
<path d="M1660.42 62.6333C1662.63 62.6333 1664.42 60.8424 1664.42 58.6333C1664.42 56.4242 1662.63 54.6333 1660.42 54.6333C1658.21 54.6333 1656.42 56.4242 1656.42 58.6333C1656.42 60.8424 1658.21 62.6333 1660.42 62.6333Z" fill="white" stroke="#6E3DFF" stroke-miterlimit="10"/>
<path d="M1734.21 64.6333C1736.42 64.6333 1738.21 62.8424 1738.21 60.6333C1738.21 58.4242 1736.42 56.6333 1734.21 56.6333C1732 56.6333 1730.21 58.4242 1730.21 60.6333C1730.21 62.8424 1732 64.6333 1734.21 64.6333Z" fill="white" stroke="#6E3DFF" stroke-miterlimit="10"/>
<path d="M1808 66.6333C1810.21 66.6333 1812 64.8424 1812 62.6333C1812 60.4242 1810.21 58.6333 1808 58.6333C1805.79 58.6333 1804 60.4242 1804 62.6333C1804 64.8424 1805.79 66.6333 1808 66.6333Z" fill="white" stroke="#6E3DFF" stroke-miterlimit="10"/>
<path d="M37 76.0669C39.2091 76.0669 41 74.276 41 72.0669C41 69.8578 39.2091 68.0669 37 68.0669C34.7909 68.0669 33 69.8578 33 72.0669C33 74.276 34.7909 76.0669 37 76.0669Z" fill="white" stroke="#8972FF" stroke-miterlimit="10"/>
<path d="M110.792 78.0669C113.001 78.0669 114.792 76.276 114.792 74.0669C114.792 71.8578 113.001 70.0669 110.792 70.0669C108.582 70.0669 106.792 71.8578 106.792 74.0669C106.792 76.276 108.582 78.0669 110.792 78.0669Z" fill="white" stroke="#8972FF" stroke-miterlimit="10"/>
<path d="M184.583 80.0669C186.792 80.0669 188.583 78.276 188.583 76.0669C188.583 73.8578 186.792 72.0669 184.583 72.0669C182.374 72.0669 180.583 73.8578 180.583 76.0669C180.583 78.276 182.374 80.0669 184.583 80.0669Z" fill="white" stroke="#8972FF" stroke-miterlimit="10"/>
<path d="M258.375 76.0669C260.584 76.0669 262.375 74.276 262.375 72.0669C262.375 69.8578 260.584 68.0669 258.375 68.0669C256.166 68.0669 254.375 69.8578 254.375 72.0669C254.375 74.276 256.166 76.0669 258.375 76.0669Z" fill="white" stroke="#8972FF" stroke-miterlimit="10"/>
<path d="M332.167 78.0669C334.376 78.0669 336.167 76.276 336.167 74.0669C336.167 71.8578 334.376 70.0669 332.167 70.0669C329.958 70.0669 328.167 71.8578 328.167 74.0669C328.167 76.276 329.958 78.0669 332.167 78.0669Z" fill="white" stroke="#8972FF" stroke-miterlimit="10"/>
<path d="M405.958 76.0669C408.167 76.0669 409.958 74.276 409.958 72.0669C409.958 69.8578 408.167 68.0669 405.958 68.0669C403.749 68.0669 401.958 69.8578 401.958 72.0669C401.958 74.276 403.749 76.0669 405.958 76.0669Z" fill="white" stroke="#8972FF" stroke-miterlimit="10"/>
<path d="M479.75 80.0669C481.959 80.0669 483.75 78.276 483.75 76.0669C483.75 73.8578 481.959 72.0669 479.75 72.0669C477.541 72.0669 475.75 73.8578 475.75 76.0669C475.75 78.276 477.541 80.0669 479.75 80.0669Z" fill="white" stroke="#8972FF" stroke-miterlimit="10"/>
<path d="M553.542 78.0669C555.751 78.0669 557.542 76.276 557.542 74.0669C557.542 71.8578 555.751 70.0669 553.542 70.0669C551.332 70.0669 549.542 71.8578 549.542 74.0669C549.542 76.276 551.332 78.0669 553.542 78.0669Z" fill="white" stroke="#8972FF" stroke-miterlimit="10"/>
<path d="M627.333 80.0669C629.542 80.0669 631.333 78.276 631.333 76.0669C631.333 73.8578 629.542 72.0669 627.333 72.0669C625.124 72.0669 623.333 73.8578 623.333 76.0669C623.333 78.276 625.124 80.0669 627.333 80.0669Z" fill="white" stroke="#8972FF" stroke-miterlimit="10"/>
<path d="M701.125 80.0669C703.334 80.0669 705.125 78.276 705.125 76.0669C705.125 73.8578 703.334 72.0669 701.125 72.0669C698.916 72.0669 697.125 73.8578 697.125 76.0669C697.125 78.276 698.916 80.0669 701.125 80.0669Z" fill="white" stroke="#8972FF" stroke-miterlimit="10"/>
<path d="M774.917 76.0669C777.126 76.0669 778.917 74.276 778.917 72.0669C778.917 69.8578 777.126 68.0669 774.917 68.0669C772.708 68.0669 770.917 69.8578 770.917 72.0669C770.917 74.276 772.708 76.0669 774.917 76.0669Z" fill="white" stroke="#8972FF" stroke-miterlimit="10"/>
<path d="M848.708 78.0669C850.918 78.0669 852.708 76.276 852.708 74.0669C852.708 71.8578 850.918 70.0669 848.708 70.0669C846.499 70.0669 844.708 71.8578 844.708 74.0669C844.708 76.276 846.499 78.0669 848.708 78.0669Z" fill="white" stroke="#8972FF" stroke-miterlimit="10"/>
<path d="M922.5 76.0669C924.709 76.0669 926.5 74.276 926.5 72.0669C926.5 69.8578 924.709 68.0669 922.5 68.0669C920.291 68.0669 918.5 69.8578 918.5 72.0669C918.5 74.276 920.291 76.0669 922.5 76.0669Z" fill="white" stroke="#8972FF" stroke-miterlimit="10"/>
<path d="M996.292 78.0669C998.501 78.0669 1000.29 76.276 1000.29 74.0669C1000.29 71.8578 998.501 70.0669 996.292 70.0669C994.083 70.0669 992.292 71.8578 992.292 74.0669C992.292 76.276 994.083 78.0669 996.292 78.0669Z" fill="white" stroke="#8972FF" stroke-miterlimit="10"/>
<path d="M1070.08 80.0669C1072.29 80.0669 1074.08 78.276 1074.08 76.0669C1074.08 73.8578 1072.29 72.0669 1070.08 72.0669C1067.87 72.0669 1066.08 73.8578 1066.08 76.0669C1066.08 78.276 1067.87 80.0669 1070.08 80.0669Z" fill="white" stroke="#8972FF" stroke-miterlimit="10"/>
<path d="M1143.88 80.0669C1146.08 80.0669 1147.88 78.276 1147.88 76.0669C1147.88 73.8578 1146.08 72.0669 1143.88 72.0669C1141.67 72.0669 1139.88 73.8578 1139.88 76.0669C1139.88 78.276 1141.67 80.0669 1143.88 80.0669Z" fill="white" stroke="#8972FF" stroke-miterlimit="10"/>
<path d="M1217.67 76.0669C1219.88 76.0669 1221.67 74.276 1221.67 72.0669C1221.67 69.8578 1219.88 68.0669 1217.67 68.0669C1215.46 68.0669 1213.67 69.8578 1213.67 72.0669C1213.67 74.276 1215.46 76.0669 1217.67 76.0669Z" fill="white" stroke="#8972FF" stroke-miterlimit="10"/>
<path d="M1291.46 78.0669C1293.67 78.0669 1295.46 76.276 1295.46 74.0669C1295.46 71.8578 1293.67 70.0669 1291.46 70.0669C1289.25 70.0669 1287.46 71.8578 1287.46 74.0669C1287.46 76.276 1289.25 78.0669 1291.46 78.0669Z" fill="white" stroke="#8972FF" stroke-miterlimit="10"/>
<path d="M1365.25 76.0669C1367.46 76.0669 1369.25 74.276 1369.25 72.0669C1369.25 69.8578 1367.46 68.0669 1365.25 68.0669C1363.04 68.0669 1361.25 69.8578 1361.25 72.0669C1361.25 74.276 1363.04 76.0669 1365.25 76.0669Z" fill="white" stroke="#8972FF" stroke-miterlimit="10"/>
<path d="M1439.04 76.0669C1441.25 76.0669 1443.04 74.276 1443.04 72.0669C1443.04 69.8578 1441.25 68.0669 1439.04 68.0669C1436.83 68.0669 1435.04 69.8578 1435.04 72.0669C1435.04 74.276 1436.83 76.0669 1439.04 76.0669Z" fill="white" stroke="#8972FF" stroke-miterlimit="10"/>
<path d="M1512.83 78.0669C1515.04 78.0669 1516.83 76.276 1516.83 74.0669C1516.83 71.8578 1515.04 70.0669 1512.83 70.0669C1510.62 70.0669 1508.83 71.8578 1508.83 74.0669C1508.83 76.276 1510.62 78.0669 1512.83 78.0669Z" fill="white" stroke="#8972FF" stroke-miterlimit="10"/>
<path d="M1586.62 76.0669C1588.83 76.0669 1590.62 74.276 1590.62 72.0669C1590.62 69.8578 1588.83 68.0669 1586.62 68.0669C1584.42 68.0669 1582.62 69.8578 1582.62 72.0669C1582.62 74.276 1584.42 76.0669 1586.62 76.0669Z" fill="white" stroke="#8972FF" stroke-miterlimit="10"/>
<path d="M1660.42 80.0669C1662.63 80.0669 1664.42 78.276 1664.42 76.0669C1664.42 73.8578 1662.63 72.0669 1660.42 72.0669C1658.21 72.0669 1656.42 73.8578 1656.42 76.0669C1656.42 78.276 1658.21 80.0669 1660.42 80.0669Z" fill="white" stroke="#8972FF" stroke-miterlimit="10"/>
<path d="M1734.21 80.0669C1736.42 80.0669 1738.21 78.276 1738.21 76.0669C1738.21 73.8578 1736.42 72.0669 1734.21 72.0669C1732 72.0669 1730.21 73.8578 1730.21 76.0669C1730.21 78.276 1732 80.0669 1734.21 80.0669Z" fill="white" stroke="#8972FF" stroke-miterlimit="10"/>
<path d="M1808 78.0669C1810.21 78.0669 1812 76.276 1812 74.0669C1812 71.8578 1810.21 70.0669 1808 70.0669C1805.79 70.0669 1804 71.8578 1804 74.0669C1804 76.276 1805.79 78.0669 1808 78.0669Z" fill="white" stroke="#8972FF" stroke-miterlimit="10"/>
<path d="M35.7063 100.485C35.7063 97.614 34.4083 96.305 32.7473 96.305C31.0753 96.305 29.7883 97.614 29.7883 100.485C29.7883 103.345 31.0753 104.654 32.7473 104.654C34.4083 104.654 35.7063 103.345 35.7063 100.485ZM34.6943 100.485C34.6943 102.993 33.7703 103.84 32.7473 103.84C31.7243 103.84 30.8113 102.993 30.8113 100.485C30.8113 97.966 31.7243 97.13 32.7473 97.13C33.7703 97.13 34.6943 97.966 34.6943 100.485ZM42.259 100.485C42.259 97.614 40.961 96.305 39.3 96.305C37.628 96.305 36.341 97.614 36.341 100.485C36.341 103.345 37.628 104.654 39.3 104.654C40.961 104.654 42.259 103.345 42.259 100.485ZM41.247 100.485C41.247 102.993 40.323 103.84 39.3 103.84C38.277 103.84 37.364 102.993 37.364 100.485C37.364 97.966 38.277 97.13 39.3 97.13C40.323 97.13 41.247 97.966 41.247 100.485Z" fill="white" fill-opacity="0.6"/>
<path d="M109.581 100.485C109.581 97.614 108.283 96.305 106.622 96.305C104.95 96.305 103.663 97.614 103.663 100.485C103.663 103.345 104.95 104.654 106.622 104.654C108.283 104.654 109.581 103.345 109.581 100.485ZM108.569 100.485C108.569 102.993 107.645 103.84 106.622 103.84C105.599 103.84 104.686 102.993 104.686 100.485C104.686 97.966 105.599 97.13 106.622 97.13C107.645 97.13 108.569 97.966 108.569 100.485ZM115.661 104.5V103.686H114.077V96.393H113.274L111.107 98.263L111.646 98.912L113.109 97.603C113.098 97.68 113.098 97.779 113.098 97.878V103.686H111.305V104.5H115.661Z" fill="white" fill-opacity="0.6"/>
<path d="M183.456 100.485C183.456 97.614 182.158 96.305 180.497 96.305C178.825 96.305 177.538 97.614 177.538 100.485C177.538 103.345 178.825 104.654 180.497 104.654C182.158 104.654 183.456 103.345 183.456 100.485ZM182.444 100.485C182.444 102.993 181.52 103.84 180.497 103.84C179.474 103.84 178.561 102.993 178.561 100.485C178.561 97.966 179.474 97.13 180.497 97.13C181.52 97.13 182.444 97.966 182.444 100.485ZM189.745 104.5V103.609H186.566C186.291 103.609 185.961 103.653 185.653 103.741L187.908 101.508C188.821 100.595 189.591 99.759 189.591 98.56C189.591 97.13 188.524 96.294 187.149 96.294C185.774 96.294 184.707 97.097 184.498 98.582L185.488 98.747C185.488 97.823 186.17 97.163 187.094 97.163C187.93 97.163 188.546 97.614 188.579 98.582C188.579 99.528 187.963 100.221 187.116 101.123L184.333 103.796V104.5H189.745Z" fill="white" fill-opacity="0.6"/>
<path d="M257.331 100.485C257.331 97.614 256.033 96.305 254.372 96.305C252.7 96.305 251.413 97.614 251.413 100.485C251.413 103.345 252.7 104.654 254.372 104.654C256.033 104.654 257.331 103.345 257.331 100.485ZM256.319 100.485C256.319 102.993 255.395 103.84 254.372 103.84C253.349 103.84 252.436 102.993 252.436 100.485C252.436 97.966 253.349 97.13 254.372 97.13C255.395 97.13 256.319 97.966 256.319 100.485ZM258.406 98.604L259.407 98.769C259.407 97.867 260.078 97.185 261.002 97.185C261.849 97.185 262.443 97.636 262.443 98.56C262.443 99.396 261.937 99.979 260.518 100.012V100.738C262.245 100.738 262.608 101.376 262.608 102.245C262.608 102.96 262.047 103.774 260.892 103.774C260.056 103.774 259.561 103.345 259.22 102.641C259.132 102.432 259.077 102.267 259.055 102.146L258.153 102.52C258.538 103.708 259.165 104.643 260.903 104.643C262.41 104.643 263.631 103.697 263.631 102.223C263.631 101.211 263.081 100.54 262.025 100.276C262.905 99.979 263.444 99.451 263.444 98.395C263.444 97.163 262.454 96.305 261.057 96.305C259.682 96.305 258.615 97.141 258.406 98.604Z" fill="white" fill-opacity="0.6"/>
<path d="M331.206 100.485C331.206 97.614 329.908 96.305 328.247 96.305C326.575 96.305 325.288 97.614 325.288 100.485C325.288 103.345 326.575 104.654 328.247 104.654C329.908 104.654 331.206 103.345 331.206 100.485ZM330.194 100.485C330.194 102.993 329.27 103.84 328.247 103.84C327.224 103.84 326.311 102.993 326.311 100.485C326.311 97.966 327.224 97.13 328.247 97.13C329.27 97.13 330.194 97.966 330.194 100.485ZM337.88 102.355V101.563H336.659V96.349H335.713L331.742 101.607V102.355H335.768V104.5H336.659V102.355H337.88ZM335.768 98.197V101.563H332.842L335.812 97.515C335.779 97.746 335.768 98.01 335.768 98.197Z" fill="white" fill-opacity="0.6"/>
<path d="M405.081 100.485C405.081 97.614 403.783 96.305 402.122 96.305C400.45 96.305 399.163 97.614 399.163 100.485C399.163 103.345 400.45 104.654 402.122 104.654C403.783 104.654 405.081 103.345 405.081 100.485ZM404.069 100.485C404.069 102.993 403.145 103.84 402.122 103.84C401.099 103.84 400.186 102.993 400.186 100.485C400.186 97.966 401.099 97.13 402.122 97.13C403.145 97.13 404.069 97.966 404.069 100.485ZM407.476 99.44L407.839 97.328H410.996V96.404H407.135L406.475 100.221L407.124 100.408C407.597 100.243 408.015 100.144 408.444 100.144C409.599 100.144 410.281 100.76 410.281 101.816C410.281 103.004 409.478 103.697 408.367 103.697C407.707 103.697 407.069 103.4 406.585 102.993L406.046 103.73C406.541 104.203 407.355 104.599 408.323 104.599C409.962 104.599 411.249 103.477 411.249 101.761C411.249 100.353 410.336 99.297 408.631 99.297C408.235 99.297 407.85 99.341 407.476 99.44Z" fill="white" fill-opacity="0.6"/>
<path d="M478.956 100.485C478.956 97.614 477.658 96.305 475.997 96.305C474.325 96.305 473.038 97.614 473.038 100.485C473.038 103.345 474.325 104.654 475.997 104.654C477.658 104.654 478.956 103.345 478.956 100.485ZM477.944 100.485C477.944 102.993 477.02 103.84 475.997 103.84C474.974 103.84 474.061 102.993 474.061 100.485C474.061 97.966 474.974 97.13 475.997 97.13C477.02 97.13 477.944 97.966 477.944 100.485ZM481.901 99.44L484.332 96.393H483.067L480.823 99.418C480.119 100.342 479.822 101.156 479.822 101.871C479.822 103.543 480.889 104.643 482.528 104.643C484.178 104.643 485.322 103.477 485.322 101.981C485.322 100.43 484.222 99.55 482.902 99.55C482.363 99.55 481.912 99.704 481.516 99.968C481.593 99.88 481.714 99.704 481.901 99.44ZM482.506 103.796C481.406 103.796 480.801 103.092 480.801 102.036C480.801 101.123 481.494 100.331 482.572 100.331C483.573 100.331 484.31 100.991 484.31 102.058C484.31 103.059 483.573 103.796 482.506 103.796Z" fill="white" fill-opacity="0.6"/>
<path d="M552.831 100.485C552.831 97.614 551.533 96.305 549.872 96.305C548.2 96.305 546.913 97.614 546.913 100.485C546.913 103.345 548.2 104.654 549.872 104.654C551.533 104.654 552.831 103.345 552.831 100.485ZM551.819 100.485C551.819 102.993 550.895 103.84 549.872 103.84C548.849 103.84 547.936 102.993 547.936 100.485C547.936 97.966 548.849 97.13 549.872 97.13C550.895 97.13 551.819 97.966 551.819 100.485ZM559.186 97.086V96.437H553.884V97.295H558.097L557.723 97.911L554.434 104.5H555.545L559.186 97.086Z" fill="white" fill-opacity="0.6"/>
<path d="M626.706 100.485C626.706 97.614 625.408 96.305 623.747 96.305C622.075 96.305 620.788 97.614 620.788 100.485C620.788 103.345 622.075 104.654 623.747 104.654C625.408 104.654 626.706 103.345 626.706 100.485ZM625.694 100.485C625.694 102.993 624.77 103.84 623.747 103.84C622.724 103.84 621.811 102.993 621.811 100.485C621.811 97.966 622.724 97.13 623.747 97.13C624.77 97.13 625.694 97.966 625.694 100.485ZM631.455 100.298C632.335 99.979 632.775 99.341 632.775 98.406C632.775 97.218 631.752 96.239 630.278 96.239C628.749 96.239 627.781 97.218 627.781 98.406C627.781 99.33 628.243 99.979 629.079 100.298C628.067 100.573 627.484 101.277 627.484 102.333C627.484 103.774 628.628 104.687 630.278 104.687C631.906 104.687 633.05 103.774 633.05 102.333C633.05 101.277 632.478 100.573 631.455 100.298ZM630.278 97.042C631.268 97.042 631.752 97.669 631.752 98.439C631.752 99.176 631.367 99.913 630.278 99.913C629.167 99.913 628.782 99.176 628.782 98.439C628.782 97.669 629.266 97.042 630.278 97.042ZM630.278 103.862C629.178 103.862 628.551 103.246 628.551 102.322C628.551 101.189 629.354 100.716 630.278 100.716C631.191 100.716 631.983 101.189 631.983 102.322C631.983 103.246 631.378 103.862 630.278 103.862Z" fill="white" fill-opacity="0.6"/>
<path d="M700.581 100.485C700.581 97.614 699.283 96.305 697.622 96.305C695.95 96.305 694.663 97.614 694.663 100.485C694.663 103.345 695.95 104.654 697.622 104.654C699.283 104.654 700.581 103.345 700.581 100.485ZM699.569 100.485C699.569 102.993 698.645 103.84 697.622 103.84C696.599 103.84 695.686 102.993 695.686 100.485C695.686 97.966 696.599 97.13 697.622 97.13C698.645 97.13 699.569 97.966 699.569 100.485ZM704.89 101.299L702.382 104.5H703.647L705.858 101.453C706.474 100.606 706.826 99.869 706.826 98.912C706.826 97.339 705.781 96.239 704.197 96.239C702.591 96.239 701.458 97.394 701.458 98.835C701.458 100.364 702.514 101.2 703.779 101.2C704.384 101.2 704.901 101.024 705.33 100.683C705.253 100.782 705.121 100.991 704.89 101.299ZM702.481 98.758C702.481 97.779 703.163 97.108 704.186 97.108C705.132 97.108 705.847 97.735 705.847 98.791C705.847 99.638 705.209 100.408 704.109 100.408C703.097 100.408 702.481 99.825 702.481 98.758Z" fill="white" fill-opacity="0.6"/>
<path d="M773.983 104.5V103.686H772.399V96.393H771.596L769.429 98.263L769.968 98.912L771.431 97.603C771.42 97.68 771.42 97.779 771.42 97.878V103.686H769.627V104.5H773.983ZM781.009 100.485C781.009 97.614 779.711 96.305 778.05 96.305C776.378 96.305 775.091 97.614 775.091 100.485C775.091 103.345 776.378 104.654 778.05 104.654C779.711 104.654 781.009 103.345 781.009 100.485ZM779.997 100.485C779.997 102.993 779.073 103.84 778.05 103.84C777.027 103.84 776.114 102.993 776.114 100.485C776.114 97.966 777.027 97.13 778.05 97.13C779.073 97.13 779.997 97.966 779.997 100.485Z" fill="white" fill-opacity="0.6"/>
<path d="M847.858 104.5V103.686H846.274V96.393H845.471L843.304 98.263L843.843 98.912L845.306 97.603C845.295 97.68 845.295 97.779 845.295 97.878V103.686H843.502V104.5H847.858ZM854.411 104.5V103.686H852.827V96.393H852.024L849.857 98.263L850.396 98.912L851.859 97.603C851.848 97.68 851.848 97.779 851.848 97.878V103.686H850.055V104.5H854.411Z" fill="white" fill-opacity="0.6"/>
<path d="M921.733 104.5V103.686H920.149V96.393H919.346L917.179 98.263L917.718 98.912L919.181 97.603C919.17 97.68 919.17 97.779 919.17 97.878V103.686H917.377V104.5H921.733ZM928.495 104.5V103.609H925.316C925.041 103.609 924.711 103.653 924.403 103.741L926.658 101.508C927.571 100.595 928.341 99.759 928.341 98.56C928.341 97.13 927.274 96.294 925.899 96.294C924.524 96.294 923.457 97.097 923.248 98.582L924.238 98.747C924.238 97.823 924.92 97.163 925.844 97.163C926.68 97.163 927.296 97.614 927.329 98.582C927.329 99.528 926.713 100.221 925.866 101.123L923.083 103.796V104.5H928.495Z" fill="white" fill-opacity="0.6"/>
<path d="M995.608 104.5V103.686H994.024V96.393H993.221L991.054 98.263L991.593 98.912L993.056 97.603C993.045 97.68 993.045 97.779 993.045 97.878V103.686H991.252V104.5H995.608ZM997.156 98.604L998.157 98.769C998.157 97.867 998.828 97.185 999.752 97.185C1000.6 97.185 1001.19 97.636 1001.19 98.56C1001.19 99.396 1000.69 99.979 999.268 100.012V100.738C1001 100.738 1001.36 101.376 1001.36 102.245C1001.36 102.96 1000.8 103.774 999.642 103.774C998.806 103.774 998.311 103.345 997.97 102.641C997.882 102.432 997.827 102.267 997.805 102.146L996.903 102.52C997.288 103.708 997.915 104.643 999.653 104.643C1001.16 104.643 1002.38 103.697 1002.38 102.223C1002.38 101.211 1001.83 100.54 1000.78 100.276C1001.66 99.979 1002.19 99.451 1002.19 98.395C1002.19 97.163 1001.2 96.305 999.807 96.305C998.432 96.305 997.365 97.141 997.156 98.604Z" fill="white" fill-opacity="0.6"/>
<path d="M1069.48 104.5V103.686H1067.9V96.393H1067.1L1064.93 98.263L1065.47 98.912L1066.93 97.603C1066.92 97.68 1066.92 97.779 1066.92 97.878V103.686H1065.13V104.5H1069.48ZM1076.63 102.355V101.563H1075.41V96.349H1074.46L1070.49 101.607V102.355H1074.52V104.5H1075.41V102.355H1076.63ZM1074.52 98.197V101.563H1071.59L1074.56 97.515C1074.53 97.746 1074.52 98.01 1074.52 98.197Z" fill="white" fill-opacity="0.6"/>
<path d="M1143.36 104.5V103.686H1141.77V96.393H1140.97L1138.8 98.263L1139.34 98.912L1140.81 97.603C1140.8 97.68 1140.8 97.779 1140.8 97.878V103.686H1139V104.5H1143.36ZM1146.23 99.44L1146.59 97.328H1149.75V96.404H1145.89L1145.23 100.221L1145.87 100.408C1146.35 100.243 1146.77 100.144 1147.19 100.144C1148.35 100.144 1149.03 100.76 1149.03 101.816C1149.03 103.004 1148.23 103.697 1147.12 103.697C1146.46 103.697 1145.82 103.4 1145.34 102.993L1144.8 103.73C1145.29 104.203 1146.11 104.599 1147.07 104.599C1148.71 104.599 1150 103.477 1150 101.761C1150 100.353 1149.09 99.297 1147.38 99.297C1146.99 99.297 1146.6 99.341 1146.23 99.44Z" fill="white" fill-opacity="0.6"/>
<path d="M1217.23 104.5V103.686H1215.65V96.393H1214.85L1212.68 98.263L1213.22 98.912L1214.68 97.603C1214.67 97.68 1214.67 97.779 1214.67 97.878V103.686H1212.88V104.5H1217.23ZM1220.65 99.44L1223.08 96.393H1221.82L1219.57 99.418C1218.87 100.342 1218.57 101.156 1218.57 101.871C1218.57 103.543 1219.64 104.643 1221.28 104.643C1222.93 104.643 1224.07 103.477 1224.07 101.981C1224.07 100.43 1222.97 99.55 1221.65 99.55C1221.11 99.55 1220.66 99.704 1220.27 99.968C1220.34 99.88 1220.46 99.704 1220.65 99.44ZM1221.26 103.796C1220.16 103.796 1219.55 103.092 1219.55 102.036C1219.55 101.123 1220.24 100.331 1221.32 100.331C1222.32 100.331 1223.06 100.991 1223.06 102.058C1223.06 103.059 1222.32 103.796 1221.26 103.796Z" fill="white" fill-opacity="0.6"/>
<path d="M1291.11 104.5V103.686H1289.52V96.393H1288.72L1286.55 98.263L1287.09 98.912L1288.56 97.603C1288.55 97.68 1288.55 97.779 1288.55 97.878V103.686H1286.75V104.5H1291.11ZM1297.94 97.086V96.437H1292.63V97.295H1296.85L1296.47 97.911L1293.18 104.5H1294.3L1297.94 97.086Z" fill="white" fill-opacity="0.6"/>
<path d="M1364.98 104.5V103.686H1363.4V96.393H1362.6L1360.43 98.263L1360.97 98.912L1362.43 97.603C1362.42 97.68 1362.42 97.779 1362.42 97.878V103.686H1360.63V104.5H1364.98ZM1370.21 100.298C1371.09 99.979 1371.53 99.341 1371.53 98.406C1371.53 97.218 1370.5 96.239 1369.03 96.239C1367.5 96.239 1366.53 97.218 1366.53 98.406C1366.53 99.33 1366.99 99.979 1367.83 100.298C1366.82 100.573 1366.23 101.277 1366.23 102.333C1366.23 103.774 1367.38 104.687 1369.03 104.687C1370.66 104.687 1371.8 103.774 1371.8 102.333C1371.8 101.277 1371.23 100.573 1370.21 100.298ZM1369.03 97.042C1370.02 97.042 1370.5 97.669 1370.5 98.439C1370.5 99.176 1370.12 99.913 1369.03 99.913C1367.92 99.913 1367.53 99.176 1367.53 98.439C1367.53 97.669 1368.02 97.042 1369.03 97.042ZM1369.03 103.862C1367.93 103.862 1367.3 103.246 1367.3 102.322C1367.3 101.189 1368.1 100.716 1369.03 100.716C1369.94 100.716 1370.73 101.189 1370.73 102.322C1370.73 103.246 1370.13 103.862 1369.03 103.862Z" fill="white" fill-opacity="0.6"/>
<path d="M1438.86 104.5V103.686H1437.27V96.393H1436.47L1434.3 98.263L1434.84 98.912L1436.31 97.603C1436.3 97.68 1436.3 97.779 1436.3 97.878V103.686H1434.5V104.5H1438.86ZM1443.64 101.299L1441.13 104.5H1442.4L1444.61 101.453C1445.22 100.606 1445.58 99.869 1445.58 98.912C1445.58 97.339 1444.53 96.239 1442.95 96.239C1441.34 96.239 1440.21 97.394 1440.21 98.835C1440.21 100.364 1441.26 101.2 1442.53 101.2C1443.13 101.2 1443.65 101.024 1444.08 100.683C1444 100.782 1443.87 100.991 1443.64 101.299ZM1441.23 98.758C1441.23 97.779 1441.91 97.108 1442.94 97.108C1443.88 97.108 1444.6 97.735 1444.6 98.791C1444.6 99.638 1443.96 100.408 1442.86 100.408C1441.85 100.408 1441.23 99.825 1441.23 98.758Z" fill="white" fill-opacity="0.6"/>
<path d="M1512.94 104.5V103.609H1509.76C1509.49 103.609 1509.16 103.653 1508.85 103.741L1511.11 101.508C1512.02 100.595 1512.79 99.759 1512.79 98.56C1512.79 97.13 1511.72 96.294 1510.35 96.294C1508.97 96.294 1507.9 97.097 1507.7 98.582L1508.69 98.747C1508.69 97.823 1509.37 97.163 1510.29 97.163C1511.13 97.163 1511.74 97.614 1511.78 98.582C1511.78 99.528 1511.16 100.221 1510.31 101.123L1507.53 103.796V104.5H1512.94ZM1519.76 100.485C1519.76 97.614 1518.46 96.305 1516.8 96.305C1515.13 96.305 1513.84 97.614 1513.84 100.485C1513.84 103.345 1515.13 104.654 1516.8 104.654C1518.46 104.654 1519.76 103.345 1519.76 100.485ZM1518.75 100.485C1518.75 102.993 1517.82 103.84 1516.8 103.84C1515.78 103.84 1514.86 102.993 1514.86 100.485C1514.86 97.966 1515.78 97.13 1516.8 97.13C1517.82 97.13 1518.75 97.966 1518.75 100.485Z" fill="white" fill-opacity="0.6"/>
<path d="M1586.82 104.5V103.609H1583.64C1583.36 103.609 1583.03 103.653 1582.73 103.741L1584.98 101.508C1585.89 100.595 1586.66 99.759 1586.66 98.56C1586.66 97.13 1585.6 96.294 1584.22 96.294C1582.85 96.294 1581.78 97.097 1581.57 98.582L1582.56 98.747C1582.56 97.823 1583.24 97.163 1584.17 97.163C1585 97.163 1585.62 97.614 1585.65 98.582C1585.65 99.528 1585.04 100.221 1584.19 101.123L1581.41 103.796V104.5H1586.82ZM1593.16 104.5V103.686H1591.58V96.393H1590.77L1588.61 98.263L1589.15 98.912L1590.61 97.603C1590.6 97.68 1590.6 97.779 1590.6 97.878V103.686H1588.81V104.5H1593.16Z" fill="white" fill-opacity="0.6"/>
<path d="M1660.69 104.5V103.609H1657.51C1657.24 103.609 1656.91 103.653 1656.6 103.741L1658.86 101.508C1659.77 100.595 1660.54 99.759 1660.54 98.56C1660.54 97.13 1659.47 96.294 1658.1 96.294C1656.72 96.294 1655.65 97.097 1655.45 98.582L1656.44 98.747C1656.44 97.823 1657.12 97.163 1658.04 97.163C1658.88 97.163 1659.49 97.614 1659.53 98.582C1659.53 99.528 1658.91 100.221 1658.06 101.123L1655.28 103.796V104.5H1660.69ZM1667.25 104.5V103.609H1664.07C1663.79 103.609 1663.46 103.653 1663.15 103.741L1665.41 101.508C1666.32 100.595 1667.09 99.759 1667.09 98.56C1667.09 97.13 1666.02 96.294 1664.65 96.294C1663.27 96.294 1662.21 97.097 1662 98.582L1662.99 98.747C1662.99 97.823 1663.67 97.163 1664.59 97.163C1665.43 97.163 1666.05 97.614 1666.08 98.582C1666.08 99.528 1665.46 100.221 1664.62 101.123L1661.83 103.796V104.5H1667.25Z" fill="white" fill-opacity="0.6"/>
<path d="M1734.57 104.5V103.609H1731.39C1731.11 103.609 1730.78 103.653 1730.48 103.741L1732.73 101.508C1733.64 100.595 1734.41 99.759 1734.41 98.56C1734.41 97.13 1733.35 96.294 1731.97 96.294C1730.6 96.294 1729.53 97.097 1729.32 98.582L1730.31 98.747C1730.31 97.823 1730.99 97.163 1731.92 97.163C1732.75 97.163 1733.37 97.614 1733.4 98.582C1733.4 99.528 1732.79 100.221 1731.94 101.123L1729.16 103.796V104.5H1734.57ZM1735.91 98.604L1736.91 98.769C1736.91 97.867 1737.58 97.185 1738.5 97.185C1739.35 97.185 1739.94 97.636 1739.94 98.56C1739.94 99.396 1739.44 99.979 1738.02 100.012V100.738C1739.75 100.738 1740.11 101.376 1740.11 102.245C1740.11 102.96 1739.55 103.774 1738.39 103.774C1737.56 103.774 1737.06 103.345 1736.72 102.641C1736.63 102.432 1736.58 102.267 1736.56 102.146L1735.65 102.52C1736.04 103.708 1736.67 104.643 1738.4 104.643C1739.91 104.643 1741.13 103.697 1741.13 102.223C1741.13 101.211 1740.58 100.54 1739.53 100.276C1740.41 99.979 1740.94 99.451 1740.94 98.395C1740.94 97.163 1739.95 96.305 1738.56 96.305C1737.18 96.305 1736.12 97.141 1735.91 98.604Z" fill="white" fill-opacity="0.6"/>
<path d="M1808.44 104.5V103.609H1805.26C1804.99 103.609 1804.66 103.653 1804.35 103.741L1806.61 101.508C1807.52 100.595 1808.29 99.759 1808.29 98.56C1808.29 97.13 1807.22 96.294 1805.85 96.294C1804.47 96.294 1803.4 97.097 1803.2 98.582L1804.19 98.747C1804.19 97.823 1804.87 97.163 1805.79 97.163C1806.63 97.163 1807.24 97.614 1807.28 98.582C1807.28 99.528 1806.66 100.221 1805.81 101.123L1803.03 103.796V104.5H1808.44ZM1815.38 102.355V101.563H1814.16V96.349H1813.21L1809.24 101.607V102.355H1813.27V104.5H1814.16V102.355H1815.38ZM1813.27 98.197V101.563H1810.34L1813.31 97.515C1813.28 97.746 1813.27 98.01 1813.27 98.197Z" fill="white" fill-opacity="0.6"/>
</svg>
