<svg width="1808" height="84" viewBox="0 0 1808 84" fill="none" xmlns="http://www.w3.org/2000/svg">
<path d="M7.27453 9.855V9.063H6.05353V3.849H5.10753L1.13653 9.107V9.855H5.16253V12H6.05353V9.855H7.27453ZM5.16253 5.697V9.063H2.23653L5.20653 5.015C5.17353 5.246 5.16253 5.51 5.16253 5.697ZM13.7063 7.985C13.7063 5.114 12.4083 3.805 10.7473 3.805C9.07527 3.805 7.78827 5.114 7.78827 7.985C7.78827 10.845 9.07527 12.154 10.7473 12.154C12.4083 12.154 13.7063 10.845 13.7063 7.985ZM12.6943 7.985C12.6943 10.493 11.7703 11.34 10.7473 11.34C9.72427 11.34 8.81127 10.493 8.81127 7.985C8.81127 5.466 9.72427 4.63 10.7473 4.63C11.7703 4.63 12.6943 5.466 12.6943 7.985Z" fill="white" fill-opacity="0.6"/>
<path d="M6.88953 37.5V36.609H3.71053C3.43553 36.609 3.10553 36.653 2.79753 36.741L5.05253 34.508C5.96553 33.595 6.73553 32.759 6.73553 31.56C6.73553 30.13 5.66853 29.294 4.29353 29.294C2.91853 29.294 1.85153 30.097 1.64253 31.582L2.63253 31.747C2.63253 30.823 3.31453 30.163 4.23853 30.163C5.07453 30.163 5.69053 30.614 5.72353 31.582C5.72353 32.528 5.10753 33.221 4.26053 34.123L1.47753 36.796V37.5H6.88953ZM13.7063 33.485C13.7063 30.614 12.4083 29.305 10.7473 29.305C9.07527 29.305 7.78827 30.614 7.78827 33.485C7.78827 36.345 9.07527 37.654 10.7473 37.654C12.4083 37.654 13.7063 36.345 13.7063 33.485ZM12.6943 33.485C12.6943 35.993 11.7703 36.84 10.7473 36.84C9.72427 36.84 8.81127 35.993 8.81127 33.485C8.81127 30.966 9.72427 30.13 10.7473 30.13C11.7703 30.13 12.6943 30.966 12.6943 33.485Z" fill="white" fill-opacity="0.6"/>
<path d="M13.7063 58.985C13.7063 56.114 12.4083 54.805 10.7473 54.805C9.07527 54.805 7.78827 56.114 7.78827 58.985C7.78827 61.845 9.07527 63.154 10.7473 63.154C12.4083 63.154 13.7063 61.845 13.7063 58.985ZM12.6943 58.985C12.6943 61.493 11.7703 62.34 10.7473 62.34C9.72427 62.34 8.81127 61.493 8.81127 58.985C8.81127 56.466 9.72427 55.63 10.7473 55.63C11.7703 55.63 12.6943 56.466 12.6943 58.985Z" fill="white" fill-opacity="0.6"/>
<path d="M37 9C39.2091 9 41 7.20914 41 5C41 2.79086 39.2091 1 37 1C34.7909 1 33 2.79086 33 5C33 7.20914 34.7909 9 37 9Z" fill="#16D9AB" stroke="white" stroke-miterlimit="10"/>
<path d="M110.458 11C112.668 11 114.458 9.20914 114.458 7C114.458 4.79086 112.668 3 110.458 3C108.249 3 106.458 4.79086 106.458 7C106.458 9.20914 108.249 11 110.458 11Z" fill="#16D9AB" stroke="white" stroke-miterlimit="10"/>
<path d="M183.917 9C186.126 9 187.917 7.20914 187.917 5C187.917 2.79086 186.126 1 183.917 1C181.707 1 179.917 2.79086 179.917 5C179.917 7.20914 181.707 9 183.917 9Z" fill="#16D9AB" stroke="white" stroke-miterlimit="10"/>
<path d="M257.375 13C259.584 13 261.375 11.2091 261.375 9C261.375 6.79086 259.584 5 257.375 5C255.166 5 253.375 6.79086 253.375 9C253.375 11.2091 255.166 13 257.375 13Z" fill="#16D9AB" stroke="white" stroke-miterlimit="10"/>
<path d="M330.833 11C333.043 11 334.833 9.20914 334.833 7C334.833 4.79086 333.043 3 330.833 3C328.624 3 326.833 4.79086 326.833 7C326.833 9.20914 328.624 11 330.833 11Z" fill="#16D9AB" stroke="white" stroke-miterlimit="10"/>
<path d="M404.292 13C406.501 13 408.292 11.2091 408.292 9C408.292 6.79086 406.501 5 404.292 5C402.082 5 400.292 6.79086 400.292 9C400.292 11.2091 402.082 13 404.292 13Z" fill="#16D9AB" stroke="white" stroke-miterlimit="10"/>
<path d="M477.75 11C479.959 11 481.75 9.20914 481.75 7C481.75 4.79086 479.959 3 477.75 3C475.541 3 473.75 4.79086 473.75 7C473.75 9.20914 475.541 11 477.75 11Z" fill="#16D9AB" stroke="white" stroke-miterlimit="10"/>
<path d="M551.208 9C553.418 9 555.208 7.20914 555.208 5C555.208 2.79086 553.418 1 551.208 1C548.999 1 547.208 2.79086 547.208 5C547.208 7.20914 548.999 9 551.208 9Z" fill="#16D9AB" stroke="white" stroke-miterlimit="10"/>
<path d="M624.667 9C626.876 9 628.667 7.20914 628.667 5C628.667 2.79086 626.876 1 624.667 1C622.457 1 620.667 2.79086 620.667 5C620.667 7.20914 622.457 9 624.667 9Z" fill="#16D9AB" stroke="white" stroke-miterlimit="10"/>
<path d="M698.125 13C700.334 13 702.125 11.2091 702.125 9C702.125 6.79086 700.334 5 698.125 5C695.916 5 694.125 6.79086 694.125 9C694.125 11.2091 695.916 13 698.125 13Z" fill="#16D9AB" stroke="white" stroke-miterlimit="10"/>
<path d="M771.583 11C773.793 11 775.583 9.20914 775.583 7C775.583 4.79086 773.793 3 771.583 3C769.374 3 767.583 4.79086 767.583 7C767.583 9.20914 769.374 11 771.583 11Z" fill="#16D9AB" stroke="white" stroke-miterlimit="10"/>
<path d="M845.042 13C847.251 13 849.042 11.2091 849.042 9C849.042 6.79086 847.251 5 845.042 5C842.832 5 841.042 6.79086 841.042 9C841.042 11.2091 842.832 13 845.042 13Z" fill="#16D9AB" stroke="white" stroke-miterlimit="10"/>
<path d="M918.5 9C920.709 9 922.5 7.20914 922.5 5C922.5 2.79086 920.709 1 918.5 1C916.291 1 914.5 2.79086 914.5 5C914.5 7.20914 916.291 9 918.5 9Z" fill="#16D9AB" stroke="white" stroke-miterlimit="10"/>
<path d="M991.958 11C994.167 11 995.958 9.20914 995.958 7C995.958 4.79086 994.167 3 991.958 3C989.749 3 987.958 4.79086 987.958 7C987.958 9.20914 989.749 11 991.958 11Z" fill="#16D9AB" stroke="white" stroke-miterlimit="10"/>
<path d="M1065.42 13C1067.63 13 1069.42 11.2091 1069.42 9C1069.42 6.79086 1067.63 5 1065.42 5C1063.21 5 1061.42 6.79086 1061.42 9C1061.42 11.2091 1063.21 13 1065.42 13Z" fill="#16D9AB" stroke="white" stroke-miterlimit="10"/>
<path d="M1138.88 9C1141.08 9 1142.88 7.20914 1142.88 5C1142.88 2.79086 1141.08 1 1138.88 1C1136.67 1 1134.88 2.79086 1134.88 5C1134.88 7.20914 1136.67 9 1138.88 9Z" fill="#16D9AB" stroke="white" stroke-miterlimit="10"/>
<path d="M1212.33 11C1214.54 11 1216.33 9.20914 1216.33 7C1216.33 4.79086 1214.54 3 1212.33 3C1210.12 3 1208.33 4.79086 1208.33 7C1208.33 9.20914 1210.12 11 1212.33 11Z" fill="#16D9AB" stroke="white" stroke-miterlimit="10"/>
<path d="M1285.79 13C1288 13 1289.79 11.2091 1289.79 9C1289.79 6.79086 1288 5 1285.79 5C1283.58 5 1281.79 6.79086 1281.79 9C1281.79 11.2091 1283.58 13 1285.79 13Z" fill="#16D9AB" stroke="white" stroke-miterlimit="10"/>
<path d="M1359.25 9C1361.46 9 1363.25 7.20914 1363.25 5C1363.25 2.79086 1361.46 1 1359.25 1C1357.04 1 1355.25 2.79086 1355.25 5C1355.25 7.20914 1357.04 9 1359.25 9Z" fill="#16D9AB" stroke="white" stroke-miterlimit="10"/>
<path d="M1432.71 9C1434.92 9 1436.71 7.20914 1436.71 5C1436.71 2.79086 1434.92 1 1432.71 1C1430.5 1 1428.71 2.79086 1428.71 5C1428.71 7.20914 1430.5 9 1432.71 9Z" fill="#16D9AB" stroke="white" stroke-miterlimit="10"/>
<path d="M1506.17 11C1508.38 11 1510.17 9.20914 1510.17 7C1510.17 4.79086 1508.38 3 1506.17 3C1503.96 3 1502.17 4.79086 1502.17 7C1502.17 9.20914 1503.96 11 1506.17 11Z" fill="#16D9AB" stroke="white" stroke-miterlimit="10"/>
<path d="M1579.62 13C1581.83 13 1583.62 11.2091 1583.62 9C1583.62 6.79086 1581.83 5 1579.62 5C1577.42 5 1575.62 6.79086 1575.62 9C1575.62 11.2091 1577.42 13 1579.62 13Z" fill="#16D9AB" stroke="white" stroke-miterlimit="10"/>
<path d="M1653.08 9C1655.29 9 1657.08 7.20914 1657.08 5C1657.08 2.79086 1655.29 1 1653.08 1C1650.87 1 1649.08 2.79086 1649.08 5C1649.08 7.20914 1650.87 9 1653.08 9Z" fill="#16D9AB" stroke="white" stroke-miterlimit="10"/>
<path d="M1726.54 11C1728.75 11 1730.54 9.20914 1730.54 7C1730.54 4.79086 1728.75 3 1726.54 3C1724.33 3 1722.54 4.79086 1722.54 7C1722.54 9.20914 1724.33 11 1726.54 11Z" fill="#16D9AB" stroke="white" stroke-miterlimit="10"/>
<path d="M1800 13C1802.21 13 1804 11.2091 1804 9C1804 6.79086 1802.21 5 1800 5C1797.79 5 1796 6.79086 1796 9C1796 11.2091 1797.79 13 1800 13Z" fill="#16D9AB" stroke="white" stroke-miterlimit="10"/>
<path d="M37 23.25C39.2091 23.25 41 21.4591 41 19.25C41 17.0409 39.2091 15.25 37 15.25C34.7909 15.25 33 17.0409 33 19.25C33 21.4591 34.7909 23.25 37 23.25Z" fill="#27D4FF" stroke="white" stroke-miterlimit="10"/>
<path d="M110.458 25.25C112.668 25.25 114.458 23.4591 114.458 21.25C114.458 19.0409 112.668 17.25 110.458 17.25C108.249 17.25 106.458 19.0409 106.458 21.25C106.458 23.4591 108.249 25.25 110.458 25.25Z" fill="#27D4FF" stroke="white" stroke-miterlimit="10"/>
<path d="M183.917 23.25C186.126 23.25 187.917 21.4591 187.917 19.25C187.917 17.0409 186.126 15.25 183.917 15.25C181.707 15.25 179.917 17.0409 179.917 19.25C179.917 21.4591 181.707 23.25 183.917 23.25Z" fill="#27D4FF" stroke="white" stroke-miterlimit="10"/>
<path d="M257.375 27.25C259.584 27.25 261.375 25.4591 261.375 23.25C261.375 21.0409 259.584 19.25 257.375 19.25C255.166 19.25 253.375 21.0409 253.375 23.25C253.375 25.4591 255.166 27.25 257.375 27.25Z" fill="#27D4FF" stroke="white" stroke-miterlimit="10"/>
<path d="M330.833 25.25C333.043 25.25 334.833 23.4591 334.833 21.25C334.833 19.0409 333.043 17.25 330.833 17.25C328.624 17.25 326.833 19.0409 326.833 21.25C326.833 23.4591 328.624 25.25 330.833 25.25Z" fill="#27D4FF" stroke="white" stroke-miterlimit="10"/>
<path d="M404.292 27.25C406.501 27.25 408.292 25.4591 408.292 23.25C408.292 21.0409 406.501 19.25 404.292 19.25C402.082 19.25 400.292 21.0409 400.292 23.25C400.292 25.4591 402.082 27.25 404.292 27.25Z" fill="#27D4FF" stroke="white" stroke-miterlimit="10"/>
<path d="M477.75 25.25C479.959 25.25 481.75 23.4591 481.75 21.25C481.75 19.0409 479.959 17.25 477.75 17.25C475.541 17.25 473.75 19.0409 473.75 21.25C473.75 23.4591 475.541 25.25 477.75 25.25Z" fill="#27D4FF" stroke="white" stroke-miterlimit="10"/>
<path d="M551.208 23.25C553.418 23.25 555.208 21.4591 555.208 19.25C555.208 17.0409 553.418 15.25 551.208 15.25C548.999 15.25 547.208 17.0409 547.208 19.25C547.208 21.4591 548.999 23.25 551.208 23.25Z" fill="#27D4FF" stroke="white" stroke-miterlimit="10"/>
<path d="M624.667 23.25C626.876 23.25 628.667 21.4591 628.667 19.25C628.667 17.0409 626.876 15.25 624.667 15.25C622.457 15.25 620.667 17.0409 620.667 19.25C620.667 21.4591 622.457 23.25 624.667 23.25Z" fill="#27D4FF" stroke="white" stroke-miterlimit="10"/>
<path d="M698.125 27.25C700.334 27.25 702.125 25.4591 702.125 23.25C702.125 21.0409 700.334 19.25 698.125 19.25C695.916 19.25 694.125 21.0409 694.125 23.25C694.125 25.4591 695.916 27.25 698.125 27.25Z" fill="#27D4FF" stroke="white" stroke-miterlimit="10"/>
<path d="M771.583 25.25C773.793 25.25 775.583 23.4591 775.583 21.25C775.583 19.0409 773.793 17.25 771.583 17.25C769.374 17.25 767.583 19.0409 767.583 21.25C767.583 23.4591 769.374 25.25 771.583 25.25Z" fill="#27D4FF" stroke="white" stroke-miterlimit="10"/>
<path d="M845.042 27.25C847.251 27.25 849.042 25.4591 849.042 23.25C849.042 21.0409 847.251 19.25 845.042 19.25C842.832 19.25 841.042 21.0409 841.042 23.25C841.042 25.4591 842.832 27.25 845.042 27.25Z" fill="#27D4FF" stroke="white" stroke-miterlimit="10"/>
<path d="M918.5 23.25C920.709 23.25 922.5 21.4591 922.5 19.25C922.5 17.0409 920.709 15.25 918.5 15.25C916.291 15.25 914.5 17.0409 914.5 19.25C914.5 21.4591 916.291 23.25 918.5 23.25Z" fill="#27D4FF" stroke="white" stroke-miterlimit="10"/>
<path d="M991.958 25.25C994.167 25.25 995.958 23.4591 995.958 21.25C995.958 19.0409 994.167 17.25 991.958 17.25C989.749 17.25 987.958 19.0409 987.958 21.25C987.958 23.4591 989.749 25.25 991.958 25.25Z" fill="#27D4FF" stroke="white" stroke-miterlimit="10"/>
<path d="M1065.42 27.25C1067.63 27.25 1069.42 25.4591 1069.42 23.25C1069.42 21.0409 1067.63 19.25 1065.42 19.25C1063.21 19.25 1061.42 21.0409 1061.42 23.25C1061.42 25.4591 1063.21 27.25 1065.42 27.25Z" fill="#27D4FF" stroke="white" stroke-miterlimit="10"/>
<path d="M1138.88 23.25C1141.08 23.25 1142.88 21.4591 1142.88 19.25C1142.88 17.0409 1141.08 15.25 1138.88 15.25C1136.67 15.25 1134.88 17.0409 1134.88 19.25C1134.88 21.4591 1136.67 23.25 1138.88 23.25Z" fill="#27D4FF" stroke="white" stroke-miterlimit="10"/>
<path d="M1212.33 25.25C1214.54 25.25 1216.33 23.4591 1216.33 21.25C1216.33 19.0409 1214.54 17.25 1212.33 17.25C1210.12 17.25 1208.33 19.0409 1208.33 21.25C1208.33 23.4591 1210.12 25.25 1212.33 25.25Z" fill="#27D4FF" stroke="white" stroke-miterlimit="10"/>
<path d="M1285.79 27.25C1288 27.25 1289.79 25.4591 1289.79 23.25C1289.79 21.0409 1288 19.25 1285.79 19.25C1283.58 19.25 1281.79 21.0409 1281.79 23.25C1281.79 25.4591 1283.58 27.25 1285.79 27.25Z" fill="#27D4FF" stroke="white" stroke-miterlimit="10"/>
<path d="M1359.25 23.25C1361.46 23.25 1363.25 21.4591 1363.25 19.25C1363.25 17.0409 1361.46 15.25 1359.25 15.25C1357.04 15.25 1355.25 17.0409 1355.25 19.25C1355.25 21.4591 1357.04 23.25 1359.25 23.25Z" fill="#27D4FF" stroke="white" stroke-miterlimit="10"/>
<path d="M1432.71 23.25C1434.92 23.25 1436.71 21.4591 1436.71 19.25C1436.71 17.0409 1434.92 15.25 1432.71 15.25C1430.5 15.25 1428.71 17.0409 1428.71 19.25C1428.71 21.4591 1430.5 23.25 1432.71 23.25Z" fill="#27D4FF" stroke="white" stroke-miterlimit="10"/>
<path d="M1506.17 25.25C1508.38 25.25 1510.17 23.4591 1510.17 21.25C1510.17 19.0409 1508.38 17.25 1506.17 17.25C1503.96 17.25 1502.17 19.0409 1502.17 21.25C1502.17 23.4591 1503.96 25.25 1506.17 25.25Z" fill="#27D4FF" stroke="white" stroke-miterlimit="10"/>
<path d="M1579.62 27.25C1581.83 27.25 1583.62 25.4591 1583.62 23.25C1583.62 21.0409 1581.83 19.25 1579.62 19.25C1577.42 19.25 1575.62 21.0409 1575.62 23.25C1575.62 25.4591 1577.42 27.25 1579.62 27.25Z" fill="#27D4FF" stroke="white" stroke-miterlimit="10"/>
<path d="M1653.08 23.25C1655.29 23.25 1657.08 21.4591 1657.08 19.25C1657.08 17.0409 1655.29 15.25 1653.08 15.25C1650.87 15.25 1649.08 17.0409 1649.08 19.25C1649.08 21.4591 1650.87 23.25 1653.08 23.25Z" fill="#27D4FF" stroke="white" stroke-miterlimit="10"/>
<path d="M1726.54 25.25C1728.75 25.25 1730.54 23.4591 1730.54 21.25C1730.54 19.0409 1728.75 17.25 1726.54 17.25C1724.33 17.25 1722.54 19.0409 1722.54 21.25C1722.54 23.4591 1724.33 25.25 1726.54 25.25Z" fill="#27D4FF" stroke="white" stroke-miterlimit="10"/>
<path d="M1800 27.25C1802.21 27.25 1804 25.4591 1804 23.25C1804 21.0409 1802.21 19.25 1800 19.25C1797.79 19.25 1796 21.0409 1796 23.25C1796 25.4591 1797.79 27.25 1800 27.25Z" fill="#27D4FF" stroke="white" stroke-miterlimit="10"/>
<path d="M37 37.5C39.2091 37.5 41 35.7091 41 33.5C41 31.2909 39.2091 29.5 37 29.5C34.7909 29.5 33 31.2909 33 33.5C33 35.7091 34.7909 37.5 37 37.5Z" fill="#0068E6" stroke="white" stroke-miterlimit="10"/>
<path d="M110.458 39.5C112.668 39.5 114.458 37.7091 114.458 35.5C114.458 33.2909 112.668 31.5 110.458 31.5C108.249 31.5 106.458 33.2909 106.458 35.5C106.458 37.7091 108.249 39.5 110.458 39.5Z" fill="#0068E6" stroke="white" stroke-miterlimit="10"/>
<path d="M183.917 41.5C186.126 41.5 187.917 39.7091 187.917 37.5C187.917 35.2909 186.126 33.5 183.917 33.5C181.707 33.5 179.917 35.2909 179.917 37.5C179.917 39.7091 181.707 41.5 183.917 41.5Z" fill="#0068E6" stroke="white" stroke-miterlimit="10"/>
<path d="M257.375 37.5C259.584 37.5 261.375 35.7091 261.375 33.5C261.375 31.2909 259.584 29.5 257.375 29.5C255.166 29.5 253.375 31.2909 253.375 33.5C253.375 35.7091 255.166 37.5 257.375 37.5Z" fill="#0068E6" stroke="white" stroke-miterlimit="10"/>
<path d="M330.833 39.5C333.043 39.5 334.833 37.7091 334.833 35.5C334.833 33.2909 333.043 31.5 330.833 31.5C328.624 31.5 326.833 33.2909 326.833 35.5C326.833 37.7091 328.624 39.5 330.833 39.5Z" fill="#0068E6" stroke="white" stroke-miterlimit="10"/>
<path d="M404.292 41.5C406.501 41.5 408.292 39.7091 408.292 37.5C408.292 35.2909 406.501 33.5 404.292 33.5C402.082 33.5 400.292 35.2909 400.292 37.5C400.292 39.7091 402.082 41.5 404.292 41.5Z" fill="#0068E6" stroke="white" stroke-miterlimit="10"/>
<path d="M477.75 37.5C479.959 37.5 481.75 35.7091 481.75 33.5C481.75 31.2909 479.959 29.5 477.75 29.5C475.541 29.5 473.75 31.2909 473.75 33.5C473.75 35.7091 475.541 37.5 477.75 37.5Z" fill="#0068E6" stroke="white" stroke-miterlimit="10"/>
<path d="M551.208 39.5C553.418 39.5 555.208 37.7091 555.208 35.5C555.208 33.2909 553.418 31.5 551.208 31.5C548.999 31.5 547.208 33.2909 547.208 35.5C547.208 37.7091 548.999 39.5 551.208 39.5Z" fill="#0068E6" stroke="white" stroke-miterlimit="10"/>
<path d="M624.667 41.5C626.876 41.5 628.667 39.7091 628.667 37.5C628.667 35.2909 626.876 33.5 624.667 33.5C622.457 33.5 620.667 35.2909 620.667 37.5C620.667 39.7091 622.457 41.5 624.667 41.5Z" fill="#0068E6" stroke="white" stroke-miterlimit="10"/>
<path d="M698.125 37.5C700.334 37.5 702.125 35.7091 702.125 33.5C702.125 31.2909 700.334 29.5 698.125 29.5C695.916 29.5 694.125 31.2909 694.125 33.5C694.125 35.7091 695.916 37.5 698.125 37.5Z" fill="#0068E6" stroke="white" stroke-miterlimit="10"/>
<path d="M771.583 39.5C773.793 39.5 775.583 37.7091 775.583 35.5C775.583 33.2909 773.793 31.5 771.583 31.5C769.374 31.5 767.583 33.2909 767.583 35.5C767.583 37.7091 769.374 39.5 771.583 39.5Z" fill="#0068E6" stroke="white" stroke-miterlimit="10"/>
<path d="M845.042 41.5C847.251 41.5 849.042 39.7091 849.042 37.5C849.042 35.2909 847.251 33.5 845.042 33.5C842.832 33.5 841.042 35.2909 841.042 37.5C841.042 39.7091 842.832 41.5 845.042 41.5Z" fill="#0068E6" stroke="white" stroke-miterlimit="10"/>
<path d="M918.5 37.5C920.709 37.5 922.5 35.7091 922.5 33.5C922.5 31.2909 920.709 29.5 918.5 29.5C916.291 29.5 914.5 31.2909 914.5 33.5C914.5 35.7091 916.291 37.5 918.5 37.5Z" fill="#0068E6" stroke="white" stroke-miterlimit="10"/>
<path d="M991.958 39.5C994.167 39.5 995.958 37.7091 995.958 35.5C995.958 33.2909 994.167 31.5 991.958 31.5C989.749 31.5 987.958 33.2909 987.958 35.5C987.958 37.7091 989.749 39.5 991.958 39.5Z" fill="#0068E6" stroke="white" stroke-miterlimit="10"/>
<path d="M1065.42 41.5C1067.63 41.5 1069.42 39.7091 1069.42 37.5C1069.42 35.2909 1067.63 33.5 1065.42 33.5C1063.21 33.5 1061.42 35.2909 1061.42 37.5C1061.42 39.7091 1063.21 41.5 1065.42 41.5Z" fill="#0068E6" stroke="white" stroke-miterlimit="10"/>
<path d="M1138.88 37.5C1141.08 37.5 1142.88 35.7091 1142.88 33.5C1142.88 31.2909 1141.08 29.5 1138.88 29.5C1136.67 29.5 1134.88 31.2909 1134.88 33.5C1134.88 35.7091 1136.67 37.5 1138.88 37.5Z" fill="#0068E6" stroke="white" stroke-miterlimit="10"/>
<path d="M1212.33 39.5C1214.54 39.5 1216.33 37.7091 1216.33 35.5C1216.33 33.2909 1214.54 31.5 1212.33 31.5C1210.12 31.5 1208.33 33.2909 1208.33 35.5C1208.33 37.7091 1210.12 39.5 1212.33 39.5Z" fill="#0068E6" stroke="white" stroke-miterlimit="10"/>
<path d="M1285.79 41.5C1288 41.5 1289.79 39.7091 1289.79 37.5C1289.79 35.2909 1288 33.5 1285.79 33.5C1283.58 33.5 1281.79 35.2909 1281.79 37.5C1281.79 39.7091 1283.58 41.5 1285.79 41.5Z" fill="#0068E6" stroke="white" stroke-miterlimit="10"/>
<path d="M1359.25 37.5C1361.46 37.5 1363.25 35.7091 1363.25 33.5C1363.25 31.2909 1361.46 29.5 1359.25 29.5C1357.04 29.5 1355.25 31.2909 1355.25 33.5C1355.25 35.7091 1357.04 37.5 1359.25 37.5Z" fill="#0068E6" stroke="white" stroke-miterlimit="10"/>
<path d="M1432.71 37.5C1434.92 37.5 1436.71 35.7091 1436.71 33.5C1436.71 31.2909 1434.92 29.5 1432.71 29.5C1430.5 29.5 1428.71 31.2909 1428.71 33.5C1428.71 35.7091 1430.5 37.5 1432.71 37.5Z" fill="#0068E6" stroke="white" stroke-miterlimit="10"/>
<path d="M1506.17 39.5C1508.38 39.5 1510.17 37.7091 1510.17 35.5C1510.17 33.2909 1508.38 31.5 1506.17 31.5C1503.96 31.5 1502.17 33.2909 1502.17 35.5C1502.17 37.7091 1503.96 39.5 1506.17 39.5Z" fill="#0068E6" stroke="white" stroke-miterlimit="10"/>
<path d="M1579.62 41.5C1581.83 41.5 1583.62 39.7091 1583.62 37.5C1583.62 35.2909 1581.83 33.5 1579.62 33.5C1577.42 33.5 1575.62 35.2909 1575.62 37.5C1575.62 39.7091 1577.42 41.5 1579.62 41.5Z" fill="#0068E6" stroke="white" stroke-miterlimit="10"/>
<path d="M1653.08 37.5C1655.29 37.5 1657.08 35.7091 1657.08 33.5C1657.08 31.2909 1655.29 29.5 1653.08 29.5C1650.87 29.5 1649.08 31.2909 1649.08 33.5C1649.08 35.7091 1650.87 37.5 1653.08 37.5Z" fill="#0068E6" stroke="white" stroke-miterlimit="10"/>
<path d="M1726.54 39.5C1728.75 39.5 1730.54 37.7091 1730.54 35.5C1730.54 33.2909 1728.75 31.5 1726.54 31.5C1724.33 31.5 1722.54 33.2909 1722.54 35.5C1722.54 37.7091 1724.33 39.5 1726.54 39.5Z" fill="#0068E6" stroke="white" stroke-miterlimit="10"/>
<path d="M1800 41.5C1802.21 41.5 1804 39.7091 1804 37.5C1804 35.2909 1802.21 33.5 1800 33.5C1797.79 33.5 1796 35.2909 1796 37.5C1796 39.7091 1797.79 41.5 1800 41.5Z" fill="#0068E6" stroke="white" stroke-miterlimit="10"/>
<path d="M37 51.75C39.2091 51.75 41 49.9591 41 47.75C41 45.5409 39.2091 43.75 37 43.75C34.7909 43.75 33 45.5409 33 47.75C33 49.9591 34.7909 51.75 37 51.75Z" fill="#8972FF" stroke="white" stroke-miterlimit="10"/>
<path d="M110.458 53.75C112.668 53.75 114.458 51.9591 114.458 49.75C114.458 47.5409 112.668 45.75 110.458 45.75C108.249 45.75 106.458 47.5409 106.458 49.75C106.458 51.9591 108.249 53.75 110.458 53.75Z" fill="#8972FF" stroke="white" stroke-miterlimit="10"/>
<path d="M183.917 55.75C186.126 55.75 187.917 53.9591 187.917 51.75C187.917 49.5409 186.126 47.75 183.917 47.75C181.707 47.75 179.917 49.5409 179.917 51.75C179.917 53.9591 181.707 55.75 183.917 55.75Z" fill="#8972FF" stroke="white" stroke-miterlimit="10"/>
<path d="M257.375 51.75C259.584 51.75 261.375 49.9591 261.375 47.75C261.375 45.5409 259.584 43.75 257.375 43.75C255.166 43.75 253.375 45.5409 253.375 47.75C253.375 49.9591 255.166 51.75 257.375 51.75Z" fill="#8972FF" stroke="white" stroke-miterlimit="10"/>
<path d="M330.833 53.75C333.043 53.75 334.833 51.9591 334.833 49.75C334.833 47.5409 333.043 45.75 330.833 45.75C328.624 45.75 326.833 47.5409 326.833 49.75C326.833 51.9591 328.624 53.75 330.833 53.75Z" fill="#8972FF" stroke="white" stroke-miterlimit="10"/>
<path d="M404.292 51.75C406.501 51.75 408.292 49.9591 408.292 47.75C408.292 45.5409 406.501 43.75 404.292 43.75C402.082 43.75 400.292 45.5409 400.292 47.75C400.292 49.9591 402.082 51.75 404.292 51.75Z" fill="#8972FF" stroke="white" stroke-miterlimit="10"/>
<path d="M477.75 55.75C479.959 55.75 481.75 53.9591 481.75 51.75C481.75 49.5409 479.959 47.75 477.75 47.75C475.541 47.75 473.75 49.5409 473.75 51.75C473.75 53.9591 475.541 55.75 477.75 55.75Z" fill="#8972FF" stroke="white" stroke-miterlimit="10"/>
<path d="M551.208 53.75C553.418 53.75 555.208 51.9591 555.208 49.75C555.208 47.5409 553.418 45.75 551.208 45.75C548.999 45.75 547.208 47.5409 547.208 49.75C547.208 51.9591 548.999 53.75 551.208 53.75Z" fill="#8972FF" stroke="white" stroke-miterlimit="10"/>
<path d="M624.667 55.75C626.876 55.75 628.667 53.9591 628.667 51.75C628.667 49.5409 626.876 47.75 624.667 47.75C622.457 47.75 620.667 49.5409 620.667 51.75C620.667 53.9591 622.457 55.75 624.667 55.75Z" fill="#8972FF" stroke="white" stroke-miterlimit="10"/>
<path d="M698.125 55.75C700.334 55.75 702.125 53.9591 702.125 51.75C702.125 49.5409 700.334 47.75 698.125 47.75C695.916 47.75 694.125 49.5409 694.125 51.75C694.125 53.9591 695.916 55.75 698.125 55.75Z" fill="#8972FF" stroke="white" stroke-miterlimit="10"/>
<path d="M771.583 51.75C773.793 51.75 775.583 49.9591 775.583 47.75C775.583 45.5409 773.793 43.75 771.583 43.75C769.374 43.75 767.583 45.5409 767.583 47.75C767.583 49.9591 769.374 51.75 771.583 51.75Z" fill="#8972FF" stroke="white" stroke-miterlimit="10"/>
<path d="M845.042 53.75C847.251 53.75 849.042 51.9591 849.042 49.75C849.042 47.5409 847.251 45.75 845.042 45.75C842.832 45.75 841.042 47.5409 841.042 49.75C841.042 51.9591 842.832 53.75 845.042 53.75Z" fill="#8972FF" stroke="white" stroke-miterlimit="10"/>
<path d="M918.5 51.75C920.709 51.75 922.5 49.9591 922.5 47.75C922.5 45.5409 920.709 43.75 918.5 43.75C916.291 43.75 914.5 45.5409 914.5 47.75C914.5 49.9591 916.291 51.75 918.5 51.75Z" fill="#8972FF" stroke="white" stroke-miterlimit="10"/>
<path d="M991.958 53.75C994.167 53.75 995.958 51.9591 995.958 49.75C995.958 47.5409 994.167 45.75 991.958 45.75C989.749 45.75 987.958 47.5409 987.958 49.75C987.958 51.9591 989.749 53.75 991.958 53.75Z" fill="#8972FF" stroke="white" stroke-miterlimit="10"/>
<path d="M1065.42 55.75C1067.63 55.75 1069.42 53.9591 1069.42 51.75C1069.42 49.5409 1067.63 47.75 1065.42 47.75C1063.21 47.75 1061.42 49.5409 1061.42 51.75C1061.42 53.9591 1063.21 55.75 1065.42 55.75Z" fill="#8972FF" stroke="white" stroke-miterlimit="10"/>
<path d="M1138.88 55.75C1141.08 55.75 1142.88 53.9591 1142.88 51.75C1142.88 49.5409 1141.08 47.75 1138.88 47.75C1136.67 47.75 1134.88 49.5409 1134.88 51.75C1134.88 53.9591 1136.67 55.75 1138.88 55.75Z" fill="#8972FF" stroke="white" stroke-miterlimit="10"/>
<path d="M1212.33 51.75C1214.54 51.75 1216.33 49.9591 1216.33 47.75C1216.33 45.5409 1214.54 43.75 1212.33 43.75C1210.12 43.75 1208.33 45.5409 1208.33 47.75C1208.33 49.9591 1210.12 51.75 1212.33 51.75Z" fill="#8972FF" stroke="white" stroke-miterlimit="10"/>
<path d="M1285.79 53.75C1288 53.75 1289.79 51.9591 1289.79 49.75C1289.79 47.5409 1288 45.75 1285.79 45.75C1283.58 45.75 1281.79 47.5409 1281.79 49.75C1281.79 51.9591 1283.58 53.75 1285.79 53.75Z" fill="#8972FF" stroke="white" stroke-miterlimit="10"/>
<path d="M1359.25 51.75C1361.46 51.75 1363.25 49.9591 1363.25 47.75C1363.25 45.5409 1361.46 43.75 1359.25 43.75C1357.04 43.75 1355.25 45.5409 1355.25 47.75C1355.25 49.9591 1357.04 51.75 1359.25 51.75Z" fill="#8972FF" stroke="white" stroke-miterlimit="10"/>
<path d="M1432.71 51.75C1434.92 51.75 1436.71 49.9591 1436.71 47.75C1436.71 45.5409 1434.92 43.75 1432.71 43.75C1430.5 43.75 1428.71 45.5409 1428.71 47.75C1428.71 49.9591 1430.5 51.75 1432.71 51.75Z" fill="#8972FF" stroke="white" stroke-miterlimit="10"/>
<path d="M1506.17 53.75C1508.38 53.75 1510.17 51.9591 1510.17 49.75C1510.17 47.5409 1508.38 45.75 1506.17 45.75C1503.96 45.75 1502.17 47.5409 1502.17 49.75C1502.17 51.9591 1503.96 53.75 1506.17 53.75Z" fill="#8972FF" stroke="white" stroke-miterlimit="10"/>
<path d="M1579.62 51.75C1581.83 51.75 1583.62 49.9591 1583.62 47.75C1583.62 45.5409 1581.83 43.75 1579.62 43.75C1577.42 43.75 1575.62 45.5409 1575.62 47.75C1575.62 49.9591 1577.42 51.75 1579.62 51.75Z" fill="#8972FF" stroke="white" stroke-miterlimit="10"/>
<path d="M1653.08 55.75C1655.29 55.75 1657.08 53.9591 1657.08 51.75C1657.08 49.5409 1655.29 47.75 1653.08 47.75C1650.87 47.75 1649.08 49.5409 1649.08 51.75C1649.08 53.9591 1650.87 55.75 1653.08 55.75Z" fill="#8972FF" stroke="white" stroke-miterlimit="10"/>
<path d="M1726.54 55.75C1728.75 55.75 1730.54 53.9591 1730.54 51.75C1730.54 49.5409 1728.75 47.75 1726.54 47.75C1724.33 47.75 1722.54 49.5409 1722.54 51.75C1722.54 53.9591 1724.33 55.75 1726.54 55.75Z" fill="#8972FF" stroke="white" stroke-miterlimit="10"/>
<path d="M1800 53.75C1802.21 53.75 1804 51.9591 1804 49.75C1804 47.5409 1802.21 45.75 1800 45.75C1797.79 45.75 1796 47.5409 1796 49.75C1796 51.9591 1797.79 53.75 1800 53.75Z" fill="#8972FF" stroke="white" stroke-miterlimit="10"/>
<path d="M21 66H20V67H21V66ZM1808 65H21V67H1808V65ZM22 66V1H20V66H22Z" fill="white" fill-opacity="0.2" mask="url(#path-4-inside-1_252_9706)"/>
<path d="M35.7063 76.985C35.7063 74.114 34.4083 72.805 32.7473 72.805C31.0753 72.805 29.7883 74.114 29.7883 76.985C29.7883 79.845 31.0753 81.154 32.7473 81.154C34.4083 81.154 35.7063 79.845 35.7063 76.985ZM34.6943 76.985C34.6943 79.493 33.7703 80.34 32.7473 80.34C31.7243 80.34 30.8113 79.493 30.8113 76.985C30.8113 74.466 31.7243 73.63 32.7473 73.63C33.7703 73.63 34.6943 74.466 34.6943 76.985ZM42.259 76.985C42.259 74.114 40.961 72.805 39.3 72.805C37.628 72.805 36.341 74.114 36.341 76.985C36.341 79.845 37.628 81.154 39.3 81.154C40.961 81.154 42.259 79.845 42.259 76.985ZM41.247 76.985C41.247 79.493 40.323 80.34 39.3 80.34C38.277 80.34 37.364 79.493 37.364 76.985C37.364 74.466 38.277 73.63 39.3 73.63C40.323 73.63 41.247 74.466 41.247 76.985Z" fill="white" fill-opacity="0.6"/>
<path d="M109.248 76.985C109.248 74.114 107.95 72.805 106.289 72.805C104.617 72.805 103.33 74.114 103.33 76.985C103.33 79.845 104.617 81.154 106.289 81.154C107.95 81.154 109.248 79.845 109.248 76.985ZM108.236 76.985C108.236 79.493 107.312 80.34 106.289 80.34C105.266 80.34 104.353 79.493 104.353 76.985C104.353 74.466 105.266 73.63 106.289 73.63C107.312 73.63 108.236 74.466 108.236 76.985ZM115.328 81V80.186H113.744V72.893H112.941L110.774 74.763L111.313 75.412L112.776 74.103C112.765 74.18 112.765 74.279 112.765 74.378V80.186H110.972V81H115.328Z" fill="white" fill-opacity="0.6"/>
<path d="M182.79 76.985C182.79 74.114 181.492 72.805 179.831 72.805C178.159 72.805 176.872 74.114 176.872 76.985C176.872 79.845 178.159 81.154 179.831 81.154C181.492 81.154 182.79 79.845 182.79 76.985ZM181.778 76.985C181.778 79.493 180.854 80.34 179.831 80.34C178.808 80.34 177.895 79.493 177.895 76.985C177.895 74.466 178.808 73.63 179.831 73.63C180.854 73.63 181.778 74.466 181.778 76.985ZM189.078 81V80.109H185.899C185.624 80.109 185.294 80.153 184.986 80.241L187.241 78.008C188.154 77.095 188.924 76.259 188.924 75.06C188.924 73.63 187.857 72.794 186.482 72.794C185.107 72.794 184.04 73.597 183.831 75.082L184.821 75.247C184.821 74.323 185.503 73.663 186.427 73.663C187.263 73.663 187.879 74.114 187.912 75.082C187.912 76.028 187.296 76.721 186.449 77.623L183.666 80.296V81H189.078Z" fill="white" fill-opacity="0.6"/>
<path d="M256.331 76.985C256.331 74.114 255.033 72.805 253.372 72.805C251.7 72.805 250.413 74.114 250.413 76.985C250.413 79.845 251.7 81.154 253.372 81.154C255.033 81.154 256.331 79.845 256.331 76.985ZM255.319 76.985C255.319 79.493 254.395 80.34 253.372 80.34C252.349 80.34 251.436 79.493 251.436 76.985C251.436 74.466 252.349 73.63 253.372 73.63C254.395 73.63 255.319 74.466 255.319 76.985ZM257.406 75.104L258.407 75.269C258.407 74.367 259.078 73.685 260.002 73.685C260.849 73.685 261.443 74.136 261.443 75.06C261.443 75.896 260.937 76.479 259.518 76.512V77.238C261.245 77.238 261.608 77.876 261.608 78.745C261.608 79.46 261.047 80.274 259.892 80.274C259.056 80.274 258.561 79.845 258.22 79.141C258.132 78.932 258.077 78.767 258.055 78.646L257.153 79.02C257.538 80.208 258.165 81.143 259.903 81.143C261.41 81.143 262.631 80.197 262.631 78.723C262.631 77.711 262.081 77.04 261.025 76.776C261.905 76.479 262.444 75.951 262.444 74.895C262.444 73.663 261.454 72.805 260.057 72.805C258.682 72.805 257.615 73.641 257.406 75.104Z" fill="white" fill-opacity="0.6"/>
<path d="M329.873 76.985C329.873 74.114 328.575 72.805 326.914 72.805C325.242 72.805 323.955 74.114 323.955 76.985C323.955 79.845 325.242 81.154 326.914 81.154C328.575 81.154 329.873 79.845 329.873 76.985ZM328.861 76.985C328.861 79.493 327.937 80.34 326.914 80.34C325.891 80.34 324.978 79.493 324.978 76.985C324.978 74.466 325.891 73.63 326.914 73.63C327.937 73.63 328.861 74.466 328.861 76.985ZM336.547 78.855V78.063H335.326V72.849H334.38L330.409 78.107V78.855H334.435V81H335.326V78.855H336.547ZM334.435 74.697V78.063H331.509L334.479 74.015C334.446 74.246 334.435 74.51 334.435 74.697Z" fill="white" fill-opacity="0.6"/>
<path d="M403.415 76.985C403.415 74.114 402.117 72.805 400.456 72.805C398.784 72.805 397.497 74.114 397.497 76.985C397.497 79.845 398.784 81.154 400.456 81.154C402.117 81.154 403.415 79.845 403.415 76.985ZM402.403 76.985C402.403 79.493 401.479 80.34 400.456 80.34C399.433 80.34 398.52 79.493 398.52 76.985C398.52 74.466 399.433 73.63 400.456 73.63C401.479 73.63 402.403 74.466 402.403 76.985ZM405.809 75.94L406.172 73.828H409.329V72.904H405.468L404.808 76.721L405.457 76.908C405.93 76.743 406.348 76.644 406.777 76.644C407.932 76.644 408.614 77.26 408.614 78.316C408.614 79.504 407.811 80.197 406.7 80.197C406.04 80.197 405.402 79.9 404.918 79.493L404.379 80.23C404.874 80.703 405.688 81.099 406.656 81.099C408.295 81.099 409.582 79.977 409.582 78.261C409.582 76.853 408.669 75.797 406.964 75.797C406.568 75.797 406.183 75.841 405.809 75.94Z" fill="white" fill-opacity="0.6"/>
<path d="M476.956 76.985C476.956 74.114 475.658 72.805 473.997 72.805C472.325 72.805 471.038 74.114 471.038 76.985C471.038 79.845 472.325 81.154 473.997 81.154C475.658 81.154 476.956 79.845 476.956 76.985ZM475.944 76.985C475.944 79.493 475.02 80.34 473.997 80.34C472.974 80.34 472.061 79.493 472.061 76.985C472.061 74.466 472.974 73.63 473.997 73.63C475.02 73.63 475.944 74.466 475.944 76.985ZM479.901 75.94L482.332 72.893H481.067L478.823 75.918C478.119 76.842 477.822 77.656 477.822 78.371C477.822 80.043 478.889 81.143 480.528 81.143C482.178 81.143 483.322 79.977 483.322 78.481C483.322 76.93 482.222 76.05 480.902 76.05C480.363 76.05 479.912 76.204 479.516 76.468C479.593 76.38 479.714 76.204 479.901 75.94ZM480.506 80.296C479.406 80.296 478.801 79.592 478.801 78.536C478.801 77.623 479.494 76.831 480.572 76.831C481.573 76.831 482.31 77.491 482.31 78.558C482.31 79.559 481.573 80.296 480.506 80.296Z" fill="white" fill-opacity="0.6"/>
<path d="M550.498 76.985C550.498 74.114 549.2 72.805 547.539 72.805C545.867 72.805 544.58 74.114 544.58 76.985C544.58 79.845 545.867 81.154 547.539 81.154C549.2 81.154 550.498 79.845 550.498 76.985ZM549.486 76.985C549.486 79.493 548.562 80.34 547.539 80.34C546.516 80.34 545.603 79.493 545.603 76.985C545.603 74.466 546.516 73.63 547.539 73.63C548.562 73.63 549.486 74.466 549.486 76.985ZM556.853 73.586V72.937H551.551V73.795H555.764L555.39 74.411L552.101 81H553.212L556.853 73.586Z" fill="white" fill-opacity="0.6"/>
<path d="M624.04 76.985C624.04 74.114 622.742 72.805 621.081 72.805C619.409 72.805 618.122 74.114 618.122 76.985C618.122 79.845 619.409 81.154 621.081 81.154C622.742 81.154 624.04 79.845 624.04 76.985ZM623.028 76.985C623.028 79.493 622.104 80.34 621.081 80.34C620.058 80.34 619.145 79.493 619.145 76.985C619.145 74.466 620.058 73.63 621.081 73.63C622.104 73.63 623.028 74.466 623.028 76.985ZM628.788 76.798C629.668 76.479 630.108 75.841 630.108 74.906C630.108 73.718 629.085 72.739 627.611 72.739C626.082 72.739 625.114 73.718 625.114 74.906C625.114 75.83 625.576 76.479 626.412 76.798C625.4 77.073 624.817 77.777 624.817 78.833C624.817 80.274 625.961 81.187 627.611 81.187C629.239 81.187 630.383 80.274 630.383 78.833C630.383 77.777 629.811 77.073 628.788 76.798ZM627.611 73.542C628.601 73.542 629.085 74.169 629.085 74.939C629.085 75.676 628.7 76.413 627.611 76.413C626.5 76.413 626.115 75.676 626.115 74.939C626.115 74.169 626.599 73.542 627.611 73.542ZM627.611 80.362C626.511 80.362 625.884 79.746 625.884 78.822C625.884 77.689 626.687 77.216 627.611 77.216C628.524 77.216 629.316 77.689 629.316 78.822C629.316 79.746 628.711 80.362 627.611 80.362Z" fill="white" fill-opacity="0.6"/>
<path d="M697.581 76.985C697.581 74.114 696.283 72.805 694.622 72.805C692.95 72.805 691.663 74.114 691.663 76.985C691.663 79.845 692.95 81.154 694.622 81.154C696.283 81.154 697.581 79.845 697.581 76.985ZM696.569 76.985C696.569 79.493 695.645 80.34 694.622 80.34C693.599 80.34 692.686 79.493 692.686 76.985C692.686 74.466 693.599 73.63 694.622 73.63C695.645 73.63 696.569 74.466 696.569 76.985ZM701.89 77.799L699.382 81H700.647L702.858 77.953C703.474 77.106 703.826 76.369 703.826 75.412C703.826 73.839 702.781 72.739 701.197 72.739C699.591 72.739 698.458 73.894 698.458 75.335C698.458 76.864 699.514 77.7 700.779 77.7C701.384 77.7 701.901 77.524 702.33 77.183C702.253 77.282 702.121 77.491 701.89 77.799ZM699.481 75.258C699.481 74.279 700.163 73.608 701.186 73.608C702.132 73.608 702.847 74.235 702.847 75.291C702.847 76.138 702.209 76.908 701.109 76.908C700.097 76.908 699.481 76.325 699.481 75.258Z" fill="white" fill-opacity="0.6"/>
<path d="M770.65 81V80.186H769.066V72.893H768.263L766.096 74.763L766.635 75.412L768.098 74.103C768.087 74.18 768.087 74.279 768.087 74.378V80.186H766.294V81H770.65ZM777.676 76.985C777.676 74.114 776.378 72.805 774.717 72.805C773.045 72.805 771.758 74.114 771.758 76.985C771.758 79.845 773.045 81.154 774.717 81.154C776.378 81.154 777.676 79.845 777.676 76.985ZM776.664 76.985C776.664 79.493 775.74 80.34 774.717 80.34C773.694 80.34 772.781 79.493 772.781 76.985C772.781 74.466 773.694 73.63 774.717 73.63C775.74 73.63 776.664 74.466 776.664 76.985Z" fill="white" fill-opacity="0.6"/>
<path d="M844.192 81V80.186H842.608V72.893H841.805L839.638 74.763L840.177 75.412L841.64 74.103C841.629 74.18 841.629 74.279 841.629 74.378V80.186H839.836V81H844.192ZM850.744 81V80.186H849.16V72.893H848.357L846.19 74.763L846.729 75.412L848.192 74.103C848.181 74.18 848.181 74.279 848.181 74.378V80.186H846.388V81H850.744Z" fill="white" fill-opacity="0.6"/>
<path d="M917.733 81V80.186H916.149V72.893H915.346L913.179 74.763L913.718 75.412L915.181 74.103C915.17 74.18 915.17 74.279 915.17 74.378V80.186H913.377V81H917.733ZM924.495 81V80.109H921.316C921.041 80.109 920.711 80.153 920.403 80.241L922.658 78.008C923.571 77.095 924.341 76.259 924.341 75.06C924.341 73.63 923.274 72.794 921.899 72.794C920.524 72.794 919.457 73.597 919.248 75.082L920.238 75.247C920.238 74.323 920.92 73.663 921.844 73.663C922.68 73.663 923.296 74.114 923.329 75.082C923.329 76.028 922.713 76.721 921.866 77.623L919.083 80.296V81H924.495Z" fill="white" fill-opacity="0.6"/>
<path d="M991.275 81V80.186H989.691V72.893H988.888L986.721 74.763L987.26 75.412L988.723 74.103C988.712 74.18 988.712 74.279 988.712 74.378V80.186H986.919V81H991.275ZM992.823 75.104L993.824 75.269C993.824 74.367 994.495 73.685 995.419 73.685C996.266 73.685 996.86 74.136 996.86 75.06C996.86 75.896 996.354 76.479 994.935 76.512V77.238C996.662 77.238 997.025 77.876 997.025 78.745C997.025 79.46 996.464 80.274 995.309 80.274C994.473 80.274 993.978 79.845 993.637 79.141C993.549 78.932 993.494 78.767 993.472 78.646L992.57 79.02C992.955 80.208 993.582 81.143 995.32 81.143C996.827 81.143 998.048 80.197 998.048 78.723C998.048 77.711 997.498 77.04 996.442 76.776C997.322 76.479 997.861 75.951 997.861 74.895C997.861 73.663 996.871 72.805 995.474 72.805C994.099 72.805 993.032 73.641 992.823 75.104Z" fill="white" fill-opacity="0.6"/>
<path d="M1064.82 81V80.186H1063.23V72.893H1062.43L1060.26 74.763L1060.8 75.412L1062.26 74.103C1062.25 74.18 1062.25 74.279 1062.25 74.378V80.186H1060.46V81H1064.82ZM1071.96 78.855V78.063H1070.74V72.849H1069.8L1065.83 78.107V78.855H1069.85V81H1070.74V78.855H1071.96ZM1069.85 74.697V78.063H1066.93L1069.9 74.015C1069.86 74.246 1069.85 74.51 1069.85 74.697Z" fill="white" fill-opacity="0.6"/>
<path d="M1138.36 81V80.186H1136.77V72.893H1135.97L1133.8 74.763L1134.34 75.412L1135.81 74.103C1135.8 74.18 1135.8 74.279 1135.8 74.378V80.186H1134V81H1138.36ZM1141.23 75.94L1141.59 73.828H1144.75V72.904H1140.89L1140.23 76.721L1140.87 76.908C1141.35 76.743 1141.77 76.644 1142.19 76.644C1143.35 76.644 1144.03 77.26 1144.03 78.316C1144.03 79.504 1143.23 80.197 1142.12 80.197C1141.46 80.197 1140.82 79.9 1140.34 79.493L1139.8 80.23C1140.29 80.703 1141.11 81.099 1142.07 81.099C1143.71 81.099 1145 79.977 1145 78.261C1145 76.853 1144.09 75.797 1142.38 75.797C1141.99 75.797 1141.6 75.841 1141.23 75.94Z" fill="white" fill-opacity="0.6"/>
<path d="M1211.9 81V80.186H1210.32V72.893H1209.51L1207.35 74.763L1207.89 75.412L1209.35 74.103C1209.34 74.18 1209.34 74.279 1209.34 74.378V80.186H1207.54V81H1211.9ZM1215.32 75.94L1217.75 72.893H1216.48L1214.24 75.918C1213.54 76.842 1213.24 77.656 1213.24 78.371C1213.24 80.043 1214.31 81.143 1215.94 81.143C1217.59 81.143 1218.74 79.977 1218.74 78.481C1218.74 76.93 1217.64 76.05 1216.32 76.05C1215.78 76.05 1215.33 76.204 1214.93 76.468C1215.01 76.38 1215.13 76.204 1215.32 75.94ZM1215.92 80.296C1214.82 80.296 1214.22 79.592 1214.22 78.536C1214.22 77.623 1214.91 76.831 1215.99 76.831C1216.99 76.831 1217.73 77.491 1217.73 78.558C1217.73 79.559 1216.99 80.296 1215.92 80.296Z" fill="white" fill-opacity="0.6"/>
<path d="M1285.44 81V80.186H1283.86V72.893H1283.05L1280.89 74.763L1281.43 75.412L1282.89 74.103C1282.88 74.18 1282.88 74.279 1282.88 74.378V80.186H1281.09V81H1285.44ZM1292.27 73.586V72.937H1286.97V73.795H1291.18L1290.81 74.411L1287.52 81H1288.63L1292.27 73.586Z" fill="white" fill-opacity="0.6"/>
<path d="M1358.98 81V80.186H1357.4V72.893H1356.6L1354.43 74.763L1354.97 75.412L1356.43 74.103C1356.42 74.18 1356.42 74.279 1356.42 74.378V80.186H1354.63V81H1358.98ZM1364.21 76.798C1365.09 76.479 1365.53 75.841 1365.53 74.906C1365.53 73.718 1364.5 72.739 1363.03 72.739C1361.5 72.739 1360.53 73.718 1360.53 74.906C1360.53 75.83 1360.99 76.479 1361.83 76.798C1360.82 77.073 1360.23 77.777 1360.23 78.833C1360.23 80.274 1361.38 81.187 1363.03 81.187C1364.66 81.187 1365.8 80.274 1365.8 78.833C1365.8 77.777 1365.23 77.073 1364.21 76.798ZM1363.03 73.542C1364.02 73.542 1364.5 74.169 1364.5 74.939C1364.5 75.676 1364.12 76.413 1363.03 76.413C1361.92 76.413 1361.53 75.676 1361.53 74.939C1361.53 74.169 1362.02 73.542 1363.03 73.542ZM1363.03 80.362C1361.93 80.362 1361.3 79.746 1361.3 78.822C1361.3 77.689 1362.1 77.216 1363.03 77.216C1363.94 77.216 1364.73 77.689 1364.73 78.822C1364.73 79.746 1364.13 80.362 1363.03 80.362Z" fill="white" fill-opacity="0.6"/>
<path d="M1432.52 81V80.186H1430.94V72.893H1430.14L1427.97 74.763L1428.51 75.412L1429.97 74.103C1429.96 74.18 1429.96 74.279 1429.96 74.378V80.186H1428.17V81H1432.52ZM1437.31 77.799L1434.8 81H1436.06L1438.27 77.953C1438.89 77.106 1439.24 76.369 1439.24 75.412C1439.24 73.839 1438.2 72.739 1436.61 72.739C1435.01 72.739 1433.87 73.894 1433.87 75.335C1433.87 76.864 1434.93 77.7 1436.2 77.7C1436.8 77.7 1437.32 77.524 1437.75 77.183C1437.67 77.282 1437.54 77.491 1437.31 77.799ZM1434.9 75.258C1434.9 74.279 1435.58 73.608 1436.6 73.608C1437.55 73.608 1438.26 74.235 1438.26 75.291C1438.26 76.138 1437.63 76.908 1436.53 76.908C1435.51 76.908 1434.9 76.325 1434.9 75.258Z" fill="white" fill-opacity="0.6"/>
<path d="M1506.28 81V80.109H1503.1C1502.82 80.109 1502.49 80.153 1502.18 80.241L1504.44 78.008C1505.35 77.095 1506.12 76.259 1506.12 75.06C1506.12 73.63 1505.05 72.794 1503.68 72.794C1502.3 72.794 1501.24 73.597 1501.03 75.082L1502.02 75.247C1502.02 74.323 1502.7 73.663 1503.62 73.663C1504.46 73.663 1505.08 74.114 1505.11 75.082C1505.11 76.028 1504.49 76.721 1503.65 77.623L1500.86 80.296V81H1506.28ZM1513.09 76.985C1513.09 74.114 1511.79 72.805 1510.13 72.805C1508.46 72.805 1507.17 74.114 1507.17 76.985C1507.17 79.845 1508.46 81.154 1510.13 81.154C1511.79 81.154 1513.09 79.845 1513.09 76.985ZM1512.08 76.985C1512.08 79.493 1511.16 80.34 1510.13 80.34C1509.11 80.34 1508.2 79.493 1508.2 76.985C1508.2 74.466 1509.11 73.63 1510.13 73.63C1511.16 73.63 1512.08 74.466 1512.08 76.985Z" fill="white" fill-opacity="0.6"/>
<path d="M1579.82 81V80.109H1576.64C1576.36 80.109 1576.03 80.153 1575.73 80.241L1577.98 78.008C1578.89 77.095 1579.66 76.259 1579.66 75.06C1579.66 73.63 1578.6 72.794 1577.22 72.794C1575.85 72.794 1574.78 73.597 1574.57 75.082L1575.56 75.247C1575.56 74.323 1576.24 73.663 1577.17 73.663C1578 73.663 1578.62 74.114 1578.65 75.082C1578.65 76.028 1578.04 76.721 1577.19 77.623L1574.41 80.296V81H1579.82ZM1586.16 81V80.186H1584.58V72.893H1583.77L1581.61 74.763L1582.15 75.412L1583.61 74.103C1583.6 74.18 1583.6 74.279 1583.6 74.378V80.186H1581.81V81H1586.16Z" fill="white" fill-opacity="0.6"/>
<path d="M1653.36 81V80.109H1650.18C1649.9 80.109 1649.57 80.153 1649.27 80.241L1651.52 78.008C1652.43 77.095 1653.2 76.259 1653.2 75.06C1653.2 73.63 1652.14 72.794 1650.76 72.794C1649.39 72.794 1648.32 73.597 1648.11 75.082L1649.1 75.247C1649.1 74.323 1649.78 73.663 1650.71 73.663C1651.54 73.663 1652.16 74.114 1652.19 75.082C1652.19 76.028 1651.58 76.721 1650.73 77.623L1647.95 80.296V81H1653.36ZM1659.91 81V80.109H1656.73C1656.46 80.109 1656.13 80.153 1655.82 80.241L1658.07 78.008C1658.99 77.095 1659.76 76.259 1659.76 75.06C1659.76 73.63 1658.69 72.794 1657.32 72.794C1655.94 72.794 1654.87 73.597 1654.66 75.082L1655.65 75.247C1655.65 74.323 1656.34 73.663 1657.26 73.663C1658.1 73.663 1658.71 74.114 1658.75 75.082C1658.75 76.028 1658.13 76.721 1657.28 77.623L1654.5 80.296V81H1659.91Z" fill="white" fill-opacity="0.6"/>
<path d="M1726.9 81V80.109H1723.72C1723.45 80.109 1723.12 80.153 1722.81 80.241L1725.06 78.008C1725.98 77.095 1726.75 76.259 1726.75 75.06C1726.75 73.63 1725.68 72.794 1724.3 72.794C1722.93 72.794 1721.86 73.597 1721.65 75.082L1722.64 75.247C1722.64 74.323 1723.33 73.663 1724.25 73.663C1725.09 73.663 1725.7 74.114 1725.73 75.082C1725.73 76.028 1725.12 76.721 1724.27 77.623L1721.49 80.296V81H1726.9ZM1728.24 75.104L1729.24 75.269C1729.24 74.367 1729.91 73.685 1730.84 73.685C1731.68 73.685 1732.28 74.136 1732.28 75.06C1732.28 75.896 1731.77 76.479 1730.35 76.512V77.238C1732.08 77.238 1732.44 77.876 1732.44 78.745C1732.44 79.46 1731.88 80.274 1730.73 80.274C1729.89 80.274 1729.39 79.845 1729.05 79.141C1728.97 78.932 1728.91 78.767 1728.89 78.646L1727.99 79.02C1728.37 80.208 1729 81.143 1730.74 81.143C1732.24 81.143 1733.46 80.197 1733.46 78.723C1733.46 77.711 1732.91 77.04 1731.86 76.776C1732.74 76.479 1733.28 75.951 1733.28 74.895C1733.28 73.663 1732.29 72.805 1730.89 72.805C1729.52 72.805 1728.45 73.641 1728.24 75.104Z" fill="white" fill-opacity="0.6"/>
<path d="M1800.44 81V80.109H1797.26C1796.99 80.109 1796.66 80.153 1796.35 80.241L1798.61 78.008C1799.52 77.095 1800.29 76.259 1800.29 75.06C1800.29 73.63 1799.22 72.794 1797.85 72.794C1796.47 72.794 1795.4 73.597 1795.2 75.082L1796.19 75.247C1796.19 74.323 1796.87 73.663 1797.79 73.663C1798.63 73.663 1799.24 74.114 1799.28 75.082C1799.28 76.028 1798.66 76.721 1797.81 77.623L1795.03 80.296V81H1800.44ZM1807.38 78.855V78.063H1806.16V72.849H1805.21L1801.24 78.107V78.855H1805.27V81H1806.16V78.855H1807.38ZM1805.27 74.697V78.063H1802.34L1805.31 74.015C1805.28 74.246 1805.27 74.51 1805.27 74.697Z" fill="white" fill-opacity="0.6"/>
</svg>
