<svg width="1808" height="107" viewBox="0 0 1808 107" fill="none" xmlns="http://www.w3.org/2000/svg">
<path d="M7.27453 9.5967V8.8047H6.05353V3.5907H5.10753L1.13653 8.8487V9.5967H5.16253V11.7417H6.05353V9.5967H7.27453ZM5.16253 5.4387V8.8047H2.23653L5.20653 4.7567C5.17353 4.9877 5.16253 5.2517 5.16253 5.4387ZM13.7063 7.7267C13.7063 4.8557 12.4083 3.5467 10.7473 3.5467C9.07527 3.5467 7.78827 4.8557 7.78827 7.7267C7.78827 10.5867 9.07527 11.8957 10.7473 11.8957C12.4083 11.8957 13.7063 10.5867 13.7063 7.7267ZM12.6943 7.7267C12.6943 10.2347 11.7703 11.0817 10.7473 11.0817C9.72427 11.0817 8.81127 10.2347 8.81127 7.7267C8.81127 5.2077 9.72427 4.3717 10.7473 4.3717C11.7703 4.3717 12.6943 5.2077 12.6943 7.7267Z" fill="white" fill-opacity="0.6"/>
<path d="M6.88953 48.8711V47.9801H3.71053C3.43553 47.9801 3.10553 48.0241 2.79753 48.1121L5.05253 45.8791C5.96553 44.9661 6.73553 44.1301 6.73553 42.9311C6.73553 41.5011 5.66853 40.6651 4.29353 40.6651C2.91853 40.6651 1.85153 41.4681 1.64253 42.9531L2.63253 43.1181C2.63253 42.1941 3.31453 41.5341 4.23853 41.5341C5.07453 41.5341 5.69053 41.9851 5.72353 42.9531C5.72353 43.8991 5.10753 44.5921 4.26053 45.4941L1.47753 48.1671V48.8711H6.88953ZM13.7063 44.8561C13.7063 41.9851 12.4083 40.6761 10.7473 40.6761C9.07527 40.6761 7.78827 41.9851 7.78827 44.8561C7.78827 47.7161 9.07527 49.0251 10.7473 49.0251C12.4083 49.0251 13.7063 47.7161 13.7063 44.8561ZM12.6943 44.8561C12.6943 47.3641 11.7703 48.2111 10.7473 48.2111C9.72427 48.2111 8.81127 47.3641 8.81127 44.8561C8.81127 42.3371 9.72427 41.5011 10.7473 41.5011C11.7703 41.5011 12.6943 42.3371 12.6943 44.8561Z" fill="white" fill-opacity="0.6"/>
<path d="M13.7063 81.985C13.7063 79.114 12.4083 77.805 10.7473 77.805C9.07527 77.805 7.78827 79.114 7.78827 81.985C7.78827 84.845 9.07527 86.154 10.7473 86.154C12.4083 86.154 13.7063 84.845 13.7063 81.985ZM12.6943 81.985C12.6943 84.493 11.7703 85.34 10.7473 85.34C9.72427 85.34 8.81127 84.493 8.81127 81.985C8.81127 79.466 9.72427 78.63 10.7473 78.63C11.7703 78.63 12.6943 79.466 12.6943 81.985Z" fill="white" fill-opacity="0.6"/>
<path d="M21 89.0001H20V90.0001H21V89.0001ZM1808 88.0001H21V90.0001H1808V88.0001ZM22 89.0001V0.741699H20V89.0001H22Z" fill="white" fill-opacity="0.2" mask="url(#path-4-inside-1_845_39633)"/>
<rect x="31.0927" y="53" width="6" height="36" fill="#27D4FF"/>
<rect x="41.0927" y="27" width="6" height="62" fill="#0077FF"/>
<rect x="51.0927" y="41" width="6" height="48" fill="#0E44E6"/>
<rect x="61.0927" y="62" width="6" height="27" fill="#6E3DFF"/>
<rect x="71.0927" y="53" width="6" height="36" fill="#8972FF"/>
<rect x="97.2778" y="50" width="6" height="39" fill="#27D4FF"/>
<rect x="107.278" y="34" width="6" height="55" fill="#0077FF"/>
<rect x="117.278" y="26" width="6" height="63" fill="#0E44E6"/>
<rect x="127.278" y="43" width="6" height="46" fill="#6E3DFF"/>
<rect x="137.278" y="62" width="6" height="27" fill="#8972FF"/>
<rect x="163.463" y="27" width="6" height="62" fill="#27D4FF"/>
<rect x="173.463" y="34" width="6" height="55" fill="#0077FF"/>
<rect x="183.463" y="47" width="6" height="42" fill="#0E44E6"/>
<rect x="193.463" y="59" width="6" height="30" fill="#6E3DFF"/>
<rect x="203.463" y="68" width="6" height="21" fill="#8972FF"/>
<rect x="229.648" y="27" width="6" height="62" fill="#27D4FF"/>
<rect x="239.648" y="57" width="6" height="32" fill="#0077FF"/>
<rect x="249.648" y="48" width="6" height="41" fill="#0E44E6"/>
<rect x="259.648" y="36" width="6" height="53" fill="#6E3DFF"/>
<rect x="269.648" y="59" width="6" height="30" fill="#8972FF"/>
<rect x="295.833" y="40" width="6" height="49" fill="#27D4FF"/>
<rect x="305.833" y="65" width="6" height="24" fill="#0077FF"/>
<rect x="315.833" y="53" width="6" height="36" fill="#0E44E6"/>
<rect x="325.833" y="32" width="6" height="57" fill="#6E3DFF"/>
<rect x="335.833" y="65" width="6" height="24" fill="#8972FF"/>
<rect x="362.019" y="40" width="6" height="49" fill="#27D4FF"/>
<rect x="372.019" y="33" width="6" height="56" fill="#0077FF"/>
<rect x="382.019" y="46" width="6" height="43" fill="#0E44E6"/>
<rect x="392.019" y="63" width="6" height="26" fill="#6E3DFF"/>
<rect x="402.019" y="58" width="6" height="31" fill="#8972FF"/>
<rect x="428.204" y="53" width="6" height="36" fill="#27D4FF"/>
<rect x="438.204" y="27" width="6" height="62" fill="#0077FF"/>
<rect x="448.204" y="41" width="6" height="48" fill="#0E44E6"/>
<rect x="458.204" y="71" width="6" height="18" fill="#6E3DFF"/>
<rect x="468.204" y="63" width="6" height="26" fill="#8972FF"/>
<rect x="494.389" y="50" width="6" height="39" fill="#27D4FF"/>
<rect x="504.389" y="34" width="6" height="55" fill="#0077FF"/>
<rect x="514.389" y="26" width="6" height="63" fill="#0E44E6"/>
<rect x="524.389" y="43" width="6" height="46" fill="#6E3DFF"/>
<rect x="534.389" y="62" width="6" height="27" fill="#8972FF"/>
<rect x="560.574" y="27" width="6" height="62" fill="#27D4FF"/>
<rect x="570.574" y="34" width="6" height="55" fill="#0077FF"/>
<rect x="580.574" y="47" width="6" height="42" fill="#0E44E6"/>
<rect x="590.574" y="56" width="6" height="33" fill="#6E3DFF"/>
<rect x="600.574" y="68" width="6" height="21" fill="#8972FF"/>
<rect x="626.759" y="27" width="6" height="62" fill="#27D4FF"/>
<rect x="636.759" y="57" width="6" height="32" fill="#0077FF"/>
<rect x="646.759" y="36" width="6" height="53" fill="#0E44E6"/>
<rect x="656.759" y="29" width="6" height="60" fill="#6E3DFF"/>
<rect x="666.759" y="48" width="6" height="41" fill="#8972FF"/>
<rect x="692.944" y="40" width="6" height="49" fill="#27D4FF"/>
<rect x="702.944" y="65" width="6" height="24" fill="#0077FF"/>
<rect x="712.944" y="53" width="6" height="36" fill="#8972FF"/>
<rect x="722.944" y="45" width="6" height="44" fill="#8972FF"/>
<rect x="732.944" y="30" width="6" height="59" fill="#8972FF"/>
<rect x="759.13" y="40" width="6" height="49" fill="#27D4FF"/>
<rect x="769.13" y="33" width="6" height="56" fill="#0077FF"/>
<rect x="779.13" y="46" width="6" height="43" fill="#0E44E6"/>
<rect x="789.13" y="60" width="6" height="29" fill="#6E3DFF"/>
<rect x="799.13" y="31" width="6" height="58" fill="#8972FF"/>
<rect x="825.315" y="53" width="6" height="36" fill="#27D4FF"/>
<rect x="835.315" y="27" width="6" height="62" fill="#0077FF"/>
<rect x="845.315" y="41" width="6" height="48" fill="#0E44E6"/>
<rect x="855.315" y="53" width="6" height="36" fill="#6E3DFF"/>
<rect x="865.315" y="66" width="6" height="23" fill="#8972FF"/>
<rect x="891.5" y="50" width="6" height="39" fill="#27D4FF"/>
<rect x="901.5" y="34" width="6" height="55" fill="#0077FF"/>
<rect x="911.5" y="26" width="6" height="63" fill="#0E44E6"/>
<rect x="921.5" y="16" width="6" height="73" fill="#6E3DFF"/>
<rect x="931.5" y="43" width="6" height="46" fill="#8972FF"/>
<rect x="957.685" y="27" width="6" height="62" fill="#27D4FF"/>
<rect x="967.685" y="34" width="6" height="55" fill="#0077FF"/>
<rect x="977.685" y="47" width="6" height="42" fill="#0E44E6"/>
<rect x="987.685" y="40" width="6" height="49" fill="#6E3DFF"/>
<rect x="997.685" y="60" width="6" height="29" fill="#8972FF"/>
<rect x="1023.87" y="27" width="6" height="62" fill="#27D4FF"/>
<rect x="1033.87" y="57" width="6" height="32" fill="#0077FF"/>
<rect x="1043.87" y="36" width="6" height="53" fill="#0E44E6"/>
<rect x="1053.87" y="48" width="6" height="41" fill="#6E3DFF"/>
<rect x="1063.87" y="23" width="6" height="66" fill="#8972FF"/>
<rect x="1090.06" y="40" width="6" height="49" fill="#27D4FF"/>
<rect x="1100.06" y="65" width="6" height="24" fill="#0077FF"/>
<rect x="1110.06" y="53" width="6" height="36" fill="#8972FF"/>
<rect x="1120.06" y="65" width="6" height="24" fill="#6E3DFF"/>
<rect x="1130.06" y="43" width="6" height="46" fill="#8972FF"/>
<rect x="1156.24" y="40" width="6" height="49" fill="#27D4FF"/>
<rect x="1166.24" y="33" width="6" height="56" fill="#0077FF"/>
<rect x="1176.24" y="46" width="6" height="43" fill="#0E44E6"/>
<rect x="1186.24" y="26" width="6" height="63" fill="#6E3DFF"/>
<rect x="1196.24" y="61" width="6" height="28" fill="#8972FF"/>
<rect x="1222.43" y="53" width="6" height="36" fill="#27D4FF"/>
<rect x="1232.43" y="27" width="6" height="62" fill="#0077FF"/>
<rect x="1242.43" y="41" width="6" height="48" fill="#8972FF"/>
<rect x="1252.43" y="53" width="6" height="36" fill="#6E3DFF"/>
<rect x="1262.43" y="66" width="6" height="23" fill="#8972FF"/>
<rect x="1288.61" y="50" width="6" height="39" fill="#27D4FF"/>
<rect x="1298.61" y="34" width="6" height="55" fill="#0077FF"/>
<rect x="1308.61" y="26" width="6" height="63" fill="#0E44E6"/>
<rect x="1318.61" y="16" width="6" height="73" fill="#6E3DFF"/>
<rect x="1328.61" y="8" width="6" height="81" fill="#8972FF"/>
<rect x="1354.8" y="27" width="6" height="62" fill="#27D4FF"/>
<rect x="1364.8" y="34" width="6" height="55" fill="#0077FF"/>
<rect x="1374.8" y="47" width="6" height="42" fill="#0E44E6"/>
<rect x="1384.8" y="60" width="6" height="29" fill="#6E3DFF"/>
<rect x="1394.8" y="73" width="6" height="16" fill="#8972FF"/>
<rect x="1420.98" y="27" width="6" height="62" fill="#27D4FF"/>
<rect x="1430.98" y="57" width="6" height="32" fill="#0077FF"/>
<rect x="1440.98" y="36" width="6" height="53" fill="#0E44E6"/>
<rect x="1450.98" y="52" width="6" height="37" fill="#6E3DFF"/>
<rect x="1460.98" y="27" width="6" height="62" fill="#8972FF"/>
<rect x="1487.17" y="40" width="6" height="49" fill="#27D4FF"/>
<rect x="1497.17" y="65" width="6" height="24" fill="#0077FF"/>
<rect x="1507.17" y="53" width="6" height="36" fill="#8972FF"/>
<rect x="1517.17" y="40" width="6" height="49" fill="#6E3DFF"/>
<rect x="1527.17" y="65" width="6" height="24" fill="#8972FF"/>
<rect x="1553.35" y="40" width="6" height="49" fill="#27D4FF"/>
<rect x="1563.35" y="33" width="6" height="56" fill="#0077FF"/>
<rect x="1573.35" y="46" width="6" height="43" fill="#8972FF"/>
<rect x="1583.35" y="62" width="6" height="27" fill="#6E3DFF"/>
<rect x="1593.35" y="30" width="6" height="59" fill="#8972FF"/>
<rect x="1619.54" y="50" width="6" height="39" fill="#27D4FF"/>
<rect x="1629.54" y="34" width="6" height="55" fill="#0077FF"/>
<rect x="1639.54" y="26" width="6" height="63" fill="#0E44E6"/>
<rect x="1649.54" y="44" width="6" height="45" fill="#6E3DFF"/>
<rect x="1659.54" y="60" width="6" height="29" fill="#8972FF"/>
<rect x="1685.72" y="27" width="6" height="62" fill="#27D4FF"/>
<rect x="1695.72" y="34" width="6" height="55" fill="#0077FF"/>
<rect x="1705.72" y="47" width="6" height="42" fill="#0E44E6"/>
<rect x="1715.72" y="27" width="6" height="62" fill="#6E3DFF"/>
<rect x="1725.72" y="57" width="6" height="32" fill="#8972FF"/>
<rect x="1751.91" y="40" width="6" height="49" fill="#27D4FF"/>
<rect x="1761.91" y="65" width="6" height="24" fill="#0077FF"/>
<rect x="1771.91" y="53" width="6" height="36" fill="#0E44E6"/>
<rect x="1781.91" y="46" width="6" height="43" fill="#6E3DFF"/>
<rect x="1791.91" y="32" width="6" height="57" fill="#8972FF"/>
<path d="M44.2489 97.499H46.7129V98.819H44.1279V99.556H46.7129V100.854H47.6259V94.958H46.7129V96.762H44.4799C44.5569 96.421 44.5899 96.058 44.5899 95.695H40.1349V96.421H43.6109C43.4349 98.148 42.0049 99.435 39.6289 100.139L39.9919 100.854C42.1589 100.227 43.5779 99.116 44.2489 97.499ZM44.4029 100.964C42.4119 100.964 41.1359 101.679 41.1359 102.867C41.1359 104.055 42.4119 104.77 44.4029 104.77C46.3939 104.77 47.6699 104.055 47.6699 102.867C47.6699 101.679 46.3939 100.964 44.4029 100.964ZM44.4029 104.066C42.9509 104.066 42.0269 103.615 42.0269 102.867C42.0269 102.119 42.9399 101.679 44.4029 101.679C45.8659 101.679 46.7789 102.119 46.7789 102.867C46.7789 103.615 45.8549 104.066 44.4029 104.066ZM56.81 102.163H57.712V94.958H56.81V102.163ZM54.995 98.06C54.995 96.641 53.873 95.64 52.41 95.64C50.947 95.64 49.847 96.641 49.847 98.06C49.847 99.49 50.947 100.502 52.41 100.502C53.873 100.502 54.995 99.49 54.995 98.06ZM50.727 98.06C50.727 97.103 51.442 96.421 52.41 96.421C53.389 96.421 54.115 97.103 54.115 98.06C54.115 99.039 53.389 99.721 52.41 99.721C51.442 99.721 50.727 99.039 50.727 98.06ZM58.009 104.594V103.857H52.267V101.426H51.365V104.594H58.009ZM68.6892 103.593V102.856H64.6522V100.997H67.8092V100.271H61.7372V98.676H67.5782V95.673H60.8242V96.41H66.6982V97.95H60.8462V100.997H63.7392V102.856H59.7242V103.593H68.6892Z" fill="white" fill-opacity="0.6"/>
<path d="M109.554 100.546V99.82H105.539V98.676H108.509V97.95H102.646V96.124H108.443V95.398H101.744V98.676H104.637V99.82H100.622V100.546H109.554ZM105.088 101.25C102.976 101.25 101.7 101.888 101.7 103.032C101.7 104.176 102.976 104.814 105.088 104.814C107.178 104.814 108.454 104.176 108.454 103.032C108.454 101.888 107.178 101.25 105.088 101.25ZM105.088 104.11C103.493 104.11 102.613 103.736 102.613 103.032C102.613 102.328 103.493 101.954 105.088 101.954C106.639 101.954 107.541 102.328 107.541 103.032C107.541 103.736 106.639 104.11 105.088 104.11ZM118.86 99.435L119.234 98.709C117.441 98.445 115.681 97.224 115.681 95.849V95.299H114.735V95.849C114.735 97.268 113.008 98.445 111.204 98.709L111.567 99.435C113.096 99.171 114.592 98.324 115.208 97.125C115.857 98.324 117.32 99.171 118.86 99.435ZM115.637 101.25H119.674L119.663 100.502H110.753V101.25H114.735V104.825H115.637V101.25ZM122.038 98.863H128.616V95.178H127.725V96.3H122.929V95.178H122.038V98.863ZM122.929 97.004H127.725V98.148H122.929V97.004ZM125.767 101.668V100.513H129.782V99.776H120.85V100.513H124.865V101.668H121.851V102.394H127.78V104.825H128.682V101.668H125.767ZM139.934 103.593V102.856H135.897V100.997H139.054V100.271H132.982V98.676H138.823V95.673H132.069V96.41H137.943V97.95H132.091V100.997H134.984V102.856H130.969V103.593H139.934Z" fill="white" fill-opacity="0.6"/>
<path d="M175.74 100.546V99.82H171.725V98.676H174.695V97.95H168.832V96.124H174.629V95.398H167.93V98.676H170.823V99.82H166.808V100.546H175.74ZM171.274 101.25C169.162 101.25 167.886 101.888 167.886 103.032C167.886 104.176 169.162 104.814 171.274 104.814C173.364 104.814 174.64 104.176 174.64 103.032C174.64 101.888 173.364 101.25 171.274 101.25ZM171.274 104.11C169.679 104.11 168.799 103.736 168.799 103.032C168.799 102.328 169.679 101.954 171.274 101.954C172.825 101.954 173.727 102.328 173.727 103.032C173.727 103.736 172.825 104.11 171.274 104.11ZM184.121 100.007H185.023V94.947H184.121V100.007ZM182.251 97.499C182.251 96.19 181.162 95.299 179.699 95.299C178.236 95.299 177.158 96.19 177.158 97.499C177.158 98.786 178.236 99.677 179.699 99.677C181.162 99.677 182.251 98.786 182.251 97.499ZM178.027 97.499C178.027 96.652 178.742 96.036 179.699 96.036C180.667 96.036 181.371 96.652 181.371 97.499C181.371 98.335 180.667 98.951 179.699 98.951C178.742 98.951 178.027 98.335 178.027 97.499ZM185.353 104.682V103.967H179.545V102.878H185.023V100.491H178.632V101.206H184.132V102.207H178.654V104.682H185.353ZM194.702 97.961H196.165V97.213H194.702V94.947H193.8V100.524H194.702V97.961ZM192.909 99.336L192.799 98.599C191.204 98.907 189.84 99.006 188.421 99.017V95.442H187.53V99.776H188.3C189.796 99.776 191.226 99.677 192.909 99.336ZM194.702 101.063H188.487V104.671H194.702V101.063ZM193.822 103.945H189.367V101.789H193.822V103.945ZM206.119 103.593V102.856H202.082V100.997H205.239V100.271H199.167V98.676H205.008V95.673H198.254V96.41H204.128V97.95H198.276V100.997H201.169V102.856H197.154V103.593H206.119Z" fill="white" fill-opacity="0.6"/>
<path d="M241.375 104.803V94.947H240.517V98.852H239.186V95.167H238.339V104.319H239.186V99.589H240.517V104.803H241.375ZM237.096 96.091H233.345V102.163H237.096V96.091ZM236.26 101.448H234.192V96.806H236.26V101.448ZM251.241 100.513L251.626 99.765C249.899 99.468 248.018 98.005 248.018 96.366V95.607H247.072V96.366C247.072 98.005 245.202 99.468 243.475 99.765L243.849 100.513C245.367 100.194 246.896 99.171 247.545 97.763C248.194 99.171 249.734 100.183 251.241 100.513ZM252.066 103.527V102.79H247.996V100.392H247.094V102.79H243.112V103.527H252.066ZM253.682 96.311H261.635V95.64H258.148V94.771H257.246V95.64H253.682V96.311ZM262.141 100.59V99.919H258.148V99.248C259.919 99.193 260.876 98.775 260.876 97.972C260.876 97.125 259.82 96.696 257.697 96.696C255.574 96.696 254.507 97.125 254.507 97.972C254.507 98.775 255.431 99.193 257.246 99.248V99.919H253.231V100.59H262.141ZM255.442 97.972C255.442 97.521 256.19 97.301 257.697 97.301C259.182 97.301 259.93 97.521 259.93 97.972C259.93 98.423 259.182 98.643 257.697 98.643C256.19 98.643 255.442 98.423 255.442 97.972ZM261.305 104.033H255.233V103.241H261.008V101.228H254.298V101.877H260.095V102.614H254.331V104.704H261.305V104.033ZM272.304 103.593V102.856H268.267V100.997H271.424V100.271H265.352V98.676H271.193V95.673H264.439V96.41H270.313V97.95H264.461V100.997H267.354V102.856H263.339V103.593H272.304Z" fill="white" fill-opacity="0.6"/>
<path d="M300.311 99.336H306.977V95.497H300.311V99.336ZM301.191 96.223H306.086V98.621H301.191V96.223ZM304.073 101.415H308.121V100.678H299.167V101.415H303.171V104.803H304.073V101.415ZM317.679 104.814V94.936H316.821V104.814H317.679ZM315.578 95.189H314.72V98.258H312.52V99.006H314.72V104.319H315.578V95.189ZM310.672 101.536V96.003H309.781V102.317H310.408C311.596 102.317 312.696 102.251 313.983 101.987L313.862 101.228C312.718 101.459 311.728 101.525 310.672 101.536ZM327.49 104.836V94.947H326.588V104.836H327.49ZM324.52 102.328V95.915H319.988V102.328H324.52ZM320.868 101.613V96.641H323.64V101.613H320.868ZM338.489 103.593V102.856H334.452V100.997H337.609V100.271H331.537V98.676H337.378V95.673H330.624V96.41H336.498V97.95H330.646V100.997H333.539V102.856H329.524V103.593H338.489Z" fill="white" fill-opacity="0.6"/>
<path d="M378.75 100.865V94.958H377.881V97.521H376.627V95.134H375.769V100.821H376.627V98.258H377.881V100.865H378.75ZM370.863 100.172H374.691V95.585H373.844V97.136H371.721V95.585H370.863V100.172ZM371.721 97.851H373.844V99.446H371.721V97.851ZM378.75 101.47H372.117V102.196H377.848V104.814H378.75V101.47ZM388.671 100.667V94.947L387.758 94.958V97.444H385.481V95.497H384.59V97.07H381.928V95.508H381.037V100.117H385.481V98.181H387.758V100.667H388.671ZM381.928 97.785H384.59V99.391H381.928V97.785ZM388.671 101.173H382.258V104.682H388.671V101.173ZM387.791 103.956H383.138V101.888H387.791V103.956ZM399.615 103.593V102.856H395.578V100.997H398.735V100.271H392.663V98.676H398.504V95.673H391.75V96.41H397.624V97.95H391.772V100.997H394.665V102.856H390.65V103.593H399.615Z" fill="white" fill-opacity="0.6"/>
<path d="M441.954 100.744H442.812V98.236H444.066V101.657H444.935V94.958H444.066V97.499H442.812V95.145H441.954V100.744ZM441.074 100.238L441.547 99.545C440.282 99.05 439.545 97.961 439.545 96.861V95.53H438.676V96.861C438.676 97.972 437.895 99.292 436.619 99.842L437.103 100.546C438.071 100.117 438.764 99.27 439.116 98.335C439.479 99.171 440.15 99.853 441.074 100.238ZM442.141 101.448V101.184H441.228V101.448C441.228 102.724 439.633 103.802 437.895 104.066L438.247 104.77C439.732 104.506 441.063 103.769 441.69 102.669C442.284 103.769 443.648 104.506 445.133 104.77L445.485 104.066C443.758 103.802 442.141 102.724 442.141 101.448ZM453.437 98.236L454.328 98.324C454.515 97.356 454.515 96.608 454.515 95.981V95.343H447.794V96.069H453.624C453.624 96.685 453.613 97.312 453.437 98.236ZM455.637 99.6V98.885H451.292V97.169H450.39V98.885H446.749V99.6H455.637ZM454.801 103.978H448.707V102.878H454.559V100.513H447.783V101.228H453.657V102.218H447.816V104.693H454.801V103.978ZM465.8 103.593V102.856H461.763V100.997H464.92V100.271H458.848V98.676H464.689V95.673H457.935V96.41H463.809V97.95H457.957V100.997H460.85V102.856H456.835V103.593H465.8Z" fill="white" fill-opacity="0.6"/>
<path d="M510.922 100.777V94.958H510.009V97.015H507.864V97.752H510.009V100.777H510.922ZM508.073 100.359L508.557 99.644C507.127 99.149 506.148 97.851 506.148 96.52V95.442H505.246V96.487C505.246 97.983 504.3 99.325 502.804 99.853L503.277 100.579C504.432 100.106 505.29 99.237 505.719 98.082C506.148 99.138 506.973 99.93 508.073 100.359ZM510.922 101.327H504.311V102.053H510.009V104.825H510.922V101.327ZM517.664 97.499H520.128V98.819H517.543V99.556H520.128V100.854H521.041V94.958H520.128V96.762H517.895C517.972 96.421 518.005 96.058 518.005 95.695H513.55V96.421H517.026C516.85 98.148 515.42 99.435 513.044 100.139L513.407 100.854C515.574 100.227 516.993 99.116 517.664 97.499ZM517.818 100.964C515.827 100.964 514.551 101.679 514.551 102.867C514.551 104.055 515.827 104.77 517.818 104.77C519.809 104.77 521.085 104.055 521.085 102.867C521.085 101.679 519.809 100.964 517.818 100.964ZM517.818 104.066C516.366 104.066 515.442 103.615 515.442 102.867C515.442 102.119 516.355 101.679 517.818 101.679C519.281 101.679 520.194 102.119 520.194 102.867C520.194 103.615 519.27 104.066 517.818 104.066ZM531.986 103.593V102.856H527.949V100.997H531.106V100.271H525.034V98.676H530.875V95.673H524.121V96.41H529.995V97.95H524.143V100.997H527.036V102.856H523.021V103.593H531.986Z" fill="white" fill-opacity="0.6"/>
<path d="M577.107 100.777V94.958H576.194V97.015H574.049V97.752H576.194V100.777H577.107ZM574.258 100.359L574.742 99.644C573.312 99.149 572.333 97.851 572.333 96.52V95.442H571.431V96.487C571.431 97.983 570.485 99.325 568.989 99.853L569.462 100.579C570.617 100.106 571.475 99.237 571.904 98.082C572.333 99.138 573.158 99.93 574.258 100.359ZM577.107 101.327H570.496V102.053H576.194V104.825H577.107V101.327ZM588.216 98.72V97.972H586.753V94.936H585.851V102.229H586.753V98.72H588.216ZM584.399 100.623L584.85 99.908C583.398 99.38 582.419 98.137 582.419 96.784V95.541H581.517V96.762C581.517 98.291 580.56 99.622 579.053 100.15L579.526 100.865C580.714 100.425 581.583 99.545 581.99 98.357C582.43 99.413 583.288 100.216 584.399 100.623ZM587.182 103.857H581.539V101.536H580.637V104.594H587.182V103.857ZM598.171 103.593V102.856H594.134V100.997H597.291V100.271H591.219V98.676H597.06V95.673H590.306V96.41H596.18V97.95H590.328V100.997H593.221V102.856H589.206V103.593H598.171Z" fill="white" fill-opacity="0.6"/>
<path d="M635.164 98.016H637.32V102.328H638.233V94.958H637.32V97.268H635.164V98.016ZM635.395 100.689L635.868 99.996C634.46 99.468 633.481 98.17 633.481 96.795V95.541H632.579V96.762C632.579 98.258 631.589 99.677 630.115 100.205L630.588 100.92C631.743 100.447 632.612 99.534 633.041 98.346C633.47 99.413 634.295 100.26 635.395 100.689ZM638.464 104.594V103.857H632.788V101.514H631.886V104.594H638.464ZM648.341 99.435L648.715 98.709C646.922 98.445 645.162 97.224 645.162 95.849V95.299H644.216V95.849C644.216 97.268 642.489 98.445 640.685 98.709L641.048 99.435C642.577 99.171 644.073 98.324 644.689 97.125C645.338 98.324 646.801 99.171 648.341 99.435ZM645.118 101.25H649.155L649.144 100.502H640.234V101.25H644.216V104.825H645.118V101.25ZM657.558 94.958V97.983H655.567V98.731H657.558V102.317H658.471V94.958H657.558ZM655.732 100.931L656.172 100.216C654.72 99.743 653.708 98.621 653.708 97.301V96.993H655.886V96.267H653.708V95.013H652.806V96.267H650.617V96.993H652.806V97.301C652.806 98.676 651.827 99.908 650.364 100.403L650.815 101.107C651.97 100.7 652.839 99.875 653.268 98.775C653.719 99.787 654.588 100.546 655.732 100.931ZM658.746 104.594V103.857H653.07V101.657H652.157V104.594H658.746ZM669.415 103.593V102.856H665.378V100.997H668.535V100.271H662.463V98.676H668.304V95.673H661.55V96.41H667.424V97.95H661.572V100.997H664.465V102.856H660.45V103.593H669.415Z" fill="white" fill-opacity="0.6"/>
<path d="M709.39 98.918L709.731 98.192C707.971 97.961 706.266 96.85 706.266 95.541V95.101H705.342V95.541C705.342 96.85 703.648 97.961 701.888 98.192L702.229 98.918C703.736 98.654 705.188 97.895 705.804 96.751C706.42 97.895 707.894 98.654 709.39 98.918ZM710.303 100.634V99.897H706.255V98.401H705.353V99.897H701.349V100.634H710.303ZM709.17 101.591H702.339V102.328H708.268V104.825H709.17V101.591ZM718.178 98.236L719.069 98.324C719.256 97.356 719.256 96.608 719.256 95.981V95.343H712.535V96.069H718.365C718.365 96.685 718.354 97.312 718.178 98.236ZM720.378 99.6V98.885H716.033V97.169H715.131V98.885H711.49V99.6H720.378ZM719.542 103.978H713.448V102.878H719.3V100.513H712.524V101.228H718.398V102.218H712.557V104.693H719.542V103.978ZM730.541 103.593V102.856H726.504V100.997H729.661V100.271H723.589V98.676H729.43V95.673H722.676V96.41H728.55V97.95H722.698V100.997H725.591V102.856H721.576V103.593H730.541Z" fill="white" fill-opacity="0.6"/>
<path d="M770.592 99.435L770.966 98.709C769.173 98.445 767.413 97.224 767.413 95.849V95.299H766.467V95.849C766.467 97.268 764.74 98.445 762.936 98.709L763.299 99.435C764.828 99.171 766.324 98.324 766.94 97.125C767.589 98.324 769.052 99.171 770.592 99.435ZM767.369 101.25H771.406L771.395 100.502H762.485V101.25H766.467V104.825H767.369V101.25ZM781.515 100.623V99.886H777.511V98.841H780.349V95.211H779.458V96.311H774.662V95.211H773.771V98.841H776.609V99.886H772.583V100.623H781.515ZM779.458 98.126H774.662V97.004H779.458V98.126ZM777.06 101.36C774.948 101.36 773.672 101.976 773.672 103.087C773.672 104.187 774.948 104.803 777.06 104.803C779.15 104.803 780.426 104.187 780.426 103.087C780.426 101.987 779.15 101.36 777.06 101.36ZM777.06 104.11C775.465 104.11 774.585 103.747 774.585 103.087C774.585 102.427 775.465 102.053 777.06 102.053C778.611 102.053 779.513 102.427 779.513 103.087C779.513 103.747 778.611 104.11 777.06 104.11ZM790.369 97.961H791.832V97.213H790.369V94.947H789.467V100.524H790.369V97.961ZM788.576 99.336L788.466 98.599C786.871 98.907 785.507 99.006 784.088 99.017V95.442H783.197V99.776H783.967C785.463 99.776 786.893 99.677 788.576 99.336ZM790.369 101.063H784.154V104.671H790.369V101.063ZM789.489 103.945H785.034V101.789H789.489V103.945ZM801.786 103.593V102.856H797.749V100.997H800.906V100.271H794.834V98.676H800.675V95.673H793.921V96.41H799.795V97.95H793.943V100.997H796.836V102.856H792.821V103.593H801.786Z" fill="white" fill-opacity="0.6"/>
<path d="M841.837 99.435L842.211 98.709C840.418 98.445 838.658 97.224 838.658 95.849V95.299H837.712V95.849C837.712 97.268 835.985 98.445 834.181 98.709L834.544 99.435C836.073 99.171 837.569 98.324 838.185 97.125C838.834 98.324 840.297 99.171 841.837 99.435ZM838.614 101.25H842.651L842.64 100.502H833.73V101.25H837.712V104.825H838.614V101.25ZM852.759 100.623V99.886H848.755V98.841H851.593V95.211H850.702V96.311H845.906V95.211H845.015V98.841H847.853V99.886H843.827V100.623H852.759ZM850.702 98.126H845.906V97.004H850.702V98.126ZM848.304 101.36C846.192 101.36 844.916 101.976 844.916 103.087C844.916 104.187 846.192 104.803 848.304 104.803C850.394 104.803 851.67 104.187 851.67 103.087C851.67 101.987 850.394 101.36 848.304 101.36ZM848.304 104.11C846.709 104.11 845.829 103.747 845.829 103.087C845.829 102.427 846.709 102.053 848.304 102.053C849.855 102.053 850.757 102.427 850.757 103.087C850.757 103.747 849.855 104.11 848.304 104.11ZM862.911 103.593V102.856H858.874V100.997H862.031V100.271H855.959V98.676H861.8V95.673H855.046V96.41H860.92V97.95H855.068V100.997H857.961V102.856H853.946V103.593H862.911Z" fill="white" fill-opacity="0.6"/>
<path d="M903.964 98.698V97.95H902.501V94.947H901.599V102.207H902.501V98.698H903.964ZM900.18 98.071C900.18 96.63 899.08 95.64 897.606 95.64C896.132 95.64 895.032 96.63 895.032 98.071C895.032 99.512 896.132 100.502 897.606 100.502C899.08 100.502 900.18 99.512 900.18 98.071ZM895.912 98.071C895.912 97.103 896.638 96.421 897.606 96.421C898.574 96.421 899.3 97.103 899.3 98.071C899.3 99.039 898.574 99.721 897.606 99.721C896.638 99.721 895.912 99.039 895.912 98.071ZM902.941 103.857H897.265V101.47H896.363V104.594H902.941V103.857ZM905.503 99.028L905.844 99.743C907.384 99.479 908.814 98.665 909.43 97.488C910.013 98.665 911.487 99.479 913.016 99.743L913.368 99.028C911.63 98.764 909.925 97.642 909.925 96.344V96.289H913.016V95.563H905.811V96.289H908.924V96.344C908.924 97.642 907.219 98.764 905.503 99.028ZM909.859 101.305H913.896L913.885 100.568H904.975V101.305H908.957V104.814H909.859V101.305ZM923.465 104.814V94.947H922.596V98.907H921.199V95.167H920.352V104.319H921.199V99.644H922.596V104.814H923.465ZM916.326 101.635V96.883H919.109V96.146H915.435V102.383H916.084C917.547 102.383 918.57 102.35 919.736 102.086L919.659 101.338C918.592 101.569 917.635 101.635 916.326 101.635ZM934.156 103.593V102.856H930.119V100.997H933.276V100.271H927.204V98.676H933.045V95.673H926.291V96.41H932.165V97.95H926.313V100.997H929.206V102.856H925.191V103.593H934.156Z" fill="white" fill-opacity="0.6"/>
<path d="M969.159 104.836V94.947H968.257V97.158H965.727C965.298 96.234 964.594 95.706 963.67 95.706C962.229 95.706 961.206 97.048 961.206 99.149C961.206 101.25 962.229 102.592 963.67 102.592C964.638 102.592 965.386 102.02 965.793 101.008H968.257V104.836H969.159ZM963.67 101.789C962.724 101.789 962.064 100.755 962.064 99.149C962.064 97.554 962.724 96.52 963.67 96.52C964.594 96.52 965.276 97.554 965.276 99.149C965.276 100.755 964.594 101.789 963.67 101.789ZM968.257 97.895V100.271H966.013C966.09 99.974 966.123 99.6 966.123 99.149C966.123 98.698 966.068 98.28 965.98 97.895H968.257ZM975.593 99.666C977.65 99.666 979.047 98.819 979.047 97.499C979.047 96.19 977.65 95.343 975.593 95.343C973.536 95.343 972.15 96.19 972.15 97.499C972.15 98.819 973.536 99.666 975.593 99.666ZM975.593 96.069C977.1 96.069 978.123 96.619 978.123 97.499C978.123 98.379 977.1 98.94 975.593 98.94C974.097 98.94 973.074 98.379 973.074 97.499C973.074 96.619 974.097 96.069 975.593 96.069ZM976.044 101.349H980.081V100.601H971.149V101.349H975.142V104.825H976.044V101.349ZM989.65 104.803V94.936H988.781V104.803H989.65ZM987.659 95.167H986.801V98.489H985.173V99.226H986.801V104.297H987.659V95.167ZM984.161 97.73V96.839H985.921V96.102H981.422V96.839H983.292V97.73C983.292 99.545 982.533 101.338 981.147 102.163L981.697 102.834C982.676 102.218 983.391 101.085 983.732 99.71C984.073 100.997 984.744 102.02 985.712 102.592L986.262 101.932C984.898 101.162 984.161 99.446 984.161 97.73ZM1000.34 103.593V102.856H996.304V100.997H999.461V100.271H993.389V98.676H999.23V95.673H992.476V96.41H998.35V97.95H992.498V100.997H995.391V102.856H991.376V103.593H1000.34Z" fill="white" fill-opacity="0.6"/>
<path d="M1040.4 104.836V94.947H1039.5V97.158H1036.97C1036.54 96.234 1035.84 95.706 1034.91 95.706C1033.47 95.706 1032.45 97.048 1032.45 99.149C1032.45 101.25 1033.47 102.592 1034.91 102.592C1035.88 102.592 1036.63 102.02 1037.04 101.008H1039.5V104.836H1040.4ZM1034.91 101.789C1033.97 101.789 1033.31 100.755 1033.31 99.149C1033.31 97.554 1033.97 96.52 1034.91 96.52C1035.84 96.52 1036.52 97.554 1036.52 99.149C1036.52 100.755 1035.84 101.789 1034.91 101.789ZM1039.5 97.895V100.271H1037.26C1037.33 99.974 1037.37 99.6 1037.37 99.149C1037.37 98.698 1037.31 98.28 1037.22 97.895H1039.5ZM1049.99 99.897H1051.53V99.138H1049.99V94.947H1049.09V104.814H1049.99V99.897ZM1042.45 96.861H1048.34V96.146H1045.86V94.958H1044.96V96.146H1042.45V96.861ZM1045.86 102.119V101.074C1047 100.931 1047.74 100.249 1047.74 99.27C1047.74 98.159 1046.78 97.444 1045.41 97.444C1044.03 97.444 1043.08 98.159 1043.08 99.27C1043.08 100.249 1043.81 100.931 1044.96 101.074V102.152C1043.99 102.185 1043.08 102.185 1042.28 102.185L1042.4 102.944C1044.14 102.944 1046.44 102.933 1048.56 102.548L1048.51 101.877C1047.66 102.009 1046.75 102.075 1045.86 102.119ZM1043.93 99.27C1043.93 98.566 1044.53 98.137 1045.41 98.137C1046.29 98.137 1046.88 98.566 1046.88 99.27C1046.88 99.974 1046.29 100.392 1045.41 100.392C1044.53 100.392 1043.93 99.974 1043.93 99.27ZM1061.47 103.593V102.856H1057.43V100.997H1060.59V100.271H1054.51V98.676H1060.36V95.673H1053.6V96.41H1059.48V97.95H1053.62V100.997H1056.52V102.856H1052.5V103.593H1061.47Z" fill="white" fill-opacity="0.6"/>
<path d="M1098.12 99.589H1100.62V102.24H1101.53V94.958H1100.62V96.498H1098.11C1097.64 95.926 1096.94 95.574 1096.1 95.574C1094.64 95.574 1093.55 96.597 1093.55 98.049C1093.55 99.501 1094.64 100.524 1096.1 100.524C1096.94 100.524 1097.65 100.172 1098.12 99.589ZM1094.41 98.049C1094.41 97.07 1095.13 96.366 1096.1 96.366C1097.05 96.366 1097.77 97.07 1097.77 98.049C1097.77 99.028 1097.05 99.732 1096.1 99.732C1095.13 99.732 1094.41 99.028 1094.41 98.049ZM1098.49 97.224H1100.62V98.863H1098.49C1098.58 98.61 1098.63 98.335 1098.63 98.049C1098.63 97.752 1098.58 97.477 1098.49 97.224ZM1101.8 104.594V103.857H1096.13V101.492H1095.22V104.594H1101.8ZM1104.06 99.028L1104.4 99.743C1105.94 99.479 1107.37 98.665 1107.99 97.488C1108.57 98.665 1110.04 99.479 1111.57 99.743L1111.92 99.028C1110.19 98.764 1108.48 97.642 1108.48 96.344V96.289H1111.57V95.563H1104.37V96.289H1107.48V96.344C1107.48 97.642 1105.77 98.764 1104.06 99.028ZM1108.41 101.305H1112.45L1112.44 100.568H1103.53V101.305H1107.51V104.814H1108.41V101.305ZM1122.02 104.814V94.947H1121.15V98.907H1119.75V95.167H1118.91V104.319H1119.75V99.644H1121.15V104.814H1122.02ZM1114.88 101.635V96.883H1117.66V96.146H1113.99V102.383H1114.64C1116.1 102.383 1117.13 102.35 1118.29 102.086L1118.21 101.338C1117.15 101.569 1116.19 101.635 1114.88 101.635ZM1132.71 103.593V102.856H1128.67V100.997H1131.83V100.271H1125.76V98.676H1131.6V95.673H1124.85V96.41H1130.72V97.95H1124.87V100.997H1127.76V102.856H1123.75V103.593H1132.71Z" fill="white" fill-opacity="0.6"/>
<path d="M1169.09 99.666C1171.15 99.666 1172.54 98.819 1172.54 97.499C1172.54 96.19 1171.15 95.343 1169.09 95.343C1167.03 95.343 1165.65 96.19 1165.65 97.499C1165.65 98.819 1167.03 99.666 1169.09 99.666ZM1169.09 96.069C1170.6 96.069 1171.62 96.619 1171.62 97.499C1171.62 98.379 1170.6 98.94 1169.09 98.94C1167.59 98.94 1166.57 98.379 1166.57 97.499C1166.57 96.619 1167.59 96.069 1169.09 96.069ZM1169.54 101.349H1173.58V100.601H1164.65V101.349H1168.64V104.825H1169.54V101.349ZM1182.42 98.192H1183.88V97.444H1182.42V94.936H1181.52V100.733H1182.42V98.192ZM1179.74 95.574H1175.19V96.311H1178.77C1178.59 97.994 1177.17 99.259 1174.74 99.919L1175.12 100.634C1177.99 99.842 1179.74 98.071 1179.74 95.574ZM1182.42 101.184H1176.01V101.91H1181.52V104.814H1182.42V101.184ZM1193.84 103.593V102.856H1189.8V100.997H1192.96V100.271H1186.89V98.676H1192.73V95.673H1185.97V96.41H1191.85V97.95H1185.99V100.997H1188.89V102.856H1184.87V103.593H1193.84Z" fill="white" fill-opacity="0.6"/>
<path d="M1234.89 98.203V97.444H1233.43V94.958H1232.52V100.909H1233.43V98.203H1234.89ZM1231.06 100.425L1231.49 99.721C1230.03 99.248 1229.1 98.082 1229.1 96.795V96.41H1231.28V95.684H1225.99V96.41H1228.2V96.795C1228.2 98.236 1227.22 99.479 1225.73 100.007L1226.19 100.722C1227.38 100.293 1228.25 99.446 1228.67 98.302C1229.1 99.281 1229.92 100.062 1231.06 100.425ZM1230.29 101.162C1228.27 101.162 1227.04 101.833 1227.04 102.977C1227.04 104.132 1228.27 104.803 1230.29 104.803C1232.28 104.803 1233.54 104.132 1233.54 102.977C1233.54 101.833 1232.28 101.162 1230.29 101.162ZM1230.29 104.088C1228.78 104.088 1227.94 103.681 1227.94 102.977C1227.94 102.273 1228.78 101.877 1230.29 101.877C1231.75 101.877 1232.63 102.273 1232.63 102.977C1232.63 103.681 1231.75 104.088 1230.29 104.088ZM1236.84 96.674H1242.85V96.916C1242.85 98.093 1242.86 99.501 1242.48 101.382L1243.38 101.481C1243.77 99.49 1243.75 98.148 1243.75 96.916V95.937H1236.84V96.674ZM1244.82 103.428V102.691H1240.27V99.16H1239.37V102.691H1235.9V103.428H1244.82ZM1254.38 104.814V94.947H1253.51V98.918H1252.17V95.211H1251.32V104.319H1252.17V99.655H1253.51V104.814H1254.38ZM1250.23 96.223H1246.38V96.96H1249.34C1249.2 99.017 1248.29 100.766 1246.01 102.053L1246.54 102.702C1249.35 101.118 1250.23 98.764 1250.23 96.223ZM1265.08 103.593V102.856H1261.05V100.997H1264.2V100.271H1258.13V98.676H1263.97V95.673H1257.22V96.41H1263.09V97.95H1257.24V100.997H1260.13V102.856H1256.12V103.593H1265.08Z" fill="white" fill-opacity="0.6"/>
<path d="M1297.54 98.621L1297.82 99.325C1299.46 99.149 1300.87 98.566 1301.48 97.598C1302.06 98.566 1303.53 99.149 1305.14 99.325L1305.42 98.621C1303.56 98.445 1302.05 97.719 1301.97 96.63H1305.02V95.915H1301.93V94.914H1301.03V95.915H1297.94V96.63H1300.99C1300.9 97.708 1299.38 98.445 1297.54 98.621ZM1305.94 100.788V100.062H1301.93V98.841H1301.03V100.062H1297.02V100.788H1305.94ZM1301.47 101.525C1299.3 101.525 1298.09 102.097 1298.09 103.164C1298.09 104.231 1299.3 104.803 1301.47 104.803C1303.64 104.803 1304.85 104.231 1304.85 103.164C1304.85 102.097 1303.64 101.525 1301.47 101.525ZM1301.47 104.121C1299.88 104.121 1299.01 103.78 1299.01 103.164C1299.01 102.548 1299.88 102.196 1301.47 102.196C1303.02 102.196 1303.93 102.548 1303.93 103.164C1303.93 103.78 1303.02 104.121 1301.47 104.121ZM1312.43 98.654H1314.35V100.128H1315.26V94.958H1314.35V96.157H1312.43V96.883H1314.35V97.917H1312.43V98.654ZM1312.41 99.545L1312.35 98.852C1310.97 99.061 1309.86 99.094 1308.43 99.094V97.895H1311.78V95.42H1307.52V96.124H1310.9V97.224H1307.55V99.798H1308.26C1309.8 99.798 1310.95 99.776 1312.41 99.545ZM1315.65 104.737V104.033H1309.75V102.955H1315.25V100.623H1308.84V101.316H1314.37V102.295H1308.86V104.737H1315.65ZM1326.21 103.593V102.856H1322.17V100.997H1325.33V100.271H1319.26V98.676H1325.1V95.673H1318.34V96.41H1324.22V97.95H1318.36V100.997H1321.26V102.856H1317.24V103.593H1326.21Z" fill="white" fill-opacity="0.6"/>
<path d="M1368.79 99.215H1370.42V101.03H1371.33V94.958H1370.42V96.707H1368.79V97.444H1370.42V98.478H1368.79V99.215ZM1369.05 100.117L1369 99.446C1368.59 99.501 1368.15 99.545 1367.71 99.578V96.421H1368.69V95.695H1363.5V96.421H1364.48V99.688C1364.26 99.699 1364.05 99.699 1363.84 99.699H1363.23L1363.33 100.447C1364.93 100.447 1367.15 100.414 1369.05 100.117ZM1365.35 99.677V96.421H1366.83V99.622C1366.34 99.655 1365.83 99.666 1365.35 99.677ZM1368.07 101.239C1365.99 101.239 1364.78 101.866 1364.78 103.01C1364.78 104.154 1365.99 104.803 1368.07 104.803C1370.11 104.803 1371.35 104.154 1371.35 103.01C1371.35 101.866 1370.11 101.239 1368.07 101.239ZM1368.07 104.099C1366.57 104.099 1365.69 103.714 1365.69 103.01C1365.69 102.339 1366.57 101.932 1368.07 101.932C1369.58 101.932 1370.46 102.339 1370.46 103.01C1370.46 103.714 1369.58 104.099 1368.07 104.099ZM1382.23 100.931V100.194H1378.24V99.16C1380.08 99.072 1381.24 98.335 1381.24 97.213C1381.24 95.981 1379.9 95.244 1377.79 95.244C1375.66 95.244 1374.31 95.981 1374.31 97.213C1374.31 98.357 1375.48 99.072 1377.33 99.16V100.194H1373.32V100.931H1382.23ZM1375.23 97.213C1375.23 96.421 1376.19 95.97 1377.79 95.97C1379.33 95.97 1380.32 96.432 1380.32 97.213C1380.32 97.994 1379.33 98.445 1377.79 98.445C1376.19 98.445 1375.23 98.005 1375.23 97.213ZM1381.25 103.857H1375.37V101.745H1374.46V104.594H1381.25V103.857ZM1392.39 103.593V102.856H1388.36V100.997H1391.51V100.271H1385.44V98.676H1391.28V95.673H1384.53V96.41H1390.4V97.95H1384.55V100.997H1387.44V102.856H1383.43V103.593H1392.39Z" fill="white" fill-opacity="0.6"/>
<path d="M1424.36 96.883H1430.18V96.157H1427.71V94.958H1426.81V96.157H1424.36V96.883ZM1433.45 98.962V98.203H1431.98V94.958H1431.08V102.35H1431.98V98.962H1433.45ZM1429.63 99.259C1429.63 98.159 1428.67 97.433 1427.26 97.433C1425.87 97.433 1424.91 98.159 1424.91 99.259C1424.91 100.37 1425.87 101.096 1427.26 101.096C1428.67 101.096 1429.63 100.37 1429.63 99.259ZM1425.77 99.259C1425.77 98.555 1426.34 98.137 1427.26 98.137C1428.15 98.137 1428.77 98.555 1428.77 99.259C1428.77 99.963 1428.15 100.392 1427.26 100.392C1426.34 100.392 1425.77 99.963 1425.77 99.259ZM1432.42 103.857H1426.75V101.767H1425.84V104.594H1432.42V103.857ZM1442.04 99.633H1443.62V98.885H1442.04V94.947H1441.13V104.814H1442.04V99.633ZM1435.73 101.558V95.904H1434.84V102.317H1435.62C1437.13 102.317 1438.64 102.207 1440.32 101.866L1440.21 101.118C1438.61 101.437 1437.15 101.558 1435.73 101.558ZM1445.62 96.058H1451.52V97.224H1445.65V99.919H1452.65V99.182H1446.56V97.917H1452.43V95.343H1445.62V96.058ZM1449.47 101.668H1453.51V100.931H1444.55V101.668H1448.57V104.825H1449.47V101.668ZM1463.64 103.593V102.856H1459.6V100.997H1462.76V100.271H1456.69V98.676H1462.53V95.673H1455.77V96.41H1461.65V97.95H1455.79V100.997H1458.69V102.856H1454.67V103.593H1463.64Z" fill="white" fill-opacity="0.6"/>
<path d="M1498.62 95.244V104H1499.62V95.244H1498.62ZM1502.99 104.143C1503.74 104.143 1504.41 103.835 1504.98 103.362H1505.02L1505.11 104H1505.93V100.326C1505.93 98.863 1505.31 97.873 1503.86 97.873C1502.89 97.873 1502.01 98.225 1501.45 98.577L1501.85 99.292C1502.32 98.973 1502.99 98.709 1503.7 98.709C1504.68 98.709 1504.93 99.446 1504.93 100.216C1502.56 100.249 1501.26 100.854 1501.26 102.394C1501.26 103.483 1501.99 104.143 1502.99 104.143ZM1503.28 103.34C1502.66 103.34 1502.23 103.032 1502.23 102.328C1502.23 101.404 1502.81 101.019 1504.93 100.876V102.647C1504.35 103.164 1503.86 103.34 1503.28 103.34ZM1510.47 104.143C1511.83 104.143 1513.06 102.977 1513.06 100.909C1513.06 99.094 1512.23 97.873 1510.68 97.873C1510.02 97.873 1509.34 98.247 1508.81 98.72L1508.84 97.642V95.244H1507.84V104H1508.64L1508.73 103.384H1508.76C1509.29 103.868 1509.91 104.143 1510.47 104.143ZM1510.3 103.307C1509.91 103.307 1509.37 103.153 1508.84 102.68V99.545C1509.41 99.006 1509.93 98.72 1510.44 98.72C1511.58 98.72 1512.02 99.611 1512.02 100.931C1512.02 102.416 1511.3 103.307 1510.3 103.307ZM1517.05 104.143C1517.88 104.143 1518.5 103.868 1519.03 103.527L1518.66 102.867C1518.22 103.164 1517.75 103.34 1517.17 103.34C1516.02 103.34 1515.26 102.537 1515.19 101.25H1519.21C1519.25 101.107 1519.26 100.898 1519.26 100.678C1519.26 98.973 1518.4 97.873 1516.88 97.873C1515.5 97.873 1514.19 99.083 1514.19 101.019C1514.19 102.999 1515.46 104.143 1517.05 104.143ZM1518.38 100.535H1515.18C1515.3 99.358 1516.05 98.676 1516.89 98.676C1517.83 98.676 1518.38 99.292 1518.38 100.535ZM1520.73 95.244V104H1521.73V95.244H1520.73Z" fill="white" fill-opacity="0.6"/>
<path d="M1564.81 95.244V104H1565.81V95.244H1564.81ZM1569.18 104.143C1569.93 104.143 1570.6 103.835 1571.17 103.362H1571.2L1571.29 104H1572.12V100.326C1572.12 98.863 1571.5 97.873 1570.05 97.873C1569.08 97.873 1568.2 98.225 1567.64 98.577L1568.03 99.292C1568.51 98.973 1569.18 98.709 1569.88 98.709C1570.86 98.709 1571.11 99.446 1571.11 100.216C1568.75 100.249 1567.44 100.854 1567.44 102.394C1567.44 103.483 1568.18 104.143 1569.18 104.143ZM1569.46 103.34C1568.85 103.34 1568.42 103.032 1568.42 102.328C1568.42 101.404 1568.99 101.019 1571.11 100.876V102.647C1570.53 103.164 1570.05 103.34 1569.46 103.34ZM1576.65 104.143C1578.02 104.143 1579.25 102.977 1579.25 100.909C1579.25 99.094 1578.41 97.873 1576.86 97.873C1576.2 97.873 1575.53 98.247 1574.99 98.72L1575.02 97.642V95.244H1574.02V104H1574.83L1574.91 103.384H1574.95C1575.48 103.868 1576.09 104.143 1576.65 104.143ZM1576.49 103.307C1576.09 103.307 1575.55 103.153 1575.02 102.68V99.545C1575.6 99.006 1576.11 98.72 1576.63 98.72C1577.76 98.72 1578.2 99.611 1578.2 100.931C1578.2 102.416 1577.49 103.307 1576.49 103.307ZM1583.23 104.143C1584.07 104.143 1584.68 103.868 1585.21 103.527L1584.85 102.867C1584.41 103.164 1583.94 103.34 1583.35 103.34C1582.21 103.34 1581.45 102.537 1581.37 101.25H1585.4C1585.43 101.107 1585.44 100.898 1585.44 100.678C1585.44 98.973 1584.58 97.873 1583.07 97.873C1581.68 97.873 1580.37 99.083 1580.37 101.019C1580.37 102.999 1581.65 104.143 1583.23 104.143ZM1584.56 100.535H1581.36C1581.48 99.358 1582.23 98.676 1583.08 98.676C1584.01 98.676 1584.56 99.292 1584.56 100.535ZM1586.91 95.244V104H1587.91V95.244H1586.91Z" fill="white" fill-opacity="0.6"/>
<path d="M1630.99 95.244V104H1631.99V95.244H1630.99ZM1635.36 104.143C1636.11 104.143 1636.78 103.835 1637.35 103.362H1637.39L1637.48 104H1638.3V100.326C1638.3 98.863 1637.68 97.873 1636.23 97.873C1635.26 97.873 1634.38 98.225 1633.82 98.577L1634.22 99.292C1634.69 98.973 1635.36 98.709 1636.07 98.709C1637.05 98.709 1637.3 99.446 1637.3 100.216C1634.93 100.249 1633.63 100.854 1633.63 102.394C1633.63 103.483 1634.36 104.143 1635.36 104.143ZM1635.65 103.34C1635.03 103.34 1634.6 103.032 1634.6 102.328C1634.6 101.404 1635.18 101.019 1637.3 100.876V102.647C1636.72 103.164 1636.23 103.34 1635.65 103.34ZM1642.84 104.143C1644.2 104.143 1645.43 102.977 1645.43 100.909C1645.43 99.094 1644.6 97.873 1643.05 97.873C1642.39 97.873 1641.72 98.247 1641.18 98.72L1641.21 97.642V95.244H1640.21V104H1641.01L1641.1 103.384H1641.13C1641.66 103.868 1642.28 104.143 1642.84 104.143ZM1642.67 103.307C1642.28 103.307 1641.74 103.153 1641.21 102.68V99.545C1641.78 99.006 1642.3 98.72 1642.82 98.72C1643.95 98.72 1644.39 99.611 1644.39 100.931C1644.39 102.416 1643.67 103.307 1642.67 103.307ZM1649.42 104.143C1650.25 104.143 1650.87 103.868 1651.4 103.527L1651.03 102.867C1650.59 103.164 1650.12 103.34 1649.54 103.34C1648.39 103.34 1647.63 102.537 1647.56 101.25H1651.58C1651.62 101.107 1651.63 100.898 1651.63 100.678C1651.63 98.973 1650.77 97.873 1649.25 97.873C1647.87 97.873 1646.56 99.083 1646.56 101.019C1646.56 102.999 1647.83 104.143 1649.42 104.143ZM1650.75 100.535H1647.55C1647.67 99.358 1648.42 98.676 1649.26 98.676C1650.2 98.676 1650.75 99.292 1650.75 100.535ZM1653.1 95.244V104H1654.1V95.244H1653.1Z" fill="white" fill-opacity="0.6"/>
<path d="M1697.18 95.244V104H1698.18V95.244H1697.18ZM1701.55 104.143C1702.3 104.143 1702.97 103.835 1703.54 103.362H1703.57L1703.66 104H1704.49V100.326C1704.49 98.863 1703.87 97.873 1702.42 97.873C1701.45 97.873 1700.57 98.225 1700.01 98.577L1700.4 99.292C1700.88 98.973 1701.55 98.709 1702.25 98.709C1703.23 98.709 1703.48 99.446 1703.48 100.216C1701.12 100.249 1699.81 100.854 1699.81 102.394C1699.81 103.483 1700.55 104.143 1701.55 104.143ZM1701.83 103.34C1701.22 103.34 1700.79 103.032 1700.79 102.328C1700.79 101.404 1701.36 101.019 1703.48 100.876V102.647C1702.9 103.164 1702.42 103.34 1701.83 103.34ZM1709.02 104.143C1710.39 104.143 1711.62 102.977 1711.62 100.909C1711.62 99.094 1710.78 97.873 1709.23 97.873C1708.57 97.873 1707.9 98.247 1707.36 98.72L1707.39 97.642V95.244H1706.39V104H1707.2L1707.28 103.384H1707.32C1707.85 103.868 1708.46 104.143 1709.02 104.143ZM1708.86 103.307C1708.46 103.307 1707.92 103.153 1707.39 102.68V99.545C1707.97 99.006 1708.48 98.72 1709 98.72C1710.13 98.72 1710.57 99.611 1710.57 100.931C1710.57 102.416 1709.86 103.307 1708.86 103.307ZM1715.6 104.143C1716.44 104.143 1717.05 103.868 1717.58 103.527L1717.22 102.867C1716.78 103.164 1716.31 103.34 1715.72 103.34C1714.58 103.34 1713.82 102.537 1713.74 101.25H1717.77C1717.8 101.107 1717.81 100.898 1717.81 100.678C1717.81 98.973 1716.96 97.873 1715.44 97.873C1714.05 97.873 1712.74 99.083 1712.74 101.019C1712.74 102.999 1714.02 104.143 1715.6 104.143ZM1716.93 100.535H1713.73C1713.85 99.358 1714.6 98.676 1715.45 98.676C1716.38 98.676 1716.93 99.292 1716.93 100.535ZM1719.28 95.244V104H1720.29V95.244H1719.28Z" fill="white" fill-opacity="0.6"/>
<path d="M1763.36 95.244V104H1764.36V95.244H1763.36ZM1767.73 104.143C1768.48 104.143 1769.15 103.835 1769.72 103.362H1769.76L1769.85 104H1770.67V100.326C1770.67 98.863 1770.05 97.873 1768.6 97.873C1767.63 97.873 1766.75 98.225 1766.19 98.577L1766.59 99.292C1767.06 98.973 1767.73 98.709 1768.44 98.709C1769.42 98.709 1769.67 99.446 1769.67 100.216C1767.3 100.249 1766 100.854 1766 102.394C1766 103.483 1766.73 104.143 1767.73 104.143ZM1768.02 103.34C1767.4 103.34 1766.97 103.032 1766.97 102.328C1766.97 101.404 1767.55 101.019 1769.67 100.876V102.647C1769.09 103.164 1768.6 103.34 1768.02 103.34ZM1775.21 104.143C1776.57 104.143 1777.8 102.977 1777.8 100.909C1777.8 99.094 1776.97 97.873 1775.42 97.873C1774.76 97.873 1774.09 98.247 1773.55 98.72L1773.58 97.642V95.244H1772.58V104H1773.38L1773.47 103.384H1773.5C1774.03 103.868 1774.65 104.143 1775.21 104.143ZM1775.04 103.307C1774.65 103.307 1774.11 103.153 1773.58 102.68V99.545C1774.15 99.006 1774.67 98.72 1775.19 98.72C1776.32 98.72 1776.76 99.611 1776.76 100.931C1776.76 102.416 1776.04 103.307 1775.04 103.307ZM1781.79 104.143C1782.62 104.143 1783.24 103.868 1783.77 103.527L1783.4 102.867C1782.96 103.164 1782.49 103.34 1781.91 103.34C1780.76 103.34 1780.01 102.537 1779.93 101.25H1783.95C1783.99 101.107 1784 100.898 1784 100.678C1784 98.973 1783.14 97.873 1781.62 97.873C1780.24 97.873 1778.93 99.083 1778.93 101.019C1778.93 102.999 1780.2 104.143 1781.79 104.143ZM1783.12 100.535H1779.92C1780.04 99.358 1780.79 98.676 1781.63 98.676C1782.57 98.676 1783.12 99.292 1783.12 100.535ZM1785.47 95.244V104H1786.47V95.244H1785.47Z" fill="white" fill-opacity="0.6"/>
</svg>
