<svg width="1816" height="107" viewBox="0 0 1816 107" fill="none" xmlns="http://www.w3.org/2000/svg">
<path d="M37.5039 19L111.254 21.5L184.502 19L258.252 24.5L332.002 21L406.253 24.5L480.003 21L553.753 18.5H627.503L701.252 24L775.002 21L848.752 24L923.004 18.5L996.252 21.5L1070 24L1143.75 18L1218 21.5L1291.25 24L1365.5 18.5H1439.25L1513 22L1586.75 24L1660.5 18.5L1734.25 21L1808 24.5" stroke="#27D4FF" stroke-width="2"/>
<path d="M37.5039 30L111.254 32.5L184.502 30L258.252 35.5L332.002 32L406.253 35.5L480.003 32L553.753 29.5H627.503L701.252 35L775.002 32L848.752 35L923.004 29.5L996.252 32.5L1070 35L1143.75 29L1218 32.5L1291.25 35L1365.5 29.5H1439.25L1513 33L1586.75 35L1660.5 29.5L1734.25 32L1808 35.5" stroke="#0077FF" stroke-width="2"/>
<path d="M37.5039 56L111.254 58.5L184.502 56L258.252 61.5L332.002 58L406.253 61.5L480.003 58L553.753 55.5H627.503L701.252 61L775.002 58L848.752 61L923.004 55.5L996.252 58.5L1070 61L1143.75 55L1218 58.5L1291.25 61L1365.5 55.5H1439.25L1513 59L1586.75 61L1660.5 55.5L1734.25 58L1808 61.5" stroke="#6E3DFF" stroke-width="2"/>
<path d="M37 43L111.252 46L185.001 49L258.751 43L332.501 46L406.251 49.5L480.001 43L553.751 46L627.5 49L701.25 43L775 46L848.75 49L922.5 43L996.25 46L1070 49L1143.75 43L1217.5 46L1291.75 49L1365.5 43H1439.25L1513 46L1586.75 49L1660.5 43L1734.25 46L1808 49" stroke="#0E44E6" stroke-width="2"/>
<path d="M37 70.5L110.75 73L184.5 76.5L258.25 70L332.501 73.5L405.749 70L480.001 76L553.751 73.5L627.5 76H701.25L775 70L848.75 73L922.5 70L996.25 73L1070 76H1143.75L1217.5 70L1291.75 73.5L1365 70H1439.25L1513 73.5L1586.75 70L1660.5 76.5H1734.25L1808 73" stroke="#8972FF" stroke-width="2"/>
<path d="M37 4.5L110.75 7L184.5 10.5L258.25 4L332.501 7.5L405.749 4L480.001 10L553.751 7.5L627.5 10H701.25L775 4L848.75 7L922.5 4L996.25 7L1070 10H1143.75L1217.5 4L1291.75 7.5L1365 4H1439.25L1513 7.5L1586.75 4L1660.5 10.5H1734.25L1808 7" stroke="#16D9AB" stroke-width="2"/>
<path d="M7.27453 9.855H6.05353V12H5.16253V9.855H1.13653V9.107L5.10753 3.849H6.05353V9.063H7.27453V9.855ZM5.16253 5.697C5.16253 5.60167 5.1662 5.49533 5.17353 5.378C5.18086 5.25333 5.19186 5.13233 5.20653 5.015L2.23653 9.063H5.16253V5.697ZM13.7063 7.985C13.7063 8.69633 13.6293 9.316 13.4753 9.844C13.3213 10.3647 13.1123 10.7973 12.8483 11.142C12.5843 11.4867 12.2726 11.7433 11.9133 11.912C11.5539 12.0733 11.1653 12.154 10.7473 12.154C10.3293 12.154 9.9406 12.0733 9.58127 11.912C9.22193 11.7433 8.9066 11.4867 8.63527 11.142C8.37127 10.7973 8.16227 10.3647 8.00827 9.844C7.8616 9.316 7.78827 8.69633 7.78827 7.985C7.78827 7.26633 7.8616 6.64667 8.00827 6.126C8.16227 5.598 8.37127 5.16167 8.63527 4.817C8.9066 4.47233 9.22193 4.21933 9.58127 4.058C9.9406 3.88933 10.3293 3.805 10.7473 3.805C11.1653 3.805 11.5539 3.88933 11.9133 4.058C12.2726 4.21933 12.5843 4.47233 12.8483 4.817C13.1123 5.16167 13.3213 5.598 13.4753 6.126C13.6293 6.64667 13.7063 7.26633 13.7063 7.985ZM12.6943 7.985C12.6943 7.35433 12.6393 6.82633 12.5293 6.401C12.4266 5.96833 12.2836 5.62367 12.1003 5.367C11.9243 5.103 11.7189 4.916 11.4843 4.806C11.2496 4.68867 11.0039 4.63 10.7473 4.63C10.4906 4.63 10.2449 4.68867 10.0103 4.806C9.7756 4.916 9.57027 5.103 9.39427 5.367C9.21827 5.62367 9.07527 5.96833 8.96527 6.401C8.8626 6.82633 8.81127 7.35433 8.81127 7.985C8.81127 8.60833 8.8626 9.13633 8.96527 9.569C9.07527 9.99433 9.21827 10.339 9.39427 10.603C9.57027 10.867 9.7756 11.0577 10.0103 11.175C10.2449 11.285 10.4906 11.34 10.7473 11.34C11.0039 11.34 11.2496 11.285 11.4843 11.175C11.7189 11.0577 11.9243 10.867 12.1003 10.603C12.2836 10.339 12.4266 9.99433 12.5293 9.569C12.6393 9.13633 12.6943 8.60833 12.6943 7.985Z" fill="black" fill-opacity="0.6"/>
<path d="M6.88953 49H1.47753V48.296L4.26053 45.623C4.4732 45.3957 4.66753 45.183 4.84353 44.985C5.02686 44.7797 5.18086 44.5743 5.30553 44.369C5.43753 44.1637 5.5402 43.9583 5.61353 43.753C5.68686 43.5403 5.72353 43.3167 5.72353 43.082C5.70886 42.598 5.5622 42.2423 5.28353 42.015C5.00486 41.7803 4.65653 41.663 4.23853 41.663C4.0112 41.663 3.79853 41.7033 3.60053 41.784C3.40253 41.8573 3.2302 41.9673 3.08353 42.114C2.9442 42.2533 2.8342 42.4183 2.75353 42.609C2.67286 42.7997 2.63253 43.0123 2.63253 43.247L1.64253 43.082C1.69386 42.708 1.79653 42.3817 1.95053 42.103C2.10453 41.817 2.2952 41.5787 2.52253 41.388C2.7572 41.19 3.02486 41.0433 3.32553 40.948C3.6262 40.8453 3.94886 40.794 4.29353 40.794C4.6382 40.794 4.9572 40.8453 5.25053 40.948C5.5512 41.0507 5.81153 41.201 6.03153 41.399C6.25153 41.5897 6.42386 41.8243 6.54853 42.103C6.6732 42.3817 6.73553 42.7007 6.73553 43.06C6.73553 43.3607 6.69153 43.6393 6.60353 43.896C6.51553 44.1527 6.39453 44.402 6.24053 44.644C6.08653 44.8787 5.90686 45.1097 5.70153 45.337C5.4962 45.557 5.27986 45.7807 5.05253 46.008L2.79753 48.241C2.95153 48.197 3.10553 48.164 3.25953 48.142C3.42086 48.12 3.5712 48.109 3.71053 48.109H6.88953V49ZM13.7063 44.985C13.7063 45.6963 13.6293 46.316 13.4753 46.844C13.3213 47.3647 13.1123 47.7973 12.8483 48.142C12.5843 48.4867 12.2726 48.7433 11.9133 48.912C11.5539 49.0733 11.1653 49.154 10.7473 49.154C10.3293 49.154 9.9406 49.0733 9.58127 48.912C9.22193 48.7433 8.9066 48.4867 8.63527 48.142C8.37127 47.7973 8.16227 47.3647 8.00827 46.844C7.8616 46.316 7.78827 45.6963 7.78827 44.985C7.78827 44.2663 7.8616 43.6467 8.00827 43.126C8.16227 42.598 8.37127 42.1617 8.63527 41.817C8.9066 41.4723 9.22193 41.2193 9.58127 41.058C9.9406 40.8893 10.3293 40.805 10.7473 40.805C11.1653 40.805 11.5539 40.8893 11.9133 41.058C12.2726 41.2193 12.5843 41.4723 12.8483 41.817C13.1123 42.1617 13.3213 42.598 13.4753 43.126C13.6293 43.6467 13.7063 44.2663 13.7063 44.985ZM12.6943 44.985C12.6943 44.3543 12.6393 43.8263 12.5293 43.401C12.4266 42.9683 12.2836 42.6237 12.1003 42.367C11.9243 42.103 11.7189 41.916 11.4843 41.806C11.2496 41.6887 11.0039 41.63 10.7473 41.63C10.4906 41.63 10.2449 41.6887 10.0103 41.806C9.7756 41.916 9.57027 42.103 9.39427 42.367C9.21827 42.6237 9.07527 42.9683 8.96527 43.401C8.8626 43.8263 8.81127 44.3543 8.81127 44.985C8.81127 45.6083 8.8626 46.1363 8.96527 46.569C9.07527 46.9943 9.21827 47.339 9.39427 47.603C9.57027 47.867 9.7756 48.0577 10.0103 48.175C10.2449 48.285 10.4906 48.34 10.7473 48.34C11.0039 48.34 11.2496 48.285 11.4843 48.175C11.7189 48.0577 11.9243 47.867 12.1003 47.603C12.2836 47.339 12.4266 46.9943 12.5293 46.569C12.6393 46.1363 12.6943 45.6083 12.6943 44.985Z" fill="black" fill-opacity="0.6"/>
<path d="M13.7063 81.985C13.7063 82.6963 13.6293 83.316 13.4753 83.844C13.3213 84.3647 13.1123 84.7973 12.8483 85.142C12.5843 85.4867 12.2726 85.7433 11.9133 85.912C11.5539 86.0733 11.1653 86.154 10.7473 86.154C10.3293 86.154 9.9406 86.0733 9.58127 85.912C9.22193 85.7433 8.9066 85.4867 8.63527 85.142C8.37127 84.7973 8.16227 84.3647 8.00827 83.844C7.8616 83.316 7.78827 82.6963 7.78827 81.985C7.78827 81.2663 7.8616 80.6467 8.00827 80.126C8.16227 79.598 8.37127 79.1617 8.63527 78.817C8.9066 78.4723 9.22193 78.2193 9.58127 78.058C9.9406 77.8893 10.3293 77.805 10.7473 77.805C11.1653 77.805 11.5539 77.8893 11.9133 78.058C12.2726 78.2193 12.5843 78.4723 12.8483 78.817C13.1123 79.1617 13.3213 79.598 13.4753 80.126C13.6293 80.6467 13.7063 81.2663 13.7063 81.985ZM12.6943 81.985C12.6943 81.3543 12.6393 80.8263 12.5293 80.401C12.4266 79.9683 12.2836 79.6237 12.1003 79.367C11.9243 79.103 11.7189 78.916 11.4843 78.806C11.2496 78.6887 11.0039 78.63 10.7473 78.63C10.4906 78.63 10.2449 78.6887 10.0103 78.806C9.7756 78.916 9.57027 79.103 9.39427 79.367C9.21827 79.6237 9.07527 79.9683 8.96527 80.401C8.8626 80.8263 8.81127 81.3543 8.81127 81.985C8.81127 82.6083 8.8626 83.1363 8.96527 83.569C9.07527 83.9943 9.21827 84.339 9.39427 84.603C9.57027 84.867 9.7756 85.0577 10.0103 85.175C10.2449 85.285 10.4906 85.34 10.7473 85.34C11.0039 85.34 11.2496 85.285 11.4843 85.175C11.7189 85.0577 11.9243 84.867 12.1003 84.603C12.2836 84.339 12.4266 83.9943 12.5293 83.569C12.6393 83.1363 12.6943 82.6083 12.6943 81.985Z" fill="black" fill-opacity="0.6"/>
<path d="M21 89H20V90H21V89ZM1816 88H21V90H1816V88ZM22 89V1H20V89H22Z" fill="white" fill-opacity="0.2" mask="url(#path-10-inside-1_5151_70431)"/>
<path d="M37 9C39.2091 9 41 7.20914 41 5C41 2.79086 39.2091 1 37 1C34.7909 1 33 2.79086 33 5C33 7.20914 34.7909 9 37 9Z" fill="white" stroke="#16D9AB" stroke-miterlimit="10"/>
<path d="M110.792 11C113.001 11 114.792 9.20914 114.792 7C114.792 4.79086 113.001 3 110.792 3C108.583 3 106.792 4.79086 106.792 7C106.792 9.20914 108.583 11 110.792 11Z" fill="white" stroke="#16D9AB" stroke-miterlimit="10"/>
<path d="M184.583 13C186.792 13 188.583 11.2091 188.583 9C188.583 6.79086 186.792 5 184.583 5C182.374 5 180.583 6.79086 180.583 9C180.583 11.2091 182.374 13 184.583 13Z" fill="white" stroke="#16D9AB" stroke-miterlimit="10"/>
<path d="M258.375 9C260.584 9 262.375 7.20914 262.375 5C262.375 2.79086 260.584 1 258.375 1C256.166 1 254.375 2.79086 254.375 5C254.375 7.20914 256.166 9 258.375 9Z" fill="white" stroke="#16D9AB" stroke-miterlimit="10"/>
<path d="M332.167 11C334.376 11 336.167 9.20914 336.167 7C336.167 4.79086 334.376 3 332.167 3C329.958 3 328.167 4.79086 328.167 7C328.167 9.20914 329.958 11 332.167 11Z" fill="white" stroke="#16D9AB" stroke-miterlimit="10"/>
<path d="M405.958 9C408.167 9 409.958 7.20914 409.958 5C409.958 2.79086 408.167 1 405.958 1C403.749 1 401.958 2.79086 401.958 5C401.958 7.20914 403.749 9 405.958 9Z" fill="white" stroke="#16D9AB" stroke-miterlimit="10"/>
<path d="M479.75 13C481.959 13 483.75 11.2091 483.75 9C483.75 6.79086 481.959 5 479.75 5C477.541 5 475.75 6.79086 475.75 9C475.75 11.2091 477.541 13 479.75 13Z" fill="white" stroke="#16D9AB" stroke-miterlimit="10"/>
<path d="M553.542 11C555.751 11 557.542 9.20914 557.542 7C557.542 4.79086 555.751 3 553.542 3C551.333 3 549.542 4.79086 549.542 7C549.542 9.20914 551.333 11 553.542 11Z" fill="#16D9AB" stroke="white" stroke-miterlimit="10"/>
<path d="M627.333 13C629.542 13 631.333 11.2091 631.333 9C631.333 6.79086 629.542 5 627.333 5C625.124 5 623.333 6.79086 623.333 9C623.333 11.2091 625.124 13 627.333 13Z" fill="white" stroke="#16D9AB" stroke-miterlimit="10"/>
<path d="M701.125 13C703.334 13 705.125 11.2091 705.125 9C705.125 6.79086 703.334 5 701.125 5C698.916 5 697.125 6.79086 697.125 9C697.125 11.2091 698.916 13 701.125 13Z" fill="white" stroke="#16D9AB" stroke-miterlimit="10"/>
<path d="M774.917 9C777.126 9 778.917 7.20914 778.917 5C778.917 2.79086 777.126 1 774.917 1C772.708 1 770.917 2.79086 770.917 5C770.917 7.20914 772.708 9 774.917 9Z" fill="white" stroke="#16D9AB" stroke-miterlimit="10"/>
<path d="M848.708 11C850.917 11 852.708 9.20914 852.708 7C852.708 4.79086 850.917 3 848.708 3C846.499 3 844.708 4.79086 844.708 7C844.708 9.20914 846.499 11 848.708 11Z" fill="white" stroke="#16D9AB" stroke-miterlimit="10"/>
<path d="M922.5 9C924.709 9 926.5 7.20914 926.5 5C926.5 2.79086 924.709 1 922.5 1C920.291 1 918.5 2.79086 918.5 5C918.5 7.20914 920.291 9 922.5 9Z" fill="white" stroke="#16D9AB" stroke-miterlimit="10"/>
<path d="M996.292 11C998.501 11 1000.29 9.20914 1000.29 7C1000.29 4.79086 998.501 3 996.292 3C994.083 3 992.292 4.79086 992.292 7C992.292 9.20914 994.083 11 996.292 11Z" fill="white" stroke="#16D9AB" stroke-miterlimit="10"/>
<path d="M1070.08 13C1072.29 13 1074.08 11.2091 1074.08 9C1074.08 6.79086 1072.29 5 1070.08 5C1067.87 5 1066.08 6.79086 1066.08 9C1066.08 11.2091 1067.87 13 1070.08 13Z" fill="white" stroke="#16D9AB" stroke-miterlimit="10"/>
<path d="M1143.88 13C1146.08 13 1147.88 11.2091 1147.88 9C1147.88 6.79086 1146.08 5 1143.88 5C1141.67 5 1139.88 6.79086 1139.88 9C1139.88 11.2091 1141.67 13 1143.88 13Z" fill="white" stroke="#16D9AB" stroke-miterlimit="10"/>
<path d="M1217.67 9C1219.88 9 1221.67 7.20914 1221.67 5C1221.67 2.79086 1219.88 1 1217.67 1C1215.46 1 1213.67 2.79086 1213.67 5C1213.67 7.20914 1215.46 9 1217.67 9Z" fill="white" stroke="#16D9AB" stroke-miterlimit="10"/>
<path d="M1291.46 11C1293.67 11 1295.46 9.20914 1295.46 7C1295.46 4.79086 1293.67 3 1291.46 3C1289.25 3 1287.46 4.79086 1287.46 7C1287.46 9.20914 1289.25 11 1291.46 11Z" fill="white" stroke="#16D9AB" stroke-miterlimit="10"/>
<path d="M1365.25 9C1367.46 9 1369.25 7.20914 1369.25 5C1369.25 2.79086 1367.46 1 1365.25 1C1363.04 1 1361.25 2.79086 1361.25 5C1361.25 7.20914 1363.04 9 1365.25 9Z" fill="white" stroke="#16D9AB" stroke-miterlimit="10"/>
<path d="M1439.04 9C1441.25 9 1443.04 7.20914 1443.04 5C1443.04 2.79086 1441.25 1 1439.04 1C1436.83 1 1435.04 2.79086 1435.04 5C1435.04 7.20914 1436.83 9 1439.04 9Z" fill="white" stroke="#16D9AB" stroke-miterlimit="10"/>
<path d="M1512.83 11C1515.04 11 1516.83 9.20914 1516.83 7C1516.83 4.79086 1515.04 3 1512.83 3C1510.62 3 1508.83 4.79086 1508.83 7C1508.83 9.20914 1510.62 11 1512.83 11Z" fill="white" stroke="#16D9AB" stroke-miterlimit="10"/>
<path d="M1586.62 9C1588.83 9 1590.62 7.20914 1590.62 5C1590.62 2.79086 1588.83 1 1586.62 1C1584.42 1 1582.62 2.79086 1582.62 5C1582.62 7.20914 1584.42 9 1586.62 9Z" fill="white" stroke="#16D9AB" stroke-miterlimit="10"/>
<path d="M1660.42 13C1662.63 13 1664.42 11.2091 1664.42 9C1664.42 6.79086 1662.63 5 1660.42 5C1658.21 5 1656.42 6.79086 1656.42 9C1656.42 11.2091 1658.21 13 1660.42 13Z" fill="white" stroke="#16D9AB" stroke-miterlimit="10"/>
<path d="M1734.21 13C1736.42 13 1738.21 11.2091 1738.21 9C1738.21 6.79086 1736.42 5 1734.21 5C1732 5 1730.21 6.79086 1730.21 9C1730.21 11.2091 1732 13 1734.21 13Z" fill="white" stroke="#16D9AB" stroke-miterlimit="10"/>
<path d="M1808 11C1810.21 11 1812 9.20914 1812 7C1812 4.79086 1810.21 3 1808 3C1805.79 3 1804 4.79086 1804 7C1804 9.20914 1805.79 11 1808 11Z" fill="white" stroke="#16D9AB" stroke-miterlimit="10"/>
<path d="M37 22.3335C39.2091 22.3335 41 20.5426 41 18.3335C41 16.1244 39.2091 14.3335 37 14.3335C34.7909 14.3335 33 16.1244 33 18.3335C33 20.5426 34.7909 22.3335 37 22.3335Z" fill="white" stroke="#27D4FF" stroke-miterlimit="10"/>
<path d="M110.792 24.3335C113.001 24.3335 114.792 22.5426 114.792 20.3335C114.792 18.1244 113.001 16.3335 110.792 16.3335C108.583 16.3335 106.792 18.1244 106.792 20.3335C106.792 22.5426 108.583 24.3335 110.792 24.3335Z" fill="white" stroke="#27D4FF" stroke-miterlimit="10"/>
<path d="M184.583 22.3335C186.792 22.3335 188.583 20.5426 188.583 18.3335C188.583 16.1244 186.792 14.3335 184.583 14.3335C182.374 14.3335 180.583 16.1244 180.583 18.3335C180.583 20.5426 182.374 22.3335 184.583 22.3335Z" fill="white" stroke="#27D4FF" stroke-miterlimit="10"/>
<path d="M258.375 26.3335C260.584 26.3335 262.375 24.5426 262.375 22.3335C262.375 20.1244 260.584 18.3335 258.375 18.3335C256.166 18.3335 254.375 20.1244 254.375 22.3335C254.375 24.5426 256.166 26.3335 258.375 26.3335Z" fill="white" stroke="#27D4FF" stroke-miterlimit="10"/>
<path d="M332.167 24.3335C334.376 24.3335 336.167 22.5426 336.167 20.3335C336.167 18.1244 334.376 16.3335 332.167 16.3335C329.958 16.3335 328.167 18.1244 328.167 20.3335C328.167 22.5426 329.958 24.3335 332.167 24.3335Z" fill="white" stroke="#27D4FF" stroke-miterlimit="10"/>
<path d="M405.958 26.3335C408.167 26.3335 409.958 24.5426 409.958 22.3335C409.958 20.1244 408.167 18.3335 405.958 18.3335C403.749 18.3335 401.958 20.1244 401.958 22.3335C401.958 24.5426 403.749 26.3335 405.958 26.3335Z" fill="white" stroke="#27D4FF" stroke-miterlimit="10"/>
<path d="M479.75 24.3335C481.959 24.3335 483.75 22.5426 483.75 20.3335C483.75 18.1244 481.959 16.3335 479.75 16.3335C477.541 16.3335 475.75 18.1244 475.75 20.3335C475.75 22.5426 477.541 24.3335 479.75 24.3335Z" fill="white" stroke="#27D4FF" stroke-miterlimit="10"/>
<path d="M553.542 22.3335C555.751 22.3335 557.542 20.5426 557.542 18.3335C557.542 16.1244 555.751 14.3335 553.542 14.3335C551.333 14.3335 549.542 16.1244 549.542 18.3335C549.542 20.5426 551.333 22.3335 553.542 22.3335Z" fill="white" stroke="#27D4FF" stroke-miterlimit="10"/>
<path d="M627.333 22.3335C629.542 22.3335 631.333 20.5426 631.333 18.3335C631.333 16.1244 629.542 14.3335 627.333 14.3335C625.124 14.3335 623.333 16.1244 623.333 18.3335C623.333 20.5426 625.124 22.3335 627.333 22.3335Z" fill="white" stroke="#27D4FF" stroke-miterlimit="10"/>
<path d="M701.125 26.3335C703.334 26.3335 705.125 24.5426 705.125 22.3335C705.125 20.1244 703.334 18.3335 701.125 18.3335C698.916 18.3335 697.125 20.1244 697.125 22.3335C697.125 24.5426 698.916 26.3335 701.125 26.3335Z" fill="white" stroke="#27D4FF" stroke-miterlimit="10"/>
<path d="M774.917 24.3335C777.126 24.3335 778.917 22.5426 778.917 20.3335C778.917 18.1244 777.126 16.3335 774.917 16.3335C772.708 16.3335 770.917 18.1244 770.917 20.3335C770.917 22.5426 772.708 24.3335 774.917 24.3335Z" fill="white" stroke="#27D4FF" stroke-miterlimit="10"/>
<path d="M848.708 26.3335C850.917 26.3335 852.708 24.5426 852.708 22.3335C852.708 20.1244 850.917 18.3335 848.708 18.3335C846.499 18.3335 844.708 20.1244 844.708 22.3335C844.708 24.5426 846.499 26.3335 848.708 26.3335Z" fill="white" stroke="#27D4FF" stroke-miterlimit="10"/>
<path d="M922.5 22.3335C924.709 22.3335 926.5 20.5426 926.5 18.3335C926.5 16.1244 924.709 14.3335 922.5 14.3335C920.291 14.3335 918.5 16.1244 918.5 18.3335C918.5 20.5426 920.291 22.3335 922.5 22.3335Z" fill="white" stroke="#27D4FF" stroke-miterlimit="10"/>
<path d="M996.292 24.3335C998.501 24.3335 1000.29 22.5426 1000.29 20.3335C1000.29 18.1244 998.501 16.3335 996.292 16.3335C994.083 16.3335 992.292 18.1244 992.292 20.3335C992.292 22.5426 994.083 24.3335 996.292 24.3335Z" fill="white" stroke="#27D4FF" stroke-miterlimit="10"/>
<path d="M1070.08 26.3335C1072.29 26.3335 1074.08 24.5426 1074.08 22.3335C1074.08 20.1244 1072.29 18.3335 1070.08 18.3335C1067.87 18.3335 1066.08 20.1244 1066.08 22.3335C1066.08 24.5426 1067.87 26.3335 1070.08 26.3335Z" fill="white" stroke="#27D4FF" stroke-miterlimit="10"/>
<path d="M1143.88 22.3335C1146.08 22.3335 1147.88 20.5426 1147.88 18.3335C1147.88 16.1244 1146.08 14.3335 1143.88 14.3335C1141.67 14.3335 1139.88 16.1244 1139.88 18.3335C1139.88 20.5426 1141.67 22.3335 1143.88 22.3335Z" fill="white" stroke="#27D4FF" stroke-miterlimit="10"/>
<path d="M1217.67 24.3335C1219.88 24.3335 1221.67 22.5426 1221.67 20.3335C1221.67 18.1244 1219.88 16.3335 1217.67 16.3335C1215.46 16.3335 1213.67 18.1244 1213.67 20.3335C1213.67 22.5426 1215.46 24.3335 1217.67 24.3335Z" fill="white" stroke="#27D4FF" stroke-miterlimit="10"/>
<path d="M1291.46 26.3335C1293.67 26.3335 1295.46 24.5426 1295.46 22.3335C1295.46 20.1244 1293.67 18.3335 1291.46 18.3335C1289.25 18.3335 1287.46 20.1244 1287.46 22.3335C1287.46 24.5426 1289.25 26.3335 1291.46 26.3335Z" fill="white" stroke="#27D4FF" stroke-miterlimit="10"/>
<path d="M1365.25 22.3335C1367.46 22.3335 1369.25 20.5426 1369.25 18.3335C1369.25 16.1244 1367.46 14.3335 1365.25 14.3335C1363.04 14.3335 1361.25 16.1244 1361.25 18.3335C1361.25 20.5426 1363.04 22.3335 1365.25 22.3335Z" fill="white" stroke="#27D4FF" stroke-miterlimit="10"/>
<path d="M1439.04 22.3335C1441.25 22.3335 1443.04 20.5426 1443.04 18.3335C1443.04 16.1244 1441.25 14.3335 1439.04 14.3335C1436.83 14.3335 1435.04 16.1244 1435.04 18.3335C1435.04 20.5426 1436.83 22.3335 1439.04 22.3335Z" fill="white" stroke="#27D4FF" stroke-miterlimit="10"/>
<path d="M1512.83 24.3335C1515.04 24.3335 1516.83 22.5426 1516.83 20.3335C1516.83 18.1244 1515.04 16.3335 1512.83 16.3335C1510.62 16.3335 1508.83 18.1244 1508.83 20.3335C1508.83 22.5426 1510.62 24.3335 1512.83 24.3335Z" fill="white" stroke="#27D4FF" stroke-miterlimit="10"/>
<path d="M1586.62 26.3335C1588.83 26.3335 1590.62 24.5426 1590.62 22.3335C1590.62 20.1244 1588.83 18.3335 1586.62 18.3335C1584.42 18.3335 1582.62 20.1244 1582.62 22.3335C1582.62 24.5426 1584.42 26.3335 1586.62 26.3335Z" fill="white" stroke="#27D4FF" stroke-miterlimit="10"/>
<path d="M1660.42 22.3335C1662.63 22.3335 1664.42 20.5426 1664.42 18.3335C1664.42 16.1244 1662.63 14.3335 1660.42 14.3335C1658.21 14.3335 1656.42 16.1244 1656.42 18.3335C1656.42 20.5426 1658.21 22.3335 1660.42 22.3335Z" fill="white" stroke="#27D4FF" stroke-miterlimit="10"/>
<path d="M1734.21 24.3335C1736.42 24.3335 1738.21 22.5426 1738.21 20.3335C1738.21 18.1244 1736.42 16.3335 1734.21 16.3335C1732 16.3335 1730.21 18.1244 1730.21 20.3335C1730.21 22.5426 1732 24.3335 1734.21 24.3335Z" fill="white" stroke="#27D4FF" stroke-miterlimit="10"/>
<path d="M1808 26.3335C1810.21 26.3335 1812 24.5426 1812 22.3335C1812 20.1244 1810.21 18.3335 1808 18.3335C1805.79 18.3335 1804 20.1244 1804 22.3335C1804 24.5426 1805.79 26.3335 1808 26.3335Z" fill="white" stroke="#27D4FF" stroke-miterlimit="10"/>
<path d="M37 35.6665C39.2091 35.6665 41 33.8756 41 31.6665C41 29.4574 39.2091 27.6665 37 27.6665C34.7909 27.6665 33 29.4574 33 31.6665C33 33.8756 34.7909 35.6665 37 35.6665Z" fill="white" stroke="#0077FF" stroke-miterlimit="10"/>
<path d="M110.792 37.6665C113.001 37.6665 114.792 35.8756 114.792 33.6665C114.792 31.4574 113.001 29.6665 110.792 29.6665C108.583 29.6665 106.792 31.4574 106.792 33.6665C106.792 35.8756 108.583 37.6665 110.792 37.6665Z" fill="white" stroke="#0077FF" stroke-miterlimit="10"/>
<path d="M184.583 35.6665C186.792 35.6665 188.583 33.8756 188.583 31.6665C188.583 29.4574 186.792 27.6665 184.583 27.6665C182.374 27.6665 180.583 29.4574 180.583 31.6665C180.583 33.8756 182.374 35.6665 184.583 35.6665Z" fill="white" stroke="#0077FF" stroke-miterlimit="10"/>
<path d="M258.375 39.6665C260.584 39.6665 262.375 37.8756 262.375 35.6665C262.375 33.4574 260.584 31.6665 258.375 31.6665C256.166 31.6665 254.375 33.4574 254.375 35.6665C254.375 37.8756 256.166 39.6665 258.375 39.6665Z" fill="white" stroke="#0077FF" stroke-miterlimit="10"/>
<path d="M332.167 37.6665C334.376 37.6665 336.167 35.8756 336.167 33.6665C336.167 31.4574 334.376 29.6665 332.167 29.6665C329.958 29.6665 328.167 31.4574 328.167 33.6665C328.167 35.8756 329.958 37.6665 332.167 37.6665Z" fill="white" stroke="#0077FF" stroke-miterlimit="10"/>
<path d="M405.958 39.6665C408.167 39.6665 409.958 37.8756 409.958 35.6665C409.958 33.4574 408.167 31.6665 405.958 31.6665C403.749 31.6665 401.958 33.4574 401.958 35.6665C401.958 37.8756 403.749 39.6665 405.958 39.6665Z" fill="white" stroke="#0077FF" stroke-miterlimit="10"/>
<path d="M479.75 37.6665C481.959 37.6665 483.75 35.8756 483.75 33.6665C483.75 31.4574 481.959 29.6665 479.75 29.6665C477.541 29.6665 475.75 31.4574 475.75 33.6665C475.75 35.8756 477.541 37.6665 479.75 37.6665Z" fill="white" stroke="#0077FF" stroke-miterlimit="10"/>
<path d="M553.542 35.6665C555.751 35.6665 557.542 33.8756 557.542 31.6665C557.542 29.4574 555.751 27.6665 553.542 27.6665C551.333 27.6665 549.542 29.4574 549.542 31.6665C549.542 33.8756 551.333 35.6665 553.542 35.6665Z" fill="white" stroke="#0077FF" stroke-miterlimit="10"/>
<path d="M627.333 35.6665C629.542 35.6665 631.333 33.8756 631.333 31.6665C631.333 29.4574 629.542 27.6665 627.333 27.6665C625.124 27.6665 623.333 29.4574 623.333 31.6665C623.333 33.8756 625.124 35.6665 627.333 35.6665Z" fill="white" stroke="#0077FF" stroke-miterlimit="10"/>
<path d="M701.125 39.6665C703.334 39.6665 705.125 37.8756 705.125 35.6665C705.125 33.4574 703.334 31.6665 701.125 31.6665C698.916 31.6665 697.125 33.4574 697.125 35.6665C697.125 37.8756 698.916 39.6665 701.125 39.6665Z" fill="white" stroke="#0077FF" stroke-miterlimit="10"/>
<path d="M774.917 37.6665C777.126 37.6665 778.917 35.8756 778.917 33.6665C778.917 31.4574 777.126 29.6665 774.917 29.6665C772.708 29.6665 770.917 31.4574 770.917 33.6665C770.917 35.8756 772.708 37.6665 774.917 37.6665Z" fill="white" stroke="#0077FF" stroke-miterlimit="10"/>
<path d="M848.708 39.6665C850.917 39.6665 852.708 37.8756 852.708 35.6665C852.708 33.4574 850.917 31.6665 848.708 31.6665C846.499 31.6665 844.708 33.4574 844.708 35.6665C844.708 37.8756 846.499 39.6665 848.708 39.6665Z" fill="white" stroke="#0077FF" stroke-miterlimit="10"/>
<path d="M922.5 35.6665C924.709 35.6665 926.5 33.8756 926.5 31.6665C926.5 29.4574 924.709 27.6665 922.5 27.6665C920.291 27.6665 918.5 29.4574 918.5 31.6665C918.5 33.8756 920.291 35.6665 922.5 35.6665Z" fill="white" stroke="#0077FF" stroke-miterlimit="10"/>
<path d="M996.292 37.6665C998.501 37.6665 1000.29 35.8756 1000.29 33.6665C1000.29 31.4574 998.501 29.6665 996.292 29.6665C994.083 29.6665 992.292 31.4574 992.292 33.6665C992.292 35.8756 994.083 37.6665 996.292 37.6665Z" fill="white" stroke="#0077FF" stroke-miterlimit="10"/>
<path d="M1070.08 39.6665C1072.29 39.6665 1074.08 37.8756 1074.08 35.6665C1074.08 33.4574 1072.29 31.6665 1070.08 31.6665C1067.87 31.6665 1066.08 33.4574 1066.08 35.6665C1066.08 37.8756 1067.87 39.6665 1070.08 39.6665Z" fill="white" stroke="#0077FF" stroke-miterlimit="10"/>
<path d="M1143.88 35.6665C1146.08 35.6665 1147.88 33.8756 1147.88 31.6665C1147.88 29.4574 1146.08 27.6665 1143.88 27.6665C1141.67 27.6665 1139.88 29.4574 1139.88 31.6665C1139.88 33.8756 1141.67 35.6665 1143.88 35.6665Z" fill="white" stroke="#0077FF" stroke-miterlimit="10"/>
<path d="M1217.67 37.6665C1219.88 37.6665 1221.67 35.8756 1221.67 33.6665C1221.67 31.4574 1219.88 29.6665 1217.67 29.6665C1215.46 29.6665 1213.67 31.4574 1213.67 33.6665C1213.67 35.8756 1215.46 37.6665 1217.67 37.6665Z" fill="white" stroke="#0077FF" stroke-miterlimit="10"/>
<path d="M1291.46 39.6665C1293.67 39.6665 1295.46 37.8756 1295.46 35.6665C1295.46 33.4574 1293.67 31.6665 1291.46 31.6665C1289.25 31.6665 1287.46 33.4574 1287.46 35.6665C1287.46 37.8756 1289.25 39.6665 1291.46 39.6665Z" fill="white" stroke="#0077FF" stroke-miterlimit="10"/>
<path d="M1365.25 35.6665C1367.46 35.6665 1369.25 33.8756 1369.25 31.6665C1369.25 29.4574 1367.46 27.6665 1365.25 27.6665C1363.04 27.6665 1361.25 29.4574 1361.25 31.6665C1361.25 33.8756 1363.04 35.6665 1365.25 35.6665Z" fill="white" stroke="#0077FF" stroke-miterlimit="10"/>
<path d="M1439.04 35.6665C1441.25 35.6665 1443.04 33.8756 1443.04 31.6665C1443.04 29.4574 1441.25 27.6665 1439.04 27.6665C1436.83 27.6665 1435.04 29.4574 1435.04 31.6665C1435.04 33.8756 1436.83 35.6665 1439.04 35.6665Z" fill="white" stroke="#0077FF" stroke-miterlimit="10"/>
<path d="M1512.83 37.6665C1515.04 37.6665 1516.83 35.8756 1516.83 33.6665C1516.83 31.4574 1515.04 29.6665 1512.83 29.6665C1510.62 29.6665 1508.83 31.4574 1508.83 33.6665C1508.83 35.8756 1510.62 37.6665 1512.83 37.6665Z" fill="white" stroke="#0077FF" stroke-miterlimit="10"/>
<path d="M1586.62 39.6665C1588.83 39.6665 1590.62 37.8756 1590.62 35.6665C1590.62 33.4574 1588.83 31.6665 1586.62 31.6665C1584.42 31.6665 1582.62 33.4574 1582.62 35.6665C1582.62 37.8756 1584.42 39.6665 1586.62 39.6665Z" fill="white" stroke="#0077FF" stroke-miterlimit="10"/>
<path d="M1660.42 35.6665C1662.63 35.6665 1664.42 33.8756 1664.42 31.6665C1664.42 29.4574 1662.63 27.6665 1660.42 27.6665C1658.21 27.6665 1656.42 29.4574 1656.42 31.6665C1656.42 33.8756 1658.21 35.6665 1660.42 35.6665Z" fill="white" stroke="#0077FF" stroke-miterlimit="10"/>
<path d="M1734.21 37.6665C1736.42 37.6665 1738.21 35.8756 1738.21 33.6665C1738.21 31.4574 1736.42 29.6665 1734.21 29.6665C1732 29.6665 1730.21 31.4574 1730.21 33.6665C1730.21 35.8756 1732 37.6665 1734.21 37.6665Z" fill="white" stroke="#0077FF" stroke-miterlimit="10"/>
<path d="M1808 39.6665C1810.21 39.6665 1812 37.8756 1812 35.6665C1812 33.4574 1810.21 31.6665 1808 31.6665C1805.79 31.6665 1804 33.4574 1804 35.6665C1804 37.8756 1805.79 39.6665 1808 39.6665Z" fill="white" stroke="#0077FF" stroke-miterlimit="10"/>
<path d="M37 49C39.2091 49 41 47.2091 41 45C41 42.7909 39.2091 41 37 41C34.7909 41 33 42.7909 33 45C33 47.2091 34.7909 49 37 49Z" fill="white" stroke="#0E44E6" stroke-miterlimit="10"/>
<path d="M110.792 51C113.001 51 114.792 49.2091 114.792 47C114.792 44.7909 113.001 43 110.792 43C108.583 43 106.792 44.7909 106.792 47C106.792 49.2091 108.583 51 110.792 51Z" fill="white" stroke="#0E44E6" stroke-miterlimit="10"/>
<path d="M184.583 53C186.792 53 188.583 51.2091 188.583 49C188.583 46.7909 186.792 45 184.583 45C182.374 45 180.583 46.7909 180.583 49C180.583 51.2091 182.374 53 184.583 53Z" fill="white" stroke="#0E44E6" stroke-miterlimit="10"/>
<path d="M258.375 49C260.584 49 262.375 47.2091 262.375 45C262.375 42.7909 260.584 41 258.375 41C256.166 41 254.375 42.7909 254.375 45C254.375 47.2091 256.166 49 258.375 49Z" fill="white" stroke="#0E44E6" stroke-miterlimit="10"/>
<path d="M332.167 51C334.376 51 336.167 49.2091 336.167 47C336.167 44.7909 334.376 43 332.167 43C329.958 43 328.167 44.7909 328.167 47C328.167 49.2091 329.958 51 332.167 51Z" fill="white" stroke="#0E44E6" stroke-miterlimit="10"/>
<path d="M405.958 53C408.167 53 409.958 51.2091 409.958 49C409.958 46.7909 408.167 45 405.958 45C403.749 45 401.958 46.7909 401.958 49C401.958 51.2091 403.749 53 405.958 53Z" fill="white" stroke="#0E44E6" stroke-miterlimit="10"/>
<path d="M479.75 49C481.959 49 483.75 47.2091 483.75 45C483.75 42.7909 481.959 41 479.75 41C477.541 41 475.75 42.7909 475.75 45C475.75 47.2091 477.541 49 479.75 49Z" fill="white" stroke="#0E44E6" stroke-miterlimit="10"/>
<path d="M553.542 51C555.751 51 557.542 49.2091 557.542 47C557.542 44.7909 555.751 43 553.542 43C551.333 43 549.542 44.7909 549.542 47C549.542 49.2091 551.333 51 553.542 51Z" fill="white" stroke="#0E44E6" stroke-miterlimit="10"/>
<path d="M627.333 53C629.542 53 631.333 51.2091 631.333 49C631.333 46.7909 629.542 45 627.333 45C625.124 45 623.333 46.7909 623.333 49C623.333 51.2091 625.124 53 627.333 53Z" fill="white" stroke="#0E44E6" stroke-miterlimit="10"/>
<path d="M701.125 49C703.334 49 705.125 47.2091 705.125 45C705.125 42.7909 703.334 41 701.125 41C698.916 41 697.125 42.7909 697.125 45C697.125 47.2091 698.916 49 701.125 49Z" fill="white" stroke="#0E44E6" stroke-miterlimit="10"/>
<path d="M774.917 51C777.126 51 778.917 49.2091 778.917 47C778.917 44.7909 777.126 43 774.917 43C772.708 43 770.917 44.7909 770.917 47C770.917 49.2091 772.708 51 774.917 51Z" fill="white" stroke="#0E44E6" stroke-miterlimit="10"/>
<path d="M848.708 53C850.917 53 852.708 51.2091 852.708 49C852.708 46.7909 850.917 45 848.708 45C846.499 45 844.708 46.7909 844.708 49C844.708 51.2091 846.499 53 848.708 53Z" fill="white" stroke="#0E44E6" stroke-miterlimit="10"/>
<path d="M922.5 49C924.709 49 926.5 47.2091 926.5 45C926.5 42.7909 924.709 41 922.5 41C920.291 41 918.5 42.7909 918.5 45C918.5 47.2091 920.291 49 922.5 49Z" fill="white" stroke="#0E44E6" stroke-miterlimit="10"/>
<path d="M996.292 51C998.501 51 1000.29 49.2091 1000.29 47C1000.29 44.7909 998.501 43 996.292 43C994.083 43 992.292 44.7909 992.292 47C992.292 49.2091 994.083 51 996.292 51Z" fill="white" stroke="#0E44E6" stroke-miterlimit="10"/>
<path d="M1070.08 53C1072.29 53 1074.08 51.2091 1074.08 49C1074.08 46.7909 1072.29 45 1070.08 45C1067.87 45 1066.08 46.7909 1066.08 49C1066.08 51.2091 1067.87 53 1070.08 53Z" fill="white" stroke="#0E44E6" stroke-miterlimit="10"/>
<path d="M1143.88 49C1146.08 49 1147.88 47.2091 1147.88 45C1147.88 42.7909 1146.08 41 1143.88 41C1141.67 41 1139.88 42.7909 1139.88 45C1139.88 47.2091 1141.67 49 1143.88 49Z" fill="white" stroke="#0E44E6" stroke-miterlimit="10"/>
<path d="M1217.67 51C1219.88 51 1221.67 49.2091 1221.67 47C1221.67 44.7909 1219.88 43 1217.67 43C1215.46 43 1213.67 44.7909 1213.67 47C1213.67 49.2091 1215.46 51 1217.67 51Z" fill="white" stroke="#0E44E6" stroke-miterlimit="10"/>
<path d="M1291.46 53C1293.67 53 1295.46 51.2091 1295.46 49C1295.46 46.7909 1293.67 45 1291.46 45C1289.25 45 1287.46 46.7909 1287.46 49C1287.46 51.2091 1289.25 53 1291.46 53Z" fill="white" stroke="#0E44E6" stroke-miterlimit="10"/>
<path d="M1365.25 49C1367.46 49 1369.25 47.2091 1369.25 45C1369.25 42.7909 1367.46 41 1365.25 41C1363.04 41 1361.25 42.7909 1361.25 45C1361.25 47.2091 1363.04 49 1365.25 49Z" fill="white" stroke="#0E44E6" stroke-miterlimit="10"/>
<path d="M1439.04 49C1441.25 49 1443.04 47.2091 1443.04 45C1443.04 42.7909 1441.25 41 1439.04 41C1436.83 41 1435.04 42.7909 1435.04 45C1435.04 47.2091 1436.83 49 1439.04 49Z" fill="white" stroke="#0E44E6" stroke-miterlimit="10"/>
<path d="M1512.83 51C1515.04 51 1516.83 49.2091 1516.83 47C1516.83 44.7909 1515.04 43 1512.83 43C1510.62 43 1508.83 44.7909 1508.83 47C1508.83 49.2091 1510.62 51 1512.83 51Z" fill="white" stroke="#0E44E6" stroke-miterlimit="10"/>
<path d="M1586.62 53C1588.83 53 1590.62 51.2091 1590.62 49C1590.62 46.7909 1588.83 45 1586.62 45C1584.42 45 1582.62 46.7909 1582.62 49C1582.62 51.2091 1584.42 53 1586.62 53Z" fill="white" stroke="#0E44E6" stroke-miterlimit="10"/>
<path d="M1660.42 49C1662.63 49 1664.42 47.2091 1664.42 45C1664.42 42.7909 1662.63 41 1660.42 41C1658.21 41 1656.42 42.7909 1656.42 45C1656.42 47.2091 1658.21 49 1660.42 49Z" fill="white" stroke="#0E44E6" stroke-miterlimit="10"/>
<path d="M1734.21 51C1736.42 51 1738.21 49.2091 1738.21 47C1738.21 44.7909 1736.42 43 1734.21 43C1732 43 1730.21 44.7909 1730.21 47C1730.21 49.2091 1732 51 1734.21 51Z" fill="white" stroke="#0E44E6" stroke-miterlimit="10"/>
<path d="M1808 53C1810.21 53 1812 51.2091 1812 49C1812 46.7909 1810.21 45 1808 45C1805.79 45 1804 46.7909 1804 49C1804 51.2091 1805.79 53 1808 53Z" fill="white" stroke="#0E44E6" stroke-miterlimit="10"/>
<path d="M37 62.3335C39.2091 62.3335 41 60.5426 41 58.3335C41 56.1244 39.2091 54.3335 37 54.3335C34.7909 54.3335 33 56.1244 33 58.3335C33 60.5426 34.7909 62.3335 37 62.3335Z" fill="white" stroke="#6E3DFF" stroke-miterlimit="10"/>
<path d="M110.792 64.3335C113.001 64.3335 114.792 62.5426 114.792 60.3335C114.792 58.1244 113.001 56.3335 110.792 56.3335C108.583 56.3335 106.792 58.1244 106.792 60.3335C106.792 62.5426 108.583 64.3335 110.792 64.3335Z" fill="white" stroke="#6E3DFF" stroke-miterlimit="10"/>
<path d="M184.583 62.3335C186.792 62.3335 188.583 60.5426 188.583 58.3335C188.583 56.1244 186.792 54.3335 184.583 54.3335C182.374 54.3335 180.583 56.1244 180.583 58.3335C180.583 60.5426 182.374 62.3335 184.583 62.3335Z" fill="white" stroke="#6E3DFF" stroke-miterlimit="10"/>
<path d="M258.375 66.3335C260.584 66.3335 262.375 64.5426 262.375 62.3335C262.375 60.1244 260.584 58.3335 258.375 58.3335C256.166 58.3335 254.375 60.1244 254.375 62.3335C254.375 64.5426 256.166 66.3335 258.375 66.3335Z" fill="white" stroke="#6E3DFF" stroke-miterlimit="10"/>
<path d="M332.167 64.3335C334.376 64.3335 336.167 62.5426 336.167 60.3335C336.167 58.1244 334.376 56.3335 332.167 56.3335C329.958 56.3335 328.167 58.1244 328.167 60.3335C328.167 62.5426 329.958 64.3335 332.167 64.3335Z" fill="white" stroke="#6E3DFF" stroke-miterlimit="10"/>
<path d="M405.958 66.3335C408.167 66.3335 409.958 64.5426 409.958 62.3335C409.958 60.1244 408.167 58.3335 405.958 58.3335C403.749 58.3335 401.958 60.1244 401.958 62.3335C401.958 64.5426 403.749 66.3335 405.958 66.3335Z" fill="white" stroke="#6E3DFF" stroke-miterlimit="10"/>
<path d="M479.75 64.3335C481.959 64.3335 483.75 62.5426 483.75 60.3335C483.75 58.1244 481.959 56.3335 479.75 56.3335C477.541 56.3335 475.75 58.1244 475.75 60.3335C475.75 62.5426 477.541 64.3335 479.75 64.3335Z" fill="white" stroke="#6E3DFF" stroke-miterlimit="10"/>
<path d="M553.542 62.3335C555.751 62.3335 557.542 60.5426 557.542 58.3335C557.542 56.1244 555.751 54.3335 553.542 54.3335C551.333 54.3335 549.542 56.1244 549.542 58.3335C549.542 60.5426 551.333 62.3335 553.542 62.3335Z" fill="white" stroke="#6E3DFF" stroke-miterlimit="10"/>
<path d="M627.333 62.3335C629.542 62.3335 631.333 60.5426 631.333 58.3335C631.333 56.1244 629.542 54.3335 627.333 54.3335C625.124 54.3335 623.333 56.1244 623.333 58.3335C623.333 60.5426 625.124 62.3335 627.333 62.3335Z" fill="white" stroke="#6E3DFF" stroke-miterlimit="10"/>
<path d="M701.125 66.3335C703.334 66.3335 705.125 64.5426 705.125 62.3335C705.125 60.1244 703.334 58.3335 701.125 58.3335C698.916 58.3335 697.125 60.1244 697.125 62.3335C697.125 64.5426 698.916 66.3335 701.125 66.3335Z" fill="white" stroke="#6E3DFF" stroke-miterlimit="10"/>
<path d="M774.917 64.3335C777.126 64.3335 778.917 62.5426 778.917 60.3335C778.917 58.1244 777.126 56.3335 774.917 56.3335C772.708 56.3335 770.917 58.1244 770.917 60.3335C770.917 62.5426 772.708 64.3335 774.917 64.3335Z" fill="white" stroke="#6E3DFF" stroke-miterlimit="10"/>
<path d="M848.708 66.3335C850.917 66.3335 852.708 64.5426 852.708 62.3335C852.708 60.1244 850.917 58.3335 848.708 58.3335C846.499 58.3335 844.708 60.1244 844.708 62.3335C844.708 64.5426 846.499 66.3335 848.708 66.3335Z" fill="white" stroke="#6E3DFF" stroke-miterlimit="10"/>
<path d="M922.5 62.3335C924.709 62.3335 926.5 60.5426 926.5 58.3335C926.5 56.1244 924.709 54.3335 922.5 54.3335C920.291 54.3335 918.5 56.1244 918.5 58.3335C918.5 60.5426 920.291 62.3335 922.5 62.3335Z" fill="white" stroke="#6E3DFF" stroke-miterlimit="10"/>
<path d="M996.292 64.3335C998.501 64.3335 1000.29 62.5426 1000.29 60.3335C1000.29 58.1244 998.501 56.3335 996.292 56.3335C994.083 56.3335 992.292 58.1244 992.292 60.3335C992.292 62.5426 994.083 64.3335 996.292 64.3335Z" fill="white" stroke="#6E3DFF" stroke-miterlimit="10"/>
<path d="M1070.08 66.3335C1072.29 66.3335 1074.08 64.5426 1074.08 62.3335C1074.08 60.1244 1072.29 58.3335 1070.08 58.3335C1067.87 58.3335 1066.08 60.1244 1066.08 62.3335C1066.08 64.5426 1067.87 66.3335 1070.08 66.3335Z" fill="white" stroke="#6E3DFF" stroke-miterlimit="10"/>
<path d="M1143.88 62.3335C1146.08 62.3335 1147.88 60.5426 1147.88 58.3335C1147.88 56.1244 1146.08 54.3335 1143.88 54.3335C1141.67 54.3335 1139.88 56.1244 1139.88 58.3335C1139.88 60.5426 1141.67 62.3335 1143.88 62.3335Z" fill="white" stroke="#6E3DFF" stroke-miterlimit="10"/>
<path d="M1217.67 64.3335C1219.88 64.3335 1221.67 62.5426 1221.67 60.3335C1221.67 58.1244 1219.88 56.3335 1217.67 56.3335C1215.46 56.3335 1213.67 58.1244 1213.67 60.3335C1213.67 62.5426 1215.46 64.3335 1217.67 64.3335Z" fill="white" stroke="#6E3DFF" stroke-miterlimit="10"/>
<path d="M1291.46 66.3335C1293.67 66.3335 1295.46 64.5426 1295.46 62.3335C1295.46 60.1244 1293.67 58.3335 1291.46 58.3335C1289.25 58.3335 1287.46 60.1244 1287.46 62.3335C1287.46 64.5426 1289.25 66.3335 1291.46 66.3335Z" fill="white" stroke="#6E3DFF" stroke-miterlimit="10"/>
<path d="M1365.25 62.3335C1367.46 62.3335 1369.25 60.5426 1369.25 58.3335C1369.25 56.1244 1367.46 54.3335 1365.25 54.3335C1363.04 54.3335 1361.25 56.1244 1361.25 58.3335C1361.25 60.5426 1363.04 62.3335 1365.25 62.3335Z" fill="white" stroke="#6E3DFF" stroke-miterlimit="10"/>
<path d="M1439.04 62.3335C1441.25 62.3335 1443.04 60.5426 1443.04 58.3335C1443.04 56.1244 1441.25 54.3335 1439.04 54.3335C1436.83 54.3335 1435.04 56.1244 1435.04 58.3335C1435.04 60.5426 1436.83 62.3335 1439.04 62.3335Z" fill="white" stroke="#6E3DFF" stroke-miterlimit="10"/>
<path d="M1512.83 64.3335C1515.04 64.3335 1516.83 62.5426 1516.83 60.3335C1516.83 58.1244 1515.04 56.3335 1512.83 56.3335C1510.62 56.3335 1508.83 58.1244 1508.83 60.3335C1508.83 62.5426 1510.62 64.3335 1512.83 64.3335Z" fill="white" stroke="#6E3DFF" stroke-miterlimit="10"/>
<path d="M1586.62 66.3335C1588.83 66.3335 1590.62 64.5426 1590.62 62.3335C1590.62 60.1244 1588.83 58.3335 1586.62 58.3335C1584.42 58.3335 1582.62 60.1244 1582.62 62.3335C1582.62 64.5426 1584.42 66.3335 1586.62 66.3335Z" fill="white" stroke="#6E3DFF" stroke-miterlimit="10"/>
<path d="M1660.42 62.3335C1662.63 62.3335 1664.42 60.5426 1664.42 58.3335C1664.42 56.1244 1662.63 54.3335 1660.42 54.3335C1658.21 54.3335 1656.42 56.1244 1656.42 58.3335C1656.42 60.5426 1658.21 62.3335 1660.42 62.3335Z" fill="white" stroke="#6E3DFF" stroke-miterlimit="10"/>
<path d="M1734.21 64.3335C1736.42 64.3335 1738.21 62.5426 1738.21 60.3335C1738.21 58.1244 1736.42 56.3335 1734.21 56.3335C1732 56.3335 1730.21 58.1244 1730.21 60.3335C1730.21 62.5426 1732 64.3335 1734.21 64.3335Z" fill="white" stroke="#6E3DFF" stroke-miterlimit="10"/>
<path d="M1808 66.3335C1810.21 66.3335 1812 64.5426 1812 62.3335C1812 60.1244 1810.21 58.3335 1808 58.3335C1805.79 58.3335 1804 60.1244 1804 62.3335C1804 64.5426 1805.79 66.3335 1808 66.3335Z" fill="white" stroke="#6E3DFF" stroke-miterlimit="10"/>
<path d="M37 75.6665C39.2091 75.6665 41 73.8756 41 71.6665C41 69.4574 39.2091 67.6665 37 67.6665C34.7909 67.6665 33 69.4574 33 71.6665C33 73.8756 34.7909 75.6665 37 75.6665Z" fill="white" stroke="#8972FF" stroke-miterlimit="10"/>
<path d="M110.792 77.6665C113.001 77.6665 114.792 75.8756 114.792 73.6665C114.792 71.4574 113.001 69.6665 110.792 69.6665C108.583 69.6665 106.792 71.4574 106.792 73.6665C106.792 75.8756 108.583 77.6665 110.792 77.6665Z" fill="white" stroke="#8972FF" stroke-miterlimit="10"/>
<path d="M184.583 79.6665C186.792 79.6665 188.583 77.8756 188.583 75.6665C188.583 73.4574 186.792 71.6665 184.583 71.6665C182.374 71.6665 180.583 73.4574 180.583 75.6665C180.583 77.8756 182.374 79.6665 184.583 79.6665Z" fill="white" stroke="#8972FF" stroke-miterlimit="10"/>
<path d="M258.375 75.6665C260.584 75.6665 262.375 73.8756 262.375 71.6665C262.375 69.4574 260.584 67.6665 258.375 67.6665C256.166 67.6665 254.375 69.4574 254.375 71.6665C254.375 73.8756 256.166 75.6665 258.375 75.6665Z" fill="white" stroke="#8972FF" stroke-miterlimit="10"/>
<path d="M332.167 77.6665C334.376 77.6665 336.167 75.8756 336.167 73.6665C336.167 71.4574 334.376 69.6665 332.167 69.6665C329.958 69.6665 328.167 71.4574 328.167 73.6665C328.167 75.8756 329.958 77.6665 332.167 77.6665Z" fill="white" stroke="#8972FF" stroke-miterlimit="10"/>
<path d="M405.958 75.6665C408.167 75.6665 409.958 73.8756 409.958 71.6665C409.958 69.4574 408.167 67.6665 405.958 67.6665C403.749 67.6665 401.958 69.4574 401.958 71.6665C401.958 73.8756 403.749 75.6665 405.958 75.6665Z" fill="white" stroke="#8972FF" stroke-miterlimit="10"/>
<path d="M479.75 79.6665C481.959 79.6665 483.75 77.8756 483.75 75.6665C483.75 73.4574 481.959 71.6665 479.75 71.6665C477.541 71.6665 475.75 73.4574 475.75 75.6665C475.75 77.8756 477.541 79.6665 479.75 79.6665Z" fill="white" stroke="#8972FF" stroke-miterlimit="10"/>
<path d="M553.542 77.6665C555.751 77.6665 557.542 75.8756 557.542 73.6665C557.542 71.4574 555.751 69.6665 553.542 69.6665C551.333 69.6665 549.542 71.4574 549.542 73.6665C549.542 75.8756 551.333 77.6665 553.542 77.6665Z" fill="white" stroke="#8972FF" stroke-miterlimit="10"/>
<path d="M627.333 79.6665C629.542 79.6665 631.333 77.8756 631.333 75.6665C631.333 73.4574 629.542 71.6665 627.333 71.6665C625.124 71.6665 623.333 73.4574 623.333 75.6665C623.333 77.8756 625.124 79.6665 627.333 79.6665Z" fill="white" stroke="#8972FF" stroke-miterlimit="10"/>
<path d="M701.125 79.6665C703.334 79.6665 705.125 77.8756 705.125 75.6665C705.125 73.4574 703.334 71.6665 701.125 71.6665C698.916 71.6665 697.125 73.4574 697.125 75.6665C697.125 77.8756 698.916 79.6665 701.125 79.6665Z" fill="white" stroke="#8972FF" stroke-miterlimit="10"/>
<path d="M774.917 75.6665C777.126 75.6665 778.917 73.8756 778.917 71.6665C778.917 69.4574 777.126 67.6665 774.917 67.6665C772.708 67.6665 770.917 69.4574 770.917 71.6665C770.917 73.8756 772.708 75.6665 774.917 75.6665Z" fill="white" stroke="#8972FF" stroke-miterlimit="10"/>
<path d="M848.708 77.6665C850.917 77.6665 852.708 75.8756 852.708 73.6665C852.708 71.4574 850.917 69.6665 848.708 69.6665C846.499 69.6665 844.708 71.4574 844.708 73.6665C844.708 75.8756 846.499 77.6665 848.708 77.6665Z" fill="white" stroke="#8972FF" stroke-miterlimit="10"/>
<path d="M922.5 75.6665C924.709 75.6665 926.5 73.8756 926.5 71.6665C926.5 69.4574 924.709 67.6665 922.5 67.6665C920.291 67.6665 918.5 69.4574 918.5 71.6665C918.5 73.8756 920.291 75.6665 922.5 75.6665Z" fill="white" stroke="#8972FF" stroke-miterlimit="10"/>
<path d="M996.292 77.6665C998.501 77.6665 1000.29 75.8756 1000.29 73.6665C1000.29 71.4574 998.501 69.6665 996.292 69.6665C994.083 69.6665 992.292 71.4574 992.292 73.6665C992.292 75.8756 994.083 77.6665 996.292 77.6665Z" fill="white" stroke="#8972FF" stroke-miterlimit="10"/>
<path d="M1070.08 79.6665C1072.29 79.6665 1074.08 77.8756 1074.08 75.6665C1074.08 73.4574 1072.29 71.6665 1070.08 71.6665C1067.87 71.6665 1066.08 73.4574 1066.08 75.6665C1066.08 77.8756 1067.87 79.6665 1070.08 79.6665Z" fill="white" stroke="#8972FF" stroke-miterlimit="10"/>
<path d="M1143.88 79.6665C1146.08 79.6665 1147.88 77.8756 1147.88 75.6665C1147.88 73.4574 1146.08 71.6665 1143.88 71.6665C1141.67 71.6665 1139.88 73.4574 1139.88 75.6665C1139.88 77.8756 1141.67 79.6665 1143.88 79.6665Z" fill="white" stroke="#8972FF" stroke-miterlimit="10"/>
<path d="M1217.67 75.6665C1219.88 75.6665 1221.67 73.8756 1221.67 71.6665C1221.67 69.4574 1219.88 67.6665 1217.67 67.6665C1215.46 67.6665 1213.67 69.4574 1213.67 71.6665C1213.67 73.8756 1215.46 75.6665 1217.67 75.6665Z" fill="white" stroke="#8972FF" stroke-miterlimit="10"/>
<path d="M1291.46 77.6665C1293.67 77.6665 1295.46 75.8756 1295.46 73.6665C1295.46 71.4574 1293.67 69.6665 1291.46 69.6665C1289.25 69.6665 1287.46 71.4574 1287.46 73.6665C1287.46 75.8756 1289.25 77.6665 1291.46 77.6665Z" fill="white" stroke="#8972FF" stroke-miterlimit="10"/>
<path d="M1365.25 75.6665C1367.46 75.6665 1369.25 73.8756 1369.25 71.6665C1369.25 69.4574 1367.46 67.6665 1365.25 67.6665C1363.04 67.6665 1361.25 69.4574 1361.25 71.6665C1361.25 73.8756 1363.04 75.6665 1365.25 75.6665Z" fill="white" stroke="#8972FF" stroke-miterlimit="10"/>
<path d="M1439.04 75.6665C1441.25 75.6665 1443.04 73.8756 1443.04 71.6665C1443.04 69.4574 1441.25 67.6665 1439.04 67.6665C1436.83 67.6665 1435.04 69.4574 1435.04 71.6665C1435.04 73.8756 1436.83 75.6665 1439.04 75.6665Z" fill="white" stroke="#8972FF" stroke-miterlimit="10"/>
<path d="M1512.83 77.6665C1515.04 77.6665 1516.83 75.8756 1516.83 73.6665C1516.83 71.4574 1515.04 69.6665 1512.83 69.6665C1510.62 69.6665 1508.83 71.4574 1508.83 73.6665C1508.83 75.8756 1510.62 77.6665 1512.83 77.6665Z" fill="white" stroke="#8972FF" stroke-miterlimit="10"/>
<path d="M1586.62 75.6665C1588.83 75.6665 1590.62 73.8756 1590.62 71.6665C1590.62 69.4574 1588.83 67.6665 1586.62 67.6665C1584.42 67.6665 1582.62 69.4574 1582.62 71.6665C1582.62 73.8756 1584.42 75.6665 1586.62 75.6665Z" fill="white" stroke="#8972FF" stroke-miterlimit="10"/>
<path d="M1660.42 79.6665C1662.63 79.6665 1664.42 77.8756 1664.42 75.6665C1664.42 73.4574 1662.63 71.6665 1660.42 71.6665C1658.21 71.6665 1656.42 73.4574 1656.42 75.6665C1656.42 77.8756 1658.21 79.6665 1660.42 79.6665Z" fill="white" stroke="#8972FF" stroke-miterlimit="10"/>
<path d="M1734.21 79.6665C1736.42 79.6665 1738.21 77.8756 1738.21 75.6665C1738.21 73.4574 1736.42 71.6665 1734.21 71.6665C1732 71.6665 1730.21 73.4574 1730.21 75.6665C1730.21 77.8756 1732 79.6665 1734.21 79.6665Z" fill="white" stroke="#8972FF" stroke-miterlimit="10"/>
<path d="M1808 77.6665C1810.21 77.6665 1812 75.8756 1812 73.6665C1812 71.4574 1810.21 69.6665 1808 69.6665C1805.79 69.6665 1804 71.4574 1804 73.6665C1804 75.8756 1805.79 77.6665 1808 77.6665Z" fill="white" stroke="#8972FF" stroke-miterlimit="10"/>
<path d="M35.7063 99.985C35.7063 100.696 35.6293 101.316 35.4753 101.844C35.3213 102.365 35.1123 102.797 34.8483 103.142C34.5843 103.487 34.2726 103.743 33.9133 103.912C33.5539 104.073 33.1653 104.154 32.7473 104.154C32.3293 104.154 31.9406 104.073 31.5813 103.912C31.2219 103.743 30.9066 103.487 30.6353 103.142C30.3713 102.797 30.1623 102.365 30.0083 101.844C29.8616 101.316 29.7883 100.696 29.7883 99.985C29.7883 99.2663 29.8616 98.6467 30.0083 98.126C30.1623 97.598 30.3713 97.1617 30.6353 96.817C30.9066 96.4723 31.2219 96.2193 31.5813 96.058C31.9406 95.8893 32.3293 95.805 32.7473 95.805C33.1653 95.805 33.5539 95.8893 33.9133 96.058C34.2726 96.2193 34.5843 96.4723 34.8483 96.817C35.1123 97.1617 35.3213 97.598 35.4753 98.126C35.6293 98.6467 35.7063 99.2663 35.7063 99.985ZM34.6943 99.985C34.6943 99.3543 34.6393 98.8263 34.5293 98.401C34.4266 97.9683 34.2836 97.6237 34.1003 97.367C33.9243 97.103 33.7189 96.916 33.4843 96.806C33.2496 96.6887 33.0039 96.63 32.7473 96.63C32.4906 96.63 32.2449 96.6887 32.0103 96.806C31.7756 96.916 31.5703 97.103 31.3943 97.367C31.2183 97.6237 31.0753 97.9683 30.9653 98.401C30.8626 98.8263 30.8113 99.3543 30.8113 99.985C30.8113 100.608 30.8626 101.136 30.9653 101.569C31.0753 101.994 31.2183 102.339 31.3943 102.603C31.5703 102.867 31.7756 103.058 32.0103 103.175C32.2449 103.285 32.4906 103.34 32.7473 103.34C33.0039 103.34 33.2496 103.285 33.4843 103.175C33.7189 103.058 33.9243 102.867 34.1003 102.603C34.2836 102.339 34.4266 101.994 34.5293 101.569C34.6393 101.136 34.6943 100.608 34.6943 99.985ZM42.259 99.985C42.259 100.696 42.182 101.316 42.028 101.844C41.874 102.365 41.665 102.797 41.401 103.142C41.137 103.487 40.8253 103.743 40.466 103.912C40.1067 104.073 39.718 104.154 39.3 104.154C38.882 104.154 38.4933 104.073 38.134 103.912C37.7747 103.743 37.4593 103.487 37.188 103.142C36.924 102.797 36.715 102.365 36.561 101.844C36.4143 101.316 36.341 100.696 36.341 99.985C36.341 99.2663 36.4143 98.6467 36.561 98.126C36.715 97.598 36.924 97.1617 37.188 96.817C37.4593 96.4723 37.7747 96.2193 38.134 96.058C38.4933 95.8893 38.882 95.805 39.3 95.805C39.718 95.805 40.1067 95.8893 40.466 96.058C40.8253 96.2193 41.137 96.4723 41.401 96.817C41.665 97.1617 41.874 97.598 42.028 98.126C42.182 98.6467 42.259 99.2663 42.259 99.985ZM41.247 99.985C41.247 99.3543 41.192 98.8263 41.082 98.401C40.9793 97.9683 40.8363 97.6237 40.653 97.367C40.477 97.103 40.2717 96.916 40.037 96.806C39.8023 96.6887 39.5567 96.63 39.3 96.63C39.0433 96.63 38.7977 96.6887 38.563 96.806C38.3283 96.916 38.123 97.103 37.947 97.367C37.771 97.6237 37.628 97.9683 37.518 98.401C37.4153 98.8263 37.364 99.3543 37.364 99.985C37.364 100.608 37.4153 101.136 37.518 101.569C37.628 101.994 37.771 102.339 37.947 102.603C38.123 102.867 38.3283 103.058 38.563 103.175C38.7977 103.285 39.0433 103.34 39.3 103.34C39.5567 103.34 39.8023 103.285 40.037 103.175C40.2717 103.058 40.477 102.867 40.653 102.603C40.8363 102.339 40.9793 101.994 41.082 101.569C41.192 101.136 41.247 100.608 41.247 99.985Z" fill="black" fill-opacity="0.6"/>
<path d="M109.581 99.985C109.581 100.696 109.504 101.316 109.35 101.844C109.196 102.365 108.987 102.797 108.723 103.142C108.459 103.487 108.148 103.743 107.788 103.912C107.429 104.073 107.04 104.154 106.622 104.154C106.204 104.154 105.816 104.073 105.456 103.912C105.097 103.743 104.782 103.487 104.51 103.142C104.246 102.797 104.037 102.365 103.883 101.844C103.737 101.316 103.663 100.696 103.663 99.985C103.663 99.2663 103.737 98.6467 103.883 98.126C104.037 97.598 104.246 97.1617 104.51 96.817C104.782 96.4723 105.097 96.2193 105.456 96.058C105.816 95.8893 106.204 95.805 106.622 95.805C107.04 95.805 107.429 95.8893 107.788 96.058C108.148 96.2193 108.459 96.4723 108.723 96.817C108.987 97.1617 109.196 97.598 109.35 98.126C109.504 98.6467 109.581 99.2663 109.581 99.985ZM108.569 99.985C108.569 99.3543 108.514 98.8263 108.404 98.401C108.302 97.9683 108.159 97.6237 107.975 97.367C107.799 97.103 107.594 96.916 107.359 96.806C107.125 96.6887 106.879 96.63 106.622 96.63C106.366 96.63 106.12 96.6887 105.885 96.806C105.651 96.916 105.445 97.103 105.269 97.367C105.093 97.6237 104.95 97.9683 104.84 98.401C104.738 98.8263 104.686 99.3543 104.686 99.985C104.686 100.608 104.738 101.136 104.84 101.569C104.95 101.994 105.093 102.339 105.269 102.603C105.445 102.867 105.651 103.058 105.885 103.175C106.12 103.285 106.366 103.34 106.622 103.34C106.879 103.34 107.125 103.285 107.359 103.175C107.594 103.058 107.799 102.867 107.975 102.603C108.159 102.339 108.302 101.994 108.404 101.569C108.514 101.136 108.569 100.608 108.569 99.985ZM115.661 104H111.305V103.186H113.098V97.224C113.098 97.18 113.102 97.1397 113.109 97.103L111.646 98.412L111.107 97.763L113.274 95.893H114.077V103.186H115.661V104Z" fill="black" fill-opacity="0.6"/>
<path d="M183.456 99.985C183.456 100.696 183.379 101.316 183.225 101.844C183.071 102.365 182.862 102.797 182.598 103.142C182.334 103.487 182.023 103.743 181.663 103.912C181.304 104.073 180.915 104.154 180.497 104.154C180.079 104.154 179.691 104.073 179.331 103.912C178.972 103.743 178.657 103.487 178.385 103.142C178.121 102.797 177.912 102.365 177.758 101.844C177.612 101.316 177.538 100.696 177.538 99.985C177.538 99.2663 177.612 98.6467 177.758 98.126C177.912 97.598 178.121 97.1617 178.385 96.817C178.657 96.4723 178.972 96.2193 179.331 96.058C179.691 95.8893 180.079 95.805 180.497 95.805C180.915 95.805 181.304 95.8893 181.663 96.058C182.023 96.2193 182.334 96.4723 182.598 96.817C182.862 97.1617 183.071 97.598 183.225 98.126C183.379 98.6467 183.456 99.2663 183.456 99.985ZM182.444 99.985C182.444 99.3543 182.389 98.8263 182.279 98.401C182.177 97.9683 182.034 97.6237 181.85 97.367C181.674 97.103 181.469 96.916 181.234 96.806C181 96.6887 180.754 96.63 180.497 96.63C180.241 96.63 179.995 96.6887 179.76 96.806C179.526 96.916 179.32 97.103 179.144 97.367C178.968 97.6237 178.825 97.9683 178.715 98.401C178.613 98.8263 178.561 99.3543 178.561 99.985C178.561 100.608 178.613 101.136 178.715 101.569C178.825 101.994 178.968 102.339 179.144 102.603C179.32 102.867 179.526 103.058 179.76 103.175C179.995 103.285 180.241 103.34 180.497 103.34C180.754 103.34 181 103.285 181.234 103.175C181.469 103.058 181.674 102.867 181.85 102.603C182.034 102.339 182.177 101.994 182.279 101.569C182.389 101.136 182.444 100.608 182.444 99.985ZM189.745 104H184.333V103.296L187.116 100.623C187.329 100.396 187.523 100.183 187.699 99.985C187.882 99.7797 188.036 99.5743 188.161 99.369C188.293 99.1637 188.396 98.9583 188.469 98.753C188.542 98.5403 188.579 98.3167 188.579 98.082C188.564 97.598 188.418 97.2423 188.139 97.015C187.86 96.7803 187.512 96.663 187.094 96.663C186.867 96.663 186.654 96.7033 186.456 96.784C186.258 96.8573 186.086 96.9673 185.939 97.114C185.8 97.2533 185.69 97.4183 185.609 97.609C185.528 97.7997 185.488 98.0123 185.488 98.247L184.498 98.082C184.549 97.708 184.652 97.3817 184.806 97.103C184.96 96.817 185.151 96.5787 185.378 96.388C185.613 96.19 185.88 96.0433 186.181 95.948C186.482 95.8453 186.804 95.794 187.149 95.794C187.494 95.794 187.813 95.8453 188.106 95.948C188.407 96.0507 188.667 96.201 188.887 96.399C189.107 96.5897 189.279 96.8243 189.404 97.103C189.529 97.3817 189.591 97.7007 189.591 98.06C189.591 98.3607 189.547 98.6393 189.459 98.896C189.371 99.1527 189.25 99.402 189.096 99.644C188.942 99.8787 188.762 100.11 188.557 100.337C188.352 100.557 188.135 100.781 187.908 101.008L185.653 103.241C185.807 103.197 185.961 103.164 186.115 103.142C186.276 103.12 186.427 103.109 186.566 103.109H189.745V104Z" fill="black" fill-opacity="0.6"/>
<path d="M257.331 99.985C257.331 100.696 257.254 101.316 257.1 101.844C256.946 102.365 256.737 102.797 256.473 103.142C256.209 103.487 255.898 103.743 255.538 103.912C255.179 104.073 254.79 104.154 254.372 104.154C253.954 104.154 253.566 104.073 253.206 103.912C252.847 103.743 252.532 103.487 252.26 103.142C251.996 102.797 251.787 102.365 251.633 101.844C251.487 101.316 251.413 100.696 251.413 99.985C251.413 99.2663 251.487 98.6467 251.633 98.126C251.787 97.598 251.996 97.1617 252.26 96.817C252.532 96.4723 252.847 96.2193 253.206 96.058C253.566 95.8893 253.954 95.805 254.372 95.805C254.79 95.805 255.179 95.8893 255.538 96.058C255.898 96.2193 256.209 96.4723 256.473 96.817C256.737 97.1617 256.946 97.598 257.1 98.126C257.254 98.6467 257.331 99.2663 257.331 99.985ZM256.319 99.985C256.319 99.3543 256.264 98.8263 256.154 98.401C256.052 97.9683 255.909 97.6237 255.725 97.367C255.549 97.103 255.344 96.916 255.109 96.806C254.875 96.6887 254.629 96.63 254.372 96.63C254.116 96.63 253.87 96.6887 253.635 96.806C253.401 96.916 253.195 97.103 253.019 97.367C252.843 97.6237 252.7 97.9683 252.59 98.401C252.488 98.8263 252.436 99.3543 252.436 99.985C252.436 100.608 252.488 101.136 252.59 101.569C252.7 101.994 252.843 102.339 253.019 102.603C253.195 102.867 253.401 103.058 253.635 103.175C253.87 103.285 254.116 103.34 254.372 103.34C254.629 103.34 254.875 103.285 255.109 103.175C255.344 103.058 255.549 102.867 255.725 102.603C255.909 102.339 256.052 101.994 256.154 101.569C256.264 101.136 256.319 100.608 256.319 99.985ZM258.406 98.104C258.457 97.7373 258.56 97.411 258.714 97.125C258.868 96.839 259.059 96.6007 259.286 96.41C259.521 96.212 259.788 96.0617 260.089 95.959C260.39 95.8563 260.712 95.805 261.057 95.805C261.409 95.805 261.728 95.8563 262.014 95.959C262.307 96.0617 262.56 96.2047 262.773 96.388C262.986 96.5713 263.151 96.7913 263.268 97.048C263.385 97.3047 263.444 97.587 263.444 97.895C263.444 98.423 263.316 98.8337 263.059 99.127C262.81 99.413 262.465 99.6293 262.025 99.776C262.553 99.908 262.953 100.139 263.224 100.469C263.495 100.799 263.631 101.217 263.631 101.723C263.631 102.09 263.558 102.423 263.411 102.724C263.272 103.025 263.077 103.281 262.828 103.494C262.586 103.699 262.296 103.861 261.959 103.978C261.629 104.088 261.277 104.143 260.903 104.143C260.47 104.143 260.1 104.088 259.792 103.978C259.491 103.868 259.235 103.718 259.022 103.527C258.809 103.336 258.633 103.113 258.494 102.856C258.362 102.592 258.248 102.313 258.153 102.02L259.055 101.646C259.077 101.763 259.132 101.928 259.22 102.141C259.389 102.493 259.605 102.772 259.869 102.977C260.133 103.175 260.474 103.274 260.892 103.274C261.178 103.274 261.427 103.23 261.64 103.142C261.86 103.047 262.04 102.926 262.179 102.779C262.326 102.632 262.432 102.467 262.498 102.284C262.571 102.101 262.608 101.921 262.608 101.745C262.608 101.525 262.579 101.323 262.52 101.14C262.469 100.957 262.366 100.799 262.212 100.667C262.058 100.535 261.845 100.432 261.574 100.359C261.303 100.278 260.951 100.238 260.518 100.238V99.512C260.87 99.5047 261.167 99.4643 261.409 99.391C261.658 99.3177 261.86 99.2187 262.014 99.094C262.168 98.962 262.278 98.808 262.344 98.632C262.41 98.456 262.443 98.2653 262.443 98.06C262.443 97.598 262.307 97.2533 262.036 97.026C261.772 96.7987 261.427 96.685 261.002 96.685C260.775 96.685 260.562 96.7253 260.364 96.806C260.166 96.8867 259.997 97.0003 259.858 97.147C259.719 97.2863 259.609 97.4513 259.528 97.642C259.447 97.8327 259.407 98.0417 259.407 98.269L258.406 98.104Z" fill="black" fill-opacity="0.6"/>
<path d="M331.206 99.985C331.206 100.696 331.129 101.316 330.975 101.844C330.821 102.365 330.612 102.797 330.348 103.142C330.084 103.487 329.773 103.743 329.413 103.912C329.054 104.073 328.665 104.154 328.247 104.154C327.829 104.154 327.441 104.073 327.081 103.912C326.722 103.743 326.407 103.487 326.135 103.142C325.871 102.797 325.662 102.365 325.508 101.844C325.362 101.316 325.288 100.696 325.288 99.985C325.288 99.2663 325.362 98.6467 325.508 98.126C325.662 97.598 325.871 97.1617 326.135 96.817C326.407 96.4723 326.722 96.2193 327.081 96.058C327.441 95.8893 327.829 95.805 328.247 95.805C328.665 95.805 329.054 95.8893 329.413 96.058C329.773 96.2193 330.084 96.4723 330.348 96.817C330.612 97.1617 330.821 97.598 330.975 98.126C331.129 98.6467 331.206 99.2663 331.206 99.985ZM330.194 99.985C330.194 99.3543 330.139 98.8263 330.029 98.401C329.927 97.9683 329.784 97.6237 329.6 97.367C329.424 97.103 329.219 96.916 328.984 96.806C328.75 96.6887 328.504 96.63 328.247 96.63C327.991 96.63 327.745 96.6887 327.51 96.806C327.276 96.916 327.07 97.103 326.894 97.367C326.718 97.6237 326.575 97.9683 326.465 98.401C326.363 98.8263 326.311 99.3543 326.311 99.985C326.311 100.608 326.363 101.136 326.465 101.569C326.575 101.994 326.718 102.339 326.894 102.603C327.07 102.867 327.276 103.058 327.51 103.175C327.745 103.285 327.991 103.34 328.247 103.34C328.504 103.34 328.75 103.285 328.984 103.175C329.219 103.058 329.424 102.867 329.6 102.603C329.784 102.339 329.927 101.994 330.029 101.569C330.139 101.136 330.194 100.608 330.194 99.985ZM337.88 101.855H336.659V104H335.768V101.855H331.742V101.107L335.713 95.849H336.659V101.063H337.88V101.855ZM335.768 97.697C335.768 97.6017 335.772 97.4953 335.779 97.378C335.786 97.2533 335.797 97.1323 335.812 97.015L332.842 101.063H335.768V97.697Z" fill="black" fill-opacity="0.6"/>
<path d="M405.081 99.985C405.081 100.696 405.004 101.316 404.85 101.844C404.696 102.365 404.487 102.797 404.223 103.142C403.959 103.487 403.648 103.743 403.288 103.912C402.929 104.073 402.54 104.154 402.122 104.154C401.704 104.154 401.316 104.073 400.956 103.912C400.597 103.743 400.282 103.487 400.01 103.142C399.746 102.797 399.537 102.365 399.383 101.844C399.237 101.316 399.163 100.696 399.163 99.985C399.163 99.2663 399.237 98.6467 399.383 98.126C399.537 97.598 399.746 97.1617 400.01 96.817C400.282 96.4723 400.597 96.2193 400.956 96.058C401.316 95.8893 401.704 95.805 402.122 95.805C402.54 95.805 402.929 95.8893 403.288 96.058C403.648 96.2193 403.959 96.4723 404.223 96.817C404.487 97.1617 404.696 97.598 404.85 98.126C405.004 98.6467 405.081 99.2663 405.081 99.985ZM404.069 99.985C404.069 99.3543 404.014 98.8263 403.904 98.401C403.802 97.9683 403.659 97.6237 403.475 97.367C403.299 97.103 403.094 96.916 402.859 96.806C402.625 96.6887 402.379 96.63 402.122 96.63C401.866 96.63 401.62 96.6887 401.385 96.806C401.151 96.916 400.945 97.103 400.769 97.367C400.593 97.6237 400.45 97.9683 400.34 98.401C400.238 98.8263 400.186 99.3543 400.186 99.985C400.186 100.608 400.238 101.136 400.34 101.569C400.45 101.994 400.593 102.339 400.769 102.603C400.945 102.867 401.151 103.058 401.385 103.175C401.62 103.285 401.866 103.34 402.122 103.34C402.379 103.34 402.625 103.285 402.859 103.175C403.094 103.058 403.299 102.867 403.475 102.603C403.659 102.339 403.802 101.994 403.904 101.569C404.014 101.136 404.069 100.608 404.069 99.985ZM407.476 98.94C407.835 98.8447 408.22 98.797 408.631 98.797C409.056 98.797 409.43 98.8593 409.753 98.984C410.083 99.1087 410.358 99.281 410.578 99.501C410.798 99.721 410.963 99.9813 411.073 100.282C411.19 100.583 411.249 100.909 411.249 101.261C411.249 101.686 411.172 102.075 411.018 102.427C410.871 102.779 410.666 103.08 410.402 103.329C410.138 103.571 409.826 103.762 409.467 103.901C409.115 104.033 408.734 104.099 408.323 104.099C407.839 104.099 407.399 104.015 407.003 103.846C406.614 103.67 406.295 103.465 406.046 103.23L406.585 102.493C406.827 102.698 407.102 102.867 407.41 102.999C407.718 103.131 408.037 103.197 408.367 103.197C408.646 103.197 408.902 103.157 409.137 103.076C409.372 102.988 409.573 102.863 409.742 102.702C409.911 102.541 410.043 102.343 410.138 102.108C410.233 101.873 410.281 101.609 410.281 101.316C410.281 100.788 410.12 100.377 409.797 100.084C409.474 99.7907 409.023 99.644 408.444 99.644C408.231 99.644 408.015 99.6697 407.795 99.721C407.582 99.765 407.359 99.8273 407.124 99.908L406.475 99.721L407.135 95.904H410.996V96.828H407.839L407.476 98.94Z" fill="black" fill-opacity="0.6"/>
<path d="M478.956 99.985C478.956 100.696 478.879 101.316 478.725 101.844C478.571 102.365 478.362 102.797 478.098 103.142C477.834 103.487 477.523 103.743 477.163 103.912C476.804 104.073 476.415 104.154 475.997 104.154C475.579 104.154 475.191 104.073 474.831 103.912C474.472 103.743 474.157 103.487 473.885 103.142C473.621 102.797 473.412 102.365 473.258 101.844C473.112 101.316 473.038 100.696 473.038 99.985C473.038 99.2663 473.112 98.6467 473.258 98.126C473.412 97.598 473.621 97.1617 473.885 96.817C474.157 96.4723 474.472 96.2193 474.831 96.058C475.191 95.8893 475.579 95.805 475.997 95.805C476.415 95.805 476.804 95.8893 477.163 96.058C477.523 96.2193 477.834 96.4723 478.098 96.817C478.362 97.1617 478.571 97.598 478.725 98.126C478.879 98.6467 478.956 99.2663 478.956 99.985ZM477.944 99.985C477.944 99.3543 477.889 98.8263 477.779 98.401C477.677 97.9683 477.534 97.6237 477.35 97.367C477.174 97.103 476.969 96.916 476.734 96.806C476.5 96.6887 476.254 96.63 475.997 96.63C475.741 96.63 475.495 96.6887 475.26 96.806C475.026 96.916 474.82 97.103 474.644 97.367C474.468 97.6237 474.325 97.9683 474.215 98.401C474.113 98.8263 474.061 99.3543 474.061 99.985C474.061 100.608 474.113 101.136 474.215 101.569C474.325 101.994 474.468 102.339 474.644 102.603C474.82 102.867 475.026 103.058 475.26 103.175C475.495 103.285 475.741 103.34 475.997 103.34C476.254 103.34 476.5 103.285 476.734 103.175C476.969 103.058 477.174 102.867 477.35 102.603C477.534 102.339 477.677 101.994 477.779 101.569C477.889 101.136 477.944 100.608 477.944 99.985ZM481.901 98.94C481.806 99.072 481.725 99.182 481.659 99.27C481.6 99.358 481.553 99.424 481.516 99.468C481.714 99.336 481.927 99.2333 482.154 99.16C482.381 99.0867 482.631 99.05 482.902 99.05C483.232 99.05 483.544 99.105 483.837 99.215C484.13 99.3177 484.387 99.4753 484.607 99.688C484.827 99.8933 484.999 100.146 485.124 100.447C485.256 100.748 485.322 101.092 485.322 101.481C485.322 101.855 485.252 102.203 485.113 102.526C484.981 102.849 484.79 103.131 484.541 103.373C484.299 103.615 484.006 103.806 483.661 103.945C483.316 104.077 482.939 104.143 482.528 104.143C482.117 104.143 481.743 104.077 481.406 103.945C481.076 103.813 480.794 103.626 480.559 103.384C480.324 103.142 480.141 102.852 480.009 102.515C479.884 102.17 479.822 101.789 479.822 101.371C479.822 101.012 479.899 100.63 480.053 100.227C480.214 99.8163 480.471 99.38 480.823 98.918L483.067 95.893H484.332L481.901 98.94ZM482.506 103.296C482.77 103.296 483.012 103.252 483.232 103.164C483.459 103.076 483.65 102.955 483.804 102.801C483.965 102.647 484.09 102.464 484.178 102.251C484.266 102.038 484.31 101.807 484.31 101.558C484.31 101.294 484.266 101.056 484.178 100.843C484.09 100.623 483.969 100.44 483.815 100.293C483.661 100.146 483.478 100.033 483.265 99.952C483.052 99.8713 482.821 99.831 482.572 99.831C482.301 99.831 482.055 99.8787 481.835 99.974C481.622 100.062 481.439 100.187 481.285 100.348C481.131 100.502 481.01 100.682 480.922 100.887C480.841 101.092 480.801 101.309 480.801 101.536C480.801 102.064 480.948 102.489 481.241 102.812C481.534 103.135 481.956 103.296 482.506 103.296Z" fill="black" fill-opacity="0.6"/>
<path d="M552.831 99.985C552.831 100.696 552.754 101.316 552.6 101.844C552.446 102.365 552.237 102.797 551.973 103.142C551.709 103.487 551.398 103.743 551.038 103.912C550.679 104.073 550.29 104.154 549.872 104.154C549.454 104.154 549.066 104.073 548.706 103.912C548.347 103.743 548.032 103.487 547.76 103.142C547.496 102.797 547.287 102.365 547.133 101.844C546.987 101.316 546.913 100.696 546.913 99.985C546.913 99.2663 546.987 98.6467 547.133 98.126C547.287 97.598 547.496 97.1617 547.76 96.817C548.032 96.4723 548.347 96.2193 548.706 96.058C549.066 95.8893 549.454 95.805 549.872 95.805C550.29 95.805 550.679 95.8893 551.038 96.058C551.398 96.2193 551.709 96.4723 551.973 96.817C552.237 97.1617 552.446 97.598 552.6 98.126C552.754 98.6467 552.831 99.2663 552.831 99.985ZM551.819 99.985C551.819 99.3543 551.764 98.8263 551.654 98.401C551.552 97.9683 551.409 97.6237 551.225 97.367C551.049 97.103 550.844 96.916 550.609 96.806C550.375 96.6887 550.129 96.63 549.872 96.63C549.616 96.63 549.37 96.6887 549.135 96.806C548.901 96.916 548.695 97.103 548.519 97.367C548.343 97.6237 548.2 97.9683 548.09 98.401C547.988 98.8263 547.936 99.3543 547.936 99.985C547.936 100.608 547.988 101.136 548.09 101.569C548.2 101.994 548.343 102.339 548.519 102.603C548.695 102.867 548.901 103.058 549.135 103.175C549.37 103.285 549.616 103.34 549.872 103.34C550.129 103.34 550.375 103.285 550.609 103.175C550.844 103.058 551.049 102.867 551.225 102.603C551.409 102.339 551.552 101.994 551.654 101.569C551.764 101.136 551.819 100.608 551.819 99.985ZM559.186 96.586L555.545 104H554.434L557.723 97.411L558.097 96.795H553.884V95.937H559.186V96.586Z" fill="black" fill-opacity="0.6"/>
<path d="M626.706 99.985C626.706 100.696 626.629 101.316 626.475 101.844C626.321 102.365 626.112 102.797 625.848 103.142C625.584 103.487 625.273 103.743 624.913 103.912C624.554 104.073 624.165 104.154 623.747 104.154C623.329 104.154 622.941 104.073 622.581 103.912C622.222 103.743 621.907 103.487 621.635 103.142C621.371 102.797 621.162 102.365 621.008 101.844C620.862 101.316 620.788 100.696 620.788 99.985C620.788 99.2663 620.862 98.6467 621.008 98.126C621.162 97.598 621.371 97.1617 621.635 96.817C621.907 96.4723 622.222 96.2193 622.581 96.058C622.941 95.8893 623.329 95.805 623.747 95.805C624.165 95.805 624.554 95.8893 624.913 96.058C625.273 96.2193 625.584 96.4723 625.848 96.817C626.112 97.1617 626.321 97.598 626.475 98.126C626.629 98.6467 626.706 99.2663 626.706 99.985ZM625.694 99.985C625.694 99.3543 625.639 98.8263 625.529 98.401C625.427 97.9683 625.284 97.6237 625.1 97.367C624.924 97.103 624.719 96.916 624.484 96.806C624.25 96.6887 624.004 96.63 623.747 96.63C623.491 96.63 623.245 96.6887 623.01 96.806C622.776 96.916 622.57 97.103 622.394 97.367C622.218 97.6237 622.075 97.9683 621.965 98.401C621.863 98.8263 621.811 99.3543 621.811 99.985C621.811 100.608 621.863 101.136 621.965 101.569C622.075 101.994 622.218 102.339 622.394 102.603C622.57 102.867 622.776 103.058 623.01 103.175C623.245 103.285 623.491 103.34 623.747 103.34C624.004 103.34 624.25 103.285 624.484 103.175C624.719 103.058 624.924 102.867 625.1 102.603C625.284 102.339 625.427 101.994 625.529 101.569C625.639 101.136 625.694 100.608 625.694 99.985ZM631.455 99.798C631.968 99.9373 632.361 100.179 632.632 100.524C632.911 100.869 633.05 101.305 633.05 101.833C633.05 102.192 632.98 102.519 632.841 102.812C632.709 103.098 632.518 103.344 632.269 103.549C632.027 103.754 631.737 103.912 631.4 104.022C631.063 104.132 630.689 104.187 630.278 104.187C629.867 104.187 629.49 104.132 629.145 104.022C628.8 103.912 628.503 103.754 628.254 103.549C628.012 103.344 627.821 103.098 627.682 102.812C627.55 102.519 627.484 102.192 627.484 101.833C627.484 101.305 627.623 100.869 627.902 100.524C628.181 100.179 628.573 99.9373 629.079 99.798C628.661 99.6367 628.338 99.3983 628.111 99.083C627.891 98.7603 627.781 98.368 627.781 97.906C627.781 97.6053 627.84 97.3267 627.957 97.07C628.074 96.806 628.239 96.575 628.452 96.377C628.672 96.179 628.936 96.025 629.244 95.915C629.552 95.7977 629.897 95.739 630.278 95.739C630.645 95.739 630.982 95.7977 631.29 95.915C631.598 96.025 631.862 96.179 632.082 96.377C632.302 96.575 632.471 96.806 632.588 97.07C632.713 97.3267 632.775 97.6053 632.775 97.906C632.775 98.8447 632.335 99.4753 631.455 99.798ZM630.278 96.542C630.029 96.542 629.809 96.5787 629.618 96.652C629.427 96.7253 629.27 96.8243 629.145 96.949C629.028 97.0737 628.936 97.224 628.87 97.4C628.811 97.5687 628.782 97.7483 628.782 97.939C628.782 98.1223 628.808 98.302 628.859 98.478C628.91 98.654 628.995 98.8117 629.112 98.951C629.229 99.0903 629.383 99.204 629.574 99.292C629.765 99.3727 629.999 99.413 630.278 99.413C630.549 99.413 630.777 99.3727 630.96 99.292C631.151 99.204 631.305 99.0903 631.422 98.951C631.539 98.8117 631.624 98.654 631.675 98.478C631.726 98.302 631.752 98.1223 631.752 97.939C631.752 97.7483 631.719 97.5687 631.653 97.4C631.594 97.224 631.503 97.0737 631.378 96.949C631.261 96.8243 631.11 96.7253 630.927 96.652C630.744 96.5787 630.527 96.542 630.278 96.542ZM630.278 103.362C630.828 103.362 631.25 103.223 631.543 102.944C631.836 102.658 631.983 102.284 631.983 101.822C631.983 101.536 631.935 101.294 631.84 101.096C631.752 100.891 631.627 100.726 631.466 100.601C631.312 100.469 631.132 100.374 630.927 100.315C630.722 100.249 630.505 100.216 630.278 100.216C630.051 100.216 629.831 100.249 629.618 100.315C629.413 100.374 629.229 100.469 629.068 100.601C628.907 100.726 628.778 100.891 628.683 101.096C628.595 101.294 628.551 101.536 628.551 101.822C628.551 102.284 628.701 102.658 629.002 102.944C629.303 103.223 629.728 103.362 630.278 103.362Z" fill="black" fill-opacity="0.6"/>
<path d="M700.581 99.985C700.581 100.696 700.504 101.316 700.35 101.844C700.196 102.365 699.987 102.797 699.723 103.142C699.459 103.487 699.148 103.743 698.788 103.912C698.429 104.073 698.04 104.154 697.622 104.154C697.204 104.154 696.816 104.073 696.456 103.912C696.097 103.743 695.782 103.487 695.51 103.142C695.246 102.797 695.037 102.365 694.883 101.844C694.737 101.316 694.663 100.696 694.663 99.985C694.663 99.2663 694.737 98.6467 694.883 98.126C695.037 97.598 695.246 97.1617 695.51 96.817C695.782 96.4723 696.097 96.2193 696.456 96.058C696.816 95.8893 697.204 95.805 697.622 95.805C698.04 95.805 698.429 95.8893 698.788 96.058C699.148 96.2193 699.459 96.4723 699.723 96.817C699.987 97.1617 700.196 97.598 700.35 98.126C700.504 98.6467 700.581 99.2663 700.581 99.985ZM699.569 99.985C699.569 99.3543 699.514 98.8263 699.404 98.401C699.302 97.9683 699.159 97.6237 698.975 97.367C698.799 97.103 698.594 96.916 698.359 96.806C698.125 96.6887 697.879 96.63 697.622 96.63C697.366 96.63 697.12 96.6887 696.885 96.806C696.651 96.916 696.445 97.103 696.269 97.367C696.093 97.6237 695.95 97.9683 695.84 98.401C695.738 98.8263 695.686 99.3543 695.686 99.985C695.686 100.608 695.738 101.136 695.84 101.569C695.95 101.994 696.093 102.339 696.269 102.603C696.445 102.867 696.651 103.058 696.885 103.175C697.12 103.285 697.366 103.34 697.622 103.34C697.879 103.34 698.125 103.285 698.359 103.175C698.594 103.058 698.799 102.867 698.975 102.603C699.159 102.339 699.302 101.994 699.404 101.569C699.514 101.136 699.569 100.608 699.569 99.985ZM704.89 100.799C705.007 100.645 705.099 100.517 705.165 100.414C705.238 100.311 705.293 100.234 705.33 100.183C704.897 100.528 704.38 100.7 703.779 100.7C703.464 100.7 703.163 100.649 702.877 100.546C702.598 100.443 702.353 100.293 702.14 100.095C701.935 99.8897 701.77 99.6403 701.645 99.347C701.52 99.0537 701.458 98.7163 701.458 98.335C701.458 97.9757 701.524 97.6383 701.656 97.323C701.795 97.0077 701.986 96.7327 702.228 96.498C702.47 96.2633 702.756 96.08 703.086 95.948C703.423 95.8087 703.794 95.739 704.197 95.739C704.593 95.739 704.952 95.805 705.275 95.937C705.598 96.069 705.873 96.2523 706.1 96.487C706.335 96.7217 706.514 97.004 706.639 97.334C706.764 97.6567 706.826 98.016 706.826 98.412C706.826 98.8887 706.742 99.325 706.573 99.721C706.404 100.117 706.166 100.528 705.858 100.953L703.647 104H702.382L704.89 100.799ZM702.481 98.258C702.481 98.7933 702.624 99.204 702.91 99.49C703.203 99.7687 703.603 99.908 704.109 99.908C704.388 99.908 704.633 99.864 704.846 99.776C705.059 99.688 705.238 99.5707 705.385 99.424C705.539 99.27 705.653 99.0977 705.726 98.907C705.807 98.709 705.847 98.5037 705.847 98.291C705.847 98.027 705.803 97.7923 705.715 97.587C705.634 97.3743 705.521 97.1983 705.374 97.059C705.227 96.9123 705.051 96.8023 704.846 96.729C704.641 96.6483 704.421 96.608 704.186 96.608C703.673 96.608 703.258 96.762 702.943 97.07C702.635 97.3707 702.481 97.7667 702.481 98.258Z" fill="black" fill-opacity="0.6"/>
<path d="M773.983 104H769.627V103.186H771.42V97.224C771.42 97.18 771.424 97.1397 771.431 97.103L769.968 98.412L769.429 97.763L771.596 95.893H772.399V103.186H773.983V104ZM781.009 99.985C781.009 100.696 780.932 101.316 780.778 101.844C780.624 102.365 780.415 102.797 780.151 103.142C779.887 103.487 779.575 103.743 779.216 103.912C778.857 104.073 778.468 104.154 778.05 104.154C777.632 104.154 777.243 104.073 776.884 103.912C776.525 103.743 776.209 103.487 775.938 103.142C775.674 102.797 775.465 102.365 775.311 101.844C775.164 101.316 775.091 100.696 775.091 99.985C775.091 99.2663 775.164 98.6467 775.311 98.126C775.465 97.598 775.674 97.1617 775.938 96.817C776.209 96.4723 776.525 96.2193 776.884 96.058C777.243 95.8893 777.632 95.805 778.05 95.805C778.468 95.805 778.857 95.8893 779.216 96.058C779.575 96.2193 779.887 96.4723 780.151 96.817C780.415 97.1617 780.624 97.598 780.778 98.126C780.932 98.6467 781.009 99.2663 781.009 99.985ZM779.997 99.985C779.997 99.3543 779.942 98.8263 779.832 98.401C779.729 97.9683 779.586 97.6237 779.403 97.367C779.227 97.103 779.022 96.916 778.787 96.806C778.552 96.6887 778.307 96.63 778.05 96.63C777.793 96.63 777.548 96.6887 777.313 96.806C777.078 96.916 776.873 97.103 776.697 97.367C776.521 97.6237 776.378 97.9683 776.268 98.401C776.165 98.8263 776.114 99.3543 776.114 99.985C776.114 100.608 776.165 101.136 776.268 101.569C776.378 101.994 776.521 102.339 776.697 102.603C776.873 102.867 777.078 103.058 777.313 103.175C777.548 103.285 777.793 103.34 778.05 103.34C778.307 103.34 778.552 103.285 778.787 103.175C779.022 103.058 779.227 102.867 779.403 102.603C779.586 102.339 779.729 101.994 779.832 101.569C779.942 101.136 779.997 100.608 779.997 99.985Z" fill="black" fill-opacity="0.6"/>
<path d="M847.858 104H843.502V103.186H845.295V97.224C845.295 97.18 845.299 97.1397 845.306 97.103L843.843 98.412L843.304 97.763L845.471 95.893H846.274V103.186H847.858V104ZM854.411 104H850.055V103.186H851.848V97.224C851.848 97.18 851.852 97.1397 851.859 97.103L850.396 98.412L849.857 97.763L852.024 95.893H852.827V103.186H854.411V104Z" fill="black" fill-opacity="0.6"/>
<path d="M921.733 104H917.377V103.186H919.17V97.224C919.17 97.18 919.174 97.1397 919.181 97.103L917.718 98.412L917.179 97.763L919.346 95.893H920.149V103.186H921.733V104ZM928.495 104H923.083V103.296L925.866 100.623C926.079 100.396 926.273 100.183 926.449 99.985C926.632 99.7797 926.786 99.5743 926.911 99.369C927.043 99.1637 927.146 98.9583 927.219 98.753C927.292 98.5403 927.329 98.3167 927.329 98.082C927.314 97.598 927.168 97.2423 926.889 97.015C926.61 96.7803 926.262 96.663 925.844 96.663C925.617 96.663 925.404 96.7033 925.206 96.784C925.008 96.8573 924.836 96.9673 924.689 97.114C924.55 97.2533 924.44 97.4183 924.359 97.609C924.278 97.7997 924.238 98.0123 924.238 98.247L923.248 98.082C923.299 97.708 923.402 97.3817 923.556 97.103C923.71 96.817 923.901 96.5787 924.128 96.388C924.363 96.19 924.63 96.0433 924.931 95.948C925.232 95.8453 925.554 95.794 925.899 95.794C926.244 95.794 926.563 95.8453 926.856 95.948C927.157 96.0507 927.417 96.201 927.637 96.399C927.857 96.5897 928.029 96.8243 928.154 97.103C928.279 97.3817 928.341 97.7007 928.341 98.06C928.341 98.3607 928.297 98.6393 928.209 98.896C928.121 99.1527 928 99.402 927.846 99.644C927.692 99.8787 927.512 100.11 927.307 100.337C927.102 100.557 926.885 100.781 926.658 101.008L924.403 103.241C924.557 103.197 924.711 103.164 924.865 103.142C925.026 103.12 925.177 103.109 925.316 103.109H928.495V104Z" fill="black" fill-opacity="0.6"/>
<path d="M995.608 104H991.252V103.186H993.045V97.224C993.045 97.18 993.049 97.1397 993.056 97.103L991.593 98.412L991.054 97.763L993.221 95.893H994.024V103.186H995.608V104ZM997.156 98.104C997.207 97.7373 997.31 97.411 997.464 97.125C997.618 96.839 997.809 96.6007 998.036 96.41C998.271 96.212 998.538 96.0617 998.839 95.959C999.14 95.8563 999.462 95.805 999.807 95.805C1000.16 95.805 1000.48 95.8563 1000.76 95.959C1001.06 96.0617 1001.31 96.2047 1001.52 96.388C1001.74 96.5713 1001.9 96.7913 1002.02 97.048C1002.14 97.3047 1002.19 97.587 1002.19 97.895C1002.19 98.423 1002.07 98.8337 1001.81 99.127C1001.56 99.413 1001.22 99.6293 1000.78 99.776C1001.3 99.908 1001.7 100.139 1001.97 100.469C1002.25 100.799 1002.38 101.217 1002.38 101.723C1002.38 102.09 1002.31 102.423 1002.16 102.724C1002.02 103.025 1001.83 103.281 1001.58 103.494C1001.34 103.699 1001.05 103.861 1000.71 103.978C1000.38 104.088 1000.03 104.143 999.653 104.143C999.22 104.143 998.85 104.088 998.542 103.978C998.241 103.868 997.985 103.718 997.772 103.527C997.559 103.336 997.383 103.113 997.244 102.856C997.112 102.592 996.998 102.313 996.903 102.02L997.805 101.646C997.827 101.763 997.882 101.928 997.97 102.141C998.139 102.493 998.355 102.772 998.619 102.977C998.883 103.175 999.224 103.274 999.642 103.274C999.928 103.274 1000.18 103.23 1000.39 103.142C1000.61 103.047 1000.79 102.926 1000.93 102.779C1001.08 102.632 1001.18 102.467 1001.25 102.284C1001.32 102.101 1001.36 101.921 1001.36 101.745C1001.36 101.525 1001.33 101.323 1001.27 101.14C1001.22 100.957 1001.12 100.799 1000.96 100.667C1000.81 100.535 1000.6 100.432 1000.32 100.359C1000.05 100.278 999.701 100.238 999.268 100.238V99.512C999.62 99.5047 999.917 99.4643 1000.16 99.391C1000.41 99.3177 1000.61 99.2187 1000.76 99.094C1000.92 98.962 1001.03 98.808 1001.09 98.632C1001.16 98.456 1001.19 98.2653 1001.19 98.06C1001.19 97.598 1001.06 97.2533 1000.79 97.026C1000.52 96.7987 1000.18 96.685 999.752 96.685C999.525 96.685 999.312 96.7253 999.114 96.806C998.916 96.8867 998.747 97.0003 998.608 97.147C998.469 97.2863 998.359 97.4513 998.278 97.642C998.197 97.8327 998.157 98.0417 998.157 98.269L997.156 98.104Z" fill="white" fill-opacity="0.6"/>
<path d="M1069.48 104H1065.13V103.186H1066.92V97.224C1066.92 97.18 1066.92 97.1397 1066.93 97.103L1065.47 98.412L1064.93 97.763L1067.1 95.893H1067.9V103.186H1069.48V104ZM1076.63 101.855H1075.41V104H1074.52V101.855H1070.49V101.107L1074.46 95.849H1075.41V101.063H1076.63V101.855ZM1074.52 97.697C1074.52 97.6017 1074.52 97.4953 1074.53 97.378C1074.54 97.2533 1074.55 97.1323 1074.56 97.015L1071.59 101.063H1074.52V97.697Z" fill="black" fill-opacity="0.6"/>
<path d="M1143.36 104H1139V103.186H1140.8V97.224C1140.8 97.18 1140.8 97.1397 1140.81 97.103L1139.34 98.412L1138.8 97.763L1140.97 95.893H1141.77V103.186H1143.36V104ZM1146.23 98.94C1146.59 98.8447 1146.97 98.797 1147.38 98.797C1147.81 98.797 1148.18 98.8593 1148.5 98.984C1148.83 99.1087 1149.11 99.281 1149.33 99.501C1149.55 99.721 1149.71 99.9813 1149.82 100.282C1149.94 100.583 1150 100.909 1150 101.261C1150 101.686 1149.92 102.075 1149.77 102.427C1149.62 102.779 1149.42 103.08 1149.15 103.329C1148.89 103.571 1148.58 103.762 1148.22 103.901C1147.87 104.033 1147.48 104.099 1147.07 104.099C1146.59 104.099 1146.15 104.015 1145.75 103.846C1145.36 103.67 1145.05 103.465 1144.8 103.23L1145.34 102.493C1145.58 102.698 1145.85 102.867 1146.16 102.999C1146.47 103.131 1146.79 103.197 1147.12 103.197C1147.4 103.197 1147.65 103.157 1147.89 103.076C1148.12 102.988 1148.32 102.863 1148.49 102.702C1148.66 102.541 1148.79 102.343 1148.89 102.108C1148.98 101.873 1149.03 101.609 1149.03 101.316C1149.03 100.788 1148.87 100.377 1148.55 100.084C1148.22 99.7907 1147.77 99.644 1147.19 99.644C1146.98 99.644 1146.77 99.6697 1146.55 99.721C1146.33 99.765 1146.11 99.8273 1145.87 99.908L1145.23 99.721L1145.89 95.904H1149.75V96.828H1146.59L1146.23 98.94Z" fill="black" fill-opacity="0.6"/>
<path d="M1217.23 104H1212.88V103.186H1214.67V97.224C1214.67 97.18 1214.67 97.1397 1214.68 97.103L1213.22 98.412L1212.68 97.763L1214.85 95.893H1215.65V103.186H1217.23V104ZM1220.65 98.94C1220.56 99.072 1220.48 99.182 1220.41 99.27C1220.35 99.358 1220.3 99.424 1220.27 99.468C1220.46 99.336 1220.68 99.2333 1220.9 99.16C1221.13 99.0867 1221.38 99.05 1221.65 99.05C1221.98 99.05 1222.29 99.105 1222.59 99.215C1222.88 99.3177 1223.14 99.4753 1223.36 99.688C1223.58 99.8933 1223.75 100.146 1223.87 100.447C1224.01 100.748 1224.07 101.092 1224.07 101.481C1224.07 101.855 1224 102.203 1223.86 102.526C1223.73 102.849 1223.54 103.131 1223.29 103.373C1223.05 103.615 1222.76 103.806 1222.41 103.945C1222.07 104.077 1221.69 104.143 1221.28 104.143C1220.87 104.143 1220.49 104.077 1220.16 103.945C1219.83 103.813 1219.54 103.626 1219.31 103.384C1219.07 103.142 1218.89 102.852 1218.76 102.515C1218.63 102.17 1218.57 101.789 1218.57 101.371C1218.57 101.012 1218.65 100.63 1218.8 100.227C1218.96 99.8163 1219.22 99.38 1219.57 98.918L1221.82 95.893H1223.08L1220.65 98.94ZM1221.26 103.296C1221.52 103.296 1221.76 103.252 1221.98 103.164C1222.21 103.076 1222.4 102.955 1222.55 102.801C1222.72 102.647 1222.84 102.464 1222.93 102.251C1223.02 102.038 1223.06 101.807 1223.06 101.558C1223.06 101.294 1223.02 101.056 1222.93 100.843C1222.84 100.623 1222.72 100.44 1222.57 100.293C1222.41 100.146 1222.23 100.033 1222.02 99.952C1221.8 99.8713 1221.57 99.831 1221.32 99.831C1221.05 99.831 1220.81 99.8787 1220.59 99.974C1220.37 100.062 1220.19 100.187 1220.04 100.348C1219.88 100.502 1219.76 100.682 1219.67 100.887C1219.59 101.092 1219.55 101.309 1219.55 101.536C1219.55 102.064 1219.7 102.489 1219.99 102.812C1220.28 103.135 1220.71 103.296 1221.26 103.296Z" fill="black" fill-opacity="0.6"/>
<path d="M1291.11 104H1286.75V103.186H1288.55V97.224C1288.55 97.18 1288.55 97.1397 1288.56 97.103L1287.09 98.412L1286.55 97.763L1288.72 95.893H1289.52V103.186H1291.11V104ZM1297.94 96.586L1294.3 104H1293.18L1296.47 97.411L1296.85 96.795H1292.63V95.937H1297.94V96.586Z" fill="black" fill-opacity="0.6"/>
<path d="M1364.98 104H1360.63V103.186H1362.42V97.224C1362.42 97.18 1362.42 97.1397 1362.43 97.103L1360.97 98.412L1360.43 97.763L1362.6 95.893H1363.4V103.186H1364.98V104ZM1370.21 99.798C1370.72 99.9373 1371.11 100.179 1371.38 100.524C1371.66 100.869 1371.8 101.305 1371.8 101.833C1371.8 102.192 1371.73 102.519 1371.59 102.812C1371.46 103.098 1371.27 103.344 1371.02 103.549C1370.78 103.754 1370.49 103.912 1370.15 104.022C1369.81 104.132 1369.44 104.187 1369.03 104.187C1368.62 104.187 1368.24 104.132 1367.9 104.022C1367.55 103.912 1367.25 103.754 1367 103.549C1366.76 103.344 1366.57 103.098 1366.43 102.812C1366.3 102.519 1366.23 102.192 1366.23 101.833C1366.23 101.305 1366.37 100.869 1366.65 100.524C1366.93 100.179 1367.32 99.9373 1367.83 99.798C1367.41 99.6367 1367.09 99.3983 1366.86 99.083C1366.64 98.7603 1366.53 98.368 1366.53 97.906C1366.53 97.6053 1366.59 97.3267 1366.71 97.07C1366.82 96.806 1366.99 96.575 1367.2 96.377C1367.42 96.179 1367.69 96.025 1367.99 95.915C1368.3 95.7977 1368.65 95.739 1369.03 95.739C1369.39 95.739 1369.73 95.7977 1370.04 95.915C1370.35 96.025 1370.61 96.179 1370.83 96.377C1371.05 96.575 1371.22 96.806 1371.34 97.07C1371.46 97.3267 1371.53 97.6053 1371.53 97.906C1371.53 98.8447 1371.09 99.4753 1370.21 99.798ZM1369.03 96.542C1368.78 96.542 1368.56 96.5787 1368.37 96.652C1368.18 96.7253 1368.02 96.8243 1367.9 96.949C1367.78 97.0737 1367.69 97.224 1367.62 97.4C1367.56 97.5687 1367.53 97.7483 1367.53 97.939C1367.53 98.1223 1367.56 98.302 1367.61 98.478C1367.66 98.654 1367.74 98.8117 1367.86 98.951C1367.98 99.0903 1368.13 99.204 1368.32 99.292C1368.51 99.3727 1368.75 99.413 1369.03 99.413C1369.3 99.413 1369.53 99.3727 1369.71 99.292C1369.9 99.204 1370.05 99.0903 1370.17 98.951C1370.29 98.8117 1370.37 98.654 1370.43 98.478C1370.48 98.302 1370.5 98.1223 1370.5 97.939C1370.5 97.7483 1370.47 97.5687 1370.4 97.4C1370.34 97.224 1370.25 97.0737 1370.13 96.949C1370.01 96.8243 1369.86 96.7253 1369.68 96.652C1369.49 96.5787 1369.28 96.542 1369.03 96.542ZM1369.03 103.362C1369.58 103.362 1370 103.223 1370.29 102.944C1370.59 102.658 1370.73 102.284 1370.73 101.822C1370.73 101.536 1370.69 101.294 1370.59 101.096C1370.5 100.891 1370.38 100.726 1370.22 100.601C1370.06 100.469 1369.88 100.374 1369.68 100.315C1369.47 100.249 1369.26 100.216 1369.03 100.216C1368.8 100.216 1368.58 100.249 1368.37 100.315C1368.16 100.374 1367.98 100.469 1367.82 100.601C1367.66 100.726 1367.53 100.891 1367.43 101.096C1367.35 101.294 1367.3 101.536 1367.3 101.822C1367.3 102.284 1367.45 102.658 1367.75 102.944C1368.05 103.223 1368.48 103.362 1369.03 103.362Z" fill="black" fill-opacity="0.6"/>
<path d="M1438.86 104H1434.5V103.186H1436.3V97.224C1436.3 97.18 1436.3 97.1397 1436.31 97.103L1434.84 98.412L1434.3 97.763L1436.47 95.893H1437.27V103.186H1438.86V104ZM1443.64 100.799C1443.76 100.645 1443.85 100.517 1443.92 100.414C1443.99 100.311 1444.04 100.234 1444.08 100.183C1443.65 100.528 1443.13 100.7 1442.53 100.7C1442.21 100.7 1441.91 100.649 1441.63 100.546C1441.35 100.443 1441.1 100.293 1440.89 100.095C1440.68 99.8897 1440.52 99.6403 1440.4 99.347C1440.27 99.0537 1440.21 98.7163 1440.21 98.335C1440.21 97.9757 1440.27 97.6383 1440.41 97.323C1440.55 97.0077 1440.74 96.7327 1440.98 96.498C1441.22 96.2633 1441.51 96.08 1441.84 95.948C1442.17 95.8087 1442.54 95.739 1442.95 95.739C1443.34 95.739 1443.7 95.805 1444.03 95.937C1444.35 96.069 1444.62 96.2523 1444.85 96.487C1445.08 96.7217 1445.26 97.004 1445.39 97.334C1445.51 97.6567 1445.58 98.016 1445.58 98.412C1445.58 98.8887 1445.49 99.325 1445.32 99.721C1445.15 100.117 1444.92 100.528 1444.61 100.953L1442.4 104H1441.13L1443.64 100.799ZM1441.23 98.258C1441.23 98.7933 1441.37 99.204 1441.66 99.49C1441.95 99.7687 1442.35 99.908 1442.86 99.908C1443.14 99.908 1443.38 99.864 1443.6 99.776C1443.81 99.688 1443.99 99.5707 1444.14 99.424C1444.29 99.27 1444.4 99.0977 1444.48 98.907C1444.56 98.709 1444.6 98.5037 1444.6 98.291C1444.6 98.027 1444.55 97.7923 1444.47 97.587C1444.38 97.3743 1444.27 97.1983 1444.12 97.059C1443.98 96.9123 1443.8 96.8023 1443.6 96.729C1443.39 96.6483 1443.17 96.608 1442.94 96.608C1442.42 96.608 1442.01 96.762 1441.69 97.07C1441.39 97.3707 1441.23 97.7667 1441.23 98.258Z" fill="black" fill-opacity="0.6"/>
<path d="M1512.94 104H1507.53V103.296L1510.31 100.623C1510.53 100.396 1510.72 100.183 1510.9 99.985C1511.08 99.7797 1511.23 99.5743 1511.36 99.369C1511.49 99.1637 1511.59 98.9583 1511.67 98.753C1511.74 98.5403 1511.78 98.3167 1511.78 98.082C1511.76 97.598 1511.61 97.2423 1511.34 97.015C1511.06 96.7803 1510.71 96.663 1510.29 96.663C1510.06 96.663 1509.85 96.7033 1509.65 96.784C1509.46 96.8573 1509.28 96.9673 1509.14 97.114C1509 97.2533 1508.89 97.4183 1508.81 97.609C1508.73 97.7997 1508.69 98.0123 1508.69 98.247L1507.7 98.082C1507.75 97.708 1507.85 97.3817 1508 97.103C1508.16 96.817 1508.35 96.5787 1508.58 96.388C1508.81 96.19 1509.08 96.0433 1509.38 95.948C1509.68 95.8453 1510 95.794 1510.35 95.794C1510.69 95.794 1511.01 95.8453 1511.3 95.948C1511.6 96.0507 1511.86 96.201 1512.08 96.399C1512.3 96.5897 1512.48 96.8243 1512.6 97.103C1512.73 97.3817 1512.79 97.7007 1512.79 98.06C1512.79 98.3607 1512.74 98.6393 1512.66 98.896C1512.57 99.1527 1512.45 99.402 1512.29 99.644C1512.14 99.8787 1511.96 100.11 1511.75 100.337C1511.55 100.557 1511.33 100.781 1511.11 101.008L1508.85 103.241C1509 103.197 1509.16 103.164 1509.31 103.142C1509.47 103.12 1509.62 103.109 1509.76 103.109H1512.94V104ZM1519.76 99.985C1519.76 100.696 1519.68 101.316 1519.53 101.844C1519.37 102.365 1519.17 102.797 1518.9 103.142C1518.64 103.487 1518.33 103.743 1517.97 103.912C1517.61 104.073 1517.22 104.154 1516.8 104.154C1516.38 104.154 1515.99 104.073 1515.63 103.912C1515.27 103.743 1514.96 103.487 1514.69 103.142C1514.42 102.797 1514.22 102.365 1514.06 101.844C1513.91 101.316 1513.84 100.696 1513.84 99.985C1513.84 99.2663 1513.91 98.6467 1514.06 98.126C1514.22 97.598 1514.42 97.1617 1514.69 96.817C1514.96 96.4723 1515.27 96.2193 1515.63 96.058C1515.99 95.8893 1516.38 95.805 1516.8 95.805C1517.22 95.805 1517.61 95.8893 1517.97 96.058C1518.33 96.2193 1518.64 96.4723 1518.9 96.817C1519.17 97.1617 1519.37 97.598 1519.53 98.126C1519.68 98.6467 1519.76 99.2663 1519.76 99.985ZM1518.75 99.985C1518.75 99.3543 1518.69 98.8263 1518.58 98.401C1518.48 97.9683 1518.34 97.6237 1518.15 97.367C1517.98 97.103 1517.77 96.916 1517.54 96.806C1517.3 96.6887 1517.06 96.63 1516.8 96.63C1516.54 96.63 1516.3 96.6887 1516.06 96.806C1515.83 96.916 1515.62 97.103 1515.45 97.367C1515.27 97.6237 1515.13 97.9683 1515.02 98.401C1514.92 98.8263 1514.86 99.3543 1514.86 99.985C1514.86 100.608 1514.92 101.136 1515.02 101.569C1515.13 101.994 1515.27 102.339 1515.45 102.603C1515.62 102.867 1515.83 103.058 1516.06 103.175C1516.3 103.285 1516.54 103.34 1516.8 103.34C1517.06 103.34 1517.3 103.285 1517.54 103.175C1517.77 103.058 1517.98 102.867 1518.15 102.603C1518.34 102.339 1518.48 101.994 1518.58 101.569C1518.69 101.136 1518.75 100.608 1518.75 99.985Z" fill="black" fill-opacity="0.6"/>
<path d="M1586.82 104H1581.41V103.296L1584.19 100.623C1584.4 100.396 1584.6 100.183 1584.77 99.985C1584.95 99.7797 1585.11 99.5743 1585.23 99.369C1585.37 99.1637 1585.47 98.9583 1585.54 98.753C1585.61 98.5403 1585.65 98.3167 1585.65 98.082C1585.64 97.598 1585.49 97.2423 1585.21 97.015C1584.93 96.7803 1584.58 96.663 1584.17 96.663C1583.94 96.663 1583.73 96.7033 1583.53 96.784C1583.33 96.8573 1583.16 96.9673 1583.01 97.114C1582.87 97.2533 1582.76 97.4183 1582.68 97.609C1582.6 97.7997 1582.56 98.0123 1582.56 98.247L1581.57 98.082C1581.62 97.708 1581.72 97.3817 1581.88 97.103C1582.03 96.817 1582.22 96.5787 1582.45 96.388C1582.68 96.19 1582.95 96.0433 1583.25 95.948C1583.55 95.8453 1583.88 95.794 1584.22 95.794C1584.57 95.794 1584.88 95.8453 1585.18 95.948C1585.48 96.0507 1585.74 96.201 1585.96 96.399C1586.18 96.5897 1586.35 96.8243 1586.48 97.103C1586.6 97.3817 1586.66 97.7007 1586.66 98.06C1586.66 98.3607 1586.62 98.6393 1586.53 98.896C1586.44 99.1527 1586.32 99.402 1586.17 99.644C1586.01 99.8787 1585.83 100.11 1585.63 100.337C1585.42 100.557 1585.21 100.781 1584.98 101.008L1582.73 103.241C1582.88 103.197 1583.03 103.164 1583.19 103.142C1583.35 103.12 1583.5 103.109 1583.64 103.109H1586.82V104ZM1593.16 104H1588.81V103.186H1590.6V97.224C1590.6 97.18 1590.6 97.1397 1590.61 97.103L1589.15 98.412L1588.61 97.763L1590.77 95.893H1591.58V103.186H1593.16V104Z" fill="black" fill-opacity="0.6"/>
<path d="M1660.69 104H1655.28V103.296L1658.06 100.623C1658.28 100.396 1658.47 100.183 1658.65 99.985C1658.83 99.7797 1658.98 99.5743 1659.11 99.369C1659.24 99.1637 1659.34 98.9583 1659.42 98.753C1659.49 98.5403 1659.53 98.3167 1659.53 98.082C1659.51 97.598 1659.36 97.2423 1659.09 97.015C1658.81 96.7803 1658.46 96.663 1658.04 96.663C1657.81 96.663 1657.6 96.7033 1657.4 96.784C1657.21 96.8573 1657.03 96.9673 1656.89 97.114C1656.75 97.2533 1656.64 97.4183 1656.56 97.609C1656.48 97.7997 1656.44 98.0123 1656.44 98.247L1655.45 98.082C1655.5 97.708 1655.6 97.3817 1655.75 97.103C1655.91 96.817 1656.1 96.5787 1656.33 96.388C1656.56 96.19 1656.83 96.0433 1657.13 95.948C1657.43 95.8453 1657.75 95.794 1658.1 95.794C1658.44 95.794 1658.76 95.8453 1659.05 95.948C1659.35 96.0507 1659.61 96.201 1659.83 96.399C1660.05 96.5897 1660.23 96.8243 1660.35 97.103C1660.48 97.3817 1660.54 97.7007 1660.54 98.06C1660.54 98.3607 1660.49 98.6393 1660.41 98.896C1660.32 99.1527 1660.2 99.402 1660.04 99.644C1659.89 99.8787 1659.71 100.11 1659.5 100.337C1659.3 100.557 1659.08 100.781 1658.86 101.008L1656.6 103.241C1656.75 103.197 1656.91 103.164 1657.06 103.142C1657.22 103.12 1657.37 103.109 1657.51 103.109H1660.69V104ZM1667.25 104H1661.83V103.296L1664.62 100.623C1664.83 100.396 1665.02 100.183 1665.2 99.985C1665.38 99.7797 1665.54 99.5743 1665.66 99.369C1665.79 99.1637 1665.9 98.9583 1665.97 98.753C1666.04 98.5403 1666.08 98.3167 1666.08 98.082C1666.06 97.598 1665.92 97.2423 1665.64 97.015C1665.36 96.7803 1665.01 96.663 1664.59 96.663C1664.37 96.663 1664.15 96.7033 1663.96 96.784C1663.76 96.8573 1663.59 96.9673 1663.44 97.114C1663.3 97.2533 1663.19 97.4183 1663.11 97.609C1663.03 97.7997 1662.99 98.0123 1662.99 98.247L1662 98.082C1662.05 97.708 1662.15 97.3817 1662.31 97.103C1662.46 96.817 1662.65 96.5787 1662.88 96.388C1663.11 96.19 1663.38 96.0433 1663.68 95.948C1663.98 95.8453 1664.3 95.794 1664.65 95.794C1664.99 95.794 1665.31 95.8453 1665.61 95.948C1665.91 96.0507 1666.17 96.201 1666.39 96.399C1666.61 96.5897 1666.78 96.8243 1666.9 97.103C1667.03 97.3817 1667.09 97.7007 1667.09 98.06C1667.09 98.3607 1667.05 98.6393 1666.96 98.896C1666.87 99.1527 1666.75 99.402 1666.6 99.644C1666.44 99.8787 1666.26 100.11 1666.06 100.337C1665.85 100.557 1665.64 100.781 1665.41 101.008L1663.15 103.241C1663.31 103.197 1663.46 103.164 1663.62 103.142C1663.78 103.12 1663.93 103.109 1664.07 103.109H1667.25V104Z" fill="black" fill-opacity="0.6"/>
<path d="M1734.57 104H1729.16V103.296L1731.94 100.623C1732.15 100.396 1732.35 100.183 1732.52 99.985C1732.7 99.7797 1732.86 99.5743 1732.98 99.369C1733.12 99.1637 1733.22 98.9583 1733.29 98.753C1733.36 98.5403 1733.4 98.3167 1733.4 98.082C1733.39 97.598 1733.24 97.2423 1732.96 97.015C1732.68 96.7803 1732.33 96.663 1731.92 96.663C1731.69 96.663 1731.48 96.7033 1731.28 96.784C1731.08 96.8573 1730.91 96.9673 1730.76 97.114C1730.62 97.2533 1730.51 97.4183 1730.43 97.609C1730.35 97.7997 1730.31 98.0123 1730.31 98.247L1729.32 98.082C1729.37 97.708 1729.47 97.3817 1729.63 97.103C1729.78 96.817 1729.97 96.5787 1730.2 96.388C1730.43 96.19 1730.7 96.0433 1731 95.948C1731.3 95.8453 1731.63 95.794 1731.97 95.794C1732.32 95.794 1732.63 95.8453 1732.93 95.948C1733.23 96.0507 1733.49 96.201 1733.71 96.399C1733.93 96.5897 1734.1 96.8243 1734.23 97.103C1734.35 97.3817 1734.41 97.7007 1734.41 98.06C1734.41 98.3607 1734.37 98.6393 1734.28 98.896C1734.19 99.1527 1734.07 99.402 1733.92 99.644C1733.76 99.8787 1733.58 100.11 1733.38 100.337C1733.17 100.557 1732.96 100.781 1732.73 101.008L1730.48 103.241C1730.63 103.197 1730.78 103.164 1730.94 103.142C1731.1 103.12 1731.25 103.109 1731.39 103.109H1734.57V104ZM1735.91 98.104C1735.96 97.7373 1736.06 97.411 1736.21 97.125C1736.37 96.839 1736.56 96.6007 1736.79 96.41C1737.02 96.212 1737.29 96.0617 1737.59 95.959C1737.89 95.8563 1738.21 95.805 1738.56 95.805C1738.91 95.805 1739.23 95.8563 1739.51 95.959C1739.81 96.0617 1740.06 96.2047 1740.27 96.388C1740.49 96.5713 1740.65 96.7913 1740.77 97.048C1740.89 97.3047 1740.94 97.587 1740.94 97.895C1740.94 98.423 1740.82 98.8337 1740.56 99.127C1740.31 99.413 1739.97 99.6293 1739.53 99.776C1740.05 99.908 1740.45 100.139 1740.72 100.469C1741 100.799 1741.13 101.217 1741.13 101.723C1741.13 102.09 1741.06 102.423 1740.91 102.724C1740.77 103.025 1740.58 103.281 1740.33 103.494C1740.09 103.699 1739.8 103.861 1739.46 103.978C1739.13 104.088 1738.78 104.143 1738.4 104.143C1737.97 104.143 1737.6 104.088 1737.29 103.978C1736.99 103.868 1736.73 103.718 1736.52 103.527C1736.31 103.336 1736.13 103.113 1735.99 102.856C1735.86 102.592 1735.75 102.313 1735.65 102.02L1736.56 101.646C1736.58 101.763 1736.63 101.928 1736.72 102.141C1736.89 102.493 1737.11 102.772 1737.37 102.977C1737.63 103.175 1737.97 103.274 1738.39 103.274C1738.68 103.274 1738.93 103.23 1739.14 103.142C1739.36 103.047 1739.54 102.926 1739.68 102.779C1739.83 102.632 1739.93 102.467 1740 102.284C1740.07 102.101 1740.11 101.921 1740.11 101.745C1740.11 101.525 1740.08 101.323 1740.02 101.14C1739.97 100.957 1739.87 100.799 1739.71 100.667C1739.56 100.535 1739.35 100.432 1739.07 100.359C1738.8 100.278 1738.45 100.238 1738.02 100.238V99.512C1738.37 99.5047 1738.67 99.4643 1738.91 99.391C1739.16 99.3177 1739.36 99.2187 1739.51 99.094C1739.67 98.962 1739.78 98.808 1739.84 98.632C1739.91 98.456 1739.94 98.2653 1739.94 98.06C1739.94 97.598 1739.81 97.2533 1739.54 97.026C1739.27 96.7987 1738.93 96.685 1738.5 96.685C1738.27 96.685 1738.06 96.7253 1737.86 96.806C1737.67 96.8867 1737.5 97.0003 1737.36 97.147C1737.22 97.2863 1737.11 97.4513 1737.03 97.642C1736.95 97.8327 1736.91 98.0417 1736.91 98.269L1735.91 98.104Z" fill="black" fill-opacity="0.6"/>
<path d="M1808.44 104H1803.03V103.296L1805.81 100.623C1806.03 100.396 1806.22 100.183 1806.4 99.985C1806.58 99.7797 1806.73 99.5743 1806.86 99.369C1806.99 99.1637 1807.09 98.9583 1807.17 98.753C1807.24 98.5403 1807.28 98.3167 1807.28 98.082C1807.26 97.598 1807.11 97.2423 1806.84 97.015C1806.56 96.7803 1806.21 96.663 1805.79 96.663C1805.56 96.663 1805.35 96.7033 1805.15 96.784C1804.96 96.8573 1804.78 96.9673 1804.64 97.114C1804.5 97.2533 1804.39 97.4183 1804.31 97.609C1804.23 97.7997 1804.19 98.0123 1804.19 98.247L1803.2 98.082C1803.25 97.708 1803.35 97.3817 1803.5 97.103C1803.66 96.817 1803.85 96.5787 1804.08 96.388C1804.31 96.19 1804.58 96.0433 1804.88 95.948C1805.18 95.8453 1805.5 95.794 1805.85 95.794C1806.19 95.794 1806.51 95.8453 1806.8 95.948C1807.1 96.0507 1807.36 96.201 1807.58 96.399C1807.8 96.5897 1807.98 96.8243 1808.1 97.103C1808.23 97.3817 1808.29 97.7007 1808.29 98.06C1808.29 98.3607 1808.24 98.6393 1808.16 98.896C1808.07 99.1527 1807.95 99.402 1807.79 99.644C1807.64 99.8787 1807.46 100.11 1807.25 100.337C1807.05 100.557 1806.83 100.781 1806.61 101.008L1804.35 103.241C1804.5 103.197 1804.66 103.164 1804.81 103.142C1804.97 103.12 1805.12 103.109 1805.26 103.109H1808.44V104ZM1815.38 101.855H1814.16V104H1813.27V101.855H1809.24V101.107L1813.21 95.849H1814.16V101.063H1815.38V101.855ZM1813.27 97.697C1813.27 97.6017 1813.27 97.4953 1813.28 97.378C1813.29 97.2533 1813.3 97.1323 1813.31 97.015L1810.34 101.063H1813.27V97.697Z" fill="black" fill-opacity="0.6"/>
</svg>
