<svg width="1808" height="106" viewBox="0 0 1808 106" fill="none" xmlns="http://www.w3.org/2000/svg">
<path d="M7.27453 9.0967H6.05353V11.2417H5.16253V9.0967H1.13653V8.3487L5.10753 3.0907H6.05353V8.3047H7.27453V9.0967ZM5.16253 4.9387C5.16253 4.84337 5.1662 4.73703 5.17353 4.6197C5.18086 4.49503 5.19186 4.37403 5.20653 4.2567L2.23653 8.3047H5.16253V4.9387ZM13.7063 7.2267C13.7063 7.93803 13.6293 8.5577 13.4753 9.0857C13.3213 9.60637 13.1123 10.039 12.8483 10.3837C12.5843 10.7284 12.2726 10.985 11.9133 11.1537C11.5539 11.315 11.1653 11.3957 10.7473 11.3957C10.3293 11.3957 9.9406 11.315 9.58127 11.1537C9.22193 10.985 8.9066 10.7284 8.63527 10.3837C8.37127 10.039 8.16227 9.60637 8.00827 9.0857C7.8616 8.5577 7.78827 7.93803 7.78827 7.2267C7.78827 6.50803 7.8616 5.88837 8.00827 5.3677C8.16227 4.8397 8.37127 4.40337 8.63527 4.0587C8.9066 3.71403 9.22193 3.46103 9.58127 3.2997C9.9406 3.13103 10.3293 3.0467 10.7473 3.0467C11.1653 3.0467 11.5539 3.13103 11.9133 3.2997C12.2726 3.46103 12.5843 3.71403 12.8483 4.0587C13.1123 4.40337 13.3213 4.8397 13.4753 5.3677C13.6293 5.88837 13.7063 6.50803 13.7063 7.2267ZM12.6943 7.2267C12.6943 6.59603 12.6393 6.06803 12.5293 5.6427C12.4266 5.21003 12.2836 4.86537 12.1003 4.6087C11.9243 4.3447 11.7189 4.1577 11.4843 4.0477C11.2496 3.93037 11.0039 3.8717 10.7473 3.8717C10.4906 3.8717 10.2449 3.93037 10.0103 4.0477C9.7756 4.1577 9.57027 4.3447 9.39427 4.6087C9.21827 4.86537 9.07527 5.21003 8.96527 5.6427C8.8626 6.06803 8.81127 6.59603 8.81127 7.2267C8.81127 7.85003 8.8626 8.37803 8.96527 8.8107C9.07527 9.23603 9.21827 9.5807 9.39427 9.8447C9.57027 10.1087 9.7756 10.2994 10.0103 10.4167C10.2449 10.5267 10.4906 10.5817 10.7473 10.5817C11.0039 10.5817 11.2496 10.5267 11.4843 10.4167C11.7189 10.2994 11.9243 10.1087 12.1003 9.8447C12.2836 9.5807 12.4266 9.23603 12.5293 8.8107C12.6393 8.37803 12.6943 7.85003 12.6943 7.2267Z" fill="black" fill-opacity="0.6"/>
<path d="M6.88953 48.1211H1.47753V47.4171L4.26053 44.7441C4.4732 44.5168 4.66753 44.3041 4.84353 44.1061C5.02686 43.9008 5.18086 43.6954 5.30553 43.4901C5.43753 43.2848 5.5402 43.0794 5.61353 42.8741C5.68686 42.6614 5.72353 42.4378 5.72353 42.2031C5.70886 41.7191 5.5622 41.3634 5.28353 41.1361C5.00486 40.9014 4.65653 40.7841 4.23853 40.7841C4.0112 40.7841 3.79853 40.8244 3.60053 40.9051C3.40253 40.9784 3.2302 41.0884 3.08353 41.2351C2.9442 41.3744 2.8342 41.5394 2.75353 41.7301C2.67286 41.9208 2.63253 42.1334 2.63253 42.3681L1.64253 42.2031C1.69386 41.8291 1.79653 41.5028 1.95053 41.2241C2.10453 40.9381 2.2952 40.6998 2.52253 40.5091C2.7572 40.3111 3.02486 40.1644 3.32553 40.0691C3.6262 39.9664 3.94886 39.9151 4.29353 39.9151C4.6382 39.9151 4.9572 39.9664 5.25053 40.0691C5.5512 40.1718 5.81153 40.3221 6.03153 40.5201C6.25153 40.7108 6.42386 40.9454 6.54853 41.2241C6.6732 41.5028 6.73553 41.8218 6.73553 42.1811C6.73553 42.4818 6.69153 42.7604 6.60353 43.0171C6.51553 43.2738 6.39453 43.5231 6.24053 43.7651C6.08653 43.9998 5.90686 44.2308 5.70153 44.4581C5.4962 44.6781 5.27986 44.9018 5.05253 45.1291L2.79753 47.3621C2.95153 47.3181 3.10553 47.2851 3.25953 47.2631C3.42086 47.2411 3.5712 47.2301 3.71053 47.2301H6.88953V48.1211ZM13.7063 44.1061C13.7063 44.8174 13.6293 45.4371 13.4753 45.9651C13.3213 46.4858 13.1123 46.9184 12.8483 47.2631C12.5843 47.6078 12.2726 47.8644 11.9133 48.0331C11.5539 48.1944 11.1653 48.2751 10.7473 48.2751C10.3293 48.2751 9.9406 48.1944 9.58127 48.0331C9.22193 47.8644 8.9066 47.6078 8.63527 47.2631C8.37127 46.9184 8.16227 46.4858 8.00827 45.9651C7.8616 45.4371 7.78827 44.8174 7.78827 44.1061C7.78827 43.3874 7.8616 42.7678 8.00827 42.2471C8.16227 41.7191 8.37127 41.2828 8.63527 40.9381C8.9066 40.5934 9.22193 40.3404 9.58127 40.1791C9.9406 40.0104 10.3293 39.9261 10.7473 39.9261C11.1653 39.9261 11.5539 40.0104 11.9133 40.1791C12.2726 40.3404 12.5843 40.5934 12.8483 40.9381C13.1123 41.2828 13.3213 41.7191 13.4753 42.2471C13.6293 42.7678 13.7063 43.3874 13.7063 44.1061ZM12.6943 44.1061C12.6943 43.4754 12.6393 42.9474 12.5293 42.5221C12.4266 42.0894 12.2836 41.7448 12.1003 41.4881C11.9243 41.2241 11.7189 41.0371 11.4843 40.9271C11.2496 40.8098 11.0039 40.7511 10.7473 40.7511C10.4906 40.7511 10.2449 40.8098 10.0103 40.9271C9.7756 41.0371 9.57027 41.2241 9.39427 41.4881C9.21827 41.7448 9.07527 42.0894 8.96527 42.5221C8.8626 42.9474 8.81127 43.4754 8.81127 44.1061C8.81127 44.7294 8.8626 45.2574 8.96527 45.6901C9.07527 46.1154 9.21827 46.4601 9.39427 46.7241C9.57027 46.9881 9.7756 47.1788 10.0103 47.2961C10.2449 47.4061 10.4906 47.4611 10.7473 47.4611C11.0039 47.4611 11.2496 47.4061 11.4843 47.2961C11.7189 47.1788 11.9243 46.9881 12.1003 46.7241C12.2836 46.4601 12.4266 46.1154 12.5293 45.6901C12.6393 45.2574 12.6943 44.7294 12.6943 44.1061Z" fill="black" fill-opacity="0.6"/>
<path d="M13.7063 80.985C13.7063 81.6963 13.6293 82.316 13.4753 82.844C13.3213 83.3647 13.1123 83.7973 12.8483 84.142C12.5843 84.4867 12.2726 84.7433 11.9133 84.912C11.5539 85.0733 11.1653 85.154 10.7473 85.154C10.3293 85.154 9.9406 85.0733 9.58127 84.912C9.22193 84.7433 8.9066 84.4867 8.63527 84.142C8.37127 83.7973 8.16227 83.3647 8.00827 82.844C7.8616 82.316 7.78827 81.6963 7.78827 80.985C7.78827 80.2663 7.8616 79.6467 8.00827 79.126C8.16227 78.598 8.37127 78.1617 8.63527 77.817C8.9066 77.4723 9.22193 77.2193 9.58127 77.058C9.9406 76.8893 10.3293 76.805 10.7473 76.805C11.1653 76.805 11.5539 76.8893 11.9133 77.058C12.2726 77.2193 12.5843 77.4723 12.8483 77.817C13.1123 78.1617 13.3213 78.598 13.4753 79.126C13.6293 79.6467 13.7063 80.2663 13.7063 80.985ZM12.6943 80.985C12.6943 80.3543 12.6393 79.8263 12.5293 79.401C12.4266 78.9683 12.2836 78.6237 12.1003 78.367C11.9243 78.103 11.7189 77.916 11.4843 77.806C11.2496 77.6887 11.0039 77.63 10.7473 77.63C10.4906 77.63 10.2449 77.6887 10.0103 77.806C9.7756 77.916 9.57027 78.103 9.39427 78.367C9.21827 78.6237 9.07527 78.9683 8.96527 79.401C8.8626 79.8263 8.81127 80.3543 8.81127 80.985C8.81127 81.6083 8.8626 82.1363 8.96527 82.569C9.07527 82.9943 9.21827 83.339 9.39427 83.603C9.57027 83.867 9.7756 84.0577 10.0103 84.175C10.2449 84.285 10.4906 84.34 10.7473 84.34C11.0039 84.34 11.2496 84.285 11.4843 84.175C11.7189 84.0577 11.9243 83.867 12.1003 83.603C12.2836 83.339 12.4266 82.9943 12.5293 82.569C12.6393 82.1363 12.6943 81.6083 12.6943 80.985Z" fill="black" fill-opacity="0.6"/>
<path d="M21 88.0001H20V89.0001H21V88.0001ZM1808 87.0001H21V89.0001H1808V87.0001ZM22 88.0001V0.241699H20V88.0001H22Z" fill="white" fill-opacity="0.2" mask="url(#path-4-inside-1_5151_70800)"/>
<rect x="31.0928" y="52" width="6" height="36" fill="#27D4FF"/>
<rect x="41.0928" y="26" width="6" height="62" fill="#0077FF"/>
<rect x="51.0928" y="40" width="6" height="48" fill="#0E44E6"/>
<rect x="61.0928" y="61" width="6" height="27" fill="#6E3DFF"/>
<rect x="71.0928" y="52" width="6" height="36" fill="#8972FF"/>
<rect x="97.2783" y="49" width="6" height="39" fill="#27D4FF"/>
<rect x="107.278" y="33" width="6" height="55" fill="#0077FF"/>
<rect x="117.278" y="25" width="6" height="63" fill="#0E44E6"/>
<rect x="127.278" y="42" width="6" height="46" fill="#6E3DFF"/>
<rect x="137.278" y="61" width="6" height="27" fill="#8972FF"/>
<rect x="163.463" y="26" width="6" height="62" fill="#27D4FF"/>
<rect x="173.463" y="33" width="6" height="55" fill="#0077FF"/>
<rect x="183.463" y="46" width="6" height="42" fill="#0E44E6"/>
<rect x="193.463" y="58" width="6" height="30" fill="#6E3DFF"/>
<rect x="203.463" y="67" width="6" height="21" fill="#8972FF"/>
<rect x="229.648" y="26" width="6" height="62" fill="#27D4FF"/>
<rect x="239.648" y="56" width="6" height="32" fill="#0077FF"/>
<rect x="249.648" y="47" width="6" height="41" fill="#0E44E6"/>
<rect x="259.648" y="35" width="6" height="53" fill="#6E3DFF"/>
<rect x="269.648" y="58" width="6" height="30" fill="#8972FF"/>
<rect x="295.834" y="39" width="6" height="49" fill="#27D4FF"/>
<rect x="305.834" y="64" width="6" height="24" fill="#0077FF"/>
<rect x="315.834" y="52" width="6" height="36" fill="#0E44E6"/>
<rect x="325.834" y="31" width="6" height="57" fill="#6E3DFF"/>
<rect x="335.834" y="64" width="6" height="24" fill="#8972FF"/>
<rect x="362.019" y="39" width="6" height="49" fill="#27D4FF"/>
<rect x="372.019" y="32" width="6" height="56" fill="#0077FF"/>
<rect x="382.019" y="45" width="6" height="43" fill="#0E44E6"/>
<rect x="392.019" y="62" width="6" height="26" fill="#6E3DFF"/>
<rect x="402.019" y="57" width="6" height="31" fill="#8972FF"/>
<rect x="428.204" y="52" width="6" height="36" fill="#27D4FF"/>
<rect x="438.204" y="26" width="6" height="62" fill="#0077FF"/>
<rect x="448.204" y="40" width="6" height="48" fill="#0E44E6"/>
<rect x="458.204" y="70" width="6" height="18" fill="#6E3DFF"/>
<rect x="468.204" y="62" width="6" height="26" fill="#8972FF"/>
<rect x="494.389" y="49" width="6" height="39" fill="#27D4FF"/>
<rect x="504.389" y="33" width="6" height="55" fill="#0077FF"/>
<rect x="514.389" y="25" width="6" height="63" fill="#0E44E6"/>
<rect x="524.389" y="42" width="6" height="46" fill="#6E3DFF"/>
<rect x="534.389" y="61" width="6" height="27" fill="#8972FF"/>
<rect x="560.574" y="26" width="6" height="62" fill="#27D4FF"/>
<rect x="570.574" y="33" width="6" height="55" fill="#0077FF"/>
<rect x="580.574" y="46" width="6" height="42" fill="#0E44E6"/>
<rect x="590.574" y="55" width="6" height="33" fill="#6E3DFF"/>
<rect x="600.574" y="67" width="6" height="21" fill="#8972FF"/>
<rect x="626.76" y="26" width="6" height="62" fill="#27D4FF"/>
<rect x="636.76" y="56" width="6" height="32" fill="#0077FF"/>
<rect x="646.76" y="35" width="6" height="53" fill="#0E44E6"/>
<rect x="656.76" y="28" width="6" height="60" fill="#6E3DFF"/>
<rect x="666.76" y="47" width="6" height="41" fill="#8972FF"/>
<rect x="692.944" y="39" width="6" height="49" fill="#27D4FF"/>
<rect x="702.944" y="64" width="6" height="24" fill="#0077FF"/>
<rect x="712.944" y="52" width="6" height="36" fill="#8972FF"/>
<rect x="722.944" y="44" width="6" height="44" fill="#8972FF"/>
<rect x="732.944" y="29" width="6" height="59" fill="#8972FF"/>
<rect x="759.13" y="39" width="6" height="49" fill="#27D4FF"/>
<rect x="769.13" y="32" width="6" height="56" fill="#0077FF"/>
<rect x="779.13" y="45" width="6" height="43" fill="#0E44E6"/>
<rect x="789.13" y="59" width="6" height="29" fill="#6E3DFF"/>
<rect x="799.13" y="30" width="6" height="58" fill="#8972FF"/>
<rect x="825.315" y="52" width="6" height="36" fill="#27D4FF"/>
<rect x="835.315" y="26" width="6" height="62" fill="#0077FF"/>
<rect x="845.315" y="40" width="6" height="48" fill="#0E44E6"/>
<rect x="855.315" y="52" width="6" height="36" fill="#6E3DFF"/>
<rect x="865.315" y="65" width="6" height="23" fill="#8972FF"/>
<rect x="891.5" y="49" width="6" height="39" fill="#27D4FF"/>
<rect x="901.5" y="33" width="6" height="55" fill="#0077FF"/>
<rect x="911.5" y="25" width="6" height="63" fill="#0E44E6"/>
<rect x="921.5" y="15" width="6" height="73" fill="#6E3DFF"/>
<rect x="931.5" y="42" width="6" height="46" fill="#8972FF"/>
<rect x="957.686" y="26" width="6" height="62" fill="#27D4FF"/>
<rect x="967.686" y="33" width="6" height="55" fill="#0077FF"/>
<rect x="977.686" y="46" width="6" height="42" fill="#0E44E6"/>
<rect x="987.686" y="39" width="6" height="49" fill="#6E3DFF"/>
<rect x="997.686" y="59" width="6" height="29" fill="#8972FF"/>
<rect x="1023.87" y="26" width="6" height="62" fill="#27D4FF"/>
<rect x="1033.87" y="56" width="6" height="32" fill="#0077FF"/>
<rect x="1043.87" y="35" width="6" height="53" fill="#0E44E6"/>
<rect x="1053.87" y="47" width="6" height="41" fill="#6E3DFF"/>
<rect x="1063.87" y="22" width="6" height="66" fill="#8972FF"/>
<rect x="1090.06" y="39" width="6" height="49" fill="#27D4FF"/>
<rect x="1100.06" y="64" width="6" height="24" fill="#0077FF"/>
<rect x="1110.06" y="52" width="6" height="36" fill="#8972FF"/>
<rect x="1120.06" y="64" width="6" height="24" fill="#6E3DFF"/>
<rect x="1130.06" y="42" width="6" height="46" fill="#8972FF"/>
<rect x="1156.24" y="39" width="6" height="49" fill="#27D4FF"/>
<rect x="1166.24" y="32" width="6" height="56" fill="#0077FF"/>
<rect x="1176.24" y="45" width="6" height="43" fill="#0E44E6"/>
<rect x="1186.24" y="25" width="6" height="63" fill="#6E3DFF"/>
<rect x="1196.24" y="60" width="6" height="28" fill="#8972FF"/>
<rect x="1222.43" y="52" width="6" height="36" fill="#27D4FF"/>
<rect x="1232.43" y="26" width="6" height="62" fill="#0077FF"/>
<rect x="1242.43" y="40" width="6" height="48" fill="#8972FF"/>
<rect x="1252.43" y="52" width="6" height="36" fill="#6E3DFF"/>
<rect x="1262.43" y="65" width="6" height="23" fill="#8972FF"/>
<rect x="1288.61" y="49" width="6" height="39" fill="#27D4FF"/>
<rect x="1298.61" y="33" width="6" height="55" fill="#0077FF"/>
<rect x="1308.61" y="25" width="6" height="63" fill="#0E44E6"/>
<rect x="1318.61" y="15" width="6" height="73" fill="#6E3DFF"/>
<rect x="1328.61" y="7" width="6" height="81" fill="#8972FF"/>
<rect x="1354.8" y="26" width="6" height="62" fill="#27D4FF"/>
<rect x="1364.8" y="33" width="6" height="55" fill="#0077FF"/>
<rect x="1374.8" y="46" width="6" height="42" fill="#0E44E6"/>
<rect x="1384.8" y="59" width="6" height="29" fill="#6E3DFF"/>
<rect x="1394.8" y="72" width="6" height="16" fill="#8972FF"/>
<rect x="1420.98" y="26" width="6" height="62" fill="#27D4FF"/>
<rect x="1430.98" y="56" width="6" height="32" fill="#0077FF"/>
<rect x="1440.98" y="35" width="6" height="53" fill="#0E44E6"/>
<rect x="1450.98" y="51" width="6" height="37" fill="#6E3DFF"/>
<rect x="1460.98" y="26" width="6" height="62" fill="#8972FF"/>
<rect x="1487.17" y="39" width="6" height="49" fill="#27D4FF"/>
<rect x="1497.17" y="64" width="6" height="24" fill="#0077FF"/>
<rect x="1507.17" y="52" width="6" height="36" fill="#8972FF"/>
<rect x="1517.17" y="39" width="6" height="49" fill="#6E3DFF"/>
<rect x="1527.17" y="64" width="6" height="24" fill="#8972FF"/>
<rect x="1553.35" y="39" width="6" height="49" fill="#27D4FF"/>
<rect x="1563.35" y="32" width="6" height="56" fill="#0077FF"/>
<rect x="1573.35" y="45" width="6" height="43" fill="#8972FF"/>
<rect x="1583.35" y="61" width="6" height="27" fill="#6E3DFF"/>
<rect x="1593.35" y="29" width="6" height="59" fill="#8972FF"/>
<rect x="1619.54" y="49" width="6" height="39" fill="#27D4FF"/>
<rect x="1629.54" y="33" width="6" height="55" fill="#0077FF"/>
<rect x="1639.54" y="25" width="6" height="63" fill="#0E44E6"/>
<rect x="1649.54" y="43" width="6" height="45" fill="#6E3DFF"/>
<rect x="1659.54" y="59" width="6" height="29" fill="#8972FF"/>
<rect x="1685.72" y="26" width="6" height="62" fill="#27D4FF"/>
<rect x="1695.72" y="33" width="6" height="55" fill="#0077FF"/>
<rect x="1705.72" y="46" width="6" height="42" fill="#0E44E6"/>
<rect x="1715.72" y="26" width="6" height="62" fill="#6E3DFF"/>
<rect x="1725.72" y="56" width="6" height="32" fill="#8972FF"/>
<rect x="1751.91" y="39" width="6" height="49" fill="#27D4FF"/>
<rect x="1761.91" y="64" width="6" height="24" fill="#0077FF"/>
<rect x="1771.91" y="52" width="6" height="36" fill="#0E44E6"/>
<rect x="1781.91" y="45" width="6" height="43" fill="#6E3DFF"/>
<rect x="1791.91" y="31" width="6" height="57" fill="#8972FF"/>
<path d="M44.2489 96.499C43.5816 98.105 42.1626 99.2233 39.9919 99.854L39.6289 99.139C40.8242 98.787 41.7629 98.2957 42.4449 97.665C43.1342 97.0343 43.5229 96.2863 43.6109 95.421H40.1349V94.695H44.5899C44.5899 94.8783 44.5789 95.0617 44.5569 95.245C44.5422 95.421 44.5166 95.5933 44.4799 95.762H46.7129V93.958H47.6259V99.854H46.7129V98.556H44.1279V97.819H46.7129V96.499H44.2489ZM44.4029 99.964C44.9016 99.964 45.3526 100.008 45.7559 100.096C46.1592 100.184 46.5002 100.309 46.7789 100.47C47.0649 100.631 47.2849 100.829 47.4389 101.064C47.5929 101.299 47.6699 101.566 47.6699 101.867C47.6699 102.16 47.5929 102.428 47.4389 102.67C47.2849 102.905 47.0649 103.103 46.7789 103.264C46.5002 103.425 46.1592 103.55 45.7559 103.638C45.3526 103.726 44.9016 103.77 44.4029 103.77C43.9042 103.77 43.4532 103.726 43.0499 103.638C42.6466 103.55 42.3019 103.425 42.0159 103.264C41.7372 103.103 41.5209 102.905 41.3669 102.67C41.2129 102.428 41.1359 102.16 41.1359 101.867C41.1359 101.566 41.2129 101.299 41.3669 101.064C41.5209 100.829 41.7372 100.631 42.0159 100.47C42.3019 100.309 42.6466 100.184 43.0499 100.096C43.4532 100.008 43.9042 99.964 44.4029 99.964ZM44.4029 103.066C45.1289 103.066 45.7046 102.96 46.1299 102.747C46.5626 102.534 46.7789 102.241 46.7789 101.867C46.7789 101.493 46.5662 101.203 46.1409 100.998C45.7156 100.785 45.1362 100.679 44.4029 100.679C43.6696 100.679 43.0902 100.785 42.6649 100.998C42.2396 101.203 42.0269 101.493 42.0269 101.867C42.0269 102.241 42.2396 102.534 42.6649 102.747C43.0975 102.96 43.6769 103.066 44.4029 103.066ZM56.81 101.163V93.958H57.712V101.163H56.81ZM54.995 97.06C54.995 97.4193 54.929 97.7493 54.797 98.05C54.665 98.3433 54.4817 98.6 54.247 98.82C54.0197 99.0327 53.7484 99.2013 53.433 99.326C53.1177 99.4433 52.7767 99.502 52.41 99.502C52.0434 99.502 51.7024 99.4433 51.387 99.326C51.079 99.2013 50.8077 99.0327 50.573 98.82C50.3457 98.6 50.166 98.3433 50.034 98.05C49.9094 97.7493 49.847 97.4193 49.847 97.06C49.847 96.708 49.9094 96.3853 50.034 96.092C50.166 95.7913 50.3457 95.5347 50.573 95.322C50.8077 95.102 51.079 94.9333 51.387 94.816C51.7024 94.6987 52.0434 94.64 52.41 94.64C52.7767 94.64 53.1177 94.6987 53.433 94.816C53.7484 94.9333 54.0197 95.102 54.247 95.322C54.4817 95.5347 54.665 95.7913 54.797 96.092C54.929 96.3853 54.995 96.708 54.995 97.06ZM50.727 97.06C50.727 97.302 50.7674 97.5257 50.848 97.731C50.936 97.9363 51.0534 98.1123 51.2 98.259C51.354 98.4057 51.5337 98.5193 51.739 98.6C51.9444 98.6807 52.168 98.721 52.41 98.721C52.652 98.721 52.8757 98.6807 53.081 98.6C53.2937 98.5193 53.477 98.4057 53.631 98.259C53.785 98.1123 53.9024 97.9363 53.983 97.731C54.071 97.5257 54.115 97.302 54.115 97.06C54.115 96.818 54.071 96.598 53.983 96.4C53.9024 96.202 53.785 96.0297 53.631 95.883C53.477 95.7363 53.2937 95.6227 53.081 95.542C52.8757 95.4613 52.652 95.421 52.41 95.421C52.168 95.421 51.9444 95.4613 51.739 95.542C51.5337 95.6227 51.354 95.7363 51.2 95.883C51.0534 96.0297 50.936 96.202 50.848 96.4C50.7674 96.598 50.727 96.818 50.727 97.06ZM58.009 103.594H51.365V100.426H52.267V102.857H58.009V103.594ZM68.6892 102.593H59.7242V101.856H63.7392V99.997H60.8462V96.95H66.6982V95.41H60.8242V94.673H67.5782V97.676H61.7372V99.271H67.8092V99.997H64.6522V101.856H68.6892V102.593Z" fill="black" fill-opacity="0.6"/>
<path d="M109.555 99.546H100.623V98.82H104.638V97.676H101.745V94.398H108.444V95.124H102.647V96.95H108.51V97.676H105.54V98.82H109.555V99.546ZM105.089 100.25C105.61 100.25 106.079 100.29 106.497 100.371C106.915 100.444 107.267 100.558 107.553 100.712C107.846 100.866 108.07 101.053 108.224 101.273C108.378 101.493 108.455 101.746 108.455 102.032C108.455 102.318 108.378 102.571 108.224 102.791C108.07 103.011 107.846 103.198 107.553 103.352C107.267 103.506 106.915 103.62 106.497 103.693C106.079 103.774 105.61 103.814 105.089 103.814C104.033 103.814 103.204 103.66 102.603 103.352C102.002 103.044 101.701 102.604 101.701 102.032C101.701 101.46 102.002 101.02 102.603 100.712C103.204 100.404 104.033 100.25 105.089 100.25ZM105.089 103.11C105.866 103.11 106.468 103.018 106.893 102.835C107.326 102.652 107.542 102.384 107.542 102.032C107.542 101.68 107.326 101.412 106.893 101.229C106.468 101.046 105.866 100.954 105.089 100.954C104.29 100.954 103.677 101.046 103.252 101.229C102.827 101.412 102.614 101.68 102.614 102.032C102.614 102.384 102.827 102.652 103.252 102.835C103.677 103.018 104.29 103.11 105.089 103.11ZM118.86 98.435C118.479 98.369 118.101 98.27 117.727 98.138C117.36 97.9987 117.016 97.83 116.693 97.632C116.378 97.434 116.092 97.2103 115.835 96.961C115.578 96.7043 115.369 96.4257 115.208 96.125C115.054 96.4257 114.849 96.7043 114.592 96.961C114.335 97.2103 114.046 97.434 113.723 97.632C113.408 97.83 113.063 97.9987 112.689 98.138C112.322 98.27 111.948 98.369 111.567 98.435L111.204 97.709C111.659 97.643 112.095 97.5257 112.513 97.357C112.938 97.181 113.316 96.9683 113.646 96.719C113.976 96.4623 114.24 96.1763 114.438 95.861C114.636 95.5383 114.735 95.201 114.735 94.849V94.299H115.681V94.849C115.681 95.1937 115.78 95.5237 115.978 95.839C116.183 96.1543 116.451 96.4403 116.781 96.697C117.118 96.9537 117.5 97.17 117.925 97.346C118.35 97.522 118.787 97.643 119.234 97.709L118.86 98.435ZM115.637 100.25V103.825H114.735V100.25H110.753V99.502H119.663L119.674 100.25H115.637ZM122.038 97.863V94.178H122.929V95.3H127.725V94.178H128.616V97.863H122.038ZM122.929 96.004V97.148H127.725V96.004H122.929ZM125.767 100.668H128.682V103.825H127.78V101.394H121.851V100.668H124.865V99.513H120.85V98.776H129.782V99.513H125.767V100.668ZM139.934 102.593H130.969V101.856H134.984V99.997H132.091V96.95H137.943V95.41H132.069V94.673H138.823V97.676H132.982V99.271H139.054V99.997H135.897V101.856H139.934V102.593Z" fill="black" fill-opacity="0.6"/>
<path d="M175.739 99.546H166.807V98.82H170.822V97.676H167.929V94.398H174.628V95.124H168.831V96.95H174.694V97.676H171.724V98.82H175.739V99.546ZM171.273 100.25C171.794 100.25 172.263 100.29 172.681 100.371C173.099 100.444 173.451 100.558 173.737 100.712C174.031 100.866 174.254 101.053 174.408 101.273C174.562 101.493 174.639 101.746 174.639 102.032C174.639 102.318 174.562 102.571 174.408 102.791C174.254 103.011 174.031 103.198 173.737 103.352C173.451 103.506 173.099 103.62 172.681 103.693C172.263 103.774 171.794 103.814 171.273 103.814C170.217 103.814 169.389 103.66 168.787 103.352C168.186 103.044 167.885 102.604 167.885 102.032C167.885 101.46 168.186 101.02 168.787 100.712C169.389 100.404 170.217 100.25 171.273 100.25ZM171.273 103.11C172.051 103.11 172.652 103.018 173.077 102.835C173.51 102.652 173.726 102.384 173.726 102.032C173.726 101.68 173.51 101.412 173.077 101.229C172.652 101.046 172.051 100.954 171.273 100.954C170.474 100.954 169.862 101.046 169.436 101.229C169.011 101.412 168.798 101.68 168.798 102.032C168.798 102.384 169.011 102.652 169.436 102.835C169.862 103.018 170.474 103.11 171.273 103.11ZM184.121 99.007V93.947H185.023V99.007H184.121ZM182.251 96.499C182.251 96.8217 182.185 97.1187 182.053 97.39C181.928 97.654 181.752 97.8813 181.525 98.072C181.297 98.2627 181.026 98.413 180.711 98.523C180.403 98.6257 180.065 98.677 179.699 98.677C179.332 98.677 178.991 98.6257 178.676 98.523C178.368 98.413 178.1 98.2627 177.873 98.072C177.653 97.8813 177.477 97.654 177.345 97.39C177.22 97.1187 177.158 96.8217 177.158 96.499C177.158 96.169 177.22 95.872 177.345 95.608C177.477 95.3367 177.653 95.1057 177.873 94.915C178.1 94.717 178.368 94.5667 178.676 94.464C178.991 94.354 179.332 94.299 179.699 94.299C180.065 94.299 180.403 94.354 180.711 94.464C181.026 94.5667 181.297 94.717 181.525 94.915C181.752 95.1057 181.928 95.3367 182.053 95.608C182.185 95.872 182.251 96.169 182.251 96.499ZM178.027 96.499C178.027 96.7043 178.067 96.8987 178.148 97.082C178.236 97.258 178.353 97.412 178.5 97.544C178.654 97.6687 178.83 97.7677 179.028 97.841C179.233 97.9143 179.457 97.951 179.699 97.951C179.941 97.951 180.164 97.9143 180.37 97.841C180.575 97.7677 180.751 97.6687 180.898 97.544C181.044 97.412 181.158 97.258 181.239 97.082C181.327 96.8987 181.371 96.7043 181.371 96.499C181.371 96.2863 181.327 96.092 181.239 95.916C181.158 95.7327 181.044 95.5787 180.898 95.454C180.751 95.322 180.575 95.2193 180.37 95.146C180.164 95.0727 179.941 95.036 179.699 95.036C179.457 95.036 179.233 95.0727 179.028 95.146C178.83 95.2193 178.654 95.322 178.5 95.454C178.353 95.5787 178.236 95.7327 178.148 95.916C178.067 96.092 178.027 96.2863 178.027 96.499ZM185.353 103.682H178.654V101.207H184.132V100.206H178.632V99.491H185.023V101.878H179.545V102.967H185.353V103.682ZM194.702 96.961V99.524H193.8V93.947H194.702V96.213H196.165V96.961H194.702ZM192.909 98.336C192.065 98.5047 191.273 98.622 190.533 98.688C189.792 98.7467 189.048 98.776 188.3 98.776H187.53V94.442H188.421V98.017C189.132 98.0097 189.84 97.9767 190.544 97.918C191.248 97.8593 191.999 97.753 192.799 97.599L192.909 98.336ZM194.702 100.063V103.671H188.487V100.063H194.702ZM193.822 102.945V100.789H189.367V102.945H193.822ZM206.119 102.593H197.154V101.856H201.169V99.997H198.276V96.95H204.128V95.41H198.254V94.673H205.008V97.676H199.167V99.271H205.239V99.997H202.082V101.856H206.119V102.593Z" fill="black" fill-opacity="0.6"/>
<path d="M241.375 103.803H240.517V98.589H239.186V103.319H238.339V94.167H239.186V97.852H240.517V93.947H241.375V103.803ZM237.096 95.091V101.163H233.345V95.091H237.096ZM236.26 100.448V95.806H234.192V100.448H236.26ZM251.241 99.513C250.867 99.4323 250.493 99.3113 250.119 99.15C249.745 98.9813 249.393 98.7797 249.063 98.545C248.74 98.3103 248.447 98.0427 248.183 97.742C247.919 97.4413 247.706 97.115 247.545 96.763C247.384 97.115 247.171 97.4413 246.907 97.742C246.643 98.0427 246.346 98.3103 246.016 98.545C245.693 98.7797 245.345 98.9813 244.971 99.15C244.604 99.3113 244.23 99.4323 243.849 99.513L243.475 98.765C243.908 98.6917 244.337 98.5523 244.762 98.347C245.195 98.1343 245.58 97.8777 245.917 97.577C246.262 97.269 246.54 96.928 246.753 96.554C246.966 96.1727 247.072 95.7767 247.072 95.366V94.607H248.018V95.366C248.018 95.7767 248.124 96.1727 248.337 96.554C248.55 96.928 248.828 97.269 249.173 97.577C249.518 97.8777 249.903 98.1343 250.328 98.347C250.761 98.5523 251.193 98.6917 251.626 98.765L251.241 99.513ZM252.066 102.527H243.112V101.79H247.094V99.392H247.996V101.79H252.066V102.527ZM253.682 95.311V94.64H257.246V93.771H258.148V94.64H261.635V95.311H253.682ZM262.141 99.59H253.231V98.919H257.246V98.248C255.42 98.1893 254.507 97.764 254.507 96.972C254.507 96.1213 255.571 95.696 257.697 95.696C259.817 95.696 260.876 96.1213 260.876 96.972C260.876 97.3753 260.642 97.6833 260.172 97.896C259.71 98.1013 259.036 98.2187 258.148 98.248V98.919H262.141V99.59ZM255.442 96.972C255.442 97.4193 256.194 97.643 257.697 97.643C259.186 97.643 259.93 97.4193 259.93 96.972C259.93 96.5247 259.186 96.301 257.697 96.301C256.194 96.301 255.442 96.5247 255.442 96.972ZM261.305 103.033V103.704H254.331V101.614H260.095V100.877H254.298V100.228H261.008V102.241H255.233V103.033H261.305ZM272.304 102.593H263.339V101.856H267.354V99.997H264.461V96.95H270.313V95.41H264.439V94.673H271.193V97.676H265.352V99.271H271.424V99.997H268.267V101.856H272.304V102.593Z" fill="black" fill-opacity="0.6"/>
<path d="M300.312 98.336V94.497H306.978V98.336H300.312ZM301.192 95.223V97.621H306.087V95.223H301.192ZM304.074 100.415V103.803H303.172V100.415H299.168V99.678H308.122V100.415H304.074ZM317.68 103.814H316.822V93.936H317.68V103.814ZM315.579 94.189V103.319H314.721V98.006H312.521V97.258H314.721V94.189H315.579ZM310.673 100.536C311.201 100.529 311.721 100.507 312.235 100.47C312.748 100.426 313.291 100.345 313.863 100.228L313.984 100.987C313.338 101.119 312.73 101.207 312.158 101.251C311.586 101.295 311.003 101.317 310.409 101.317H309.782V95.003H310.673V100.536ZM327.491 103.836H326.589V93.947H327.491V103.836ZM324.521 101.328H319.989V94.915H324.521V101.328ZM320.869 100.613H323.641V95.641H320.869V100.613ZM338.49 102.593H329.525V101.856H333.54V99.997H330.647V96.95H336.499V95.41H330.625V94.673H337.379V97.676H331.538V99.271H337.61V99.997H334.453V101.856H338.49V102.593Z" fill="black" fill-opacity="0.6"/>
<path d="M378.75 99.865H377.881V97.258H376.627V99.821H375.769V94.134H376.627V96.521H377.881V93.958H378.75V99.865ZM370.863 99.172V94.585H371.721V96.136H373.844V94.585H374.691V99.172H370.863ZM371.721 96.851V98.446H373.844V96.851H371.721ZM378.75 100.47V103.814H377.848V101.196H372.117V100.47H378.75ZM388.671 99.667H387.758V97.181H385.481V99.117H381.037V94.508H381.928V96.07H384.59V94.497H385.481V96.444H387.758V93.958L388.671 93.947V99.667ZM381.928 96.785V98.391H384.59V96.785H381.928ZM388.671 100.173V103.682H382.258V100.173H388.671ZM387.791 102.956V100.888H383.138V102.956H387.791ZM399.615 102.593H390.65V101.856H394.665V99.997H391.772V96.95H397.624V95.41H391.75V94.673H398.504V97.676H392.663V99.271H398.735V99.997H395.578V101.856H399.615V102.593Z" fill="black" fill-opacity="0.6"/>
<path d="M441.954 99.744V94.145H442.812V96.499H444.066V93.958H444.935V100.657H444.066V97.236H442.812V99.744H441.954ZM441.074 99.238C440.612 99.0473 440.216 98.787 439.886 98.457C439.556 98.127 439.3 97.753 439.116 97.335C438.94 97.8043 438.68 98.237 438.335 98.633C437.998 99.029 437.587 99.3333 437.103 99.546L436.619 98.842C436.942 98.7027 437.228 98.523 437.477 98.303C437.734 98.0757 437.95 97.83 438.126 97.566C438.302 97.2947 438.438 97.0123 438.533 96.719C438.629 96.4257 438.676 96.1397 438.676 95.861V94.53H439.545V95.861C439.545 96.1323 439.589 96.4037 439.677 96.675C439.773 96.939 439.905 97.192 440.073 97.434C440.242 97.6687 440.451 97.8813 440.7 98.072C440.95 98.2627 441.232 98.4203 441.547 98.545L441.074 99.238ZM442.141 100.448C442.141 100.763 442.233 101.068 442.416 101.361C442.607 101.647 442.856 101.907 443.164 102.142C443.472 102.369 443.828 102.564 444.231 102.725C444.635 102.886 445.053 103 445.485 103.066L445.133 103.77C444.759 103.704 444.396 103.609 444.044 103.484C443.7 103.359 443.377 103.209 443.076 103.033C442.776 102.857 442.504 102.655 442.262 102.428C442.028 102.193 441.837 101.94 441.69 101.669C441.536 101.94 441.338 102.193 441.096 102.428C440.854 102.655 440.583 102.857 440.282 103.033C439.989 103.209 439.67 103.359 439.325 103.484C438.981 103.609 438.621 103.704 438.247 103.77L437.895 103.066C438.328 103 438.746 102.886 439.149 102.725C439.553 102.564 439.908 102.369 440.216 102.142C440.524 101.907 440.77 101.647 440.953 101.361C441.137 101.068 441.228 100.763 441.228 100.448V100.184H442.141V100.448ZM453.437 97.236C453.525 96.774 453.577 96.3743 453.591 96.037C453.613 95.6997 453.624 95.377 453.624 95.069H447.794V94.343H454.515V94.981C454.515 95.2963 454.508 95.6447 454.493 96.026C454.479 96.4073 454.424 96.84 454.328 97.324L453.437 97.236ZM455.637 98.6H446.749V97.885H450.39V96.169H451.292V97.885H455.637V98.6ZM454.801 102.978V103.693H447.816V101.218H453.657V100.228H447.783V99.513H454.559V101.878H448.707V102.978H454.801ZM465.8 102.593H456.835V101.856H460.85V99.997H457.957V96.95H463.809V95.41H457.935V94.673H464.689V97.676H458.848V99.271H464.92V99.997H461.763V101.856H465.8V102.593Z" fill="black" fill-opacity="0.6"/>
<path d="M510.922 99.777H510.009V96.752H507.864V96.015H510.009V93.958H510.922V99.777ZM508.073 99.359C507.523 99.1463 507.046 98.8457 506.643 98.457C506.239 98.0683 505.931 97.61 505.719 97.082C505.506 97.6613 505.191 98.1637 504.773 98.589C504.355 99.0143 503.856 99.3443 503.277 99.579L502.804 98.853C503.178 98.721 503.515 98.5413 503.816 98.314C504.116 98.0867 504.373 97.8263 504.586 97.533C504.798 97.2397 504.96 96.9207 505.07 96.576C505.187 96.224 505.246 95.861 505.246 95.487V94.442H506.148V95.52C506.148 95.85 506.206 96.1763 506.324 96.499C506.441 96.8217 506.606 97.1223 506.819 97.401C507.031 97.6723 507.284 97.918 507.578 98.138C507.871 98.3507 508.197 98.5193 508.557 98.644L508.073 99.359ZM510.922 100.327V103.825H510.009V101.053H504.311V100.327H510.922ZM517.664 96.499C516.997 98.105 515.578 99.2233 513.407 99.854L513.044 99.139C514.239 98.787 515.178 98.2957 515.86 97.665C516.549 97.0343 516.938 96.2863 517.026 95.421H513.55V94.695H518.005C518.005 94.8783 517.994 95.0617 517.972 95.245C517.957 95.421 517.932 95.5933 517.895 95.762H520.128V93.958H521.041V99.854H520.128V98.556H517.543V97.819H520.128V96.499H517.664ZM517.818 99.964C518.317 99.964 518.768 100.008 519.171 100.096C519.574 100.184 519.915 100.309 520.194 100.47C520.48 100.631 520.7 100.829 520.854 101.064C521.008 101.299 521.085 101.566 521.085 101.867C521.085 102.16 521.008 102.428 520.854 102.67C520.7 102.905 520.48 103.103 520.194 103.264C519.915 103.425 519.574 103.55 519.171 103.638C518.768 103.726 518.317 103.77 517.818 103.77C517.319 103.77 516.868 103.726 516.465 103.638C516.062 103.55 515.717 103.425 515.431 103.264C515.152 103.103 514.936 102.905 514.782 102.67C514.628 102.428 514.551 102.16 514.551 101.867C514.551 101.566 514.628 101.299 514.782 101.064C514.936 100.829 515.152 100.631 515.431 100.47C515.717 100.309 516.062 100.184 516.465 100.096C516.868 100.008 517.319 99.964 517.818 99.964ZM517.818 103.066C518.544 103.066 519.12 102.96 519.545 102.747C519.978 102.534 520.194 102.241 520.194 101.867C520.194 101.493 519.981 101.203 519.556 100.998C519.131 100.785 518.551 100.679 517.818 100.679C517.085 100.679 516.505 100.785 516.08 100.998C515.655 101.203 515.442 101.493 515.442 101.867C515.442 102.241 515.655 102.534 516.08 102.747C516.513 102.96 517.092 103.066 517.818 103.066ZM531.985 102.593H523.02V101.856H527.035V99.997H524.142V96.95H529.994V95.41H524.12V94.673H530.874V97.676H525.033V99.271H531.105V99.997H527.948V101.856H531.985V102.593Z" fill="black" fill-opacity="0.6"/>
<path d="M577.107 99.777H576.194V96.752H574.049V96.015H576.194V93.958H577.107V99.777ZM574.258 99.359C573.708 99.1463 573.232 98.8457 572.828 98.457C572.425 98.0683 572.117 97.61 571.904 97.082C571.692 97.6613 571.376 98.1637 570.958 98.589C570.54 99.0143 570.042 99.3443 569.462 99.579L568.989 98.853C569.363 98.721 569.701 98.5413 570.001 98.314C570.302 98.0867 570.559 97.8263 570.771 97.533C570.984 97.2397 571.145 96.9207 571.255 96.576C571.373 96.224 571.431 95.861 571.431 95.487V94.442H572.333V95.52C572.333 95.85 572.392 96.1763 572.509 96.499C572.627 96.8217 572.792 97.1223 573.004 97.401C573.217 97.6723 573.47 97.918 573.763 98.138C574.057 98.3507 574.383 98.5193 574.742 98.644L574.258 99.359ZM577.107 100.327V103.825H576.194V101.053H570.496V100.327H577.107ZM588.216 97.72H586.753V101.229H585.851V93.936H586.753V96.972H588.216V97.72ZM584.399 99.623C583.842 99.4177 583.354 99.1207 582.936 98.732C582.526 98.3433 582.21 97.885 581.99 97.357C581.785 97.951 581.47 98.4643 581.044 98.897C580.626 99.3223 580.12 99.645 579.526 99.865L579.053 99.15C579.427 99.018 579.765 98.8383 580.065 98.611C580.373 98.3837 580.634 98.1233 580.846 97.83C581.066 97.5367 581.231 97.214 581.341 96.862C581.459 96.51 581.517 96.1433 581.517 95.762V94.541H582.419V95.784C582.419 96.1213 582.478 96.4513 582.595 96.774C582.713 97.0893 582.878 97.3827 583.09 97.654C583.303 97.9253 583.56 98.171 583.86 98.391C584.161 98.6037 584.491 98.776 584.85 98.908L584.399 99.623ZM587.182 102.857V103.594H580.637V100.536H581.539V102.857H587.182ZM598.171 102.593H589.206V101.856H593.221V99.997H590.328V96.95H596.18V95.41H590.306V94.673H597.06V97.676H591.219V99.271H597.291V99.997H594.134V101.856H598.171V102.593Z" fill="black" fill-opacity="0.6"/>
<path d="M635.164 97.016V96.268H637.32V93.958H638.233V101.328H637.32V97.016H635.164ZM635.395 99.689C634.845 99.4763 634.369 99.1683 633.965 98.765C633.562 98.3543 633.254 97.8813 633.041 97.346C632.829 97.94 632.51 98.4607 632.084 98.908C631.666 99.348 631.168 99.6853 630.588 99.92L630.115 99.205C630.482 99.073 630.816 98.8897 631.116 98.655C631.424 98.4203 631.685 98.1527 631.897 97.852C632.117 97.544 632.286 97.214 632.403 96.862C632.521 96.5027 632.579 96.136 632.579 95.762V94.541H633.481V95.795C633.481 96.1397 633.54 96.477 633.657 96.807C633.775 97.1297 633.936 97.434 634.141 97.72C634.354 97.9987 634.607 98.248 634.9 98.468C635.194 98.688 635.516 98.864 635.868 98.996L635.395 99.689ZM638.464 103.594H631.886V100.514H632.788V102.857H638.464V103.594ZM648.341 98.435C647.96 98.369 647.582 98.27 647.208 98.138C646.842 97.9987 646.497 97.83 646.174 97.632C645.859 97.434 645.573 97.2103 645.316 96.961C645.06 96.7043 644.851 96.4257 644.689 96.125C644.535 96.4257 644.33 96.7043 644.073 96.961C643.817 97.2103 643.527 97.434 643.204 97.632C642.889 97.83 642.544 97.9987 642.17 98.138C641.804 98.27 641.43 98.369 641.048 98.435L640.685 97.709C641.14 97.643 641.576 97.5257 641.994 97.357C642.42 97.181 642.797 96.9683 643.127 96.719C643.457 96.4623 643.721 96.1763 643.919 95.861C644.117 95.5383 644.216 95.201 644.216 94.849V94.299H645.162V94.849C645.162 95.1937 645.261 95.5237 645.459 95.839C645.665 96.1543 645.932 96.4403 646.262 96.697C646.6 96.9537 646.981 97.17 647.406 97.346C647.832 97.522 648.268 97.643 648.715 97.709L648.341 98.435ZM645.118 100.25V103.825H644.216V100.25H640.234V99.502H649.144L649.155 100.25H645.118ZM657.559 93.958H658.472V101.317H657.559V97.731H655.568V96.983H657.559V93.958ZM655.733 99.931C655.161 99.7403 654.662 99.4617 654.237 99.095C653.819 98.721 653.496 98.281 653.269 97.775C653.056 98.325 652.737 98.8017 652.312 99.205C651.894 99.601 651.395 99.9017 650.816 100.107L650.365 99.403C650.731 99.2783 651.065 99.1133 651.366 98.908C651.666 98.6953 651.923 98.4533 652.136 98.182C652.348 97.9107 652.513 97.6173 652.631 97.302C652.748 96.9793 652.807 96.6457 652.807 96.301V95.993H650.618V95.267H652.807V94.013H653.709V95.267H655.887V95.993H653.709V96.301C653.709 96.631 653.767 96.9463 653.885 97.247C654.009 97.5477 654.178 97.8263 654.391 98.083C654.611 98.3323 654.871 98.556 655.172 98.754C655.48 98.9447 655.813 99.0987 656.173 99.216L655.733 99.931ZM658.747 103.594H652.158V100.657H653.071V102.857H658.747V103.594ZM669.416 102.593H660.451V101.856H664.466V99.997H661.573V96.95H667.425V95.41H661.551V94.673H668.305V97.676H662.464V99.271H668.536V99.997H665.379V101.856H669.416V102.593Z" fill="black" fill-opacity="0.6"/>
<path d="M709.389 97.918C709.015 97.852 708.645 97.7567 708.278 97.632C707.919 97.5 707.582 97.346 707.266 97.17C706.951 96.9867 706.665 96.7777 706.408 96.543C706.159 96.301 705.957 96.037 705.803 95.751C705.649 96.037 705.448 96.301 705.198 96.543C704.949 96.7777 704.667 96.9867 704.351 97.17C704.036 97.346 703.695 97.5 703.328 97.632C702.969 97.7567 702.602 97.852 702.228 97.918L701.887 97.192C702.327 97.1333 702.753 97.0233 703.163 96.862C703.581 96.7007 703.952 96.5027 704.274 96.268C704.597 96.0333 704.854 95.7693 705.044 95.476C705.242 95.1827 705.341 94.871 705.341 94.541V94.101H706.265V94.541C706.265 94.871 706.361 95.1827 706.551 95.476C706.749 95.7693 707.01 96.0333 707.332 96.268C707.662 96.5027 708.033 96.7007 708.443 96.862C708.861 97.0233 709.29 97.1333 709.73 97.192L709.389 97.918ZM710.302 99.634H701.348V98.897H705.352V97.401H706.254V98.897H710.302V99.634ZM709.169 100.591V103.825H708.267V101.328H702.338V100.591H709.169ZM718.178 97.236C718.266 96.774 718.317 96.3743 718.332 96.037C718.354 95.6997 718.365 95.377 718.365 95.069H712.535V94.343H719.256V94.981C719.256 95.2963 719.248 95.6447 719.234 96.026C719.219 96.4073 719.164 96.84 719.069 97.324L718.178 97.236ZM720.378 98.6H711.49V97.885H715.131V96.169H716.033V97.885H720.378V98.6ZM719.542 102.978V103.693H712.557V101.218H718.398V100.228H712.524V99.513H719.3V101.878H713.448V102.978H719.542ZM730.541 102.593H721.576V101.856H725.591V99.997H722.698V96.95H728.55V95.41H722.676V94.673H729.43V97.676H723.589V99.271H729.661V99.997H726.504V101.856H730.541V102.593Z" fill="black" fill-opacity="0.6"/>
<path d="M770.592 98.435C770.211 98.369 769.833 98.27 769.459 98.138C769.093 97.9987 768.748 97.83 768.425 97.632C768.11 97.434 767.824 97.2103 767.567 96.961C767.311 96.7043 767.102 96.4257 766.94 96.125C766.786 96.4257 766.581 96.7043 766.324 96.961C766.068 97.2103 765.778 97.434 765.455 97.632C765.14 97.83 764.795 97.9987 764.421 98.138C764.055 98.27 763.681 98.369 763.299 98.435L762.936 97.709C763.391 97.643 763.827 97.5257 764.245 97.357C764.671 97.181 765.048 96.9683 765.378 96.719C765.708 96.4623 765.972 96.1763 766.17 95.861C766.368 95.5383 766.467 95.201 766.467 94.849V94.299H767.413V94.849C767.413 95.1937 767.512 95.5237 767.71 95.839C767.916 96.1543 768.183 96.4403 768.513 96.697C768.851 96.9537 769.232 97.17 769.657 97.346C770.083 97.522 770.519 97.643 770.966 97.709L770.592 98.435ZM767.369 100.25V103.825H766.467V100.25H762.485V99.502H771.395L771.406 100.25H767.369ZM781.515 99.623H772.583V98.886H776.609V97.841H773.771V94.211H774.662V95.311H779.458V94.211H780.349V97.841H777.511V98.886H781.515V99.623ZM779.458 97.126V96.004H774.662V97.126H779.458ZM777.06 100.36C777.58 100.36 778.05 100.4 778.468 100.481C778.886 100.554 779.238 100.664 779.524 100.811C779.817 100.958 780.041 101.137 780.195 101.35C780.349 101.563 780.426 101.808 780.426 102.087C780.426 102.358 780.349 102.604 780.195 102.824C780.041 103.037 779.817 103.213 779.524 103.352C779.238 103.499 778.886 103.609 778.468 103.682C778.05 103.763 777.58 103.803 777.06 103.803C776.004 103.803 775.175 103.653 774.574 103.352C773.972 103.059 773.672 102.637 773.672 102.087C773.672 101.53 773.972 101.104 774.574 100.811C775.175 100.51 776.004 100.36 777.06 100.36ZM777.06 103.11C777.837 103.11 778.438 103.022 778.864 102.846C779.296 102.67 779.513 102.417 779.513 102.087C779.513 101.757 779.296 101.504 778.864 101.328C778.438 101.145 777.837 101.053 777.06 101.053C776.26 101.053 775.648 101.145 775.223 101.328C774.797 101.504 774.585 101.757 774.585 102.087C774.585 102.417 774.797 102.67 775.223 102.846C775.648 103.022 776.26 103.11 777.06 103.11ZM790.369 96.961V99.524H789.467V93.947H790.369V96.213H791.832V96.961H790.369ZM788.576 98.336C787.732 98.5047 786.94 98.622 786.2 98.688C785.459 98.7467 784.715 98.776 783.967 98.776H783.197V94.442H784.088V98.017C784.799 98.0097 785.507 97.9767 786.211 97.918C786.915 97.8593 787.666 97.753 788.466 97.599L788.576 98.336ZM790.369 100.063V103.671H784.154V100.063H790.369ZM789.489 102.945V100.789H785.034V102.945H789.489ZM801.786 102.593H792.821V101.856H796.836V99.997H793.943V96.95H799.795V95.41H793.921V94.673H800.675V97.676H794.834V99.271H800.906V99.997H797.749V101.856H801.786V102.593Z" fill="black" fill-opacity="0.6"/>
<path d="M841.838 98.435C841.456 98.369 841.079 98.27 840.705 98.138C840.338 97.9987 839.993 97.83 839.671 97.632C839.355 97.434 839.069 97.2103 838.813 96.961C838.556 96.7043 838.347 96.4257 838.186 96.125C838.032 96.4257 837.826 96.7043 837.57 96.961C837.313 97.2103 837.023 97.434 836.701 97.632C836.385 97.83 836.041 97.9987 835.667 98.138C835.3 98.27 834.926 98.369 834.545 98.435L834.182 97.709C834.636 97.643 835.073 97.5257 835.491 97.357C835.916 97.181 836.294 96.9683 836.624 96.719C836.954 96.4623 837.218 96.1763 837.416 95.861C837.614 95.5383 837.713 95.201 837.713 94.849V94.299H838.659V94.849C838.659 95.1937 838.758 95.5237 838.956 95.839C839.161 96.1543 839.429 96.4403 839.759 96.697C840.096 96.9537 840.477 97.17 840.903 97.346C841.328 97.522 841.764 97.643 842.212 97.709L841.838 98.435ZM838.615 100.25V103.825H837.713V100.25H833.731V99.502H842.641L842.652 100.25H838.615ZM852.76 99.623H843.828V98.886H847.854V97.841H845.016V94.211H845.907V95.311H850.703V94.211H851.594V97.841H848.756V98.886H852.76V99.623ZM850.703 97.126V96.004H845.907V97.126H850.703ZM848.305 100.36C848.825 100.36 849.295 100.4 849.713 100.481C850.131 100.554 850.483 100.664 850.769 100.811C851.062 100.958 851.286 101.137 851.44 101.35C851.594 101.563 851.671 101.808 851.671 102.087C851.671 102.358 851.594 102.604 851.44 102.824C851.286 103.037 851.062 103.213 850.769 103.352C850.483 103.499 850.131 103.609 849.713 103.682C849.295 103.763 848.825 103.803 848.305 103.803C847.249 103.803 846.42 103.653 845.819 103.352C845.217 103.059 844.917 102.637 844.917 102.087C844.917 101.53 845.217 101.104 845.819 100.811C846.42 100.51 847.249 100.36 848.305 100.36ZM848.305 103.11C849.082 103.11 849.683 103.022 850.109 102.846C850.541 102.67 850.758 102.417 850.758 102.087C850.758 101.757 850.541 101.504 850.109 101.328C849.683 101.145 849.082 101.053 848.305 101.053C847.505 101.053 846.893 101.145 846.468 101.328C846.042 101.504 845.83 101.757 845.83 102.087C845.83 102.417 846.042 102.67 846.468 102.846C846.893 103.022 847.505 103.11 848.305 103.11ZM862.912 102.593H853.947V101.856H857.962V99.997H855.069V96.95H860.921V95.41H855.047V94.673H861.801V97.676H855.96V99.271H862.032V99.997H858.875V101.856H862.912V102.593Z" fill="black" fill-opacity="0.6"/>
<path d="M903.964 97.698H902.501V101.207H901.599V93.947H902.501V96.95H903.964V97.698ZM900.18 97.071C900.18 97.4303 900.114 97.7603 899.982 98.061C899.857 98.3543 899.677 98.611 899.443 98.831C899.215 99.0437 898.944 99.2087 898.629 99.326C898.313 99.4433 897.972 99.502 897.606 99.502C897.239 99.502 896.898 99.4433 896.583 99.326C896.267 99.2087 895.992 99.0437 895.758 98.831C895.53 98.611 895.351 98.3543 895.219 98.061C895.094 97.7603 895.032 97.4303 895.032 97.071C895.032 96.7117 895.094 96.3853 895.219 96.092C895.351 95.7913 895.53 95.5347 895.758 95.322C895.992 95.102 896.267 94.9333 896.583 94.816C896.898 94.6987 897.239 94.64 897.606 94.64C897.972 94.64 898.313 94.6987 898.629 94.816C898.944 94.9333 899.215 95.102 899.443 95.322C899.677 95.5347 899.857 95.7913 899.982 96.092C900.114 96.3853 900.18 96.7117 900.18 97.071ZM895.912 97.071C895.912 97.313 895.952 97.5367 896.033 97.742C896.121 97.94 896.242 98.1123 896.396 98.259C896.55 98.4057 896.729 98.5193 896.935 98.6C897.14 98.6807 897.364 98.721 897.606 98.721C897.848 98.721 898.071 98.6807 898.277 98.6C898.482 98.5193 898.662 98.4057 898.816 98.259C898.97 98.1123 899.087 97.94 899.168 97.742C899.256 97.5367 899.3 97.313 899.3 97.071C899.3 96.829 899.256 96.609 899.168 96.411C899.087 96.2057 898.97 96.0297 898.816 95.883C898.662 95.7363 898.482 95.6227 898.277 95.542C898.071 95.4613 897.848 95.421 897.606 95.421C897.364 95.421 897.14 95.4613 896.935 95.542C896.729 95.6227 896.55 95.7363 896.396 95.883C896.242 96.0297 896.121 96.2057 896.033 96.411C895.952 96.609 895.912 96.829 895.912 97.071ZM902.941 102.857V103.594H896.363V100.47H897.265V102.857H902.941ZM905.503 98.028C905.935 97.962 906.353 97.8483 906.757 97.687C907.167 97.5183 907.534 97.3167 907.857 97.082C908.179 96.84 908.436 96.5723 908.627 96.279C908.825 95.9783 908.924 95.6667 908.924 95.344V95.289H905.811V94.563H913.016V95.289H909.925V95.344C909.925 95.6667 910.02 95.9783 910.211 96.279C910.409 96.5723 910.669 96.84 910.992 97.082C911.314 97.3167 911.681 97.5183 912.092 97.687C912.51 97.8483 912.935 97.962 913.368 98.028L913.016 98.743C912.634 98.677 912.26 98.578 911.894 98.446C911.527 98.314 911.186 98.1527 910.871 97.962C910.555 97.764 910.273 97.544 910.024 97.302C909.774 97.0527 909.576 96.7813 909.43 96.488C909.276 96.7813 909.074 97.0527 908.825 97.302C908.575 97.544 908.293 97.764 907.978 97.962C907.67 98.1527 907.332 98.314 906.966 98.446C906.606 98.578 906.232 98.677 905.844 98.743L905.503 98.028ZM909.859 100.305V103.814H908.957V100.305H904.975V99.568H913.885L913.896 100.305H909.859ZM923.465 103.814H922.596V98.644H921.199V103.319H920.352V94.167H921.199V97.907H922.596V93.947H923.465V103.814ZM916.326 100.635C916.656 100.635 916.964 100.631 917.25 100.624C917.536 100.609 917.811 100.591 918.075 100.569C918.346 100.547 918.61 100.518 918.867 100.481C919.131 100.444 919.395 100.397 919.659 100.338L919.736 101.086C919.442 101.152 919.156 101.207 918.878 101.251C918.599 101.288 918.313 101.317 918.02 101.339C917.726 101.354 917.422 101.365 917.107 101.372C916.791 101.379 916.45 101.383 916.084 101.383H915.435V95.146H919.109V95.883H916.326V100.635ZM934.156 102.593H925.191V101.856H929.206V99.997H926.313V96.95H932.165V95.41H926.291V94.673H933.045V97.676H927.204V99.271H933.276V99.997H930.119V101.856H934.156V102.593Z" fill="black" fill-opacity="0.6"/>
<path d="M969.159 103.836H968.257V100.008H965.793C965.588 100.514 965.302 100.906 964.935 101.185C964.576 101.456 964.154 101.592 963.67 101.592C963.311 101.592 962.981 101.511 962.68 101.35C962.379 101.189 962.119 100.958 961.899 100.657C961.679 100.356 961.507 99.997 961.382 99.579C961.265 99.1537 961.206 98.677 961.206 98.149C961.206 97.621 961.265 97.148 961.382 96.73C961.507 96.3047 961.679 95.9417 961.899 95.641C962.119 95.3403 962.379 95.1093 962.68 94.948C962.981 94.7867 963.311 94.706 963.67 94.706C964.132 94.706 964.535 94.8343 964.88 95.091C965.232 95.3403 965.514 95.696 965.727 96.158H968.257V93.947H969.159V103.836ZM963.67 100.789C963.905 100.789 964.117 100.727 964.308 100.602C964.506 100.477 964.675 100.301 964.814 100.074C964.961 99.8393 965.074 99.5607 965.155 99.238C965.236 98.9153 965.276 98.5523 965.276 98.149C965.276 97.753 965.236 97.3937 965.155 97.071C965.074 96.741 964.961 96.4623 964.814 96.235C964.675 96.0077 964.506 95.8317 964.308 95.707C964.117 95.5823 963.905 95.52 963.67 95.52C963.435 95.52 963.219 95.5823 963.021 95.707C962.823 95.8317 962.651 96.0077 962.504 96.235C962.365 96.4623 962.255 96.741 962.174 97.071C962.101 97.3937 962.064 97.753 962.064 98.149C962.064 98.5523 962.101 98.9153 962.174 99.238C962.255 99.5607 962.365 99.8393 962.504 100.074C962.651 100.301 962.823 100.477 963.021 100.602C963.219 100.727 963.435 100.789 963.67 100.789ZM968.257 96.895H965.98C966.024 97.0857 966.057 97.2873 966.079 97.5C966.108 97.7053 966.123 97.9217 966.123 98.149C966.123 98.611 966.086 98.985 966.013 99.271H968.257V96.895ZM975.593 98.666C975.08 98.666 974.611 98.6147 974.185 98.512C973.767 98.4093 973.404 98.2663 973.096 98.083C972.796 97.8923 972.561 97.665 972.392 97.401C972.231 97.1297 972.15 96.829 972.15 96.499C972.15 96.169 972.231 95.872 972.392 95.608C972.561 95.344 972.796 95.1203 973.096 94.937C973.404 94.7463 973.767 94.5997 974.185 94.497C974.611 94.3943 975.08 94.343 975.593 94.343C976.107 94.343 976.576 94.3943 977.001 94.497C977.427 94.5997 977.79 94.7463 978.09 94.937C978.391 95.1203 978.626 95.344 978.794 95.608C978.963 95.872 979.047 96.169 979.047 96.499C979.047 96.829 978.963 97.1297 978.794 97.401C978.626 97.665 978.391 97.8923 978.09 98.083C977.79 98.2663 977.427 98.4093 977.001 98.512C976.576 98.6147 976.107 98.666 975.593 98.666ZM975.593 95.069C975.219 95.069 974.878 95.102 974.57 95.168C974.262 95.234 973.995 95.3293 973.767 95.454C973.547 95.5787 973.375 95.729 973.25 95.905C973.133 96.081 973.074 96.279 973.074 96.499C973.074 96.719 973.133 96.917 973.25 97.093C973.375 97.269 973.547 97.423 973.767 97.555C973.995 97.6797 974.262 97.775 974.57 97.841C974.878 97.907 975.219 97.94 975.593 97.94C975.967 97.94 976.308 97.907 976.616 97.841C976.932 97.775 977.199 97.6797 977.419 97.555C977.647 97.423 977.819 97.269 977.936 97.093C978.061 96.917 978.123 96.719 978.123 96.499C978.123 96.279 978.061 96.081 977.936 95.905C977.819 95.729 977.647 95.5787 977.419 95.454C977.199 95.3293 976.932 95.234 976.616 95.168C976.308 95.102 975.967 95.069 975.593 95.069ZM976.044 100.349V103.825H975.142V100.349H971.149V99.601H980.081V100.349H976.044ZM989.65 103.803H988.781V93.936H989.65V103.803ZM987.659 94.167V103.297H986.801V98.226H985.173V97.489H986.801V94.167H987.659ZM984.161 96.73C984.161 97.1553 984.205 97.5807 984.293 98.006C984.389 98.424 984.524 98.82 984.7 99.194C984.876 99.5607 985.096 99.8943 985.36 100.195C985.624 100.496 985.925 100.741 986.262 100.932L985.712 101.592C985.228 101.306 984.818 100.917 984.48 100.426C984.15 99.9273 983.901 99.3553 983.732 98.71C983.564 99.3993 983.303 100.015 982.951 100.558C982.607 101.101 982.189 101.526 981.697 101.834L981.147 101.163C981.492 100.958 981.796 100.697 982.06 100.382C982.332 100.059 982.559 99.7037 982.742 99.315C982.926 98.9263 983.061 98.512 983.149 98.072C983.245 97.632 983.292 97.1847 983.292 96.73V95.839H981.422V95.102H985.921V95.839H984.161V96.73ZM1000.34 102.593H991.377V101.856H995.392V99.997H992.499V96.95H998.351V95.41H992.477V94.673H999.231V97.676H993.39V99.271H999.462V99.997H996.305V101.856H1000.34V102.593Z" fill="black" fill-opacity="0.6"/>
<path d="M1040.4 103.836H1039.5V100.008H1037.04C1036.83 100.514 1036.55 100.906 1036.18 101.185C1035.82 101.456 1035.4 101.592 1034.91 101.592C1034.55 101.592 1034.22 101.511 1033.92 101.35C1033.62 101.189 1033.36 100.958 1033.14 100.657C1032.92 100.356 1032.75 99.997 1032.63 99.579C1032.51 99.1537 1032.45 98.677 1032.45 98.149C1032.45 97.621 1032.51 97.148 1032.63 96.73C1032.75 96.3047 1032.92 95.9417 1033.14 95.641C1033.36 95.3403 1033.62 95.1093 1033.92 94.948C1034.22 94.7867 1034.55 94.706 1034.91 94.706C1035.38 94.706 1035.78 94.8343 1036.12 95.091C1036.48 95.3403 1036.76 95.696 1036.97 96.158H1039.5V93.947H1040.4V103.836ZM1034.91 100.789C1035.15 100.789 1035.36 100.727 1035.55 100.602C1035.75 100.477 1035.92 100.301 1036.06 100.074C1036.2 99.8393 1036.32 99.5607 1036.4 99.238C1036.48 98.9153 1036.52 98.5523 1036.52 98.149C1036.52 97.753 1036.48 97.3937 1036.4 97.071C1036.32 96.741 1036.2 96.4623 1036.06 96.235C1035.92 96.0077 1035.75 95.8317 1035.55 95.707C1035.36 95.5823 1035.15 95.52 1034.91 95.52C1034.68 95.52 1034.46 95.5823 1034.27 95.707C1034.07 95.8317 1033.89 96.0077 1033.75 96.235C1033.61 96.4623 1033.5 96.741 1033.42 97.071C1033.34 97.3937 1033.31 97.753 1033.31 98.149C1033.31 98.5523 1033.34 98.9153 1033.42 99.238C1033.5 99.5607 1033.61 99.8393 1033.75 100.074C1033.89 100.301 1034.07 100.477 1034.27 100.602C1034.46 100.727 1034.68 100.789 1034.91 100.789ZM1039.5 96.895H1037.22C1037.27 97.0857 1037.3 97.2873 1037.32 97.5C1037.35 97.7053 1037.37 97.9217 1037.37 98.149C1037.37 98.611 1037.33 98.985 1037.26 99.271H1039.5V96.895ZM1049.99 98.897V103.814H1049.09V93.947H1049.99V98.138H1051.53V98.897H1049.99ZM1042.45 95.861V95.146H1044.96V93.958H1045.86V95.146H1048.34V95.861H1042.45ZM1045.86 101.119C1046.31 101.097 1046.75 101.068 1047.2 101.031C1047.65 100.994 1048.08 100.943 1048.51 100.877L1048.56 101.548C1048.04 101.643 1047.5 101.72 1046.95 101.779C1046.4 101.83 1045.87 101.871 1045.34 101.9C1044.81 101.922 1044.3 101.937 1043.8 101.944C1043.3 101.944 1042.84 101.944 1042.4 101.944L1042.28 101.185C1042.68 101.185 1043.1 101.185 1043.55 101.185C1044 101.178 1044.47 101.167 1044.96 101.152V100.074C1044.38 100.001 1043.93 99.8063 1043.58 99.491C1043.24 99.1683 1043.08 98.7613 1043.08 98.27C1043.08 97.9913 1043.13 97.742 1043.24 97.522C1043.36 97.2947 1043.52 97.1003 1043.72 96.939C1043.93 96.7777 1044.18 96.6567 1044.46 96.576C1044.75 96.488 1045.06 96.444 1045.41 96.444C1045.75 96.444 1046.07 96.488 1046.35 96.576C1046.64 96.6567 1046.89 96.7777 1047.09 96.939C1047.3 97.1003 1047.45 97.2947 1047.56 97.522C1047.68 97.742 1047.74 97.9913 1047.74 98.27C1047.74 98.7613 1047.57 99.1683 1047.22 99.491C1046.89 99.8063 1046.43 100.001 1045.86 100.074V101.119ZM1043.93 98.27C1043.93 98.622 1044.07 98.897 1044.34 99.095C1044.61 99.293 1044.97 99.392 1045.41 99.392C1045.85 99.392 1046.2 99.293 1046.47 99.095C1046.75 98.897 1046.88 98.622 1046.88 98.27C1046.88 97.918 1046.75 97.643 1046.47 97.445C1046.2 97.2397 1045.85 97.137 1045.41 97.137C1044.97 97.137 1044.61 97.2397 1044.34 97.445C1044.07 97.643 1043.93 97.918 1043.93 98.27ZM1061.47 102.593H1052.5V101.856H1056.52V99.997H1053.62V96.95H1059.48V95.41H1053.6V94.673H1060.36V97.676H1054.51V99.271H1060.59V99.997H1057.43V101.856H1061.47V102.593Z" fill="black" fill-opacity="0.6"/>
<path d="M1098.12 98.589C1097.88 98.8823 1097.59 99.1133 1097.25 99.282C1096.91 99.4433 1096.52 99.524 1096.1 99.524C1095.74 99.524 1095.4 99.4653 1095.08 99.348C1094.78 99.2233 1094.51 99.051 1094.28 98.831C1094.05 98.611 1093.87 98.3507 1093.74 98.05C1093.62 97.742 1093.55 97.4083 1093.55 97.049C1093.55 96.6823 1093.62 96.3487 1093.74 96.048C1093.87 95.7473 1094.05 95.487 1094.28 95.267C1094.51 95.047 1094.78 94.8783 1095.08 94.761C1095.4 94.6363 1095.74 94.574 1096.1 94.574C1096.52 94.574 1096.9 94.6583 1097.24 94.827C1097.58 94.9883 1097.87 95.212 1098.11 95.498H1100.62V93.958H1101.53V101.24H1100.62V98.589H1098.12ZM1094.41 97.049C1094.41 97.291 1094.45 97.5183 1094.53 97.731C1094.62 97.9363 1094.74 98.1123 1094.89 98.259C1095.04 98.4057 1095.22 98.523 1095.42 98.611C1095.63 98.6917 1095.85 98.732 1096.1 98.732C1096.34 98.732 1096.56 98.6917 1096.76 98.611C1096.96 98.523 1097.14 98.4057 1097.28 98.259C1097.44 98.1123 1097.55 97.9363 1097.64 97.731C1097.72 97.5183 1097.77 97.291 1097.77 97.049C1097.77 96.807 1097.72 96.5833 1097.64 96.378C1097.55 96.1653 1097.44 95.9857 1097.28 95.839C1097.14 95.6923 1096.96 95.5787 1096.76 95.498C1096.56 95.41 1096.34 95.366 1096.1 95.366C1095.85 95.366 1095.63 95.41 1095.42 95.498C1095.22 95.5787 1095.04 95.6923 1094.89 95.839C1094.74 95.9857 1094.62 96.1653 1094.53 96.378C1094.45 96.5833 1094.41 96.807 1094.41 97.049ZM1098.49 96.224C1098.58 96.4733 1098.63 96.7483 1098.63 97.049C1098.63 97.335 1098.58 97.6063 1098.49 97.863H1100.62V96.224H1098.49ZM1101.8 103.594H1095.22V100.492H1096.13V102.857H1101.8V103.594ZM1104.06 98.028C1104.49 97.962 1104.91 97.8483 1105.31 97.687C1105.72 97.5183 1106.09 97.3167 1106.41 97.082C1106.74 96.84 1106.99 96.5723 1107.18 96.279C1107.38 95.9783 1107.48 95.6667 1107.48 95.344V95.289H1104.37V94.563H1111.57V95.289H1108.48V95.344C1108.48 95.6667 1108.58 95.9783 1108.77 96.279C1108.96 96.5723 1109.22 96.84 1109.55 97.082C1109.87 97.3167 1110.24 97.5183 1110.65 97.687C1111.07 97.8483 1111.49 97.962 1111.92 98.028L1111.57 98.743C1111.19 98.677 1110.82 98.578 1110.45 98.446C1110.08 98.314 1109.74 98.1527 1109.43 97.962C1109.11 97.764 1108.83 97.544 1108.58 97.302C1108.33 97.0527 1108.13 96.7813 1107.99 96.488C1107.83 96.7813 1107.63 97.0527 1107.38 97.302C1107.13 97.544 1106.85 97.764 1106.53 97.962C1106.23 98.1527 1105.89 98.314 1105.52 98.446C1105.16 98.578 1104.79 98.677 1104.4 98.743L1104.06 98.028ZM1108.41 100.305V103.814H1107.51V100.305H1103.53V99.568H1112.44L1112.45 100.305H1108.41ZM1122.02 103.814H1121.15V98.644H1119.75V103.319H1118.91V94.167H1119.75V97.907H1121.15V93.947H1122.02V103.814ZM1114.88 100.635C1115.21 100.635 1115.52 100.631 1115.81 100.624C1116.09 100.609 1116.37 100.591 1116.63 100.569C1116.9 100.547 1117.17 100.518 1117.42 100.481C1117.69 100.444 1117.95 100.397 1118.21 100.338L1118.29 101.086C1118 101.152 1117.71 101.207 1117.43 101.251C1117.15 101.288 1116.87 101.317 1116.58 101.339C1116.28 101.354 1115.98 101.365 1115.66 101.372C1115.35 101.379 1115.01 101.383 1114.64 101.383H1113.99V95.146H1117.66V95.883H1114.88V100.635ZM1132.71 102.593H1123.75V101.856H1127.76V99.997H1124.87V96.95H1130.72V95.41H1124.85V94.673H1131.6V97.676H1125.76V99.271H1131.83V99.997H1128.67V101.856H1132.71V102.593Z" fill="black" fill-opacity="0.6"/>
<path d="M1169.09 98.666C1168.58 98.666 1168.11 98.6147 1167.68 98.512C1167.26 98.4093 1166.9 98.2663 1166.59 98.083C1166.29 97.8923 1166.06 97.665 1165.89 97.401C1165.73 97.1297 1165.65 96.829 1165.65 96.499C1165.65 96.169 1165.73 95.872 1165.89 95.608C1166.06 95.344 1166.29 95.1203 1166.59 94.937C1166.9 94.7463 1167.26 94.5997 1167.68 94.497C1168.11 94.3943 1168.58 94.343 1169.09 94.343C1169.6 94.343 1170.07 94.3943 1170.5 94.497C1170.92 94.5997 1171.29 94.7463 1171.59 94.937C1171.89 95.1203 1172.12 95.344 1172.29 95.608C1172.46 95.872 1172.54 96.169 1172.54 96.499C1172.54 96.829 1172.46 97.1297 1172.29 97.401C1172.12 97.665 1171.89 97.8923 1171.59 98.083C1171.29 98.2663 1170.92 98.4093 1170.5 98.512C1170.07 98.6147 1169.6 98.666 1169.09 98.666ZM1169.09 95.069C1168.72 95.069 1168.37 95.102 1168.07 95.168C1167.76 95.234 1167.49 95.3293 1167.26 95.454C1167.04 95.5787 1166.87 95.729 1166.75 95.905C1166.63 96.081 1166.57 96.279 1166.57 96.499C1166.57 96.719 1166.63 96.917 1166.75 97.093C1166.87 97.269 1167.04 97.423 1167.26 97.555C1167.49 97.6797 1167.76 97.775 1168.07 97.841C1168.37 97.907 1168.72 97.94 1169.09 97.94C1169.46 97.94 1169.8 97.907 1170.11 97.841C1170.43 97.775 1170.7 97.6797 1170.92 97.555C1171.14 97.423 1171.31 97.269 1171.43 97.093C1171.56 96.917 1171.62 96.719 1171.62 96.499C1171.62 96.279 1171.56 96.081 1171.43 95.905C1171.31 95.729 1171.14 95.5787 1170.92 95.454C1170.7 95.3293 1170.43 95.234 1170.11 95.168C1169.8 95.102 1169.46 95.069 1169.09 95.069ZM1169.54 100.349V103.825H1168.64V100.349H1164.65V99.601H1173.58V100.349H1169.54ZM1182.42 97.192V99.733H1181.52V93.936H1182.42V96.444H1183.88V97.192H1182.42ZM1179.74 94.574C1179.74 95.1973 1179.63 95.7767 1179.42 96.312C1179.2 96.84 1178.9 97.3167 1178.5 97.742C1178.11 98.1673 1177.62 98.5413 1177.05 98.864C1176.48 99.1793 1175.84 99.436 1175.12 99.634L1174.74 98.919C1175.97 98.589 1176.92 98.116 1177.6 97.5C1178.29 96.884 1178.68 96.1543 1178.77 95.311H1175.19V94.574H1179.74ZM1182.42 100.184V103.814H1181.52V100.91H1176.01V100.184H1182.42ZM1193.84 102.593H1184.87V101.856H1188.89V99.997H1185.99V96.95H1191.85V95.41H1185.97V94.673H1192.73V97.676H1186.89V99.271H1192.96V99.997H1189.8V101.856H1193.84V102.593Z" fill="black" fill-opacity="0.6"/>
<path d="M1234.89 97.203H1233.43V99.909H1232.52V93.958H1233.43V96.444H1234.89V97.203ZM1231.06 99.425C1230.49 99.2417 1230 98.9667 1229.6 98.6C1229.19 98.226 1228.89 97.7933 1228.67 97.302C1228.46 97.874 1228.14 98.369 1227.72 98.787C1227.29 99.1977 1226.78 99.5093 1226.19 99.722L1225.73 99.007C1226.1 98.875 1226.44 98.7027 1226.74 98.49C1227.05 98.27 1227.31 98.0207 1227.52 97.742C1227.74 97.4633 1227.91 97.159 1228.03 96.829C1228.14 96.499 1228.2 96.1543 1228.2 95.795V95.41H1225.99V94.684H1231.28V95.41H1229.1V95.795C1229.1 96.1177 1229.16 96.4293 1229.27 96.73C1229.38 97.0307 1229.54 97.3093 1229.74 97.566C1229.95 97.8227 1230.21 98.05 1230.5 98.248C1230.79 98.446 1231.12 98.6037 1231.49 98.721L1231.06 99.425ZM1230.29 100.162C1230.79 100.162 1231.24 100.202 1231.63 100.283C1232.04 100.364 1232.38 100.485 1232.66 100.646C1232.94 100.8 1233.16 100.991 1233.31 101.218C1233.46 101.438 1233.54 101.691 1233.54 101.977C1233.54 102.263 1233.46 102.52 1233.31 102.747C1233.16 102.974 1232.94 103.165 1232.66 103.319C1232.38 103.48 1232.04 103.601 1231.63 103.682C1231.24 103.763 1230.79 103.803 1230.29 103.803C1229.28 103.803 1228.48 103.642 1227.9 103.319C1227.32 103.004 1227.04 102.556 1227.04 101.977C1227.04 101.405 1227.32 100.961 1227.9 100.646C1228.48 100.323 1229.28 100.162 1230.29 100.162ZM1230.29 103.088C1231.02 103.088 1231.6 102.993 1232.01 102.802C1232.43 102.604 1232.63 102.329 1232.63 101.977C1232.63 101.625 1232.43 101.354 1232.01 101.163C1231.6 100.972 1231.02 100.877 1230.29 100.877C1229.54 100.877 1228.95 100.972 1228.54 101.163C1228.14 101.354 1227.94 101.625 1227.94 101.977C1227.94 102.329 1228.14 102.604 1228.54 102.802C1228.95 102.993 1229.54 103.088 1230.29 103.088ZM1236.84 95.674V94.937H1243.75V95.916C1243.75 96.224 1243.75 96.543 1243.74 96.873C1243.74 97.1957 1243.73 97.544 1243.71 97.918C1243.69 98.2847 1243.65 98.6807 1243.6 99.106C1243.55 99.524 1243.48 99.9823 1243.38 100.481L1242.48 100.382C1242.67 99.4433 1242.78 98.611 1242.81 97.885C1242.84 97.159 1242.85 96.5027 1242.85 95.916V95.674H1236.84ZM1244.82 102.428H1235.9V101.691H1239.37V98.16H1240.27V101.691H1244.82V102.428ZM1254.38 103.814H1253.51V98.655H1252.17V103.319H1251.32V94.211H1252.17V97.918H1253.51V93.947H1254.38V103.814ZM1250.23 95.223C1250.23 95.861 1250.17 96.4843 1250.05 97.093C1249.93 97.6943 1249.73 98.27 1249.44 98.82C1249.15 99.37 1248.77 99.8907 1248.3 100.382C1247.83 100.866 1247.24 101.306 1246.54 101.702L1246.01 101.053C1246.58 100.73 1247.07 100.382 1247.47 100.008C1247.87 99.6267 1248.21 99.2233 1248.47 98.798C1248.74 98.3653 1248.94 97.9143 1249.08 97.445C1249.22 96.9683 1249.3 96.4733 1249.34 95.96H1246.38V95.223H1250.23ZM1265.08 102.593H1256.12V101.856H1260.13V99.997H1257.24V96.95H1263.09V95.41H1257.22V94.673H1263.97V97.676H1258.13V99.271H1264.2V99.997H1261.04V101.856H1265.08V102.593Z" fill="black" fill-opacity="0.6"/>
<path d="M1297.54 97.621C1298.01 97.577 1298.44 97.5 1298.84 97.39C1299.25 97.2727 1299.61 97.1297 1299.92 96.961C1300.23 96.7923 1300.48 96.598 1300.67 96.378C1300.86 96.1507 1300.96 95.9013 1300.99 95.63H1297.94V94.915H1301.03V93.914H1301.93V94.915H1305.02V95.63H1301.97C1301.99 95.9013 1302.09 96.1507 1302.27 96.378C1302.46 96.598 1302.71 96.796 1303.02 96.972C1303.34 97.1407 1303.7 97.28 1304.11 97.39C1304.52 97.5 1304.96 97.577 1305.42 97.621L1305.14 98.325C1304.74 98.281 1304.35 98.2113 1303.97 98.116C1303.59 98.0207 1303.25 97.9033 1302.92 97.764C1302.61 97.6173 1302.32 97.4487 1302.08 97.258C1301.83 97.06 1301.63 96.84 1301.48 96.598C1301.33 96.84 1301.13 97.06 1300.88 97.258C1300.63 97.4487 1300.35 97.6173 1300.03 97.764C1299.71 97.9033 1299.37 98.0207 1299 98.116C1298.62 98.2113 1298.23 98.281 1297.82 98.325L1297.54 97.621ZM1305.94 99.788H1297.02V99.062H1301.03V97.841H1301.93V99.062H1305.94V99.788ZM1301.47 100.525C1302.56 100.525 1303.4 100.664 1303.98 100.943C1304.56 101.222 1304.85 101.629 1304.85 102.164C1304.85 102.699 1304.56 103.106 1303.98 103.385C1303.4 103.664 1302.56 103.803 1301.47 103.803C1300.38 103.803 1299.54 103.664 1298.96 103.385C1298.38 103.106 1298.09 102.699 1298.09 102.164C1298.09 101.629 1298.38 101.222 1298.96 100.943C1299.54 100.664 1300.38 100.525 1301.47 100.525ZM1301.47 103.121C1302.25 103.121 1302.85 103.04 1303.29 102.879C1303.72 102.71 1303.93 102.472 1303.93 102.164C1303.93 101.856 1303.72 101.618 1303.29 101.449C1302.85 101.28 1302.25 101.196 1301.47 101.196C1300.67 101.196 1300.06 101.28 1299.63 101.449C1299.22 101.618 1299.01 101.856 1299.01 102.164C1299.01 102.472 1299.22 102.71 1299.63 102.879C1300.06 103.04 1300.67 103.121 1301.47 103.121ZM1312.43 97.654V96.917H1314.35V95.883H1312.43V95.157H1314.35V93.958H1315.26V99.128H1314.35V97.654H1312.43ZM1312.41 98.545C1312.05 98.6037 1311.7 98.6513 1311.36 98.688C1311.03 98.7173 1310.69 98.743 1310.36 98.765C1310.03 98.7797 1309.69 98.7907 1309.35 98.798C1309.01 98.798 1308.65 98.798 1308.26 98.798H1307.55V96.224H1310.9V95.124H1307.52V94.42H1311.78V96.895H1308.43V98.094C1308.79 98.094 1309.13 98.0903 1309.46 98.083C1309.78 98.0757 1310.1 98.0647 1310.41 98.05C1310.73 98.0353 1311.04 98.0133 1311.36 97.984C1311.67 97.9473 1312 97.9033 1312.35 97.852L1312.41 98.545ZM1315.65 103.737H1308.86V101.295H1314.37V100.316H1308.84V99.623H1315.25V101.955H1309.75V103.033H1315.65V103.737ZM1326.21 102.593H1317.24V101.856H1321.26V99.997H1318.36V96.95H1324.22V95.41H1318.34V94.673H1325.1V97.676H1319.26V99.271H1325.33V99.997H1322.17V101.856H1326.21V102.593Z" fill="black" fill-opacity="0.6"/>
<path d="M1368.79 98.215V97.478H1370.42V96.444H1368.79V95.707H1370.42V93.958H1371.33V100.03H1370.42V98.215H1368.79ZM1369.05 99.117C1368.58 99.1903 1368.08 99.249 1367.58 99.293C1367.07 99.337 1366.57 99.37 1366.07 99.392C1365.58 99.414 1365.1 99.4287 1364.63 99.436C1364.16 99.4433 1363.73 99.447 1363.33 99.447L1363.23 98.699H1364.16C1364.26 98.699 1364.37 98.6953 1364.48 98.688V95.421H1363.5V94.695H1368.69V95.421H1367.71V98.578C1367.93 98.5633 1368.15 98.545 1368.36 98.523C1368.58 98.501 1368.79 98.4753 1369 98.446L1369.05 99.117ZM1365.35 98.677C1365.59 98.6697 1365.83 98.6623 1366.08 98.655C1366.33 98.6477 1366.58 98.6367 1366.83 98.622V95.421H1365.35V98.677ZM1368.07 100.239C1369.09 100.239 1369.89 100.393 1370.47 100.701C1371.06 101.002 1371.35 101.438 1371.35 102.01C1371.35 102.582 1371.06 103.022 1370.47 103.33C1369.89 103.645 1369.09 103.803 1368.07 103.803C1367.03 103.803 1366.21 103.645 1365.64 103.33C1365.07 103.022 1364.78 102.582 1364.78 102.01C1364.78 101.438 1365.07 101.002 1365.64 100.701C1366.21 100.393 1367.03 100.239 1368.07 100.239ZM1368.07 103.099C1368.83 103.099 1369.42 103.007 1369.83 102.824C1370.25 102.633 1370.46 102.362 1370.46 102.01C1370.46 101.673 1370.25 101.409 1369.83 101.218C1369.42 101.027 1368.83 100.932 1368.07 100.932C1367.32 100.932 1366.73 101.027 1366.31 101.218C1365.9 101.409 1365.69 101.673 1365.69 102.01C1365.69 102.362 1365.9 102.633 1366.31 102.824C1366.73 103.007 1367.32 103.099 1368.07 103.099ZM1382.23 99.931H1373.32V99.194H1377.34V98.16C1376.87 98.138 1376.46 98.0793 1376.08 97.984C1375.71 97.8813 1375.39 97.7493 1375.12 97.588C1374.86 97.4193 1374.66 97.2213 1374.52 96.994C1374.38 96.7593 1374.31 96.499 1374.31 96.213C1374.31 95.905 1374.39 95.63 1374.55 95.388C1374.71 95.146 1374.94 94.9407 1375.25 94.772C1375.55 94.596 1375.92 94.464 1376.35 94.376C1376.78 94.288 1377.26 94.244 1377.79 94.244C1378.31 94.244 1378.79 94.288 1379.22 94.376C1379.64 94.464 1380 94.596 1380.31 94.772C1380.61 94.9407 1380.84 95.146 1381 95.388C1381.16 95.63 1381.24 95.905 1381.24 96.213C1381.24 96.4917 1381.17 96.7483 1381.03 96.983C1380.89 97.2103 1380.69 97.4083 1380.43 97.577C1380.17 97.7457 1379.85 97.8813 1379.48 97.984C1379.11 98.0793 1378.7 98.138 1378.24 98.16V99.194H1382.23V99.931ZM1375.23 96.213C1375.23 96.609 1375.46 96.9133 1375.91 97.126C1376.36 97.3387 1376.99 97.445 1377.79 97.445C1378.56 97.445 1379.17 97.3387 1379.62 97.126C1380.09 96.906 1380.32 96.6017 1380.32 96.213C1380.32 95.8243 1380.09 95.52 1379.62 95.3C1379.17 95.08 1378.56 94.97 1377.79 94.97C1376.99 94.97 1376.36 95.08 1375.91 95.3C1375.46 95.5127 1375.23 95.817 1375.23 96.213ZM1381.25 102.857V103.594H1374.46V100.745H1375.37V102.857H1381.25ZM1392.39 102.593H1383.43V101.856H1387.44V99.997H1384.55V96.95H1390.4V95.41H1384.53V94.673H1391.28V97.676H1385.44V99.271H1391.51V99.997H1388.36V101.856H1392.39V102.593Z" fill="black" fill-opacity="0.6"/>
<path d="M1424.36 95.883V95.157H1426.81V93.958H1427.71V95.157H1430.18V95.883H1424.36ZM1433.44 97.962H1431.98V101.35H1431.08V93.958H1431.98V97.203H1433.44V97.962ZM1429.63 98.259C1429.63 98.5377 1429.57 98.7907 1429.45 99.018C1429.34 99.2453 1429.18 99.4397 1428.97 99.601C1428.76 99.755 1428.51 99.876 1428.22 99.964C1427.93 100.052 1427.61 100.096 1427.26 100.096C1426.91 100.096 1426.59 100.052 1426.31 99.964C1426.02 99.876 1425.77 99.755 1425.56 99.601C1425.35 99.4397 1425.19 99.2453 1425.07 99.018C1424.96 98.7907 1424.91 98.5377 1424.91 98.259C1424.91 97.9803 1424.96 97.731 1425.07 97.511C1425.19 97.2837 1425.35 97.093 1425.56 96.939C1425.77 96.7777 1426.02 96.653 1426.31 96.565C1426.59 96.477 1426.91 96.433 1427.26 96.433C1427.61 96.433 1427.93 96.477 1428.22 96.565C1428.51 96.653 1428.76 96.7777 1428.97 96.939C1429.18 97.093 1429.34 97.2837 1429.45 97.511C1429.57 97.731 1429.63 97.9803 1429.63 98.259ZM1425.77 98.259C1425.77 98.611 1425.9 98.8897 1426.16 99.095C1426.43 99.293 1426.8 99.392 1427.26 99.392C1427.71 99.392 1428.07 99.293 1428.35 99.095C1428.63 98.8897 1428.77 98.611 1428.77 98.259C1428.77 97.907 1428.63 97.632 1428.35 97.434C1428.07 97.236 1427.71 97.137 1427.26 97.137C1426.8 97.137 1426.43 97.236 1426.16 97.434C1425.9 97.632 1425.77 97.907 1425.77 98.259ZM1432.42 102.857V103.594H1425.84V100.767H1426.75V102.857H1432.42ZM1442.04 98.633V103.814H1441.13V93.947H1442.04V97.885H1443.62V98.633H1442.04ZM1435.73 100.558C1436.44 100.558 1437.17 100.525 1437.9 100.459C1438.64 100.393 1439.41 100.279 1440.21 100.118L1440.32 100.866C1439.48 101.035 1438.67 101.152 1437.9 101.218C1437.14 101.284 1436.38 101.317 1435.62 101.317H1434.84V94.904H1435.73V100.558ZM1445.62 95.058V94.343H1452.43V96.917H1446.56V98.182H1452.65V98.919H1445.65V96.224H1451.52V95.058H1445.62ZM1449.47 100.668V103.825H1448.57V100.668H1444.55V99.931H1453.51V100.668H1449.47ZM1463.64 102.593H1454.67V101.856H1458.69V99.997H1455.79V96.95H1461.65V95.41H1455.77V94.673H1462.53V97.676H1456.69V99.271H1462.76V99.997H1459.6V101.856H1463.64V102.593Z" fill="black" fill-opacity="0.6"/>
<path d="M1498.62 94.244H1499.62V103H1498.62V94.244ZM1502.99 103.143C1502.74 103.143 1502.51 103.103 1502.3 103.022C1502.09 102.941 1501.9 102.828 1501.75 102.681C1501.6 102.527 1501.48 102.344 1501.39 102.131C1501.3 101.911 1501.26 101.665 1501.26 101.394C1501.26 100.624 1501.57 100.074 1502.2 99.744C1502.84 99.4067 1503.75 99.2307 1504.93 99.216C1504.93 99.0253 1504.91 98.8383 1504.87 98.655C1504.84 98.4717 1504.77 98.3103 1504.68 98.171C1504.59 98.0317 1504.46 97.9217 1504.3 97.841C1504.14 97.753 1503.94 97.709 1503.7 97.709C1503.35 97.709 1503.01 97.7677 1502.69 97.885C1502.36 97.995 1502.08 98.1307 1501.85 98.292L1501.45 97.577C1501.73 97.401 1502.08 97.2397 1502.5 97.093C1502.92 96.9463 1503.38 96.873 1503.86 96.873C1504.23 96.873 1504.54 96.9317 1504.8 97.049C1505.06 97.1663 1505.27 97.335 1505.44 97.555C1505.6 97.7677 1505.73 98.0243 1505.81 98.325C1505.89 98.6257 1505.93 98.9593 1505.93 99.326V103H1505.11L1505.02 102.362H1504.98C1504.7 102.597 1504.39 102.787 1504.05 102.934C1503.72 103.073 1503.37 103.143 1502.99 103.143ZM1503.28 102.34C1503.57 102.34 1503.85 102.289 1504.1 102.186C1504.36 102.083 1504.64 101.904 1504.93 101.647V99.876C1504.4 99.9127 1503.96 99.9677 1503.61 100.041C1503.26 100.107 1502.99 100.199 1502.78 100.316C1502.58 100.426 1502.44 100.565 1502.36 100.734C1502.27 100.895 1502.23 101.093 1502.23 101.328C1502.23 101.68 1502.33 101.937 1502.52 102.098C1502.72 102.259 1502.97 102.34 1503.28 102.34ZM1510.47 103.143C1510.19 103.143 1509.9 103.077 1509.6 102.945C1509.3 102.813 1509.03 102.626 1508.76 102.384H1508.73L1508.64 103H1507.84V94.244H1508.84V96.642L1508.81 97.72C1509.08 97.4853 1509.37 97.2873 1509.7 97.126C1510.02 96.9573 1510.35 96.873 1510.68 96.873C1511.06 96.873 1511.41 96.9463 1511.7 97.093C1512 97.2397 1512.25 97.445 1512.45 97.709C1512.65 97.973 1512.81 98.292 1512.91 98.666C1513.01 99.04 1513.06 99.4543 1513.06 99.909C1513.06 100.422 1512.99 100.881 1512.84 101.284C1512.7 101.687 1512.51 102.028 1512.27 102.307C1512.04 102.578 1511.76 102.787 1511.45 102.934C1511.14 103.073 1510.81 103.143 1510.47 103.143ZM1510.3 102.307C1510.55 102.307 1510.78 102.252 1510.98 102.142C1511.2 102.032 1511.38 101.878 1511.53 101.68C1511.69 101.475 1511.81 101.225 1511.89 100.932C1511.97 100.639 1512.02 100.305 1512.02 99.931C1512.02 99.601 1511.99 99.3003 1511.93 99.029C1511.87 98.7577 1511.78 98.5267 1511.65 98.336C1511.53 98.138 1511.37 97.9877 1511.17 97.885C1510.97 97.775 1510.73 97.72 1510.44 97.72C1510.19 97.72 1509.93 97.7897 1509.66 97.929C1509.4 98.0683 1509.12 98.2737 1508.84 98.545V101.68C1509.1 101.915 1509.36 102.08 1509.62 102.175C1509.88 102.263 1510.1 102.307 1510.3 102.307ZM1517.05 103.143C1516.65 103.143 1516.28 103.073 1515.92 102.934C1515.58 102.795 1515.28 102.593 1515.02 102.329C1514.77 102.058 1514.56 101.728 1514.41 101.339C1514.26 100.95 1514.19 100.51 1514.19 100.019C1514.19 99.535 1514.26 99.0987 1514.41 98.71C1514.56 98.3213 1514.76 97.9913 1515.01 97.72C1515.26 97.4487 1515.55 97.2397 1515.87 97.093C1516.2 96.9463 1516.54 96.873 1516.88 96.873C1517.26 96.873 1517.6 96.939 1517.89 97.071C1518.19 97.203 1518.43 97.3937 1518.63 97.643C1518.84 97.885 1518.99 98.1783 1519.09 98.523C1519.2 98.8677 1519.26 99.2527 1519.26 99.678C1519.26 99.788 1519.25 99.8943 1519.25 99.997C1519.24 100.092 1519.23 100.177 1519.21 100.25H1515.19C1515.22 100.895 1515.42 101.405 1515.77 101.779C1516.13 102.153 1516.6 102.34 1517.17 102.34C1517.46 102.34 1517.73 102.3 1517.97 102.219C1518.21 102.131 1518.44 102.014 1518.66 101.867L1519.03 102.527C1518.76 102.696 1518.47 102.842 1518.15 102.967C1517.83 103.084 1517.46 103.143 1517.05 103.143ZM1518.38 99.535C1518.38 98.9117 1518.25 98.446 1517.98 98.138C1517.73 97.83 1517.36 97.676 1516.89 97.676C1516.68 97.676 1516.47 97.72 1516.28 97.808C1516.09 97.8887 1515.91 98.0097 1515.76 98.171C1515.61 98.325 1515.48 98.5193 1515.37 98.754C1515.27 98.9813 1515.21 99.2417 1515.18 99.535H1518.38ZM1520.73 94.244H1521.73V103H1520.73V94.244Z" fill="black" fill-opacity="0.6"/>
<path d="M1564.81 94.244H1565.81V103H1564.81V94.244ZM1569.18 103.143C1568.93 103.143 1568.7 103.103 1568.49 103.022C1568.27 102.941 1568.09 102.828 1567.94 102.681C1567.78 102.527 1567.66 102.344 1567.57 102.131C1567.48 101.911 1567.44 101.665 1567.44 101.394C1567.44 100.624 1567.76 100.074 1568.39 99.744C1569.02 99.4067 1569.93 99.2307 1571.11 99.216C1571.11 99.0253 1571.1 98.8383 1571.06 98.655C1571.02 98.4717 1570.96 98.3103 1570.86 98.171C1570.77 98.0317 1570.65 97.9217 1570.49 97.841C1570.33 97.753 1570.12 97.709 1569.88 97.709C1569.53 97.709 1569.19 97.7677 1568.87 97.885C1568.55 97.995 1568.27 98.1307 1568.03 98.292L1567.64 97.577C1567.92 97.401 1568.27 97.2397 1568.68 97.093C1569.11 96.9463 1569.56 96.873 1570.05 96.873C1570.41 96.873 1570.73 96.9317 1570.98 97.049C1571.25 97.1663 1571.46 97.335 1571.62 97.555C1571.79 97.7677 1571.91 98.0243 1571.99 98.325C1572.08 98.6257 1572.12 98.9593 1572.12 99.326V103H1571.29L1571.2 102.362H1571.17C1570.88 102.597 1570.57 102.787 1570.23 102.934C1569.9 103.073 1569.55 103.143 1569.18 103.143ZM1569.46 102.34C1569.76 102.34 1570.03 102.289 1570.29 102.186C1570.55 102.083 1570.82 101.904 1571.11 101.647V99.876C1570.59 99.9127 1570.15 99.9677 1569.79 100.041C1569.45 100.107 1569.17 100.199 1568.97 100.316C1568.76 100.426 1568.62 100.565 1568.54 100.734C1568.46 100.895 1568.42 101.093 1568.42 101.328C1568.42 101.68 1568.51 101.937 1568.71 102.098C1568.9 102.259 1569.16 102.34 1569.46 102.34ZM1576.65 103.143C1576.37 103.143 1576.08 103.077 1575.78 102.945C1575.49 102.813 1575.21 102.626 1574.95 102.384H1574.91L1574.83 103H1574.02V94.244H1575.02V96.642L1574.99 97.72C1575.26 97.4853 1575.56 97.2873 1575.88 97.126C1576.21 96.9573 1576.53 96.873 1576.86 96.873C1577.25 96.873 1577.59 96.9463 1577.88 97.093C1578.19 97.2397 1578.43 97.445 1578.63 97.709C1578.84 97.973 1578.99 98.292 1579.09 98.666C1579.2 99.04 1579.25 99.4543 1579.25 99.909C1579.25 100.422 1579.18 100.881 1579.03 101.284C1578.89 101.687 1578.7 102.028 1578.46 102.307C1578.22 102.578 1577.95 102.787 1577.63 102.934C1577.32 103.073 1577 103.143 1576.65 103.143ZM1576.49 102.307C1576.74 102.307 1576.96 102.252 1577.17 102.142C1577.38 102.032 1577.57 101.878 1577.72 101.68C1577.87 101.475 1577.99 101.225 1578.07 100.932C1578.16 100.639 1578.2 100.305 1578.2 99.931C1578.2 99.601 1578.17 99.3003 1578.12 99.029C1578.06 98.7577 1577.97 98.5267 1577.84 98.336C1577.72 98.138 1577.55 97.9877 1577.36 97.885C1577.16 97.775 1576.92 97.72 1576.63 97.72C1576.37 97.72 1576.11 97.7897 1575.85 97.929C1575.59 98.0683 1575.31 98.2737 1575.02 98.545V101.68C1575.29 101.915 1575.55 102.08 1575.81 102.175C1576.06 102.263 1576.29 102.307 1576.49 102.307ZM1583.23 103.143C1582.84 103.143 1582.46 103.073 1582.11 102.934C1581.77 102.795 1581.47 102.593 1581.21 102.329C1580.95 102.058 1580.75 101.728 1580.59 101.339C1580.45 100.95 1580.37 100.51 1580.37 100.019C1580.37 99.535 1580.45 99.0987 1580.59 98.71C1580.75 98.3213 1580.95 97.9913 1581.2 97.72C1581.45 97.4487 1581.73 97.2397 1582.06 97.093C1582.39 96.9463 1582.72 96.873 1583.07 96.873C1583.45 96.873 1583.79 96.939 1584.08 97.071C1584.37 97.203 1584.62 97.3937 1584.82 97.643C1585.02 97.885 1585.18 98.1783 1585.28 98.523C1585.39 98.8677 1585.44 99.2527 1585.44 99.678C1585.44 99.788 1585.44 99.8943 1585.43 99.997C1585.43 100.092 1585.41 100.177 1585.4 100.25H1581.37C1581.41 100.895 1581.6 101.405 1581.96 101.779C1582.32 102.153 1582.78 102.34 1583.35 102.34C1583.65 102.34 1583.91 102.3 1584.16 102.219C1584.4 102.131 1584.63 102.014 1584.85 101.867L1585.21 102.527C1584.95 102.696 1584.66 102.842 1584.33 102.967C1584.02 103.084 1583.65 103.143 1583.23 103.143ZM1584.56 99.535C1584.56 98.9117 1584.43 98.446 1584.17 98.138C1583.91 97.83 1583.55 97.676 1583.08 97.676C1582.87 97.676 1582.66 97.72 1582.46 97.808C1582.27 97.8887 1582.1 98.0097 1581.95 98.171C1581.79 98.325 1581.66 98.5193 1581.56 98.754C1581.46 98.9813 1581.39 99.2417 1581.36 99.535H1584.56ZM1586.91 94.244H1587.92V103H1586.91V94.244Z" fill="black" fill-opacity="0.6"/>
<path d="M1630.99 94.244H1631.99V103H1630.99V94.244ZM1635.36 103.143C1635.11 103.143 1634.88 103.103 1634.67 103.022C1634.46 102.941 1634.27 102.828 1634.12 102.681C1633.97 102.527 1633.85 102.344 1633.76 102.131C1633.67 101.911 1633.63 101.665 1633.63 101.394C1633.63 100.624 1633.94 100.074 1634.57 99.744C1635.21 99.4067 1636.12 99.2307 1637.3 99.216C1637.3 99.0253 1637.28 98.8383 1637.24 98.655C1637.21 98.4717 1637.14 98.3103 1637.05 98.171C1636.96 98.0317 1636.83 97.9217 1636.67 97.841C1636.51 97.753 1636.31 97.709 1636.07 97.709C1635.72 97.709 1635.38 97.7677 1635.06 97.885C1634.73 97.995 1634.45 98.1307 1634.22 98.292L1633.82 97.577C1634.1 97.401 1634.45 97.2397 1634.87 97.093C1635.29 96.9463 1635.75 96.873 1636.23 96.873C1636.6 96.873 1636.91 96.9317 1637.17 97.049C1637.43 97.1663 1637.64 97.335 1637.81 97.555C1637.97 97.7677 1638.1 98.0243 1638.18 98.325C1638.26 98.6257 1638.3 98.9593 1638.3 99.326V103H1637.48L1637.39 102.362H1637.35C1637.07 102.597 1636.76 102.787 1636.42 102.934C1636.09 103.073 1635.74 103.143 1635.36 103.143ZM1635.65 102.34C1635.94 102.34 1636.22 102.289 1636.47 102.186C1636.73 102.083 1637.01 101.904 1637.3 101.647V99.876C1636.77 99.9127 1636.33 99.9677 1635.98 100.041C1635.63 100.107 1635.36 100.199 1635.15 100.316C1634.95 100.426 1634.81 100.565 1634.73 100.734C1634.64 100.895 1634.6 101.093 1634.6 101.328C1634.6 101.68 1634.7 101.937 1634.89 102.098C1635.09 102.259 1635.34 102.34 1635.65 102.34ZM1642.84 103.143C1642.56 103.143 1642.27 103.077 1641.97 102.945C1641.67 102.813 1641.4 102.626 1641.13 102.384H1641.1L1641.01 103H1640.21V94.244H1641.21V96.642L1641.18 97.72C1641.45 97.4853 1641.74 97.2873 1642.07 97.126C1642.39 96.9573 1642.72 96.873 1643.05 96.873C1643.43 96.873 1643.78 96.9463 1644.07 97.093C1644.37 97.2397 1644.62 97.445 1644.82 97.709C1645.02 97.973 1645.18 98.292 1645.28 98.666C1645.38 99.04 1645.43 99.4543 1645.43 99.909C1645.43 100.422 1645.36 100.881 1645.21 101.284C1645.07 101.687 1644.88 102.028 1644.64 102.307C1644.41 102.578 1644.13 102.787 1643.82 102.934C1643.51 103.073 1643.18 103.143 1642.84 103.143ZM1642.67 102.307C1642.92 102.307 1643.15 102.252 1643.35 102.142C1643.57 102.032 1643.75 101.878 1643.9 101.68C1644.06 101.475 1644.18 101.225 1644.26 100.932C1644.34 100.639 1644.39 100.305 1644.39 99.931C1644.39 99.601 1644.36 99.3003 1644.3 99.029C1644.24 98.7577 1644.15 98.5267 1644.03 98.336C1643.9 98.138 1643.74 97.9877 1643.54 97.885C1643.34 97.775 1643.1 97.72 1642.82 97.72C1642.56 97.72 1642.3 97.7897 1642.03 97.929C1641.77 98.0683 1641.5 98.2737 1641.21 98.545V101.68C1641.47 101.915 1641.73 102.08 1641.99 102.175C1642.25 102.263 1642.47 102.307 1642.67 102.307ZM1649.42 103.143C1649.02 103.143 1648.65 103.073 1648.29 102.934C1647.95 102.795 1647.65 102.593 1647.39 102.329C1647.14 102.058 1646.93 101.728 1646.78 101.339C1646.63 100.95 1646.56 100.51 1646.56 100.019C1646.56 99.535 1646.63 99.0987 1646.78 98.71C1646.93 98.3213 1647.13 97.9913 1647.38 97.72C1647.63 97.4487 1647.92 97.2397 1648.24 97.093C1648.57 96.9463 1648.91 96.873 1649.25 96.873C1649.63 96.873 1649.97 96.939 1650.26 97.071C1650.56 97.203 1650.8 97.3937 1651 97.643C1651.21 97.885 1651.36 98.1783 1651.46 98.523C1651.57 98.8677 1651.63 99.2527 1651.63 99.678C1651.63 99.788 1651.62 99.8943 1651.62 99.997C1651.61 100.092 1651.6 100.177 1651.58 100.25H1647.56C1647.59 100.895 1647.79 101.405 1648.14 101.779C1648.5 102.153 1648.97 102.34 1649.54 102.34C1649.83 102.34 1650.1 102.3 1650.34 102.219C1650.58 102.131 1650.81 102.014 1651.03 101.867L1651.4 102.527C1651.13 102.696 1650.84 102.842 1650.52 102.967C1650.2 103.084 1649.83 103.143 1649.42 103.143ZM1650.75 99.535C1650.75 98.9117 1650.62 98.446 1650.35 98.138C1650.1 97.83 1649.73 97.676 1649.26 97.676C1649.05 97.676 1648.84 97.72 1648.65 97.808C1648.46 97.8887 1648.28 98.0097 1648.13 98.171C1647.98 98.325 1647.85 98.5193 1647.74 98.754C1647.64 98.9813 1647.58 99.2417 1647.55 99.535H1650.75ZM1653.1 94.244H1654.1V103H1653.1V94.244Z" fill="black" fill-opacity="0.6"/>
<path d="M1697.18 94.244H1698.18V103H1697.18V94.244ZM1701.55 103.143C1701.3 103.143 1701.07 103.103 1700.86 103.022C1700.64 102.941 1700.46 102.828 1700.31 102.681C1700.15 102.527 1700.03 102.344 1699.94 102.131C1699.85 101.911 1699.81 101.665 1699.81 101.394C1699.81 100.624 1700.13 100.074 1700.76 99.744C1701.39 99.4067 1702.3 99.2307 1703.48 99.216C1703.48 99.0253 1703.47 98.8383 1703.43 98.655C1703.39 98.4717 1703.33 98.3103 1703.23 98.171C1703.14 98.0317 1703.02 97.9217 1702.86 97.841C1702.7 97.753 1702.49 97.709 1702.25 97.709C1701.9 97.709 1701.56 97.7677 1701.24 97.885C1700.92 97.995 1700.64 98.1307 1700.4 98.292L1700.01 97.577C1700.29 97.401 1700.64 97.2397 1701.05 97.093C1701.48 96.9463 1701.93 96.873 1702.42 96.873C1702.78 96.873 1703.1 96.9317 1703.35 97.049C1703.62 97.1663 1703.83 97.335 1703.99 97.555C1704.16 97.7677 1704.28 98.0243 1704.36 98.325C1704.45 98.6257 1704.49 98.9593 1704.49 99.326V103H1703.66L1703.57 102.362H1703.54C1703.25 102.597 1702.94 102.787 1702.6 102.934C1702.27 103.073 1701.92 103.143 1701.55 103.143ZM1701.83 102.34C1702.13 102.34 1702.4 102.289 1702.66 102.186C1702.92 102.083 1703.19 101.904 1703.48 101.647V99.876C1702.96 99.9127 1702.52 99.9677 1702.16 100.041C1701.82 100.107 1701.55 100.199 1701.34 100.316C1701.13 100.426 1700.99 100.565 1700.91 100.734C1700.83 100.895 1700.79 101.093 1700.79 101.328C1700.79 101.68 1700.89 101.937 1701.08 102.098C1701.27 102.259 1701.53 102.34 1701.83 102.34ZM1709.02 103.143C1708.74 103.143 1708.45 103.077 1708.15 102.945C1707.86 102.813 1707.58 102.626 1707.32 102.384H1707.28L1707.2 103H1706.39V94.244H1707.39V96.642L1707.36 97.72C1707.63 97.4853 1707.93 97.2873 1708.25 97.126C1708.58 96.9573 1708.9 96.873 1709.23 96.873C1709.62 96.873 1709.96 96.9463 1710.25 97.093C1710.56 97.2397 1710.8 97.445 1711 97.709C1711.21 97.973 1711.36 98.292 1711.46 98.666C1711.57 99.04 1711.62 99.4543 1711.62 99.909C1711.62 100.422 1711.55 100.881 1711.4 101.284C1711.26 101.687 1711.07 102.028 1710.83 102.307C1710.59 102.578 1710.32 102.787 1710 102.934C1709.69 103.073 1709.37 103.143 1709.02 103.143ZM1708.86 102.307C1709.11 102.307 1709.33 102.252 1709.54 102.142C1709.75 102.032 1709.94 101.878 1710.09 101.68C1710.24 101.475 1710.36 101.225 1710.44 100.932C1710.53 100.639 1710.57 100.305 1710.57 99.931C1710.57 99.601 1710.54 99.3003 1710.49 99.029C1710.43 98.7577 1710.34 98.5267 1710.21 98.336C1710.09 98.138 1709.92 97.9877 1709.73 97.885C1709.53 97.775 1709.29 97.72 1709 97.72C1708.74 97.72 1708.48 97.7897 1708.22 97.929C1707.96 98.0683 1707.68 98.2737 1707.39 98.545V101.68C1707.66 101.915 1707.92 102.08 1708.18 102.175C1708.43 102.263 1708.66 102.307 1708.86 102.307ZM1715.6 103.143C1715.21 103.143 1714.83 103.073 1714.48 102.934C1714.14 102.795 1713.84 102.593 1713.58 102.329C1713.32 102.058 1713.12 101.728 1712.96 101.339C1712.82 100.95 1712.74 100.51 1712.74 100.019C1712.74 99.535 1712.82 99.0987 1712.96 98.71C1713.12 98.3213 1713.32 97.9913 1713.57 97.72C1713.82 97.4487 1714.1 97.2397 1714.43 97.093C1714.76 96.9463 1715.09 96.873 1715.44 96.873C1715.82 96.873 1716.16 96.939 1716.45 97.071C1716.74 97.203 1716.99 97.3937 1717.19 97.643C1717.39 97.885 1717.55 98.1783 1717.65 98.523C1717.76 98.8677 1717.81 99.2527 1717.81 99.678C1717.81 99.788 1717.81 99.8943 1717.8 99.997C1717.8 100.092 1717.78 100.177 1717.77 100.25H1713.74C1713.78 100.895 1713.97 101.405 1714.33 101.779C1714.69 102.153 1715.15 102.34 1715.72 102.34C1716.02 102.34 1716.28 102.3 1716.53 102.219C1716.77 102.131 1717 102.014 1717.22 101.867L1717.58 102.527C1717.32 102.696 1717.03 102.842 1716.7 102.967C1716.39 103.084 1716.02 103.143 1715.6 103.143ZM1716.93 99.535C1716.93 98.9117 1716.8 98.446 1716.54 98.138C1716.28 97.83 1715.92 97.676 1715.45 97.676C1715.24 97.676 1715.03 97.72 1714.83 97.808C1714.64 97.8887 1714.47 98.0097 1714.32 98.171C1714.16 98.325 1714.03 98.5193 1713.93 98.754C1713.83 98.9813 1713.76 99.2417 1713.73 99.535H1716.93ZM1719.28 94.244H1720.29V103H1719.28V94.244Z" fill="black" fill-opacity="0.6"/>
<path d="M1763.36 94.244H1764.36V103H1763.36V94.244ZM1767.73 103.143C1767.48 103.143 1767.25 103.103 1767.04 103.022C1766.83 102.941 1766.64 102.828 1766.49 102.681C1766.34 102.527 1766.22 102.344 1766.13 102.131C1766.04 101.911 1766 101.665 1766 101.394C1766 100.624 1766.31 100.074 1766.94 99.744C1767.58 99.4067 1768.49 99.2307 1769.67 99.216C1769.67 99.0253 1769.65 98.8383 1769.61 98.655C1769.58 98.4717 1769.51 98.3103 1769.42 98.171C1769.33 98.0317 1769.2 97.9217 1769.04 97.841C1768.88 97.753 1768.68 97.709 1768.44 97.709C1768.09 97.709 1767.75 97.7677 1767.43 97.885C1767.1 97.995 1766.82 98.1307 1766.59 98.292L1766.19 97.577C1766.47 97.401 1766.82 97.2397 1767.24 97.093C1767.66 96.9463 1768.12 96.873 1768.6 96.873C1768.97 96.873 1769.28 96.9317 1769.54 97.049C1769.8 97.1663 1770.01 97.335 1770.18 97.555C1770.34 97.7677 1770.47 98.0243 1770.55 98.325C1770.63 98.6257 1770.67 98.9593 1770.67 99.326V103H1769.85L1769.76 102.362H1769.72C1769.44 102.597 1769.13 102.787 1768.79 102.934C1768.46 103.073 1768.11 103.143 1767.73 103.143ZM1768.02 102.34C1768.31 102.34 1768.59 102.289 1768.84 102.186C1769.1 102.083 1769.38 101.904 1769.67 101.647V99.876C1769.14 99.9127 1768.7 99.9677 1768.35 100.041C1768 100.107 1767.73 100.199 1767.52 100.316C1767.32 100.426 1767.18 100.565 1767.1 100.734C1767.01 100.895 1766.97 101.093 1766.97 101.328C1766.97 101.68 1767.07 101.937 1767.26 102.098C1767.46 102.259 1767.71 102.34 1768.02 102.34ZM1775.21 103.143C1774.93 103.143 1774.64 103.077 1774.34 102.945C1774.04 102.813 1773.77 102.626 1773.5 102.384H1773.47L1773.38 103H1772.58V94.244H1773.58V96.642L1773.55 97.72C1773.82 97.4853 1774.11 97.2873 1774.44 97.126C1774.76 96.9573 1775.09 96.873 1775.42 96.873C1775.8 96.873 1776.15 96.9463 1776.44 97.093C1776.74 97.2397 1776.99 97.445 1777.19 97.709C1777.39 97.973 1777.55 98.292 1777.65 98.666C1777.75 99.04 1777.8 99.4543 1777.8 99.909C1777.8 100.422 1777.73 100.881 1777.58 101.284C1777.44 101.687 1777.25 102.028 1777.01 102.307C1776.78 102.578 1776.5 102.787 1776.19 102.934C1775.88 103.073 1775.55 103.143 1775.21 103.143ZM1775.04 102.307C1775.29 102.307 1775.52 102.252 1775.72 102.142C1775.94 102.032 1776.12 101.878 1776.27 101.68C1776.43 101.475 1776.55 101.225 1776.63 100.932C1776.71 100.639 1776.76 100.305 1776.76 99.931C1776.76 99.601 1776.73 99.3003 1776.67 99.029C1776.61 98.7577 1776.52 98.5267 1776.4 98.336C1776.27 98.138 1776.11 97.9877 1775.91 97.885C1775.71 97.775 1775.47 97.72 1775.19 97.72C1774.93 97.72 1774.67 97.7897 1774.4 97.929C1774.14 98.0683 1773.87 98.2737 1773.58 98.545V101.68C1773.84 101.915 1774.1 102.08 1774.36 102.175C1774.62 102.263 1774.84 102.307 1775.04 102.307ZM1781.79 103.143C1781.39 103.143 1781.02 103.073 1780.67 102.934C1780.32 102.795 1780.02 102.593 1779.76 102.329C1779.51 102.058 1779.3 101.728 1779.15 101.339C1779 100.95 1778.93 100.51 1778.93 100.019C1778.93 99.535 1779 99.0987 1779.15 98.71C1779.3 98.3213 1779.5 97.9913 1779.75 97.72C1780 97.4487 1780.29 97.2397 1780.61 97.093C1780.94 96.9463 1781.28 96.873 1781.62 96.873C1782 96.873 1782.34 96.939 1782.63 97.071C1782.93 97.203 1783.17 97.3937 1783.37 97.643C1783.58 97.885 1783.73 98.1783 1783.83 98.523C1783.94 98.8677 1784 99.2527 1784 99.678C1784 99.788 1783.99 99.8943 1783.99 99.997C1783.98 100.092 1783.97 100.177 1783.95 100.25H1779.93C1779.96 100.895 1780.16 101.405 1780.51 101.779C1780.87 102.153 1781.34 102.34 1781.91 102.34C1782.2 102.34 1782.47 102.3 1782.71 102.219C1782.95 102.131 1783.18 102.014 1783.4 101.867L1783.77 102.527C1783.5 102.696 1783.21 102.842 1782.89 102.967C1782.57 103.084 1782.21 103.143 1781.79 103.143ZM1783.12 99.535C1783.12 98.9117 1782.99 98.446 1782.72 98.138C1782.47 97.83 1782.1 97.676 1781.63 97.676C1781.42 97.676 1781.22 97.72 1781.02 97.808C1780.83 97.8887 1780.65 98.0097 1780.5 98.171C1780.35 98.325 1780.22 98.5193 1780.12 98.754C1780.01 98.9813 1779.95 99.2417 1779.92 99.535H1783.12ZM1785.47 94.244H1786.47V103H1785.47V94.244Z" fill="black" fill-opacity="0.6"/>
</svg>
