<svg width="1808" height="83" viewBox="0 0 1808 83" fill="none" xmlns="http://www.w3.org/2000/svg">
<path d="M7.27453 8.855V8.063H6.05353V2.849H5.10753L1.13653 8.107V8.855H5.16253V11H6.05353V8.855H7.27453ZM5.16253 4.697V8.063H2.23653L5.20653 4.015C5.17353 4.246 5.16253 4.51 5.16253 4.697ZM13.7063 6.985C13.7063 4.114 12.4083 2.805 10.7473 2.805C9.07527 2.805 7.78827 4.114 7.78827 6.985C7.78827 9.845 9.07527 11.154 10.7473 11.154C12.4083 11.154 13.7063 9.845 13.7063 6.985ZM12.6943 6.985C12.6943 9.493 11.7703 10.34 10.7473 10.34C9.72427 10.34 8.81127 9.493 8.81127 6.985C8.81127 4.466 9.72427 3.63 10.7473 3.63C11.7703 3.63 12.6943 4.466 12.6943 6.985Z" fill="white" fill-opacity="0.6"/>
<path d="M6.88953 36.5V35.609H3.71053C3.43553 35.609 3.10553 35.653 2.79753 35.741L5.05253 33.508C5.96553 32.595 6.73553 31.759 6.73553 30.56C6.73553 29.13 5.66853 28.294 4.29353 28.294C2.91853 28.294 1.85153 29.097 1.64253 30.582L2.63253 30.747C2.63253 29.823 3.31453 29.163 4.23853 29.163C5.07453 29.163 5.69053 29.614 5.72353 30.582C5.72353 31.528 5.10753 32.221 4.26053 33.123L1.47753 35.796V36.5H6.88953ZM13.7063 32.485C13.7063 29.614 12.4083 28.305 10.7473 28.305C9.07527 28.305 7.78827 29.614 7.78827 32.485C7.78827 35.345 9.07527 36.654 10.7473 36.654C12.4083 36.654 13.7063 35.345 13.7063 32.485ZM12.6943 32.485C12.6943 34.993 11.7703 35.84 10.7473 35.84C9.72427 35.84 8.81127 34.993 8.81127 32.485C8.81127 29.966 9.72427 29.13 10.7473 29.13C11.7703 29.13 12.6943 29.966 12.6943 32.485Z" fill="white" fill-opacity="0.6"/>
<path d="M13.7063 57.985C13.7063 55.114 12.4083 53.805 10.7473 53.805C9.07527 53.805 7.78827 55.114 7.78827 57.985C7.78827 60.845 9.07527 62.154 10.7473 62.154C12.4083 62.154 13.7063 60.845 13.7063 57.985ZM12.6943 57.985C12.6943 60.493 11.7703 61.34 10.7473 61.34C9.72427 61.34 8.81127 60.493 8.81127 57.985C8.81127 55.466 9.72427 54.63 10.7473 54.63C11.7703 54.63 12.6943 55.466 12.6943 57.985Z" fill="white" fill-opacity="0.6"/>
<rect x="44" y="35" width="6" height="30" fill="#27D4FF"/>
<rect x="56" y="13" width="6" height="52" fill="#0068E6"/>
<rect x="68" y="25" width="6" height="40" fill="#8972FF"/>
<rect x="110.077" y="32" width="6" height="33" fill="#27D4FF"/>
<rect x="122.077" y="19" width="6" height="46" fill="#0068E6"/>
<rect x="134.077" y="12" width="6" height="53" fill="#8972FF"/>
<rect x="176.154" y="13" width="6" height="52" fill="#27D4FF"/>
<rect x="188.154" y="19" width="6" height="46" fill="#0068E6"/>
<rect x="200.154" y="30" width="6" height="35" fill="#8972FF"/>
<rect x="242.231" y="13" width="6" height="52" fill="#27D4FF"/>
<rect x="254.231" y="38" width="6" height="27" fill="#0068E6"/>
<rect x="266.231" y="20" width="6" height="45" fill="#8972FF"/>
<rect x="308.308" y="24" width="6" height="41" fill="#27D4FF"/>
<rect x="320.308" y="45" width="6" height="20" fill="#0068E6"/>
<rect x="332.308" y="35" width="6" height="30" fill="#8972FF"/>
<rect x="374.385" y="24" width="6" height="41" fill="#27D4FF"/>
<rect x="386.385" y="18" width="6" height="47" fill="#0068E6"/>
<rect x="398.385" y="29" width="6" height="36" fill="#8972FF"/>
<rect x="440.461" y="35" width="6" height="30" fill="#27D4FF"/>
<rect x="452.461" y="13" width="6" height="52" fill="#0068E6"/>
<rect x="464.461" y="25" width="6" height="40" fill="#8972FF"/>
<rect x="506.539" y="32" width="6" height="33" fill="#27D4FF"/>
<rect x="518.539" y="19" width="6" height="46" fill="#0068E6"/>
<rect x="530.539" y="12" width="6" height="53" fill="#8972FF"/>
<rect x="572.615" y="13" width="6" height="52" fill="#27D4FF"/>
<rect x="584.615" y="19" width="6" height="46" fill="#0068E6"/>
<rect x="596.615" y="30" width="6" height="35" fill="#8972FF"/>
<rect x="638.692" y="13" width="6" height="52" fill="#27D4FF"/>
<rect x="650.692" y="38" width="6" height="27" fill="#0068E6"/>
<rect x="662.692" y="20" width="6" height="45" fill="#8972FF"/>
<rect x="704.769" y="24" width="6" height="41" fill="#27D4FF"/>
<rect x="716.769" y="45" width="6" height="20" fill="#0068E6"/>
<rect x="728.769" y="35" width="6" height="30" fill="#8972FF"/>
<rect x="770.846" y="24" width="6" height="41" fill="#27D4FF"/>
<rect x="782.846" y="18" width="6" height="47" fill="#0068E6"/>
<rect x="794.846" y="29" width="6" height="36" fill="#8972FF"/>
<rect x="836.923" y="35" width="6" height="30" fill="#27D4FF"/>
<rect x="848.923" y="13" width="6" height="52" fill="#0068E6"/>
<rect x="860.923" y="25" width="6" height="40" fill="#8972FF"/>
<rect x="903" y="32" width="6" height="33" fill="#27D4FF"/>
<rect x="915" y="19" width="6" height="46" fill="#0068E6"/>
<rect x="927" y="12" width="6" height="53" fill="#8972FF"/>
<rect x="969.077" y="13" width="6" height="52" fill="#27D4FF"/>
<rect x="981.077" y="19" width="6" height="46" fill="#0068E6"/>
<rect x="993.077" y="30" width="6" height="35" fill="#8972FF"/>
<rect x="1035.15" y="13" width="6" height="52" fill="#27D4FF"/>
<rect x="1047.15" y="38" width="6" height="27" fill="#0068E6"/>
<rect x="1059.15" y="20" width="6" height="45" fill="#8972FF"/>
<rect x="1101.23" y="24" width="6" height="41" fill="#27D4FF"/>
<rect x="1113.23" y="45" width="6" height="20" fill="#0068E6"/>
<rect x="1125.23" y="35" width="6" height="30" fill="#8972FF"/>
<rect x="1167.31" y="24" width="6" height="41" fill="#27D4FF"/>
<rect x="1179.31" y="18" width="6" height="47" fill="#0068E6"/>
<rect x="1191.31" y="29" width="6" height="36" fill="#8972FF"/>
<rect x="1233.38" y="35" width="6" height="30" fill="#27D4FF"/>
<rect x="1245.38" y="13" width="6" height="52" fill="#0068E6"/>
<rect x="1257.38" y="25" width="6" height="40" fill="#8972FF"/>
<rect x="1299.46" y="32" width="6" height="33" fill="#27D4FF"/>
<rect x="1311.46" y="19" width="6" height="46" fill="#0068E6"/>
<rect x="1323.46" y="12" width="6" height="53" fill="#8972FF"/>
<rect x="1365.54" y="13" width="6" height="52" fill="#27D4FF"/>
<rect x="1377.54" y="19" width="6" height="46" fill="#0068E6"/>
<rect x="1389.54" y="30" width="6" height="35" fill="#8972FF"/>
<rect x="1431.62" y="13" width="6" height="52" fill="#27D4FF"/>
<rect x="1443.62" y="38" width="6" height="27" fill="#0068E6"/>
<rect x="1455.62" y="20" width="6" height="45" fill="#8972FF"/>
<rect x="1497.69" y="24" width="6" height="41" fill="#27D4FF"/>
<rect x="1509.69" y="45" width="6" height="20" fill="#0068E6"/>
<rect x="1521.69" y="35" width="6" height="30" fill="#8972FF"/>
<rect x="1563.77" y="24" width="6" height="41" fill="#27D4FF"/>
<rect x="1575.77" y="18" width="6" height="47" fill="#0068E6"/>
<rect x="1587.77" y="29" width="6" height="36" fill="#8972FF"/>
<rect x="1629.85" y="32" width="6" height="33" fill="#27D4FF"/>
<rect x="1641.85" y="19" width="6" height="46" fill="#0068E6"/>
<rect x="1653.85" y="12" width="6" height="53" fill="#8972FF"/>
<rect x="1695.92" y="13" width="6" height="52" fill="#27D4FF"/>
<rect x="1707.92" y="19" width="6" height="46" fill="#0068E6"/>
<rect x="1719.92" y="30" width="6" height="35" fill="#8972FF"/>
<rect x="1762" y="24" width="6" height="41" fill="#27D4FF"/>
<rect x="1774" y="45" width="6" height="20" fill="#0068E6"/>
<rect x="1786" y="35" width="6" height="30" fill="#8972FF"/>
<path d="M21 65H20V66H21V65ZM1808 64H21V66H1808V64ZM22 65V0H20V65H22Z" fill="white" fill-opacity="0.2" mask="url(#path-4-inside-1_252_10098)"/>
<path d="M49.1563 73.499H51.6203V74.819H49.0353V75.556H51.6203V76.854H52.5333V70.958H51.6203V72.762H49.3873C49.4643 72.421 49.4973 72.058 49.4973 71.695H45.0423V72.421H48.5183C48.3423 74.148 46.9123 75.435 44.5363 76.139L44.8993 76.854C47.0663 76.227 48.4853 75.116 49.1563 73.499ZM49.3103 76.964C47.3193 76.964 46.0433 77.679 46.0433 78.867C46.0433 80.055 47.3193 80.77 49.3103 80.77C51.3013 80.77 52.5773 80.055 52.5773 78.867C52.5773 77.679 51.3013 76.964 49.3103 76.964ZM49.3103 80.066C47.8583 80.066 46.9343 79.615 46.9343 78.867C46.9343 78.119 47.8473 77.679 49.3103 77.679C50.7733 77.679 51.6863 78.119 51.6863 78.867C51.6863 79.615 50.7623 80.066 49.3103 80.066ZM61.7174 78.163H62.6194V70.958H61.7174V78.163ZM59.9024 74.06C59.9024 72.641 58.7804 71.64 57.3174 71.64C55.8544 71.64 54.7544 72.641 54.7544 74.06C54.7544 75.49 55.8544 76.502 57.3174 76.502C58.7804 76.502 59.9024 75.49 59.9024 74.06ZM55.6344 74.06C55.6344 73.103 56.3494 72.421 57.3174 72.421C58.2964 72.421 59.0224 73.103 59.0224 74.06C59.0224 75.039 58.2964 75.721 57.3174 75.721C56.3494 75.721 55.6344 75.039 55.6344 74.06ZM62.9164 80.594V79.857H57.1744V77.426H56.2724V80.594H62.9164ZM73.5966 79.593V78.856H69.5596V76.997H72.7166V76.271H66.6446V74.676H72.4856V71.673H65.7316V72.41H71.6056V73.95H65.7536V76.997H68.6466V78.856H64.6316V79.593H73.5966Z" fill="white" fill-opacity="0.6"/>
<path d="M114.392 76.546V75.82H110.377V74.676H113.347V73.95H107.484V72.124H113.281V71.398H106.582V74.676H109.475V75.82H105.46V76.546H114.392ZM109.926 77.25C107.814 77.25 106.538 77.888 106.538 79.032C106.538 80.176 107.814 80.814 109.926 80.814C112.016 80.814 113.292 80.176 113.292 79.032C113.292 77.888 112.016 77.25 109.926 77.25ZM109.926 80.11C108.331 80.11 107.451 79.736 107.451 79.032C107.451 78.328 108.331 77.954 109.926 77.954C111.477 77.954 112.379 78.328 112.379 79.032C112.379 79.736 111.477 80.11 109.926 80.11ZM123.697 75.435L124.071 74.709C122.278 74.445 120.518 73.224 120.518 71.849V71.299H119.572V71.849C119.572 73.268 117.845 74.445 116.041 74.709L116.404 75.435C117.933 75.171 119.429 74.324 120.045 73.125C120.694 74.324 122.157 75.171 123.697 75.435ZM120.474 77.25H124.511L124.5 76.502H115.59V77.25H119.572V80.825H120.474V77.25ZM126.875 74.863H133.453V71.178H132.562V72.3H127.766V71.178H126.875V74.863ZM127.766 73.004H132.562V74.148H127.766V73.004ZM130.604 77.668V76.513H134.619V75.776H125.687V76.513H129.702V77.668H126.688V78.394H132.617V80.825H133.519V77.668H130.604ZM144.771 79.593V78.856H140.734V76.997H143.891V76.271H137.819V74.676H143.66V71.673H136.906V72.41H142.78V73.95H136.928V76.997H139.821V78.856H135.806V79.593H144.771Z" fill="white" fill-opacity="0.6"/>
<path d="M180.508 76.546V75.82H176.493V74.676H179.463V73.95H173.6V72.124H179.397V71.398H172.698V74.676H175.591V75.82H171.576V76.546H180.508ZM176.042 77.25C173.93 77.25 172.654 77.888 172.654 79.032C172.654 80.176 173.93 80.814 176.042 80.814C178.132 80.814 179.408 80.176 179.408 79.032C179.408 77.888 178.132 77.25 176.042 77.25ZM176.042 80.11C174.447 80.11 173.567 79.736 173.567 79.032C173.567 78.328 174.447 77.954 176.042 77.954C177.593 77.954 178.495 78.328 178.495 79.032C178.495 79.736 177.593 80.11 176.042 80.11ZM188.889 76.007H189.791V70.947H188.889V76.007ZM187.019 73.499C187.019 72.19 185.93 71.299 184.467 71.299C183.004 71.299 181.926 72.19 181.926 73.499C181.926 74.786 183.004 75.677 184.467 75.677C185.93 75.677 187.019 74.786 187.019 73.499ZM182.795 73.499C182.795 72.652 183.51 72.036 184.467 72.036C185.435 72.036 186.139 72.652 186.139 73.499C186.139 74.335 185.435 74.951 184.467 74.951C183.51 74.951 182.795 74.335 182.795 73.499ZM190.121 80.682V79.967H184.313V78.878H189.791V76.491H183.4V77.206H188.9V78.207H183.422V80.682H190.121ZM199.47 73.961H200.933V73.213H199.47V70.947H198.568V76.524H199.47V73.961ZM197.677 75.336L197.567 74.599C195.972 74.907 194.608 75.006 193.189 75.017V71.442H192.298V75.776H193.068C194.564 75.776 195.994 75.677 197.677 75.336ZM199.47 77.063H193.255V80.671H199.47V77.063ZM198.59 79.945H194.135V77.789H198.59V79.945ZM210.887 79.593V78.856H206.85V76.997H210.007V76.271H203.935V74.676H209.776V71.673H203.022V72.41H208.896V73.95H203.044V76.997H205.937V78.856H201.922V79.593H210.887Z" fill="white" fill-opacity="0.6"/>
<path d="M246.073 80.803V70.947H245.215V74.852H243.884V71.167H243.037V80.319H243.884V75.589H245.215V80.803H246.073ZM241.794 72.091H238.043V78.163H241.794V72.091ZM240.958 77.448H238.89V72.806H240.958V77.448ZM255.939 76.513L256.324 75.765C254.597 75.468 252.716 74.005 252.716 72.366V71.607H251.77V72.366C251.77 74.005 249.9 75.468 248.173 75.765L248.547 76.513C250.065 76.194 251.594 75.171 252.243 73.763C252.892 75.171 254.432 76.183 255.939 76.513ZM256.764 79.527V78.79H252.694V76.392H251.792V78.79H247.81V79.527H256.764ZM258.38 72.311H266.333V71.64H262.846V70.771H261.944V71.64H258.38V72.311ZM266.839 76.59V75.919H262.846V75.248C264.617 75.193 265.574 74.775 265.574 73.972C265.574 73.125 264.518 72.696 262.395 72.696C260.272 72.696 259.205 73.125 259.205 73.972C259.205 74.775 260.129 75.193 261.944 75.248V75.919H257.929V76.59H266.839ZM260.14 73.972C260.14 73.521 260.888 73.301 262.395 73.301C263.88 73.301 264.628 73.521 264.628 73.972C264.628 74.423 263.88 74.643 262.395 74.643C260.888 74.643 260.14 74.423 260.14 73.972ZM266.003 80.033H259.931V79.241H265.706V77.228H258.996V77.877H264.793V78.614H259.029V80.704H266.003V80.033ZM277.002 79.593V78.856H272.965V76.997H276.122V76.271H270.05V74.676H275.891V71.673H269.137V72.41H275.011V73.95H269.159V76.997H272.052V78.856H268.037V79.593H277.002Z" fill="white" fill-opacity="0.6"/>
<path d="M304.939 75.336H311.605V71.497H304.939V75.336ZM305.819 72.223H310.714V74.621H305.819V72.223ZM308.701 77.415H312.749V76.678H303.795V77.415H307.799V80.803H308.701V77.415ZM322.307 80.814V70.936H321.449V80.814H322.307ZM320.206 71.189H319.348V74.258H317.148V75.006H319.348V80.319H320.206V71.189ZM315.3 77.536V72.003H314.409V78.317H315.036C316.224 78.317 317.324 78.251 318.611 77.987L318.49 77.228C317.346 77.459 316.356 77.525 315.3 77.536ZM332.118 80.836V70.947H331.216V80.836H332.118ZM329.148 78.328V71.915H324.616V78.328H329.148ZM325.496 77.613V72.641H328.268V77.613H325.496ZM343.118 79.593V78.856H339.081V76.997H342.238V76.271H336.166V74.676H342.007V71.673H335.253V72.41H341.127V73.95H335.275V76.997H338.168V78.856H334.153V79.593H343.118Z" fill="white" fill-opacity="0.6"/>
<path d="M383.308 76.865V70.958H382.439V73.521H381.185V71.134H380.327V76.821H381.185V74.258H382.439V76.865H383.308ZM375.421 76.172H379.249V71.585H378.402V73.136H376.279V71.585H375.421V76.172ZM376.279 73.851H378.402V75.446H376.279V73.851ZM383.308 77.47H376.675V78.196H382.406V80.814H383.308V77.47ZM393.23 76.667V70.947L392.317 70.958V73.444H390.04V71.497H389.149V73.07H386.487V71.508H385.596V76.117H390.04V74.181H392.317V76.667H393.23ZM386.487 73.785H389.149V75.391H386.487V73.785ZM393.23 77.173H386.817V80.682H393.23V77.173ZM392.35 79.956H387.697V77.888H392.35V79.956ZM404.174 79.593V78.856H400.137V76.997H403.294V76.271H397.222V74.676H403.063V71.673H396.309V72.41H402.183V73.95H396.331V76.997H399.224V78.856H395.209V79.593H404.174Z" fill="white" fill-opacity="0.6"/>
<path d="M446.443 76.744H447.301V74.236H448.555V77.657H449.424V70.958H448.555V73.499H447.301V71.145H446.443V76.744ZM445.563 76.238L446.036 75.545C444.771 75.05 444.034 73.961 444.034 72.861V71.53H443.165V72.861C443.165 73.972 442.384 75.292 441.108 75.842L441.592 76.546C442.56 76.117 443.253 75.27 443.605 74.335C443.968 75.171 444.639 75.853 445.563 76.238ZM446.63 77.448V77.184H445.717V77.448C445.717 78.724 444.122 79.802 442.384 80.066L442.736 80.77C444.221 80.506 445.552 79.769 446.179 78.669C446.773 79.769 448.137 80.506 449.622 80.77L449.974 80.066C448.247 79.802 446.63 78.724 446.63 77.448ZM457.926 74.236L458.817 74.324C459.004 73.356 459.004 72.608 459.004 71.981V71.343H452.283V72.069H458.113C458.113 72.685 458.102 73.312 457.926 74.236ZM460.126 75.6V74.885H455.781V73.169H454.879V74.885H451.238V75.6H460.126ZM459.29 79.978H453.196V78.878H459.048V76.513H452.272V77.228H458.146V78.218H452.305V80.693H459.29V79.978ZM470.289 79.593V78.856H466.252V76.997H469.409V76.271H463.337V74.676H469.178V71.673H462.424V72.41H468.298V73.95H462.446V76.997H465.339V78.856H461.324V79.593H470.289Z" fill="white" fill-opacity="0.6"/>
<path d="M515.341 76.777V70.958H514.428V73.015H512.283V73.752H514.428V76.777H515.341ZM512.492 76.359L512.976 75.644C511.546 75.149 510.567 73.851 510.567 72.52V71.442H509.665V72.487C509.665 73.983 508.719 75.325 507.223 75.853L507.696 76.579C508.851 76.106 509.709 75.237 510.138 74.082C510.567 75.138 511.392 75.93 512.492 76.359ZM515.341 77.327H508.73V78.053H514.428V80.825H515.341V77.327ZM522.083 73.499H524.547V74.819H521.962V75.556H524.547V76.854H525.46V70.958H524.547V72.762H522.314C522.391 72.421 522.424 72.058 522.424 71.695H517.969V72.421H521.445C521.269 74.148 519.839 75.435 517.463 76.139L517.826 76.854C519.993 76.227 521.412 75.116 522.083 73.499ZM522.237 76.964C520.246 76.964 518.97 77.679 518.97 78.867C518.97 80.055 520.246 80.77 522.237 80.77C524.228 80.77 525.504 80.055 525.504 78.867C525.504 77.679 524.228 76.964 522.237 76.964ZM522.237 80.066C520.785 80.066 519.861 79.615 519.861 78.867C519.861 78.119 520.774 77.679 522.237 77.679C523.7 77.679 524.613 78.119 524.613 78.867C524.613 79.615 523.689 80.066 522.237 80.066ZM536.404 79.593V78.856H532.367V76.997H535.524V76.271H529.452V74.676H535.293V71.673H528.539V72.41H534.413V73.95H528.561V76.997H531.454V78.856H527.439V79.593H536.404Z" fill="white" fill-opacity="0.6"/>
<path d="M581.456 76.777V70.958H580.543V73.015H578.398V73.752H580.543V76.777H581.456ZM578.607 76.359L579.091 75.644C577.661 75.149 576.682 73.851 576.682 72.52V71.442H575.78V72.487C575.78 73.983 574.834 75.325 573.338 75.853L573.811 76.579C574.966 76.106 575.824 75.237 576.253 74.082C576.682 75.138 577.507 75.93 578.607 76.359ZM581.456 77.327H574.845V78.053H580.543V80.825H581.456V77.327ZM592.565 74.72V73.972H591.102V70.936H590.2V78.229H591.102V74.72H592.565ZM588.748 76.623L589.199 75.908C587.747 75.38 586.768 74.137 586.768 72.784V71.541H585.866V72.762C585.866 74.291 584.909 75.622 583.402 76.15L583.875 76.865C585.063 76.425 585.932 75.545 586.339 74.357C586.779 75.413 587.637 76.216 588.748 76.623ZM591.531 79.857H585.888V77.536H584.986V80.594H591.531V79.857ZM602.519 79.593V78.856H598.482V76.997H601.639V76.271H595.567V74.676H601.408V71.673H594.654V72.41H600.528V73.95H594.676V76.997H597.569V78.856H593.554V79.593H602.519Z" fill="white" fill-opacity="0.6"/>
<path d="M639.443 74.016H641.599V78.328H642.512V70.958H641.599V73.268H639.443V74.016ZM639.674 76.689L640.147 75.996C638.739 75.468 637.76 74.17 637.76 72.795V71.541H636.858V72.762C636.858 74.258 635.868 75.677 634.394 76.205L634.867 76.92C636.022 76.447 636.891 75.534 637.32 74.346C637.749 75.413 638.574 76.26 639.674 76.689ZM642.743 80.594V79.857H637.067V77.514H636.165V80.594H642.743ZM652.62 75.435L652.994 74.709C651.201 74.445 649.441 73.224 649.441 71.849V71.299H648.495V71.849C648.495 73.268 646.768 74.445 644.964 74.709L645.327 75.435C646.856 75.171 648.352 74.324 648.968 73.125C649.617 74.324 651.08 75.171 652.62 75.435ZM649.397 77.25H653.434L653.423 76.502H644.513V77.25H648.495V80.825H649.397V77.25ZM661.838 70.958V73.983H659.847V74.731H661.838V78.317H662.751V70.958H661.838ZM660.012 76.931L660.452 76.216C659 75.743 657.988 74.621 657.988 73.301V72.993H660.166V72.267H657.988V71.013H657.086V72.267H654.897V72.993H657.086V73.301C657.086 74.676 656.107 75.908 654.644 76.403L655.095 77.107C656.25 76.7 657.119 75.875 657.548 74.775C657.999 75.787 658.868 76.546 660.012 76.931ZM663.026 80.594V79.857H657.35V77.657H656.437V80.594H663.026ZM673.695 79.593V78.856H669.658V76.997H672.815V76.271H666.743V74.676H672.584V71.673H665.83V72.41H671.704V73.95H665.852V76.997H668.745V78.856H664.73V79.593H673.695Z" fill="white" fill-opacity="0.6"/>
<path d="M713.599 74.918L713.94 74.192C712.18 73.961 710.475 72.85 710.475 71.541V71.101H709.551V71.541C709.551 72.85 707.857 73.961 706.097 74.192L706.438 74.918C707.945 74.654 709.397 73.895 710.013 72.751C710.629 73.895 712.103 74.654 713.599 74.918ZM714.512 76.634V75.897H710.464V74.401H709.562V75.897H705.558V76.634H714.512ZM713.379 77.591H706.548V78.328H712.477V80.825H713.379V77.591ZM722.387 74.236L723.278 74.324C723.465 73.356 723.465 72.608 723.465 71.981V71.343H716.744V72.069H722.574C722.574 72.685 722.563 73.312 722.387 74.236ZM724.587 75.6V74.885H720.242V73.169H719.34V74.885H715.699V75.6H724.587ZM723.751 79.978H717.657V78.878H723.509V76.513H716.733V77.228H722.607V78.218H716.766V80.693H723.751V79.978ZM734.75 79.593V78.856H730.713V76.997H733.87V76.271H727.798V74.676H733.639V71.673H726.885V72.41H732.759V73.95H726.907V76.997H729.8V78.856H725.785V79.593H734.75Z" fill="white" fill-opacity="0.6"/>
<path d="M774.732 75.435L775.106 74.709C773.313 74.445 771.553 73.224 771.553 71.849V71.299H770.607V71.849C770.607 73.268 768.88 74.445 767.076 74.709L767.439 75.435C768.968 75.171 770.464 74.324 771.08 73.125C771.729 74.324 773.192 75.171 774.732 75.435ZM771.509 77.25H775.546L775.535 76.502H766.625V77.25H770.607V80.825H771.509V77.25ZM785.654 76.623V75.886H781.65V74.841H784.488V71.211H783.597V72.311H778.801V71.211H777.91V74.841H780.748V75.886H776.722V76.623H785.654ZM783.597 74.126H778.801V73.004H783.597V74.126ZM781.199 77.36C779.087 77.36 777.811 77.976 777.811 79.087C777.811 80.187 779.087 80.803 781.199 80.803C783.289 80.803 784.565 80.187 784.565 79.087C784.565 77.987 783.289 77.36 781.199 77.36ZM781.199 80.11C779.604 80.11 778.724 79.747 778.724 79.087C778.724 78.427 779.604 78.053 781.199 78.053C782.75 78.053 783.652 78.427 783.652 79.087C783.652 79.747 782.75 80.11 781.199 80.11ZM794.508 73.961H795.971V73.213H794.508V70.947H793.606V76.524H794.508V73.961ZM792.715 75.336L792.605 74.599C791.01 74.907 789.646 75.006 788.227 75.017V71.442H787.336V75.776H788.106C789.602 75.776 791.032 75.677 792.715 75.336ZM794.508 77.063H788.293V80.671H794.508V77.063ZM793.628 79.945H789.173V77.789H793.628V79.945ZM805.925 79.593V78.856H801.888V76.997H805.045V76.271H798.973V74.676H804.814V71.673H798.06V72.41H803.934V73.95H798.082V76.997H800.975V78.856H796.96V79.593H805.925Z" fill="white" fill-opacity="0.6"/>
<path d="M845.907 75.435L846.281 74.709C844.488 74.445 842.728 73.224 842.728 71.849V71.299H841.782V71.849C841.782 73.268 840.055 74.445 838.251 74.709L838.614 75.435C840.143 75.171 841.639 74.324 842.255 73.125C842.904 74.324 844.367 75.171 845.907 75.435ZM842.684 77.25H846.721L846.71 76.502H837.8V77.25H841.782V80.825H842.684V77.25ZM856.829 76.623V75.886H852.825V74.841H855.663V71.211H854.772V72.311H849.976V71.211H849.085V74.841H851.923V75.886H847.897V76.623H856.829ZM854.772 74.126H849.976V73.004H854.772V74.126ZM852.374 77.36C850.262 77.36 848.986 77.976 848.986 79.087C848.986 80.187 850.262 80.803 852.374 80.803C854.464 80.803 855.74 80.187 855.74 79.087C855.74 77.987 854.464 77.36 852.374 77.36ZM852.374 80.11C850.779 80.11 849.899 79.747 849.899 79.087C849.899 78.427 850.779 78.053 852.374 78.053C853.925 78.053 854.827 78.427 854.827 79.087C854.827 79.747 853.925 80.11 852.374 80.11ZM866.981 79.593V78.856H862.944V76.997H866.101V76.271H860.029V74.676H865.87V71.673H859.116V72.41H864.99V73.95H859.138V76.997H862.031V78.856H858.016V79.593H866.981Z" fill="white" fill-opacity="0.6"/>
<path d="M907.964 74.698V73.95H906.501V70.947H905.599V78.207H906.501V74.698H907.964ZM904.18 74.071C904.18 72.63 903.08 71.64 901.606 71.64C900.132 71.64 899.032 72.63 899.032 74.071C899.032 75.512 900.132 76.502 901.606 76.502C903.08 76.502 904.18 75.512 904.18 74.071ZM899.912 74.071C899.912 73.103 900.638 72.421 901.606 72.421C902.574 72.421 903.3 73.103 903.3 74.071C903.3 75.039 902.574 75.721 901.606 75.721C900.638 75.721 899.912 75.039 899.912 74.071ZM906.941 79.857H901.265V77.47H900.363V80.594H906.941V79.857ZM909.503 75.028L909.844 75.743C911.384 75.479 912.814 74.665 913.43 73.488C914.013 74.665 915.487 75.479 917.016 75.743L917.368 75.028C915.63 74.764 913.925 73.642 913.925 72.344V72.289H917.016V71.563H909.811V72.289H912.924V72.344C912.924 73.642 911.219 74.764 909.503 75.028ZM913.859 77.305H917.896L917.885 76.568H908.975V77.305H912.957V80.814H913.859V77.305ZM927.465 80.814V70.947H926.596V74.907H925.199V71.167H924.352V80.319H925.199V75.644H926.596V80.814H927.465ZM920.326 77.635V72.883H923.109V72.146H919.435V78.383H920.084C921.547 78.383 922.57 78.35 923.736 78.086L923.659 77.338C922.592 77.569 921.635 77.635 920.326 77.635ZM938.156 79.593V78.856H934.119V76.997H937.276V76.271H931.204V74.676H937.045V71.673H930.291V72.41H936.165V73.95H930.313V76.997H933.206V78.856H929.191V79.593H938.156Z" fill="white" fill-opacity="0.6"/>
<path d="M973.089 80.836V70.947H972.187V73.158H969.657C969.228 72.234 968.524 71.706 967.6 71.706C966.159 71.706 965.136 73.048 965.136 75.149C965.136 77.25 966.159 78.592 967.6 78.592C968.568 78.592 969.316 78.02 969.723 77.008H972.187V80.836H973.089ZM967.6 77.789C966.654 77.789 965.994 76.755 965.994 75.149C965.994 73.554 966.654 72.52 967.6 72.52C968.524 72.52 969.206 73.554 969.206 75.149C969.206 76.755 968.524 77.789 967.6 77.789ZM972.187 73.895V76.271H969.943C970.02 75.974 970.053 75.6 970.053 75.149C970.053 74.698 969.998 74.28 969.91 73.895H972.187ZM979.523 75.666C981.58 75.666 982.977 74.819 982.977 73.499C982.977 72.19 981.58 71.343 979.523 71.343C977.466 71.343 976.08 72.19 976.08 73.499C976.08 74.819 977.466 75.666 979.523 75.666ZM979.523 72.069C981.03 72.069 982.053 72.619 982.053 73.499C982.053 74.379 981.03 74.94 979.523 74.94C978.027 74.94 977.004 74.379 977.004 73.499C977.004 72.619 978.027 72.069 979.523 72.069ZM979.974 77.349H984.011V76.601H975.079V77.349H979.072V80.825H979.974V77.349ZM993.58 80.803V70.936H992.711V80.803H993.58ZM991.589 71.167H990.731V74.489H989.103V75.226H990.731V80.297H991.589V71.167ZM988.091 73.73V72.839H989.851V72.102H985.352V72.839H987.222V73.73C987.222 75.545 986.463 77.338 985.077 78.163L985.627 78.834C986.606 78.218 987.321 77.085 987.662 75.71C988.003 76.997 988.674 78.02 989.642 78.592L990.192 77.932C988.828 77.162 988.091 75.446 988.091 73.73ZM1004.27 79.593V78.856H1000.23V76.997H1003.39V76.271H997.319V74.676H1003.16V71.673H996.406V72.41H1002.28V73.95H996.428V76.997H999.321V78.856H995.306V79.593H1004.27Z" fill="white" fill-opacity="0.6"/>
<path d="M1044.26 80.836V70.947H1043.36V73.158H1040.83C1040.4 72.234 1039.7 71.706 1038.77 71.706C1037.33 71.706 1036.31 73.048 1036.31 75.149C1036.31 77.25 1037.33 78.592 1038.77 78.592C1039.74 78.592 1040.49 78.02 1040.9 77.008H1043.36V80.836H1044.26ZM1038.77 77.789C1037.83 77.789 1037.17 76.755 1037.17 75.149C1037.17 73.554 1037.83 72.52 1038.77 72.52C1039.7 72.52 1040.38 73.554 1040.38 75.149C1040.38 76.755 1039.7 77.789 1038.77 77.789ZM1043.36 73.895V76.271H1041.12C1041.19 75.974 1041.23 75.6 1041.23 75.149C1041.23 74.698 1041.17 74.28 1041.08 73.895H1043.36ZM1053.85 75.897H1055.39V75.138H1053.85V70.947H1052.95V80.814H1053.85V75.897ZM1046.31 72.861H1052.2V72.146H1049.72V70.958H1048.82V72.146H1046.31V72.861ZM1049.72 78.119V77.074C1050.86 76.931 1051.6 76.249 1051.6 75.27C1051.6 74.159 1050.64 73.444 1049.27 73.444C1047.89 73.444 1046.94 74.159 1046.94 75.27C1046.94 76.249 1047.67 76.931 1048.82 77.074V78.152C1047.85 78.185 1046.94 78.185 1046.14 78.185L1046.26 78.944C1048 78.944 1050.3 78.933 1052.42 78.548L1052.37 77.877C1051.52 78.009 1050.61 78.075 1049.72 78.119ZM1047.79 75.27C1047.79 74.566 1048.39 74.137 1049.27 74.137C1050.15 74.137 1050.74 74.566 1050.74 75.27C1050.74 75.974 1050.15 76.392 1049.27 76.392C1048.39 76.392 1047.79 75.974 1047.79 75.27ZM1065.33 79.593V78.856H1061.29V76.997H1064.45V76.271H1058.38V74.676H1064.22V71.673H1057.46V72.41H1063.34V73.95H1057.48V76.997H1060.38V78.856H1056.36V79.593H1065.33Z" fill="white" fill-opacity="0.6"/>
<path d="M1101.91 75.589H1104.41V78.24H1105.32V70.958H1104.41V72.498H1101.9C1101.43 71.926 1100.73 71.574 1099.89 71.574C1098.43 71.574 1097.34 72.597 1097.34 74.049C1097.34 75.501 1098.43 76.524 1099.89 76.524C1100.73 76.524 1101.44 76.172 1101.91 75.589ZM1098.2 74.049C1098.2 73.07 1098.92 72.366 1099.89 72.366C1100.84 72.366 1101.56 73.07 1101.56 74.049C1101.56 75.028 1100.84 75.732 1099.89 75.732C1098.92 75.732 1098.2 75.028 1098.2 74.049ZM1102.28 73.224H1104.41V74.863H1102.28C1102.37 74.61 1102.42 74.335 1102.42 74.049C1102.42 73.752 1102.37 73.477 1102.28 73.224ZM1105.59 80.594V79.857H1099.92V77.492H1099.01V80.594H1105.59ZM1107.85 75.028L1108.19 75.743C1109.73 75.479 1111.16 74.665 1111.78 73.488C1112.36 74.665 1113.83 75.479 1115.36 75.743L1115.71 75.028C1113.98 74.764 1112.27 73.642 1112.27 72.344V72.289H1115.36V71.563H1108.16V72.289H1111.27V72.344C1111.27 73.642 1109.56 74.764 1107.85 75.028ZM1112.2 77.305H1116.24L1116.23 76.568H1107.32V77.305H1111.3V80.814H1112.2V77.305ZM1125.81 80.814V70.947H1124.94V74.907H1123.54V71.167H1122.7V80.319H1123.54V75.644H1124.94V80.814H1125.81ZM1118.67 77.635V72.883H1121.45V72.146H1117.78V78.383H1118.43C1119.89 78.383 1120.92 78.35 1122.08 78.086L1122 77.338C1120.94 77.569 1119.98 77.635 1118.67 77.635ZM1136.5 79.593V78.856H1132.46V76.997H1135.62V76.271H1129.55V74.676H1135.39V71.673H1128.64V72.41H1134.51V73.95H1128.66V76.997H1131.55V78.856H1127.54V79.593H1136.5Z" fill="white" fill-opacity="0.6"/>
<path d="M1172.81 75.666C1174.87 75.666 1176.26 74.819 1176.26 73.499C1176.26 72.19 1174.87 71.343 1172.81 71.343C1170.75 71.343 1169.37 72.19 1169.37 73.499C1169.37 74.819 1170.75 75.666 1172.81 75.666ZM1172.81 72.069C1174.32 72.069 1175.34 72.619 1175.34 73.499C1175.34 74.379 1174.32 74.94 1172.81 74.94C1171.31 74.94 1170.29 74.379 1170.29 73.499C1170.29 72.619 1171.31 72.069 1172.81 72.069ZM1173.26 77.349H1177.3V76.601H1168.37V77.349H1172.36V80.825H1173.26V77.349ZM1186.14 74.192H1187.6V73.444H1186.14V70.936H1185.24V76.733H1186.14V74.192ZM1183.46 71.574H1178.91V72.311H1182.49C1182.31 73.994 1180.89 75.259 1178.46 75.919L1178.84 76.634C1181.71 75.842 1183.46 74.071 1183.46 71.574ZM1186.14 77.184H1179.73V77.91H1185.24V80.814H1186.14V77.184ZM1197.56 79.593V78.856H1193.52V76.997H1196.68V76.271H1190.61V74.676H1196.45V71.673H1189.69V72.41H1195.57V73.95H1189.71V76.997H1192.61V78.856H1188.59V79.593H1197.56Z" fill="white" fill-opacity="0.6"/>
<path d="M1238.54 74.203V73.444H1237.08V70.958H1236.18V76.909H1237.08V74.203H1238.54ZM1234.71 76.425L1235.14 75.721C1233.68 75.248 1232.75 74.082 1232.75 72.795V72.41H1234.93V71.684H1229.64V72.41H1231.85V72.795C1231.85 74.236 1230.87 75.479 1229.38 76.007L1229.84 76.722C1231.03 76.293 1231.9 75.446 1232.33 74.302C1232.75 75.281 1233.57 76.062 1234.71 76.425ZM1233.94 77.162C1231.92 77.162 1230.69 77.833 1230.69 78.977C1230.69 80.132 1231.92 80.803 1233.94 80.803C1235.93 80.803 1237.19 80.132 1237.19 78.977C1237.19 77.833 1235.93 77.162 1233.94 77.162ZM1233.94 80.088C1232.44 80.088 1231.59 79.681 1231.59 78.977C1231.59 78.273 1232.44 77.877 1233.94 77.877C1235.41 77.877 1236.29 78.273 1236.29 78.977C1236.29 79.681 1235.41 80.088 1233.94 80.088ZM1240.49 72.674H1246.5V72.916C1246.5 74.093 1246.51 75.501 1246.13 77.382L1247.03 77.481C1247.42 75.49 1247.41 74.148 1247.41 72.916V71.937H1240.49V72.674ZM1248.47 79.428V78.691H1243.92V75.16H1243.02V78.691H1239.55V79.428H1248.47ZM1258.03 80.814V70.947H1257.16V74.918H1255.82V71.211H1254.97V80.319H1255.82V75.655H1257.16V80.814H1258.03ZM1253.88 72.223H1250.03V72.96H1252.99C1252.85 75.017 1251.94 76.766 1249.66 78.053L1250.19 78.702C1253 77.118 1253.88 74.764 1253.88 72.223ZM1268.73 79.593V78.856H1264.7V76.997H1267.85V76.271H1261.78V74.676H1267.62V71.673H1260.87V72.41H1266.74V73.95H1260.89V76.997H1263.78V78.856H1259.77V79.593H1268.73Z" fill="white" fill-opacity="0.6"/>
<path d="M1301.12 74.621L1301.4 75.325C1303.04 75.149 1304.45 74.566 1305.06 73.598C1305.65 74.566 1307.11 75.149 1308.73 75.325L1309 74.621C1307.14 74.445 1305.63 73.719 1305.55 72.63H1308.6V71.915H1305.51V70.914H1304.61V71.915H1301.52V72.63H1304.57C1304.48 73.708 1302.96 74.445 1301.12 74.621ZM1309.52 76.788V76.062H1305.51V74.841H1304.61V76.062H1300.6V76.788H1309.52ZM1305.05 77.525C1302.88 77.525 1301.67 78.097 1301.67 79.164C1301.67 80.231 1302.88 80.803 1305.05 80.803C1307.22 80.803 1308.43 80.231 1308.43 79.164C1308.43 78.097 1307.22 77.525 1305.05 77.525ZM1305.05 80.121C1303.46 80.121 1302.59 79.78 1302.59 79.164C1302.59 78.548 1303.46 78.196 1305.05 78.196C1306.6 78.196 1307.52 78.548 1307.52 79.164C1307.52 79.78 1306.6 80.121 1305.05 80.121ZM1316.01 74.654H1317.93V76.128H1318.84V70.958H1317.93V72.157H1316.01V72.883H1317.93V73.917H1316.01V74.654ZM1316 75.545L1315.93 74.852C1314.55 75.061 1313.44 75.094 1312.01 75.094V73.895H1315.36V71.42H1311.1V72.124H1314.48V73.224H1311.13V75.798H1311.84C1313.38 75.798 1314.53 75.776 1316 75.545ZM1319.23 80.737V80.033H1313.33V78.955H1318.83V76.623H1312.42V77.316H1317.95V78.295H1312.44V80.737H1319.23ZM1329.79 79.593V78.856H1325.75V76.997H1328.91V76.271H1322.84V74.676H1328.68V71.673H1321.92V72.41H1327.8V73.95H1321.95V76.997H1324.84V78.856H1320.82V79.593H1329.79Z" fill="white" fill-opacity="0.6"/>
<path d="M1372.3 75.215H1373.93V77.03H1374.84V70.958H1373.93V72.707H1372.3V73.444H1373.93V74.478H1372.3V75.215ZM1372.56 76.117L1372.51 75.446C1372.1 75.501 1371.66 75.545 1371.22 75.578V72.421H1372.2V71.695H1367.01V72.421H1367.99V75.688C1367.77 75.699 1367.56 75.699 1367.35 75.699H1366.74L1366.84 76.447C1368.44 76.447 1370.66 76.414 1372.56 76.117ZM1368.86 75.677V72.421H1370.34V75.622C1369.85 75.655 1369.34 75.666 1368.86 75.677ZM1371.58 77.239C1369.51 77.239 1368.3 77.866 1368.3 79.01C1368.3 80.154 1369.51 80.803 1371.58 80.803C1373.62 80.803 1374.86 80.154 1374.86 79.01C1374.86 77.866 1373.62 77.239 1371.58 77.239ZM1371.58 80.099C1370.08 80.099 1369.2 79.714 1369.2 79.01C1369.2 78.339 1370.08 77.932 1371.58 77.932C1373.09 77.932 1373.97 78.339 1373.97 79.01C1373.97 79.714 1373.09 80.099 1371.58 80.099ZM1385.74 76.931V76.194H1381.75V75.16C1383.6 75.072 1384.75 74.335 1384.75 73.213C1384.75 71.981 1383.41 71.244 1381.3 71.244C1379.17 71.244 1377.82 71.981 1377.82 73.213C1377.82 74.357 1378.99 75.072 1380.85 75.16V76.194H1376.83V76.931H1385.74ZM1378.75 73.213C1378.75 72.421 1379.7 71.97 1381.3 71.97C1382.84 71.97 1383.83 72.432 1383.83 73.213C1383.83 73.994 1382.84 74.445 1381.3 74.445C1379.7 74.445 1378.75 74.005 1378.75 73.213ZM1384.76 79.857H1378.88V77.745H1377.98V80.594H1384.76V79.857ZM1395.9 79.593V78.856H1391.87V76.997H1395.02V76.271H1388.95V74.676H1394.79V71.673H1388.04V72.41H1393.91V73.95H1388.06V76.997H1390.95V78.856H1386.94V79.593H1395.9Z" fill="white" fill-opacity="0.6"/>
<path d="M1427.8 72.883H1433.62V72.157H1431.16V70.958H1430.25V72.157H1427.8V72.883ZM1436.89 74.962V74.203H1435.42V70.958H1434.52V78.35H1435.42V74.962H1436.89ZM1433.07 75.259C1433.07 74.159 1432.11 73.433 1430.7 73.433C1429.31 73.433 1428.35 74.159 1428.35 75.259C1428.35 76.37 1429.31 77.096 1430.7 77.096C1432.11 77.096 1433.07 76.37 1433.07 75.259ZM1429.21 75.259C1429.21 74.555 1429.78 74.137 1430.7 74.137C1431.6 74.137 1432.21 74.555 1432.21 75.259C1432.21 75.963 1431.6 76.392 1430.7 76.392C1429.78 76.392 1429.21 75.963 1429.21 75.259ZM1435.86 79.857H1430.19V77.767H1429.29V80.594H1435.86V79.857ZM1445.48 75.633H1447.06V74.885H1445.48V70.947H1444.57V80.814H1445.48V75.633ZM1439.17 77.558V71.904H1438.28V78.317H1439.06C1440.57 78.317 1442.08 78.207 1443.76 77.866L1443.65 77.118C1442.06 77.437 1440.59 77.558 1439.17 77.558ZM1449.06 72.058H1454.96V73.224H1449.09V75.919H1456.09V75.182H1450V73.917H1455.87V71.343H1449.06V72.058ZM1452.91 77.668H1456.95V76.931H1447.99V77.668H1452.01V80.825H1452.91V77.668ZM1467.08 79.593V78.856H1463.04V76.997H1466.2V76.271H1460.13V74.676H1465.97V71.673H1459.21V72.41H1465.09V73.95H1459.24V76.997H1462.13V78.856H1458.11V79.593H1467.08Z" fill="white" fill-opacity="0.6"/>
<path d="M1501.99 71.244V80H1502.99V71.244H1501.99ZM1506.36 80.143C1507.11 80.143 1507.78 79.835 1508.36 79.362H1508.39L1508.48 80H1509.3V76.326C1509.3 74.863 1508.69 73.873 1507.23 73.873C1506.27 73.873 1505.39 74.225 1504.82 74.577L1505.22 75.292C1505.69 74.973 1506.36 74.709 1507.07 74.709C1508.05 74.709 1508.3 75.446 1508.3 76.216C1505.94 76.249 1504.63 76.854 1504.63 78.394C1504.63 79.483 1505.36 80.143 1506.36 80.143ZM1506.65 79.34C1506.03 79.34 1505.61 79.032 1505.61 78.328C1505.61 77.404 1506.18 77.019 1508.3 76.876V78.647C1507.72 79.164 1507.23 79.34 1506.65 79.34ZM1513.84 80.143C1515.2 80.143 1516.43 78.977 1516.43 76.909C1516.43 75.094 1515.6 73.873 1514.05 73.873C1513.39 73.873 1512.72 74.247 1512.18 74.72L1512.21 73.642V71.244H1511.21V80H1512.01L1512.1 79.384H1512.13C1512.66 79.868 1513.28 80.143 1513.84 80.143ZM1513.67 79.307C1513.28 79.307 1512.74 79.153 1512.21 78.68V75.545C1512.78 75.006 1513.3 74.72 1513.82 74.72C1514.95 74.72 1515.39 75.611 1515.39 76.931C1515.39 78.416 1514.67 79.307 1513.67 79.307ZM1520.42 80.143C1521.25 80.143 1521.87 79.868 1522.4 79.527L1522.04 78.867C1521.6 79.164 1521.12 79.34 1520.54 79.34C1519.4 79.34 1518.64 78.537 1518.56 77.25H1522.59C1522.62 77.107 1522.63 76.898 1522.63 76.678C1522.63 74.973 1521.77 73.873 1520.25 73.873C1518.87 73.873 1517.56 75.083 1517.56 77.019C1517.56 78.999 1518.83 80.143 1520.42 80.143ZM1521.75 76.535H1518.55C1518.67 75.358 1519.42 74.676 1520.26 74.676C1521.2 74.676 1521.75 75.292 1521.75 76.535ZM1524.1 71.244V80H1525.1V71.244H1524.1Z" fill="white" fill-opacity="0.6"/>
<path d="M1568.11 71.244V80H1569.11V71.244H1568.11ZM1572.48 80.143C1573.23 80.143 1573.9 79.835 1574.47 79.362H1574.5L1574.59 80H1575.42V76.326C1575.42 74.863 1574.8 73.873 1573.35 73.873C1572.38 73.873 1571.5 74.225 1570.94 74.577L1571.34 75.292C1571.81 74.973 1572.48 74.709 1573.18 74.709C1574.16 74.709 1574.42 75.446 1574.42 76.216C1572.05 76.249 1570.74 76.854 1570.74 78.394C1570.74 79.483 1571.48 80.143 1572.48 80.143ZM1572.77 79.34C1572.15 79.34 1571.72 79.032 1571.72 78.328C1571.72 77.404 1572.29 77.019 1574.42 76.876V78.647C1573.83 79.164 1573.35 79.34 1572.77 79.34ZM1579.95 80.143C1581.32 80.143 1582.55 78.977 1582.55 76.909C1582.55 75.094 1581.71 73.873 1580.16 73.873C1579.5 73.873 1578.83 74.247 1578.29 74.72L1578.33 73.642V71.244H1577.32V80H1578.13L1578.22 79.384H1578.25C1578.78 79.868 1579.39 80.143 1579.95 80.143ZM1579.79 79.307C1579.39 79.307 1578.85 79.153 1578.33 78.68V75.545C1578.9 75.006 1579.41 74.72 1579.93 74.72C1581.06 74.72 1581.5 75.611 1581.5 76.931C1581.5 78.416 1580.79 79.307 1579.79 79.307ZM1586.53 80.143C1587.37 80.143 1587.99 79.868 1588.51 79.527L1588.15 78.867C1587.71 79.164 1587.24 79.34 1586.65 79.34C1585.51 79.34 1584.75 78.537 1584.67 77.25H1588.7C1588.73 77.107 1588.74 76.898 1588.74 76.678C1588.74 74.973 1587.89 73.873 1586.37 73.873C1584.98 73.873 1583.67 75.083 1583.67 77.019C1583.67 78.999 1584.95 80.143 1586.53 80.143ZM1587.86 76.535H1584.66C1584.78 75.358 1585.53 74.676 1586.38 74.676C1587.31 74.676 1587.86 75.292 1587.86 76.535ZM1590.22 71.244V80H1591.22V71.244H1590.22Z" fill="white" fill-opacity="0.6"/>
<path d="M1634.22 71.244V80H1635.22V71.244H1634.22ZM1638.59 80.143C1639.34 80.143 1640.01 79.835 1640.59 79.362H1640.62L1640.71 80H1641.53V76.326C1641.53 74.863 1640.92 73.873 1639.46 73.873C1638.5 73.873 1637.62 74.225 1637.05 74.577L1637.45 75.292C1637.92 74.973 1638.59 74.709 1639.3 74.709C1640.28 74.709 1640.53 75.446 1640.53 76.216C1638.17 76.249 1636.86 76.854 1636.86 78.394C1636.86 79.483 1637.59 80.143 1638.59 80.143ZM1638.88 79.34C1638.26 79.34 1637.84 79.032 1637.84 78.328C1637.84 77.404 1638.41 77.019 1640.53 76.876V78.647C1639.95 79.164 1639.46 79.34 1638.88 79.34ZM1646.07 80.143C1647.43 80.143 1648.66 78.977 1648.66 76.909C1648.66 75.094 1647.83 73.873 1646.28 73.873C1645.62 73.873 1644.95 74.247 1644.41 74.72L1644.44 73.642V71.244H1643.44V80H1644.24L1644.33 79.384H1644.36C1644.89 79.868 1645.51 80.143 1646.07 80.143ZM1645.9 79.307C1645.51 79.307 1644.97 79.153 1644.44 78.68V75.545C1645.01 75.006 1645.53 74.72 1646.05 74.72C1647.18 74.72 1647.62 75.611 1647.62 76.931C1647.62 78.416 1646.9 79.307 1645.9 79.307ZM1652.65 80.143C1653.48 80.143 1654.1 79.868 1654.63 79.527L1654.27 78.867C1653.83 79.164 1653.35 79.34 1652.77 79.34C1651.63 79.34 1650.87 78.537 1650.79 77.25H1654.82C1654.85 77.107 1654.86 76.898 1654.86 76.678C1654.86 74.973 1654 73.873 1652.48 73.873C1651.1 73.873 1649.79 75.083 1649.79 77.019C1649.79 78.999 1651.06 80.143 1652.65 80.143ZM1653.98 76.535H1650.78C1650.9 75.358 1651.65 74.676 1652.49 74.676C1653.43 74.676 1653.98 75.292 1653.98 76.535ZM1656.33 71.244V80H1657.33V71.244H1656.33Z" fill="white" fill-opacity="0.6"/>
<path d="M1700.34 71.244V80H1701.34V71.244H1700.34ZM1704.71 80.143C1705.46 80.143 1706.13 79.835 1706.7 79.362H1706.73L1706.82 80H1707.65V76.326C1707.65 74.863 1707.03 73.873 1705.58 73.873C1704.61 73.873 1703.73 74.225 1703.17 74.577L1703.57 75.292C1704.04 74.973 1704.71 74.709 1705.41 74.709C1706.39 74.709 1706.65 75.446 1706.65 76.216C1704.28 76.249 1702.97 76.854 1702.97 78.394C1702.97 79.483 1703.71 80.143 1704.71 80.143ZM1705 79.34C1704.38 79.34 1703.95 79.032 1703.95 78.328C1703.95 77.404 1704.52 77.019 1706.65 76.876V78.647C1706.06 79.164 1705.58 79.34 1705 79.34ZM1712.18 80.143C1713.55 80.143 1714.78 78.977 1714.78 76.909C1714.78 75.094 1713.94 73.873 1712.39 73.873C1711.73 73.873 1711.06 74.247 1710.52 74.72L1710.56 73.642V71.244H1709.56V80H1710.36L1710.45 79.384H1710.48C1711.01 79.868 1711.62 80.143 1712.18 80.143ZM1712.02 79.307C1711.62 79.307 1711.08 79.153 1710.56 78.68V75.545C1711.13 75.006 1711.65 74.72 1712.16 74.72C1713.3 74.72 1713.74 75.611 1713.74 76.931C1713.74 78.416 1713.02 79.307 1712.02 79.307ZM1718.76 80.143C1719.6 80.143 1720.22 79.868 1720.74 79.527L1720.38 78.867C1719.94 79.164 1719.47 79.34 1718.89 79.34C1717.74 79.34 1716.98 78.537 1716.91 77.25H1720.93C1720.96 77.107 1720.98 76.898 1720.98 76.678C1720.98 74.973 1720.12 73.873 1718.6 73.873C1717.21 73.873 1715.9 75.083 1715.9 77.019C1715.9 78.999 1717.18 80.143 1718.76 80.143ZM1720.1 76.535H1716.89C1717.02 75.358 1717.76 74.676 1718.61 74.676C1719.55 74.676 1720.1 75.292 1720.1 76.535ZM1722.45 71.244V80H1723.45V71.244H1722.45Z" fill="white" fill-opacity="0.6"/>
<path d="M1766.45 71.244V80H1767.45V71.244H1766.45ZM1770.83 80.143C1771.57 80.143 1772.24 79.835 1772.82 79.362H1772.85L1772.94 80H1773.76V76.326C1773.76 74.863 1773.15 73.873 1771.69 73.873C1770.73 73.873 1769.85 74.225 1769.29 74.577L1769.68 75.292C1770.15 74.973 1770.83 74.709 1771.53 74.709C1772.51 74.709 1772.76 75.446 1772.76 76.216C1770.4 76.249 1769.09 76.854 1769.09 78.394C1769.09 79.483 1769.82 80.143 1770.83 80.143ZM1771.11 79.34C1770.5 79.34 1770.07 79.032 1770.07 78.328C1770.07 77.404 1770.64 77.019 1772.76 76.876V78.647C1772.18 79.164 1771.69 79.34 1771.11 79.34ZM1778.3 80.143C1779.66 80.143 1780.9 78.977 1780.9 76.909C1780.9 75.094 1780.06 73.873 1778.51 73.873C1777.85 73.873 1777.18 74.247 1776.64 74.72L1776.67 73.642V71.244H1775.67V80H1776.47L1776.56 79.384H1776.59C1777.12 79.868 1777.74 80.143 1778.3 80.143ZM1778.13 79.307C1777.74 79.307 1777.2 79.153 1776.67 78.68V75.545C1777.24 75.006 1777.76 74.72 1778.28 74.72C1779.41 74.72 1779.85 75.611 1779.85 76.931C1779.85 78.416 1779.14 79.307 1778.13 79.307ZM1784.88 80.143C1785.72 80.143 1786.33 79.868 1786.86 79.527L1786.5 78.867C1786.06 79.164 1785.58 79.34 1785 79.34C1783.86 79.34 1783.1 78.537 1783.02 77.25H1787.05C1787.08 77.107 1787.09 76.898 1787.09 76.678C1787.09 74.973 1786.23 73.873 1784.71 73.873C1783.33 73.873 1782.02 75.083 1782.02 77.019C1782.02 78.999 1783.3 80.143 1784.88 80.143ZM1786.21 76.535H1783.01C1783.13 75.358 1783.88 74.676 1784.73 74.676C1785.66 74.676 1786.21 75.292 1786.21 76.535ZM1788.56 71.244V80H1789.56V71.244H1788.56Z" fill="white" fill-opacity="0.6"/>
</svg>
