<svg width="20" height="20" viewBox="0 0 20 20" fill="none" xmlns="http://www.w3.org/2000/svg">
<g opacity="0.6">
<path d="M10.0027 16.0459C9.0338 16.0461 8.07913 15.8125 7.21979 15.3648C6.36046 14.9172 5.62186 14.2688 5.06671 13.4746C4.51156 12.6805 4.15626 11.7641 4.031 10.8033C3.90573 9.8425 4.0142 8.86565 4.34718 7.95573C4.68017 7.04581 5.22783 6.22969 5.94367 5.57668C6.6595 4.92368 7.52236 4.45308 8.45896 4.20485C9.39556 3.95662 10.3782 3.93809 11.3235 4.15084C12.2688 4.3636 13.1488 4.80134 13.8887 5.42691C13.9798 5.50393 14.0548 5.59813 14.1095 5.70414C14.1641 5.81015 14.1974 5.92589 14.2073 6.04475C14.2173 6.16361 14.2037 6.28326 14.1674 6.39687C14.1311 6.51048 14.0728 6.61583 13.9957 6.70691C13.9187 6.79798 13.8245 6.87299 13.7185 6.92765C13.6125 6.98232 13.4968 7.01557 13.3779 7.0255C13.259 7.03544 13.1394 7.02187 13.0258 6.98556C12.9122 6.94925 12.8068 6.89093 12.7157 6.81391C11.9849 6.19704 11.0654 5.84808 10.1093 5.82473C9.15319 5.80137 8.21775 6.10503 7.45765 6.68548C6.69756 7.26594 6.15833 8.08842 5.92913 9.01694C5.69993 9.94545 5.79449 10.9244 6.19717 11.7919C6.59985 12.6593 7.28654 13.3634 8.14368 13.7876C9.00082 14.2119 9.97708 14.3309 10.911 14.125C11.845 13.919 12.6807 13.4005 13.28 12.6552C13.8792 11.9098 14.2062 10.9823 14.2067 10.0259C14.2067 9.78509 14.3024 9.55414 14.4727 9.38385C14.643 9.21357 14.8739 9.11791 15.1147 9.11791C15.3556 9.11791 15.5865 9.21357 15.7568 9.38385C15.9271 9.55414 16.0227 9.78509 16.0227 10.0259C16.0209 11.6219 15.386 13.1521 14.2575 14.2806C13.1289 15.4092 11.5988 16.0441 10.0027 16.0459Z" fill="white"/>
<path d="M10.7341 7.54546C10.5005 7.54594 10.2757 7.45638 10.1064 7.29538C9.93717 7.13438 9.83647 6.91434 9.82526 6.68101C9.81406 6.44767 9.89322 6.219 10.0463 6.04252C10.1993 5.86605 10.4145 5.75536 10.6471 5.73346L12.2401 5.57846L11.5691 4.14046C11.4827 3.92502 11.4821 3.68468 11.5674 3.46882C11.6527 3.25295 11.8175 3.07795 12.0278 2.97977C12.2381 2.88158 12.478 2.86767 12.6983 2.94089C12.9186 3.01411 13.1024 3.1689 13.2121 3.37346L14.4251 5.97346C14.4861 6.10479 14.5149 6.24882 14.5089 6.39352C14.5029 6.53822 14.4624 6.67939 14.3908 6.80525C14.3191 6.93111 14.2184 7.03801 14.0971 7.11702C13.9757 7.19603 13.8372 7.24487 13.6931 7.25946L10.8231 7.53846C10.7931 7.54446 10.7631 7.54546 10.7341 7.54546Z" fill="white"/>
</g>
</svg>
