<svg width="20" height="20" viewBox="0 0 20 20" fill="none" xmlns="http://www.w3.org/2000/svg">
<mask id="mask0_331_9228" style="mask-type:luminance" maskUnits="userSpaceOnUse" x="0" y="0" width="20" height="20">
<path d="M20 0H0V20H20V0Z" fill="white"/>
</mask>
<g mask="url(#mask0_331_9228)">
<path d="M5.19251 7.56449L4.28826 5.89901H3.67625V7.56449H2.79688V3.16406H4.33001C5.25202 3.16406 5.98305 3.48472 5.98305 4.49645C6.00079 4.77028 5.92855 5.04241 5.77734 5.27139C5.62613 5.50037 5.40423 5.67366 5.14543 5.76488L6.17314 7.56449H5.19251ZM3.67625 5.2035H4.2474C4.81233 5.2035 5.12144 4.96545 5.12144 4.4929C5.12144 4.02034 4.81233 3.8569 4.2474 3.8569H3.67625V5.2035Z" fill="white"/>
<path d="M6.4375 3.16406H7.33819L7.68905 5.31009C7.7539 5.77376 7.82585 6.24365 7.89069 6.71354H7.91467C8.0035 6.24365 8.09943 5.76755 8.19447 5.31009L8.70522 3.16406H9.45225L9.96299 5.31009C10.058 5.76222 10.1478 6.23743 10.2428 6.71354H10.2694C10.3352 6.23743 10.4009 5.76755 10.4657 5.31009L10.8104 3.16406H11.6489L10.8344 7.5636H9.74271L9.24972 5.38737C9.17866 5.04273 9.11471 4.69897 9.05964 4.37032H9.03565C8.97614 4.70341 8.91663 5.04273 8.84557 5.38737L8.36413 7.5636H7.28756L6.4375 3.16406Z" fill="white"/>
<path d="M13.1958 3.16406H12.3164V7.5636H13.1958V3.16406Z" fill="white"/>
<path d="M13.9883 7.00666L14.4937 6.39999C14.7947 6.69266 15.1918 6.86596 15.6111 6.88764C16.0686 6.88764 16.3129 6.69133 16.3129 6.38222C16.3129 6.05445 16.0464 5.95408 15.6529 5.78798L15.0675 5.53393C14.8148 5.45363 14.5934 5.29649 14.4342 5.08441C14.2749 4.87234 14.1858 4.61588 14.1793 4.35078C14.1917 4.16587 14.2414 3.98538 14.3255 3.82022C14.4095 3.65505 14.5262 3.50862 14.6683 3.38976C14.8105 3.27089 14.9753 3.18206 15.1528 3.12862C15.3302 3.07517 15.5167 3.05822 15.7008 3.07879C16.2172 3.07744 16.7132 3.28054 17.0803 3.64372L16.6362 4.19622C16.3801 3.96487 16.0478 3.83587 15.7026 3.83381C15.3162 3.83381 15.0657 4.00613 15.0657 4.29748C15.0657 4.61281 15.3811 4.72562 15.7559 4.87396L16.3324 5.11823C16.5921 5.19054 16.8203 5.34718 16.9811 5.56349C17.1419 5.77979 17.2262 6.04345 17.2207 6.31294C17.2087 6.50917 17.1565 6.70085 17.0672 6.87601C16.9779 7.05118 16.8536 7.20609 16.7018 7.33109C16.5501 7.45608 16.3742 7.54849 16.1852 7.60255C15.9962 7.65662 15.798 7.67118 15.6031 7.64532C15.003 7.64657 14.4252 7.41805 13.9883 7.00666Z" fill="white"/>
<path d="M18.5644 19.0017C18.5656 18.9134 18.5536 18.8254 18.5288 18.7406L15.5221 10.049C15.4663 9.86752 15.3538 9.70872 15.2011 9.59586C15.0485 9.483 14.8637 9.42203 14.6738 9.42188H14.0352L17.2151 19.0017H18.5644Z" fill="white"/>
<path d="M15.5465 19.0017L12.6445 9.42188H10.6681V10.3101C10.6681 10.4868 10.598 10.6563 10.473 10.7812C10.3481 10.9061 10.1786 10.9763 10.002 10.9763C9.82527 10.9763 9.65582 10.9061 9.53089 10.7812C9.40595 10.6563 9.33576 10.4868 9.33576 10.3101V9.42188H7.35939L4.66797 19.0017H15.5465ZM9.33576 12.9749C9.33576 12.7982 9.40595 12.6288 9.53089 12.5038C9.65582 12.3789 9.82527 12.3087 10.002 12.3087C10.1786 12.3087 10.3481 12.3789 10.473 12.5038C10.598 12.6288 10.6681 12.7982 10.6681 12.9749V13.8632C10.6706 14.0456 10.6027 14.2219 10.4787 14.3557C10.3547 14.4894 10.184 14.5704 10.002 14.5818C9.8199 14.5704 9.6492 14.4894 9.52519 14.3557C9.40118 14.2219 9.33335 14.0456 9.33576 13.8632V12.9749ZM9.33576 16.5279C9.33576 16.3512 9.40595 16.1818 9.53089 16.0569C9.65582 15.9319 9.82527 15.8617 10.002 15.8617C10.1786 15.8617 10.3481 15.9319 10.473 16.0569C10.598 16.1818 10.6681 16.3512 10.6681 16.5279V17.4162C10.6681 17.5929 10.598 17.7623 10.473 17.8873C10.3481 18.0122 10.1786 18.0824 10.002 18.0824C9.82527 18.0824 9.65582 18.0122 9.53089 17.8873C9.40595 17.7623 9.33576 17.5929 9.33576 17.4162V16.5279Z" fill="white"/>
<path d="M2.78679 19.0017L5.96675 9.42188H5.32809C5.13824 9.42203 4.95343 9.483 4.80077 9.59586C4.64811 9.70872 4.53562 9.86752 4.4798 10.049L1.47483 18.7406C1.44947 18.8253 1.43689 18.9133 1.43752 19.0017H2.78679Z" fill="white"/>
</g>
</svg>
