<svg width="24" height="24" viewBox="0 0 24 24" fill="none" xmlns="http://www.w3.org/2000/svg">
<mask id="mask0_203_3847" style="mask-type:luminance" maskUnits="userSpaceOnUse" x="0" y="0" width="24" height="24">
<path d="M24 0H0V24H24V0Z" fill="white"/>
</mask>
<g mask="url(#mask0_203_3847)">
<path d="M17.8125 8.4957L15.3555 6.0367C15.1121 5.79548 14.7832 5.66016 14.4405 5.66016C14.0978 5.66016 13.769 5.79548 13.5255 6.0367L8.23251 11.3277C7.99099 11.5712 7.85547 11.9002 7.85547 12.2432C7.85547 12.5862 7.99099 12.9152 8.23251 13.1587L10.6905 15.6167C10.8104 15.7372 10.953 15.8328 11.1101 15.8978C11.2671 15.9629 11.4355 15.9961 11.6055 15.9957C11.7754 15.9963 11.9437 15.9631 12.1006 15.898C12.2575 15.8329 12.3999 15.7373 12.5195 15.6167L17.8115 10.3247C18.0527 10.0813 18.188 9.75241 18.188 9.4097C18.188 9.06699 18.0527 8.73814 17.8115 8.4947" fill="white"/>
<path d="M16.0383 18.2767C15.9131 18.2785 15.7887 18.2554 15.6725 18.2087C15.5563 18.162 15.4505 18.0927 15.3613 18.0047L13.6693 16.3127C13.6293 16.2727 13.5975 16.2251 13.5758 16.1728C13.5541 16.1204 13.543 16.0644 13.543 16.0077C13.543 15.9511 13.5541 15.895 13.5758 15.8426C13.5975 15.7903 13.6293 15.7428 13.6693 15.7027C13.7094 15.6627 13.7569 15.6309 13.8092 15.6092C13.8616 15.5875 13.9177 15.5764 13.9743 15.5764C14.0309 15.5764 14.087 15.5875 14.1394 15.6092C14.1917 15.6309 14.2393 15.6627 14.2793 15.7027L15.9723 17.3957C16.0382 17.4057 16.1055 17.3995 16.1684 17.3775C16.2314 17.3555 16.2879 17.3185 16.3333 17.2697L19.0793 14.5247C19.2313 14.3737 19.2413 14.1987 19.2053 14.1627L17.5113 12.4707C17.4304 12.3898 17.385 12.2801 17.385 12.1657C17.385 12.0513 17.4304 11.9416 17.5113 11.8607C17.5922 11.7798 17.7019 11.7344 17.8163 11.7344C17.9307 11.7344 18.0404 11.7798 18.1213 11.8607L19.8143 13.5527C20.0048 13.7802 20.0984 14.0734 20.075 14.3693C20.0517 14.6651 19.9132 14.9399 19.6893 15.1347L16.9423 17.8807C16.7064 18.1269 16.3832 18.2706 16.0423 18.2807" fill="white"/>
<path d="M7.82667 10.2956C7.71201 10.2958 7.60196 10.2505 7.52067 10.1696L5.83067 8.47662C5.74294 8.38748 5.67373 8.28185 5.62705 8.16583C5.58036 8.0498 5.55712 7.92567 5.55867 7.80062C5.56724 7.45767 5.71101 7.13201 5.95867 6.89462L8.70067 4.14862C8.93781 3.90121 9.26307 3.75745 9.60567 3.74862C9.73199 3.7387 9.8589 3.75809 9.9765 3.80527C10.0941 3.85245 10.1992 3.92615 10.2837 4.02062L11.9757 5.71262C12.0157 5.75267 12.0475 5.80022 12.0692 5.85255C12.0908 5.90489 12.102 5.96097 12.102 6.01762C12.102 6.07426 12.0908 6.13035 12.0692 6.18268C12.0475 6.23501 12.0157 6.28256 11.9757 6.32262C11.9356 6.36267 11.8881 6.39444 11.8357 6.41612C11.7834 6.4378 11.7273 6.44895 11.6707 6.44895C11.614 6.44895 11.5579 6.4378 11.5056 6.41612C11.4533 6.39444 11.4057 6.36267 11.3657 6.32262L9.67367 4.63362C9.60769 4.62252 9.53998 4.62814 9.47673 4.64998C9.41349 4.67182 9.35674 4.70917 9.31167 4.75862L6.56567 7.50462C6.48085 7.58236 6.42927 7.68981 6.42167 7.80462L8.13267 9.55862C8.19338 9.61884 8.23481 9.69577 8.25168 9.77961C8.26855 9.86345 8.26009 9.95041 8.22739 10.0294C8.19469 10.1084 8.13922 10.176 8.06804 10.2234C7.99686 10.2708 7.91219 10.2959 7.82667 10.2956Z" fill="white"/>
<path d="M8.92689 15.0685C8.34303 14.5413 7.58634 14.246 6.79967 14.2384C6.01299 14.2309 5.25077 14.5116 4.65689 15.0275C4.61173 15.0619 4.57424 15.1052 4.54682 15.1549C4.5194 15.2045 4.50266 15.2593 4.49767 15.3158C4.49268 15.3723 4.49955 15.4292 4.51785 15.4829C4.53614 15.5366 4.56545 15.5859 4.60389 15.6275L6.18189 17.2055L5.56089 17.8265C5.52084 17.8666 5.48907 17.9142 5.46739 17.9665C5.44571 18.0188 5.43456 18.0749 5.43456 18.1315C5.43456 18.1882 5.44571 18.2443 5.46739 18.2966C5.48907 18.3489 5.52084 18.3965 5.56089 18.4365C5.60094 18.4766 5.64849 18.5084 5.70083 18.5301C5.75316 18.5517 5.80925 18.5629 5.86589 18.5629C5.92254 18.5629 5.97862 18.5517 6.03096 18.5301C6.08329 18.5084 6.13084 18.4766 6.17089 18.4365L6.79189 17.8155L8.36989 19.3935C8.41158 19.432 8.46085 19.4613 8.51453 19.4796C8.56821 19.4979 8.62512 19.5048 8.68162 19.4998C8.73811 19.4948 8.79293 19.478 8.84258 19.4506C8.89222 19.4232 8.93559 19.3857 8.96989 19.3405C9.48586 18.7467 9.76656 17.9844 9.75901 17.1978C9.75146 16.4111 9.45617 15.6544 8.92889 15.0705" fill="white"/>
</g>
</svg>
