<svg width="24" height="24" viewBox="0 0 24 24" fill="none" xmlns="http://www.w3.org/2000/svg">
<path fill-rule="evenodd" clip-rule="evenodd" d="M11.1253 4.85938C7.66687 4.85938 4.86328 7.66297 4.86328 11.1214C4.86328 14.5798 7.66687 17.3834 11.1253 17.3834C14.5837 17.3834 17.3873 14.5798 17.3873 11.1214C17.3873 7.66297 14.5837 4.85938 11.1253 4.85938ZM3.36328 11.1214C3.36328 6.83454 6.83845 3.35938 11.1253 3.35938C15.4121 3.35938 18.8873 6.83454 18.8873 11.1214C18.8873 15.4082 15.4121 18.8834 11.1253 18.8834C6.83845 18.8834 3.36328 15.4082 3.36328 11.1214Z" fill="white"/>
<path fill-rule="evenodd" clip-rule="evenodd" d="M15.5439 15.5439C15.8368 15.251 16.3117 15.251 16.6045 15.5439L20.4175 19.3569C20.7104 19.6498 20.7104 20.1247 20.4175 20.4175C20.1247 20.7104 19.6498 20.7104 19.3569 20.4175L15.5439 16.6045C15.251 16.3117 15.251 15.8368 15.5439 15.5439Z" fill="white"/>
</svg>
