<svg width="24" height="24" viewBox="0 0 24 24" fill="none" xmlns="http://www.w3.org/2000/svg">
<g id="search_fff_24" opacity="0.6">
<path id="Union" fill-rule="evenodd" clip-rule="evenodd" d="M16.1926 17.2571C14.8518 18.3611 13.1343 19.024 11.262 19.024C6.97517 19.024 3.5 15.5488 3.5 11.262C3.5 6.97517 6.97517 3.5 11.262 3.5C15.5488 3.5 19.024 6.97517 19.024 11.262C19.024 13.1363 18.3597 14.8555 17.2536 16.1968L20.5543 19.4975C20.8472 19.7904 20.8472 20.2653 20.5543 20.5582C20.2614 20.8511 19.7865 20.8511 19.4936 20.5582L16.1926 17.2571ZM5 11.262C5 7.80359 7.80359 5 11.262 5C14.7204 5 17.524 7.80359 17.524 11.262C17.524 12.9496 16.8565 14.4812 15.771 15.6073C15.7394 15.6302 15.7091 15.656 15.6806 15.6845C15.6522 15.7129 15.6266 15.743 15.6037 15.7745C14.478 16.8579 12.9478 17.524 11.262 17.524C7.80359 17.524 5 14.7204 5 11.262Z" fill="black"/>
</g>
</svg>
