<svg width="24" height="24" viewBox="0 0 24 24" fill="none" xmlns="http://www.w3.org/2000/svg">
<mask id="mask0_385_8245" style="mask-type:luminance" maskUnits="userSpaceOnUse" x="0" y="0" width="24" height="24">
<path d="M24 0H0V24H24V0Z" fill="white"/>
</mask>
<g mask="url(#mask0_385_8245)">
<path d="M18.6954 12.881C18.7334 12.5889 18.7521 12.2946 18.7514 12C18.7535 11.705 18.7314 11.4104 18.6854 11.119L20.5854 9.637C20.6674 9.56956 20.7234 9.47581 20.744 9.3717C20.7646 9.2676 20.7485 9.15957 20.6984 9.066L18.9014 5.953C18.8485 5.85884 18.7639 5.78649 18.6626 5.74878C18.5614 5.71107 18.4501 5.71044 18.3484 5.747L16.1074 6.647C15.6425 6.28718 15.1316 5.9909 14.5884 5.766L14.2514 3.384C14.2347 3.27678 14.1801 3.17909 14.0976 3.10865C14.015 3.0382 13.9099 2.99966 13.8014 3H10.2014C10.0939 2.99995 9.99006 3.03881 9.909 3.1094C9.82793 3.17999 9.77516 3.27753 9.76042 3.384L9.42342 5.766C8.88 5.99237 8.36837 6.28852 7.90142 6.647L5.66142 5.747C5.55979 5.70847 5.44762 5.70811 5.34575 5.74599C5.24387 5.78387 5.15919 5.85743 5.10742 5.953L3.32042 9.066C3.26297 9.15757 3.24257 9.2676 3.26338 9.37367C3.28419 9.47975 3.34464 9.57392 3.43242 9.637L5.33242 11.119C5.28221 11.4101 5.25512 11.7047 5.25142 12C5.24964 12.295 5.27172 12.5896 5.31742 12.881L3.41742 14.362C3.3354 14.4296 3.27932 14.5235 3.25872 14.6278C3.23812 14.7321 3.25427 14.8403 3.30442 14.934L5.10442 18.047C5.15738 18.1412 5.24198 18.2135 5.34321 18.2512C5.44445 18.2889 5.55577 18.2896 5.65742 18.253L7.89842 17.353C8.36338 17.7128 8.87421 18.0091 9.41742 18.234L9.75442 20.616C9.77239 20.7221 9.82691 20.8186 9.90856 20.8888C9.9902 20.9589 10.0938 20.9982 10.2014 21H13.8014C13.9093 21.0016 14.014 20.9632 14.0954 20.8924C14.1768 20.8215 14.2291 20.7231 14.2424 20.616L14.5794 18.234C15.1235 18.0109 15.6346 17.7145 16.0984 17.353L18.3384 18.253C18.4401 18.2915 18.5522 18.2919 18.6541 18.254C18.756 18.2161 18.8407 18.1426 18.8924 18.047L20.6924 14.934C20.7477 14.8416 20.7668 14.7319 20.7459 14.6263C20.7251 14.5206 20.6657 14.4264 20.5794 14.362L18.6954 12.881ZM12.0014 15.6C11.2894 15.6 10.5934 15.3889 10.0014 14.9933C9.40935 14.5977 8.94793 14.0355 8.67546 13.3777C8.40298 12.7198 8.33169 11.996 8.4706 11.2977C8.6095 10.5993 8.95237 9.95789 9.45584 9.45442C9.95931 8.95095 10.6008 8.60808 11.2991 8.46918C11.9974 8.33027 12.7213 8.40156 13.3791 8.67404C14.0369 8.94651 14.5991 9.40793 14.9947 9.99995C15.3903 10.592 15.6014 11.288 15.6014 12C15.5985 12.9539 15.2183 13.8679 14.5438 14.5424C13.8693 15.2169 12.9553 15.5971 12.0014 15.6Z" fill="#27D4FF"/>
</g>
</svg>
