<svg width="20" height="20" viewBox="0 0 20 20" fill="none" xmlns="http://www.w3.org/2000/svg">
<mask id="mask0_331_9216" style="mask-type:luminance" maskUnits="userSpaceOnUse" x="0" y="0" width="20" height="20">
<path d="M20 0H0V20H20V0Z" fill="white"/>
</mask>
<g mask="url(#mask0_331_9216)">
<path d="M5.35391 7.97842C5.26015 7.88469 5.13299 7.83203 5.00041 7.83203C4.86783 7.83203 4.74067 7.88469 4.64691 7.97842C4.07658 8.64477 3.75793 9.49 3.74642 10.367C3.73491 11.244 4.03126 12.0973 4.58391 12.7784C4.61934 12.8352 4.66579 12.8842 4.72052 12.9227C4.77525 12.9612 4.83714 12.9883 4.90253 13.0024C4.96792 13.0165 5.03547 13.0173 5.1012 13.0049C5.16692 12.9924 5.22948 12.9669 5.28516 12.9298C5.34084 12.8927 5.38851 12.8449 5.42536 12.789C5.4622 12.7332 5.48747 12.6705 5.49966 12.6048C5.51185 12.539 5.51072 12.4714 5.49634 12.4061C5.48195 12.3408 5.4546 12.279 5.41591 12.2244C4.01591 10.1154 5.29991 8.74442 5.35591 8.68642C5.44904 8.59274 5.50131 8.46602 5.50131 8.33392C5.50131 8.20183 5.44904 8.07511 5.35591 7.98142" fill="white"/>
<path d="M3.73434 6.96406C3.8139 6.85798 3.84807 6.72463 3.82931 6.59335C3.81056 6.46208 3.74043 6.34363 3.63434 6.26406C3.52825 6.1845 3.3949 6.15034 3.26363 6.16909C3.13235 6.18784 3.0139 6.25798 2.93434 6.36406C2.13745 7.55523 1.70924 8.95481 1.70319 10.3879C1.69714 11.8211 2.11353 13.2242 2.90034 14.4221C2.9685 14.5358 3.07907 14.6179 3.20772 14.6501C3.33637 14.6824 3.47256 14.6622 3.58634 14.5941C3.70012 14.5259 3.78216 14.4153 3.81441 14.2867C3.84667 14.158 3.8265 14.0218 3.75834 13.9081C3.0748 12.8803 2.70781 11.6746 2.70283 10.4403C2.69786 9.20596 3.05511 7.99731 3.73034 6.96406" fill="white"/>
<path d="M15.3553 7.97981C15.2618 7.88566 15.1348 7.8325 15.0021 7.83203C14.8694 7.83157 14.742 7.88382 14.6478 7.97731C14.5537 8.0708 14.5005 8.19786 14.5 8.33054C14.4996 8.46323 14.5518 8.59066 14.6453 8.68481C14.7013 8.74181 15.9913 10.1128 14.5843 12.2228C14.5456 12.2774 14.5183 12.3392 14.5039 12.4045C14.4895 12.4698 14.4884 12.5374 14.5006 12.6031C14.5128 12.6689 14.538 12.7316 14.5749 12.7874C14.6117 12.8432 14.6594 12.8911 14.7151 12.9282C14.7707 12.9653 14.8333 12.9908 14.899 13.0033C14.9648 13.0157 15.0323 13.0149 15.0977 13.0008C15.1631 12.9866 15.225 12.9595 15.2797 12.9211C15.3344 12.8826 15.3809 12.8336 15.4163 12.7768C15.9692 12.096 16.2659 11.2428 16.2548 10.3658C16.2437 9.48875 15.9254 8.6434 15.3553 7.97681" fill="white"/>
<path d="M17.0644 6.36797C16.9848 6.26188 16.8664 6.19175 16.7351 6.173C16.6038 6.15424 16.4705 6.18841 16.3644 6.26797C16.2583 6.34754 16.1882 6.46598 16.1694 6.59726C16.1507 6.72854 16.1848 6.86188 16.2644 6.96797C16.931 8.00411 17.283 9.21123 17.2779 10.4433C17.2727 11.6753 16.9106 12.8794 16.2354 13.91C16.2016 13.9663 16.1792 14.0288 16.1695 14.0937C16.1598 14.1587 16.1631 14.225 16.179 14.2887C16.1949 14.3525 16.2232 14.4125 16.2623 14.4653C16.3014 14.5181 16.3506 14.5627 16.4069 14.5965C16.4632 14.6303 16.5257 14.6527 16.5907 14.6624C16.6557 14.672 16.7219 14.6688 16.7857 14.6529C16.8494 14.637 16.9094 14.6086 16.9622 14.5695C17.015 14.5304 17.0596 14.4813 17.0934 14.425C17.8807 13.2277 18.2979 11.825 18.2927 10.3921C18.2876 8.95917 17.8603 7.55952 17.0644 6.36797Z" fill="white"/>
<path d="M12.5 5H7.5C7.36739 5 7.24021 5.05268 7.14645 5.14645C7.05268 5.24021 7 5.36739 7 5.5V14.5C7 14.6326 7.05268 14.7598 7.14645 14.8536C7.24021 14.9473 7.36739 15 7.5 15H12.5C12.6326 15 12.7598 14.9473 12.8536 14.8536C12.9473 14.7598 13 14.6326 13 14.5V5.5C13 5.36739 12.9473 5.24021 12.8536 5.14645C12.7598 5.05268 12.6326 5 12.5 5ZM10 13.25C9.75277 13.25 9.5111 13.1767 9.30554 13.0393C9.09998 12.902 8.93976 12.7068 8.84515 12.4784C8.75054 12.2499 8.72579 11.9986 8.77402 11.7561C8.82225 11.5137 8.9413 11.2909 9.11612 11.1161C9.29093 10.9413 9.51366 10.8222 9.75614 10.774C9.99861 10.7258 10.2499 10.7505 10.4784 10.8452C10.7068 10.9398 10.902 11.1 11.0393 11.3055C11.1767 11.5111 11.25 11.7528 11.25 12C11.25 12.3315 11.1183 12.6495 10.8839 12.8839C10.6495 13.1183 10.3315 13.25 10 13.25ZM10 9.25C9.75277 9.25 9.5111 9.17669 9.30554 9.03934C9.09998 8.90199 8.93976 8.70676 8.84515 8.47835C8.75054 8.24995 8.72579 7.99861 8.77402 7.75614C8.82225 7.51366 8.9413 7.29093 9.11612 7.11612C9.29093 6.9413 9.51366 6.82225 9.75614 6.77402C9.99861 6.72579 10.2499 6.75054 10.4784 6.84515C10.7068 6.93976 10.902 7.09998 11.0393 7.30554C11.1767 7.5111 11.25 7.75277 11.25 8C11.25 8.33152 11.1183 8.64946 10.8839 8.88388C10.6495 9.1183 10.3315 9.25 10 9.25Z" fill="white"/>
</g>
</svg>
