<svg width="32" height="32" viewBox="0 0 32 32" fill="none" xmlns="http://www.w3.org/2000/svg">
<g clip-path="url(#clip0_252_6807)">
<mask id="mask0_252_6807" style="mask-type:luminance" maskUnits="userSpaceOnUse" x="0" y="0" width="32" height="32">
<path d="M32 0H0V32H32V0Z" fill="white"/>
</mask>
<g mask="url(#mask0_252_6807)">
<path d="M16.6251 7.60494C16.5373 7.45293 16.4111 7.3267 16.2591 7.23894C16.1071 7.15118 15.9346 7.10498 15.7591 7.10498C15.5836 7.10498 15.4111 7.15118 15.2591 7.23894C15.1071 7.3267 14.9809 7.45293 14.8931 7.60494L5.1391 24.4999C5.05133 24.652 5.00513 24.8244 5.00513 24.9999C5.00513 25.1755 5.05133 25.3479 5.1391 25.4999C5.22686 25.6519 5.35309 25.7782 5.50511 25.866C5.65713 25.9537 5.82957 25.9999 6.0051 25.9999H25.5131C25.6886 25.9999 25.8611 25.9537 26.0131 25.866C26.1651 25.7782 26.2913 25.6519 26.3791 25.4999C26.4669 25.3479 26.5131 25.1755 26.5131 24.9999C26.5131 24.8244 26.4669 24.652 26.3791 24.4999L16.6251 7.60494Z" fill="black"/>
<path d="M28.1111 23.4999L18.3571 6.60495C18.1597 6.25845 17.8943 5.9554 17.5769 5.71396C17.2595 5.47253 16.8967 5.2977 16.5101 5.19995C16.0179 5.07495 15.5022 5.07495 15.0101 5.19995C14.6233 5.29765 14.2603 5.47258 13.9429 5.7142C13.6255 5.95583 13.3602 6.25916 13.1631 6.60595L3.40705 23.4999C3.14366 23.9561 3.00504 24.4737 3.00513 25.0004C3.00521 25.5272 3.144 26.0447 3.40753 26.5008C3.67106 26.9569 4.05005 27.3356 4.50638 27.5987C4.9627 27.8619 5.48028 28.0003 6.00705 27.9999H25.5131C26.0398 28.0003 26.5574 27.8619 27.0137 27.5987C27.4701 27.3356 27.849 26.9569 28.1126 26.5008C28.3761 26.0447 28.5149 25.5272 28.515 25.0004C28.5151 24.4737 28.3764 23.9561 28.1131 23.4999M26.3811 25.4999C26.2946 25.6531 26.1687 25.7803 26.0164 25.8683C25.8641 25.9562 25.6909 26.0017 25.5151 25.9999H6.00505C5.82952 25.9999 5.65708 25.9537 5.50506 25.866C5.35304 25.7782 5.22681 25.652 5.13904 25.4999C5.05128 25.3479 5.00508 25.1755 5.00508 24.9999C5.00508 24.8244 5.05128 24.652 5.13905 24.4999L14.8931 7.60495C14.9808 7.45294 15.1071 7.32671 15.2591 7.23895C15.4111 7.15119 15.5835 7.10499 15.7591 7.10499C15.9346 7.10499 16.107 7.15119 16.259 7.23895C16.411 7.32671 16.5373 7.45294 16.6251 7.60495L26.3791 24.4999C26.4687 24.6513 26.516 24.824 26.516 24.9999C26.516 25.1759 26.4687 25.3486 26.3791 25.4999" fill="#FFE043"/>
<path d="M14.2172 20.5469L14.6172 18.5309C14.6698 18.3105 14.7645 18.1024 14.8962 17.9179H11.8712L12.2712 15.9179C12.2855 15.8447 12.3249 15.7787 12.3826 15.7313C12.4402 15.6838 12.5125 15.6579 12.5872 15.6579H16.5462C16.6208 15.6579 16.6931 15.6838 16.7508 15.7313C16.8084 15.7787 16.8478 15.8447 16.8622 15.9179L17.1312 17.2709H18.1182L17.7542 15.4519C17.7231 15.2501 17.6243 15.0648 17.474 14.9265C17.3238 14.7882 17.1309 14.7051 16.9272 14.6909H12.2002C11.9964 14.7051 11.8036 14.7882 11.6533 14.9265C11.503 15.0648 11.4042 15.2501 11.3732 15.4519L10.8832 17.9179H10.6902C10.5193 17.9184 10.3555 17.9866 10.2347 18.1074C10.1138 18.2283 10.0457 18.392 10.0452 18.5629V21.1449C10.0457 21.3158 10.1138 21.4796 10.2347 21.6004C10.3555 21.7213 10.5193 21.7894 10.6902 21.7899H11.3352V22.4349C11.3352 22.6061 11.4032 22.7703 11.5242 22.8914C11.6453 23.0124 11.8095 23.0804 11.9807 23.0804C12.1519 23.0804 12.316 23.0124 12.4371 22.8914C12.5582 22.7703 12.6262 22.6061 12.6262 22.4349V21.7909H13.2712C13.2716 21.509 13.364 21.235 13.5344 21.0105C13.7047 20.7859 13.9438 20.6232 14.2152 20.5469M11.6572 20.1769C11.5296 20.1769 11.4049 20.1391 11.2988 20.0682C11.1928 19.9973 11.1101 19.8966 11.0613 19.7787C11.0124 19.6609 10.9997 19.5312 11.0246 19.4061C11.0494 19.281 11.1109 19.166 11.2011 19.0758C11.2913 18.9856 11.4062 18.9242 11.5313 18.8993C11.6565 18.8744 11.7861 18.8872 11.904 18.936C12.0219 18.9848 12.1226 19.0675 12.1935 19.1736C12.2643 19.2796 12.3022 19.4043 12.3022 19.5319C12.3022 19.703 12.2342 19.867 12.1132 19.988C11.9923 20.109 11.8282 20.1769 11.6572 20.1769Z" fill="#FFE043"/>
<path d="M22.308 21.145H22.118L21.628 18.679C21.5968 18.4768 21.4978 18.2913 21.3471 18.1529C21.1964 18.0146 21.0031 17.9317 20.799 17.918H16.073C15.8692 17.9322 15.6764 18.0152 15.5261 18.1535C15.3758 18.2918 15.277 18.4771 15.246 18.679L14.756 21.145H14.563C14.3921 21.1455 14.2283 21.2136 14.1075 21.3345C13.9866 21.4553 13.9185 21.6191 13.918 21.79V24.372C13.9185 24.5429 13.9866 24.7066 14.1075 24.8275C14.2283 24.9483 14.3921 25.0164 14.563 25.017H15.208V25.662C15.2145 25.8288 15.2854 25.9866 15.4058 26.1022C15.5261 26.2179 15.6865 26.2826 15.8535 26.2826C16.0204 26.2826 16.1808 26.2179 16.3012 26.1022C16.4215 25.9866 16.4924 25.8288 16.499 25.662V25.018H20.371V25.663C20.3775 25.8298 20.4484 25.9876 20.5688 26.1032C20.6891 26.2189 20.8495 26.2836 21.0165 26.2836C21.1834 26.2836 21.3438 26.2189 21.4642 26.1032C21.5845 25.9876 21.6554 25.8298 21.662 25.663V25.018H22.307C22.4779 25.0174 22.6416 24.9493 22.7625 24.8285C22.8833 24.7076 22.9514 24.5439 22.952 24.373V21.79C22.9514 21.6191 22.8833 21.4553 22.7625 21.3345C22.6416 21.2136 22.4779 21.1455 22.307 21.145M15.532 23.4C15.4044 23.4 15.2797 23.3621 15.1736 23.2913C15.0676 23.2204 14.9849 23.1197 14.9361 23.0018C14.8872 22.8839 14.8745 22.7543 14.8994 22.6291C14.9242 22.504 14.9857 22.3891 15.0759 22.2989C15.1661 22.2087 15.281 22.1472 15.4061 22.1224C15.5313 22.0975 15.6609 22.1102 15.7788 22.1591C15.8967 22.2079 15.9974 22.2906 16.0683 22.3966C16.1391 22.5027 16.177 22.6274 16.177 22.755C16.177 22.926 16.109 23.0901 15.9881 23.2111C15.8671 23.332 15.703 23.4 15.532 23.4ZM19.082 21.141H15.743L16.143 19.141C16.1573 19.0677 16.1967 19.0017 16.2544 18.9543C16.312 18.9069 16.3843 18.881 16.459 18.881H20.418C20.4926 18.881 20.5649 18.9069 20.6226 18.9543C20.6802 19.0017 20.7196 19.0677 20.734 19.141L21.134 21.141H19.082ZM21.341 23.4C21.2134 23.4 21.0887 23.3621 20.9826 23.2913C20.8766 23.2204 20.7939 23.1197 20.7451 23.0018C20.6962 22.8839 20.6835 22.7543 20.7084 22.6291C20.7332 22.504 20.7947 22.3891 20.8849 22.2989C20.9751 22.2087 21.09 22.1472 21.2151 22.1224C21.3403 22.0975 21.4699 22.1102 21.5878 22.1591C21.7057 22.2079 21.8064 22.2906 21.8773 22.3966C21.9481 22.5027 21.986 22.6274 21.986 22.755C21.986 22.926 21.918 23.0901 21.7971 23.2111C21.6761 23.332 21.512 23.4 21.341 23.4Z" fill="#FFE043"/>
</g>
</g>
<defs>
<clipPath id="clip0_252_6807">
<rect width="32" height="32" fill="white"/>
</clipPath>
</defs>
</svg>
