<svg width="20" height="20" viewBox="0 0 20 20" fill="none" xmlns="http://www.w3.org/2000/svg">
<mask id="mask0_331_9221" style="mask-type:luminance" maskUnits="userSpaceOnUse" x="0" y="0" width="20" height="20">
<path d="M20 0H0V20H20V0Z" fill="white"/>
</mask>
<g mask="url(#mask0_331_9221)">
<path d="M16.5 12.5H15V7.5H16.5C16.6326 7.5 16.7598 7.44732 16.8536 7.35355C16.9473 7.25979 17 7.13261 17 7C17 6.86739 16.9473 6.74021 16.8536 6.64645C16.7598 6.55268 16.6326 6.5 16.5 6.5H15V4C15 3.73478 14.8946 3.48043 14.7071 3.29289C14.5196 3.10536 14.2652 3 14 3H6C5.73478 3 5.48043 3.10536 5.29289 3.29289C5.10536 3.48043 5 3.73478 5 4V6.5H3.5C3.36739 6.5 3.24021 6.55268 3.14645 6.64645C3.05268 6.74021 3 6.86739 3 7C3 7.13261 3.05268 7.25979 3.14645 7.35355C3.24021 7.44732 3.36739 7.5 3.5 7.5H5V12.5H3.5C3.36739 12.5 3.24021 12.5527 3.14645 12.6464C3.05268 12.7402 3 12.8674 3 13C3 13.1326 3.05268 13.2598 3.14645 13.3536C3.24021 13.4473 3.36739 13.5 3.5 13.5H5V16C5 16.2652 5.10536 16.5196 5.29289 16.7071C5.48043 16.8946 5.73478 17 6 17H14C14.2652 17 14.5196 16.8946 14.7071 16.7071C14.8946 16.5196 15 16.2652 15 16V13.5H16.5C16.6326 13.5 16.7598 13.4473 16.8536 13.3536C16.9473 13.2598 17 13.1326 17 13C17 12.8674 16.9473 12.7402 16.8536 12.6464C16.7598 12.5527 16.6326 12.5 16.5 12.5ZM10 15C9.60444 15 9.21776 14.8827 8.88886 14.6629C8.55996 14.4432 8.30362 14.1308 8.15224 13.7654C8.00087 13.3999 7.96126 12.9978 8.03843 12.6098C8.1156 12.2219 8.30608 11.8655 8.58579 11.5858C8.86549 11.3061 9.22186 11.1156 9.60982 11.0384C9.99778 10.9613 10.3999 11.0009 10.7654 11.1522C11.1308 11.3036 11.4432 11.56 11.6629 11.8889C11.8827 12.2178 12 12.6044 12 13C12 13.5304 11.7893 14.0391 11.4142 14.4142C11.0391 14.7893 10.5304 15 10 15ZM10 9C9.60444 9 9.21776 8.8827 8.88886 8.66294C8.55996 8.44318 8.30362 8.13082 8.15224 7.76537C8.00087 7.39991 7.96126 6.99778 8.03843 6.60982C8.1156 6.22186 8.30608 5.86549 8.58579 5.58579C8.86549 5.30608 9.22186 5.1156 9.60982 5.03843C9.99778 4.96126 10.3999 5.00087 10.7654 5.15224C11.1308 5.30362 11.4432 5.55996 11.6629 5.88886C11.8827 6.21776 12 6.60444 12 7C12 7.53043 11.7893 8.03914 11.4142 8.41421C11.0391 8.78929 10.5304 9 10 9Z" fill="white"/>
</g>
</svg>
