<svg width="20" height="20" viewBox="0 0 20 20" fill="none" xmlns="http://www.w3.org/2000/svg">
<mask id="mask0_331_9220" style="mask-type:luminance" maskUnits="userSpaceOnUse" x="0" y="0" width="20" height="20">
<path d="M20 0H0V20H20V0Z" fill="white"/>
</mask>
<g mask="url(#mask0_331_9220)">
<path d="M4 10.5H3C2.86739 10.5 2.74021 10.4473 2.64645 10.3536C2.55268 10.2598 2.5 10.1326 2.5 10C2.5 9.86739 2.55268 9.74021 2.64645 9.64645C2.74021 9.55268 2.86739 9.5 3 9.5H4C4.13261 9.5 4.25979 9.55268 4.35355 9.64645C4.44732 9.74021 4.5 9.86739 4.5 10C4.5 10.1326 4.44732 10.2598 4.35355 10.3536C4.25979 10.4473 4.13261 10.5 4 10.5Z" fill="white"/>
<path d="M17 10.5H16C15.8674 10.5 15.7402 10.4473 15.6464 10.3536C15.5527 10.2598 15.5 10.1326 15.5 10C15.5 9.86739 15.5527 9.74021 15.6464 9.64645C15.7402 9.55268 15.8674 9.5 16 9.5H17C17.1326 9.5 17.2598 9.55268 17.3536 9.64645C17.4473 9.74021 17.5 9.86739 17.5 10C17.5 10.1326 17.4473 10.2598 17.3536 10.3536C17.2598 10.4473 17.1326 10.5 17 10.5Z" fill="white"/>
<path d="M10 4.5C9.86739 4.5 9.74021 4.44732 9.64645 4.35355C9.55268 4.25979 9.5 4.13261 9.5 4V3C9.5 2.86739 9.55268 2.74021 9.64645 2.64645C9.74021 2.55268 9.86739 2.5 10 2.5C10.1326 2.5 10.2598 2.55268 10.3536 2.64645C10.4473 2.74021 10.5 2.86739 10.5 3V4C10.5 4.13261 10.4473 4.25979 10.3536 4.35355C10.2598 4.44732 10.1326 4.5 10 4.5Z" fill="white"/>
<path d="M14.2431 6.257C14.1441 6.25718 14.0472 6.22795 13.9648 6.17302C13.8824 6.11809 13.8182 6.03994 13.7803 5.94846C13.7424 5.85699 13.7325 5.75632 13.7518 5.65921C13.7712 5.5621 13.819 5.47293 13.8891 5.403L14.6001 4.7C14.6431 4.64269 14.6979 4.59529 14.7608 4.561C14.8237 4.52671 14.8932 4.50634 14.9646 4.50126C15.0361 4.49618 15.1078 4.50652 15.1749 4.53156C15.242 4.55661 15.303 4.59579 15.3536 4.64645C15.4043 4.6971 15.4435 4.75805 15.4685 4.82516C15.4936 4.89228 15.5039 4.96399 15.4988 5.03544C15.4937 5.1069 15.4734 5.17643 15.4391 5.23933C15.4048 5.30222 15.3574 5.35702 15.3001 5.4L14.5931 6.108C14.5466 6.1544 14.4914 6.19118 14.4306 6.21623C14.3699 6.24128 14.3048 6.25412 14.2391 6.254" fill="white"/>
<path d="M5.757 6.257C5.69079 6.25751 5.62514 6.24487 5.56386 6.21981C5.50257 6.19475 5.44688 6.15776 5.4 6.111L4.7 5.4C4.64269 5.35702 4.59529 5.30222 4.561 5.23933C4.52671 5.17643 4.50634 5.1069 4.50126 5.03544C4.49618 4.96399 4.50652 4.89228 4.53156 4.82516C4.55661 4.75805 4.59579 4.6971 4.64645 4.64645C4.6971 4.59579 4.75805 4.55661 4.82516 4.53156C4.89228 4.50652 4.96399 4.49618 5.03544 4.50126C5.1069 4.50634 5.17643 4.52671 5.23933 4.561C5.30222 4.59529 5.35702 4.64269 5.4 4.7L6.108 5.407C6.17811 5.47693 6.22587 5.5661 6.24524 5.66321C6.26461 5.76032 6.2547 5.86099 6.21678 5.95246C6.17887 6.04394 6.11464 6.12209 6.03225 6.17702C5.94986 6.23195 5.85302 6.26118 5.754 6.261" fill="white"/>
<path d="M15 14H14V10C14 8.93913 13.5786 7.92172 12.8284 7.17157C12.0783 6.42143 11.0609 6 10 6C8.93913 6 7.92172 6.42143 7.17157 7.17157C6.42143 7.92172 6 8.93913 6 10V14H5C4.73478 14 4.48043 14.1054 4.29289 14.2929C4.10536 14.4804 4 14.7348 4 15C4 15.2652 4.10536 15.5196 4.29289 15.7071C4.48043 15.8946 4.73478 16 5 16H15C15.2652 16 15.5196 15.8946 15.7071 15.7071C15.8946 15.5196 16 15.2652 16 15C16 14.7348 15.8946 14.4804 15.7071 14.2929C15.5196 14.1054 15.2652 14 15 14ZM9.091 7.6C8.70733 7.64697 8.35067 7.8218 8.07854 8.09629C7.8064 8.37079 7.63465 8.72894 7.591 9.113C7.591 9.1793 7.56466 9.24289 7.51778 9.28978C7.47089 9.33666 7.4073 9.363 7.341 9.363C7.2747 9.363 7.21111 9.33666 7.16422 9.28978C7.11734 9.24289 7.091 9.1793 7.091 9.113C7.13584 8.59636 7.36061 8.11185 7.72611 7.74397C8.09162 7.37609 8.57466 7.14818 9.091 7.1C9.1573 7.1 9.22089 7.12634 9.26778 7.17322C9.31466 7.22011 9.341 7.2837 9.341 7.35C9.341 7.4163 9.31466 7.47989 9.26778 7.52678C9.22089 7.57366 9.1573 7.6 9.091 7.6Z" fill="white"/>
</g>
</svg>
