<svg width="20" height="20" viewBox="0 0 20 20" fill="none" xmlns="http://www.w3.org/2000/svg">
<g clip-path="url(#clip0_413_12246)">
<mask id="mask0_413_12246" style="mask-type:luminance" maskUnits="userSpaceOnUse" x="0" y="0" width="20" height="20">
<path d="M20 0H0V20H20V0Z" fill="white"/>
</mask>
<g mask="url(#mask0_413_12246)">
<path d="M9.414 14.667V13.334C9.41387 13.2465 9.431 13.1597 9.46441 13.0788C9.49782 12.9979 9.54686 12.9244 9.60871 12.8624C9.67057 12.8005 9.74403 12.7513 9.8249 12.7178C9.90577 12.6843 9.99246 12.667 10.08 12.667V11.778C9.99246 11.778 9.90577 11.7607 9.8249 11.7272C9.74403 11.6937 9.67057 11.6445 9.60871 11.5826C9.54686 11.5206 9.49782 11.4471 9.46441 11.3662C9.431 11.2853 9.41387 11.1985 9.414 11.111V10.667H8.969C8.7967 10.6603 8.63368 10.5872 8.51414 10.4629C8.3946 10.3387 8.32782 10.1729 8.32782 10.0005C8.32782 9.82807 8.3946 9.66234 8.51414 9.53808C8.63368 9.41382 8.7967 9.34067 8.969 9.334H9.414V8.889C9.42067 8.7167 9.49382 8.55368 9.61808 8.43414C9.74234 8.3146 9.90807 8.24782 10.0805 8.24782C10.2529 8.24782 10.4187 8.3146 10.5429 8.43414C10.6672 8.55368 10.7403 8.7167 10.747 8.889V9.334H11.191C11.2785 9.33387 11.3653 9.351 11.4462 9.38441C11.5271 9.41782 11.6006 9.46686 11.6626 9.52871C11.7245 9.59057 11.7737 9.66403 11.8072 9.7449C11.8407 9.82577 11.858 9.91246 11.858 10H12.747C12.747 9.91246 12.7643 9.82577 12.7978 9.7449C12.8313 9.66403 12.8805 9.59057 12.9424 9.52871C13.0044 9.46686 13.0779 9.41782 13.1588 9.38441C13.2397 9.351 13.3265 9.33387 13.414 9.334H14.747C14.9237 9.334 15.0932 9.40414 15.2183 9.52901C15.3433 9.65388 15.4137 9.82327 15.414 10H16.3C16.3 9.82337 16.3702 9.65397 16.4951 9.52907C16.62 9.40417 16.7894 9.334 16.966 9.334H18.08V6H15C14.7348 6 14.4804 5.89464 14.2929 5.70711C14.1054 5.51957 14 5.26522 14 5V2H10.747V3.111C10.7505 3.2007 10.7358 3.29017 10.7039 3.37407C10.672 3.45796 10.6234 3.53455 10.5612 3.59924C10.499 3.66393 10.4243 3.7154 10.3417 3.75055C10.2591 3.7857 10.1703 3.80382 10.0805 3.80382C9.99073 3.80382 9.90189 3.7857 9.8193 3.75055C9.7367 3.7154 9.66205 3.66393 9.59982 3.59924C9.53758 3.53455 9.48905 3.45796 9.45712 3.37407C9.42519 3.29017 9.41052 3.2007 9.414 3.111V2H6V5C6 5.26522 5.89464 5.51957 5.70711 5.70711C5.51957 5.89464 5.26522 6 5 6H2V9.334H3.191C3.2807 9.33052 3.37017 9.34519 3.45407 9.37712C3.53796 9.40905 3.61455 9.45758 3.67924 9.51982C3.74393 9.58205 3.7954 9.6567 3.83055 9.7393C3.8657 9.82189 3.88382 9.91073 3.88382 10.0005C3.88382 10.0903 3.8657 10.1791 3.83055 10.2617C3.7954 10.3443 3.74393 10.419 3.67924 10.4812C3.61455 10.5434 3.53796 10.592 3.45407 10.6239C3.37017 10.6558 3.2807 10.6705 3.191 10.667H2V14H5C5.25836 14.0206 5.50092 14.1325 5.68419 14.3158C5.86745 14.4991 5.97942 14.7416 6 15V18H9.414V16.889C9.414 16.8015 9.43123 16.7149 9.4647 16.6341C9.49817 16.5533 9.54722 16.4799 9.60907 16.4181C9.67091 16.3562 9.74433 16.3072 9.82513 16.2737C9.90594 16.2402 9.99254 16.223 10.08 16.223V15.334C9.90327 15.3337 9.73388 15.2633 9.60901 15.1383C9.48414 15.0132 9.414 14.8437 9.414 14.667ZM9.414 5.334C9.41052 5.2443 9.42519 5.15482 9.45712 5.07093C9.48905 4.98704 9.53758 4.91045 9.59982 4.84576C9.66205 4.78107 9.7367 4.7296 9.8193 4.69445C9.90189 4.6593 9.99073 4.64118 10.0805 4.64118C10.1703 4.64118 10.2591 4.6593 10.3417 4.69445C10.4243 4.7296 10.499 4.78107 10.5612 4.84576C10.6234 4.91045 10.672 4.98704 10.7039 5.07093C10.7358 5.15482 10.7505 5.2443 10.747 5.334V6.667C10.7505 6.7567 10.7358 6.84618 10.7039 6.93007C10.672 7.01396 10.6234 7.09055 10.5612 7.15524C10.499 7.21993 10.4243 7.2714 10.3417 7.30655C10.2591 7.3417 10.1703 7.35982 10.0805 7.35982C9.99073 7.35982 9.90189 7.3417 9.8193 7.30655C9.7367 7.2714 9.66205 7.21993 9.59982 7.15524C9.53758 7.09055 9.48905 7.01396 9.45712 6.93007C9.42519 6.84618 9.41052 6.7567 9.414 6.667V5.334ZM6.747 10.667H5.414C5.3243 10.6705 5.23483 10.6558 5.15093 10.6239C5.06704 10.592 4.99045 10.5434 4.92576 10.4812C4.86107 10.419 4.8096 10.3443 4.77445 10.2617C4.7393 10.1791 4.72118 10.0903 4.72118 10.0005C4.72118 9.91073 4.7393 9.82189 4.77445 9.7393C4.8096 9.6567 4.86107 9.58205 4.92576 9.51982C4.99045 9.45758 5.06704 9.40905 5.15093 9.37712C5.23483 9.34519 5.3243 9.33052 5.414 9.334H6.747C6.8367 9.33052 6.92618 9.34519 7.01007 9.37712C7.09396 9.40905 7.17055 9.45758 7.23524 9.51982C7.29993 9.58205 7.3514 9.6567 7.38655 9.7393C7.4217 9.82189 7.43982 9.91073 7.43982 10.0005C7.43982 10.0903 7.4217 10.1791 7.38655 10.2617C7.3514 10.3443 7.29993 10.419 7.23524 10.4812C7.17055 10.5434 7.09396 10.592 7.01007 10.6239C6.92618 10.6558 6.8367 10.6705 6.747 10.667Z" fill="white"/>
<path d="M12 17.0313L12.91 15.9173C13.3629 16.324 13.9395 16.5664 14.547 16.6053C15.147 16.6053 15.425 16.3783 15.425 16.0173C15.425 15.6283 15.055 15.5023 14.476 15.2573L13.615 14.8933C13.2233 14.7664 12.8811 14.5203 12.6363 14.1892C12.3916 13.8582 12.2565 13.4589 12.25 13.0473C12.2942 12.4618 12.5692 11.9179 13.0144 11.5352C13.4596 11.1524 14.0385 10.9622 14.624 11.0063L14.697 11.0133C15.5146 11.0115 16.3006 11.3295 16.887 11.8993L16.081 12.9133C15.694 12.5875 15.2059 12.4062 14.7 12.4003C14.2 12.4003 13.893 12.6003 13.893 12.9623C13.893 13.3243 14.319 13.4783 14.916 13.7133L15.758 14.0493C16.1519 14.1669 16.4957 14.4118 16.7357 14.7456C16.9756 15.0794 17.0981 15.4834 17.084 15.8943C17.084 17.0163 16.143 18.0033 14.514 18.0033C13.5849 17.9998 12.6897 17.6537 12 17.0313Z" fill="white"/>
</g>
</g>
<defs>
<clipPath id="clip0_413_12246">
<rect width="20" height="20" fill="white"/>
</clipPath>
</defs>
</svg>
