<svg width="24" height="24" viewBox="0 0 24 24" fill="none" xmlns="http://www.w3.org/2000/svg">
<g clip-path="url(#clip0_595_2990)">
<mask id="mask0_595_2990" style="mask-type:luminance" maskUnits="userSpaceOnUse" x="0" y="0" width="24" height="24">
<path d="M24 0H0V24H24V0Z" fill="white"/>
</mask>
<g mask="url(#mask0_595_2990)">
<mask id="mask1_595_2990" style="mask-type:luminance" maskUnits="userSpaceOnUse" x="0" y="0" width="24" height="24">
<path d="M24 0H0V24H24V0Z" fill="white"/>
</mask>
<g mask="url(#mask1_595_2990)">
<path d="M11.25 17.25V15.75C11.25 15.5511 11.329 15.3603 11.4697 15.2197C11.6103 15.079 11.8011 15 12 15V14C11.8011 14 11.6103 13.921 11.4697 13.7803C11.329 13.6397 11.25 13.4489 11.25 13.25V12.75H10.75C10.5511 12.75 10.3603 12.671 10.2197 12.5303C10.079 12.3897 10 12.1989 10 12C10 11.8011 10.079 11.6103 10.2197 11.4697C10.3603 11.329 10.5511 11.25 10.75 11.25H11.25V10.75C11.25 10.5511 11.329 10.3603 11.4697 10.2197C11.6103 10.079 11.8011 10 12 10C12.1989 10 12.3897 10.079 12.5303 10.2197C12.671 10.3603 12.75 10.5511 12.75 10.75V11.25H13.25C13.4489 11.25 13.6397 11.329 13.7803 11.4697C13.921 11.6103 14 11.8011 14 12H15C15 11.8011 15.079 11.6103 15.2197 11.4697C15.3603 11.329 15.5511 11.25 15.75 11.25H17.25C17.4489 11.25 17.6397 11.329 17.7803 11.4697C17.921 11.6103 18 11.8011 18 12H19C19 11.8011 19.079 11.6103 19.2197 11.4697C19.3603 11.329 19.5511 11.25 19.75 11.25H21V8H17C16.7348 8 16.4804 7.89464 16.2929 7.70711C16.1054 7.51957 16 7.26522 16 7V3H12.75V4.25C12.75 4.44891 12.671 4.63968 12.5303 4.78033C12.3897 4.92098 12.1989 5 12 5C11.8011 5 11.6103 4.92098 11.4697 4.78033C11.329 4.63968 11.25 4.44891 11.25 4.25V3H8V7C8 7.26522 7.89464 7.51957 7.70711 7.70711C7.51957 7.89464 7.26522 8 7 8H3V11.25H4.25C4.44891 11.25 4.63968 11.329 4.78033 11.4697C4.92098 11.6103 5 11.8011 5 12C5 12.1989 4.92098 12.3897 4.78033 12.5303C4.63968 12.671 4.44891 12.75 4.25 12.75H3V16H7C7.26522 16 7.51957 16.1054 7.70711 16.2929C7.89464 16.4804 8 16.7348 8 17V21H11.25V19.75C11.25 19.5511 11.329 19.3603 11.4697 19.2197C11.6103 19.079 11.8011 19 12 19V18C11.8011 18 11.6103 17.921 11.4697 17.7803C11.329 17.6397 11.25 17.4489 11.25 17.25ZM11.25 6.75C11.25 6.55109 11.329 6.36032 11.4697 6.21967C11.6103 6.07902 11.8011 6 12 6C12.1989 6 12.3897 6.07902 12.5303 6.21967C12.671 6.36032 12.75 6.55109 12.75 6.75V8.25C12.75 8.44891 12.671 8.63968 12.5303 8.78033C12.3897 8.92098 12.1989 9 12 9C11.8011 9 11.6103 8.92098 11.4697 8.78033C11.329 8.63968 11.25 8.44891 11.25 8.25V6.75ZM8.25 12.75H6.75C6.55109 12.75 6.36032 12.671 6.21967 12.5303C6.07902 12.3897 6 12.1989 6 12C6 11.8011 6.07902 11.6103 6.21967 11.4697C6.36032 11.329 6.55109 11.25 6.75 11.25H8.25C8.44891 11.25 8.63968 11.329 8.78033 11.4697C8.92098 11.6103 9 11.8011 9 12C9 12.1989 8.92098 12.3897 8.78033 12.5303C8.63968 12.671 8.44891 12.75 8.25 12.75Z" fill="white"/>
<path d="M14.0899 19.9336L15.0899 18.7096C15.5883 19.1561 16.2222 19.4223 16.8899 19.4656C17.5479 19.4656 17.8549 19.2156 17.8549 18.8196C17.8549 18.3916 17.4479 18.2526 16.8109 17.9836L15.8649 17.5836C15.4344 17.4443 15.0582 17.1738 14.7892 16.8099C14.5201 16.446 14.3718 16.0071 14.3649 15.5546C14.4135 14.9112 14.7157 14.3134 15.2049 13.8928C15.6942 13.4721 16.3305 13.2631 16.9739 13.3116L17.0539 13.3186C17.9528 13.3172 18.8168 13.6667 19.4619 14.2926L18.5759 15.4076C18.1502 15.0477 17.6124 14.8472 17.0549 14.8406C16.5069 14.8406 16.1689 15.0596 16.1689 15.4576C16.1689 15.8556 16.6369 16.0246 17.2929 16.2836L18.2179 16.6526C18.6511 16.7817 19.0291 17.0509 19.2929 17.4178C19.5568 17.7848 19.6915 18.2289 19.6759 18.6806C19.6759 19.9136 18.6419 20.9986 16.8509 20.9986C15.8295 20.9966 14.8448 20.6173 14.0859 19.9336" fill="white"/>
</g>
</g>
</g>
<defs>
<clipPath id="clip0_595_2990">
<rect width="24" height="24" fill="white"/>
</clipPath>
</defs>
</svg>
