<svg width="20" height="20" viewBox="0 0 20 20" fill="none" xmlns="http://www.w3.org/2000/svg">
<mask id="mask0_331_9222" style="mask-type:luminance" maskUnits="userSpaceOnUse" x="0" y="0" width="20" height="20">
<path d="M20 0H0V20H20V0Z" fill="white"/>
</mask>
<g mask="url(#mask0_331_9222)">
<path d="M6.21 7.98082L3.858 6.74082C3.79603 6.70112 3.72684 6.67402 3.65439 6.66107C3.58194 6.64813 3.50765 6.64959 3.43576 6.66538C3.36388 6.68117 3.29581 6.71097 3.23545 6.75309C3.17509 6.7952 3.12363 6.8488 3.084 6.91082C3.04071 6.97664 3.01207 7.05098 3 7.12882V12.8088C3.02804 12.958 3.11331 13.0902 3.23758 13.1773C3.36185 13.2644 3.51525 13.2994 3.665 13.2748C3.74246 13.2625 3.81641 13.2338 3.882 13.1908L6.22 11.9128C6.2898 11.8761 6.34871 11.8216 6.39084 11.7549C6.43296 11.6882 6.45681 11.6116 6.46 11.5328V8.36582C6.45696 8.2848 6.43214 8.20609 6.38815 8.13799C6.34415 8.06989 6.28261 8.0149 6.21 7.97882" fill="white"/>
<path d="M17.158 6H9.658C9.54852 5.99987 9.4401 6.02132 9.33892 6.06312C9.23774 6.10493 9.14579 6.16626 9.06833 6.24363C8.99088 6.32099 8.92943 6.41286 8.8875 6.51399C8.84558 6.61512 8.824 6.72353 8.824 6.833V7.5H7.831C7.6105 7.50079 7.39929 7.58887 7.24356 7.74498C7.08784 7.90108 7.00026 8.1125 7 8.333V11.667C7.00027 11.888 7.08825 12.0999 7.24463 12.2561C7.401 12.4123 7.61298 12.5 7.834 12.5H8.827L8.839 13.172C8.839 13.2814 8.86055 13.3897 8.90241 13.4908C8.94427 13.5918 9.00563 13.6837 9.08298 13.761C9.16033 13.8384 9.25216 13.8997 9.35322 13.9416C9.45429 13.9835 9.56261 14.005 9.672 14.005H17.172C17.3921 14.0037 17.6027 13.9153 17.7578 13.7593C17.9129 13.6032 18 13.3921 18 13.172L17.989 6.829C17.9879 6.60912 17.9 6.39857 17.7443 6.24327C17.5886 6.08797 17.3779 6.00053 17.158 6ZM12.491 9.27C12.6946 9.40137 12.9172 9.50053 13.151 9.564C13.4205 9.64627 13.6808 9.75584 13.928 9.891C14.1491 9.99742 14.3357 10.164 14.4664 10.3717C14.5971 10.5793 14.6666 10.8196 14.667 11.065C14.6739 11.2464 14.6364 11.4267 14.5578 11.5903C14.4792 11.754 14.3619 11.896 14.216 12.004C13.8521 12.25 13.4176 12.3701 12.979 12.346C12.6354 12.3495 12.2948 12.2814 11.979 12.146C11.7041 12.0345 11.4679 11.8446 11.3 11.6C11.1455 11.3622 11.0661 11.0835 11.072 10.8H12.172C12.1638 10.8981 12.1765 10.9968 12.209 11.0897C12.2416 11.1825 12.2934 11.2675 12.361 11.339C12.5379 11.4699 12.7567 11.5315 12.976 11.512C13.1281 11.5212 13.2791 11.4804 13.406 11.396C13.458 11.3578 13.4996 11.3073 13.5272 11.249C13.5548 11.1907 13.5674 11.1264 13.564 11.062C13.5679 10.9907 13.5548 10.9196 13.5258 10.8543C13.4967 10.7891 13.4526 10.7318 13.397 10.687C13.2128 10.5635 13.0103 10.4697 12.797 10.409C12.5576 10.3319 12.3238 10.2387 12.097 10.13C11.8468 10.0421 11.6287 9.88132 11.4708 9.66833C11.3129 9.45533 11.2224 9.19991 11.211 8.935C11.2076 8.69414 11.2854 8.45915 11.432 8.268C11.5947 8.06326 11.8106 7.90723 12.056 7.817C12.3456 7.70587 12.6538 7.65122 12.964 7.656C13.2671 7.65124 13.5677 7.71089 13.846 7.831C14.0912 7.93657 14.3011 8.11006 14.451 8.331C14.5962 8.55016 14.6715 8.80817 14.667 9.071H13.567C13.5724 8.99125 13.5604 8.91127 13.5317 8.83665C13.5031 8.76204 13.4585 8.69458 13.401 8.639C13.2723 8.53143 13.1075 8.47675 12.94 8.486C12.7745 8.47613 12.6105 8.52189 12.474 8.616C12.4212 8.65379 12.3785 8.70386 12.3494 8.76187C12.3203 8.81989 12.3057 8.88411 12.307 8.949C12.3105 9.01322 12.3294 9.07565 12.3621 9.131C12.3948 9.18636 12.4404 9.23301 12.495 9.267" fill="white"/>
</g>
<mask id="mask1_331_9222" style="mask-type:luminance" maskUnits="userSpaceOnUse" x="0" y="0" width="20" height="20">
<path d="M20 0H0V20H20V0Z" fill="white"/>
</mask>
<g mask="url(#mask1_331_9222)">
<path d="M6.21 7.98082L3.858 6.74082C3.79603 6.70112 3.72684 6.67402 3.65439 6.66107C3.58194 6.64813 3.50765 6.64959 3.43576 6.66538C3.36388 6.68117 3.29581 6.71097 3.23545 6.75309C3.17509 6.7952 3.12363 6.8488 3.084 6.91082C3.04071 6.97664 3.01207 7.05098 3 7.12882V12.8088C3.02804 12.958 3.11331 13.0902 3.23758 13.1773C3.36185 13.2644 3.51525 13.2994 3.665 13.2748C3.74246 13.2625 3.81641 13.2338 3.882 13.1908L6.22 11.9128C6.2898 11.8761 6.34871 11.8216 6.39084 11.7549C6.43296 11.6882 6.45681 11.6116 6.46 11.5328V8.36582C6.45696 8.2848 6.43214 8.20609 6.38815 8.13799C6.34415 8.06989 6.28261 8.0149 6.21 7.97882" fill="white"/>
<path d="M17.158 6H9.658C9.54852 5.99987 9.4401 6.02132 9.33892 6.06312C9.23774 6.10493 9.14579 6.16626 9.06833 6.24363C8.99088 6.32099 8.92943 6.41286 8.8875 6.51399C8.84558 6.61512 8.824 6.72353 8.824 6.833V7.5H7.831C7.6105 7.50079 7.39929 7.58887 7.24356 7.74498C7.08784 7.90108 7.00026 8.1125 7 8.333V11.667C7.00027 11.888 7.08825 12.0999 7.24463 12.2561C7.401 12.4123 7.61298 12.5 7.834 12.5H8.827L8.839 13.172C8.839 13.2814 8.86055 13.3897 8.90241 13.4908C8.94427 13.5918 9.00563 13.6837 9.08298 13.761C9.16033 13.8384 9.25216 13.8997 9.35322 13.9416C9.45429 13.9835 9.56261 14.005 9.672 14.005H17.172C17.3921 14.0037 17.6027 13.9153 17.7578 13.7593C17.9129 13.6032 18 13.3921 18 13.172L17.989 6.829C17.9879 6.60912 17.9 6.39857 17.7443 6.24327C17.5886 6.08797 17.3779 6.00053 17.158 6ZM12.491 9.27C12.6946 9.40137 12.9172 9.50053 13.151 9.564C13.4205 9.64627 13.6808 9.75584 13.928 9.891C14.1491 9.99742 14.3357 10.164 14.4664 10.3717C14.5971 10.5793 14.6666 10.8196 14.667 11.065C14.6739 11.2464 14.6364 11.4267 14.5578 11.5903C14.4792 11.754 14.3619 11.896 14.216 12.004C13.8521 12.25 13.4176 12.3701 12.979 12.346C12.6354 12.3495 12.2948 12.2814 11.979 12.146C11.7041 12.0345 11.4679 11.8446 11.3 11.6C11.1455 11.3622 11.0661 11.0835 11.072 10.8H12.172C12.1638 10.8981 12.1765 10.9968 12.209 11.0897C12.2416 11.1825 12.2934 11.2675 12.361 11.339C12.5379 11.4699 12.7567 11.5315 12.976 11.512C13.1281 11.5212 13.2791 11.4804 13.406 11.396C13.458 11.3578 13.4996 11.3073 13.5272 11.249C13.5548 11.1907 13.5674 11.1264 13.564 11.062C13.5679 10.9907 13.5548 10.9196 13.5258 10.8543C13.4967 10.7891 13.4526 10.7318 13.397 10.687C13.2128 10.5635 13.0103 10.4697 12.797 10.409C12.5576 10.3319 12.3238 10.2387 12.097 10.13C11.8468 10.0421 11.6287 9.88132 11.4708 9.66833C11.3129 9.45533 11.2224 9.19991 11.211 8.935C11.2076 8.69414 11.2854 8.45915 11.432 8.268C11.5947 8.06326 11.8106 7.90723 12.056 7.817C12.3456 7.70587 12.6538 7.65122 12.964 7.656C13.2671 7.65124 13.5677 7.71089 13.846 7.831C14.0912 7.93657 14.3011 8.11006 14.451 8.331C14.5962 8.55016 14.6715 8.80817 14.667 9.071H13.567C13.5724 8.99125 13.5604 8.91127 13.5317 8.83665C13.5031 8.76204 13.4585 8.69458 13.401 8.639C13.2723 8.53143 13.1075 8.47675 12.94 8.486C12.7745 8.47613 12.6105 8.52189 12.474 8.616C12.4212 8.65379 12.3785 8.70386 12.3494 8.76187C12.3203 8.81989 12.3057 8.88411 12.307 8.949C12.3105 9.01322 12.3294 9.07565 12.3621 9.131C12.3948 9.18636 12.4404 9.23301 12.495 9.267" fill="white"/>
</g>
</svg>
