<svg width="40" height="40" viewBox="0 0 40 40" fill="none" xmlns="http://www.w3.org/2000/svg">
<mask id="mask0_569_20713" style="mask-type:luminance" maskUnits="userSpaceOnUse" x="23" y="16" width="9" height="14">
<path d="M29.567 16.7088L23.3085 27.8202C23.1912 28.0281 23.1614 28.2741 23.2254 28.5041C23.2894 28.734 23.4421 28.9292 23.6499 29.0466C23.7845 29.1218 23.9358 29.1618 24.0899 29.1631C24.2496 29.1634 24.4066 29.1212 24.5446 29.0409C24.6827 28.9605 24.7969 28.8449 24.8756 28.7059L31.1356 17.5923C31.1935 17.4895 31.2305 17.3762 31.2446 17.2591C31.2587 17.1419 31.2496 17.0231 31.2178 16.9094C31.186 16.7958 31.1322 16.6895 31.0593 16.5967C30.9864 16.5039 30.896 16.4263 30.7931 16.3684C30.6903 16.3105 30.577 16.2735 30.4598 16.2594C30.3427 16.2453 30.2239 16.2544 30.1102 16.2862C29.9966 16.318 29.8903 16.3719 29.7974 16.4447C29.7046 16.5176 29.6271 16.6081 29.5692 16.7109" fill="white"/>
</mask>
<g mask="url(#mask0_569_20713)">
<path d="M28.0634 35.6852L35.322 21.3995L26.3777 9.72949L19.1191 24.0152L28.0634 35.6852Z" fill="url(#paint0_linear_569_20713)"/>
</g>
<mask id="mask1_569_20713" style="mask-type:luminance" maskUnits="userSpaceOnUse" x="19" y="30" width="5" height="5">
<path d="M21.5165 30.5872L19.7208 33.6457C19.642 33.7827 19.5999 33.9377 19.5986 34.0957C19.5977 34.2931 19.6618 34.4853 19.781 34.6426C19.9002 34.8 20.0679 34.9137 20.2582 34.9662C20.4485 35.0187 20.6507 35.0071 20.8338 34.9331C21.0168 34.8592 21.1704 34.7271 21.2708 34.5572L23.0694 31.4986C23.1902 31.2927 23.2243 31.0472 23.1642 30.8161C23.104 30.585 22.9546 30.3873 22.7486 30.2664C22.5427 30.1456 22.2972 30.1115 22.0661 30.1716C21.8351 30.2318 21.6374 30.3812 21.5165 30.5872Z" fill="white"/>
</mask>
<g mask="url(#mask1_569_20713)">
<path d="M21.8364 37.4651L25.0821 32.0779L21.0821 27.6758L17.835 33.0629L21.8364 37.4651Z" fill="url(#paint1_linear_569_20713)"/>
</g>
<mask id="mask2_569_20713" style="mask-type:luminance" maskUnits="userSpaceOnUse" x="10" y="27" width="9" height="9">
<path d="M15.9037 27.4717L15.3837 28.4002L15.1337 27.6974C15.1197 27.6481 15.096 27.6021 15.064 27.5621C15.0319 27.5221 14.9922 27.489 14.9471 27.4646C14.902 27.4403 14.8525 27.4252 14.8015 27.4204C14.7505 27.4155 14.6991 27.421 14.6502 27.4364C14.6013 27.4518 14.556 27.4768 14.517 27.51C14.478 27.5432 14.4461 27.5839 14.4231 27.6297C14.4001 27.6755 14.3865 27.7255 14.3832 27.7766C14.3799 27.8277 14.3868 27.879 14.4037 27.9274C14.4064 27.9378 14.4102 27.9478 14.4151 27.9574L14.8979 29.2838L14.2708 30.3917L13.6072 29.2545L14.0672 27.9688C14.0842 27.9216 14.0916 27.8716 14.0892 27.8215C14.0868 27.7714 14.0746 27.7223 14.0532 27.677C14.0318 27.6317 14.0017 27.591 13.9645 27.5573C13.9274 27.5236 13.8841 27.4975 13.8369 27.4806C13.7897 27.4637 13.7396 27.4562 13.6896 27.4586C13.6395 27.461 13.5904 27.4733 13.5451 27.4947C13.4997 27.516 13.459 27.5462 13.4253 27.5833C13.3916 27.6204 13.3656 27.6638 13.3487 27.7109L13.1037 28.3909L12.5722 27.4817C12.5214 27.3941 12.4378 27.3304 12.34 27.3045C12.2421 27.2786 12.138 27.2926 12.0504 27.3434C11.9629 27.3943 11.8992 27.4779 11.8733 27.5757C11.8473 27.6736 11.8614 27.7777 11.9122 27.8652L12.4501 28.7867L11.7272 28.6531C11.6311 28.6423 11.5344 28.6685 11.4568 28.7262C11.3791 28.7839 11.3263 28.869 11.3089 28.9641C11.2915 29.0593 11.3108 29.1575 11.363 29.239C11.4152 29.3205 11.4964 29.3791 11.5901 29.4031L12.9565 29.6531L13.6072 30.7674H12.4429L11.5594 29.7252C11.4925 29.6497 11.3987 29.6034 11.2981 29.5965C11.1974 29.5895 11.0981 29.6224 11.0215 29.688C10.9449 29.7536 10.8972 29.8468 10.8886 29.9473C10.8801 30.0478 10.9114 30.1476 10.9758 30.2252L11.4458 30.7781H10.3822C10.2838 30.7823 10.1909 30.8244 10.1228 30.8956C10.0546 30.9667 10.0166 31.0614 10.0166 31.1599C10.0166 31.2584 10.0546 31.3531 10.1228 31.4242C10.1909 31.4953 10.2838 31.5374 10.3822 31.5417H11.4472L10.9737 32.1017C10.9074 32.179 10.8745 32.2794 10.8822 32.381C10.89 32.4825 10.9378 32.5768 11.0151 32.6431C11.0924 32.7094 11.1928 32.7423 11.2944 32.7345C11.3959 32.7267 11.4902 32.679 11.5565 32.6017L12.4508 31.5445H13.6329L12.9722 32.7252L11.5601 32.9338C11.459 32.9412 11.365 32.9884 11.2988 33.0651C11.2325 33.1418 11.1995 33.2417 11.2069 33.3427C11.2143 33.4438 11.2615 33.5378 11.3382 33.604C11.4149 33.6703 11.5147 33.7033 11.6158 33.6959C11.6346 33.6972 11.6534 33.6972 11.6722 33.6959L12.4972 33.5709L12.0158 34.4324C11.9661 34.5208 11.9535 34.6253 11.9808 34.7229C12.0081 34.8206 12.0731 34.9034 12.1615 34.9531C12.2499 35.0028 12.3544 35.0154 12.452 34.9881C12.5497 34.9607 12.6325 34.8957 12.6822 34.8074L13.1151 34.0338L13.3022 34.6202C13.3273 34.697 13.3759 34.7639 13.4412 34.8115C13.5064 34.8591 13.585 34.8849 13.6658 34.8852C13.7262 34.8851 13.7857 34.8709 13.8396 34.8436C13.8935 34.8163 13.9402 34.7767 13.976 34.7281C14.0117 34.6795 14.0356 34.6231 14.0456 34.5635C14.0556 34.504 14.0515 34.4429 14.0337 34.3852L13.6287 33.1231L14.2865 31.9352L14.9294 33.0331L14.4644 34.3231C14.4302 34.4184 14.4352 34.5233 14.4784 34.6149C14.5216 34.7065 14.5994 34.7771 14.6947 34.8113C14.79 34.8455 14.895 34.8404 14.9865 34.7972C15.0781 34.754 15.1487 34.6762 15.1829 34.5809L15.4329 33.8895L15.9665 34.8009C16.008 34.8752 16.0731 34.9334 16.1515 34.9664C16.2299 34.9994 16.3171 35.0052 16.3992 34.983C16.4813 34.9607 16.5536 34.9117 16.6046 34.8436C16.6556 34.7756 16.6825 34.6924 16.6808 34.6074C16.6795 34.5401 16.661 34.4742 16.6272 34.4159L16.1172 33.5409L16.7908 33.6838C16.8165 33.6899 16.8429 33.6927 16.8694 33.6924C16.9605 33.6878 17.047 33.6507 17.1132 33.5878C17.1794 33.525 17.2209 33.4405 17.2302 33.3497C17.2395 33.259 17.2161 33.1678 17.164 33.0928C17.112 33.0179 17.0348 32.964 16.9465 32.9409L15.5951 32.6552L14.9344 31.5245H16.4158L17.2729 32.5895C17.3378 32.665 17.4296 32.7123 17.5288 32.7212C17.6279 32.7302 17.7267 32.7002 17.8041 32.6376C17.8815 32.5749 17.9315 32.4846 17.9434 32.3858C17.9553 32.2869 17.9282 32.1873 17.8679 32.1081L17.3929 31.5209H18.1858C18.2373 31.5232 18.2888 31.515 18.337 31.4968C18.3853 31.4786 18.4294 31.4508 18.4666 31.4152C18.5039 31.3795 18.5335 31.3366 18.5538 31.2892C18.574 31.2418 18.5845 31.1907 18.5845 31.1392C18.5845 31.0876 18.574 31.0365 18.5538 30.9891C18.5335 30.9417 18.5039 30.8988 18.4666 30.8632C18.4294 30.8275 18.3853 30.7997 18.337 30.7816C18.2888 30.7634 18.2373 30.7551 18.1858 30.7574V30.7481H17.4144L17.8644 30.2167C17.8972 30.1784 17.9222 30.134 17.9379 30.0861C17.9535 30.0382 17.9596 29.9876 17.9558 29.9374C17.9519 29.8871 17.9382 29.8381 17.9154 29.7931C17.8926 29.7481 17.8612 29.7081 17.8229 29.6752C17.7847 29.6424 17.7403 29.6174 17.6924 29.6017C17.6445 29.5861 17.5939 29.58 17.5436 29.5838C17.4934 29.5877 17.4443 29.6014 17.3994 29.6242C17.3544 29.647 17.3143 29.6784 17.2815 29.7167L16.4094 30.7452H14.9429L15.5565 29.6481L16.8951 29.3931C16.9443 29.3832 16.9912 29.3638 17.0329 29.3358C17.0746 29.3079 17.1104 29.272 17.1383 29.2302C17.1661 29.1884 17.1855 29.1416 17.1952 29.0923C17.205 29.043 17.2049 28.9923 17.1951 28.9431C17.1852 28.8938 17.1658 28.847 17.1378 28.8053C17.1099 28.7636 17.074 28.7278 17.0322 28.6999C16.9904 28.672 16.9436 28.6527 16.8943 28.6429C16.845 28.6332 16.7943 28.6332 16.7451 28.6431L16.0451 28.7859L16.5722 27.8467C16.5955 27.8022 16.6098 27.7536 16.6143 27.7037C16.6188 27.6537 16.6133 27.6033 16.5982 27.5554C16.5832 27.5076 16.5588 27.4632 16.5265 27.4248C16.4942 27.3864 16.4546 27.3547 16.4101 27.3317C16.3558 27.3028 16.2952 27.2878 16.2337 27.2881C16.168 27.2882 16.1034 27.3051 16.0462 27.3372C15.9889 27.3694 15.9408 27.4157 15.9065 27.4717" fill="white"/>
</mask>
<g mask="url(#mask2_569_20713)">
<path d="M15.1538 38.8292L22.8245 30.3514L13.4159 23.46L5.74805 31.9371L15.1538 38.8292Z" fill="url(#paint2_linear_569_20713)"/>
</g>
<mask id="mask3_569_20713" style="mask-type:luminance" maskUnits="userSpaceOnUse" x="7" y="23" width="5" height="4">
<path d="M8.80561 23.7956C8.71515 23.8444 8.64759 23.9269 8.61763 24.0252C8.58767 24.1235 8.59772 24.2297 8.64561 24.3206L8.65775 24.3435L8.93918 24.8399H8.36775C8.26403 24.8371 8.16343 24.8755 8.08809 24.9469C8.01274 25.0182 7.96881 25.1165 7.96597 25.2203C7.96313 25.324 8.0016 25.4246 8.07293 25.4999C8.14426 25.5753 8.24261 25.6192 8.34632 25.6221C8.35509 25.6233 8.36399 25.6233 8.37275 25.6221H8.94061L8.6549 26.1135C8.62938 26.1578 8.61285 26.2067 8.60624 26.2574C8.59963 26.3081 8.60307 26.3597 8.61637 26.409C8.62967 26.4584 8.65256 26.5047 8.68374 26.5452C8.71493 26.5858 8.75379 26.6198 8.79811 26.6453C8.84243 26.6708 8.89134 26.6873 8.94205 26.6939C8.99277 26.7005 9.04428 26.6971 9.09366 26.6838C9.14304 26.6705 9.18932 26.6476 9.22986 26.6164C9.27039 26.5852 9.30438 26.5464 9.3299 26.5021L9.61561 26.0071L9.90132 26.4992C9.92392 26.5469 9.95597 26.5896 9.99554 26.6246C10.0351 26.6595 10.0814 26.6861 10.1315 26.7027C10.1817 26.7192 10.2347 26.7255 10.2873 26.7209C10.3399 26.7164 10.391 26.7012 10.4376 26.6763C10.4842 26.6515 10.5253 26.6174 10.5583 26.5761C10.5913 26.5349 10.6156 26.4874 10.6297 26.4365C10.6438 26.3856 10.6474 26.3324 10.6403 26.2801C10.6332 26.2277 10.6156 26.1774 10.5885 26.1321L10.5763 26.1099L10.2906 25.6213H10.862C10.9656 25.6213 11.065 25.5803 11.1383 25.5072C11.2117 25.4341 11.2531 25.3349 11.2535 25.2313V25.2278C11.2537 25.1764 11.2437 25.1256 11.2242 25.0781C11.2047 25.0306 11.176 24.9874 11.1397 24.9511C11.1035 24.9147 11.0605 24.8858 11.013 24.8662C10.9656 24.8465 10.9148 24.8363 10.8635 24.8363H10.2928L10.5785 24.3435C10.6275 24.254 10.6396 24.1489 10.6121 24.0507C10.5845 23.9524 10.5196 23.8689 10.4312 23.818C10.3428 23.7671 10.238 23.7528 10.1392 23.7783C10.0404 23.8037 9.95552 23.8669 9.90275 23.9542L9.61704 24.4478L9.33132 23.9549C9.28257 23.8642 9.19988 23.7966 9.10135 23.7667C9.00283 23.7369 8.89649 23.7473 8.80561 23.7956Z" fill="white"/>
</mask>
<g mask="url(#mask3_569_20713)">
<path d="M8.37063 28.0221L12.1185 26.3793L10.8406 22.4414L7.09277 24.0843L8.37063 28.0221Z" fill="url(#paint3_linear_569_20713)"/>
</g>
<mask id="mask4_569_20713" style="mask-type:luminance" maskUnits="userSpaceOnUse" x="10" y="5" width="3" height="3">
<path d="M10.9985 5.93591L11.163 6.54925C11.1823 6.63222 11.2181 6.71046 11.2682 6.77931C11.3184 6.84817 11.3818 6.90623 11.4549 6.95004C11.5279 6.99385 11.6091 7.02251 11.6934 7.03433C11.7778 7.04614 11.8637 7.04086 11.9459 7.0188C12.0282 6.99674 12.1052 6.95835 12.1723 6.90592C12.2395 6.85349 12.2954 6.78809 12.3367 6.71361C12.378 6.63913 12.404 6.55709 12.4129 6.47239C12.4219 6.38768 12.4138 6.30203 12.389 6.22054L12.2243 5.60651C12.205 5.52356 12.1692 5.44534 12.119 5.37651C12.0688 5.30768 12.0053 5.24966 11.9322 5.20589C11.8591 5.16212 11.778 5.1335 11.6936 5.12174C11.6093 5.10997 11.5234 5.1153 11.4411 5.1374C11.3589 5.15951 11.2819 5.19794 11.2148 5.25041C11.1477 5.30288 11.0918 5.36831 11.0505 5.44281C11.0092 5.51732 10.9833 5.59937 10.9744 5.68408C10.9655 5.76879 10.9737 5.85443 10.9985 5.93591Z" fill="white"/>
</mask>
<g mask="url(#mask4_569_20713)">
<path d="M10.834 5.32129L12.06 4.99258L12.5537 6.83397L11.3277 7.16268L10.834 5.32129Z" fill="url(#paint4_linear_569_20713)"/>
</g>
<mask id="mask5_569_20713" style="mask-type:luminance" maskUnits="userSpaceOnUse" x="15" y="20" width="2" height="3">
<path d="M16.5005 21.5758L16.336 20.9625C16.3168 20.8795 16.281 20.8013 16.2308 20.7324C16.1807 20.6636 16.1172 20.6055 16.0441 20.5617C15.9711 20.5179 15.89 20.4892 15.8056 20.4774C15.7212 20.4656 15.6354 20.4709 15.5531 20.4929C15.4708 20.515 15.3938 20.5534 15.3267 20.6058C15.2596 20.6582 15.2037 20.7236 15.1623 20.7981C15.121 20.8726 15.0951 20.9546 15.0861 21.0393C15.0771 21.124 15.0853 21.2097 15.1101 21.2912L15.2747 21.9052C15.294 21.9882 15.3299 22.0664 15.38 22.1352C15.4302 22.204 15.4938 22.2621 15.5668 22.3058C15.6399 22.3496 15.721 22.3782 15.8054 22.39C15.8898 22.4017 15.9756 22.3964 16.0579 22.3743C16.1402 22.3522 16.2171 22.3138 16.2842 22.2613C16.3514 22.2088 16.4072 22.1434 16.4485 22.0689C16.4898 21.9944 16.5157 21.9124 16.5246 21.8276C16.5335 21.7429 16.5253 21.6573 16.5005 21.5758Z" fill="white"/>
</mask>
<g mask="url(#mask5_569_20713)">
<path d="M16.665 22.1904L15.4391 22.5191L14.9453 20.6777L16.1713 20.349L16.665 22.1904Z" fill="url(#paint5_linear_569_20713)"/>
</g>
<mask id="mask6_569_20713" style="mask-type:luminance" maskUnits="userSpaceOnUse" x="20" y="10" width="3" height="3">
<path d="M21.5557 11.0124L20.943 11.1767C20.7853 11.2247 20.6523 11.3322 20.5723 11.4764C20.4923 11.6206 20.4714 11.7902 20.5141 11.9495C20.5568 12.1088 20.6598 12.2452 20.8012 12.3301C20.9426 12.4149 21.1115 12.4414 21.2721 12.4041L21.8841 12.24C22.0418 12.192 22.1748 12.0845 22.2548 11.9403C22.3348 11.7961 22.3557 11.6265 22.313 11.4672C22.2703 11.3079 22.1673 11.1715 22.0259 11.0866C21.8845 11.0018 21.7156 10.9753 21.555 11.0126" fill="white"/>
</mask>
<g mask="url(#mask6_569_20713)">
<path d="M22.168 10.8477L22.4972 12.0757L20.6572 12.569L20.3281 11.3417L22.168 10.8477Z" fill="url(#paint6_linear_569_20713)"/>
</g>
<mask id="mask7_569_20713" style="mask-type:luminance" maskUnits="userSpaceOnUse" x="5" y="15" width="2" height="2">
<path d="M5.93553 16.5208L6.54818 16.3565C6.70594 16.3085 6.83888 16.201 6.9189 16.0568C6.99893 15.9126 7.0198 15.743 6.97709 15.5837C6.93438 15.4244 6.83145 15.288 6.69002 15.2031C6.54859 15.1183 6.37973 15.0918 6.2191 15.1291L5.60715 15.2932C5.44938 15.3412 5.31645 15.4487 5.23642 15.5929C5.15639 15.7371 5.13553 15.9067 5.17824 16.066C5.22094 16.2253 5.32388 16.3617 5.46531 16.4466C5.60674 16.5314 5.77559 16.5579 5.93622 16.5206" fill="white"/>
</mask>
<g mask="url(#mask7_569_20713)">
<path d="M5.32324 16.6855L4.99398 15.4575L6.83399 14.9642L7.16307 16.1915L5.32324 16.6855Z" fill="url(#paint7_linear_569_20713)"/>
</g>
<mask id="mask8_569_20713" style="mask-type:luminance" maskUnits="userSpaceOnUse" x="19" y="16" width="3" height="3">
<path d="M21.2131 17.3433L20.6638 17.0261C20.5179 16.9419 20.3445 16.919 20.1817 16.9627C20.0189 17.0063 19.8802 17.1128 19.7959 17.2587C19.7117 17.4046 19.6888 17.578 19.7324 17.7408C19.776 17.9036 19.8825 18.0423 20.0285 18.1266L20.5784 18.4441C20.6507 18.4858 20.7305 18.5128 20.8132 18.5237C20.8959 18.5345 20.98 18.5289 21.0605 18.5073C21.1411 18.4857 21.2167 18.4484 21.2828 18.3975C21.349 18.3467 21.4045 18.2833 21.4462 18.2111C21.4878 18.1388 21.5149 18.059 21.5257 17.9763C21.5366 17.8935 21.531 17.8095 21.5094 17.7289C21.4877 17.6483 21.4504 17.5728 21.3996 17.5066C21.3488 17.4405 21.2854 17.385 21.2131 17.3433Z" fill="white"/>
</mask>
<g mask="url(#mask8_569_20713)">
<path d="M21.7637 17.6611L21.1283 18.7616L19.4792 17.8095L20.1145 16.709L21.7637 17.6611Z" fill="url(#paint8_linear_569_20713)"/>
</g>
<mask id="mask9_569_20713" style="mask-type:luminance" maskUnits="userSpaceOnUse" x="5" y="8" width="3" height="3">
<path d="M6.28101 10.1782L6.83032 10.4954C6.97625 10.5796 7.14968 10.6024 7.31244 10.5588C7.47521 10.5152 7.61398 10.4087 7.69823 10.2628C7.78249 10.1169 7.80532 9.94344 7.76171 9.78067C7.71809 9.61791 7.61161 9.47913 7.46568 9.39488L6.91575 9.07738C6.84347 9.0357 6.76369 9.00867 6.68096 8.99783C6.59823 8.98698 6.51418 8.99254 6.4336 9.01418C6.35301 9.03582 6.27748 9.07312 6.21132 9.12395C6.14515 9.17478 6.08965 9.23814 6.04797 9.31043C6.00629 9.38271 5.97926 9.46249 5.96841 9.54522C5.95757 9.62795 5.96313 9.712 5.98477 9.79258C6.00641 9.87316 6.04371 9.94869 6.09454 10.0149C6.14537 10.081 6.20873 10.1365 6.28101 10.1782Z" fill="white"/>
</mask>
<g mask="url(#mask9_569_20713)">
<path d="M5.73047 9.86035L6.36583 8.75988L8.01499 9.71202L7.37963 10.8125L5.73047 9.86035Z" fill="url(#paint9_linear_569_20713)"/>
</g>
<mask id="mask10_569_20713" style="mask-type:luminance" maskUnits="userSpaceOnUse" x="16" y="5" width="3" height="3">
<path d="M17.3181 6.28609L17.0006 6.83602C16.9164 6.98187 16.8935 7.15519 16.9371 7.31787C16.9807 7.48054 17.0872 7.61924 17.233 7.70344C17.3788 7.78765 17.5522 7.81047 17.7149 7.76688C17.8775 7.72329 18.0162 7.61687 18.1004 7.47102L18.4161 6.92418C18.5003 6.77833 18.5232 6.60501 18.4796 6.44233C18.436 6.27966 18.3296 6.14096 18.1837 6.05676C18.0379 5.97255 17.8645 5.94973 17.7019 5.99332C17.5392 6.03691 17.4005 6.14333 17.3163 6.28918" fill="white"/>
</mask>
<g mask="url(#mask10_569_20713)">
<path d="M17.6367 5.73633L18.736 6.37097L17.7824 8.02261L16.6838 7.38832L17.6367 5.73633Z" fill="url(#paint10_linear_569_20713)"/>
</g>
<mask id="mask11_569_20713" style="mask-type:luminance" maskUnits="userSpaceOnUse" x="8" y="19" width="3" height="3">
<path d="M10.1653 21.2364L10.4828 20.6864C10.567 20.5406 10.5898 20.3673 10.5463 20.2046C10.5027 20.0419 10.3962 19.9032 10.2504 19.819C10.1045 19.7348 9.93122 19.712 9.76855 19.7556C9.60587 19.7992 9.46718 19.9056 9.38297 20.0514L9.06726 20.5983C8.98305 20.7441 8.96023 20.9175 9.00382 21.0801C9.04741 21.2428 9.15383 21.3815 9.29968 21.4657C9.44553 21.5499 9.61886 21.5727 9.78153 21.5291C9.94421 21.4856 10.0829 21.3791 10.1671 21.2333" fill="white"/>
</mask>
<g mask="url(#mask11_569_20713)">
<path d="M9.84668 21.7861L8.74745 21.1515L9.70102 19.4999L10.7996 20.1341L9.84668 21.7861Z" fill="url(#paint11_linear_569_20713)"/>
</g>
<path d="M13.7451 20C17.1969 20 19.9951 17.2018 19.9951 13.75C19.9951 10.2982 17.1969 7.5 13.7451 7.5C10.2933 7.5 7.49512 10.2982 7.49512 13.75C7.49512 17.2018 10.2933 20 13.7451 20Z" fill="url(#paint12_radial_569_20713)"/>
<mask id="mask12_569_20713" style="mask-type:luminance" maskUnits="userSpaceOnUse" x="11" y="9" width="24" height="17">
<path d="M35 9.84082H11.25V25.0008H35V9.84082Z" fill="white"/>
</mask>
<g mask="url(#mask12_569_20713)">
<mask id="mask13_569_20713" style="mask-type:luminance" maskUnits="userSpaceOnUse" x="11" y="9" width="25" height="17">
<path d="M35.0029 9.84375H11.2529V25.0037H35.0029V9.84375Z" fill="white"/>
</mask>
<g mask="url(#mask13_569_20713)">
<path d="M29.73 14.4544C29.534 14.4628 29.3387 14.4829 29.145 14.5144L29.1379 14.493V14.4873C28.46 12.8736 27.2445 11.5443 25.6978 10.7251C24.151 9.90588 22.3684 9.64732 20.6527 9.9933C18.937 10.3393 17.3939 11.2685 16.2855 12.6231C15.1771 13.9776 14.5717 15.6741 14.5722 17.4244V17.4716C13.6146 17.5869 12.7373 18.0639 12.1199 18.805C11.5026 19.546 11.1918 20.495 11.2513 21.4577C11.3109 22.4204 11.7361 23.3239 12.4401 23.9832C13.144 24.6426 14.0734 25.0079 15.0379 25.0044H22.1093H22.1515H22.1936L29.6936 24.9994H29.7286C31.1269 24.9994 32.4679 24.444 33.4566 23.4552C34.4453 22.4665 35.0007 21.1255 35.0007 19.7273C35.0007 18.329 34.4453 16.988 33.4566 15.9993C32.4679 15.0106 31.1269 14.4551 29.7286 14.4551" fill="url(#paint13_linear_569_20713)"/>
</g>
</g>
<path d="M15.0357 17.4219C15.7855 17.421 16.5186 17.6426 17.1424 18.0585C17.7662 18.4744 18.2527 19.066 18.5402 19.7584C18.8277 20.4508 18.9035 21.2129 18.7578 21.9484C18.6121 22.6838 18.2515 23.3595 17.7217 23.89C17.1919 24.4205 16.5167 24.782 15.7814 24.9286C15.0462 25.0753 14.2839 25.0006 13.5911 24.714C12.8983 24.4274 12.3061 23.9417 11.8894 23.3185C11.4727 22.6952 11.2501 21.9623 11.25 21.2126C11.2493 20.715 11.3468 20.2222 11.5367 19.7623C11.7267 19.3024 12.0054 18.8845 12.357 18.5325C12.7086 18.1804 13.1262 17.9011 13.5858 17.7105C14.0455 17.52 14.5382 17.4219 15.0357 17.4219Z" fill="url(#paint14_linear_569_20713)"/>
<mask id="mask14_569_20713" style="mask-type:luminance" maskUnits="userSpaceOnUse" x="18" y="19" width="8" height="11">
<path d="M23.9037 19.8944L18.8709 28.5244C18.7519 28.7304 18.7192 28.975 18.7798 29.205C18.8404 29.435 18.9894 29.6317 19.1944 29.7523C19.3306 29.8351 19.4865 29.8798 19.6459 29.8815C19.8032 29.8806 19.9576 29.8389 20.0941 29.7606C20.2305 29.6822 20.3443 29.5698 20.4244 29.4344L25.4573 20.803C25.4694 20.7844 25.4809 20.763 25.4909 20.7444C25.6034 20.5338 25.6277 20.2872 25.5583 20.0587C25.489 19.8303 25.3318 19.6387 25.1212 19.5262C24.9107 19.4137 24.664 19.3894 24.4356 19.4587C24.2071 19.528 24.0155 19.6853 23.903 19.8958" fill="white"/>
</mask>
<g mask="url(#mask14_569_20713)">
<path d="M22.8934 35.1931L29.0762 23.5881L21.4534 14.1045L15.2705 25.7102L22.8934 35.1931Z" fill="url(#paint15_linear_569_20713)"/>
</g>
<mask id="mask15_569_20713" style="mask-type:luminance" maskUnits="userSpaceOnUse" x="24" y="19" width="10" height="16">
<path d="M32.0818 20.098L24.8161 32.6615V32.6651C24.7573 32.7672 24.7191 32.8799 24.7038 32.9967C24.6886 33.1136 24.6965 33.2323 24.7271 33.346C24.7578 33.4598 24.8106 33.5664 24.8825 33.6598C24.9544 33.7531 25.0439 33.8314 25.1461 33.8901C25.2821 33.9717 25.4376 34.0148 25.5961 34.0151C25.7541 34.0159 25.9095 33.9747 26.0464 33.8956C26.1832 33.8165 26.2965 33.7024 26.3747 33.5651L33.6397 20.9994C33.7503 20.7966 33.7787 20.5589 33.7188 20.3358C33.659 20.1126 33.5155 19.9211 33.3183 19.8008C33.1777 19.7139 33.0157 19.6678 32.8504 19.668C32.6963 19.6675 32.5447 19.7067 32.4101 19.7817C32.2755 19.8568 32.1624 19.9652 32.0818 20.0965" fill="white"/>
</mask>
<g mask="url(#mask15_569_20713)">
<path d="M30.1611 41.2338L38.304 25.3873L28.274 12.4502L20.1318 28.2966L30.1611 41.2338Z" fill="url(#paint16_linear_569_20713)"/>
</g>
<defs>
<linearGradient id="paint0_linear_569_20713" x1="17.5475" y1="39.5267" x2="34.26" y2="28.3121" gradientUnits="userSpaceOnUse">
<stop stop-color="#E1F9FF"/>
<stop offset="1" stop-color="#40CBFF"/>
</linearGradient>
<linearGradient id="paint1_linear_569_20713" x1="17.3566" y1="39.2565" x2="24.7861" y2="32.605" gradientUnits="userSpaceOnUse">
<stop stop-color="#E1F9FF"/>
<stop offset="1" stop-color="#40CBFF"/>
</linearGradient>
<linearGradient id="paint2_linear_569_20713" x1="11.0417" y1="37.1079" x2="16.1041" y2="25.8906" gradientUnits="userSpaceOnUse">
<stop stop-color="#E1F9FF"/>
<stop offset="1" stop-color="#40CBFF"/>
</linearGradient>
<linearGradient id="paint3_linear_569_20713" x1="8.505" y1="27.2576" x2="10.6964" y2="24.0244" gradientUnits="userSpaceOnUse">
<stop stop-color="#E1F9FF"/>
<stop offset="1" stop-color="#40CBFF"/>
</linearGradient>
<linearGradient id="paint4_linear_569_20713" x1="11.447" y1="5.15694" x2="11.9407" y2="6.99833" gradientUnits="userSpaceOnUse">
<stop stop-color="#FFBE0C"/>
<stop offset="0.442" stop-color="#FFC612"/>
<stop offset="1" stop-color="#FFE596"/>
</linearGradient>
<linearGradient id="paint5_linear_569_20713" x1="16.052" y1="22.3548" x2="15.5583" y2="20.5134" gradientUnits="userSpaceOnUse">
<stop stop-color="#FFBE0C"/>
<stop offset="0.442" stop-color="#FFC612"/>
<stop offset="1" stop-color="#FFE596"/>
</linearGradient>
<linearGradient id="paint6_linear_569_20713" x1="22.3326" y1="11.4617" x2="20.4926" y2="11.955" gradientUnits="userSpaceOnUse">
<stop stop-color="#FFBE0C"/>
<stop offset="0.442" stop-color="#FFC612"/>
<stop offset="1" stop-color="#FFE596"/>
</linearGradient>
<linearGradient id="paint7_linear_569_20713" x1="5.15861" y1="16.0715" x2="6.99862" y2="15.5782" gradientUnits="userSpaceOnUse">
<stop stop-color="#FFBE0C"/>
<stop offset="0.442" stop-color="#FFC612"/>
<stop offset="1" stop-color="#FFE596"/>
</linearGradient>
<linearGradient id="paint8_linear_569_20713" x1="21.446" y1="18.2114" x2="19.7968" y2="17.2592" gradientUnits="userSpaceOnUse">
<stop stop-color="#FFBE0C"/>
<stop offset="0.442" stop-color="#FFC612"/>
<stop offset="1" stop-color="#FFE596"/>
</linearGradient>
<linearGradient id="paint9_linear_569_20713" x1="6.04815" y1="9.31012" x2="7.69731" y2="10.2623" gradientUnits="userSpaceOnUse">
<stop stop-color="#FFBE0C"/>
<stop offset="0.442" stop-color="#FFC612"/>
<stop offset="1" stop-color="#FFE596"/>
</linearGradient>
<linearGradient id="paint10_linear_569_20713" x1="18.1863" y1="6.05365" x2="17.2328" y2="7.70528" gradientUnits="userSpaceOnUse">
<stop stop-color="#FFBE0C"/>
<stop offset="0.442" stop-color="#FFC612"/>
<stop offset="1" stop-color="#FFE596"/>
</linearGradient>
<linearGradient id="paint11_linear_569_20713" x1="9.29706" y1="21.4688" x2="10.2506" y2="19.8172" gradientUnits="userSpaceOnUse">
<stop stop-color="#FFBE0C"/>
<stop offset="0.442" stop-color="#FFC612"/>
<stop offset="1" stop-color="#FFE596"/>
</linearGradient>
<radialGradient id="paint12_radial_569_20713" cx="0" cy="0" r="1" gradientUnits="userSpaceOnUse" gradientTransform="translate(11.6561 11.1435) rotate(50.9985) scale(7.03653 7.03444)">
<stop stop-color="#FFE596"/>
<stop offset="0.5" stop-color="#FFC612"/>
<stop offset="1" stop-color="#FFBE0C"/>
</radialGradient>
<linearGradient id="paint13_linear_569_20713" x1="28.0401" y1="15.8625" x2="20.9906" y2="29.9042" gradientUnits="userSpaceOnUse">
<stop stop-color="#FEFFFF"/>
<stop offset="1" stop-color="#D5D5D5"/>
</linearGradient>
<linearGradient id="paint14_linear_569_20713" x1="13.0465" y1="19.1198" x2="16.7834" y2="22.5308" gradientUnits="userSpaceOnUse">
<stop stop-color="white"/>
<stop offset="1" stop-color="white" stop-opacity="0.03"/>
</linearGradient>
<linearGradient id="paint15_linear_569_20713" x1="16.2231" y1="34.7291" x2="29.1837" y2="25.2517" gradientUnits="userSpaceOnUse">
<stop stop-color="#E1F9FF"/>
<stop offset="1" stop-color="#40CBFF"/>
</linearGradient>
<linearGradient id="paint16_linear_569_20713" x1="20.9859" y1="41.2338" x2="37.7811" y2="29.6586" gradientUnits="userSpaceOnUse">
<stop stop-color="#E1F9FF"/>
<stop offset="1" stop-color="#40CBFF"/>
</linearGradient>
</defs>
</svg>
