<svg width="32" height="32" viewBox="0 0 32 32" fill="none" xmlns="http://www.w3.org/2000/svg">
<mask id="mask0_641_7145" style="mask-type:luminance" maskUnits="userSpaceOnUse" x="18" y="12" width="8" height="12">
<path d="M23.6547 13.3665L18.6477 22.2555C18.6012 22.3378 18.5714 22.4285 18.56 22.5224C18.5485 22.6162 18.5557 22.7114 18.581 22.8025C18.6064 22.8936 18.6494 22.9788 18.7077 23.0533C18.766 23.1277 18.8384 23.19 18.9207 23.2365C19.0284 23.2965 19.1494 23.3285 19.2727 23.3295C19.4003 23.3295 19.5256 23.2956 19.6357 23.2313C19.7459 23.167 19.837 23.0746 19.8997 22.9635L24.9077 14.0725C24.9608 13.9899 24.9964 13.8973 25.0123 13.8005C25.0282 13.7036 25.0241 13.6046 25.0003 13.5094C24.9765 13.4141 24.9334 13.3248 24.8738 13.2469C24.8141 13.1689 24.7392 13.104 24.6535 13.0562C24.5678 13.0083 24.4732 12.9785 24.3756 12.9685C24.2779 12.9586 24.1793 12.9688 24.0857 12.9984C23.9922 13.028 23.9056 13.0765 23.8315 13.1408C23.7574 13.2052 23.6972 13.284 23.6547 13.3725" fill="white"/>
</mask>
<g mask="url(#mask0_641_7145)">
<path d="M22.4519 28.5492L28.2589 17.1192L21.1039 7.78516L15.2969 19.2132L22.4519 28.5492Z" fill="url(#paint0_linear_641_7145)"/>
</g>
<mask id="mask1_641_7145" style="mask-type:luminance" maskUnits="userSpaceOnUse" x="8" y="4" width="2" height="2">
<path d="M8.80343 4.75239L8.93499 5.24306C8.96988 5.37319 9.05504 5.48414 9.17173 5.55148C9.28842 5.61883 9.42708 5.63706 9.55721 5.60217C9.68735 5.56728 9.79829 5.48212 9.86564 5.36543C9.93298 5.24874 9.95122 5.11008 9.91633 4.97995L9.78477 4.48928C9.74988 4.35914 9.66472 4.2482 9.54803 4.18085C9.43134 4.1135 9.29268 4.09527 9.16254 4.13016C9.03241 4.16505 8.92147 4.25021 8.85412 4.3669C8.78677 4.48359 8.76854 4.62225 8.80343 4.75239Z" fill="white"/>
</mask>
<g mask="url(#mask1_641_7145)">
<path d="M8.67188 4.26172L9.65321 3.99861L10.0481 5.47158L9.0668 5.73469L8.67188 4.26172Z" fill="url(#paint1_linear_641_7145)"/>
</g>
<mask id="mask2_641_7145" style="mask-type:luminance" maskUnits="userSpaceOnUse" x="12" y="16" width="2" height="2">
<path d="M13.2044 17.2632L13.0728 16.7726C13.0379 16.6424 12.9528 16.5315 12.8361 16.4641C12.7194 16.3968 12.5807 16.3786 12.4506 16.4135C12.3205 16.4483 12.2095 16.5335 12.1422 16.6502C12.0748 16.7669 12.0566 16.9055 12.0915 17.0357L12.223 17.5263C12.2579 17.6565 12.3431 17.7674 12.4598 17.8348C12.5765 17.9021 12.7151 17.9204 12.8453 17.8855C12.9754 17.8506 13.0863 17.7654 13.1537 17.6487C13.221 17.532 13.2393 17.3934 13.2044 17.2632Z" fill="white"/>
</mask>
<g mask="url(#mask2_641_7145)">
<path d="M13.3359 17.7539L12.3546 18.017L11.9597 16.544L12.941 16.2809L13.3359 17.7539Z" fill="url(#paint2_linear_641_7145)"/>
</g>
<path d="M11 16C13.7614 16 16 13.7614 16 11C16 8.23858 13.7614 6 11 6C8.23858 6 6 8.23858 6 11C6 13.7614 8.23858 16 11 16Z" fill="url(#paint3_radial_641_7145)"/>
<mask id="mask3_641_7145" style="mask-type:luminance" maskUnits="userSpaceOnUse" x="16" y="8" width="2" height="2">
<path d="M17.251 8.80747L16.7613 8.93876C16.6311 8.97369 16.52 9.05893 16.4526 9.17574C16.3852 9.29254 16.3669 9.43134 16.4019 9.5616C16.4368 9.69187 16.522 9.80292 16.6388 9.87033C16.7556 9.93774 16.8944 9.956 17.0247 9.92107L17.5144 9.78977C17.6447 9.75485 17.7557 9.66961 17.8231 9.5528C17.8905 9.436 17.9088 9.2972 17.8739 9.16693C17.8389 9.03667 17.7537 8.92562 17.6369 8.85821C17.5201 8.79079 17.3813 8.77254 17.251 8.80747Z" fill="white"/>
</mask>
<g mask="url(#mask3_641_7145)">
<path d="M17.7422 8.67578L18.0056 9.65809L16.5335 10.0528L16.2702 9.07045L17.7422 8.67578Z" fill="url(#paint4_linear_641_7145)"/>
</g>
<mask id="mask4_641_7145" style="mask-type:luminance" maskUnits="userSpaceOnUse" x="4" y="12" width="2" height="2">
<path d="M4.75678 13.216L5.24648 13.0847C5.37674 13.0497 5.4878 12.9645 5.55521 12.8477C5.62262 12.7309 5.64087 12.5921 5.60595 12.4618C5.57102 12.3316 5.48578 12.2205 5.36898 12.1531C5.25217 12.0857 5.11337 12.0674 4.98311 12.1024L4.49341 12.2337C4.36314 12.2686 4.25209 12.3538 4.18468 12.4706C4.11727 12.5874 4.09901 12.7262 4.13394 12.8565C4.16886 12.9868 4.25411 13.0978 4.37091 13.1652C4.48772 13.2326 4.62652 13.2509 4.75678 13.216Z" fill="white"/>
</mask>
<g mask="url(#mask4_641_7145)">
<path d="M4.26562 13.3477L4.00225 12.3654L5.47426 11.9707L5.73763 12.953L4.26562 13.3477Z" fill="url(#paint5_linear_641_7145)"/>
</g>
<mask id="mask5_641_7145" style="mask-type:luminance" maskUnits="userSpaceOnUse" x="15" y="13" width="3" height="2">
<path d="M16.9741 13.8749L16.5342 13.6209C16.4175 13.5535 16.2788 13.5353 16.1487 13.5702C16.0186 13.605 15.9076 13.6902 15.8402 13.8068C15.7729 13.9235 15.7546 14.0622 15.7895 14.1923C15.8244 14.3225 15.9095 14.4334 16.0262 14.5008L16.4661 14.7548C16.5828 14.8222 16.7215 14.8404 16.8516 14.8055C16.9817 14.7707 17.0927 14.6855 17.1601 14.5688C17.2274 14.4522 17.2457 14.3135 17.2108 14.1834C17.1759 14.0532 17.0908 13.9423 16.9741 13.8749Z" fill="white"/>
</mask>
<g mask="url(#mask5_641_7145)">
<path d="M17.4136 14.1298L16.9051 15.0105L15.5861 14.249L16.0951 13.3674L17.4136 14.1298Z" fill="url(#paint6_linear_641_7145)"/>
</g>
<mask id="mask6_641_7145" style="mask-type:luminance" maskUnits="userSpaceOnUse" x="4" y="7" width="3" height="2">
<path d="M5.02978 8.14072L5.46973 8.39472C5.58641 8.46208 5.72507 8.48034 5.85521 8.44547C5.98534 8.4106 6.0963 8.32546 6.16367 8.20878C6.23103 8.0921 6.24929 7.95344 6.21442 7.8233C6.17955 7.69316 6.09441 7.5822 5.97773 7.51484L5.53778 7.26084C5.42111 7.19347 5.28244 7.17522 5.1523 7.21009C5.02217 7.24496 4.91121 7.3301 4.84384 7.44678C4.77648 7.56346 4.75822 7.70212 4.79309 7.83226C4.82797 7.9624 4.91311 8.07335 5.02978 8.14072Z" fill="white"/>
</mask>
<g mask="url(#mask6_641_7145)">
<path d="M4.59034 7.88585L5.09884 7.0051L6.4178 7.7666L5.9088 8.64822L4.59034 7.88585Z" fill="url(#paint7_linear_641_7145)"/>
</g>
<mask id="mask7_641_7145" style="mask-type:luminance" maskUnits="userSpaceOnUse" x="13" y="4" width="2" height="3">
<path d="M13.8645 5.03307L13.6145 5.46608C13.575 5.52383 13.5478 5.58914 13.5347 5.6579C13.5215 5.72666 13.5228 5.79738 13.5383 5.86564C13.5538 5.9339 13.5832 5.99822 13.6248 6.05456C13.6663 6.11091 13.719 6.15806 13.7797 6.19305C13.8403 6.22805 13.9075 6.25015 13.977 6.25795C14.0466 6.26575 14.117 6.25909 14.1839 6.23839C14.2508 6.21769 14.3126 6.18339 14.3656 6.13765C14.4186 6.09191 14.4616 6.03571 14.4918 5.97258L14.7418 5.53957C14.7813 5.48181 14.8085 5.41651 14.8217 5.34775C14.8348 5.27899 14.8335 5.20827 14.818 5.14001C14.8025 5.07175 14.7731 5.00743 14.7316 4.95109C14.69 4.89474 14.6373 4.84759 14.5767 4.81259C14.516 4.77759 14.4488 4.7555 14.3793 4.7477C14.3097 4.7399 14.2393 4.74656 14.1724 4.76726C14.1056 4.78796 14.0437 4.82226 13.9907 4.868C13.9377 4.91374 13.8948 4.96994 13.8645 5.03307Z" fill="white"/>
</mask>
<g mask="url(#mask7_641_7145)">
<path d="M14.1211 4.58984L15.001 5.09784L14.238 6.4194L13.3581 5.9114L14.1211 4.58984Z" fill="url(#paint8_linear_641_7145)"/>
</g>
<mask id="mask8_641_7145" style="mask-type:luminance" maskUnits="userSpaceOnUse" x="7" y="15" width="2" height="3">
<path d="M8.1433 16.9865L8.3933 16.5535C8.43285 16.4957 8.46004 16.4304 8.47316 16.3616C8.48628 16.2929 8.48505 16.2221 8.46954 16.1539C8.45404 16.0856 8.42459 16.0213 8.38305 15.965C8.34152 15.9086 8.28878 15.8615 8.22816 15.8265C8.16754 15.7915 8.10034 15.7694 8.03078 15.7616C7.96122 15.7538 7.89079 15.7604 7.82393 15.7811C7.75706 15.8018 7.69519 15.8361 7.6422 15.8819C7.58922 15.9276 7.54626 15.9838 7.51602 16.047L7.26602 16.48C7.22646 16.5377 7.19928 16.603 7.18616 16.6718C7.17304 16.7405 7.17427 16.8113 7.18977 16.8795C7.20528 16.9478 7.23472 17.0121 7.27626 17.0684C7.3178 17.1248 7.37053 17.1719 7.43115 17.2069C7.49177 17.2419 7.55897 17.264 7.62854 17.2718C7.6981 17.2796 7.76852 17.273 7.83539 17.2523C7.90226 17.2316 7.96412 17.1973 8.01711 17.1515C8.0701 17.1058 8.11306 17.0496 8.1433 16.9865Z" fill="white"/>
</mask>
<g mask="url(#mask8_641_7145)">
<path d="M7.88672 17.4297L7.00684 16.9217L7.76984 15.6001L8.64972 16.1081L7.88672 17.4297Z" fill="url(#paint9_linear_641_7145)"/>
</g>
<mask id="mask9_641_7145" style="mask-type:luminance" maskUnits="userSpaceOnUse" x="9" y="8" width="20" height="13">
<path d="M28.0039 8H9.00391V20.128H28.0039V8Z" fill="white"/>
</mask>
<g mask="url(#mask9_641_7145)">
<mask id="mask10_641_7145" style="mask-type:luminance" maskUnits="userSpaceOnUse" x="9" y="8" width="20" height="13">
<path d="M28.0039 8H9.00391V20.128H28.0039V8Z" fill="white"/>
</mask>
<g mask="url(#mask10_641_7145)">
<path d="M23.786 11.6897C23.6292 11.6964 23.4729 11.7125 23.318 11.7377L23.312 11.7207C22.7695 10.4306 21.7975 9.36794 20.5607 8.71292C19.324 8.0579 17.8987 7.85088 16.5268 8.127C15.1548 8.40311 13.9206 9.14535 13.0335 10.2278C12.1464 11.3102 11.6611 12.6662 11.66 14.0657V14.1037C10.8945 14.1965 10.1934 14.5782 9.70009 15.1708C9.20672 15.7633 8.95834 16.522 9.00572 17.2915C9.0531 18.0611 9.39267 18.7836 9.95499 19.3111C10.5173 19.8387 11.2599 20.1315 12.031 20.1297H17.686H17.72H17.754H23.754H23.782C24.9006 20.1297 25.9735 19.6853 26.7645 18.8943C27.5556 18.1033 28 17.0304 28 15.9117C28 14.793 27.5556 13.7202 26.7645 12.9291C25.9735 12.1381 24.9006 11.6937 23.782 11.6937" fill="url(#paint10_linear_641_7145)"/>
</g>
</g>
<path d="M12.0349 14.0625C12.6346 14.0623 13.2208 14.2399 13.7196 14.5729C14.2183 14.9059 14.6071 15.3793 14.8367 15.9333C15.0664 16.4872 15.1266 17.0968 15.0098 17.685C14.893 18.2732 14.6045 18.8136 14.1806 19.2377C13.7567 19.6619 13.2165 19.9509 12.6284 20.068C12.0403 20.1852 11.4306 20.1254 10.8765 19.8961C10.3224 19.6668 9.84877 19.2783 9.51545 18.7798C9.18212 18.2813 9.0041 17.6952 9.00391 17.0955C9.00364 16.6973 9.08185 16.3029 9.23405 15.935C9.38626 15.567 9.60948 15.2326 9.89096 14.951C10.1724 14.6693 10.5067 14.4459 10.8745 14.2934C11.2424 14.141 11.6367 14.0625 12.0349 14.0625Z" fill="url(#paint11_linear_641_7145)"/>
<mask id="mask11_641_7145" style="mask-type:luminance" maskUnits="userSpaceOnUse" x="15" y="24" width="4" height="4">
<path d="M17.2128 24.4689L15.7758 26.9159C15.712 27.0252 15.6775 27.1492 15.6758 27.2759C15.6751 27.4338 15.7264 27.5875 15.8218 27.7134C15.9172 27.8393 16.0514 27.9302 16.2036 27.9722C16.3559 28.0142 16.5177 28.0049 16.6641 27.9457C16.8106 27.8865 16.9334 27.7808 17.0138 27.6449L18.4528 25.1979C18.5007 25.1163 18.532 25.0261 18.545 24.9325C18.558 24.8388 18.5525 24.7435 18.5286 24.652C18.5048 24.5605 18.4632 24.4745 18.4062 24.3991C18.3492 24.3237 18.2778 24.2602 18.1963 24.2124C18.1147 24.1645 18.0246 24.1331 17.9309 24.1201C17.8372 24.1071 17.7419 24.1127 17.6504 24.1365C17.5589 24.1603 17.473 24.2019 17.3975 24.259C17.3221 24.316 17.2587 24.3873 17.2108 24.4689" fill="white"/>
</mask>
<g mask="url(#mask11_641_7145)">
<path d="M17.4695 29.9726L20.0695 25.6626L16.8695 22.1406L14.2695 26.4506L17.4695 29.9726Z" fill="url(#paint12_linear_641_7145)"/>
</g>
<mask id="mask12_641_7145" style="mask-type:luminance" maskUnits="userSpaceOnUse" x="15" y="15" width="6" height="9">
<path d="M19.1225 15.9167L15.1005 22.8227C15.0054 22.9875 14.9792 23.1831 15.0277 23.3671C15.0763 23.551 15.1955 23.7083 15.3595 23.8047C15.4687 23.8698 15.5934 23.9043 15.7205 23.9047C15.8464 23.9039 15.97 23.8705 16.0792 23.8078C16.1883 23.7451 16.2794 23.6551 16.3435 23.5467L20.3695 16.6417C20.3795 16.6267 20.3885 16.6097 20.3965 16.5947C20.4865 16.4263 20.506 16.229 20.4506 16.0463C20.3951 15.8635 20.2694 15.7103 20.101 15.6202C19.9326 15.5302 19.7353 15.5107 19.5525 15.5661C19.3698 15.6216 19.2165 15.7473 19.1265 15.9157" fill="white"/>
</mask>
<g mask="url(#mask12_641_7145)">
<path d="M18.3138 28.1562L23.2598 18.8722L17.1608 11.2852L12.2148 20.5702L18.3138 28.1562Z" fill="url(#paint13_linear_641_7145)"/>
</g>
<mask id="mask13_641_7145" style="mask-type:luminance" maskUnits="userSpaceOnUse" x="19" y="15" width="9" height="13">
<path d="M25.6667 16.0854L19.8537 26.1324C19.8066 26.214 19.7761 26.3042 19.7639 26.3977C19.7516 26.4911 19.758 26.5861 19.7825 26.6771C19.807 26.7682 19.8492 26.8534 19.9068 26.9281C19.9643 27.0028 20.036 27.0654 20.1177 27.1124C20.2264 27.1777 20.3509 27.2123 20.4777 27.2124C20.6042 27.213 20.7285 27.18 20.838 27.1167C20.9474 27.0535 21.0381 26.9622 21.1007 26.8524L26.9147 16.7994C27.0032 16.6371 27.0258 16.447 26.978 16.2685C26.9301 16.09 26.8155 15.9367 26.6577 15.8404C26.5453 15.7709 26.4158 15.7342 26.2837 15.7344C26.1603 15.7341 26.0389 15.7656 25.9312 15.8259C25.8235 15.8861 25.7331 15.9731 25.6687 16.0784" fill="white"/>
</mask>
<g mask="url(#mask13_641_7145)">
<path d="M24.1285 32.9868L30.6425 20.3098L22.6195 9.96484L16.1055 22.6418L24.1285 32.9868Z" fill="url(#paint14_linear_641_7145)"/>
</g>
<mask id="mask14_641_7145" style="mask-type:luminance" maskUnits="userSpaceOnUse" x="8" y="21" width="7" height="7">
<path d="M12.725 21.9799L12.309 22.7249L12.109 22.1629C12.097 22.1246 12.0774 22.089 12.0516 22.0582C12.0258 22.0274 11.9941 22.002 11.9585 21.9834C11.9228 21.9648 11.8838 21.9534 11.8438 21.9499C11.8037 21.9464 11.7634 21.9508 11.725 21.9629C11.6867 21.975 11.6511 21.9945 11.6203 22.0203C11.5895 22.0462 11.5641 22.0778 11.5455 22.1135C11.5269 22.1492 11.5156 22.1881 11.5121 22.2282C11.5086 22.2682 11.513 22.3086 11.525 22.3469C11.5272 22.3552 11.5302 22.3633 11.534 22.3709L11.92 23.4319L11.42 24.3159L10.888 23.4039L11.256 22.3769C11.2696 22.3392 11.2755 22.2991 11.2736 22.2591C11.2716 22.219 11.2618 22.1797 11.2447 22.1435C11.2275 22.1072 11.2034 22.0747 11.1737 22.0477C11.144 22.0208 11.1093 21.9999 11.0715 21.9864C11.0338 21.9729 10.9937 21.9669 10.9537 21.9689C10.9136 21.9708 10.8743 21.9807 10.8381 21.9978C10.8018 22.0149 10.7693 22.039 10.7423 22.0687C10.7154 22.0984 10.6946 22.1332 10.681 22.1709L10.481 22.7149L10.056 21.9839C10.0153 21.9139 9.94848 21.8629 9.87018 21.8422C9.79188 21.8215 9.70856 21.8327 9.63855 21.8734C9.56853 21.9141 9.51755 21.981 9.49683 22.0593C9.47611 22.1376 9.48733 22.2209 9.52805 22.2909L9.95805 23.0279L9.38005 22.9229C9.30356 22.9152 9.22697 22.9366 9.16551 22.9828C9.10406 23.0289 9.06224 23.0966 9.04838 23.1722C9.03451 23.2478 9.04962 23.3259 9.09069 23.3909C9.13177 23.4558 9.1958 23.503 9.27005 23.5229L10.363 23.7229L10.884 24.6129H9.95705L9.25005 23.7809C9.22378 23.7503 9.19173 23.7251 9.15573 23.7068C9.11974 23.6885 9.08049 23.6775 9.04023 23.6744C8.99998 23.6713 8.95951 23.6761 8.92113 23.6887C8.88275 23.7012 8.84721 23.7212 8.81655 23.7474C8.78588 23.7737 8.76069 23.8057 8.74241 23.8417C8.72413 23.8777 8.71313 23.917 8.71001 23.9572C8.7069 23.9975 8.71175 24.038 8.72428 24.0763C8.73681 24.1147 8.75678 24.1503 8.78305 24.1809L9.15905 24.6229H8.30805C8.23004 24.6274 8.1567 24.6615 8.10306 24.7183C8.04942 24.7751 8.01953 24.8503 8.01953 24.9284C8.01953 25.0065 8.04942 25.0817 8.10306 25.1385C8.1567 25.1953 8.23004 25.2294 8.30805 25.2339H9.16005L8.78105 25.6839C8.75478 25.7145 8.7348 25.75 8.72224 25.7883C8.70969 25.8266 8.7048 25.867 8.70787 25.9072C8.71093 25.9475 8.72189 25.9867 8.7401 26.0226C8.75832 26.0586 8.78345 26.0907 8.81405 26.1169C8.84464 26.1432 8.88012 26.1632 8.91843 26.1757C8.95675 26.1883 8.99717 26.1932 9.03738 26.1901C9.07759 26.187 9.1168 26.1761 9.15277 26.1579C9.18875 26.1396 9.22078 26.1145 9.24705 26.0839L9.96305 25.2379H10.909L10.38 26.1829L9.25005 26.3499C9.1734 26.3607 9.10374 26.4003 9.05517 26.4605C9.0066 26.5208 8.98276 26.5973 8.98849 26.6745C8.99421 26.7517 9.02906 26.8238 9.08599 26.8762C9.14291 26.9287 9.21765 26.9575 9.29505 26.9569H9.34005L10 26.8569L9.61505 27.5459C9.57858 27.6163 9.57088 27.6982 9.59357 27.7742C9.61626 27.8502 9.66757 27.9144 9.73669 27.9533C9.8058 27.9922 9.88732 28.0027 9.96406 27.9827C10.0408 27.9627 10.1068 27.9136 10.148 27.8459L10.494 27.2269L10.644 27.6959C10.6641 27.7574 10.703 27.811 10.7552 27.8491C10.8075 27.8871 10.8704 27.9077 10.935 27.9079C10.9834 27.9079 11.031 27.8966 11.0742 27.8747C11.1173 27.8529 11.1547 27.8213 11.1833 27.7823C11.2119 27.7434 11.231 27.6983 11.2389 27.6506C11.2469 27.6029 11.2435 27.554 11.229 27.5079L10.903 26.4989L11.431 25.5509L11.944 26.4289L11.574 27.4609C11.5605 27.4987 11.5546 27.5387 11.5565 27.5788C11.5585 27.6188 11.5683 27.6581 11.5854 27.6944C11.6026 27.7306 11.6267 27.7632 11.6564 27.7901C11.6861 27.8171 11.7208 27.8379 11.7585 27.8514C11.8348 27.8787 11.9188 27.8746 11.992 27.84C12.0283 27.8229 12.0608 27.7988 12.0877 27.7691C12.1147 27.7394 12.1355 27.7047 12.149 27.6669L12.349 27.1139L12.776 27.8429C12.8098 27.9012 12.8618 27.9467 12.924 27.9723C12.9863 27.9979 13.0553 28.0022 13.1202 27.9845C13.1852 27.9668 13.2424 27.9281 13.2831 27.8745C13.3238 27.8208 13.3455 27.7552 13.345 27.6879C13.3442 27.6342 13.3297 27.5815 13.303 27.5349L12.895 26.8349L13.434 26.9469C13.4547 26.9518 13.4758 26.9542 13.497 26.9539C13.5691 26.9491 13.6371 26.919 13.689 26.8688C13.741 26.8187 13.7736 26.7519 13.781 26.6801C13.7884 26.6082 13.7702 26.5361 13.7296 26.4764C13.689 26.4168 13.6286 26.3734 13.559 26.3539L12.477 26.1219L11.95 25.2219H13.135L13.823 26.0739C13.8741 26.1376 13.9483 26.1783 14.0295 26.1872C14.1106 26.1961 14.1919 26.1725 14.2555 26.1214C14.3192 26.0704 14.36 25.9961 14.3689 25.915C14.3778 25.8339 14.3541 25.7526 14.303 25.6889L13.923 25.2189H14.553C14.5946 25.2213 14.6363 25.2152 14.6754 25.2009C14.7145 25.1866 14.7503 25.1645 14.7806 25.1359C14.8109 25.1073 14.835 25.0728 14.8515 25.0345C14.868 24.9963 14.8765 24.9551 14.8765 24.9134C14.8765 24.8718 14.868 24.8305 14.8515 24.7923C14.835 24.754 14.8109 24.7195 14.7806 24.6909C14.7503 24.6623 14.7145 24.6402 14.6754 24.6259C14.6363 24.6117 14.5946 24.6055 14.553 24.6079V24.6039H13.936L14.296 24.1789C14.3491 24.1171 14.3754 24.0368 14.3692 23.9556C14.363 23.8744 14.3248 23.799 14.263 23.7459C14.2013 23.6929 14.1209 23.6665 14.0397 23.6727C13.9585 23.6789 13.8831 23.7171 13.83 23.7789L13.13 24.6009H11.957L12.448 23.7229L13.519 23.5229C13.5591 23.5157 13.5973 23.5006 13.6314 23.4785C13.6656 23.4563 13.695 23.4276 13.7179 23.394C13.7408 23.3603 13.7567 23.3225 13.7648 23.2826C13.7729 23.2427 13.773 23.2016 13.765 23.1617C13.757 23.1218 13.7411 23.0839 13.7183 23.0502C13.6955 23.0165 13.6662 22.9877 13.6322 22.9655C13.5981 22.9432 13.5599 22.928 13.5199 22.9207C13.4799 22.9134 13.4388 22.9142 13.399 22.9229L12.839 23.0349L13.258 22.2859C13.2773 22.2505 13.2892 22.2115 13.2931 22.1714C13.297 22.1313 13.2927 22.0907 13.2806 22.0523C13.2685 22.0138 13.2487 21.9782 13.2225 21.9476C13.1963 21.9169 13.1642 21.8919 13.128 21.8739C13.0846 21.8509 13.0362 21.8389 12.987 21.8389C12.9344 21.8389 12.8827 21.8524 12.8368 21.8782C12.791 21.9039 12.7525 21.941 12.725 21.9859" fill="white"/>
</mask>
<g mask="url(#mask14_641_7145)">
<path d="M12.1246 31.0645L18.2616 24.2825L10.7346 18.7695L4.60156 25.5515L12.1246 31.0645Z" fill="url(#paint15_linear_641_7145)"/>
</g>
<mask id="mask15_641_7145" style="mask-type:luminance" maskUnits="userSpaceOnUse" x="6" y="19" width="4" height="3">
<path d="M7.04516 19.0371C6.97226 19.0761 6.91783 19.1425 6.89383 19.2216C6.86983 19.3008 6.87822 19.3862 6.91716 19.4591L6.92716 19.4771L7.15216 19.8771H6.69716C6.65619 19.8758 6.61536 19.8826 6.577 19.897C6.53865 19.9115 6.50351 19.9334 6.47361 19.9614C6.44371 19.9895 6.41963 20.0231 6.40274 20.0605C6.38584 20.0978 6.37647 20.1381 6.37516 20.1791C6.37385 20.2201 6.38062 20.2609 6.39508 20.2993C6.40955 20.3376 6.43143 20.3728 6.45947 20.4027C6.48752 20.4326 6.52117 20.4566 6.55852 20.4735C6.59588 20.4904 6.63619 20.4998 6.67716 20.5011H7.15216L6.92616 20.8941C6.90315 20.9297 6.88761 20.9695 6.88049 21.0112C6.87338 21.053 6.87483 21.0957 6.88476 21.1369C6.8947 21.178 6.91291 21.2168 6.93828 21.2507C6.96365 21.2845 6.99565 21.3129 7.03234 21.3341C7.06903 21.3552 7.10964 21.3686 7.15169 21.3736C7.19374 21.3785 7.23636 21.3748 7.27695 21.3628C7.31753 21.3507 7.35524 21.3305 7.38777 21.3034C7.4203 21.2763 7.44697 21.2429 7.46616 21.2051L7.69516 20.8051L7.92316 21.1991C7.94164 21.2367 7.96749 21.2701 7.99916 21.2975C8.03084 21.3248 8.06769 21.3455 8.10754 21.3584C8.14738 21.3712 8.1894 21.3759 8.23108 21.3721C8.27277 21.3684 8.31327 21.3563 8.35019 21.3365C8.3871 21.3168 8.41966 21.2898 8.44594 21.2573C8.47222 21.2247 8.49168 21.1871 8.50315 21.1469C8.51463 21.1066 8.51788 21.0645 8.51273 21.023C8.50758 20.9814 8.49412 20.9413 8.47316 20.9051L8.46316 20.8871L8.23316 20.5001H8.68816C8.72952 20.5005 8.77054 20.4927 8.80886 20.4772C8.84718 20.4616 8.88204 20.4386 8.91143 20.4095C8.94081 20.3804 8.96413 20.3458 8.98005 20.3076C8.99597 20.2694 9.00416 20.2285 9.00416 20.1871C9.00483 20.1455 8.99715 20.1041 8.98159 20.0655C8.96602 20.0269 8.94287 19.9917 8.91352 19.9622C8.88416 19.9326 8.84918 19.9093 8.81065 19.8935C8.77212 19.8776 8.73081 19.8697 8.68916 19.8701H8.23516L8.46316 19.4761C8.5013 19.4047 8.5102 19.3213 8.48797 19.2435C8.46574 19.1656 8.41414 19.0995 8.34405 19.059C8.27396 19.0185 8.19087 19.0068 8.11234 19.0264C8.0338 19.046 7.96597 19.0954 7.92316 19.1641L7.69516 19.5641L7.46716 19.1651C7.44794 19.1289 7.42175 19.0969 7.39011 19.0709C7.35846 19.0448 7.32198 19.0253 7.28277 19.0134C7.24355 19.0015 7.20237 18.9975 7.1616 19.0015C7.12082 19.0056 7.08125 19.0177 7.04516 19.0371Z" fill="white"/>
</mask>
<g mask="url(#mask15_641_7145)">
<path d="M6.69688 22.421L9.69688 21.107L8.67188 17.957L5.67188 19.271L6.69688 22.421Z" fill="url(#paint16_linear_641_7145)"/>
</g>
<defs>
<linearGradient id="paint0_linear_641_7145" x1="14.0396" y1="31.6222" x2="27.4093" y2="22.6508" gradientUnits="userSpaceOnUse">
<stop stop-color="#E1F9FF"/>
<stop offset="1" stop-color="#40CBFF"/>
</linearGradient>
<linearGradient id="paint1_linear_641_7145" x1="9.16254" y1="4.13016" x2="9.55747" y2="5.60314" gradientUnits="userSpaceOnUse">
<stop stop-color="#FFBE0C"/>
<stop offset="0.442" stop-color="#FFC612"/>
<stop offset="1" stop-color="#FFE596"/>
</linearGradient>
<linearGradient id="paint2_linear_641_7145" x1="12.8453" y1="17.8855" x2="12.4503" y2="16.4125" gradientUnits="userSpaceOnUse">
<stop stop-color="#FFBE0C"/>
<stop offset="0.442" stop-color="#FFC612"/>
<stop offset="1" stop-color="#FFE596"/>
</linearGradient>
<radialGradient id="paint3_radial_641_7145" cx="0" cy="0" r="1" gradientUnits="userSpaceOnUse" gradientTransform="translate(9.32881 8.9148) rotate(50.9985) scale(5.62922 5.62755)">
<stop stop-color="#FFE596"/>
<stop offset="0.5" stop-color="#FFC612"/>
<stop offset="1" stop-color="#FFBE0C"/>
</radialGradient>
<linearGradient id="paint4_linear_641_7145" x1="17.8739" y1="9.16693" x2="16.4019" y2="9.5616" gradientUnits="userSpaceOnUse">
<stop stop-color="#FFBE0C"/>
<stop offset="0.442" stop-color="#FFC612"/>
<stop offset="1" stop-color="#FFE596"/>
</linearGradient>
<linearGradient id="paint5_linear_641_7145" x1="4.13394" y1="12.8565" x2="5.60595" y2="12.4618" gradientUnits="userSpaceOnUse">
<stop stop-color="#FFBE0C"/>
<stop offset="0.442" stop-color="#FFC612"/>
<stop offset="1" stop-color="#FFE596"/>
</linearGradient>
<linearGradient id="paint6_linear_641_7145" x1="17.1596" y1="14.5697" x2="15.8406" y2="13.8082" gradientUnits="userSpaceOnUse">
<stop stop-color="#FFBE0C"/>
<stop offset="0.442" stop-color="#FFC612"/>
<stop offset="1" stop-color="#FFE596"/>
</linearGradient>
<linearGradient id="paint7_linear_641_7145" x1="4.84434" y1="7.44591" x2="6.1633" y2="8.20741" gradientUnits="userSpaceOnUse">
<stop stop-color="#FFBE0C"/>
<stop offset="0.442" stop-color="#FFC612"/>
<stop offset="1" stop-color="#FFE596"/>
</linearGradient>
<linearGradient id="paint8_linear_641_7145" x1="14.561" y1="4.84384" x2="13.798" y2="6.1654" gradientUnits="userSpaceOnUse">
<stop stop-color="#FFBE0C"/>
<stop offset="0.442" stop-color="#FFC612"/>
<stop offset="1" stop-color="#FFE596"/>
</linearGradient>
<linearGradient id="paint9_linear_641_7145" x1="7.44678" y1="17.1757" x2="8.20978" y2="15.8541" gradientUnits="userSpaceOnUse">
<stop stop-color="#FFBE0C"/>
<stop offset="0.442" stop-color="#FFC612"/>
<stop offset="1" stop-color="#FFE596"/>
</linearGradient>
<linearGradient id="paint10_linear_641_7145" x1="22.433" y1="12.8202" x2="16.7974" y2="24.0486" gradientUnits="userSpaceOnUse">
<stop stop-color="#FEFFFF"/>
<stop offset="1" stop-color="#D5D5D5"/>
</linearGradient>
<linearGradient id="paint11_linear_641_7145" x1="10.4411" y1="15.4208" x2="13.4306" y2="18.1496" gradientUnits="userSpaceOnUse">
<stop stop-color="white"/>
<stop offset="1" stop-color="white" stop-opacity="0.03"/>
</linearGradient>
<linearGradient id="paint12_linear_641_7145" x1="13.8867" y1="31.4059" x2="19.831" y2="26.0824" gradientUnits="userSpaceOnUse">
<stop stop-color="#E1F9FF"/>
<stop offset="1" stop-color="#40CBFF"/>
</linearGradient>
<linearGradient id="paint13_linear_641_7145" x1="12.9769" y1="27.785" x2="23.3456" y2="20.2027" gradientUnits="userSpaceOnUse">
<stop stop-color="#E1F9FF"/>
<stop offset="1" stop-color="#40CBFF"/>
</linearGradient>
<linearGradient id="paint14_linear_641_7145" x1="16.7887" y1="32.9868" x2="30.2228" y2="23.7267" gradientUnits="userSpaceOnUse">
<stop stop-color="#E1F9FF"/>
<stop offset="1" stop-color="#40CBFF"/>
</linearGradient>
<linearGradient id="paint15_linear_641_7145" x1="8.83616" y1="29.6875" x2="12.886" y2="20.7141" gradientUnits="userSpaceOnUse">
<stop stop-color="#E1F9FF"/>
<stop offset="1" stop-color="#40CBFF"/>
</linearGradient>
<linearGradient id="paint16_linear_641_7145" x1="6.8029" y1="21.8095" x2="8.55503" y2="19.2212" gradientUnits="userSpaceOnUse">
<stop stop-color="#E1F9FF"/>
<stop offset="1" stop-color="#40CBFF"/>
</linearGradient>
</defs>
</svg>
