<svg width="285" height="82" viewBox="0 0 285 82" fill="none" xmlns="http://www.w3.org/2000/svg">
<path d="M5.93834 11H1.58234V10.186H3.37534V4.224C3.37534 4.18 3.37901 4.13967 3.38634 4.103L1.92334 5.412L1.38434 4.763L3.55134 2.893H4.35434V10.186H5.93834V11ZM12.9641 6.985C12.9641 7.69633 12.8871 8.316 12.7331 8.844C12.5791 9.36467 12.3701 9.79733 12.1061 10.142C11.8421 10.4867 11.5304 10.7433 11.1711 10.912C10.8117 11.0733 10.4231 11.154 10.0051 11.154C9.58708 11.154 9.19841 11.0733 8.83908 10.912C8.47974 10.7433 8.16441 10.4867 7.89308 10.142C7.62908 9.79733 7.42008 9.36467 7.26608 8.844C7.11941 8.316 7.04608 7.69633 7.04608 6.985C7.04608 6.26633 7.11941 5.64667 7.26608 5.126C7.42008 4.598 7.62908 4.16167 7.89308 3.817C8.16441 3.47233 8.47974 3.21933 8.83908 3.058C9.19841 2.88933 9.58708 2.805 10.0051 2.805C10.4231 2.805 10.8117 2.88933 11.1711 3.058C11.5304 3.21933 11.8421 3.47233 12.1061 3.817C12.3701 4.16167 12.5791 4.598 12.7331 5.126C12.8871 5.64667 12.9641 6.26633 12.9641 6.985ZM11.9521 6.985C11.9521 6.35433 11.8971 5.82633 11.7871 5.401C11.6844 4.96833 11.5414 4.62367 11.3581 4.367C11.1821 4.103 10.9767 3.916 10.7421 3.806C10.5074 3.68867 10.2617 3.63 10.0051 3.63C9.74841 3.63 9.50274 3.68867 9.26808 3.806C9.03341 3.916 8.82808 4.103 8.65208 4.367C8.47608 4.62367 8.33308 4.96833 8.22308 5.401C8.12041 5.82633 8.06908 6.35433 8.06908 6.985C8.06908 7.60833 8.12041 8.13633 8.22308 8.569C8.33308 8.99433 8.47608 9.339 8.65208 9.603C8.82808 9.867 9.03341 10.0577 9.26808 10.175C9.50274 10.285 9.74841 10.34 10.0051 10.34C10.2617 10.34 10.5074 10.285 10.7421 10.175C10.9767 10.0577 11.1821 9.867 11.3581 9.603C11.5414 9.339 11.6844 8.99433 11.7871 8.569C11.8971 8.13633 11.9521 7.60833 11.9521 6.985ZM14.8748 9.603L14.2038 11.825H13.4778L13.8738 9.603H14.8748ZM21.6008 6.985C21.6008 7.69633 21.5238 8.316 21.3698 8.844C21.2158 9.36467 21.0068 9.79733 20.7428 10.142C20.4788 10.4867 20.1671 10.7433 19.8078 10.912C19.4485 11.0733 19.0598 11.154 18.6418 11.154C18.2238 11.154 17.8351 11.0733 17.4758 10.912C17.1165 10.7433 16.8011 10.4867 16.5298 10.142C16.2658 9.79733 16.0568 9.36467 15.9028 8.844C15.7561 8.316 15.6828 7.69633 15.6828 6.985C15.6828 6.26633 15.7561 5.64667 15.9028 5.126C16.0568 4.598 16.2658 4.16167 16.5298 3.817C16.8011 3.47233 17.1165 3.21933 17.4758 3.058C17.8351 2.88933 18.2238 2.805 18.6418 2.805C19.0598 2.805 19.4485 2.88933 19.8078 3.058C20.1671 3.21933 20.4788 3.47233 20.7428 3.817C21.0068 4.16167 21.2158 4.598 21.3698 5.126C21.5238 5.64667 21.6008 6.26633 21.6008 6.985ZM20.5888 6.985C20.5888 6.35433 20.5338 5.82633 20.4238 5.401C20.3211 4.96833 20.1781 4.62367 19.9948 4.367C19.8188 4.103 19.6135 3.916 19.3788 3.806C19.1441 3.68867 18.8985 3.63 18.6418 3.63C18.3851 3.63 18.1395 3.68867 17.9048 3.806C17.6701 3.916 17.4648 4.103 17.2888 4.367C17.1128 4.62367 16.9698 4.96833 16.8598 5.401C16.7571 5.82633 16.7058 6.35433 16.7058 6.985C16.7058 7.60833 16.7571 8.13633 16.8598 8.569C16.9698 8.99433 17.1128 9.339 17.2888 9.603C17.4648 9.867 17.6701 10.0577 17.9048 10.175C18.1395 10.285 18.3851 10.34 18.6418 10.34C18.8985 10.34 19.1441 10.285 19.3788 10.175C19.6135 10.0577 19.8188 9.867 19.9948 9.603C20.1781 9.339 20.3211 8.99433 20.4238 8.569C20.5338 8.13633 20.5888 7.60833 20.5888 6.985ZM28.1535 6.985C28.1535 7.69633 28.0765 8.316 27.9225 8.844C27.7685 9.36467 27.5595 9.79733 27.2955 10.142C27.0315 10.4867 26.7199 10.7433 26.3605 10.912C26.0012 11.0733 25.6125 11.154 25.1945 11.154C24.7765 11.154 24.3879 11.0733 24.0285 10.912C23.6692 10.7433 23.3539 10.4867 23.0825 10.142C22.8185 9.79733 22.6095 9.36467 22.4555 8.844C22.3089 8.316 22.2355 7.69633 22.2355 6.985C22.2355 6.26633 22.3089 5.64667 22.4555 5.126C22.6095 4.598 22.8185 4.16167 23.0825 3.817C23.3539 3.47233 23.6692 3.21933 24.0285 3.058C24.3879 2.88933 24.7765 2.805 25.1945 2.805C25.6125 2.805 26.0012 2.88933 26.3605 3.058C26.7199 3.21933 27.0315 3.47233 27.2955 3.817C27.5595 4.16167 27.7685 4.598 27.9225 5.126C28.0765 5.64667 28.1535 6.26633 28.1535 6.985ZM27.1415 6.985C27.1415 6.35433 27.0865 5.82633 26.9765 5.401C26.8739 4.96833 26.7309 4.62367 26.5475 4.367C26.3715 4.103 26.1662 3.916 25.9315 3.806C25.6969 3.68867 25.4512 3.63 25.1945 3.63C24.9379 3.63 24.6922 3.68867 24.4575 3.806C24.2229 3.916 24.0175 4.103 23.8415 4.367C23.6655 4.62367 23.5225 4.96833 23.4125 5.401C23.3099 5.82633 23.2585 6.35433 23.2585 6.985C23.2585 7.60833 23.3099 8.13633 23.4125 8.569C23.5225 8.99433 23.6655 9.339 23.8415 9.603C24.0175 9.867 24.2229 10.0577 24.4575 10.175C24.6922 10.285 24.9379 10.34 25.1945 10.34C25.4512 10.34 25.6969 10.285 25.9315 10.175C26.1662 10.0577 26.3715 9.867 26.5475 9.603C26.7309 9.339 26.8739 8.99433 26.9765 8.569C27.0865 8.13633 27.1415 7.60833 27.1415 6.985ZM34.7063 6.985C34.7063 7.69633 34.6293 8.316 34.4753 8.844C34.3213 9.36467 34.1123 9.79733 33.8483 10.142C33.5843 10.4867 33.2726 10.7433 32.9133 10.912C32.5539 11.0733 32.1653 11.154 31.7473 11.154C31.3293 11.154 30.9406 11.0733 30.5813 10.912C30.2219 10.7433 29.9066 10.4867 29.6353 10.142C29.3713 9.79733 29.1623 9.36467 29.0083 8.844C28.8616 8.316 28.7883 7.69633 28.7883 6.985C28.7883 6.26633 28.8616 5.64667 29.0083 5.126C29.1623 4.598 29.3713 4.16167 29.6353 3.817C29.9066 3.47233 30.2219 3.21933 30.5813 3.058C30.9406 2.88933 31.3293 2.805 31.7473 2.805C32.1653 2.805 32.5539 2.88933 32.9133 3.058C33.2726 3.21933 33.5843 3.47233 33.8483 3.817C34.1123 4.16167 34.3213 4.598 34.4753 5.126C34.6293 5.64667 34.7063 6.26633 34.7063 6.985ZM33.6943 6.985C33.6943 6.35433 33.6393 5.82633 33.5293 5.401C33.4266 4.96833 33.2836 4.62367 33.1003 4.367C32.9243 4.103 32.7189 3.916 32.4843 3.806C32.2496 3.68867 32.0039 3.63 31.7473 3.63C31.4906 3.63 31.2449 3.68867 31.0103 3.806C30.7756 3.916 30.5703 4.103 30.3943 4.367C30.2183 4.62367 30.0753 4.96833 29.9653 5.401C29.8626 5.82633 29.8113 6.35433 29.8113 6.985C29.8113 7.60833 29.8626 8.13633 29.9653 8.569C30.0753 8.99433 30.2183 9.339 30.3943 9.603C30.5703 9.867 30.7756 10.0577 31.0103 10.175C31.2449 10.285 31.4906 10.34 31.7473 10.34C32.0039 10.34 32.2496 10.285 32.4843 10.175C32.7189 10.0577 32.9243 9.867 33.1003 9.603C33.2836 9.339 33.4266 8.99433 33.5293 8.569C33.6393 8.13633 33.6943 7.60833 33.6943 6.985Z" fill="black" fill-opacity="0.6"/>
<path d="M8.80608 20.44C9.16541 20.3447 9.55041 20.297 9.96108 20.297C10.3864 20.297 10.7604 20.3593 11.0831 20.484C11.4131 20.6087 11.6881 20.781 11.9081 21.001C12.1281 21.221 12.2931 21.4813 12.4031 21.782C12.5204 22.0827 12.5791 22.409 12.5791 22.761C12.5791 23.1863 12.5021 23.575 12.3481 23.927C12.2014 24.279 11.9961 24.5797 11.7321 24.829C11.4681 25.071 11.1564 25.2617 10.7971 25.401C10.4451 25.533 10.0637 25.599 9.65308 25.599C9.16908 25.599 8.72908 25.5147 8.33308 25.346C7.94441 25.17 7.62541 24.9647 7.37608 24.73L7.91508 23.993C8.15708 24.1983 8.43208 24.367 8.74008 24.499C9.04808 24.631 9.36708 24.697 9.69708 24.697C9.97574 24.697 10.2324 24.6567 10.4671 24.576C10.7017 24.488 10.9034 24.3633 11.0721 24.202C11.2407 24.0407 11.3727 23.8427 11.4681 23.608C11.5634 23.3733 11.6111 23.1093 11.6111 22.816C11.6111 22.288 11.4497 21.8773 11.1271 21.584C10.8044 21.2907 10.3534 21.144 9.77408 21.144C9.56141 21.144 9.34508 21.1697 9.12508 21.221C8.91241 21.265 8.68874 21.3273 8.45408 21.408L7.80508 21.221L8.46508 17.404H12.3261V18.328H9.16908L8.80608 20.44ZM14.8748 24.103L14.2038 26.325H13.4778L13.8738 24.103H14.8748ZM21.6008 21.485C21.6008 22.1963 21.5238 22.816 21.3698 23.344C21.2158 23.8647 21.0068 24.2973 20.7428 24.642C20.4788 24.9867 20.1671 25.2433 19.8078 25.412C19.4485 25.5733 19.0598 25.654 18.6418 25.654C18.2238 25.654 17.8351 25.5733 17.4758 25.412C17.1165 25.2433 16.8011 24.9867 16.5298 24.642C16.2658 24.2973 16.0568 23.8647 15.9028 23.344C15.7561 22.816 15.6828 22.1963 15.6828 21.485C15.6828 20.7663 15.7561 20.1467 15.9028 19.626C16.0568 19.098 16.2658 18.6617 16.5298 18.317C16.8011 17.9723 17.1165 17.7193 17.4758 17.558C17.8351 17.3893 18.2238 17.305 18.6418 17.305C19.0598 17.305 19.4485 17.3893 19.8078 17.558C20.1671 17.7193 20.4788 17.9723 20.7428 18.317C21.0068 18.6617 21.2158 19.098 21.3698 19.626C21.5238 20.1467 21.6008 20.7663 21.6008 21.485ZM20.5888 21.485C20.5888 20.8543 20.5338 20.3263 20.4238 19.901C20.3211 19.4683 20.1781 19.1237 19.9948 18.867C19.8188 18.603 19.6135 18.416 19.3788 18.306C19.1441 18.1887 18.8985 18.13 18.6418 18.13C18.3851 18.13 18.1395 18.1887 17.9048 18.306C17.6701 18.416 17.4648 18.603 17.2888 18.867C17.1128 19.1237 16.9698 19.4683 16.8598 19.901C16.7571 20.3263 16.7058 20.8543 16.7058 21.485C16.7058 22.1083 16.7571 22.6363 16.8598 23.069C16.9698 23.4943 17.1128 23.839 17.2888 24.103C17.4648 24.367 17.6701 24.5577 17.9048 24.675C18.1395 24.785 18.3851 24.84 18.6418 24.84C18.8985 24.84 19.1441 24.785 19.3788 24.675C19.6135 24.5577 19.8188 24.367 19.9948 24.103C20.1781 23.839 20.3211 23.4943 20.4238 23.069C20.5338 22.6363 20.5888 22.1083 20.5888 21.485ZM28.1535 21.485C28.1535 22.1963 28.0765 22.816 27.9225 23.344C27.7685 23.8647 27.5595 24.2973 27.2955 24.642C27.0315 24.9867 26.7199 25.2433 26.3605 25.412C26.0012 25.5733 25.6125 25.654 25.1945 25.654C24.7765 25.654 24.3879 25.5733 24.0285 25.412C23.6692 25.2433 23.3539 24.9867 23.0825 24.642C22.8185 24.2973 22.6095 23.8647 22.4555 23.344C22.3089 22.816 22.2355 22.1963 22.2355 21.485C22.2355 20.7663 22.3089 20.1467 22.4555 19.626C22.6095 19.098 22.8185 18.6617 23.0825 18.317C23.3539 17.9723 23.6692 17.7193 24.0285 17.558C24.3879 17.3893 24.7765 17.305 25.1945 17.305C25.6125 17.305 26.0012 17.3893 26.3605 17.558C26.7199 17.7193 27.0315 17.9723 27.2955 18.317C27.5595 18.6617 27.7685 19.098 27.9225 19.626C28.0765 20.1467 28.1535 20.7663 28.1535 21.485ZM27.1415 21.485C27.1415 20.8543 27.0865 20.3263 26.9765 19.901C26.8739 19.4683 26.7309 19.1237 26.5475 18.867C26.3715 18.603 26.1662 18.416 25.9315 18.306C25.6969 18.1887 25.4512 18.13 25.1945 18.13C24.9379 18.13 24.6922 18.1887 24.4575 18.306C24.2229 18.416 24.0175 18.603 23.8415 18.867C23.6655 19.1237 23.5225 19.4683 23.4125 19.901C23.3099 20.3263 23.2585 20.8543 23.2585 21.485C23.2585 22.1083 23.3099 22.6363 23.4125 23.069C23.5225 23.4943 23.6655 23.839 23.8415 24.103C24.0175 24.367 24.2229 24.5577 24.4575 24.675C24.6922 24.785 24.9379 24.84 25.1945 24.84C25.4512 24.84 25.6969 24.785 25.9315 24.675C26.1662 24.5577 26.3715 24.367 26.5475 24.103C26.7309 23.839 26.8739 23.4943 26.9765 23.069C27.0865 22.6363 27.1415 22.1083 27.1415 21.485ZM34.7063 21.485C34.7063 22.1963 34.6293 22.816 34.4753 23.344C34.3213 23.8647 34.1123 24.2973 33.8483 24.642C33.5843 24.9867 33.2726 25.2433 32.9133 25.412C32.5539 25.5733 32.1653 25.654 31.7473 25.654C31.3293 25.654 30.9406 25.5733 30.5813 25.412C30.2219 25.2433 29.9066 24.9867 29.6353 24.642C29.3713 24.2973 29.1623 23.8647 29.0083 23.344C28.8616 22.816 28.7883 22.1963 28.7883 21.485C28.7883 20.7663 28.8616 20.1467 29.0083 19.626C29.1623 19.098 29.3713 18.6617 29.6353 18.317C29.9066 17.9723 30.2219 17.7193 30.5813 17.558C30.9406 17.3893 31.3293 17.305 31.7473 17.305C32.1653 17.305 32.5539 17.3893 32.9133 17.558C33.2726 17.7193 33.5843 17.9723 33.8483 18.317C34.1123 18.6617 34.3213 19.098 34.4753 19.626C34.6293 20.1467 34.7063 20.7663 34.7063 21.485ZM33.6943 21.485C33.6943 20.8543 33.6393 20.3263 33.5293 19.901C33.4266 19.4683 33.2836 19.1237 33.1003 18.867C32.9243 18.603 32.7189 18.416 32.4843 18.306C32.2496 18.1887 32.0039 18.13 31.7473 18.13C31.4906 18.13 31.2449 18.1887 31.0103 18.306C30.7756 18.416 30.5703 18.603 30.3943 18.867C30.2183 19.1237 30.0753 19.4683 29.9653 19.901C29.8626 20.3263 29.8113 20.8543 29.8113 21.485C29.8113 22.1083 29.8626 22.6363 29.9653 23.069C30.0753 23.4943 30.2183 23.839 30.3943 24.103C30.5703 24.367 30.7756 24.5577 31.0103 24.675C31.2449 24.785 31.4906 24.84 31.7473 24.84C32.0039 24.84 32.2496 24.785 32.4843 24.675C32.7189 24.5577 32.9243 24.367 33.1003 24.103C33.2836 23.839 33.4266 23.4943 33.5293 23.069C33.6393 22.6363 33.6943 22.1083 33.6943 21.485Z" fill="black" fill-opacity="0.6"/>
<path d="M34.7063 35.985C34.7063 36.6963 34.6293 37.316 34.4753 37.844C34.3213 38.3647 34.1123 38.7973 33.8483 39.142C33.5843 39.4867 33.2726 39.7433 32.9133 39.912C32.5539 40.0733 32.1653 40.154 31.7473 40.154C31.3293 40.154 30.9406 40.0733 30.5813 39.912C30.2219 39.7433 29.9066 39.4867 29.6353 39.142C29.3713 38.7973 29.1623 38.3647 29.0083 37.844C28.8616 37.316 28.7883 36.6963 28.7883 35.985C28.7883 35.2663 28.8616 34.6467 29.0083 34.126C29.1623 33.598 29.3713 33.1617 29.6353 32.817C29.9066 32.4723 30.2219 32.2193 30.5813 32.058C30.9406 31.8893 31.3293 31.805 31.7473 31.805C32.1653 31.805 32.5539 31.8893 32.9133 32.058C33.2726 32.2193 33.5843 32.4723 33.8483 32.817C34.1123 33.1617 34.3213 33.598 34.4753 34.126C34.6293 34.6467 34.7063 35.2663 34.7063 35.985ZM33.6943 35.985C33.6943 35.3543 33.6393 34.8263 33.5293 34.401C33.4266 33.9683 33.2836 33.6237 33.1003 33.367C32.9243 33.103 32.7189 32.916 32.4843 32.806C32.2496 32.6887 32.0039 32.63 31.7473 32.63C31.4906 32.63 31.2449 32.6887 31.0103 32.806C30.7756 32.916 30.5703 33.103 30.3943 33.367C30.2183 33.6237 30.0753 33.9683 29.9653 34.401C29.8626 34.8263 29.8113 35.3543 29.8113 35.985C29.8113 36.6083 29.8626 37.1363 29.9653 37.569C30.0753 37.9943 30.2183 38.339 30.3943 38.603C30.5703 38.867 30.7756 39.0577 31.0103 39.175C31.2449 39.285 31.4906 39.34 31.7473 39.34C32.0039 39.34 32.2496 39.285 32.4843 39.175C32.7189 39.0577 32.9243 38.867 33.1003 38.603C33.2836 38.339 33.4266 37.9943 33.5293 37.569C33.6393 37.1363 33.6943 36.6083 33.6943 35.985Z" fill="black" fill-opacity="0.6"/>
<path opacity="0.6" d="M46.0332 9L102.853 25L152.704 21L202.02 15.5L251.871 11.5L284.033 28" stroke="#16A3E9" stroke-width="2"/>
<path d="M46.0332 25.2745L67.4746 11L115.718 17.1176L165.033 23.2353L213.276 25.7843L262.592 37L284.033 30.3726" stroke="#0068E6" stroke-opacity="0.6" stroke-width="2"/>
<path d="M46.0332 31.1429L78.7314 35.5143L129.119 29.2L178.434 35.5143L227.749 19L284.033 36" stroke="#9480FF" stroke-opacity="0.6" stroke-width="2"/>
<rect x="50" y="12" width="6" height="31" fill="#0068E6"/>
<rect x="62" y="3" width="6" height="40" fill="#16A3E9"/>
<rect x="74" y="15" width="6" height="28" fill="#8972FF"/>
<rect x="100" y="23" width="6" height="20" fill="#0068E6"/>
<rect x="112" y="10" width="6" height="33" fill="#16A3E9"/>
<rect x="124" y="14" width="6" height="29" fill="#8972FF"/>
<rect x="150" y="10" width="6" height="33" fill="#0068E6"/>
<rect x="162" y="14" width="6" height="29" fill="#16A3E9"/>
<rect x="174" y="23" width="6" height="20" fill="#8972FF"/>
<rect x="200" y="16" width="6" height="27" fill="#0068E6"/>
<rect x="212" y="26" width="6" height="17" fill="#16A3E9"/>
<rect x="224" y="5" width="6" height="38" fill="#8972FF"/>
<rect x="250" y="12" width="6" height="31" fill="#0068E6"/>
<rect x="262" y="33" width="6" height="10" fill="#16A3E9"/>
<rect x="274" y="24" width="6" height="19" fill="#8972FF"/>
<path d="M64.7063 52.985C64.7063 53.6963 64.6293 54.316 64.4753 54.844C64.3213 55.3647 64.1123 55.7973 63.8483 56.142C63.5843 56.4867 63.2726 56.7433 62.9133 56.912C62.5539 57.0733 62.1653 57.154 61.7473 57.154C61.3293 57.154 60.9406 57.0733 60.5813 56.912C60.2219 56.7433 59.9066 56.4867 59.6353 56.142C59.3713 55.7973 59.1623 55.3647 59.0083 54.844C58.8616 54.316 58.7883 53.6963 58.7883 52.985C58.7883 52.2663 58.8616 51.6467 59.0083 51.126C59.1623 50.598 59.3713 50.1617 59.6353 49.817C59.9066 49.4723 60.2219 49.2193 60.5813 49.058C60.9406 48.8893 61.3293 48.805 61.7473 48.805C62.1653 48.805 62.5539 48.8893 62.9133 49.058C63.2726 49.2193 63.5843 49.4723 63.8483 49.817C64.1123 50.1617 64.3213 50.598 64.4753 51.126C64.6293 51.6467 64.7063 52.2663 64.7063 52.985ZM63.6943 52.985C63.6943 52.3543 63.6393 51.8263 63.5293 51.401C63.4266 50.9683 63.2836 50.6237 63.1003 50.367C62.9243 50.103 62.7189 49.916 62.4843 49.806C62.2496 49.6887 62.0039 49.63 61.7473 49.63C61.4906 49.63 61.2449 49.6887 61.0103 49.806C60.7756 49.916 60.5703 50.103 60.3943 50.367C60.2183 50.6237 60.0753 50.9683 59.9653 51.401C59.8626 51.8263 59.8113 52.3543 59.8113 52.985C59.8113 53.6083 59.8626 54.1363 59.9653 54.569C60.0753 54.9943 60.2183 55.339 60.3943 55.603C60.5703 55.867 60.7756 56.0577 61.0103 56.175C61.2449 56.285 61.4906 56.34 61.7473 56.34C62.0039 56.34 62.2496 56.285 62.4843 56.175C62.7189 56.0577 62.9243 55.867 63.1003 55.603C63.2836 55.339 63.4266 54.9943 63.5293 54.569C63.6393 54.1363 63.6943 53.6083 63.6943 52.985ZM67.651 51.94C67.5557 52.072 67.475 52.182 67.409 52.27C67.3503 52.358 67.3027 52.424 67.266 52.468C67.464 52.336 67.6767 52.2333 67.904 52.16C68.1313 52.0867 68.3807 52.05 68.652 52.05C68.982 52.05 69.2937 52.105 69.587 52.215C69.8803 52.3177 70.137 52.4753 70.357 52.688C70.577 52.8933 70.7493 53.1463 70.874 53.447C71.006 53.7477 71.072 54.0923 71.072 54.481C71.072 54.855 71.0023 55.2033 70.863 55.526C70.731 55.8487 70.5403 56.131 70.291 56.373C70.049 56.615 69.7557 56.8057 69.411 56.945C69.0663 57.077 68.6887 57.143 68.278 57.143C67.8673 57.143 67.4933 57.077 67.156 56.945C66.826 56.813 66.5437 56.626 66.309 56.384C66.0743 56.142 65.891 55.8523 65.759 55.515C65.6343 55.1703 65.572 54.789 65.572 54.371C65.572 54.0117 65.649 53.6303 65.803 53.227C65.9643 52.8163 66.221 52.38 66.573 51.918L68.817 48.893H70.082L67.651 51.94ZM68.256 56.296C68.52 56.296 68.762 56.252 68.982 56.164C69.2093 56.076 69.4 55.955 69.554 55.801C69.7153 55.647 69.84 55.4637 69.928 55.251C70.016 55.0383 70.06 54.8073 70.06 54.558C70.06 54.294 70.016 54.0557 69.928 53.843C69.84 53.623 69.719 53.4397 69.565 53.293C69.411 53.1463 69.2277 53.0327 69.015 52.952C68.8023 52.8713 68.5713 52.831 68.322 52.831C68.0507 52.831 67.805 52.8787 67.585 52.974C67.3723 53.062 67.189 53.1867 67.035 53.348C66.881 53.502 66.76 53.6817 66.672 53.887C66.5913 54.0923 66.551 54.3087 66.551 54.536C66.551 55.064 66.6977 55.4893 66.991 55.812C67.2843 56.1347 67.706 56.296 68.256 56.296Z" fill="black" fill-opacity="0.6"/>
<path d="M114.706 52.985C114.706 53.6963 114.629 54.316 114.475 54.844C114.321 55.3647 114.112 55.7973 113.848 56.142C113.584 56.4867 113.273 56.7433 112.913 56.912C112.554 57.0733 112.165 57.154 111.747 57.154C111.329 57.154 110.941 57.0733 110.581 56.912C110.222 56.7433 109.907 56.4867 109.635 56.142C109.371 55.7973 109.162 55.3647 109.008 54.844C108.862 54.316 108.788 53.6963 108.788 52.985C108.788 52.2663 108.862 51.6467 109.008 51.126C109.162 50.598 109.371 50.1617 109.635 49.817C109.907 49.4723 110.222 49.2193 110.581 49.058C110.941 48.8893 111.329 48.805 111.747 48.805C112.165 48.805 112.554 48.8893 112.913 49.058C113.273 49.2193 113.584 49.4723 113.848 49.817C114.112 50.1617 114.321 50.598 114.475 51.126C114.629 51.6467 114.706 52.2663 114.706 52.985ZM113.694 52.985C113.694 52.3543 113.639 51.8263 113.529 51.401C113.427 50.9683 113.284 50.6237 113.1 50.367C112.924 50.103 112.719 49.916 112.484 49.806C112.25 49.6887 112.004 49.63 111.747 49.63C111.491 49.63 111.245 49.6887 111.01 49.806C110.776 49.916 110.57 50.103 110.394 50.367C110.218 50.6237 110.075 50.9683 109.965 51.401C109.863 51.8263 109.811 52.3543 109.811 52.985C109.811 53.6083 109.863 54.1363 109.965 54.569C110.075 54.9943 110.218 55.339 110.394 55.603C110.57 55.867 110.776 56.0577 111.01 56.175C111.245 56.285 111.491 56.34 111.747 56.34C112.004 56.34 112.25 56.285 112.484 56.175C112.719 56.0577 112.924 55.867 113.1 55.603C113.284 55.339 113.427 54.9943 113.529 54.569C113.639 54.1363 113.694 53.6083 113.694 52.985ZM121.061 49.586L117.42 57H116.309L119.598 50.411L119.972 49.795H115.759V48.937H121.061V49.586Z" fill="black" fill-opacity="0.6"/>
<path d="M164.706 52.985C164.706 53.6963 164.629 54.316 164.475 54.844C164.321 55.3647 164.112 55.7973 163.848 56.142C163.584 56.4867 163.273 56.7433 162.913 56.912C162.554 57.0733 162.165 57.154 161.747 57.154C161.329 57.154 160.941 57.0733 160.581 56.912C160.222 56.7433 159.907 56.4867 159.635 56.142C159.371 55.7973 159.162 55.3647 159.008 54.844C158.862 54.316 158.788 53.6963 158.788 52.985C158.788 52.2663 158.862 51.6467 159.008 51.126C159.162 50.598 159.371 50.1617 159.635 49.817C159.907 49.4723 160.222 49.2193 160.581 49.058C160.941 48.8893 161.329 48.805 161.747 48.805C162.165 48.805 162.554 48.8893 162.913 49.058C163.273 49.2193 163.584 49.4723 163.848 49.817C164.112 50.1617 164.321 50.598 164.475 51.126C164.629 51.6467 164.706 52.2663 164.706 52.985ZM163.694 52.985C163.694 52.3543 163.639 51.8263 163.529 51.401C163.427 50.9683 163.284 50.6237 163.1 50.367C162.924 50.103 162.719 49.916 162.484 49.806C162.25 49.6887 162.004 49.63 161.747 49.63C161.491 49.63 161.245 49.6887 161.01 49.806C160.776 49.916 160.57 50.103 160.394 50.367C160.218 50.6237 160.075 50.9683 159.965 51.401C159.863 51.8263 159.811 52.3543 159.811 52.985C159.811 53.6083 159.863 54.1363 159.965 54.569C160.075 54.9943 160.218 55.339 160.394 55.603C160.57 55.867 160.776 56.0577 161.01 56.175C161.245 56.285 161.491 56.34 161.747 56.34C162.004 56.34 162.25 56.285 162.484 56.175C162.719 56.0577 162.924 55.867 163.1 55.603C163.284 55.339 163.427 54.9943 163.529 54.569C163.639 54.1363 163.694 53.6083 163.694 52.985ZM169.455 52.798C169.968 52.9373 170.361 53.1793 170.632 53.524C170.911 53.8687 171.05 54.305 171.05 54.833C171.05 55.1923 170.98 55.5187 170.841 55.812C170.709 56.098 170.518 56.3437 170.269 56.549C170.027 56.7543 169.737 56.912 169.4 57.022C169.063 57.132 168.689 57.187 168.278 57.187C167.867 57.187 167.49 57.132 167.145 57.022C166.8 56.912 166.503 56.7543 166.254 56.549C166.012 56.3437 165.821 56.098 165.682 55.812C165.55 55.5187 165.484 55.1923 165.484 54.833C165.484 54.305 165.623 53.8687 165.902 53.524C166.181 53.1793 166.573 52.9373 167.079 52.798C166.661 52.6367 166.338 52.3983 166.111 52.083C165.891 51.7603 165.781 51.368 165.781 50.906C165.781 50.6053 165.84 50.3267 165.957 50.07C166.074 49.806 166.239 49.575 166.452 49.377C166.672 49.179 166.936 49.025 167.244 48.915C167.552 48.7977 167.897 48.739 168.278 48.739C168.645 48.739 168.982 48.7977 169.29 48.915C169.598 49.025 169.862 49.179 170.082 49.377C170.302 49.575 170.471 49.806 170.588 50.07C170.713 50.3267 170.775 50.6053 170.775 50.906C170.775 51.8447 170.335 52.4753 169.455 52.798ZM168.278 49.542C168.029 49.542 167.809 49.5787 167.618 49.652C167.427 49.7253 167.27 49.8243 167.145 49.949C167.028 50.0737 166.936 50.224 166.87 50.4C166.811 50.5687 166.782 50.7483 166.782 50.939C166.782 51.1223 166.808 51.302 166.859 51.478C166.91 51.654 166.995 51.8117 167.112 51.951C167.229 52.0903 167.383 52.204 167.574 52.292C167.765 52.3727 167.999 52.413 168.278 52.413C168.549 52.413 168.777 52.3727 168.96 52.292C169.151 52.204 169.305 52.0903 169.422 51.951C169.539 51.8117 169.624 51.654 169.675 51.478C169.726 51.302 169.752 51.1223 169.752 50.939C169.752 50.7483 169.719 50.5687 169.653 50.4C169.594 50.224 169.503 50.0737 169.378 49.949C169.261 49.8243 169.11 49.7253 168.927 49.652C168.744 49.5787 168.527 49.542 168.278 49.542ZM168.278 56.362C168.828 56.362 169.25 56.2227 169.543 55.944C169.836 55.658 169.983 55.284 169.983 54.822C169.983 54.536 169.935 54.294 169.84 54.096C169.752 53.8907 169.627 53.7257 169.466 53.601C169.312 53.469 169.132 53.3737 168.927 53.315C168.722 53.249 168.505 53.216 168.278 53.216C168.051 53.216 167.831 53.249 167.618 53.315C167.413 53.3737 167.229 53.469 167.068 53.601C166.907 53.7257 166.778 53.8907 166.683 54.096C166.595 54.294 166.551 54.536 166.551 54.822C166.551 55.284 166.701 55.658 167.002 55.944C167.303 56.2227 167.728 56.362 168.278 56.362Z" fill="black" fill-opacity="0.6"/>
<path d="M214.706 52.985C214.706 53.6963 214.629 54.316 214.475 54.844C214.321 55.3647 214.112 55.7973 213.848 56.142C213.584 56.4867 213.273 56.7433 212.913 56.912C212.554 57.0733 212.165 57.154 211.747 57.154C211.329 57.154 210.941 57.0733 210.581 56.912C210.222 56.7433 209.907 56.4867 209.635 56.142C209.371 55.7973 209.162 55.3647 209.008 54.844C208.862 54.316 208.788 53.6963 208.788 52.985C208.788 52.2663 208.862 51.6467 209.008 51.126C209.162 50.598 209.371 50.1617 209.635 49.817C209.907 49.4723 210.222 49.2193 210.581 49.058C210.941 48.8893 211.329 48.805 211.747 48.805C212.165 48.805 212.554 48.8893 212.913 49.058C213.273 49.2193 213.584 49.4723 213.848 49.817C214.112 50.1617 214.321 50.598 214.475 51.126C214.629 51.6467 214.706 52.2663 214.706 52.985ZM213.694 52.985C213.694 52.3543 213.639 51.8263 213.529 51.401C213.427 50.9683 213.284 50.6237 213.1 50.367C212.924 50.103 212.719 49.916 212.484 49.806C212.25 49.6887 212.004 49.63 211.747 49.63C211.491 49.63 211.245 49.6887 211.01 49.806C210.776 49.916 210.57 50.103 210.394 50.367C210.218 50.6237 210.075 50.9683 209.965 51.401C209.863 51.8263 209.811 52.3543 209.811 52.985C209.811 53.6083 209.863 54.1363 209.965 54.569C210.075 54.9943 210.218 55.339 210.394 55.603C210.57 55.867 210.776 56.0577 211.01 56.175C211.245 56.285 211.491 56.34 211.747 56.34C212.004 56.34 212.25 56.285 212.484 56.175C212.719 56.0577 212.924 55.867 213.1 55.603C213.284 55.339 213.427 54.9943 213.529 54.569C213.639 54.1363 213.694 53.6083 213.694 52.985ZM219.015 53.799C219.132 53.645 219.224 53.5167 219.29 53.414C219.363 53.3113 219.418 53.2343 219.455 53.183C219.022 53.5277 218.505 53.7 217.904 53.7C217.589 53.7 217.288 53.6487 217.002 53.546C216.723 53.4433 216.478 53.293 216.265 53.095C216.06 52.8897 215.895 52.6403 215.77 52.347C215.645 52.0537 215.583 51.7163 215.583 51.335C215.583 50.9757 215.649 50.6383 215.781 50.323C215.92 50.0077 216.111 49.7327 216.353 49.498C216.595 49.2633 216.881 49.08 217.211 48.948C217.548 48.8087 217.919 48.739 218.322 48.739C218.718 48.739 219.077 48.805 219.4 48.937C219.723 49.069 219.998 49.2523 220.225 49.487C220.46 49.7217 220.639 50.004 220.764 50.334C220.889 50.6567 220.951 51.016 220.951 51.412C220.951 51.8887 220.867 52.325 220.698 52.721C220.529 53.117 220.291 53.5277 219.983 53.953L217.772 57H216.507L219.015 53.799ZM216.606 51.258C216.606 51.7933 216.749 52.204 217.035 52.49C217.328 52.7687 217.728 52.908 218.234 52.908C218.513 52.908 218.758 52.864 218.971 52.776C219.184 52.688 219.363 52.5707 219.51 52.424C219.664 52.27 219.778 52.0977 219.851 51.907C219.932 51.709 219.972 51.5037 219.972 51.291C219.972 51.027 219.928 50.7923 219.84 50.587C219.759 50.3743 219.646 50.1983 219.499 50.059C219.352 49.9123 219.176 49.8023 218.971 49.729C218.766 49.6483 218.546 49.608 218.311 49.608C217.798 49.608 217.383 49.762 217.068 50.07C216.76 50.3707 216.606 50.7667 216.606 51.258Z" fill="black" fill-opacity="0.6"/>
<path d="M264.233 57H259.877V56.186H261.67V50.224C261.67 50.18 261.674 50.1397 261.681 50.103L260.218 51.412L259.679 50.763L261.846 48.893H262.649V56.186H264.233V57ZM271.259 52.985C271.259 53.6963 271.182 54.316 271.028 54.844C270.874 55.3647 270.665 55.7973 270.401 56.142C270.137 56.4867 269.825 56.7433 269.466 56.912C269.107 57.0733 268.718 57.154 268.3 57.154C267.882 57.154 267.493 57.0733 267.134 56.912C266.775 56.7433 266.459 56.4867 266.188 56.142C265.924 55.7973 265.715 55.3647 265.561 54.844C265.414 54.316 265.341 53.6963 265.341 52.985C265.341 52.2663 265.414 51.6467 265.561 51.126C265.715 50.598 265.924 50.1617 266.188 49.817C266.459 49.4723 266.775 49.2193 267.134 49.058C267.493 48.8893 267.882 48.805 268.3 48.805C268.718 48.805 269.107 48.8893 269.466 49.058C269.825 49.2193 270.137 49.4723 270.401 49.817C270.665 50.1617 270.874 50.598 271.028 51.126C271.182 51.6467 271.259 52.2663 271.259 52.985ZM270.247 52.985C270.247 52.3543 270.192 51.8263 270.082 51.401C269.979 50.9683 269.836 50.6237 269.653 50.367C269.477 50.103 269.272 49.916 269.037 49.806C268.802 49.6887 268.557 49.63 268.3 49.63C268.043 49.63 267.798 49.6887 267.563 49.806C267.328 49.916 267.123 50.103 266.947 50.367C266.771 50.6237 266.628 50.9683 266.518 51.401C266.415 51.8263 266.364 52.3543 266.364 52.985C266.364 53.6083 266.415 54.1363 266.518 54.569C266.628 54.9943 266.771 55.339 266.947 55.603C267.123 55.867 267.328 56.0577 267.563 56.175C267.798 56.285 268.043 56.34 268.3 56.34C268.557 56.34 268.802 56.285 269.037 56.175C269.272 56.0577 269.477 55.867 269.653 55.603C269.836 55.339 269.979 54.9943 270.082 54.569C270.192 54.1363 270.247 53.6083 270.247 52.985Z" fill="black" fill-opacity="0.6"/>
<rect x="4.5" y="70" width="10" height="10" fill="black" fill-opacity="0.6"/>
<path d="M22.007 71.674V70.937H28.959V72.026C28.959 72.3413 28.9553 72.6603 28.948 72.983C28.948 73.3057 28.937 73.6467 28.915 74.006C28.893 74.358 28.8563 74.732 28.805 75.128C28.761 75.524 28.695 75.953 28.607 76.415L27.716 76.305C27.8553 75.5643 27.947 74.853 27.991 74.171C28.035 73.489 28.057 72.774 28.057 72.026V71.674H22.007ZM30.004 78.428H21.083V77.691H23.272V74.424H24.163V77.691H25.714V74.424H26.605V77.691H30.004V78.428ZM40.1231 75.898H31.1911V75.172H35.2061V74.204H32.3681V70.233H39.0231V70.937H33.2701V71.85H38.7591V72.532H33.2701V73.5H39.0781V74.204H36.1081V75.172H40.1231V75.898ZM35.6571 76.646C36.7571 76.646 37.5931 76.7817 38.1651 77.053C38.7445 77.317 39.0341 77.7057 39.0341 78.219C39.0341 78.747 38.7445 79.143 38.1651 79.407C37.5931 79.671 36.7571 79.803 35.6571 79.803C34.5571 79.803 33.7175 79.671 33.1381 79.407C32.5661 79.143 32.2801 78.747 32.2801 78.219C32.2801 77.7057 32.5661 77.317 33.1381 77.053C33.7175 76.7817 34.5571 76.646 35.6571 76.646ZM35.6571 79.121C36.4565 79.121 37.0688 79.0477 37.4941 78.901C37.9195 78.7543 38.1321 78.527 38.1321 78.219C38.1321 77.9257 37.9195 77.702 37.4941 77.548C37.0688 77.394 36.4565 77.317 35.6571 77.317C34.8578 77.317 34.2455 77.394 33.8201 77.548C33.3948 77.702 33.1821 77.9257 33.1821 78.219C33.1821 78.527 33.3948 78.7543 33.8201 78.901C34.2455 79.0477 34.8578 79.121 35.6571 79.121ZM48.9773 73.566H50.4403V74.314H48.9773V75.92H48.0753V69.958H48.9773V71.487H50.4403V72.235H48.9773V73.566ZM47.2173 75.018C46.8286 75.084 46.4509 75.139 46.0843 75.183C45.7176 75.2197 45.3473 75.2527 44.9733 75.282C44.5993 75.304 44.2106 75.3187 43.8073 75.326C43.4113 75.3333 42.9859 75.337 42.5313 75.337H41.7503V72.543H45.2813V71.3H41.7283V70.563H46.1723V73.236H42.6413V74.6C43.0739 74.6 43.4809 74.5963 43.8623 74.589C44.2436 74.5817 44.6139 74.567 44.9733 74.545C45.3326 74.5157 45.6883 74.4827 46.0403 74.446C46.3923 74.402 46.7553 74.347 47.1293 74.281L47.2173 75.018ZM45.8313 76.206C46.3299 76.206 46.7773 76.2463 47.1733 76.327C47.5766 76.4077 47.9176 76.525 48.1963 76.679C48.4823 76.833 48.6986 77.0237 48.8453 77.251C48.9993 77.471 49.0763 77.724 49.0763 78.01C49.0763 78.296 48.9993 78.5527 48.8453 78.78C48.6986 79 48.4823 79.1833 48.1963 79.33C47.9176 79.484 47.5766 79.6013 47.1733 79.682C46.7773 79.7627 46.3299 79.803 45.8313 79.803C45.3253 79.803 44.8706 79.7627 44.4673 79.682C44.0713 79.6013 43.7339 79.484 43.4553 79.33C43.1766 79.1833 42.9603 79 42.8063 78.78C42.6596 78.5527 42.5863 78.296 42.5863 78.01C42.5863 77.724 42.6596 77.471 42.8063 77.251C42.9603 77.0237 43.1766 76.833 43.4553 76.679C43.7339 76.525 44.0713 76.4077 44.4673 76.327C44.8706 76.2463 45.3253 76.206 45.8313 76.206ZM45.8313 79.11C46.5866 79.11 47.1659 79.0147 47.5693 78.824C47.9799 78.6333 48.1853 78.362 48.1853 78.01C48.1853 77.658 47.9799 77.3867 47.5693 77.196C47.1659 77.0053 46.5866 76.91 45.8313 76.91C45.0759 76.91 44.4929 77.0053 44.0823 77.196C43.6716 77.3867 43.4663 77.658 43.4663 78.01C43.4663 78.362 43.6716 78.6333 44.0823 78.824C44.4929 79.0147 45.0759 79.11 45.8313 79.11Z" fill="black" fill-opacity="0.87"/>
<rect x="65.5" y="74" width="10" height="2" fill="black" fill-opacity="0.6"/>
<path d="M91.004 75.898H82.072V75.172H86.087V74.204H83.249V70.233H89.904V70.937H84.151V71.85H89.64V72.532H84.151V73.5H89.959V74.204H86.989V75.172H91.004V75.898ZM86.538 76.646C87.638 76.646 88.474 76.7817 89.046 77.053C89.6253 77.317 89.915 77.7057 89.915 78.219C89.915 78.747 89.6253 79.143 89.046 79.407C88.474 79.671 87.638 79.803 86.538 79.803C85.438 79.803 84.5983 79.671 84.019 79.407C83.447 79.143 83.161 78.747 83.161 78.219C83.161 77.7057 83.447 77.317 84.019 77.053C84.5983 76.7817 85.438 76.646 86.538 76.646ZM86.538 79.121C87.3373 79.121 87.9497 79.0477 88.375 78.901C88.8003 78.7543 89.013 78.527 89.013 78.219C89.013 77.9257 88.8003 77.702 88.375 77.548C87.9497 77.394 87.3373 77.317 86.538 77.317C85.7387 77.317 85.1263 77.394 84.701 77.548C84.2757 77.702 84.063 77.9257 84.063 78.219C84.063 78.527 84.2757 78.7543 84.701 78.901C85.1263 79.0477 85.7387 79.121 86.538 79.121ZM97.5481 75.843V70.145H98.4061V72.631H99.6601V69.947H100.529V76.195H99.6601V73.368H98.4061V75.843H97.5481ZM92.1471 71.839V71.124H94.2151V70.024H95.1061V71.124H97.1631V71.839H92.1471ZM96.7671 74.039C96.7671 74.2957 96.7158 74.5303 96.6131 74.743C96.5105 74.9483 96.3675 75.1243 96.1841 75.271C96.0008 75.4177 95.7771 75.5313 95.5131 75.612C95.2565 75.6927 94.9741 75.733 94.6661 75.733C94.3581 75.733 94.0721 75.6927 93.8081 75.612C93.5515 75.5313 93.3278 75.4177 93.1371 75.271C92.9538 75.1243 92.8108 74.9483 92.7081 74.743C92.6055 74.5303 92.5541 74.2957 92.5541 74.039C92.5541 73.7823 92.6055 73.5513 92.7081 73.346C92.8108 73.1407 92.9538 72.9647 93.1371 72.818C93.3278 72.6713 93.5515 72.5577 93.8081 72.477C94.0721 72.3963 94.3581 72.356 94.6661 72.356C94.9741 72.356 95.2565 72.3963 95.5131 72.477C95.7771 72.5577 96.0008 72.6713 96.1841 72.818C96.3675 72.9647 96.5105 73.1407 96.6131 73.346C96.7158 73.5513 96.7671 73.7823 96.7671 74.039ZM93.3681 74.039C93.3681 74.347 93.4855 74.5963 93.7201 74.787C93.9548 74.9703 94.2701 75.062 94.6661 75.062C95.0621 75.062 95.3775 74.9703 95.6121 74.787C95.8468 74.5963 95.9641 74.347 95.9641 74.039C95.9641 73.731 95.8468 73.4853 95.6121 73.302C95.3775 73.1187 95.0621 73.027 94.6661 73.027C94.2701 73.027 93.9548 73.1187 93.7201 73.302C93.4855 73.4853 93.3681 73.731 93.3681 74.039ZM97.2841 76.36C97.7975 76.36 98.2558 76.4003 98.6591 76.481C99.0698 76.5543 99.4181 76.6643 99.7041 76.811C99.9901 76.9577 100.206 77.1373 100.353 77.35C100.507 77.5627 100.584 77.8083 100.584 78.087C100.584 78.3583 100.507 78.604 100.353 78.824C100.206 79.0367 99.9901 79.2127 99.7041 79.352C99.4181 79.4987 99.0698 79.6087 98.6591 79.682C98.2558 79.7627 97.7975 79.803 97.2841 79.803C96.7708 79.803 96.3088 79.7627 95.8981 79.682C95.4948 79.6087 95.1501 79.4987 94.8641 79.352C94.5781 79.2127 94.3581 79.0367 94.2041 78.824C94.0575 78.604 93.9841 78.3583 93.9841 78.087C93.9841 77.8083 94.0575 77.5627 94.2041 77.35C94.3581 77.1373 94.5781 76.9577 94.8641 76.811C95.1501 76.6643 95.4948 76.5543 95.8981 76.481C96.3088 76.4003 96.7708 76.36 97.2841 76.36ZM97.2841 79.11C98.0395 79.11 98.6261 79.022 99.0441 78.846C99.4695 78.67 99.6821 78.417 99.6821 78.087C99.6821 77.757 99.4695 77.504 99.0441 77.328C98.6261 77.1447 98.0395 77.053 97.2841 77.053C96.5288 77.053 95.9385 77.1447 95.5131 77.328C95.0878 77.504 94.8751 77.757 94.8751 78.087C94.8751 78.417 95.0878 78.67 95.5131 78.846C95.9385 79.022 96.5288 79.11 97.2841 79.11ZM110.362 73.918C109.988 73.852 109.618 73.7567 109.251 73.632C108.892 73.5 108.555 73.346 108.239 73.17C107.924 72.9867 107.638 72.7777 107.381 72.543C107.132 72.301 106.93 72.037 106.776 71.751C106.622 72.037 106.421 72.301 106.171 72.543C105.922 72.7777 105.64 72.9867 105.324 73.17C105.009 73.346 104.668 73.5 104.301 73.632C103.942 73.7567 103.575 73.852 103.201 73.918L102.86 73.192C103.3 73.1333 103.726 73.0233 104.136 72.862C104.554 72.7007 104.925 72.5027 105.247 72.268C105.57 72.0333 105.827 71.7693 106.017 71.476C106.215 71.1827 106.314 70.871 106.314 70.541V70.101H107.238V70.541C107.238 70.871 107.334 71.1827 107.524 71.476C107.722 71.7693 107.983 72.0333 108.305 72.268C108.635 72.5027 109.006 72.7007 109.416 72.862C109.834 73.0233 110.263 73.1333 110.703 73.192L110.362 73.918ZM111.275 75.634H102.321V74.897H106.325V73.401H107.227V74.897H111.275V75.634ZM110.142 76.591V79.825H109.24V77.328H103.311V76.591H110.142ZM121.394 78.571H112.429V77.823H116.444V75.293H113.573V70.739H120.261V71.476H114.475V74.567H120.36V75.293H117.357V77.823H121.394V78.571Z" fill="black" fill-opacity="0.87"/>
<rect x="136.5" y="70" width="10" height="10" fill="#0068E6"/>
<path d="M160.299 69.958H161.212V77.185H160.299V73.412H158.319V72.675H160.299V69.958ZM158.451 75.7C157.901 75.502 157.421 75.2087 157.01 74.82C156.599 74.424 156.288 73.973 156.075 73.467C155.862 74.039 155.54 74.5377 155.107 74.963C154.674 75.3883 154.168 75.7073 153.589 75.92L153.116 75.216C153.483 75.084 153.816 74.908 154.117 74.688C154.425 74.4607 154.689 74.2077 154.909 73.929C155.129 73.643 155.298 73.335 155.415 73.005C155.54 72.675 155.602 72.334 155.602 71.982V71.487H153.402V70.75H158.671V71.487H156.504V71.971C156.504 72.2863 156.563 72.6017 156.68 72.917C156.797 73.225 156.959 73.5147 157.164 73.786C157.377 74.05 157.63 74.2883 157.923 74.501C158.216 74.7063 158.543 74.8713 158.902 74.996L158.451 75.7ZM161.487 79.594H154.898V76.547H155.811V78.857H161.487V79.594ZM170.396 75.007V69.947H171.298V75.007H170.396ZM168.526 72.499C168.526 72.8217 168.46 73.1187 168.328 73.39C168.203 73.654 168.027 73.8813 167.8 74.072C167.573 74.2627 167.301 74.413 166.986 74.523C166.678 74.6257 166.341 74.677 165.974 74.677C165.607 74.677 165.266 74.6257 164.951 74.523C164.643 74.413 164.375 74.2627 164.148 74.072C163.928 73.8813 163.752 73.654 163.62 73.39C163.495 73.1187 163.433 72.8217 163.433 72.499C163.433 72.169 163.495 71.872 163.62 71.608C163.752 71.3367 163.928 71.1057 164.148 70.915C164.375 70.717 164.643 70.5667 164.951 70.464C165.266 70.354 165.607 70.299 165.974 70.299C166.341 70.299 166.678 70.354 166.986 70.464C167.301 70.5667 167.573 70.717 167.8 70.915C168.027 71.1057 168.203 71.3367 168.328 71.608C168.46 71.872 168.526 72.169 168.526 72.499ZM164.302 72.499C164.302 72.7043 164.342 72.8987 164.423 73.082C164.511 73.258 164.628 73.412 164.775 73.544C164.929 73.6687 165.105 73.7677 165.303 73.841C165.508 73.9143 165.732 73.951 165.974 73.951C166.216 73.951 166.44 73.9143 166.645 73.841C166.85 73.7677 167.026 73.6687 167.173 73.544C167.32 73.412 167.433 73.258 167.514 73.082C167.602 72.8987 167.646 72.7043 167.646 72.499C167.646 72.2863 167.602 72.092 167.514 71.916C167.433 71.7327 167.32 71.5787 167.173 71.454C167.026 71.322 166.85 71.2193 166.645 71.146C166.44 71.0727 166.216 71.036 165.974 71.036C165.732 71.036 165.508 71.0727 165.303 71.146C165.105 71.2193 164.929 71.322 164.775 71.454C164.628 71.5787 164.511 71.7327 164.423 71.916C164.342 72.092 164.302 72.2863 164.302 72.499ZM171.628 79.682H164.929V77.207H170.407V76.206H164.907V75.491H171.298V77.878H165.82V78.967H171.628V79.682Z" fill="black" fill-opacity="0.87"/>
<rect x="187.5" y="70" width="10" height="10" fill="#16A3E9"/>
<path d="M204.105 71.883V71.157H206.459V69.947H207.361V71.157H209.627V71.883H204.105ZM211.299 69.958H212.212V77.471H211.299V75.381H209.627V74.644H211.299V73.313H209.627V72.576H211.299V69.958ZM209.132 74.303C209.132 74.589 209.077 74.8493 208.967 75.084C208.857 75.3113 208.703 75.5093 208.505 75.678C208.307 75.8393 208.072 75.9677 207.801 76.063C207.53 76.151 207.229 76.195 206.899 76.195C206.569 76.195 206.268 76.151 205.997 76.063C205.726 75.9677 205.491 75.8393 205.293 75.678C205.095 75.5093 204.941 75.3113 204.831 75.084C204.721 74.8493 204.666 74.589 204.666 74.303C204.666 74.0243 204.721 73.7713 204.831 73.544C204.941 73.3093 205.095 73.1113 205.293 72.95C205.491 72.7813 205.726 72.653 205.997 72.565C206.268 72.477 206.569 72.433 206.899 72.433C207.229 72.433 207.53 72.477 207.801 72.565C208.072 72.653 208.307 72.7813 208.505 72.95C208.703 73.1113 208.857 73.3093 208.967 73.544C209.077 73.7713 209.132 74.0243 209.132 74.303ZM205.524 74.303C205.524 74.655 205.649 74.941 205.898 75.161C206.147 75.381 206.481 75.491 206.899 75.491C207.317 75.491 207.651 75.381 207.9 75.161C208.149 74.941 208.274 74.655 208.274 74.303C208.274 73.951 208.149 73.6687 207.9 73.456C207.651 73.2433 207.317 73.137 206.899 73.137C206.481 73.137 206.147 73.2433 205.898 73.456C205.649 73.6687 205.524 73.951 205.524 74.303ZM212.443 79.594H205.865V76.833H206.767V78.857H212.443V79.594ZM222.617 79.814H221.748V74.677H220.45V79.33H219.603V70.167H220.45V73.929H221.748V69.936H222.617V79.814ZM217.117 72.62C217.117 73.0747 217.161 73.511 217.249 73.929C217.337 74.347 217.469 74.7357 217.645 75.095C217.821 75.447 218.041 75.766 218.305 76.052C218.569 76.3307 218.877 76.5617 219.229 76.745L218.701 77.438C218.217 77.1667 217.806 76.8037 217.469 76.349C217.132 75.8943 216.875 75.37 216.699 74.776C216.354 76.162 215.672 77.163 214.653 77.779L214.103 77.097C214.455 76.899 214.763 76.6497 215.027 76.349C215.298 76.041 215.522 75.6963 215.698 75.315C215.881 74.9263 216.017 74.5047 216.105 74.05C216.2 73.5953 216.248 73.1187 216.248 72.62V71.85H214.334V71.113H218.91V71.85H217.117V72.62Z" fill="black" fill-opacity="0.87"/>
<rect x="238.5" y="70" width="10" height="10" fill="#8972FF"/>
<path d="M262.299 69.958H263.212V77.185H262.299V73.412H260.319V72.675H262.299V69.958ZM260.451 75.7C259.901 75.502 259.421 75.2087 259.01 74.82C258.599 74.424 258.288 73.973 258.075 73.467C257.862 74.039 257.54 74.5377 257.107 74.963C256.674 75.3883 256.168 75.7073 255.589 75.92L255.116 75.216C255.483 75.084 255.816 74.908 256.117 74.688C256.425 74.4607 256.689 74.2077 256.909 73.929C257.129 73.643 257.298 73.335 257.415 73.005C257.54 72.675 257.602 72.334 257.602 71.982V71.487H255.402V70.75H260.671V71.487H258.504V71.971C258.504 72.2863 258.563 72.6017 258.68 72.917C258.797 73.225 258.959 73.5147 259.164 73.786C259.377 74.05 259.63 74.2883 259.923 74.501C260.216 74.7063 260.543 74.8713 260.902 74.996L260.451 75.7ZM263.487 79.594H256.898V76.547H257.811V78.857H263.487V79.594ZM265.741 74.028C266.174 73.962 266.592 73.8483 266.995 73.687C267.406 73.5183 267.772 73.3167 268.095 73.082C268.418 72.84 268.674 72.5723 268.865 72.279C269.063 71.9783 269.162 71.6667 269.162 71.344V71.289H266.049V70.563H273.254V71.289H270.163V71.344C270.163 71.6667 270.258 71.9783 270.449 72.279C270.647 72.5723 270.907 72.84 271.23 73.082C271.553 73.3167 271.919 73.5183 272.33 73.687C272.748 73.8483 273.173 73.962 273.606 74.028L273.254 74.743C272.873 74.677 272.499 74.578 272.132 74.446C271.765 74.314 271.424 74.1527 271.109 73.962C270.794 73.764 270.511 73.544 270.262 73.302C270.013 73.0527 269.815 72.7813 269.668 72.488C269.514 72.7813 269.312 73.0527 269.063 73.302C268.814 73.544 268.531 73.764 268.216 73.962C267.908 74.1527 267.571 74.314 267.204 74.446C266.845 74.578 266.471 74.677 266.082 74.743L265.741 74.028ZM270.097 76.305V79.814H269.195V76.305H265.213V75.568H274.123L274.134 76.305H270.097Z" fill="black" fill-opacity="0.87"/>
</svg>
