<svg width="285" height="79" viewBox="0 0 285 79" fill="none" xmlns="http://www.w3.org/2000/svg">
<path d="M5.93834 17V16.186H4.35434V8.893H3.55134L1.38434 10.763L1.92334 11.412L3.38634 10.103C3.37534 10.18 3.37534 10.279 3.37534 10.378V16.186H1.58234V17H5.93834ZM12.9641 12.985C12.9641 10.114 11.6661 8.805 10.0051 8.805C8.33308 8.805 7.04608 10.114 7.04608 12.985C7.04608 15.845 8.33308 17.154 10.0051 17.154C11.6661 17.154 12.9641 15.845 12.9641 12.985ZM11.9521 12.985C11.9521 15.493 11.0281 16.34 10.0051 16.34C8.98208 16.34 8.06908 15.493 8.06908 12.985C8.06908 10.466 8.98208 9.63 10.0051 9.63C11.0281 9.63 11.9521 10.466 11.9521 12.985ZM14.8748 15.603H13.8738L13.4778 17.825H14.2038L14.8748 15.603ZM21.6008 12.985C21.6008 10.114 20.3028 8.805 18.6418 8.805C16.9698 8.805 15.6828 10.114 15.6828 12.985C15.6828 15.845 16.9698 17.154 18.6418 17.154C20.3028 17.154 21.6008 15.845 21.6008 12.985ZM20.5888 12.985C20.5888 15.493 19.6648 16.34 18.6418 16.34C17.6188 16.34 16.7058 15.493 16.7058 12.985C16.7058 10.466 17.6188 9.63 18.6418 9.63C19.6648 9.63 20.5888 10.466 20.5888 12.985ZM28.1535 12.985C28.1535 10.114 26.8555 8.805 25.1945 8.805C23.5225 8.805 22.2355 10.114 22.2355 12.985C22.2355 15.845 23.5225 17.154 25.1945 17.154C26.8555 17.154 28.1535 15.845 28.1535 12.985ZM27.1415 12.985C27.1415 15.493 26.2175 16.34 25.1945 16.34C24.1715 16.34 23.2585 15.493 23.2585 12.985C23.2585 10.466 24.1715 9.63 25.1945 9.63C26.2175 9.63 27.1415 10.466 27.1415 12.985ZM34.7063 12.985C34.7063 10.114 33.4083 8.805 31.7473 8.805C30.0753 8.805 28.7883 10.114 28.7883 12.985C28.7883 15.845 30.0753 17.154 31.7473 17.154C33.4083 17.154 34.7063 15.845 34.7063 12.985ZM33.6943 12.985C33.6943 15.493 32.7703 16.34 31.7473 16.34C30.7243 16.34 29.8113 15.493 29.8113 12.985C29.8113 10.466 30.7243 9.63 31.7473 9.63C32.7703 9.63 33.6943 10.466 33.6943 12.985Z" fill="white" fill-opacity="0.6"/>
<path d="M8.80608 21.94L9.16908 19.828H12.3261V18.904H8.46508L7.80508 22.721L8.45408 22.908C8.92708 22.743 9.34508 22.644 9.77408 22.644C10.9291 22.644 11.6111 23.26 11.6111 24.316C11.6111 25.504 10.8081 26.197 9.69708 26.197C9.03708 26.197 8.39908 25.9 7.91508 25.493L7.37608 26.23C7.87108 26.703 8.68508 27.099 9.65308 27.099C11.2921 27.099 12.5791 25.977 12.5791 24.261C12.5791 22.853 11.6661 21.797 9.96108 21.797C9.56508 21.797 9.18008 21.841 8.80608 21.94ZM14.8748 25.603H13.8738L13.4778 27.825H14.2038L14.8748 25.603ZM21.6008 22.985C21.6008 20.114 20.3028 18.805 18.6418 18.805C16.9698 18.805 15.6828 20.114 15.6828 22.985C15.6828 25.845 16.9698 27.154 18.6418 27.154C20.3028 27.154 21.6008 25.845 21.6008 22.985ZM20.5888 22.985C20.5888 25.493 19.6648 26.34 18.6418 26.34C17.6188 26.34 16.7058 25.493 16.7058 22.985C16.7058 20.466 17.6188 19.63 18.6418 19.63C19.6648 19.63 20.5888 20.466 20.5888 22.985ZM28.1535 22.985C28.1535 20.114 26.8555 18.805 25.1945 18.805C23.5225 18.805 22.2355 20.114 22.2355 22.985C22.2355 25.845 23.5225 27.154 25.1945 27.154C26.8555 27.154 28.1535 25.845 28.1535 22.985ZM27.1415 22.985C27.1415 25.493 26.2175 26.34 25.1945 26.34C24.1715 26.34 23.2585 25.493 23.2585 22.985C23.2585 20.466 24.1715 19.63 25.1945 19.63C26.2175 19.63 27.1415 20.466 27.1415 22.985ZM34.7063 22.985C34.7063 20.114 33.4083 18.805 31.7473 18.805C30.0753 18.805 28.7883 20.114 28.7883 22.985C28.7883 25.845 30.0753 27.154 31.7473 27.154C33.4083 27.154 34.7063 25.845 34.7063 22.985ZM33.6943 22.985C33.6943 25.493 32.7703 26.34 31.7473 26.34C30.7243 26.34 29.8113 25.493 29.8113 22.985C29.8113 20.466 30.7243 19.63 31.7473 19.63C32.7703 19.63 33.6943 20.466 33.6943 22.985Z" fill="white" fill-opacity="0.6"/>
<path d="M34.7063 32.985C34.7063 30.114 33.4083 28.805 31.7473 28.805C30.0753 28.805 28.7883 30.114 28.7883 32.985C28.7883 35.845 30.0753 37.154 31.7473 37.154C33.4083 37.154 34.7063 35.845 34.7063 32.985ZM33.6943 32.985C33.6943 35.493 32.7703 36.34 31.7473 36.34C30.7243 36.34 29.8113 35.493 29.8113 32.985C29.8113 30.466 30.7243 29.63 31.7473 29.63C32.7703 29.63 33.6943 30.466 33.6943 32.985Z" fill="white" fill-opacity="0.6"/>
<path d="M46.0332 6L102.853 22L152.704 18L202.02 12.5L251.871 8.5L284.033 25" stroke="#27D4FF" stroke-opacity="0.6" stroke-width="2"/>
<path d="M46.0332 22.2745L67.4746 8L115.718 14.1176L165.033 20.2353L213.276 22.7843L262.592 34L284.033 27.3726" stroke="#0068E6" stroke-opacity="0.6" stroke-width="2"/>
<path d="M46.0332 28.1429L78.7314 32.5143L129.119 26.2L178.434 32.5143L227.749 16L284.033 33" stroke="#9480FF" stroke-opacity="0.6" stroke-width="2"/>
<rect x="50" y="9" width="6" height="31" fill="#27D4FF"/>
<rect x="62" width="6" height="40" fill="#0068E6"/>
<rect x="74" y="12" width="6" height="28" fill="#8972FF"/>
<rect x="100" y="20" width="6" height="20" fill="#27D4FF"/>
<rect x="112" y="7" width="6" height="33" fill="#0068E6"/>
<rect x="124" y="11" width="6" height="29" fill="#8972FF"/>
<rect x="150" y="7" width="6" height="33" fill="#27D4FF"/>
<rect x="162" y="11" width="6" height="29" fill="#0068E6"/>
<rect x="174" y="20" width="6" height="20" fill="#8972FF"/>
<rect x="200" y="13" width="6" height="27" fill="#27D4FF"/>
<rect x="212" y="23" width="6" height="17" fill="#0068E6"/>
<rect x="224" y="2" width="6" height="38" fill="#8972FF"/>
<rect x="250" y="9" width="6" height="31" fill="#27D4FF"/>
<rect x="262" y="30" width="6" height="10" fill="#0068E6"/>
<rect x="274" y="21" width="6" height="19" fill="#8972FF"/>
<path d="M64.7063 49.985C64.7063 47.114 63.4083 45.805 61.7473 45.805C60.0753 45.805 58.7883 47.114 58.7883 49.985C58.7883 52.845 60.0753 54.154 61.7473 54.154C63.4083 54.154 64.7063 52.845 64.7063 49.985ZM63.6943 49.985C63.6943 52.493 62.7703 53.34 61.7473 53.34C60.7243 53.34 59.8113 52.493 59.8113 49.985C59.8113 47.466 60.7243 46.63 61.7473 46.63C62.7703 46.63 63.6943 47.466 63.6943 49.985ZM67.651 48.94L70.082 45.893H68.817L66.573 48.918C65.869 49.842 65.572 50.656 65.572 51.371C65.572 53.043 66.639 54.143 68.278 54.143C69.928 54.143 71.072 52.977 71.072 51.481C71.072 49.93 69.972 49.05 68.652 49.05C68.113 49.05 67.662 49.204 67.266 49.468C67.343 49.38 67.464 49.204 67.651 48.94ZM68.256 53.296C67.156 53.296 66.551 52.592 66.551 51.536C66.551 50.623 67.244 49.831 68.322 49.831C69.323 49.831 70.06 50.491 70.06 51.558C70.06 52.559 69.323 53.296 68.256 53.296Z" fill="white" fill-opacity="0.6"/>
<path d="M114.706 49.985C114.706 47.114 113.408 45.805 111.747 45.805C110.075 45.805 108.788 47.114 108.788 49.985C108.788 52.845 110.075 54.154 111.747 54.154C113.408 54.154 114.706 52.845 114.706 49.985ZM113.694 49.985C113.694 52.493 112.77 53.34 111.747 53.34C110.724 53.34 109.811 52.493 109.811 49.985C109.811 47.466 110.724 46.63 111.747 46.63C112.77 46.63 113.694 47.466 113.694 49.985ZM121.061 46.586V45.937H115.759V46.795H119.972L119.598 47.411L116.309 54H117.42L121.061 46.586Z" fill="white" fill-opacity="0.6"/>
<path d="M164.706 49.985C164.706 47.114 163.408 45.805 161.747 45.805C160.075 45.805 158.788 47.114 158.788 49.985C158.788 52.845 160.075 54.154 161.747 54.154C163.408 54.154 164.706 52.845 164.706 49.985ZM163.694 49.985C163.694 52.493 162.77 53.34 161.747 53.34C160.724 53.34 159.811 52.493 159.811 49.985C159.811 47.466 160.724 46.63 161.747 46.63C162.77 46.63 163.694 47.466 163.694 49.985ZM169.455 49.798C170.335 49.479 170.775 48.841 170.775 47.906C170.775 46.718 169.752 45.739 168.278 45.739C166.749 45.739 165.781 46.718 165.781 47.906C165.781 48.83 166.243 49.479 167.079 49.798C166.067 50.073 165.484 50.777 165.484 51.833C165.484 53.274 166.628 54.187 168.278 54.187C169.906 54.187 171.05 53.274 171.05 51.833C171.05 50.777 170.478 50.073 169.455 49.798ZM168.278 46.542C169.268 46.542 169.752 47.169 169.752 47.939C169.752 48.676 169.367 49.413 168.278 49.413C167.167 49.413 166.782 48.676 166.782 47.939C166.782 47.169 167.266 46.542 168.278 46.542ZM168.278 53.362C167.178 53.362 166.551 52.746 166.551 51.822C166.551 50.689 167.354 50.216 168.278 50.216C169.191 50.216 169.983 50.689 169.983 51.822C169.983 52.746 169.378 53.362 168.278 53.362Z" fill="white" fill-opacity="0.6"/>
<path d="M214.706 49.985C214.706 47.114 213.408 45.805 211.747 45.805C210.075 45.805 208.788 47.114 208.788 49.985C208.788 52.845 210.075 54.154 211.747 54.154C213.408 54.154 214.706 52.845 214.706 49.985ZM213.694 49.985C213.694 52.493 212.77 53.34 211.747 53.34C210.724 53.34 209.811 52.493 209.811 49.985C209.811 47.466 210.724 46.63 211.747 46.63C212.77 46.63 213.694 47.466 213.694 49.985ZM219.015 50.799L216.507 54H217.772L219.983 50.953C220.599 50.106 220.951 49.369 220.951 48.412C220.951 46.839 219.906 45.739 218.322 45.739C216.716 45.739 215.583 46.894 215.583 48.335C215.583 49.864 216.639 50.7 217.904 50.7C218.509 50.7 219.026 50.524 219.455 50.183C219.378 50.282 219.246 50.491 219.015 50.799ZM216.606 48.258C216.606 47.279 217.288 46.608 218.311 46.608C219.257 46.608 219.972 47.235 219.972 48.291C219.972 49.138 219.334 49.908 218.234 49.908C217.222 49.908 216.606 49.325 216.606 48.258Z" fill="white" fill-opacity="0.6"/>
<path d="M264.233 54V53.186H262.649V45.893H261.846L259.679 47.763L260.218 48.412L261.681 47.103C261.67 47.18 261.67 47.279 261.67 47.378V53.186H259.877V54H264.233ZM271.259 49.985C271.259 47.114 269.961 45.805 268.3 45.805C266.628 45.805 265.341 47.114 265.341 49.985C265.341 52.845 266.628 54.154 268.3 54.154C269.961 54.154 271.259 52.845 271.259 49.985ZM270.247 49.985C270.247 52.493 269.323 53.34 268.3 53.34C267.277 53.34 266.364 52.493 266.364 49.985C266.364 47.466 267.277 46.63 268.3 46.63C269.323 46.63 270.247 47.466 270.247 49.985Z" fill="white" fill-opacity="0.6"/>
<rect x="4.5" y="67" width="10" height="10" fill="white" fill-opacity="0.87"/>
<path d="M22.007 68.674H28.057V69.026C28.057 70.522 27.991 71.82 27.716 73.305L28.607 73.415C28.959 71.567 28.959 70.28 28.959 69.026V67.937H22.007V68.674ZM30.004 75.428V74.691H26.605V71.424H25.714V74.691H24.163V71.424H23.272V74.691H21.083V75.428H30.004ZM40.1231 72.898V72.172H36.1081V71.204H39.0781V70.5H33.2701V69.532H38.7591V68.85H33.2701V67.937H39.0231V67.233H32.3681V71.204H35.2061V72.172H31.1911V72.898H40.1231ZM35.6571 73.646C33.4681 73.646 32.2801 74.196 32.2801 75.219C32.2801 76.275 33.4681 76.803 35.6571 76.803C37.8461 76.803 39.0341 76.275 39.0341 75.219C39.0341 74.196 37.8461 73.646 35.6571 73.646ZM35.6571 76.121C34.0621 76.121 33.1821 75.835 33.1821 75.219C33.1821 74.636 34.0621 74.317 35.6571 74.317C37.2521 74.317 38.1321 74.636 38.1321 75.219C38.1321 75.835 37.2521 76.121 35.6571 76.121ZM48.9773 70.566V69.235H50.4403V68.487H48.9773V66.958H48.0753V72.92H48.9773V71.314H50.4403V70.566H48.9773ZM47.2173 72.018L47.1293 71.281C45.6333 71.545 44.3683 71.6 42.6413 71.6V70.236H46.1723V67.563H41.7283V68.3H45.2813V69.543H41.7503V72.337H42.5313C44.3573 72.337 45.6663 72.282 47.2173 72.018ZM45.8313 73.206C43.8183 73.206 42.5863 73.866 42.5863 75.01C42.5863 76.154 43.8183 76.803 45.8313 76.803C47.8223 76.803 49.0763 76.154 49.0763 75.01C49.0763 73.866 47.8223 73.206 45.8313 73.206ZM45.8313 76.11C44.3243 76.11 43.4663 75.714 43.4663 75.01C43.4663 74.306 44.3243 73.91 45.8313 73.91C47.3383 73.91 48.1853 74.306 48.1853 75.01C48.1853 75.714 47.3383 76.11 45.8313 76.11Z" fill="white" fill-opacity="0.87"/>
<rect x="65.5" y="71" width="10" height="2" fill="white" fill-opacity="0.87"/>
<path d="M91.004 72.898V72.172H86.989V71.204H89.959V70.5H84.151V69.532H89.64V68.85H84.151V67.937H89.904V67.233H83.249V71.204H86.087V72.172H82.072V72.898H91.004ZM86.538 73.646C84.349 73.646 83.161 74.196 83.161 75.219C83.161 76.275 84.349 76.803 86.538 76.803C88.727 76.803 89.915 76.275 89.915 75.219C89.915 74.196 88.727 73.646 86.538 73.646ZM86.538 76.121C84.943 76.121 84.063 75.835 84.063 75.219C84.063 74.636 84.943 74.317 86.538 74.317C88.133 74.317 89.013 74.636 89.013 75.219C89.013 75.835 88.133 76.121 86.538 76.121ZM97.5481 72.843H98.4061V70.368H99.6601V73.195H100.529V66.947H99.6601V69.631H98.4061V67.145H97.5481V72.843ZM92.1471 68.839H97.1631V68.124H95.1061V67.024H94.2151V68.124H92.1471V68.839ZM96.7671 71.039C96.7671 70.027 95.9091 69.356 94.6661 69.356C93.4231 69.356 92.5541 70.027 92.5541 71.039C92.5541 72.062 93.4231 72.733 94.6661 72.733C95.9091 72.733 96.7671 72.062 96.7671 71.039ZM93.3681 71.039C93.3681 70.423 93.8741 70.027 94.6661 70.027C95.4581 70.027 95.9641 70.423 95.9641 71.039C95.9641 71.655 95.4581 72.062 94.6661 72.062C93.8741 72.062 93.3681 71.655 93.3681 71.039ZM97.2841 73.36C95.2271 73.36 93.9841 73.987 93.9841 75.087C93.9841 76.187 95.2271 76.803 97.2841 76.803C99.3411 76.803 100.584 76.187 100.584 75.087C100.584 73.987 99.3411 73.36 97.2841 73.36ZM97.2841 76.11C95.7771 76.11 94.8751 75.747 94.8751 75.087C94.8751 74.427 95.7771 74.053 97.2841 74.053C98.7911 74.053 99.6821 74.427 99.6821 75.087C99.6821 75.747 98.7911 76.11 97.2841 76.11ZM110.362 70.918L110.703 70.192C108.943 69.961 107.238 68.85 107.238 67.541V67.101H106.314V67.541C106.314 68.85 104.62 69.961 102.86 70.192L103.201 70.918C104.708 70.654 106.16 69.895 106.776 68.751C107.392 69.895 108.866 70.654 110.362 70.918ZM111.275 72.634V71.897H107.227V70.401H106.325V71.897H102.321V72.634H111.275ZM110.142 73.591H103.311V74.328H109.24V76.825H110.142V73.591ZM121.394 75.571V74.823H117.357V72.293H120.36V71.567H114.475V68.476H120.261V67.739H113.573V72.293H116.444V74.823H112.429V75.571H121.394Z" fill="white" fill-opacity="0.87"/>
<rect x="136.5" y="67" width="10" height="10" fill="#27D4FF"/>
<path d="M160.299 66.958V69.675H158.319V70.412H160.299V74.185H161.212V66.958H160.299ZM158.451 72.7L158.902 71.996C157.472 71.501 156.504 70.247 156.504 68.971V68.487H158.671V67.75H153.402V68.487H155.602V68.982C155.602 70.379 154.579 71.688 153.116 72.216L153.589 72.92C154.744 72.491 155.646 71.611 156.075 70.467C156.504 71.479 157.351 72.304 158.451 72.7ZM161.487 76.594V75.857H155.811V73.547H154.898V76.594H161.487ZM170.396 72.007H171.298V66.947H170.396V72.007ZM168.526 69.499C168.526 68.19 167.437 67.299 165.974 67.299C164.511 67.299 163.433 68.19 163.433 69.499C163.433 70.786 164.511 71.677 165.974 71.677C167.437 71.677 168.526 70.786 168.526 69.499ZM164.302 69.499C164.302 68.652 165.017 68.036 165.974 68.036C166.942 68.036 167.646 68.652 167.646 69.499C167.646 70.335 166.942 70.951 165.974 70.951C165.017 70.951 164.302 70.335 164.302 69.499ZM171.628 76.682V75.967H165.82V74.878H171.298V72.491H164.907V73.206H170.407V74.207H164.929V76.682H171.628Z" fill="white" fill-opacity="0.87"/>
<rect x="187.5" y="67" width="10" height="10" fill="#0068E6"/>
<path d="M204.105 68.883H209.627V68.157H207.361V66.947H206.459V68.157H204.105V68.883ZM211.299 66.958V69.576H209.627V70.313H211.299V71.644H209.627V72.381H211.299V74.471H212.212V66.958H211.299ZM209.132 71.303C209.132 70.181 208.208 69.433 206.899 69.433C205.59 69.433 204.666 70.181 204.666 71.303C204.666 72.436 205.59 73.195 206.899 73.195C208.208 73.195 209.132 72.436 209.132 71.303ZM205.524 71.303C205.524 70.599 206.063 70.137 206.899 70.137C207.735 70.137 208.274 70.599 208.274 71.303C208.274 72.007 207.735 72.491 206.899 72.491C206.063 72.491 205.524 72.007 205.524 71.303ZM212.443 76.594V75.857H206.767V73.833H205.865V76.594H212.443ZM222.617 76.814V66.936H221.748V70.929H220.45V67.167H219.603V76.33H220.45V71.677H221.748V76.814H222.617ZM217.117 69.62V68.85H218.91V68.113H214.334V68.85H216.248V69.62C216.248 71.611 215.511 73.305 214.103 74.097L214.653 74.779C215.676 74.163 216.358 73.151 216.699 71.776C217.051 72.964 217.733 73.899 218.701 74.438L219.229 73.745C217.821 73.008 217.117 71.435 217.117 69.62Z" fill="white" fill-opacity="0.87"/>
<rect x="238.5" y="67" width="10" height="10" fill="#8972FF"/>
<path d="M262.299 66.958V69.675H260.319V70.412H262.299V74.185H263.212V66.958H262.299ZM260.451 72.7L260.902 71.996C259.472 71.501 258.504 70.247 258.504 68.971V68.487H260.671V67.75H255.402V68.487H257.602V68.982C257.602 70.379 256.579 71.688 255.116 72.216L255.589 72.92C256.744 72.491 257.646 71.611 258.075 70.467C258.504 71.479 259.351 72.304 260.451 72.7ZM263.487 76.594V75.857H257.811V73.547H256.898V76.594H263.487ZM265.741 71.028L266.082 71.743C267.622 71.479 269.052 70.665 269.668 69.488C270.251 70.665 271.725 71.479 273.254 71.743L273.606 71.028C271.868 70.764 270.163 69.642 270.163 68.344V68.289H273.254V67.563H266.049V68.289H269.162V68.344C269.162 69.642 267.457 70.764 265.741 71.028ZM270.097 73.305H274.134L274.123 72.568H265.213V73.305H269.195V76.814H270.097V73.305Z" fill="white" fill-opacity="0.87"/>
</svg>
