<svg width="24" height="24" viewBox="0 0 24 24" fill="none" xmlns="http://www.w3.org/2000/svg">
<path d="M23.9887 12.5203C23.8858 14.8915 23.0821 17.1789 21.6792 19.0932C20.2762 21.0076 18.3372 22.463 16.1071 23.2753C13.877 24.0876 11.4562 24.2204 9.15067 23.6568C6.84515 23.0933 4.75853 21.8587 3.15466 20.1092C1.55079 18.3598 0.501719 16.174 0.140108 13.8283C-0.221503 11.4826 0.120589 9.0824 1.12312 6.93114C2.12566 4.77988 3.7436 2.97422 5.77236 1.7425C7.80112 0.510777 10.1496 -0.0916822 12.5207 0.0113063C15.7003 0.149405 18.6947 1.54488 20.8454 3.89076C22.996 6.23664 24.1267 9.34077 23.9887 12.5203Z" fill="#00BD78"/>
<path d="M9.50481 17.4002L9.40346 17.2897L5.03882 12.5276L4.9375 12.417L5.04802 12.3157L6.7028 10.7981L6.81338 10.6967L6.91476 10.8073L9.6605 13.8032L17.3783 6.73019L17.4888 6.62891L17.5902 6.73937L19.1086 8.39416L19.2101 8.50474L19.0994 8.60615L9.61539 17.2989L9.50481 17.4002Z" fill="white"/>
<path d="M9.515 17.1892L18.9991 8.49649L17.4806 6.8417L9.65223 14.016L6.80514 10.9096L5.15036 12.4272L9.515 17.1892ZM9.49654 17.6131L4.72656 12.4088L6.82354 10.4857L9.6707 13.5922L17.499 6.41797L19.4231 8.51483L9.49654 17.6131Z" fill="white"/>
</svg>
