<svg width="20" height="20" viewBox="0 0 20 20" fill="none" xmlns="http://www.w3.org/2000/svg">
<mask id="mask0_193_19124" style="mask-type:luminance" maskUnits="userSpaceOnUse" x="0" y="0" width="20" height="20">
<path d="M20 0H0V20H20V0Z" fill="white"/>
</mask>
<g mask="url(#mask0_193_19124)">
<path d="M13.8 11.25H9.45C9.39696 11.25 9.34609 11.2289 9.30858 11.1914C9.27107 11.1539 9.25 11.103 9.25 11.05V6.2C9.25 6.14696 9.27107 6.09609 9.30858 6.05858C9.34609 6.02107 9.39696 6 9.45 6H10.55C10.603 6 10.6539 6.02107 10.6914 6.05858C10.7289 6.09609 10.75 6.14696 10.75 6.2V9.75H13.8C13.853 9.75 13.9039 9.77107 13.9414 9.80858C13.9789 9.84609 14 9.89696 14 9.95V11.05C14 11.103 13.9789 11.1539 13.9414 11.1914C13.9039 11.2289 13.853 11.25 13.8 11.25Z" fill="white"/>
<path d="M10 3.5C11.2856 3.5 12.5423 3.88122 13.6112 4.59545C14.6801 5.30968 15.5133 6.32484 16.0052 7.51256C16.4972 8.70028 16.6259 10.0072 16.3751 11.2681C16.1243 12.529 15.5052 13.6872 14.5962 14.5962C13.6872 15.5052 12.529 16.1243 11.2681 16.3751C10.0072 16.6259 8.70028 16.4972 7.51256 16.0052C6.32484 15.5132 5.30968 14.6801 4.59545 13.6112C3.88122 12.5423 3.5 11.2856 3.5 10C3.50212 8.27674 4.18762 6.62467 5.40615 5.40614C6.62468 4.18762 8.27675 3.50212 10 3.5ZM10 2C8.41775 2 6.87103 2.46919 5.55544 3.34824C4.23985 4.22729 3.21447 5.47672 2.60897 6.93853C2.00347 8.40034 1.84504 10.0089 2.15372 11.5607C2.4624 13.1126 3.22433 14.538 4.34315 15.6569C5.46197 16.7757 6.88743 17.5376 8.43928 17.8463C9.99113 18.155 11.5997 17.9965 13.0615 17.391C14.5233 16.7855 15.7727 15.7602 16.6518 14.4446C17.5308 13.129 18 11.5823 18 10C18 7.87827 17.1571 5.84344 15.6569 4.34315C14.1566 2.84285 12.1217 2 10 2Z" fill="white"/>
</g>
</svg>
