<svg width="12" height="12" viewBox="0 0 12 12" fill="none" xmlns="http://www.w3.org/2000/svg">
<path d="M6.22604 7.81896C6.19789 7.85122 6.16315 7.87707 6.12417 7.89479C6.08519 7.9125 6.04286 7.92167 6.00004 7.92167C5.95723 7.92167 5.9149 7.9125 5.87592 7.89479C5.83694 7.87707 5.8022 7.85122 5.77404 7.81896L2.93504 4.57496C2.8963 4.53164 2.87097 4.478 2.86213 4.42056C2.85329 4.36312 2.86133 4.30435 2.88527 4.25139C2.90921 4.19843 2.94801 4.15356 2.99697 4.12224C3.04593 4.09092 3.10293 4.0745 3.16104 4.07496H8.83904C8.89716 4.0745 8.95416 4.09092 9.00312 4.12224C9.05207 4.15356 9.09088 4.19843 9.11482 4.25139C9.13876 4.30435 9.14679 4.36312 9.13796 4.42056C9.12912 4.478 9.10379 4.53164 9.06504 4.57496L6.22604 7.81896Z" fill="white"/>
</svg>
