<svg width="12" height="13" viewBox="0 0 12 13" fill="none" xmlns="http://www.w3.org/2000/svg">
<g id="view more open - 8px">
<g id="&#234;&#183;&#184;&#235;&#163;&#185; 171839">
<g id="&#234;&#183;&#184;&#235;&#163;&#185; 165987">
<path id="&#237;&#149;&#169;&#236;&#185;&#152;&#234;&#184;&#176; 9" d="M6.2258 8.31896C6.19764 8.35122 6.1629 8.37707 6.12392 8.39479C6.08494 8.4125 6.04262 8.42167 5.9998 8.42167C5.95698 8.42167 5.91466 8.4125 5.87568 8.39479C5.8367 8.37707 5.80196 8.35122 5.7738 8.31896L2.9348 5.07496C2.89605 5.03164 2.87072 4.978 2.86189 4.92056C2.85305 4.86312 2.86109 4.80435 2.88503 4.75139C2.90896 4.69843 2.94777 4.65356 2.99673 4.62224C3.04568 4.59092 3.10268 4.5745 3.1608 4.57496H8.8388C8.89692 4.5745 8.95392 4.59092 9.00287 4.62224C9.05183 4.65356 9.09064 4.69843 9.11457 4.75139C9.13851 4.80435 9.14655 4.86312 9.13771 4.92056C9.12888 4.978 9.10355 5.03164 9.0648 5.07496L6.2258 8.31896Z" fill="black"/>
</g>
</g>
</g>
</svg>
