<svg width="20" height="20" viewBox="0 0 20 20" fill="none" xmlns="http://www.w3.org/2000/svg">
<mask id="mask0_331_9217" style="mask-type:luminance" maskUnits="userSpaceOnUse" x="0" y="0" width="20" height="20">
<path d="M20 0H0V20H20V0Z" fill="white"/>
</mask>
<g mask="url(#mask0_331_9217)">
<path d="M16.512 10.6678L16.018 10.3828L14.25 13.4458L14.744 13.7308C14.9354 13.841 15.1627 13.8708 15.3761 13.8136C15.5894 13.7565 15.7714 13.617 15.882 13.4258L16.817 11.8058C16.8717 11.7111 16.9072 11.6065 16.9215 11.498C16.9358 11.3895 16.9285 11.2793 16.9002 11.1736C16.8719 11.068 16.823 10.9689 16.7564 10.8821C16.6898 10.7953 16.6068 10.7225 16.512 10.6678Z" fill="white"/>
<path d="M15.251 9.21344L13.086 7.96344C13.0386 7.93604 12.9863 7.91826 12.932 7.91112C12.8777 7.90399 12.8226 7.90763 12.7697 7.92184C12.7169 7.93606 12.6674 7.96056 12.624 7.99395C12.5806 8.02735 12.5443 8.06897 12.517 8.11644L11.267 10.2814C11.2116 10.3769 11.1206 10.4466 11.0139 10.4751C10.9073 10.5036 10.7936 10.4886 10.698 10.4334L5.646 7.51644C5.55023 7.46137 5.43653 7.44656 5.32985 7.47524C5.22317 7.50393 5.13223 7.57377 5.077 7.66944L4.66 8.39144C4.60485 8.48709 4.58988 8.6007 4.61837 8.70736C4.64687 8.81403 4.7165 8.90504 4.812 8.96044L8.06 10.8354L7.385 12.0054C7.05256 11.9921 6.7239 12.0801 6.44262 12.2578C6.16133 12.4355 5.94071 12.6945 5.81 13.0004H4V12.0004C4 11.7352 3.89464 11.4809 3.70711 11.2933C3.51957 11.1058 3.26522 11.0004 3 11.0004H2V17.0004H3C3.26522 17.0004 3.51957 16.8951 3.70711 16.7075C3.89464 16.52 4 16.2657 4 16.0004V14.6664H6.009C6.05369 14.7292 6.10246 14.789 6.155 14.8454C6.41024 15.1036 6.74296 15.2712 7.10235 15.3225C7.46175 15.3739 7.82807 15.3062 8.14541 15.1299C8.46275 14.9535 8.71366 14.6782 8.85984 14.3459C9.00602 14.0136 9.03944 13.6425 8.955 13.2894L9.795 11.8354L12.754 13.5434C12.8496 13.5986 12.9633 13.6136 13.0699 13.5851C13.1766 13.5566 13.2676 13.4869 13.323 13.3914L13.948 12.3084L15.4 9.78244C15.4274 9.73511 15.4453 9.68284 15.4525 9.62861C15.4597 9.57438 15.4561 9.51926 15.442 9.46641C15.4279 9.41356 15.4035 9.36401 15.3702 9.3206C15.3369 9.27719 15.2954 9.24078 15.248 9.21344" fill="white"/>
<path d="M17.5849 7.67315L8.20194 2.25615C8.1072 2.20144 8.0026 2.16594 7.89413 2.15166C7.78566 2.13738 7.67544 2.14461 7.56977 2.17293C7.46409 2.20125 7.36503 2.25011 7.27824 2.31673C7.19145 2.38334 7.11863 2.46639 7.06394 2.56115L6.64694 3.28315L5.40194 5.44815C5.29104 5.63889 5.26034 5.86584 5.31658 6.0792C5.37283 6.29255 5.51142 6.47487 5.70194 6.58615L10.0319 9.08615C10.1267 9.14099 10.2313 9.1766 10.3398 9.19095C10.4483 9.2053 10.5585 9.19811 10.6642 9.16977C10.7699 9.14144 10.869 9.09253 10.9558 9.02584C11.0426 8.95916 11.1154 8.87601 11.1699 8.78115L12.0019 7.33815C12.1132 7.14763 12.2955 7.00904 12.5089 6.95279C12.7222 6.89655 12.9492 6.92725 13.1399 7.03815L16.7519 9.11615C16.8467 9.17085 16.9513 9.20634 17.0598 9.22062C17.1682 9.23489 17.2784 9.22766 17.3841 9.19934C17.4898 9.17102 17.5888 9.12216 17.6756 9.05555C17.7624 8.98895 17.8352 8.9059 17.8899 8.81115C17.9446 8.7164 17.9801 8.61181 17.9944 8.50334C18.0087 8.39487 18.0015 8.28466 17.9731 8.17898C17.9448 8.07331 17.896 7.97425 17.8293 7.88746C17.7627 7.80067 17.6797 7.72785 17.5849 7.67315ZM8.81294 4.53315C8.73056 4.67582 8.60773 4.79086 8.45998 4.86372C8.31222 4.93658 8.14618 4.96399 7.98284 4.94249C7.81951 4.92099 7.66621 4.85154 7.54235 4.74292C7.41848 4.6343 7.32961 4.49139 7.28696 4.33226C7.24431 4.17314 7.2498 4.00493 7.30275 3.84893C7.35569 3.69292 7.4537 3.55612 7.58439 3.45581C7.71508 3.35551 7.87258 3.29621 8.03697 3.28541C8.20136 3.27461 8.36526 3.3128 8.50794 3.39515C8.6027 3.44984 8.68576 3.52266 8.75237 3.60945C8.81898 3.69624 8.86784 3.7953 8.89617 3.90097C8.92449 4.00665 8.93172 4.11687 8.91744 4.22534C8.90316 4.33381 8.86765 4.4384 8.81294 4.53315Z" fill="white"/>
</g>
</svg>
