<svg width="20" height="20" viewBox="0 0 20 20" fill="none" xmlns="http://www.w3.org/2000/svg">
<mask id="mask0_331_8792" style="mask-type:luminance" maskUnits="userSpaceOnUse" x="0" y="0" width="20" height="20">
<path d="M20 0H0V20H20V0Z" fill="white"/>
</mask>
<g mask="url(#mask0_331_8792)">
<path d="M17 6H13V4H14.5C14.6326 4 14.7598 3.94732 14.8536 3.85355C14.9473 3.75979 15 3.63261 15 3.5C15 3.36739 14.9473 3.24021 14.8536 3.14645C14.7598 3.05268 14.6326 3 14.5 3H5.5C5.36739 3 5.24021 3.05268 5.14645 3.14645C5.05268 3.24021 5 3.36739 5 3.5C5 3.63261 5.05268 3.75979 5.14645 3.85355C5.24021 3.94732 5.36739 4 5.5 4H7V6H3C2.73478 6 2.48043 6.10536 2.29289 6.29289C2.10536 6.48043 2 6.73478 2 7V16C2 16.2652 2.10536 16.5196 2.29289 16.7071C2.48043 16.8946 2.73478 17 3 17H17C17.2652 17 17.5196 16.8946 17.7071 16.7071C17.8946 16.5196 18 16.2652 18 16V7C18 6.73478 17.8946 6.48043 17.7071 6.29289C17.5196 6.10536 17.2652 6 17 6ZM8 4H12V6H8V4ZM17 15.5C17 15.6326 16.9473 15.7598 16.8536 15.8536C16.7598 15.9473 16.6326 16 16.5 16H3.5C3.36739 16 3.24021 15.9473 3.14645 15.8536C3.05268 15.7598 3 15.6326 3 15.5V7.5C3 7.36739 3.05268 7.24021 3.14645 7.14645C3.24021 7.05268 3.36739 7 3.5 7H16.5C16.6326 7 16.7598 7.05268 16.8536 7.14645C16.9473 7.24021 17 7.36739 17 7.5V15.5Z" fill="white"/>
<path d="M15.5 8H4.5C4.36739 8 4.24021 8.05268 4.14645 8.14645C4.05268 8.24021 4 8.36739 4 8.5V14.5C4 14.6326 4.05268 14.7598 4.14645 14.8536C4.24021 14.9473 4.36739 15 4.5 15H15.5C15.6326 15 15.7598 14.9473 15.8536 14.8536C15.9473 14.7598 16 14.6326 16 14.5V8.5C16 8.36739 15.9473 8.24021 15.8536 8.14645C15.7598 8.05268 15.6326 8 15.5 8ZM7.1 13.165H6.227L5.115 9.835H5.988L6.659 12.17H6.668L7.343 9.835H8.22L7.1 13.165ZM12.1 13.165H11.318L11.344 10.672L11.335 10.663L10.624 13.163H10.07L9.359 10.663L9.35 10.672L9.377 13.165H8.594V9.835H9.687L10.349 12.026H10.358L11.01 9.835H12.11L12.1 13.165ZM14.818 12.573C14.7787 12.6946 14.7127 12.806 14.625 12.899C14.5237 13.0021 14.4017 13.0826 14.267 13.135C13.8953 13.2632 13.4907 13.2586 13.122 13.122C12.9808 13.0632 12.8546 12.9733 12.753 12.859C12.6661 12.7603 12.6022 12.6435 12.566 12.517C12.5327 12.4043 12.5152 12.2875 12.514 12.17V12.062H13.36C13.3574 12.1417 13.3703 12.2212 13.398 12.296C13.4199 12.3499 13.4542 12.3978 13.498 12.436C13.5307 12.4664 13.5701 12.4886 13.613 12.501C13.6455 12.5104 13.6791 12.5158 13.713 12.517C13.7576 12.5191 13.8021 12.5112 13.8433 12.4939C13.8845 12.4766 13.9213 12.4503 13.951 12.417C14.0047 12.357 14.0349 12.2795 14.036 12.199C14.0378 12.1507 14.0278 12.1026 14.007 12.059C13.9835 12.015 13.9491 11.9778 13.907 11.951C13.8431 11.9106 13.7763 11.8752 13.707 11.845C13.623 11.807 13.517 11.762 13.388 11.708C13.328 11.684 13.252 11.65 13.161 11.608C13.0644 11.5612 12.9743 11.5021 12.893 11.432C12.802 11.3539 12.7258 11.2601 12.668 11.155C12.6024 11.0321 12.57 10.8942 12.574 10.755C12.5702 10.61 12.6047 10.4665 12.674 10.339C12.742 10.2187 12.8339 10.1135 12.944 10.03C13.057 9.94565 13.1834 9.88107 13.318 9.839C13.6159 9.74385 13.9373 9.75338 14.229 9.866C14.3872 9.92433 14.5275 10.0229 14.636 10.152C14.6805 10.2068 14.719 10.2661 14.751 10.329C14.7778 10.3843 14.7996 10.4418 14.816 10.501C14.8306 10.553 14.8403 10.6062 14.845 10.66C14.85 10.711 14.853 10.76 14.857 10.809H14.015C14.009 10.782 14.002 10.75 13.995 10.709C13.9869 10.6708 13.9724 10.6343 13.952 10.601C13.93 10.5657 13.8998 10.5362 13.864 10.515C13.8161 10.4907 13.7627 10.4793 13.709 10.482C13.636 10.482 13.5653 10.5075 13.509 10.554C13.48 10.5761 13.4566 10.6047 13.4408 10.6376C13.425 10.6704 13.4172 10.7066 13.418 10.743C13.4167 10.7862 13.4245 10.8291 13.441 10.869C13.4647 10.9107 13.4993 10.9453 13.541 10.969C13.6073 11.0137 13.6772 11.0528 13.75 11.086C13.84 11.13 13.96 11.186 14.11 11.25C14.2449 11.308 14.3738 11.379 14.495 11.462C14.5853 11.5245 14.6656 11.6003 14.733 11.687C14.7894 11.7598 14.8308 11.8431 14.855 11.932C14.8777 12.0209 14.8892 12.1123 14.889 12.204C14.8885 12.3287 14.8686 12.4525 14.83 12.571" fill="white"/>
</g>
</svg>
