<svg width="48" height="54" viewBox="0 0 48 54" fill="none" xmlns="http://www.w3.org/2000/svg">
<path d="M24 46C23.6526 46 23.3259 45.8653 23.0802 45.6208L12.5323 35.0188C9.5478 31.9673 7.93777 27.9385 8.00184 23.6781C8.13157 15.0332 15.3094 8 24.0024 8C24.0526 8 24.104 8.00025 24.1543 8.00075C28.3956 8.04068 32.3767 9.71443 35.3642 12.7138C38.3536 15.715 40 19.6952 40 23.9211C40 28.089 38.3893 32.0314 35.4647 35.022L24.9178 45.6226C24.674 45.8653 24.3474 45.9999 24 46Z" fill="#0068E6"/>
<path d="M24.0024 8C15.3095 7.99939 8.13192 15.0471 8.00187 23.758C7.93548 28.1949 9.67773 32.2229 12.5353 35.1596L22.7554 45.4843C23.4428 46.1719 24.5573 46.1719 25.2445 45.4843L35.4648 35.1596C38.2697 32.2768 40 28.3426 40 24.0022C40 15.2161 32.9198 8.08368 24.1542 8.00073C24.1039 8.00024 24.0525 8 24.0024 8ZM24.0011 0L24.2306 0.00109863C37.3368 0.125122 48 10.892 48 24.0022C48 30.287 45.5845 36.2307 41.1985 40.7385L30.93 51.1124C29.0596 52.9841 26.608 54.0001 24 54.0001C21.3925 54.0001 18.9411 52.9844 17.0975 51.1402L6.84972 40.7876C2.32126 36.1341 -0.0933311 30.0611 0.00276112 23.6383C0.197364 10.6042 10.963 0 24.0011 0Z" fill="#27D4FF" fill-opacity="0.4"/>
<path d="M24.0024 8C15.3096 7.99939 8.13191 15.0471 8.00186 23.758C7.93547 28.1949 9.67772 32.2229 12.5353 35.1596L22.7554 45.4843C23.4428 46.1719 24.5573 46.1719 25.2445 45.4843L35.4648 35.1596C38.2697 32.2768 40 28.3426 40 24.0022C40 15.2161 32.9198 8.08368 24.1542 8.00073C24.1039 8.00024 24.0525 8 24.0024 8ZM24.0012 4H24.0027C24.0654 4 24.1292 4.00031 24.1916 4.00092C26.8701 4.02625 29.4674 4.57343 31.9117 5.62726C34.2721 6.64484 36.3896 8.08984 38.2054 9.92212C40.022 11.7552 41.4482 13.8867 42.4444 16.2574C43.4766 18.7137 44 21.3195 44 24.0022C44 29.2392 41.9869 34.1923 38.3316 37.949L38.3075 37.9736L28.0738 48.3119C26.9858 49.4005 25.539 50 24 50C22.4611 50 21.0145 49.4006 19.9265 48.3123L19.9126 48.2983L9.66853 37.9492C7.85557 36.086 6.44192 33.9258 5.46685 31.5284C4.45455 29.0396 3.9618 26.405 4.00231 23.6981C4.04208 21.0339 4.60354 18.4487 5.67109 16.0145C6.69906 13.6706 8.15055 11.5668 9.98524 9.76141C11.8187 7.95734 13.9445 6.54016 16.3037 5.54938C18.7516 4.5213 21.3414 4 24.0012 4Z" fill="#27D4FF" fill-opacity="0.4"/>
<path d="M39.5001 24.0042V24.0048C39.5044 28.0424 37.9276 31.9213 35.1075 34.8108C35.1071 34.8112 35.1067 34.8116 35.1063 34.812L24.8906 45.1327C24.8903 45.1331 24.8899 45.1334 24.8896 45.1337C24.6534 45.3694 24.3334 45.5017 23.9996 45.5017C23.6658 45.5017 23.3456 45.3693 23.1094 45.1335C23.1092 45.1332 23.1089 45.133 23.1087 45.1327L12.8929 34.812C12.8925 34.8116 12.8921 34.8112 12.8917 34.8108C11.4677 33.3514 10.3466 31.6246 9.5932 29.7298C8.83964 27.8347 8.46879 25.8091 8.50205 23.77C8.57756 19.6785 10.2625 15.7816 13.1917 12.924C16.1209 10.0665 20.0582 8.4785 24.1501 8.50421C28.2348 8.54375 32.1387 10.1941 35.0132 13.0965C37.8878 15.999 39.5003 19.9191 39.5001 24.0042Z" stroke="#27D4FF"/>
<mask id="mask0_474_14100" style="mask-type:luminance" maskUnits="userSpaceOnUse" x="12" y="12" width="24" height="24">
<path d="M36 12H12V36H36V12Z" fill="white"/>
</mask>
<g mask="url(#mask0_474_14100)">
<path d="M30.5 33H17.5C17.3674 33 17.2402 32.9473 17.1464 32.8536C17.0527 32.7598 17 32.6326 17 32.5V31.5C17 31.3674 17.0527 31.2402 17.1464 31.1464C17.2402 31.0527 17.3674 31 17.5 31H30.5C30.6326 31 30.7598 31.0527 30.8536 31.1464C30.9473 31.2402 31 31.3674 31 31.5V32.5C31 32.6326 30.9473 32.7598 30.8536 32.8536C30.7598 32.9473 30.6326 33 30.5 33Z" fill="white"/>
<path d="M20.484 27.0317L19 29.9997H29L28.125 28.2497C26.8467 28.6719 25.4858 28.7816 24.1564 28.5697C22.827 28.3578 21.5677 27.8304 20.484 27.0317Z" fill="white"/>
<path d="M28.1854 24.3808L29.0674 19.3808C29.2517 19.2982 29.4133 19.1721 29.538 19.0133C29.6628 18.8544 29.7471 18.6676 29.7837 18.469C29.8202 18.2703 29.8079 18.0658 29.7478 17.8729C29.6877 17.6801 29.5817 17.5047 29.4387 17.362C29.2958 17.2192 29.1203 17.1134 28.9274 17.0535C28.7345 16.9937 28.5299 16.9816 28.3313 17.0184C28.1327 17.0552 27.946 17.1397 27.7873 17.2647C27.6286 17.3896 27.5027 17.5513 27.4204 17.7358L22.4204 18.6178L21.1574 17.3528C21.1089 17.3036 21.0507 17.265 20.9865 17.2394C20.9223 17.2138 20.8535 17.2018 20.7844 17.2042C20.7153 17.2065 20.6475 17.2232 20.5852 17.253C20.5229 17.2829 20.4674 17.3254 20.4224 17.3778C19.4299 18.6071 18.9271 20.1601 19.011 21.7378C19.0948 23.3155 19.7593 24.8065 20.8765 25.9237C21.9937 27.0409 23.4846 27.7053 25.0624 27.7892C26.6401 27.873 28.1931 27.3703 29.4224 26.3778C29.4749 26.3326 29.5174 26.2771 29.5473 26.2146C29.5772 26.1522 29.5938 26.0842 29.596 26.015C29.5983 25.9459 29.5861 25.877 29.5604 25.8127C29.5346 25.7485 29.4958 25.6902 29.4464 25.6418L28.1854 24.3808ZM23.2854 19.4808L27.4134 18.7518C27.5387 19.0364 27.7659 19.264 28.0504 19.3898L27.3224 23.5178L23.2854 19.4808Z" fill="white"/>
</g>
</svg>
