<svg width="48" height="54" viewBox="0 0 48 54" fill="none" xmlns="http://www.w3.org/2000/svg">
<path d="M24 46C23.6526 46 23.3259 45.8653 23.0802 45.6208L12.5323 35.0188C9.5478 31.9673 7.93777 27.9385 8.00184 23.6781C8.13157 15.0332 15.3094 8 24.0024 8C24.0526 8 24.104 8.00025 24.1543 8.00075C28.3956 8.04068 32.3767 9.71443 35.3642 12.7138C38.3536 15.715 40 19.6952 40 23.9211C40 28.089 38.3893 32.0314 35.4647 35.022L24.9178 45.6226C24.674 45.8653 24.3474 45.9999 24 46Z" fill="#0068E6"/>
<mask id="mask0_474_12871" style="mask-type:luminance" maskUnits="userSpaceOnUse" x="12" y="12" width="24" height="24">
<path d="M36 12H12V36H36V12Z" fill="white"/>
</mask>
<g mask="url(#mask0_474_12871)">
<path d="M30.5 33H17.5C17.3674 33 17.2402 32.9473 17.1464 32.8536C17.0527 32.7598 17 32.6326 17 32.5V31.5C17 31.3674 17.0527 31.2402 17.1464 31.1464C17.2402 31.0527 17.3674 31 17.5 31H30.5C30.6326 31 30.7598 31.0527 30.8536 31.1464C30.9473 31.2402 31 31.3674 31 31.5V32.5C31 32.6326 30.9473 32.7598 30.8536 32.8536C30.7598 32.9473 30.6326 33 30.5 33Z" fill="white"/>
<path d="M20.484 27.0317L19 29.9997H29L28.125 28.2497C26.8467 28.6719 25.4858 28.7816 24.1564 28.5697C22.827 28.3578 21.5677 27.8304 20.484 27.0317Z" fill="white"/>
<path d="M28.1854 24.3808L29.0674 19.3808C29.2517 19.2982 29.4133 19.1721 29.538 19.0133C29.6628 18.8544 29.7471 18.6676 29.7837 18.469C29.8202 18.2703 29.8079 18.0658 29.7478 17.8729C29.6877 17.6801 29.5817 17.5047 29.4387 17.362C29.2958 17.2192 29.1203 17.1134 28.9274 17.0535C28.7345 16.9937 28.5299 16.9816 28.3313 17.0184C28.1327 17.0552 27.946 17.1397 27.7873 17.2647C27.6286 17.3896 27.5027 17.5513 27.4204 17.7358L22.4204 18.6178L21.1574 17.3528C21.1089 17.3036 21.0507 17.265 20.9865 17.2394C20.9223 17.2138 20.8535 17.2018 20.7844 17.2042C20.7153 17.2065 20.6475 17.2232 20.5852 17.253C20.5229 17.2829 20.4674 17.3254 20.4224 17.3778C19.4299 18.6071 18.9271 20.1601 19.011 21.7378C19.0948 23.3155 19.7593 24.8065 20.8765 25.9237C21.9937 27.0409 23.4846 27.7053 25.0624 27.7892C26.6401 27.873 28.1931 27.3703 29.4224 26.3778C29.4749 26.3326 29.5174 26.2771 29.5473 26.2146C29.5772 26.1522 29.5938 26.0842 29.596 26.015C29.5983 25.9459 29.5861 25.877 29.5604 25.8127C29.5346 25.7485 29.4958 25.6902 29.4464 25.6418L28.1854 24.3808ZM23.2854 19.4808L27.4134 18.7518C27.5387 19.0364 27.7659 19.264 28.0504 19.3898L27.3224 23.5178L23.2854 19.4808Z" fill="white"/>
</g>
</svg>
