<svg width="20" height="20" viewBox="0 0 20 20" fill="none" xmlns="http://www.w3.org/2000/svg">
<mask id="mask0_370_12823" style="mask-type:luminance" maskUnits="userSpaceOnUse" x="0" y="0" width="20" height="20">
<path d="M20 0H0V20H20V0Z" fill="white"/>
</mask>
<g mask="url(#mask0_370_12823)">
<path d="M15.5714 17.6667H4.42857C4.31491 17.6667 4.2059 17.6228 4.12553 17.5446C4.04515 17.4665 4 17.3605 4 17.25V16.4167C4 16.3062 4.04515 16.2002 4.12553 16.122C4.2059 16.0439 4.31491 16 4.42857 16H15.5714C15.6851 16 15.7941 16.0439 15.8745 16.122C15.9548 16.2002 16 16.3062 16 16.4167V17.25C16 17.3605 15.9548 17.4665 15.8745 17.5446C15.7941 17.6228 15.6851 17.6667 15.5714 17.6667Z" fill="white"/>
<path d="M7.0726 12.5273L5.83594 15.0007H14.1693L13.4401 13.5423C12.3748 13.8941 11.2408 13.9855 10.133 13.809C9.02511 13.6324 7.9757 13.1929 7.0726 12.5273Z" fill="white"/>
<path d="M13.4888 10.3167L14.2238 6.15008C14.3774 6.0813 14.512 5.97619 14.616 5.84382C14.72 5.71146 14.7902 5.55579 14.8207 5.39024C14.8511 5.2247 14.8409 5.05423 14.7908 4.89352C14.7407 4.73281 14.6524 4.58669 14.5333 4.46774C14.4142 4.34879 14.2679 4.26057 14.1072 4.21069C13.9464 4.16082 13.7759 4.15077 13.6104 4.18143C13.4449 4.21208 13.2893 4.28251 13.1571 4.38666C13.0248 4.4908 12.9199 4.62553 12.8513 4.77925L8.68462 5.51425L7.63212 4.46008C7.59169 4.41908 7.54319 4.38691 7.48969 4.36559C7.43619 4.34428 7.37886 4.33429 7.32131 4.33624C7.26375 4.3382 7.20723 4.35207 7.15531 4.37697C7.10338 4.40187 7.05718 4.43726 7.01962 4.48091C6.19253 5.50533 5.77359 6.79948 5.84346 8.11426C5.91332 9.42903 6.46704 10.6715 7.39804 11.6025C8.32904 12.5335 9.5715 13.0872 10.8863 13.1571C12.2011 13.2269 13.4952 12.808 14.5196 11.9809C14.5634 11.9433 14.5988 11.897 14.6237 11.845C14.6486 11.7929 14.6624 11.7363 14.6643 11.6786C14.6662 11.621 14.6561 11.5636 14.6346 11.51C14.6132 11.4565 14.5808 11.408 14.5396 11.3676L13.4888 10.3167ZM9.40546 6.23341L12.8455 5.62591C12.9499 5.86314 13.1392 6.05276 13.3763 6.15758L12.7696 9.59758L9.40546 6.23341Z" fill="white"/>
</g>
</svg>
